<!DOCTYPE svg PUBLIC "-//W3C//DTD SVG 1.1//EN" "http://www.w3.org/Graphics/SVG/1.1/DTD/svg11.dtd">
<svg xmlns:xlink="http://www.w3.org/1999/xlink" xmlns="http://www.w3.org/2000/svg" width="317.728875pt" height="280.926775pt" viewBox="0 0 317.728875 280.926775" version="1.1">
 <metadata>
  <rdf:RDF xmlns:dc="http://purl.org/dc/elements/1.1/" xmlns:cc="http://creativecommons.org/ns#" xmlns:rdf="http://www.w3.org/1999/02/22-rdf-syntax-ns#">
   <cc:Work>
    <dc:type rdf:resource="http://purl.org/dc/dcmitype/StillImage"/>
    <dc:date>2023-10-23T16:10:55.621064</dc:date>
    <dc:format>image/svg+xml</dc:format>
    <dc:creator>
     <cc:Agent>
      <dc:title>Matplotlib v3.8.0, https://matplotlib.org/</dc:title>
     </cc:Agent>
    </dc:creator>
   </cc:Work>
  </rdf:RDF>
 </metadata>
 <defs>
  <style type="text/css">*{stroke-linejoin: round; stroke-linecap: butt}</style>
 </defs>
 <g id="figure_1">
  <g id="patch_1">
   <path d="M 0 280.926775  L 317.728875 280.926775  L 317.728875 0  L 0 0  z " style="fill: #ffffff"/>
  </g>
  <g id="axes_1">
   <g id="patch_2">
    <path d="M 43.189875 133.532594  L 310.528875 133.532594  L 310.528875 49.2059  L 43.189875 49.2059  z " style="fill: #eaeaf2"/>
   </g>
   <g id="matplotlib.axis_1">
    <g id="xtick_1">
     <g id="line2d_1">
      <path d="M 55.341648 133.532594  L 55.341648 49.2059  " clip-path="url(#pe202f6a15b)" style="fill: none; stroke: #ffffff; stroke-width: 0.8; stroke-linecap: round"/>
     </g>
    </g>
    <g id="xtick_2">
     <g id="line2d_2">
      <path d="M 103.948739 133.532594  L 103.948739 49.2059  " clip-path="url(#pe202f6a15b)" style="fill: none; stroke: #ffffff; stroke-width: 0.8; stroke-linecap: round"/>
     </g>
    </g>
    <g id="xtick_3">
     <g id="line2d_3">
      <path d="M 152.55583 133.532594  L 152.55583 49.2059  " clip-path="url(#pe202f6a15b)" style="fill: none; stroke: #ffffff; stroke-width: 0.8; stroke-linecap: round"/>
     </g>
    </g>
    <g id="xtick_4">
     <g id="line2d_4">
      <path d="M 201.16292 133.532594  L 201.16292 49.2059  " clip-path="url(#pe202f6a15b)" style="fill: none; stroke: #ffffff; stroke-width: 0.8; stroke-linecap: round"/>
     </g>
    </g>
    <g id="xtick_5">
     <g id="line2d_5">
      <path d="M 249.770011 133.532594  L 249.770011 49.2059  " clip-path="url(#pe202f6a15b)" style="fill: none; stroke: #ffffff; stroke-width: 0.8; stroke-linecap: round"/>
     </g>
    </g>
    <g id="xtick_6">
     <g id="line2d_6">
      <path d="M 298.377102 133.532594  L 298.377102 49.2059  " clip-path="url(#pe202f6a15b)" style="fill: none; stroke: #ffffff; stroke-width: 0.8; stroke-linecap: round"/>
     </g>
    </g>
    <g id="xtick_7">
     <g id="line2d_7">
      <path d="M 43.189875 133.532594  L 43.189875 49.2059  " clip-path="url(#pe202f6a15b)" style="fill: none; stroke: #ffffff; stroke-width: 0.5; stroke-linecap: round"/>
     </g>
    </g>
    <g id="xtick_8">
     <g id="line2d_8">
      <path d="M 67.49342 133.532594  L 67.49342 49.2059  " clip-path="url(#pe202f6a15b)" style="fill: none; stroke: #ffffff; stroke-width: 0.5; stroke-linecap: round"/>
     </g>
    </g>
    <g id="xtick_9">
     <g id="line2d_9">
      <path d="M 79.645193 133.532594  L 79.645193 49.2059  " clip-path="url(#pe202f6a15b)" style="fill: none; stroke: #ffffff; stroke-width: 0.5; stroke-linecap: round"/>
     </g>
    </g>
    <g id="xtick_10">
     <g id="line2d_10">
      <path d="M 91.796966 133.532594  L 91.796966 49.2059  " clip-path="url(#pe202f6a15b)" style="fill: none; stroke: #ffffff; stroke-width: 0.5; stroke-linecap: round"/>
     </g>
    </g>
    <g id="xtick_11">
     <g id="line2d_11">
      <path d="M 116.100511 133.532594  L 116.100511 49.2059  " clip-path="url(#pe202f6a15b)" style="fill: none; stroke: #ffffff; stroke-width: 0.5; stroke-linecap: round"/>
     </g>
    </g>
    <g id="xtick_12">
     <g id="line2d_12">
      <path d="M 128.252284 133.532594  L 128.252284 49.2059  " clip-path="url(#pe202f6a15b)" style="fill: none; stroke: #ffffff; stroke-width: 0.5; stroke-linecap: round"/>
     </g>
    </g>
    <g id="xtick_13">
     <g id="line2d_13">
      <path d="M 140.404057 133.532594  L 140.404057 49.2059  " clip-path="url(#pe202f6a15b)" style="fill: none; stroke: #ffffff; stroke-width: 0.5; stroke-linecap: round"/>
     </g>
    </g>
    <g id="xtick_14">
     <g id="line2d_14">
      <path d="M 164.707602 133.532594  L 164.707602 49.2059  " clip-path="url(#pe202f6a15b)" style="fill: none; stroke: #ffffff; stroke-width: 0.5; stroke-linecap: round"/>
     </g>
    </g>
    <g id="xtick_15">
     <g id="line2d_15">
      <path d="M 176.859375 133.532594  L 176.859375 49.2059  " clip-path="url(#pe202f6a15b)" style="fill: none; stroke: #ffffff; stroke-width: 0.5; stroke-linecap: round"/>
     </g>
    </g>
    <g id="xtick_16">
     <g id="line2d_16">
      <path d="M 189.011148 133.532594  L 189.011148 49.2059  " clip-path="url(#pe202f6a15b)" style="fill: none; stroke: #ffffff; stroke-width: 0.5; stroke-linecap: round"/>
     </g>
    </g>
    <g id="xtick_17">
     <g id="line2d_17">
      <path d="M 213.314693 133.532594  L 213.314693 49.2059  " clip-path="url(#pe202f6a15b)" style="fill: none; stroke: #ffffff; stroke-width: 0.5; stroke-linecap: round"/>
     </g>
    </g>
    <g id="xtick_18">
     <g id="line2d_18">
      <path d="M 225.466466 133.532594  L 225.466466 49.2059  " clip-path="url(#pe202f6a15b)" style="fill: none; stroke: #ffffff; stroke-width: 0.5; stroke-linecap: round"/>
     </g>
    </g>
    <g id="xtick_19">
     <g id="line2d_19">
      <path d="M 237.618239 133.532594  L 237.618239 49.2059  " clip-path="url(#pe202f6a15b)" style="fill: none; stroke: #ffffff; stroke-width: 0.5; stroke-linecap: round"/>
     </g>
    </g>
    <g id="xtick_20">
     <g id="line2d_20">
      <path d="M 261.921784 133.532594  L 261.921784 49.2059  " clip-path="url(#pe202f6a15b)" style="fill: none; stroke: #ffffff; stroke-width: 0.5; stroke-linecap: round"/>
     </g>
    </g>
    <g id="xtick_21">
     <g id="line2d_21">
      <path d="M 274.073557 133.532594  L 274.073557 49.2059  " clip-path="url(#pe202f6a15b)" style="fill: none; stroke: #ffffff; stroke-width: 0.5; stroke-linecap: round"/>
     </g>
    </g>
    <g id="xtick_22">
     <g id="line2d_22">
      <path d="M 286.22533 133.532594  L 286.22533 49.2059  " clip-path="url(#pe202f6a15b)" style="fill: none; stroke: #ffffff; stroke-width: 0.5; stroke-linecap: round"/>
     </g>
    </g>
    <g id="xtick_23">
     <g id="line2d_23">
      <path d="M 310.528875 133.532594  L 310.528875 49.2059  " clip-path="url(#pe202f6a15b)" style="fill: none; stroke: #ffffff; stroke-width: 0.5; stroke-linecap: round"/>
     </g>
    </g>
   </g>
   <g id="matplotlib.axis_2">
    <g id="ytick_1">
     <g id="line2d_24">
      <path d="M 43.189875 131.315136  L 310.528875 131.315136  " clip-path="url(#pe202f6a15b)" style="fill: none; stroke: #ffffff; stroke-width: 0.8; stroke-linecap: round"/>
     </g>
     <g id="text_1">
      <!-- 0 -->
      <g style="fill: #262626" transform="translate(29.99625 134.464573) scale(0.088 -0.088)">
       <defs>
        <path id="115a80cb" d="M 266 2259  Q 266 3072 433 3567  Q 600 4063 929 4331  Q 1259 4600 1759 4600  Q 2128 4600 2406 4451  Q 2684 4303 2865 4023  Q 3047 3744 3150 3342  Q 3253 2941 3253 2259  Q 3253 1453 3087 958  Q 2922 463 2592 192  Q 2263 -78 1759 -78  Q 1097 -78 719 397  Q 266 969 266 2259  z M 844 2259  Q 844 1131 1108 757  Q 1372 384 1759 384  Q 2147 384 2411 759  Q 2675 1134 2675 2259  Q 2675 3391 2411 3762  Q 2147 4134 1753 4134  Q 1366 4134 1134 3806  Q 844 3388 844 2259  z " transform="scale(0.015625)"/>
       </defs>
       <use xlink:href="#115a80cb"/>
      </g>
     </g>
    </g>
    <g id="ytick_2">
     <g id="line2d_25">
      <path d="M 43.189875 91.475464  L 310.528875 91.475464  " clip-path="url(#pe202f6a15b)" style="fill: none; stroke: #ffffff; stroke-width: 0.8; stroke-linecap: round"/>
     </g>
     <g id="text_2">
      <!-- 100 -->
      <g style="fill: #262626" transform="translate(20.209 94.624901) scale(0.088 -0.088)">
       <defs>
        <path id="486a4ef2" d="M 2384 0  L 1822 0  L 1822 3584  Q 1619 3391 1289 3197  Q 959 3003 697 2906  L 697 3450  Q 1169 3672 1522 3987  Q 1875 4303 2022 4600  L 2384 4600  L 2384 0  z " transform="scale(0.015625)"/>
       </defs>
       <use xlink:href="#486a4ef2"/>
       <use xlink:href="#115a80cb" x="55.615234"/>
       <use xlink:href="#115a80cb" x="111.230469"/>
      </g>
     </g>
    </g>
    <g id="ytick_3">
     <g id="line2d_26">
      <path d="M 43.189875 51.635792  L 310.528875 51.635792  " clip-path="url(#pe202f6a15b)" style="fill: none; stroke: #ffffff; stroke-width: 0.8; stroke-linecap: round"/>
     </g>
     <g id="text_3">
      <!-- 200 -->
      <g style="fill: #262626" transform="translate(20.209 54.78523) scale(0.088 -0.088)">
       <defs>
        <path id="3fac5515" d="M 3222 541  L 3222 0  L 194 0  Q 188 203 259 391  Q 375 700 629 1000  Q 884 1300 1366 1694  Q 2113 2306 2375 2664  Q 2638 3022 2638 3341  Q 2638 3675 2398 3904  Q 2159 4134 1775 4134  Q 1369 4134 1125 3890  Q 881 3647 878 3216  L 300 3275  Q 359 3922 746 4261  Q 1134 4600 1788 4600  Q 2447 4600 2831 4234  Q 3216 3869 3216 3328  Q 3216 3053 3103 2787  Q 2991 2522 2730 2228  Q 2469 1934 1863 1422  Q 1356 997 1212 845  Q 1069 694 975 541  L 3222 541  z " transform="scale(0.015625)"/>
       </defs>
       <use xlink:href="#3fac5515"/>
       <use xlink:href="#115a80cb" x="55.615234"/>
       <use xlink:href="#115a80cb" x="111.230469"/>
      </g>
     </g>
    </g>
    <g id="text_4">
     <!-- Position (cm) -->
     <g style="fill: #262626" transform="translate(14.1885 119.373497) rotate(-90) scale(0.096 -0.096)">
      <defs>
       <path id="caae886c" d="M 275 0  L 1234 4581  L 3147 4581  Q 3644 4581 3892 4467  Q 4141 4353 4303 4076  Q 4466 3800 4466 3456  Q 4466 3172 4350 2878  Q 4234 2584 4057 2393  Q 3881 2203 3700 2106  Q 3519 2009 3313 1963  Q 2872 1859 2422 1859  L 1275 1859  L 888 0  L 275 0  z M 1384 2378  L 2394 2378  Q 2981 2378 3256 2504  Q 3531 2631 3697 2890  Q 3863 3150 3863 3441  Q 3863 3666 3775 3808  Q 3688 3950 3528 4017  Q 3369 4084 2916 4084  L 1741 4084  L 1384 2378  z " transform="scale(0.015625)"/>
       <path id="f3bc602c" d="M 313 1259  Q 313 2231 884 2869  Q 1356 3394 2122 3394  Q 2722 3394 3089 3019  Q 3456 2644 3456 2006  Q 3456 1434 3225 942  Q 2994 450 2567 187  Q 2141 -75 1669 -75  Q 1281 -75 964 90  Q 647 256 480 559  Q 313 863 313 1259  z M 878 1316  Q 878 847 1103 605  Q 1328 363 1675 363  Q 1856 363 2034 436  Q 2213 509 2366 659  Q 2519 809 2626 1001  Q 2734 1194 2800 1416  Q 2897 1725 2897 2009  Q 2897 2459 2670 2707  Q 2444 2956 2100 2956  Q 1834 2956 1615 2829  Q 1397 2703 1220 2459  Q 1044 2216 961 1892  Q 878 1569 878 1316  z " transform="scale(0.015625)"/>
       <path id="48a90560" d="M 266 1134  L 831 1169  Q 831 925 906 753  Q 981 581 1182 472  Q 1384 363 1653 363  Q 2028 363 2215 513  Q 2403 663 2403 866  Q 2403 1013 2291 1144  Q 2175 1275 1726 1467  Q 1278 1659 1153 1738  Q 944 1866 837 2039  Q 731 2213 731 2438  Q 731 2831 1043 3112  Q 1356 3394 1919 3394  Q 2544 3394 2870 3105  Q 3197 2816 3209 2344  L 2656 2306  Q 2644 2606 2444 2781  Q 2244 2956 1878 2956  Q 1584 2956 1421 2822  Q 1259 2688 1259 2531  Q 1259 2375 1400 2256  Q 1494 2175 1884 2006  Q 2534 1725 2703 1563  Q 2972 1303 2972 931  Q 2972 684 2820 446  Q 2669 209 2358 67  Q 2047 -75 1625 -75  Q 1050 -75 647 209  Q 244 494 266 1134  z " transform="scale(0.015625)"/>
       <path id="62e288c6" d="M 1016 3941  L 1150 4581  L 1713 4581  L 1578 3941  L 1016 3941  z M 191 0  L 884 3319  L 1450 3319  L 756 0  L 191 0  z " transform="scale(0.015625)"/>
       <path id="af6f0174" d="M 1534 459  L 1441 -3  Q 1238 -56 1047 -56  Q 709 -56 509 109  Q 359 234 359 450  Q 359 559 441 953  L 844 2881  L 397 2881  L 488 3319  L 934 3319  L 1106 4134  L 1753 4525  L 1500 3319  L 2056 3319  L 1963 2881  L 1409 2881  L 1025 1047  Q 953 697 953 628  Q 953 528 1011 475  Q 1069 422 1200 422  Q 1388 422 1534 459  z " transform="scale(0.015625)"/>
       <path id="4123424a" d="M 213 0  L 906 3319  L 1419 3319  L 1297 2741  Q 1631 3081 1922 3237  Q 2213 3394 2516 3394  Q 2919 3394 3148 3175  Q 3378 2956 3378 2591  Q 3378 2406 3297 2009  L 2875 0  L 2309 0  L 2750 2103  Q 2816 2409 2816 2556  Q 2816 2722 2702 2825  Q 2588 2928 2372 2928  Q 1938 2928 1598 2615  Q 1259 2303 1100 1544  L 778 0  L 213 0  z " transform="scale(0.015625)"/>
       <path id="486bddc4" transform="scale(0.015625)"/>
       <path id="0af2e6e7" d="M 1031 -1347  Q 541 -272 541 863  Q 541 1619 739 2270  Q 938 2922 1344 3559  Q 1613 3984 2203 4659  L 2644 4659  Q 2278 4269 1870 3559  Q 1463 2850 1278 2165  Q 1094 1481 1094 791  Q 1094 -241 1453 -1347  L 1031 -1347  z " transform="scale(0.015625)"/>
       <path id="37450193" d="M 2503 1209  L 3069 1150  Q 2856 528 2464 226  Q 2072 -75 1572 -75  Q 1031 -75 695 275  Q 359 625 359 1253  Q 359 1797 575 2322  Q 791 2847 1192 3120  Q 1594 3394 2109 3394  Q 2644 3394 2956 3092  Q 3269 2791 3269 2294  L 2713 2256  Q 2709 2572 2529 2750  Q 2350 2928 2056 2928  Q 1716 2928 1466 2712  Q 1216 2497 1073 2058  Q 931 1619 931 1213  Q 931 788 1118 575  Q 1306 363 1581 363  Q 1856 363 2107 572  Q 2359 781 2503 1209  z " transform="scale(0.015625)"/>
       <path id="473b82f9" d="M 209 0  L 903 3319  L 1469 3319  L 1353 2772  Q 1669 3125 1917 3259  Q 2166 3394 2456 3394  Q 2766 3394 2973 3230  Q 3181 3066 3247 2772  Q 3500 3084 3779 3239  Q 4059 3394 4369 3394  Q 4784 3394 4992 3197  Q 5200 3000 5200 2644  Q 5200 2491 5128 2138  L 4681 0  L 4116 0  L 4572 2194  Q 4631 2463 4631 2578  Q 4631 2741 4528 2834  Q 4425 2928 4238 2928  Q 3984 2928 3721 2775  Q 3459 2622 3314 2373  Q 3169 2125 3059 1609  L 2722 0  L 2156 0  L 2625 2241  Q 2675 2469 2675 2566  Q 2675 2728 2573 2828  Q 2472 2928 2309 2928  Q 2069 2928 1805 2775  Q 1541 2622 1375 2348  Q 1209 2075 1103 1569  L 775 0  L 209 0  z " transform="scale(0.015625)"/>
       <path id="593d574c" d="M 1269 4659  Q 1763 3584 1763 2453  Q 1763 1694 1564 1044  Q 1366 394 959 -247  Q 688 -672 100 -1347  L -341 -1347  Q 22 -953 431 -243  Q 841 466 1023 1148  Q 1206 1831 1206 2525  Q 1206 3556 847 4659  L 1269 4659  z " transform="scale(0.015625)"/>
      </defs>
      <use xlink:href="#caae886c"/>
      <use xlink:href="#f3bc602c" x="66.699219"/>
      <use xlink:href="#48a90560" x="122.314453"/>
      <use xlink:href="#62e288c6" x="172.314453"/>
      <use xlink:href="#af6f0174" x="194.53125"/>
      <use xlink:href="#62e288c6" x="222.314453"/>
      <use xlink:href="#f3bc602c" x="244.53125"/>
      <use xlink:href="#4123424a" x="300.146484"/>
      <use xlink:href="#486bddc4" x="355.761719"/>
      <use xlink:href="#0af2e6e7" x="383.544922"/>
      <use xlink:href="#37450193" x="416.845703"/>
      <use xlink:href="#473b82f9" x="466.845703"/>
      <use xlink:href="#593d574c" x="550.146484"/>
     </g>
    </g>
   </g>
   <g id="PolyCollection_1"/>
   <g id="line2d_27">
    <path d="M 55.341648 93.236673  L 55.584683 92.387176  L 55.746707 92.073977  L 55.989742 91.548969  L 56.637837 90.818924  L 56.79986 90.710761  L 56.961884 90.604856  L 57.285931 90.501209  L 57.447955 90.448257  L 58.015038 90.185753  L 63.766877 90.183495  L 63.9289 90.288271  L 64.495983 90.287142  L 64.576995 90.390789  L 64.739019 90.337836  L 64.82003 90.284884  L 64.982054 90.388531  L 65.630149 90.492178  L 66.035208 90.920313  L 66.521279 91.02396  L 67.00735 91.763036  L 67.89848 94.403885  L 68.38455 97.255414  L 68.465562 97.466095  L 69.761751 107.002049  L 69.842763 107.002049  L 70.085799 109.649671  L 70.247822 110.605073  L 70.490858 112.571087  L 70.652881 113.367632  L 71.381988 119.091011  L 71.787047 121.685681  L 71.94907 122.479967  L 72.435141 124.706227  L 72.759189 125.555724  L 72.921212 126.826583  L 73.002224 126.826583  L 73.407283 127.991537  L 73.73133 128.631482  L 73.974366 128.739644  L 74.13639 129.057359  L 74.217401 129.057359  L 74.379425 129.271427  L 74.946508 129.273685  L 75.108531 129.165522  L 75.189543 129.271427  L 75.351567 129.165522  L 75.675614 129.273685  L 75.837638 129.271427  L 79.321146 129.273685  L 79.402158 129.487752  L 79.48317 129.4348  L 79.645193 129.487752  L 79.888229 129.272556  L 80.050252 129.37959  L 80.131264 129.326637  L 80.293288 129.487752  L 80.617335 129.37959  L 84.748938 129.485494  L 84.910961 129.589141  L 86.045127 129.529415  L 86.774233 129.162135  L 86.855245 129.163264  L 87.746375 126.497579  L 87.98941 125.277415  L 89.2856 117.375083  L 89.447623 116.103095  L 89.852682 112.930465  L 90.17673 110.381974  L 90.338753 109.327441  L 90.743812 105.408961  L 90.824824 105.145327  L 91.229883 102.125909  L 91.310895 102.125909  L 91.715954 99.581934  L 91.877978 99.158315  L 92.526072 95.665712  L 92.607084 95.506854  L 92.85012 94.500758  L 92.931131 94.500758  L 93.174167 93.554388  L 93.74125 91.97033  L 93.822261 91.917378  L 94.065297 91.440806  L 94.63238 90.811021  L 94.794403 90.759198  L 95.199462 90.183495  L 102.24749 90.282626  L 102.409514 90.387402  L 102.895585 90.384015  L 103.057609 90.48992  L 103.219632 90.595825  L 103.462668 90.75694  L 103.705703 90.708503  L 103.948739 90.816666  L 104.43481 91.444193  L 104.677845 92.179882  L 104.758857 92.179882  L 105.730999 97.042475  L 106.784152 104.142618  L 107.027188 106.15481  L 107.351235 108.910595  L 108.89046 120.26048  L 108.971471 120.473419  L 109.295519 122.691777  L 109.538554 123.753084  L 109.700578 124.60258  L 109.943613 125.553467  L 110.024625 125.6605  L 110.510696 127.144298  L 110.996767 128.207862  L 111.239802 128.5774  L 111.401826 128.843291  L 111.887897 129.324379  L 112.04992 129.377332  L 112.211944 129.271427  L 112.373968 129.37959  L 112.535991 129.272556  L 119.097949 129.271427  L 119.259972 129.271427  L 120.47515 129.370558  L 120.799197 129.474205  L 121.528303 129.3683  L 121.690327 129.266911  L 121.771339 129.266911  L 122.014374 128.732871  L 122.095386 128.732871  L 122.581457 127.296381  L 122.905504 125.542177  L 122.986516 125.542177  L 123.229551 123.945701  L 123.391575 123.309143  L 123.796634 121.398339  L 124.201693 118.642555  L 124.363717 118.11303  L 124.768776 114.093161  L 124.849788 114.093161  L 125.092823 111.8669  L 125.497882 108.21544  L 125.740918 105.726675  L 125.82193 105.726675  L 126.226989 102.655434  L 126.470024 101.06686  L 126.632048 100.429173  L 126.956095 98.739211  L 127.523178 95.613888  L 127.685201 95.136187  L 128.171272 93.389886  L 128.98139 91.594019  L 129.305438 90.920313  L 130.196568 90.449386  L 130.27758 90.501209  L 130.439603 90.393047  L 130.76365 90.287142  L 131.087698 90.183495  L 137.89269 90.287142  L 138.054714 90.390789  L 139.593939 90.487662  L 139.917986 90.809892  L 140.56608 90.912411  L 140.97114 91.544453  L 141.295187 92.497597  L 141.376199 92.550549  L 141.700246 93.658035  L 141.781258 93.816892  L 142.267329 96.089331  L 142.34834 96.301141  L 142.996435 100.059635  L 143.158459 100.749146  L 143.401494 102.871759  L 143.887565 105.938485  L 144.1306 107.635221  L 144.373636 110.280585  L 144.778695 112.402069  L 144.859707 112.615008  L 145.507801 117.394275  L 146.074884 120.470032  L 146.31792 122.423628  L 146.641967 123.221301  L 147.128038 126.08412  L 147.20905 126.188896  L 147.533097 127.14204  L 147.776132 127.567917  L 148.343215 128.843291  L 148.424227 128.843291  L 148.58625 129.057359  L 148.748274 129.165522  L 148.829286 129.059617  L 149.072321 129.271427  L 156.444397 129.372816  L 156.60642 129.478721  L 157.659574 129.370558  L 157.821598 129.161006  L 157.983621 129.052843  L 158.631716 128.512029  L 158.955763 127.662533  L 159.441834 126.121267  L 160.738023 117.797573  L 161.06207 115.149951  L 162.115224 106.468009  L 163.168378 99.054668  L 163.492425 97.569742  L 164.464567 93.441709  L 164.545579 93.335804  L 165.03165 91.857652  L 165.112661 91.751747  L 165.355697 91.125349  L 165.760756 90.706245  L 166.246827 90.604856  L 166.40885 90.501209  L 166.570874 90.395305  L 166.81391 90.185753  L 168.677181 90.079848  L 168.758193 89.973943  L 168.920217 90.079848  L 173.53789 90.181237  L 173.861938 90.287142  L 174.83408 90.388531  L 175.806221 90.973266  L 175.968245 91.238028  L 176.130269 91.548969  L 176.373304 91.97033  L 176.535328 92.179882  L 177.021399 94.4985  L 177.50747 96.565903  L 177.831517 98.736953  L 178.3986 101.710192  L 178.722647 104.678916  L 180.018836 115.545455  L 180.342883 118.135609  L 180.423895 118.400371  L 180.66693 119.887555  L 180.828954 120.679584  L 181.234013 123.223559  L 181.315025 123.223559  L 181.639072 124.604838  L 181.720084 124.710743  L 182.044131 126.246364  L 182.287167 126.828841  L 182.611214 127.88789  L 182.692226 127.941971  L 182.935261 128.367848  L 183.259309 128.845549  L 183.583356 128.953712  L 183.74538 129.16778  L 183.826391 129.005536  L 183.907403 129.059617  L 184.069427 129.273685  L 186.499781 129.37959  L 186.580793 129.487752  L 186.742817 129.37959  L 192.413644 129.269169  L 193.385786 129.154232  L 193.54781 129.048328  L 193.709833 128.942423  L 193.871857 128.83426  L 194.519951 127.872084  L 195.087034 126.224914  L 195.654117 123.523211  L 195.978164 121.826475  L 197.11233 113.775446  L 197.436377 110.967838  L 197.5984 110.073291  L 197.679412 109.702624  L 198.00346 106.36662  L 198.975601 99.318301  L 199.218637 98.2063  L 199.78572 95.665712  L 199.866731 95.453902  L 200.190779 93.975749  L 201.000897 92.071719  L 201.324944 91.542195  L 201.56798 91.02396  L 201.811015 90.918055  L 202.135062 90.603727  L 202.540121 90.501209  L 202.702145 90.291658  L 203.593275 90.183495  L 203.674287 90.07759  L 203.83631 90.183495  L 209.021067 90.287142  L 209.345114 90.388531  L 210.884339 90.492178  L 211.208386 90.81215  L 211.694457 90.814408  L 211.85648 91.026218  L 212.099516 91.130994  L 212.909634 93.446225  L 214.448859 102.02452  L 215.421 110.351601  L 215.502012 110.616363  L 215.907071 114.217129  L 215.988083 114.217129  L 216.31213 117.025866  L 216.555166 117.928315  L 216.798201 119.93825  L 217.365284 123.277641  L 217.527308 123.435369  L 217.770343 125.44982  L 217.851355 125.555724  L 218.013379 126.087507  L 218.337426 127.040651  L 218.661473 128.316025  L 219.471591 129.272556  L 219.957662 129.271427  L 220.119686 129.164393  L 220.200698 129.271427  L 220.362721 129.165522  L 220.686769 129.273685  L 220.76778 129.37959  L 220.929804 129.273685  L 228.949974 129.37959  L 229.19301 129.485494  L 229.355033 129.483237  L 229.922116 129.42351  L 230.327175 129.264653  L 230.408187 129.264653  L 230.57021 129.051714  L 231.218305 128.036586  L 231.623364 126.707131  L 231.704376 126.547144  L 232.271459 123.6246  L 232.35247 123.41279  L 232.595506 122.353741  L 232.919553 120.341548  L 233.2436 117.168918  L 233.324612 116.958237  L 233.729671 113.512942  L 233.972707 111.92324  L 234.215742 109.226052  L 234.296754 109.226052  L 234.620801 105.995953  L 234.701813 105.731191  L 235.02586 103.189474  L 235.268896 102.132683  L 235.43092 101.603159  L 235.754967 99.581934  L 235.835979 99.581934  L 235.998002 98.421496  L 236.079014 98.421496  L 236.403061 97.09317  L 236.646097 95.453902  L 236.970144 94.500758  L 237.051156 94.395982  L 237.375203 93.123995  L 238.347345 90.814408  L 238.59038 90.600341  L 238.914428 90.497823  L 239.157463 90.34461  L 239.562522 90.185753  L 244.747279 90.287142  L 244.990314 90.390789  L 245.152338 90.390789  L 246.205491 90.386273  L 246.367515 90.492178  L 246.448527 90.492178  L 246.61055 90.706245  L 246.853586 90.706245  L 247.01561 90.922571  L 247.420669 91.028476  L 247.663704 91.445322  L 247.90674 91.864425  L 248.473822 93.55213  L 248.716858 94.613437  L 249.445964 97.574257  L 249.689 98.949892  L 249.851023 99.802776  L 249.932035 99.802776  L 250.256082 102.668981  L 250.337094 102.668981  L 250.661141 105.581365  L 251.228224 110.512716  L 251.309236 110.512716  L 252.605425 120.578195  L 253.820602 126.353398  L 253.901614 126.405221  L 254.14465 127.25246  L 254.792744 128.737387  L 254.954768 128.843291  L 255.116791 128.951454  L 255.278815 129.059617  L 255.359827 129.059617  L 255.440839 128.846678  L 255.602862 129.165522  L 255.764886 129.271427  L 258.6003 129.37959  L 258.762323 129.485494  L 258.843335 129.37959  L 258.924347 129.485494  L 259.08637 129.377332  L 259.815477 129.377332  L 259.896489 129.271427  L 260.058512 129.485494  L 260.220536 129.37959  L 266.377434 129.485494  L 266.62047 129.699562  L 266.782493 129.591399  L 267.430588 129.591399  L 267.592611 129.485494  L 268.807789 129.483237  L 268.969812 129.586884  L 269.131836 129.478721  L 269.860942 129.372816  L 270.022966 129.26804  L 270.18499 129.161006  L 270.347013 129.055101  L 270.914096 127.777469  L 270.995108 127.777469  L 271.481179 126.182122  L 272.615344 121.610149  L 272.939391 119.434583  L 273.101415 118.642555  L 273.425462 115.575829  L 273.506474 115.575829  L 273.911533 111.553701  L 273.992545 111.553701  L 274.397604 107.639737  L 274.478616 107.639737  L 274.802663 106.63364  L 274.883675 106.474783  L 275.53177 103.507188  L 275.612781 103.507188  L 276.179864 101.170507  L 276.260876 101.170507  L 276.90897 98.315592  L 277.233018 97.62721  L 277.638077 95.352513  L 278.043136 94.394853  L 278.286171 93.446225  L 278.853254 91.963557  L 279.177301 91.434032  L 279.501349 90.866232  L 280.392479 90.393047  L 280.635514 90.2894  L 280.797538 90.183495  L 283.713963 90.07759  L 283.794975 89.971685  L 283.956999 90.07759  L 284.119022 89.971685  L 288.49366 90.075332  L 288.655684 90.178979  L 290.113897 90.280368  L 290.437944 90.528232  L 290.761991 90.81215  L 290.924015 90.707374  L 291.086039 90.816666  L 291.329074 90.922571  L 291.653121 91.186204  L 292.05818 92.179882  L 292.706275 94.079396  L 293.759429 99.793744  L 294.083476 102.765854  L 294.164488 103.030617  L 294.650559 107.006565  L 295.055618 109.656445  L 295.460677 113.15808  L 295.703712 114.219387  L 295.784724 114.219387  L 296.02776 116.869266  L 296.108771 117.1329  L 296.270795 118.883717  L 296.351807 119.148479  L 296.594842 120.681842  L 296.756866 121.107719  L 297.080913 123.221301  L 297.647996 125.769792  L 297.729008 125.928649  L 297.972043 126.937004  L 298.377102 127.781985  L 298.377102 127.781985  " clip-path="url(#pe202f6a15b)" style="fill: none; stroke: #2e91e5; stroke-width: 1.5; stroke-linecap: round"/>
   </g>
   <g id="line2d_28"/>
   <g id="patch_3">
    <path d="M 43.189875 133.532594  L 43.189875 49.2059  " style="fill: none; stroke: #ffffff; stroke-linejoin: miter; stroke-linecap: square"/>
   </g>
   <g id="patch_4">
    <path d="M 43.189875 133.532594  L 310.528875 133.532594  " style="fill: none; stroke: #ffffff; stroke-linejoin: miter; stroke-linecap: square"/>
   </g>
   <g id="text_5">
    <!-- Animal: m22 -->
    <g style="fill: #262626" transform="translate(150.184125 43.2059) scale(0.096 -0.096)">
     <defs>
      <path id="82f416e6" d="M -9 0  L 1750 4581  L 2403 4581  L 4278 0  L 3588 0  L 3053 1388  L 1138 1388  L 634 0  L -9 0  z M 1313 1881  L 2866 1881  L 2388 3150  Q 2169 3728 2063 4100  Q 1975 3659 1816 3225  L 1313 1881  z " transform="scale(0.015625)"/>
      <path id="937eecab" d="M 422 0  L 422 3319  L 928 3319  L 928 2847  Q 1294 3394 1984 3394  Q 2284 3394 2536 3286  Q 2788 3178 2913 3003  Q 3038 2828 3088 2588  Q 3119 2431 3119 2041  L 3119 0  L 2556 0  L 2556 2019  Q 2556 2363 2490 2533  Q 2425 2703 2258 2804  Q 2091 2906 1866 2906  Q 1506 2906 1245 2678  Q 984 2450 984 1813  L 984 0  L 422 0  z " transform="scale(0.015625)"/>
      <path id="ae49d494" d="M 425 3934  L 425 4581  L 988 4581  L 988 3934  L 425 3934  z M 425 0  L 425 3319  L 988 3319  L 988 0  L 425 0  z " transform="scale(0.015625)"/>
      <path id="0cd53d31" d="M 422 0  L 422 3319  L 925 3319  L 925 2853  Q 1081 3097 1340 3245  Q 1600 3394 1931 3394  Q 2300 3394 2536 3241  Q 2772 3088 2869 2813  Q 3263 3394 3894 3394  Q 4388 3394 4653 3120  Q 4919 2847 4919 2278  L 4919 0  L 4359 0  L 4359 2091  Q 4359 2428 4304 2576  Q 4250 2725 4106 2815  Q 3963 2906 3769 2906  Q 3419 2906 3187 2673  Q 2956 2441 2956 1928  L 2956 0  L 2394 0  L 2394 2156  Q 2394 2531 2256 2718  Q 2119 2906 1806 2906  Q 1569 2906 1367 2781  Q 1166 2656 1075 2415  Q 984 2175 984 1722  L 984 0  L 422 0  z " transform="scale(0.015625)"/>
      <path id="2c2d6147" d="M 2588 409  Q 2275 144 1986 34  Q 1697 -75 1366 -75  Q 819 -75 525 192  Q 231 459 231 875  Q 231 1119 342 1320  Q 453 1522 633 1644  Q 813 1766 1038 1828  Q 1203 1872 1538 1913  Q 2219 1994 2541 2106  Q 2544 2222 2544 2253  Q 2544 2597 2384 2738  Q 2169 2928 1744 2928  Q 1347 2928 1158 2789  Q 969 2650 878 2297  L 328 2372  Q 403 2725 575 2942  Q 747 3159 1072 3276  Q 1397 3394 1825 3394  Q 2250 3394 2515 3294  Q 2781 3194 2906 3042  Q 3031 2891 3081 2659  Q 3109 2516 3109 2141  L 3109 1391  Q 3109 606 3145 398  Q 3181 191 3288 0  L 2700 0  Q 2613 175 2588 409  z M 2541 1666  Q 2234 1541 1622 1453  Q 1275 1403 1131 1340  Q 988 1278 909 1158  Q 831 1038 831 891  Q 831 666 1001 516  Q 1172 366 1500 366  Q 1825 366 2078 508  Q 2331 650 2450 897  Q 2541 1088 2541 1459  L 2541 1666  z " transform="scale(0.015625)"/>
      <path id="43f984ee" d="M 409 0  L 409 4581  L 972 4581  L 972 0  L 409 0  z " transform="scale(0.015625)"/>
      <path id="540a5638" d="M 578 2678  L 578 3319  L 1219 3319  L 1219 2678  L 578 2678  z M 578 0  L 578 641  L 1219 641  L 1219 0  L 578 0  z " transform="scale(0.015625)"/>
      <path id="d8c95ef1" transform="scale(0.015625)"/>
     </defs>
     <use xlink:href="#82f416e6"/>
     <use xlink:href="#937eecab" x="66.699219"/>
     <use xlink:href="#ae49d494" x="122.314453"/>
     <use xlink:href="#0cd53d31" x="144.53125"/>
     <use xlink:href="#2c2d6147" x="227.832031"/>
     <use xlink:href="#43f984ee" x="283.447266"/>
     <use xlink:href="#540a5638" x="305.664062"/>
     <use xlink:href="#d8c95ef1" x="333.447266"/>
     <use xlink:href="#0cd53d31" x="361.230469"/>
     <use xlink:href="#3fac5515" x="444.53125"/>
     <use xlink:href="#3fac5515" x="500.146484"/>
    </g>
   </g>
   <g id="legend_1">
    <g id="patch_5">
     <path d="M 35.456875 31.8059  L 282.336875 31.8059  Q 284.096875 31.8059 284.096875 30.0459  L 284.096875 8.96  Q 284.096875 7.2 282.336875 7.2  L 35.456875 7.2  Q 33.696875 7.2 33.696875 8.96  L 33.696875 30.0459  Q 33.696875 31.8059 35.456875 31.8059  z " style="fill: #eaeaf2; opacity: 0.8; stroke: #cccccc; stroke-width: 0.8; stroke-linejoin: miter"/>
    </g>
    <g id="line2d_29">
     <path d="M 37.216875 19.572388  L 46.016875 19.572388  L 54.816875 19.572388  " style="fill: none; stroke: #2e91e5; stroke-width: 1.5; stroke-linecap: round"/>
    </g>
    <g id="text_6">
     <!-- Dual-channel -->
     <g style="fill: #262626" transform="translate(61.856875 17.124063) scale(0.088 -0.088)">
      <defs>
       <path id="ccb1b01c" d="M 494 0  L 494 4581  L 2072 4581  Q 2606 4581 2888 4516  Q 3281 4425 3559 4188  Q 3922 3881 4101 3404  Q 4281 2928 4281 2316  Q 4281 1794 4159 1391  Q 4038 988 3847 723  Q 3656 459 3429 307  Q 3203 156 2883 78  Q 2563 0 2147 0  L 494 0  z M 1100 541  L 2078 541  Q 2531 541 2789 625  Q 3047 709 3200 863  Q 3416 1078 3536 1442  Q 3656 1806 3656 2325  Q 3656 3044 3420 3430  Q 3184 3816 2847 3947  Q 2603 4041 2063 4041  L 1100 4041  L 1100 541  z " transform="scale(0.015625)"/>
       <path id="d2bfb669" d="M 2597 0  L 2597 488  Q 2209 -75 1544 -75  Q 1250 -75 995 37  Q 741 150 617 320  Q 494 491 444 738  Q 409 903 409 1263  L 409 3319  L 972 3319  L 972 1478  Q 972 1038 1006 884  Q 1059 663 1231 536  Q 1403 409 1656 409  Q 1909 409 2131 539  Q 2353 669 2445 892  Q 2538 1116 2538 1541  L 2538 3319  L 3100 3319  L 3100 0  L 2597 0  z " transform="scale(0.015625)"/>
       <path id="c8c39428" d="M 203 1375  L 203 1941  L 1931 1941  L 1931 1375  L 203 1375  z " transform="scale(0.015625)"/>
       <path id="c8bd6a24" d="M 2588 1216  L 3141 1144  Q 3050 572 2676 248  Q 2303 -75 1759 -75  Q 1078 -75 664 370  Q 250 816 250 1647  Q 250 2184 428 2587  Q 606 2991 970 3192  Q 1334 3394 1763 3394  Q 2303 3394 2647 3120  Q 2991 2847 3088 2344  L 2541 2259  Q 2463 2594 2264 2762  Q 2066 2931 1784 2931  Q 1359 2931 1093 2626  Q 828 2322 828 1663  Q 828 994 1084 691  Q 1341 388 1753 388  Q 2084 388 2306 591  Q 2528 794 2588 1216  z " transform="scale(0.015625)"/>
       <path id="72668ef2" d="M 422 0  L 422 4581  L 984 4581  L 984 2938  Q 1378 3394 1978 3394  Q 2347 3394 2619 3248  Q 2891 3103 3008 2847  Q 3125 2591 3125 2103  L 3125 0  L 2563 0  L 2563 2103  Q 2563 2525 2380 2717  Q 2197 2909 1863 2909  Q 1613 2909 1392 2779  Q 1172 2650 1078 2428  Q 984 2206 984 1816  L 984 0  L 422 0  z " transform="scale(0.015625)"/>
       <path id="785968f7" d="M 2694 1069  L 3275 997  Q 3138 488 2766 206  Q 2394 -75 1816 -75  Q 1088 -75 661 373  Q 234 822 234 1631  Q 234 2469 665 2931  Q 1097 3394 1784 3394  Q 2450 3394 2872 2941  Q 3294 2488 3294 1666  Q 3294 1616 3291 1516  L 816 1516  Q 847 969 1125 678  Q 1403 388 1819 388  Q 2128 388 2347 550  Q 2566 713 2694 1069  z M 847 1978  L 2700 1978  Q 2663 2397 2488 2606  Q 2219 2931 1791 2931  Q 1403 2931 1139 2672  Q 875 2413 847 1978  z " transform="scale(0.015625)"/>
      </defs>
      <use xlink:href="#ccb1b01c"/>
      <use xlink:href="#d2bfb669" x="72.216797"/>
      <use xlink:href="#2c2d6147" x="127.832031"/>
      <use xlink:href="#43f984ee" x="183.447266"/>
      <use xlink:href="#c8c39428" x="205.664062"/>
      <use xlink:href="#c8bd6a24" x="238.964844"/>
      <use xlink:href="#72668ef2" x="288.964844"/>
      <use xlink:href="#2c2d6147" x="344.580078"/>
      <use xlink:href="#937eecab" x="400.195312"/>
      <use xlink:href="#937eecab" x="455.810547"/>
      <use xlink:href="#785968f7" x="511.425781"/>
      <use xlink:href="#43f984ee" x="567.041016"/>
     </g>
     <!-- Miniscope -->
     <g style="fill: #262626" transform="translate(61.856875 26.431713) scale(0.088 -0.088)">
      <defs>
       <path id="dad8b18d" d="M 475 0  L 475 4581  L 1388 4581  L 2472 1338  Q 2622 884 2691 659  Q 2769 909 2934 1394  L 4031 4581  L 4847 4581  L 4847 0  L 4263 0  L 4263 3834  L 2931 0  L 2384 0  L 1059 3900  L 1059 0  L 475 0  z " transform="scale(0.015625)"/>
       <path id="e5c6ac47" d="M 197 991  L 753 1078  Q 800 744 1014 566  Q 1228 388 1613 388  Q 2000 388 2187 545  Q 2375 703 2375 916  Q 2375 1106 2209 1216  Q 2094 1291 1634 1406  Q 1016 1563 777 1677  Q 538 1791 414 1992  Q 291 2194 291 2438  Q 291 2659 392 2848  Q 494 3038 669 3163  Q 800 3259 1026 3326  Q 1253 3394 1513 3394  Q 1903 3394 2198 3281  Q 2494 3169 2634 2976  Q 2775 2784 2828 2463  L 2278 2388  Q 2241 2644 2061 2787  Q 1881 2931 1553 2931  Q 1166 2931 1000 2803  Q 834 2675 834 2503  Q 834 2394 903 2306  Q 972 2216 1119 2156  Q 1203 2125 1616 2013  Q 2213 1853 2448 1751  Q 2684 1650 2818 1456  Q 2953 1263 2953 975  Q 2953 694 2789 445  Q 2625 197 2315 61  Q 2006 -75 1616 -75  Q 969 -75 630 194  Q 291 463 197 991  z " transform="scale(0.015625)"/>
       <path id="c27e1bc5" d="M 213 1659  Q 213 2581 725 3025  Q 1153 3394 1769 3394  Q 2453 3394 2887 2945  Q 3322 2497 3322 1706  Q 3322 1066 3130 698  Q 2938 331 2570 128  Q 2203 -75 1769 -75  Q 1072 -75 642 372  Q 213 819 213 1659  z M 791 1659  Q 791 1022 1069 705  Q 1347 388 1769 388  Q 2188 388 2466 706  Q 2744 1025 2744 1678  Q 2744 2294 2464 2611  Q 2184 2928 1769 2928  Q 1347 2928 1069 2612  Q 791 2297 791 1659  z " transform="scale(0.015625)"/>
       <path id="801d8e1d" d="M 422 -1272  L 422 3319  L 934 3319  L 934 2888  Q 1116 3141 1344 3267  Q 1572 3394 1897 3394  Q 2322 3394 2647 3175  Q 2972 2956 3137 2557  Q 3303 2159 3303 1684  Q 3303 1175 3120 767  Q 2938 359 2589 142  Q 2241 -75 1856 -75  Q 1575 -75 1351 44  Q 1128 163 984 344  L 984 -1272  L 422 -1272  z M 931 1641  Q 931 1000 1190 694  Q 1450 388 1819 388  Q 2194 388 2461 705  Q 2728 1022 2728 1688  Q 2728 2322 2467 2637  Q 2206 2953 1844 2953  Q 1484 2953 1207 2617  Q 931 2281 931 1641  z " transform="scale(0.015625)"/>
      </defs>
      <use xlink:href="#dad8b18d"/>
      <use xlink:href="#ae49d494" x="83.300781"/>
      <use xlink:href="#937eecab" x="105.517578"/>
      <use xlink:href="#ae49d494" x="161.132812"/>
      <use xlink:href="#e5c6ac47" x="183.349609"/>
      <use xlink:href="#c8bd6a24" x="233.349609"/>
      <use xlink:href="#c27e1bc5" x="283.349609"/>
      <use xlink:href="#801d8e1d" x="338.964844"/>
      <use xlink:href="#785968f7" x="394.580078"/>
     </g>
    </g>
    <g id="line2d_30">
     <path d="M 197.722125 19.572388  L 206.522125 19.572388  L 215.322125 19.572388  " style="fill: none; stroke: #e15f99; stroke-width: 1.5; stroke-linecap: round"/>
    </g>
    <g id="text_7">
     <!-- Single-channel -->
     <g style="fill: #262626" transform="translate(222.362125 17.126125) scale(0.088 -0.088)">
      <defs>
       <path id="809b5318" d="M 288 1472  L 859 1522  Q 900 1178 1048 958  Q 1197 738 1509 602  Q 1822 466 2213 466  Q 2559 466 2825 569  Q 3091 672 3220 851  Q 3350 1031 3350 1244  Q 3350 1459 3225 1620  Q 3100 1781 2813 1891  Q 2628 1963 1997 2114  Q 1366 2266 1113 2400  Q 784 2572 623 2826  Q 463 3081 463 3397  Q 463 3744 659 4045  Q 856 4347 1234 4503  Q 1613 4659 2075 4659  Q 2584 4659 2973 4495  Q 3363 4331 3572 4012  Q 3781 3694 3797 3291  L 3216 3247  Q 3169 3681 2898 3903  Q 2628 4125 2100 4125  Q 1550 4125 1298 3923  Q 1047 3722 1047 3438  Q 1047 3191 1225 3031  Q 1400 2872 2139 2705  Q 2878 2538 3153 2413  Q 3553 2228 3743 1945  Q 3934 1663 3934 1294  Q 3934 928 3725 604  Q 3516 281 3123 101  Q 2731 -78 2241 -78  Q 1619 -78 1198 103  Q 778 284 539 648  Q 300 1013 288 1472  z " transform="scale(0.015625)"/>
       <path id="65669b41" d="M 319 -275  L 866 -356  Q 900 -609 1056 -725  Q 1266 -881 1628 -881  Q 2019 -881 2231 -725  Q 2444 -569 2519 -288  Q 2563 -116 2559 434  Q 2191 0 1641 0  Q 956 0 581 494  Q 206 988 206 1678  Q 206 2153 378 2554  Q 550 2956 876 3175  Q 1203 3394 1644 3394  Q 2231 3394 2613 2919  L 2613 3319  L 3131 3319  L 3131 450  Q 3131 -325 2973 -648  Q 2816 -972 2473 -1159  Q 2131 -1347 1631 -1347  Q 1038 -1347 672 -1080  Q 306 -813 319 -275  z M 784 1719  Q 784 1066 1043 766  Q 1303 466 1694 466  Q 2081 466 2343 764  Q 2606 1063 2606 1700  Q 2606 2309 2336 2618  Q 2066 2928 1684 2928  Q 1309 2928 1046 2623  Q 784 2319 784 1719  z " transform="scale(0.015625)"/>
      </defs>
      <use xlink:href="#809b5318"/>
      <use xlink:href="#ae49d494" x="66.699219"/>
      <use xlink:href="#937eecab" x="88.916016"/>
      <use xlink:href="#65669b41" x="144.53125"/>
      <use xlink:href="#43f984ee" x="200.146484"/>
      <use xlink:href="#785968f7" x="222.363281"/>
      <use xlink:href="#c8c39428" x="277.978516"/>
      <use xlink:href="#c8bd6a24" x="311.279297"/>
      <use xlink:href="#72668ef2" x="361.279297"/>
      <use xlink:href="#2c2d6147" x="416.894531"/>
      <use xlink:href="#937eecab" x="472.509766"/>
      <use xlink:href="#937eecab" x="528.125"/>
      <use xlink:href="#785968f7" x="583.740234"/>
      <use xlink:href="#43f984ee" x="639.355469"/>
     </g>
     <!-- Miniscope -->
     <g style="fill: #262626" transform="translate(222.362125 26.5369) scale(0.088 -0.088)">
      <use xlink:href="#dad8b18d"/>
      <use xlink:href="#ae49d494" x="83.300781"/>
      <use xlink:href="#937eecab" x="105.517578"/>
      <use xlink:href="#ae49d494" x="161.132812"/>
      <use xlink:href="#e5c6ac47" x="183.349609"/>
      <use xlink:href="#c8bd6a24" x="233.349609"/>
      <use xlink:href="#c27e1bc5" x="283.349609"/>
      <use xlink:href="#801d8e1d" x="338.964844"/>
      <use xlink:href="#785968f7" x="394.580078"/>
     </g>
    </g>
   </g>
  </g>
  <g id="axes_2">
   <g id="patch_6">
    <path d="M 43.189875 244.3699  L 310.528875 244.3699  L 310.528875 160.043206  L 43.189875 160.043206  z " style="fill: #eaeaf2"/>
   </g>
   <g id="matplotlib.axis_3">
    <g id="xtick_24">
     <g id="line2d_31">
      <path d="M 55.341648 244.3699  L 55.341648 160.043206  " clip-path="url(#p0d9f057be0)" style="fill: none; stroke: #ffffff; stroke-width: 0.8; stroke-linecap: round"/>
     </g>
     <g id="text_8">
      <!-- 0 -->
      <g style="fill: #262626" transform="translate(52.894835 258.968775) scale(0.088 -0.088)">
       <use xlink:href="#115a80cb"/>
      </g>
     </g>
    </g>
    <g id="xtick_25">
     <g id="line2d_32">
      <path d="M 103.948739 244.3699  L 103.948739 160.043206  " clip-path="url(#p0d9f057be0)" style="fill: none; stroke: #ffffff; stroke-width: 0.8; stroke-linecap: round"/>
     </g>
     <g id="text_9">
      <!-- 20 -->
      <g style="fill: #262626" transform="translate(99.055114 258.968775) scale(0.088 -0.088)">
       <use xlink:href="#3fac5515"/>
       <use xlink:href="#115a80cb" x="55.615234"/>
      </g>
     </g>
    </g>
    <g id="xtick_26">
     <g id="line2d_33">
      <path d="M 152.55583 244.3699  L 152.55583 160.043206  " clip-path="url(#p0d9f057be0)" style="fill: none; stroke: #ffffff; stroke-width: 0.8; stroke-linecap: round"/>
     </g>
     <g id="text_10">
      <!-- 40 -->
      <g style="fill: #262626" transform="translate(147.662205 258.968775) scale(0.088 -0.088)">
       <defs>
        <path id="f6d3f10f" d="M 2069 0  L 2069 1097  L 81 1097  L 81 1613  L 2172 4581  L 2631 4581  L 2631 1613  L 3250 1613  L 3250 1097  L 2631 1097  L 2631 0  L 2069 0  z M 2069 1613  L 2069 3678  L 634 1613  L 2069 1613  z " transform="scale(0.015625)"/>
       </defs>
       <use xlink:href="#f6d3f10f"/>
       <use xlink:href="#115a80cb" x="55.615234"/>
      </g>
     </g>
    </g>
    <g id="xtick_27">
     <g id="line2d_34">
      <path d="M 201.16292 244.3699  L 201.16292 160.043206  " clip-path="url(#p0d9f057be0)" style="fill: none; stroke: #ffffff; stroke-width: 0.8; stroke-linecap: round"/>
     </g>
     <g id="text_11">
      <!-- 60 -->
      <g style="fill: #262626" transform="translate(196.269295 258.968775) scale(0.088 -0.088)">
       <defs>
        <path id="a7fd09d7" d="M 3184 3459  L 2625 3416  Q 2550 3747 2413 3897  Q 2184 4138 1850 4138  Q 1581 4138 1378 3988  Q 1113 3794 959 3422  Q 806 3050 800 2363  Q 1003 2672 1297 2822  Q 1591 2972 1913 2972  Q 2475 2972 2870 2558  Q 3266 2144 3266 1488  Q 3266 1056 3080 686  Q 2894 316 2569 119  Q 2244 -78 1831 -78  Q 1128 -78 684 439  Q 241 956 241 2144  Q 241 3472 731 4075  Q 1159 4600 1884 4600  Q 2425 4600 2770 4297  Q 3116 3994 3184 3459  z M 888 1484  Q 888 1194 1011 928  Q 1134 663 1356 523  Q 1578 384 1822 384  Q 2178 384 2434 671  Q 2691 959 2691 1453  Q 2691 1928 2437 2201  Q 2184 2475 1800 2475  Q 1419 2475 1153 2201  Q 888 1928 888 1484  z " transform="scale(0.015625)"/>
       </defs>
       <use xlink:href="#a7fd09d7"/>
       <use xlink:href="#115a80cb" x="55.615234"/>
      </g>
     </g>
    </g>
    <g id="xtick_28">
     <g id="line2d_35">
      <path d="M 249.770011 244.3699  L 249.770011 160.043206  " clip-path="url(#p0d9f057be0)" style="fill: none; stroke: #ffffff; stroke-width: 0.8; stroke-linecap: round"/>
     </g>
     <g id="text_12">
      <!-- 80 -->
      <g style="fill: #262626" transform="translate(244.876386 258.968775) scale(0.088 -0.088)">
       <defs>
        <path id="e8b0ab51" d="M 1131 2484  Q 781 2613 612 2850  Q 444 3088 444 3419  Q 444 3919 803 4259  Q 1163 4600 1759 4600  Q 2359 4600 2725 4251  Q 3091 3903 3091 3403  Q 3091 3084 2923 2848  Q 2756 2613 2416 2484  Q 2838 2347 3058 2040  Q 3278 1734 3278 1309  Q 3278 722 2862 322  Q 2447 -78 1769 -78  Q 1091 -78 675 323  Q 259 725 259 1325  Q 259 1772 486 2073  Q 713 2375 1131 2484  z M 1019 3438  Q 1019 3113 1228 2906  Q 1438 2700 1772 2700  Q 2097 2700 2305 2904  Q 2513 3109 2513 3406  Q 2513 3716 2298 3927  Q 2084 4138 1766 4138  Q 1444 4138 1231 3931  Q 1019 3725 1019 3438  z M 838 1322  Q 838 1081 952 856  Q 1066 631 1291 507  Q 1516 384 1775 384  Q 2178 384 2440 643  Q 2703 903 2703 1303  Q 2703 1709 2433 1975  Q 2163 2241 1756 2241  Q 1359 2241 1098 1978  Q 838 1716 838 1322  z " transform="scale(0.015625)"/>
       </defs>
       <use xlink:href="#e8b0ab51"/>
       <use xlink:href="#115a80cb" x="55.615234"/>
      </g>
     </g>
    </g>
    <g id="xtick_29">
     <g id="line2d_36">
      <path d="M 298.377102 244.3699  L 298.377102 160.043206  " clip-path="url(#p0d9f057be0)" style="fill: none; stroke: #ffffff; stroke-width: 0.8; stroke-linecap: round"/>
     </g>
     <g id="text_13">
      <!-- 100 -->
      <g style="fill: #262626" transform="translate(291.036665 258.968775) scale(0.088 -0.088)">
       <use xlink:href="#486a4ef2"/>
       <use xlink:href="#115a80cb" x="55.615234"/>
       <use xlink:href="#115a80cb" x="111.230469"/>
      </g>
     </g>
    </g>
    <g id="xtick_30">
     <g id="line2d_37">
      <path d="M 43.189875 244.3699  L 43.189875 160.043206  " clip-path="url(#p0d9f057be0)" style="fill: none; stroke: #ffffff; stroke-width: 0.5; stroke-linecap: round"/>
     </g>
    </g>
    <g id="xtick_31">
     <g id="line2d_38">
      <path d="M 67.49342 244.3699  L 67.49342 160.043206  " clip-path="url(#p0d9f057be0)" style="fill: none; stroke: #ffffff; stroke-width: 0.5; stroke-linecap: round"/>
     </g>
    </g>
    <g id="xtick_32">
     <g id="line2d_39">
      <path d="M 79.645193 244.3699  L 79.645193 160.043206  " clip-path="url(#p0d9f057be0)" style="fill: none; stroke: #ffffff; stroke-width: 0.5; stroke-linecap: round"/>
     </g>
    </g>
    <g id="xtick_33">
     <g id="line2d_40">
      <path d="M 91.796966 244.3699  L 91.796966 160.043206  " clip-path="url(#p0d9f057be0)" style="fill: none; stroke: #ffffff; stroke-width: 0.5; stroke-linecap: round"/>
     </g>
    </g>
    <g id="xtick_34">
     <g id="line2d_41">
      <path d="M 116.100511 244.3699  L 116.100511 160.043206  " clip-path="url(#p0d9f057be0)" style="fill: none; stroke: #ffffff; stroke-width: 0.5; stroke-linecap: round"/>
     </g>
    </g>
    <g id="xtick_35">
     <g id="line2d_42">
      <path d="M 128.252284 244.3699  L 128.252284 160.043206  " clip-path="url(#p0d9f057be0)" style="fill: none; stroke: #ffffff; stroke-width: 0.5; stroke-linecap: round"/>
     </g>
    </g>
    <g id="xtick_36">
     <g id="line2d_43">
      <path d="M 140.404057 244.3699  L 140.404057 160.043206  " clip-path="url(#p0d9f057be0)" style="fill: none; stroke: #ffffff; stroke-width: 0.5; stroke-linecap: round"/>
     </g>
    </g>
    <g id="xtick_37">
     <g id="line2d_44">
      <path d="M 164.707602 244.3699  L 164.707602 160.043206  " clip-path="url(#p0d9f057be0)" style="fill: none; stroke: #ffffff; stroke-width: 0.5; stroke-linecap: round"/>
     </g>
    </g>
    <g id="xtick_38">
     <g id="line2d_45">
      <path d="M 176.859375 244.3699  L 176.859375 160.043206  " clip-path="url(#p0d9f057be0)" style="fill: none; stroke: #ffffff; stroke-width: 0.5; stroke-linecap: round"/>
     </g>
    </g>
    <g id="xtick_39">
     <g id="line2d_46">
      <path d="M 189.011148 244.3699  L 189.011148 160.043206  " clip-path="url(#p0d9f057be0)" style="fill: none; stroke: #ffffff; stroke-width: 0.5; stroke-linecap: round"/>
     </g>
    </g>
    <g id="xtick_40">
     <g id="line2d_47">
      <path d="M 213.314693 244.3699  L 213.314693 160.043206  " clip-path="url(#p0d9f057be0)" style="fill: none; stroke: #ffffff; stroke-width: 0.5; stroke-linecap: round"/>
     </g>
    </g>
    <g id="xtick_41">
     <g id="line2d_48">
      <path d="M 225.466466 244.3699  L 225.466466 160.043206  " clip-path="url(#p0d9f057be0)" style="fill: none; stroke: #ffffff; stroke-width: 0.5; stroke-linecap: round"/>
     </g>
    </g>
    <g id="xtick_42">
     <g id="line2d_49">
      <path d="M 237.618239 244.3699  L 237.618239 160.043206  " clip-path="url(#p0d9f057be0)" style="fill: none; stroke: #ffffff; stroke-width: 0.5; stroke-linecap: round"/>
     </g>
    </g>
    <g id="xtick_43">
     <g id="line2d_50">
      <path d="M 261.921784 244.3699  L 261.921784 160.043206  " clip-path="url(#p0d9f057be0)" style="fill: none; stroke: #ffffff; stroke-width: 0.5; stroke-linecap: round"/>
     </g>
    </g>
    <g id="xtick_44">
     <g id="line2d_51">
      <path d="M 274.073557 244.3699  L 274.073557 160.043206  " clip-path="url(#p0d9f057be0)" style="fill: none; stroke: #ffffff; stroke-width: 0.5; stroke-linecap: round"/>
     </g>
    </g>
    <g id="xtick_45">
     <g id="line2d_52">
      <path d="M 286.22533 244.3699  L 286.22533 160.043206  " clip-path="url(#p0d9f057be0)" style="fill: none; stroke: #ffffff; stroke-width: 0.5; stroke-linecap: round"/>
     </g>
    </g>
    <g id="xtick_46">
     <g id="line2d_53">
      <path d="M 310.528875 244.3699  L 310.528875 160.043206  " clip-path="url(#p0d9f057be0)" style="fill: none; stroke: #ffffff; stroke-width: 0.5; stroke-linecap: round"/>
     </g>
    </g>
    <g id="text_14">
     <!-- Time (s) -->
     <g style="fill: #262626" transform="translate(159.305625 271.706275) scale(0.096 -0.096)">
      <defs>
       <path id="d2caccc7" d="M 1453 0  L 2300 4059  L 797 4059  L 906 4581  L 4513 4581  L 4403 4059  L 2913 4059  L 2066 0  L 1453 0  z " transform="scale(0.015625)"/>
       <path id="21538cf7" d="M 2650 1128  L 3200 1072  Q 3081 663 2654 294  Q 2228 -75 1638 -75  Q 1269 -75 961 95  Q 653 266 492 591  Q 331 916 331 1331  Q 331 1875 582 2386  Q 834 2897 1234 3145  Q 1634 3394 2100 3394  Q 2694 3394 3048 3025  Q 3403 2656 3403 2019  Q 3403 1775 3359 1519  L 916 1519  Q 903 1422 903 1344  Q 903 878 1117 633  Q 1331 388 1641 388  Q 1931 388 2212 578  Q 2494 769 2650 1128  z M 1006 1950  L 2869 1950  Q 2872 2038 2872 2075  Q 2872 2500 2659 2726  Q 2447 2953 2113 2953  Q 1750 2953 1451 2703  Q 1153 2453 1006 1950  z " transform="scale(0.015625)"/>
      </defs>
      <use xlink:href="#d2caccc7"/>
      <use xlink:href="#62e288c6" x="60.208984"/>
      <use xlink:href="#473b82f9" x="82.425781"/>
      <use xlink:href="#21538cf7" x="165.726562"/>
      <use xlink:href="#486bddc4" x="221.341797"/>
      <use xlink:href="#0af2e6e7" x="249.125"/>
      <use xlink:href="#48a90560" x="282.425781"/>
      <use xlink:href="#593d574c" x="332.425781"/>
     </g>
    </g>
   </g>
   <g id="matplotlib.axis_4">
    <g id="ytick_4">
     <g id="line2d_54">
      <path d="M 43.189875 242.152442  L 310.528875 242.152442  " clip-path="url(#p0d9f057be0)" style="fill: none; stroke: #ffffff; stroke-width: 0.8; stroke-linecap: round"/>
     </g>
     <g id="text_15">
      <!-- 0 -->
      <g style="fill: #262626" transform="translate(29.99625 245.30188) scale(0.088 -0.088)">
       <use xlink:href="#115a80cb"/>
      </g>
     </g>
    </g>
    <g id="ytick_5">
     <g id="line2d_55">
      <path d="M 43.189875 202.31277  L 310.528875 202.31277  " clip-path="url(#p0d9f057be0)" style="fill: none; stroke: #ffffff; stroke-width: 0.8; stroke-linecap: round"/>
     </g>
     <g id="text_16">
      <!-- 100 -->
      <g style="fill: #262626" transform="translate(20.209 205.462208) scale(0.088 -0.088)">
       <use xlink:href="#486a4ef2"/>
       <use xlink:href="#115a80cb" x="55.615234"/>
       <use xlink:href="#115a80cb" x="111.230469"/>
      </g>
     </g>
    </g>
    <g id="ytick_6">
     <g id="line2d_56">
      <path d="M 43.189875 162.473098  L 310.528875 162.473098  " clip-path="url(#p0d9f057be0)" style="fill: none; stroke: #ffffff; stroke-width: 0.8; stroke-linecap: round"/>
     </g>
     <g id="text_17">
      <!-- 200 -->
      <g style="fill: #262626" transform="translate(20.209 165.622536) scale(0.088 -0.088)">
       <use xlink:href="#3fac5515"/>
       <use xlink:href="#115a80cb" x="55.615234"/>
       <use xlink:href="#115a80cb" x="111.230469"/>
      </g>
     </g>
    </g>
    <g id="text_18">
     <!-- Position (cm) -->
     <g style="fill: #262626" transform="translate(14.1885 230.210803) rotate(-90) scale(0.096 -0.096)">
      <use xlink:href="#caae886c"/>
      <use xlink:href="#f3bc602c" x="66.699219"/>
      <use xlink:href="#48a90560" x="122.314453"/>
      <use xlink:href="#62e288c6" x="172.314453"/>
      <use xlink:href="#af6f0174" x="194.53125"/>
      <use xlink:href="#62e288c6" x="222.314453"/>
      <use xlink:href="#f3bc602c" x="244.53125"/>
      <use xlink:href="#4123424a" x="300.146484"/>
      <use xlink:href="#486bddc4" x="355.761719"/>
      <use xlink:href="#0af2e6e7" x="383.544922"/>
      <use xlink:href="#37450193" x="416.845703"/>
      <use xlink:href="#473b82f9" x="466.845703"/>
      <use xlink:href="#593d574c" x="550.146484"/>
     </g>
    </g>
   </g>
   <g id="PolyCollection_2">
    <path d="M 68.870621 239.776498  L 68.870621 239.776498  L 68.870621 239.776498  L 68.870621 239.776498  z " clip-path="url(#p0d9f057be0)" style="fill: #e15f99; fill-opacity: 0.2; stroke: #e15f99; stroke-opacity: 0.2; stroke-width: 0.8"/>
    <path d="M 69.923775 239.822663  L 69.923775 239.822663  L 69.923775 239.822663  L 69.923775 239.822663  z " clip-path="url(#p0d9f057be0)" style="fill: #e15f99; fill-opacity: 0.2; stroke: #e15f99; stroke-opacity: 0.2; stroke-width: 0.8"/>
    <path d="M 70.976929 239.831023  L 70.976929 239.831023  L 70.976929 239.831023  L 70.976929 239.831023  z " clip-path="url(#p0d9f057be0)" style="fill: #e15f99; fill-opacity: 0.2; stroke: #e15f99; stroke-opacity: 0.2; stroke-width: 0.8"/>
    <path d="M 72.030082 239.864904  L 72.030082 239.864904  L 72.030082 239.864904  L 72.030082 239.864904  z " clip-path="url(#p0d9f057be0)" style="fill: #e15f99; fill-opacity: 0.2; stroke: #e15f99; stroke-opacity: 0.2; stroke-width: 0.8"/>
    <path d="M 73.083236 239.906513  L 73.083236 239.906513  L 73.083236 239.906513  L 73.083236 239.906513  z " clip-path="url(#p0d9f057be0)" style="fill: #e15f99; fill-opacity: 0.2; stroke: #e15f99; stroke-opacity: 0.2; stroke-width: 0.8"/>
    <path d="M 74.13639 239.908347  L 74.13639 239.908347  L 74.13639 239.908347  L 74.13639 239.908347  z " clip-path="url(#p0d9f057be0)" style="fill: #e15f99; fill-opacity: 0.2; stroke: #e15f99; stroke-opacity: 0.2; stroke-width: 0.8"/>
    <path d="M 75.189543 239.893573  L 75.189543 239.893573  L 75.189543 239.893573  L 75.189543 239.893573  z " clip-path="url(#p0d9f057be0)" style="fill: #e15f99; fill-opacity: 0.2; stroke: #e15f99; stroke-opacity: 0.2; stroke-width: 0.8"/>
    <path d="M 76.242697 240.169172  L 76.242697 240.169172  L 76.242697 240.169172  L 76.242697 240.169172  z " clip-path="url(#p0d9f057be0)" style="fill: #e15f99; fill-opacity: 0.2; stroke: #e15f99; stroke-opacity: 0.2; stroke-width: 0.8"/>
    <path d="M 77.29585 240.254266  L 77.29585 240.254266  L 77.29585 240.254266  L 77.29585 240.254266  z " clip-path="url(#p0d9f057be0)" style="fill: #e15f99; fill-opacity: 0.2; stroke: #e15f99; stroke-opacity: 0.2; stroke-width: 0.8"/>
    <path d="M 78.349004 240.019515  L 78.349004 240.019515  L 78.349004 240.019515  L 78.349004 240.019515  z " clip-path="url(#p0d9f057be0)" style="fill: #e15f99; fill-opacity: 0.2; stroke: #e15f99; stroke-opacity: 0.2; stroke-width: 0.8"/>
    <path d="M 93.903273 165.072489  L 93.903273 165.072489  L 93.903273 165.072489  L 93.903273 165.072489  z " clip-path="url(#p0d9f057be0)" style="fill: #e15f99; fill-opacity: 0.2; stroke: #e15f99; stroke-opacity: 0.2; stroke-width: 0.8"/>
    <path d="M 94.956427 165.029795  L 94.956427 165.029795  L 94.956427 165.029795  L 94.956427 165.029795  z " clip-path="url(#p0d9f057be0)" style="fill: #e15f99; fill-opacity: 0.2; stroke: #e15f99; stroke-opacity: 0.2; stroke-width: 0.8"/>
    <path d="M 96.00958 164.941347  L 96.00958 164.941347  L 96.00958 164.941347  L 96.00958 164.941347  z " clip-path="url(#p0d9f057be0)" style="fill: #e15f99; fill-opacity: 0.2; stroke: #e15f99; stroke-opacity: 0.2; stroke-width: 0.8"/>
    <path d="M 97.062734 164.953515  L 97.062734 164.953515  L 97.062734 164.953515  L 97.062734 164.953515  z " clip-path="url(#p0d9f057be0)" style="fill: #e15f99; fill-opacity: 0.2; stroke: #e15f99; stroke-opacity: 0.2; stroke-width: 0.8"/>
    <path d="M 98.1969 165.074552  L 98.1969 165.074552  L 98.1969 165.074552  L 98.1969 165.074552  z " clip-path="url(#p0d9f057be0)" style="fill: #e15f99; fill-opacity: 0.2; stroke: #e15f99; stroke-opacity: 0.2; stroke-width: 0.8"/>
    <path d="M 99.250053 165.133942  L 99.250053 165.133942  L 99.250053 165.133942  L 99.250053 165.133942  z " clip-path="url(#p0d9f057be0)" style="fill: #e15f99; fill-opacity: 0.2; stroke: #e15f99; stroke-opacity: 0.2; stroke-width: 0.8"/>
    <path d="M 100.303207 165.122767  L 100.303207 165.122767  L 100.303207 165.122767  L 100.303207 165.122767  z " clip-path="url(#p0d9f057be0)" style="fill: #e15f99; fill-opacity: 0.2; stroke: #e15f99; stroke-opacity: 0.2; stroke-width: 0.8"/>
    <path d="M 101.35636 165.100157  L 101.35636 165.100157  L 101.35636 165.100157  L 101.35636 165.100157  z " clip-path="url(#p0d9f057be0)" style="fill: #e15f99; fill-opacity: 0.2; stroke: #e15f99; stroke-opacity: 0.2; stroke-width: 0.8"/>
    <path d="M 116.91063 164.434974  L 116.91063 164.434974  L 116.91063 164.434974  L 116.91063 164.434974  z " clip-path="url(#p0d9f057be0)" style="fill: #e15f99; fill-opacity: 0.2; stroke: #e15f99; stroke-opacity: 0.2; stroke-width: 0.8"/>
    <path d="M 117.963783 164.95334  L 117.963783 164.95334  L 117.963783 164.95334  L 117.963783 164.95334  z " clip-path="url(#p0d9f057be0)" style="fill: #e15f99; fill-opacity: 0.2; stroke: #e15f99; stroke-opacity: 0.2; stroke-width: 0.8"/>
    <path d="M 119.016937 166.968377  L 119.016937 166.968377  L 119.016937 166.968377  L 119.016937 166.968377  z " clip-path="url(#p0d9f057be0)" style="fill: #e15f99; fill-opacity: 0.2; stroke: #e15f99; stroke-opacity: 0.2; stroke-width: 0.8"/>
    <path d="M 120.07009 168.654848  L 120.07009 168.654848  L 120.07009 168.654848  L 120.07009 168.654848  z " clip-path="url(#p0d9f057be0)" style="fill: #e15f99; fill-opacity: 0.2; stroke: #e15f99; stroke-opacity: 0.2; stroke-width: 0.8"/>
    <path d="M 121.123244 173.959068  L 121.123244 173.959068  L 121.123244 173.959068  L 121.123244 173.959068  z " clip-path="url(#p0d9f057be0)" style="fill: #e15f99; fill-opacity: 0.2; stroke: #e15f99; stroke-opacity: 0.2; stroke-width: 0.8"/>
    <path d="M 122.176398 179.779927  L 122.176398 179.779927  L 122.176398 179.779927  L 122.176398 179.779927  z " clip-path="url(#p0d9f057be0)" style="fill: #e15f99; fill-opacity: 0.2; stroke: #e15f99; stroke-opacity: 0.2; stroke-width: 0.8"/>
    <path d="M 123.229551 185.845016  L 123.229551 185.845016  L 123.229551 185.845016  L 123.229551 185.845016  z " clip-path="url(#p0d9f057be0)" style="fill: #e15f99; fill-opacity: 0.2; stroke: #e15f99; stroke-opacity: 0.2; stroke-width: 0.8"/>
    <path d="M 124.282705 192.894109  L 124.282705 192.894109  L 124.282705 192.894109  L 124.282705 192.894109  z " clip-path="url(#p0d9f057be0)" style="fill: #e15f99; fill-opacity: 0.2; stroke: #e15f99; stroke-opacity: 0.2; stroke-width: 0.8"/>
    <path d="M 125.335859 200.892769  L 125.335859 200.892769  L 125.335859 200.892769  L 125.335859 200.892769  z " clip-path="url(#p0d9f057be0)" style="fill: #e15f99; fill-opacity: 0.2; stroke: #e15f99; stroke-opacity: 0.2; stroke-width: 0.8"/>
    <path d="M 126.389012 208.98309  L 126.389012 208.98309  L 126.389012 208.98309  L 126.389012 208.98309  z " clip-path="url(#p0d9f057be0)" style="fill: #e15f99; fill-opacity: 0.2; stroke: #e15f99; stroke-opacity: 0.2; stroke-width: 0.8"/>
    <path d="M 141.943281 240.033829  L 141.943281 240.033829  L 141.943281 240.033829  L 141.943281 240.033829  z " clip-path="url(#p0d9f057be0)" style="fill: #e15f99; fill-opacity: 0.2; stroke: #e15f99; stroke-opacity: 0.2; stroke-width: 0.8"/>
    <path d="M 142.996435 240.078326  L 142.996435 240.078326  L 142.996435 240.078326  L 142.996435 240.078326  z " clip-path="url(#p0d9f057be0)" style="fill: #e15f99; fill-opacity: 0.2; stroke: #e15f99; stroke-opacity: 0.2; stroke-width: 0.8"/>
    <path d="M 144.049589 239.900639  L 144.049589 239.900639  L 144.049589 239.900639  L 144.049589 239.900639  z " clip-path="url(#p0d9f057be0)" style="fill: #e15f99; fill-opacity: 0.2; stroke: #e15f99; stroke-opacity: 0.2; stroke-width: 0.8"/>
    <path d="M 145.102742 238.890724  L 145.102742 238.890724  L 145.102742 238.890724  L 145.102742 238.890724  z " clip-path="url(#p0d9f057be0)" style="fill: #e15f99; fill-opacity: 0.2; stroke: #e15f99; stroke-opacity: 0.2; stroke-width: 0.8"/>
    <path d="M 146.236908 235.298603  L 146.236908 235.298603  L 146.236908 235.298603  L 146.236908 235.298603  z " clip-path="url(#p0d9f057be0)" style="fill: #e15f99; fill-opacity: 0.2; stroke: #e15f99; stroke-opacity: 0.2; stroke-width: 0.8"/>
    <path d="M 147.290061 233.416645  L 147.290061 233.416645  L 147.290061 233.416645  L 147.290061 233.416645  z " clip-path="url(#p0d9f057be0)" style="fill: #e15f99; fill-opacity: 0.2; stroke: #e15f99; stroke-opacity: 0.2; stroke-width: 0.8"/>
    <path d="M 148.343215 233.024736  L 148.343215 233.024736  L 148.343215 233.024736  L 148.343215 233.024736  z " clip-path="url(#p0d9f057be0)" style="fill: #e15f99; fill-opacity: 0.2; stroke: #e15f99; stroke-opacity: 0.2; stroke-width: 0.8"/>
    <path d="M 149.396369 230.051461  L 149.396369 230.051461  L 149.396369 230.051461  L 149.396369 230.051461  z " clip-path="url(#p0d9f057be0)" style="fill: #e15f99; fill-opacity: 0.2; stroke: #e15f99; stroke-opacity: 0.2; stroke-width: 0.8"/>
    <path d="M 150.36851 225.241809  L 150.36851 225.241809  L 150.36851 225.241809  L 150.36851 225.241809  z " clip-path="url(#p0d9f057be0)" style="fill: #e15f99; fill-opacity: 0.2; stroke: #e15f99; stroke-opacity: 0.2; stroke-width: 0.8"/>
    <path d="M 166.003791 164.870262  L 166.003791 164.870262  L 166.003791 164.870262  L 166.003791 164.870262  z " clip-path="url(#p0d9f057be0)" style="fill: #e15f99; fill-opacity: 0.2; stroke: #e15f99; stroke-opacity: 0.2; stroke-width: 0.8"/>
    <path d="M 167.056945 164.856867  L 167.056945 164.856867  L 167.056945 164.856867  L 167.056945 164.856867  z " clip-path="url(#p0d9f057be0)" style="fill: #e15f99; fill-opacity: 0.2; stroke: #e15f99; stroke-opacity: 0.2; stroke-width: 0.8"/>
    <path d="M 168.110099 164.917649  L 168.110099 164.917649  L 168.110099 164.917649  L 168.110099 164.917649  z " clip-path="url(#p0d9f057be0)" style="fill: #e15f99; fill-opacity: 0.2; stroke: #e15f99; stroke-opacity: 0.2; stroke-width: 0.8"/>
    <path d="M 169.08224 164.80211  L 169.08224 164.80211  L 169.08224 164.80211  L 169.08224 164.80211  z " clip-path="url(#p0d9f057be0)" style="fill: #e15f99; fill-opacity: 0.2; stroke: #e15f99; stroke-opacity: 0.2; stroke-width: 0.8"/>
    <path d="M 170.135394 164.840407  L 170.135394 164.840407  L 170.135394 164.840407  L 170.135394 164.840407  z " clip-path="url(#p0d9f057be0)" style="fill: #e15f99; fill-opacity: 0.2; stroke: #e15f99; stroke-opacity: 0.2; stroke-width: 0.8"/>
    <path d="M 171.26956 164.871273  L 171.26956 164.871273  L 171.26956 164.871273  L 171.26956 164.871273  z " clip-path="url(#p0d9f057be0)" style="fill: #e15f99; fill-opacity: 0.2; stroke: #e15f99; stroke-opacity: 0.2; stroke-width: 0.8"/>
    <path d="M 172.322713 164.984416  L 172.322713 164.984416  L 172.322713 164.984416  L 172.322713 164.984416  z " clip-path="url(#p0d9f057be0)" style="fill: #e15f99; fill-opacity: 0.2; stroke: #e15f99; stroke-opacity: 0.2; stroke-width: 0.8"/>
    <path d="M 173.375867 164.926914  L 173.375867 164.926914  L 173.375867 164.926914  L 173.375867 164.926914  z " clip-path="url(#p0d9f057be0)" style="fill: #e15f99; fill-opacity: 0.2; stroke: #e15f99; stroke-opacity: 0.2; stroke-width: 0.8"/>
    <path d="M 174.42902 164.934917  L 174.42902 164.934917  L 174.42902 164.934917  L 174.42902 164.934917  z " clip-path="url(#p0d9f057be0)" style="fill: #e15f99; fill-opacity: 0.2; stroke: #e15f99; stroke-opacity: 0.2; stroke-width: 0.8"/>
    <path d="M 189.98329 167.726762  L 189.98329 167.726762  L 189.98329 167.726762  L 189.98329 167.726762  z " clip-path="url(#p0d9f057be0)" style="fill: #e15f99; fill-opacity: 0.2; stroke: #e15f99; stroke-opacity: 0.2; stroke-width: 0.8"/>
    <path d="M 191.036443 172.729722  L 191.036443 172.729722  L 191.036443 172.729722  L 191.036443 172.729722  z " clip-path="url(#p0d9f057be0)" style="fill: #e15f99; fill-opacity: 0.2; stroke: #e15f99; stroke-opacity: 0.2; stroke-width: 0.8"/>
    <path d="M 192.089597 180.056622  L 192.089597 180.056622  L 192.089597 180.056622  L 192.089597 180.056622  z " clip-path="url(#p0d9f057be0)" style="fill: #e15f99; fill-opacity: 0.2; stroke: #e15f99; stroke-opacity: 0.2; stroke-width: 0.8"/>
    <path d="M 193.14275 186.921963  L 193.14275 186.921963  L 193.14275 186.921963  L 193.14275 186.921963  z " clip-path="url(#p0d9f057be0)" style="fill: #e15f99; fill-opacity: 0.2; stroke: #e15f99; stroke-opacity: 0.2; stroke-width: 0.8"/>
    <path d="M 194.276916 195.175395  L 194.276916 195.175395  L 194.276916 195.175395  L 194.276916 195.175395  z " clip-path="url(#p0d9f057be0)" style="fill: #e15f99; fill-opacity: 0.2; stroke: #e15f99; stroke-opacity: 0.2; stroke-width: 0.8"/>
    <path d="M 195.33007 203.357948  L 195.33007 203.357948  L 195.33007 203.357948  L 195.33007 203.357948  z " clip-path="url(#p0d9f057be0)" style="fill: #e15f99; fill-opacity: 0.2; stroke: #e15f99; stroke-opacity: 0.2; stroke-width: 0.8"/>
    <path d="M 196.383223 211.693352  L 196.383223 211.693352  L 196.383223 211.693352  L 196.383223 211.693352  z " clip-path="url(#p0d9f057be0)" style="fill: #e15f99; fill-opacity: 0.2; stroke: #e15f99; stroke-opacity: 0.2; stroke-width: 0.8"/>
    <path d="M 197.355365 219.63172  L 197.355365 219.63172  L 197.355365 219.63172  L 197.355365 219.63172  z " clip-path="url(#p0d9f057be0)" style="fill: #e15f99; fill-opacity: 0.2; stroke: #e15f99; stroke-opacity: 0.2; stroke-width: 0.8"/>
    <path d="M 198.408519 228.275645  L 198.408519 228.275645  L 198.408519 228.275645  L 198.408519 228.275645  z " clip-path="url(#p0d9f057be0)" style="fill: #e15f99; fill-opacity: 0.2; stroke: #e15f99; stroke-opacity: 0.2; stroke-width: 0.8"/>
    <path d="M 214.0438 240.217659  L 214.0438 240.217659  L 214.0438 240.217659  L 214.0438 240.217659  z " clip-path="url(#p0d9f057be0)" style="fill: #e15f99; fill-opacity: 0.2; stroke: #e15f99; stroke-opacity: 0.2; stroke-width: 0.8"/>
    <path d="M 215.096953 240.089564  L 215.096953 240.089564  L 215.096953 240.089564  L 215.096953 240.089564  z " clip-path="url(#p0d9f057be0)" style="fill: #e15f99; fill-opacity: 0.2; stroke: #e15f99; stroke-opacity: 0.2; stroke-width: 0.8"/>
    <path d="M 216.069095 239.41991  L 216.069095 239.41991  L 216.069095 239.41991  L 216.069095 239.41991  z " clip-path="url(#p0d9f057be0)" style="fill: #e15f99; fill-opacity: 0.2; stroke: #e15f99; stroke-opacity: 0.2; stroke-width: 0.8"/>
    <path d="M 217.122249 237.165484  L 217.122249 237.165484  L 217.122249 237.165484  L 217.122249 237.165484  z " clip-path="url(#p0d9f057be0)" style="fill: #e15f99; fill-opacity: 0.2; stroke: #e15f99; stroke-opacity: 0.2; stroke-width: 0.8"/>
    <path d="M 218.175402 233.500844  L 218.175402 233.500844  L 218.175402 233.500844  L 218.175402 233.500844  z " clip-path="url(#p0d9f057be0)" style="fill: #e15f99; fill-opacity: 0.2; stroke: #e15f99; stroke-opacity: 0.2; stroke-width: 0.8"/>
    <path d="M 219.309568 227.843403  L 219.309568 227.843403  L 219.309568 227.843403  L 219.309568 227.843403  z " clip-path="url(#p0d9f057be0)" style="fill: #e15f99; fill-opacity: 0.2; stroke: #e15f99; stroke-opacity: 0.2; stroke-width: 0.8"/>
    <path d="M 220.362721 221.733914  L 220.362721 221.733914  L 220.362721 221.733914  L 220.362721 221.733914  z " clip-path="url(#p0d9f057be0)" style="fill: #e15f99; fill-opacity: 0.2; stroke: #e15f99; stroke-opacity: 0.2; stroke-width: 0.8"/>
    <path d="M 221.415875 215.105572  L 221.415875 215.105572  L 221.415875 215.105572  L 221.415875 215.105572  z " clip-path="url(#p0d9f057be0)" style="fill: #e15f99; fill-opacity: 0.2; stroke: #e15f99; stroke-opacity: 0.2; stroke-width: 0.8"/>
    <path d="M 222.469029 207.577298  L 222.469029 207.577298  L 222.469029 207.577298  L 222.469029 207.577298  z " clip-path="url(#p0d9f057be0)" style="fill: #e15f99; fill-opacity: 0.2; stroke: #e15f99; stroke-opacity: 0.2; stroke-width: 0.8"/>
    <path d="M 238.023298 164.485626  L 238.023298 164.485626  L 238.023298 164.485626  L 238.023298 164.485626  z " clip-path="url(#p0d9f057be0)" style="fill: #e15f99; fill-opacity: 0.2; stroke: #e15f99; stroke-opacity: 0.2; stroke-width: 0.8"/>
    <path d="M 239.076451 164.611031  L 239.076451 164.611031  L 239.076451 164.611031  L 239.076451 164.611031  z " clip-path="url(#p0d9f057be0)" style="fill: #e15f99; fill-opacity: 0.2; stroke: #e15f99; stroke-opacity: 0.2; stroke-width: 0.8"/>
    <path d="M 240.129605 164.551601  L 240.129605 164.551601  L 240.129605 164.551601  L 240.129605 164.551601  z " clip-path="url(#p0d9f057be0)" style="fill: #e15f99; fill-opacity: 0.2; stroke: #e15f99; stroke-opacity: 0.2; stroke-width: 0.8"/>
    <path d="M 241.182759 164.570567  L 241.182759 164.570567  L 241.182759 164.570567  L 241.182759 164.570567  z " clip-path="url(#p0d9f057be0)" style="fill: #e15f99; fill-opacity: 0.2; stroke: #e15f99; stroke-opacity: 0.2; stroke-width: 0.8"/>
    <path d="M 242.316924 164.455717  L 242.316924 164.455717  L 242.316924 164.455717  L 242.316924 164.455717  z " clip-path="url(#p0d9f057be0)" style="fill: #e15f99; fill-opacity: 0.2; stroke: #e15f99; stroke-opacity: 0.2; stroke-width: 0.8"/>
    <path d="M 243.370078 164.286455  L 243.370078 164.286455  L 243.370078 164.286455  L 243.370078 164.286455  z " clip-path="url(#p0d9f057be0)" style="fill: #e15f99; fill-opacity: 0.2; stroke: #e15f99; stroke-opacity: 0.2; stroke-width: 0.8"/>
    <path d="M 244.34222 164.24276  L 244.34222 164.24276  L 244.34222 164.24276  L 244.34222 164.24276  z " clip-path="url(#p0d9f057be0)" style="fill: #e15f99; fill-opacity: 0.2; stroke: #e15f99; stroke-opacity: 0.2; stroke-width: 0.8"/>
    <path d="M 245.395373 164.954572  L 245.395373 164.954572  L 245.395373 164.954572  L 245.395373 164.954572  z " clip-path="url(#p0d9f057be0)" style="fill: #e15f99; fill-opacity: 0.2; stroke: #e15f99; stroke-opacity: 0.2; stroke-width: 0.8"/>
    <path d="M 246.448527 164.75596  L 246.448527 164.75596  L 246.448527 164.75596  L 246.448527 164.75596  z " clip-path="url(#p0d9f057be0)" style="fill: #e15f99; fill-opacity: 0.2; stroke: #e15f99; stroke-opacity: 0.2; stroke-width: 0.8"/>
    <path d="M 262.083808 239.658759  L 262.083808 239.658759  L 262.083808 239.658759  L 262.083808 239.658759  z " clip-path="url(#p0d9f057be0)" style="fill: #e15f99; fill-opacity: 0.2; stroke: #e15f99; stroke-opacity: 0.2; stroke-width: 0.8"/>
    <path d="M 263.05595 239.778181  L 263.05595 239.778181  L 263.05595 239.778181  L 263.05595 239.778181  z " clip-path="url(#p0d9f057be0)" style="fill: #e15f99; fill-opacity: 0.2; stroke: #e15f99; stroke-opacity: 0.2; stroke-width: 0.8"/>
    <path d="M 264.109103 239.787433  L 264.109103 239.787433  L 264.109103 239.787433  L 264.109103 239.787433  z " clip-path="url(#p0d9f057be0)" style="fill: #e15f99; fill-opacity: 0.2; stroke: #e15f99; stroke-opacity: 0.2; stroke-width: 0.8"/>
    <path d="M 265.162257 239.809118  L 265.162257 239.809118  L 265.162257 239.809118  L 265.162257 239.809118  z " clip-path="url(#p0d9f057be0)" style="fill: #e15f99; fill-opacity: 0.2; stroke: #e15f99; stroke-opacity: 0.2; stroke-width: 0.8"/>
    <path d="M 266.21541 239.812678  L 266.21541 239.812678  L 266.21541 239.812678  L 266.21541 239.812678  z " clip-path="url(#p0d9f057be0)" style="fill: #e15f99; fill-opacity: 0.2; stroke: #e15f99; stroke-opacity: 0.2; stroke-width: 0.8"/>
    <path d="M 267.349576 239.860182  L 267.349576 239.860182  L 267.349576 239.860182  L 267.349576 239.860182  z " clip-path="url(#p0d9f057be0)" style="fill: #e15f99; fill-opacity: 0.2; stroke: #e15f99; stroke-opacity: 0.2; stroke-width: 0.8"/>
    <path d="M 268.40273 239.940012  L 268.40273 239.940012  L 268.40273 239.940012  L 268.40273 239.940012  z " clip-path="url(#p0d9f057be0)" style="fill: #e15f99; fill-opacity: 0.2; stroke: #e15f99; stroke-opacity: 0.2; stroke-width: 0.8"/>
    <path d="M 269.455883 239.935799  L 269.455883 239.935799  L 269.455883 239.935799  L 269.455883 239.935799  z " clip-path="url(#p0d9f057be0)" style="fill: #e15f99; fill-opacity: 0.2; stroke: #e15f99; stroke-opacity: 0.2; stroke-width: 0.8"/>
    <path d="M 270.509037 239.901675  L 270.509037 239.901675  L 270.509037 239.901675  L 270.509037 239.901675  z " clip-path="url(#p0d9f057be0)" style="fill: #e15f99; fill-opacity: 0.2; stroke: #e15f99; stroke-opacity: 0.2; stroke-width: 0.8"/>
    <path d="M 286.063306 219.590898  L 286.063306 219.590898  L 286.063306 219.590898  L 286.063306 219.590898  z " clip-path="url(#p0d9f057be0)" style="fill: #e15f99; fill-opacity: 0.2; stroke: #e15f99; stroke-opacity: 0.2; stroke-width: 0.8"/>
    <path d="M 287.11646 212.744404  L 287.11646 212.744404  L 287.11646 212.744404  L 287.11646 212.744404  z " clip-path="url(#p0d9f057be0)" style="fill: #e15f99; fill-opacity: 0.2; stroke: #e15f99; stroke-opacity: 0.2; stroke-width: 0.8"/>
    <path d="M 288.169613 204.358081  L 288.169613 204.358081  L 288.169613 204.358081  L 288.169613 204.358081  z " clip-path="url(#p0d9f057be0)" style="fill: #e15f99; fill-opacity: 0.2; stroke: #e15f99; stroke-opacity: 0.2; stroke-width: 0.8"/>
    <path d="M 289.222767 195.517831  L 289.222767 195.517831  L 289.222767 195.517831  L 289.222767 195.517831  z " clip-path="url(#p0d9f057be0)" style="fill: #e15f99; fill-opacity: 0.2; stroke: #e15f99; stroke-opacity: 0.2; stroke-width: 0.8"/>
    <path d="M 290.27592 187.289703  L 290.27592 187.289703  L 290.27592 187.289703  L 290.27592 187.289703  z " clip-path="url(#p0d9f057be0)" style="fill: #e15f99; fill-opacity: 0.2; stroke: #e15f99; stroke-opacity: 0.2; stroke-width: 0.8"/>
    <path d="M 291.329074 183.484601  L 291.329074 183.484601  L 291.329074 183.484601  L 291.329074 183.484601  z " clip-path="url(#p0d9f057be0)" style="fill: #e15f99; fill-opacity: 0.2; stroke: #e15f99; stroke-opacity: 0.2; stroke-width: 0.8"/>
    <path d="M 292.382228 178.593922  L 292.382228 178.593922  L 292.382228 178.593922  L 292.382228 178.593922  z " clip-path="url(#p0d9f057be0)" style="fill: #e15f99; fill-opacity: 0.2; stroke: #e15f99; stroke-opacity: 0.2; stroke-width: 0.8"/>
    <path d="M 293.435381 172.408036  L 293.435381 172.408036  L 293.435381 172.408036  L 293.435381 172.408036  z " clip-path="url(#p0d9f057be0)" style="fill: #e15f99; fill-opacity: 0.2; stroke: #e15f99; stroke-opacity: 0.2; stroke-width: 0.8"/>
    <path d="M 294.488535 167.694145  L 294.488535 167.694145  L 294.488535 167.694145  L 294.488535 167.694145  z " clip-path="url(#p0d9f057be0)" style="fill: #e15f99; fill-opacity: 0.2; stroke: #e15f99; stroke-opacity: 0.2; stroke-width: 0.8"/>
   </g>
   <g id="line2d_57">
    <path d="M 55.341648 185.991833  L 55.584683 186.413467  L 55.827719 186.927567  L 55.989742 187.173119  L 56.475813 188.758745  L 57.285931 192.976917  L 59.149203 204.444543  L 61.498546 221.987827  L 62.470688 228.871495  L 63.199794 233.231658  L 64.090924 236.935157  L 64.495983 237.70709  L 64.658007 237.910154  L 65.22509 239.020123  L 65.792172 239.646598  L 66.11622 239.671257  L 71.300976 239.836746  L 71.868059 239.875234  L 72.35413 239.875849  L 75.837638 240.015224  L 76.242697 240.169172  L 77.214839 240.312968  L 77.781921 240.025006  L 78.18698 239.96297  L 78.511028 240.068619  L 78.835075 240.116071  L 79.240134 240.055462  L 79.645193 240.025611  L 79.888229 239.752352  L 80.455311 238.910098  L 81.508465 236.351244  L 81.994536 234.71411  L 82.399595 233.219947  L 83.04769 230.270846  L 85.478044 216.351682  L 88.718517 190.963593  L 90.6628 175.006196  L 91.55393 169.346234  L 92.040001 167.608458  L 92.769108 166.400642  L 92.85012 166.294707  L 93.093155 165.693739  L 93.255179 165.698664  L 93.579226 165.201827  L 93.74125 164.894198  L 94.065297 165.109005  L 94.389344 165.023315  L 94.713391 164.984324  L 95.037439 165.035328  L 95.52351 165.019429  L 95.928569 164.978982  L 96.171604 164.967303  L 97.143746 164.965596  L 97.30577 164.965175  L 97.548805 165.036006  L 98.763982 165.080596  L 99.169041 165.134674  L 101.680408 165.216219  L 101.923443 165.290056  L 104.110762 165.644827  L 104.43481 165.692233  L 105.163916 165.707971  L 106.70314 165.637056  L 107.189211 165.262552  L 107.270223 165.247832  L 107.756294 164.610967  L 108.323377 164.394018  L 108.566412 164.388015  L 109.052483 164.310496  L 110.26766 164.404032  L 110.834743 164.33474  L 111.077779 164.267924  L 111.644861 164.207296  L 112.04992 164.12611  L 112.698015 164.098292  L 112.94105 164.094961  L 113.265098 163.997667  L 113.589145 163.876238  L 114.075216 164.13327  L 114.642299 164.339515  L 115.533429 164.098733  L 115.776464 164.149223  L 116.100511 164.376935  L 116.667594 164.412424  L 116.991641 164.454499  L 117.3967 164.442363  L 117.558724 164.466623  L 118.125807 165.223102  L 118.368842 165.833652  L 118.611878 166.580355  L 119.097949 167.001305  L 119.259972 167.121322  L 120.232114 169.103673  L 120.96122 172.202303  L 121.36628 175.303467  L 122.905504 183.851248  L 123.877646 190.059174  L 126.632048 210.868159  L 128.819367 227.709804  L 130.520615 236.879901  L 131.16871 238.859673  L 131.573769 239.535454  L 132.869958 239.801177  L 134.166147 239.795025  L 136.191442 239.828645  L 137.082572 239.870226  L 138.29775 239.871346  L 140.728104 239.854433  L 143.64453 240.024702  L 144.049589 239.900639  L 144.292624 239.767819  L 144.778695 239.590359  L 145.264766 238.498953  L 146.155896 235.678942  L 146.560955 233.953384  L 146.885002 233.309581  L 147.452085 233.398203  L 148.262203 233.158272  L 148.424227 232.803938  L 148.667262 232.207122  L 148.910298 231.840406  L 149.234345 230.701859  L 149.963451 227.488382  L 151.097617 220.587574  L 151.826723 215.356524  L 153.527971 203.409821  L 154.257078 197.724322  L 155.391243 187.681464  L 156.930468 174.884599  L 157.659574 169.797493  L 158.307669 167.634597  L 159.117787 166.918004  L 160.332964 166.833856  L 160.494988 166.69401  L 160.657011 166.671102  L 160.981059 166.491415  L 161.143082 166.44428  L 162.034212 166.695441  L 162.520283 166.3881  L 162.84433 166.196526  L 163.006354 166.074209  L 163.24939 165.477743  L 163.411413 165.113539  L 163.654449 165.015377  L 164.059508 165.144687  L 164.869626 164.646512  L 165.112661 164.72557  L 165.436709 164.800629  L 166.327839 164.867544  L 166.732898 164.885642  L 167.462004 164.893772  L 167.70504 164.893131  L 168.110099 164.917649  L 168.920217 164.79497  L 169.811347 164.831534  L 170.135394 164.840407  L 170.459441 164.861314  L 170.8645 164.835626  L 171.512595 164.855881  L 171.917654 164.984755  L 172.241701 164.978868  L 173.294855 164.963097  L 173.456879 164.950486  L 173.861938 164.954735  L 174.266997 164.922455  L 175.077115 164.980476  L 175.563186 165.074401  L 176.130269 165.399423  L 176.292292 165.409487  L 176.940387 164.94992  L 177.264434 164.41284  L 177.426458 164.262666  L 177.669493 164.385229  L 178.155564 164.352671  L 179.451753 164.342724  L 183.259309 164.243029  L 183.664368 164.534418  L 184.23145 164.709238  L 184.555498 164.488487  L 184.717521 164.659221  L 184.879545 164.804985  L 185.52764 164.47667  L 185.770675 164.360868  L 185.932699 164.366225  L 186.499781 164.351248  L 187.228888 164.518808  L 187.471923 164.655432  L 187.876982 164.682432  L 188.444065 164.719362  L 188.606089 164.885071  L 189.173171 166.066104  L 189.98329 167.726762  L 190.955431 172.044618  L 191.76555 178.008319  L 193.385786 188.635053  L 196.059176 209.132571  L 198.975601 232.297454  L 199.623696 235.676288  L 200.109767 237.461676  L 200.838873 239.107659  L 201.56798 239.633455  L 202.05405 239.707991  L 203.026192 239.687368  L 205.213511 239.707145  L 206.185653 239.706954  L 206.671724 239.735229  L 207.076783 239.77661  L 207.80589 239.853639  L 208.453984 239.810356  L 209.993209 239.881077  L 210.803327 239.874348  L 212.018504 239.939312  L 213.314693 240.323539  L 213.557729 240.21754  L 213.881776 240.228058  L 215.745048 240.00343  L 216.879213 237.824993  L 218.09439 233.84386  L 219.066532 229.268928  L 220.119686 223.076682  L 220.76778 219.310999  L 222.874088 204.535369  L 224.170277 193.978235  L 227.086702 168.543806  L 227.41075 167.17192  L 227.572773 167.061273  L 228.058844 167.24897  L 228.30188 167.165737  L 228.706939 166.919011  L 228.949974 166.208607  L 229.19301 165.78593  L 229.436045 165.489309  L 229.922116 165.044761  L 230.08414 165.071407  L 230.246163 165.0415  L 230.57021 164.658678  L 230.813246 164.519302  L 230.97527 164.535337  L 231.218305 164.473323  L 232.514494 164.453122  L 232.75753 164.442108  L 233.729671 164.441896  L 234.296754 164.473432  L 234.620801 164.490447  L 235.349908 164.49628  L 235.91699 164.468662  L 237.456215 164.544743  L 238.752404 164.514626  L 239.157463 164.599914  L 239.805558 164.5602  L 243.127042 164.317266  L 243.289066 164.235148  L 243.45109 164.233532  L 243.775137 164.201326  L 244.180196 164.264671  L 244.82829 164.275738  L 245.314361 165.036504  L 245.557397 164.916858  L 246.691562 164.795043  L 247.50168 164.77216  L 247.825728 164.602266  L 248.068763 164.667622  L 248.230787 164.8535  L 248.473822 165.196136  L 248.716858 165.2164  L 248.878881 165.293078  L 249.121917 165.677698  L 249.932035 166.575553  L 250.337094 167.059439  L 250.823165 167.782802  L 251.147212 168.586523  L 251.47126 169.628481  L 252.038342 172.177412  L 252.36239 175.074437  L 253.982626 185.004546  L 256.899051 206.197744  L 258.357264 218.043922  L 259.896489 230.217728  L 260.86863 235.934463  L 261.435713 238.53273  L 261.921784 239.469815  L 262.245831 239.750899  L 262.731902 239.724493  L 272.939391 240.152951  L 273.182427 240.227995  L 273.587486 240.080004  L 273.911533 240.109829  L 274.23558 240.061423  L 275.53177 239.827836  L 275.855817 239.632928  L 276.260876 239.82564  L 276.503911 239.909486  L 276.746947 239.807833  L 277.31403 239.887507  L 278.20516 239.682565  L 278.529207 239.633481  L 279.744384 239.631225  L 281.526644 239.385221  L 282.174739 238.164269  L 282.498786 237.157627  L 283.389916 233.932646  L 284.362058 229.184828  L 286.387353 217.518614  L 287.845566 207.092336  L 290.27592 187.289703  L 290.843003 185.587615  L 291.16705 184.158038  L 292.05818 180.497669  L 292.787287 176.088167  L 293.921452 169.467987  L 294.2455 168.315324  L 294.73157 167.460502  L 294.893594 167.437352  L 295.6227 166.894124  L 296.108771 166.052107  L 296.270795 165.918105  L 296.91889 164.952287  L 297.080913 165.091808  L 297.647996 164.759841  L 297.81002 164.707115  L 298.134067 164.617575  L 298.377102 164.589391  L 298.377102 164.589391  " clip-path="url(#p0d9f057be0)" style="fill: none; stroke: #e15f99; stroke-width: 1.5; stroke-linecap: round"/>
   </g>
   <g id="line2d_58"/>
   <g id="patch_7">
    <path d="M 43.189875 244.3699  L 43.189875 160.043206  " style="fill: none; stroke: #ffffff; stroke-linejoin: miter; stroke-linecap: square"/>
   </g>
   <g id="patch_8">
    <path d="M 43.189875 244.3699  L 310.528875 244.3699  " style="fill: none; stroke: #ffffff; stroke-linejoin: miter; stroke-linecap: square"/>
   </g>
   <g id="text_19">
    <!-- Animal: ts32-1 -->
    <g style="fill: #262626" transform="translate(146.181375 154.043206) scale(0.096 -0.096)">
     <defs>
      <path id="6f7e2b43" d="M 1650 503  L 1731 6  Q 1494 -44 1306 -44  Q 1000 -44 831 53  Q 663 150 594 308  Q 525 466 525 972  L 525 2881  L 113 2881  L 113 3319  L 525 3319  L 525 4141  L 1084 4478  L 1084 3319  L 1650 3319  L 1650 2881  L 1084 2881  L 1084 941  Q 1084 700 1114 631  Q 1144 563 1211 522  Q 1278 481 1403 481  Q 1497 481 1650 503  z " transform="scale(0.015625)"/>
      <path id="25c8d859" d="M 269 1209  L 831 1284  Q 928 806 1161 595  Q 1394 384 1728 384  Q 2125 384 2398 659  Q 2672 934 2672 1341  Q 2672 1728 2419 1979  Q 2166 2231 1775 2231  Q 1616 2231 1378 2169  L 1441 2663  Q 1497 2656 1531 2656  Q 1891 2656 2178 2843  Q 2466 3031 2466 3422  Q 2466 3731 2256 3934  Q 2047 4138 1716 4138  Q 1388 4138 1169 3931  Q 950 3725 888 3313  L 325 3413  Q 428 3978 793 4289  Q 1159 4600 1703 4600  Q 2078 4600 2393 4439  Q 2709 4278 2876 4000  Q 3044 3722 3044 3409  Q 3044 3113 2884 2869  Q 2725 2625 2413 2481  Q 2819 2388 3044 2092  Q 3269 1797 3269 1353  Q 3269 753 2831 336  Q 2394 -81 1725 -81  Q 1122 -81 723 278  Q 325 638 269 1209  z " transform="scale(0.015625)"/>
     </defs>
     <use xlink:href="#82f416e6"/>
     <use xlink:href="#937eecab" x="66.699219"/>
     <use xlink:href="#ae49d494" x="122.314453"/>
     <use xlink:href="#0cd53d31" x="144.53125"/>
     <use xlink:href="#2c2d6147" x="227.832031"/>
     <use xlink:href="#43f984ee" x="283.447266"/>
     <use xlink:href="#540a5638" x="305.664062"/>
     <use xlink:href="#d8c95ef1" x="333.447266"/>
     <use xlink:href="#6f7e2b43" x="361.230469"/>
     <use xlink:href="#e5c6ac47" x="389.013672"/>
     <use xlink:href="#25c8d859" x="439.013672"/>
     <use xlink:href="#3fac5515" x="494.628906"/>
     <use xlink:href="#c8c39428" x="550.244141"/>
     <use xlink:href="#486a4ef2" x="583.544922"/>
    </g>
   </g>
  </g>
 </g>
 <defs>
  <clipPath id="pe202f6a15b">
   <rect x="43.189875" y="49.2059" width="267.339" height="84.326694"/>
  </clipPath>
  <clipPath id="p0d9f057be0">
   <rect x="43.189875" y="160.043206" width="267.339" height="84.326694"/>
  </clipPath>
 </defs>
</svg>
