<!DOCTYPE svg PUBLIC "-//W3C//DTD SVG 1.1//EN" "http://www.w3.org/Graphics/SVG/1.1/DTD/svg11.dtd">
<!-- Created with matplotlib (https://matplotlib.org/) -->
<svg xmlns="http://www.w3.org/2000/svg" xmlns:xlink="http://www.w3.org/1999/xlink" height="284.792114pt" version="1.1" viewBox="0 0 317.728875 284.792114" width="317.728875pt">
 <defs>
  <style type="text/css">
*{stroke-linecap:butt;stroke-linejoin:round;}
  </style>
 </defs>
 <g id="figure_1">
  <g id="patch_1">
   <path d="M 0 284.792114  L 317.728875 284.792114  L 317.728875 -0  L 0 -0  z " style="fill:#ffffff;"/>
  </g>
  <g id="axes_1">
   <g id="patch_2">
    <path d="M 43.189875 137.397932  L 310.528875 137.397932  L 310.528875 53.071239  L 43.189875 53.071239  z " style="fill:#eaeaf2;"/>
   </g>
   <g id="matplotlib.axis_1">
    <g id="xtick_1">
     <g id="line2d_1">
      <path clip-path="url(#pf8cc655f09)" d="M 55.341648 137.397932  L 55.341648 53.071239  " style="fill:none;stroke:#ffffff;stroke-linecap:round;stroke-width:0.8;"/>
     </g>
    </g>
    <g id="xtick_2">
     <g id="line2d_2">
      <path clip-path="url(#pf8cc655f09)" d="M 103.948739 137.397932  L 103.948739 53.071239  " style="fill:none;stroke:#ffffff;stroke-linecap:round;stroke-width:0.8;"/>
     </g>
    </g>
    <g id="xtick_3">
     <g id="line2d_3">
      <path clip-path="url(#pf8cc655f09)" d="M 152.55583 137.397932  L 152.55583 53.071239  " style="fill:none;stroke:#ffffff;stroke-linecap:round;stroke-width:0.8;"/>
     </g>
    </g>
    <g id="xtick_4">
     <g id="line2d_4">
      <path clip-path="url(#pf8cc655f09)" d="M 201.16292 137.397932  L 201.16292 53.071239  " style="fill:none;stroke:#ffffff;stroke-linecap:round;stroke-width:0.8;"/>
     </g>
    </g>
    <g id="xtick_5">
     <g id="line2d_5">
      <path clip-path="url(#pf8cc655f09)" d="M 249.770011 137.397932  L 249.770011 53.071239  " style="fill:none;stroke:#ffffff;stroke-linecap:round;stroke-width:0.8;"/>
     </g>
    </g>
    <g id="xtick_6">
     <g id="line2d_6">
      <path clip-path="url(#pf8cc655f09)" d="M 298.377102 137.397932  L 298.377102 53.071239  " style="fill:none;stroke:#ffffff;stroke-linecap:round;stroke-width:0.8;"/>
     </g>
    </g>
    <g id="xtick_7">
     <g id="line2d_7">
      <path clip-path="url(#pf8cc655f09)" d="M 67.49342 137.397932  L 67.49342 53.071239  " style="fill:none;stroke:#ffffff;stroke-linecap:round;stroke-width:0.5;"/>
     </g>
    </g>
    <g id="xtick_8">
     <g id="line2d_8">
      <path clip-path="url(#pf8cc655f09)" d="M 79.645193 137.397932  L 79.645193 53.071239  " style="fill:none;stroke:#ffffff;stroke-linecap:round;stroke-width:0.5;"/>
     </g>
    </g>
    <g id="xtick_9">
     <g id="line2d_9">
      <path clip-path="url(#pf8cc655f09)" d="M 91.796966 137.397932  L 91.796966 53.071239  " style="fill:none;stroke:#ffffff;stroke-linecap:round;stroke-width:0.5;"/>
     </g>
    </g>
    <g id="xtick_10">
     <g id="line2d_10">
      <path clip-path="url(#pf8cc655f09)" d="M 116.100511 137.397932  L 116.100511 53.071239  " style="fill:none;stroke:#ffffff;stroke-linecap:round;stroke-width:0.5;"/>
     </g>
    </g>
    <g id="xtick_11">
     <g id="line2d_11">
      <path clip-path="url(#pf8cc655f09)" d="M 128.252284 137.397932  L 128.252284 53.071239  " style="fill:none;stroke:#ffffff;stroke-linecap:round;stroke-width:0.5;"/>
     </g>
    </g>
    <g id="xtick_12">
     <g id="line2d_12">
      <path clip-path="url(#pf8cc655f09)" d="M 140.404057 137.397932  L 140.404057 53.071239  " style="fill:none;stroke:#ffffff;stroke-linecap:round;stroke-width:0.5;"/>
     </g>
    </g>
    <g id="xtick_13">
     <g id="line2d_13">
      <path clip-path="url(#pf8cc655f09)" d="M 164.707602 137.397932  L 164.707602 53.071239  " style="fill:none;stroke:#ffffff;stroke-linecap:round;stroke-width:0.5;"/>
     </g>
    </g>
    <g id="xtick_14">
     <g id="line2d_14">
      <path clip-path="url(#pf8cc655f09)" d="M 176.859375 137.397932  L 176.859375 53.071239  " style="fill:none;stroke:#ffffff;stroke-linecap:round;stroke-width:0.5;"/>
     </g>
    </g>
    <g id="xtick_15">
     <g id="line2d_15">
      <path clip-path="url(#pf8cc655f09)" d="M 189.011148 137.397932  L 189.011148 53.071239  " style="fill:none;stroke:#ffffff;stroke-linecap:round;stroke-width:0.5;"/>
     </g>
    </g>
    <g id="xtick_16">
     <g id="line2d_16">
      <path clip-path="url(#pf8cc655f09)" d="M 213.314693 137.397932  L 213.314693 53.071239  " style="fill:none;stroke:#ffffff;stroke-linecap:round;stroke-width:0.5;"/>
     </g>
    </g>
    <g id="xtick_17">
     <g id="line2d_17">
      <path clip-path="url(#pf8cc655f09)" d="M 225.466466 137.397932  L 225.466466 53.071239  " style="fill:none;stroke:#ffffff;stroke-linecap:round;stroke-width:0.5;"/>
     </g>
    </g>
    <g id="xtick_18">
     <g id="line2d_18">
      <path clip-path="url(#pf8cc655f09)" d="M 237.618239 137.397932  L 237.618239 53.071239  " style="fill:none;stroke:#ffffff;stroke-linecap:round;stroke-width:0.5;"/>
     </g>
    </g>
    <g id="xtick_19">
     <g id="line2d_19">
      <path clip-path="url(#pf8cc655f09)" d="M 261.921784 137.397932  L 261.921784 53.071239  " style="fill:none;stroke:#ffffff;stroke-linecap:round;stroke-width:0.5;"/>
     </g>
    </g>
    <g id="xtick_20">
     <g id="line2d_20">
      <path clip-path="url(#pf8cc655f09)" d="M 274.073557 137.397932  L 274.073557 53.071239  " style="fill:none;stroke:#ffffff;stroke-linecap:round;stroke-width:0.5;"/>
     </g>
    </g>
    <g id="xtick_21">
     <g id="line2d_21">
      <path clip-path="url(#pf8cc655f09)" d="M 286.22533 137.397932  L 286.22533 53.071239  " style="fill:none;stroke:#ffffff;stroke-linecap:round;stroke-width:0.5;"/>
     </g>
    </g>
    <g id="xtick_22">
     <g id="line2d_22">
      <path clip-path="url(#pf8cc655f09)" d="M 310.528875 137.397932  L 310.528875 53.071239  " style="fill:none;stroke:#ffffff;stroke-linecap:round;stroke-width:0.5;"/>
     </g>
    </g>
   </g>
   <g id="matplotlib.axis_2">
    <g id="ytick_1">
     <g id="line2d_23">
      <path clip-path="url(#pf8cc655f09)" d="M 43.189875 135.180474  L 310.528875 135.180474  " style="fill:none;stroke:#ffffff;stroke-linecap:round;stroke-width:0.8;"/>
     </g>
     <g id="text_1">
      <!-- 0 -->
      <defs>
       <path d="M 4.15625 35.296875  Q 4.15625 48 6.765625 55.734375  Q 9.375 63.484375 14.515625 67.671875  Q 19.671875 71.875 27.484375 71.875  Q 33.25 71.875 37.59375 69.546875  Q 41.9375 67.234375 44.765625 62.859375  Q 47.609375 58.5 49.21875 52.21875  Q 50.828125 45.953125 50.828125 35.296875  Q 50.828125 22.703125 48.234375 14.96875  Q 45.65625 7.234375 40.5 3  Q 35.359375 -1.21875 27.484375 -1.21875  Q 17.140625 -1.21875 11.234375 6.203125  Q 4.15625 15.140625 4.15625 35.296875  z M 13.1875 35.296875  Q 13.1875 17.671875 17.3125 11.828125  Q 21.4375 6 27.484375 6  Q 33.546875 6 37.671875 11.859375  Q 41.796875 17.71875 41.796875 35.296875  Q 41.796875 52.984375 37.671875 58.78125  Q 33.546875 64.59375 27.390625 64.59375  Q 21.34375 64.59375 17.71875 59.46875  Q 13.1875 52.9375 13.1875 35.296875  z " id="1dbd8266"/>
      </defs>
      <g style="fill:#262626;" transform="translate(29.99625 138.329912)scale(0.088 -0.088)">
       <use xlink:href="#1dbd8266"/>
      </g>
     </g>
    </g>
    <g id="ytick_2">
     <g id="line2d_24">
      <path clip-path="url(#pf8cc655f09)" d="M 43.189875 95.340803  L 310.528875 95.340803  " style="fill:none;stroke:#ffffff;stroke-linecap:round;stroke-width:0.8;"/>
     </g>
     <g id="text_2">
      <!-- 100 -->
      <defs>
       <path d="M 37.25 0  L 28.46875 0  L 28.46875 56  Q 25.296875 52.984375 20.140625 49.953125  Q 14.984375 46.921875 10.890625 45.40625  L 10.890625 53.90625  Q 18.265625 57.375 23.78125 62.296875  Q 29.296875 67.234375 31.59375 71.875  L 37.25 71.875  z " id="850f507c"/>
      </defs>
      <g style="fill:#262626;" transform="translate(20.209 98.49024)scale(0.088 -0.088)">
       <use xlink:href="#850f507c"/>
       <use x="55.615234" xlink:href="#1dbd8266"/>
       <use x="111.230469" xlink:href="#1dbd8266"/>
      </g>
     </g>
    </g>
    <g id="ytick_3">
     <g id="line2d_25">
      <path clip-path="url(#pf8cc655f09)" d="M 43.189875 55.501131  L 310.528875 55.501131  " style="fill:none;stroke:#ffffff;stroke-linecap:round;stroke-width:0.8;"/>
     </g>
     <g id="text_3">
      <!-- 200 -->
      <defs>
       <path d="M 50.34375 8.453125  L 50.34375 0  L 3.03125 0  Q 2.9375 3.171875 4.046875 6.109375  Q 5.859375 10.9375 9.828125 15.625  Q 13.8125 20.3125 21.34375 26.46875  Q 33.015625 36.03125 37.109375 41.625  Q 41.21875 47.21875 41.21875 52.203125  Q 41.21875 57.421875 37.46875 61  Q 33.734375 64.59375 27.734375 64.59375  Q 21.390625 64.59375 17.578125 60.78125  Q 13.765625 56.984375 13.71875 50.25  L 4.6875 51.171875  Q 5.609375 61.28125 11.65625 66.578125  Q 17.71875 71.875 27.9375 71.875  Q 38.234375 71.875 44.234375 66.15625  Q 50.25 60.453125 50.25 52  Q 50.25 47.703125 48.484375 43.546875  Q 46.734375 39.40625 42.65625 34.8125  Q 38.578125 30.21875 29.109375 22.21875  Q 21.1875 15.578125 18.9375 13.203125  Q 16.703125 10.84375 15.234375 8.453125  z " id="3819eb89"/>
      </defs>
      <g style="fill:#262626;" transform="translate(20.209 58.650568)scale(0.088 -0.088)">
       <use xlink:href="#3819eb89"/>
       <use x="55.615234" xlink:href="#1dbd8266"/>
       <use x="111.230469" xlink:href="#1dbd8266"/>
      </g>
     </g>
    </g>
    <g id="text_4">
     <!-- Position (cm) -->
     <defs>
      <path d="M 4.296875 0  L 19.28125 71.578125  L 49.171875 71.578125  Q 56.9375 71.578125 60.8125 69.796875  Q 64.703125 68.015625 67.234375 63.6875  Q 69.78125 59.375 69.78125 54  Q 69.78125 49.5625 67.96875 44.96875  Q 66.15625 40.375 63.390625 37.390625  Q 60.640625 34.421875 57.8125 32.90625  Q 54.984375 31.390625 51.765625 30.671875  Q 44.875 29.046875 37.84375 29.046875  L 19.921875 29.046875  L 13.875 0  z M 21.625 37.15625  L 37.40625 37.15625  Q 46.578125 37.15625 50.875 39.125  Q 55.171875 41.109375 57.765625 45.15625  Q 60.359375 49.21875 60.359375 53.765625  Q 60.359375 57.28125 58.984375 59.5  Q 57.625 61.71875 55.125 62.765625  Q 52.640625 63.8125 45.5625 63.8125  L 27.203125 63.8125  z " id="c7d2c498"/>
      <path d="M 4.890625 19.671875  Q 4.890625 34.859375 13.8125 44.828125  Q 21.1875 53.03125 33.15625 53.03125  Q 42.53125 53.03125 48.265625 47.171875  Q 54 41.3125 54 31.34375  Q 54 22.40625 50.390625 14.71875  Q 46.78125 7.03125 40.109375 2.921875  Q 33.453125 -1.171875 26.078125 -1.171875  Q 20.015625 -1.171875 15.0625 1.40625  Q 10.109375 4 7.5 8.734375  Q 4.890625 13.484375 4.890625 19.671875  z M 13.71875 20.5625  Q 13.71875 13.234375 17.234375 9.453125  Q 20.75 5.671875 26.171875 5.671875  Q 29 5.671875 31.78125 6.8125  Q 34.578125 7.953125 36.96875 10.296875  Q 39.359375 12.640625 41.03125 15.640625  Q 42.71875 18.65625 43.75 22.125  Q 45.265625 26.953125 45.265625 31.390625  Q 45.265625 38.421875 41.71875 42.296875  Q 38.1875 46.1875 32.8125 46.1875  Q 28.65625 46.1875 25.234375 44.203125  Q 21.828125 42.234375 19.0625 38.421875  Q 16.3125 34.625 15.015625 29.5625  Q 13.71875 24.515625 13.71875 20.5625  z " id="13bb6a03"/>
      <path d="M 4.15625 17.71875  L 12.984375 18.265625  Q 12.984375 14.453125 14.15625 11.765625  Q 15.328125 9.078125 18.46875 7.375  Q 21.625 5.671875 25.828125 5.671875  Q 31.6875 5.671875 34.609375 8.015625  Q 37.546875 10.359375 37.546875 13.53125  Q 37.546875 15.828125 35.796875 17.875  Q 33.984375 19.921875 26.96875 22.921875  Q 19.96875 25.921875 18.015625 27.15625  Q 14.75 29.15625 13.078125 31.859375  Q 11.421875 34.578125 11.421875 38.09375  Q 11.421875 44.234375 16.296875 48.625  Q 21.1875 53.03125 29.984375 53.03125  Q 39.75 53.03125 44.84375 48.515625  Q 49.953125 44 50.140625 36.625  L 41.5 36.03125  Q 41.3125 40.71875 38.1875 43.453125  Q 35.0625 46.1875 29.34375 46.1875  Q 24.75 46.1875 22.203125 44.09375  Q 19.671875 42 19.671875 39.546875  Q 19.671875 37.109375 21.875 35.25  Q 23.34375 33.984375 29.4375 31.34375  Q 39.59375 26.953125 42.234375 24.421875  Q 46.4375 20.359375 46.4375 14.546875  Q 46.4375 10.6875 44.0625 6.96875  Q 41.703125 3.265625 36.84375 1.046875  Q 31.984375 -1.171875 25.390625 -1.171875  Q 16.40625 -1.171875 10.109375 3.265625  Q 3.8125 7.71875 4.15625 17.71875  z " id="62886feb"/>
      <path d="M 15.875 61.578125  L 17.96875 71.578125  L 26.765625 71.578125  L 24.65625 61.578125  z M 2.984375 0  L 13.8125 51.859375  L 22.65625 51.859375  L 11.8125 0  z " id="1d8fcc6c"/>
      <path d="M 23.96875 7.171875  L 22.515625 -0.046875  Q 19.34375 -0.875 16.359375 -0.875  Q 11.078125 -0.875 7.953125 1.703125  Q 5.609375 3.65625 5.609375 7.03125  Q 5.609375 8.734375 6.890625 14.890625  L 13.1875 45.015625  L 6.203125 45.015625  L 7.625 51.859375  L 14.59375 51.859375  L 17.28125 64.59375  L 27.390625 70.703125  L 23.4375 51.859375  L 32.125 51.859375  L 30.671875 45.015625  L 22.015625 45.015625  L 16.015625 16.359375  Q 14.890625 10.890625 14.890625 9.8125  Q 14.890625 8.25 15.796875 7.421875  Q 16.703125 6.59375 18.75 6.59375  Q 21.6875 6.59375 23.96875 7.171875  z " id="3dd824e0"/>
      <path d="M 3.328125 0  L 14.15625 51.859375  L 22.171875 51.859375  L 20.265625 42.828125  Q 25.484375 48.140625 30.03125 50.578125  Q 34.578125 53.03125 39.3125 53.03125  Q 45.609375 53.03125 49.1875 49.609375  Q 52.78125 46.1875 52.78125 40.484375  Q 52.78125 37.59375 51.515625 31.390625  L 44.921875 0  L 36.078125 0  L 42.96875 32.859375  Q 44 37.640625 44 39.9375  Q 44 42.53125 42.21875 44.140625  Q 40.4375 45.75 37.0625 45.75  Q 30.28125 45.75 24.96875 40.859375  Q 19.671875 35.984375 17.1875 24.125  L 12.15625 0  z " id="2a3e0bc0"/>
      <path id="0f6c1e7f"/>
      <path d="M 16.109375 -21.046875  Q 8.453125 -4.25 8.453125 13.484375  Q 8.453125 25.296875 11.546875 35.46875  Q 14.65625 45.65625 21 55.609375  Q 25.203125 62.25 34.421875 72.796875  L 41.3125 72.796875  Q 35.59375 66.703125 29.21875 55.609375  Q 22.859375 44.53125 19.96875 33.828125  Q 17.09375 23.140625 17.09375 12.359375  Q 17.09375 -3.765625 22.703125 -21.046875  z " id="df034426"/>
      <path d="M 39.109375 18.890625  L 47.953125 17.96875  Q 44.625 8.25 38.5 3.53125  Q 32.375 -1.171875 24.5625 -1.171875  Q 16.109375 -1.171875 10.859375 4.296875  Q 5.609375 9.765625 5.609375 19.578125  Q 5.609375 28.078125 8.984375 36.28125  Q 12.359375 44.484375 18.625 48.75  Q 24.90625 53.03125 32.953125 53.03125  Q 41.3125 53.03125 46.1875 48.3125  Q 51.078125 43.609375 51.078125 35.84375  L 42.390625 35.25  Q 42.328125 40.1875 39.515625 42.96875  Q 36.71875 45.75 32.125 45.75  Q 26.8125 45.75 22.90625 42.375  Q 19 39.015625 16.765625 32.15625  Q 14.546875 25.296875 14.546875 18.953125  Q 14.546875 12.3125 17.46875 8.984375  Q 20.40625 5.671875 24.703125 5.671875  Q 29 5.671875 32.921875 8.9375  Q 36.859375 12.203125 39.109375 18.890625  z " id="23b51186"/>
      <path d="M 3.265625 0  L 14.109375 51.859375  L 22.953125 51.859375  L 21.140625 43.3125  Q 26.078125 48.828125 29.953125 50.921875  Q 33.84375 53.03125 38.375 53.03125  Q 43.21875 53.03125 46.453125 50.46875  Q 49.703125 47.90625 50.734375 43.3125  Q 54.6875 48.1875 59.046875 50.609375  Q 63.421875 53.03125 68.265625 53.03125  Q 74.75 53.03125 78 49.953125  Q 81.25 46.875 81.25 41.3125  Q 81.25 38.921875 80.125 33.40625  L 73.140625 0  L 64.3125 0  L 71.4375 34.28125  Q 72.359375 38.484375 72.359375 40.28125  Q 72.359375 42.828125 70.75 44.28125  Q 69.140625 45.75 66.21875 45.75  Q 62.25 45.75 58.140625 43.359375  Q 54.046875 40.96875 51.78125 37.078125  Q 49.515625 33.203125 47.796875 25.140625  L 42.53125 0  L 33.6875 0  L 41.015625 35.015625  Q 41.796875 38.578125 41.796875 40.09375  Q 41.796875 42.625 40.203125 44.1875  Q 38.625 45.75 36.078125 45.75  Q 32.328125 45.75 28.203125 43.359375  Q 24.078125 40.96875 21.484375 36.6875  Q 18.890625 32.421875 17.234375 24.515625  L 12.109375 0  z " id="6d2f83d2"/>
      <path d="M 19.828125 72.796875  Q 27.546875 56 27.546875 38.328125  Q 27.546875 26.46875 24.4375 16.3125  Q 21.34375 6.15625 14.984375 -3.859375  Q 10.75 -10.5 1.5625 -21.046875  L -5.328125 -21.046875  Q 0.34375 -14.890625 6.734375 -3.796875  Q 13.140625 7.28125 15.984375 17.9375  Q 18.84375 28.609375 18.84375 39.453125  Q 18.84375 55.5625 13.234375 72.796875  z " id="1f71a0a0"/>
     </defs>
     <g style="fill:#262626;" transform="translate(14.1885 123.238836)rotate(-90)scale(0.096 -0.096)">
      <use xlink:href="#c7d2c498"/>
      <use x="66.699219" xlink:href="#13bb6a03"/>
      <use x="122.314453" xlink:href="#62886feb"/>
      <use x="172.314453" xlink:href="#1d8fcc6c"/>
      <use x="194.53125" xlink:href="#3dd824e0"/>
      <use x="222.314453" xlink:href="#1d8fcc6c"/>
      <use x="244.53125" xlink:href="#13bb6a03"/>
      <use x="300.146484" xlink:href="#2a3e0bc0"/>
      <use x="355.761719" xlink:href="#0f6c1e7f"/>
      <use x="383.544922" xlink:href="#df034426"/>
      <use x="416.845703" xlink:href="#23b51186"/>
      <use x="466.845703" xlink:href="#6d2f83d2"/>
      <use x="550.146484" xlink:href="#1f71a0a0"/>
     </g>
    </g>
   </g>
   <g id="PolyCollection_1"/>
   <g id="line2d_26">
    <path clip-path="url(#pf8cc655f09)" d="M 55.341648 97.102012  L 55.584683 96.252515  L 55.746707 95.939316  L 55.989742 95.414307  L 56.637837 94.684263  L 56.79986 94.5761  L 56.961884 94.470195  L 57.285931 94.366548  L 57.447955 94.313596  L 58.015038 94.051091  L 63.766877 94.048834  L 63.9289 94.153609  L 64.495983 94.15248  L 64.576995 94.256127  L 64.739019 94.203175  L 64.82003 94.150223  L 64.982054 94.25387  L 65.630149 94.357517  L 66.035208 94.785652  L 66.521279 94.889299  L 67.00735 95.628375  L 67.89848 98.269223  L 68.38455 101.120752  L 68.465562 101.331433  L 69.761751 110.867388  L 69.842763 110.867388  L 70.085799 113.51501  L 70.247822 114.470412  L 70.490858 116.436426  L 70.652881 117.23297  L 71.381988 122.95635  L 71.787047 125.551019  L 71.94907 126.345306  L 72.435141 128.571566  L 72.759189 129.421063  L 72.921212 130.691922  L 73.002224 130.691922  L 73.407283 131.856875  L 73.73133 132.49682  L 73.974366 132.604983  L 74.13639 132.922698  L 74.217401 132.922698  L 74.379425 133.136765  L 74.946508 133.139023  L 75.108531 133.030861  L 75.189543 133.136765  L 75.351567 133.030861  L 75.675614 133.139023  L 75.837638 133.136765  L 79.321146 133.139023  L 79.402158 133.353091  L 79.48317 133.300139  L 79.645193 133.353091  L 79.888229 133.137894  L 80.050252 133.244928  L 80.131264 133.191976  L 80.293288 133.353091  L 80.617335 133.244928  L 84.748938 133.350833  L 84.910961 133.45448  L 86.045127 133.394754  L 86.774233 133.027474  L 86.855245 133.028603  L 87.746375 130.362918  L 87.98941 129.142754  L 89.2856 121.240422  L 89.447623 119.968434  L 89.852682 116.795804  L 90.17673 114.247313  L 90.338753 113.19278  L 90.743812 109.274299  L 90.824824 109.010666  L 91.229883 105.991248  L 91.310895 105.991248  L 91.715954 103.447273  L 91.877978 103.023653  L 92.526072 99.53105  L 92.607084 99.372193  L 92.85012 98.366097  L 92.931131 98.366097  L 93.174167 97.419726  L 93.74125 95.835669  L 93.822261 95.782717  L 94.065297 95.306145  L 94.63238 94.67636  L 94.794403 94.624537  L 95.199462 94.048834  L 102.24749 94.147965  L 102.409514 94.252741  L 102.895585 94.249354  L 103.057609 94.355259  L 103.219632 94.461164  L 103.462668 94.622279  L 103.705703 94.573842  L 103.948739 94.682005  L 104.43481 95.309532  L 104.677845 96.045221  L 104.758857 96.045221  L 105.730999 100.907814  L 106.784152 108.007956  L 107.027188 110.020149  L 107.351235 112.775934  L 108.89046 124.125819  L 108.971471 124.338758  L 109.295519 126.557116  L 109.538554 127.618422  L 109.700578 128.467919  L 109.943613 129.418805  L 110.024625 129.525839  L 110.510696 131.009636  L 110.996767 132.073201  L 111.239802 132.442739  L 111.401826 132.70863  L 111.887897 133.189718  L 112.04992 133.24267  L 112.211944 133.136765  L 112.373968 133.244928  L 112.535991 133.137894  L 119.097949 133.136765  L 119.259972 133.136765  L 120.47515 133.235897  L 120.799197 133.339544  L 121.528303 133.233639  L 121.690327 133.13225  L 121.771339 133.13225  L 122.014374 132.59821  L 122.095386 132.59821  L 122.581457 131.16172  L 122.905504 129.407516  L 122.986516 129.407516  L 123.229551 127.81104  L 123.391575 127.174482  L 123.796634 125.263678  L 124.201693 122.507893  L 124.363717 121.978369  L 124.768776 117.958499  L 124.849788 117.958499  L 125.092823 115.732239  L 125.497882 112.080779  L 125.740918 109.592014  L 125.82193 109.592014  L 126.226989 106.520772  L 126.470024 104.932199  L 126.632048 104.294512  L 126.956095 102.60455  L 127.523178 99.479227  L 127.685201 99.001526  L 128.171272 97.255224  L 128.98139 95.459357  L 129.305438 94.785652  L 130.196568 94.314725  L 130.27758 94.366548  L 130.439603 94.258385  L 130.76365 94.15248  L 131.087698 94.048834  L 137.89269 94.15248  L 138.054714 94.256127  L 139.593939 94.353001  L 139.917986 94.675231  L 140.56608 94.777749  L 140.97114 95.409792  L 141.295187 96.362936  L 141.376199 96.415888  L 141.700246 97.523373  L 141.781258 97.682231  L 142.267329 99.95467  L 142.34834 100.16648  L 142.996435 103.924974  L 143.158459 104.614485  L 143.401494 106.737098  L 143.887565 109.803824  L 144.1306 111.50056  L 144.373636 114.145924  L 144.778695 116.267408  L 144.859707 116.480347  L 145.507801 121.259614  L 146.074884 124.335371  L 146.31792 126.288967  L 146.641967 127.08664  L 147.128038 129.949459  L 147.20905 130.054235  L 147.533097 131.007378  L 147.776132 131.433256  L 148.343215 132.70863  L 148.424227 132.70863  L 148.58625 132.922698  L 148.748274 133.030861  L 148.829286 132.924956  L 149.072321 133.136765  L 156.444397 133.238155  L 156.60642 133.344059  L 157.659574 133.235897  L 157.821598 133.026345  L 157.983621 132.918182  L 158.631716 132.377368  L 158.955763 131.527871  L 159.441834 129.986606  L 160.738023 121.662912  L 161.06207 119.01529  L 162.115224 110.333348  L 163.168378 102.920006  L 163.492425 101.43508  L 164.464567 97.307048  L 164.545579 97.201143  L 165.03165 95.72299  L 165.112661 95.617086  L 165.355697 94.990688  L 165.760756 94.571584  L 166.246827 94.470195  L 166.40885 94.366548  L 166.570874 94.260643  L 166.81391 94.051091  L 168.677181 93.945187  L 168.758193 93.839282  L 168.920217 93.945187  L 173.53789 94.046576  L 173.861938 94.15248  L 174.83408 94.25387  L 175.806221 94.838604  L 175.968245 95.103367  L 176.130269 95.414307  L 176.373304 95.835669  L 176.535328 96.045221  L 177.021399 98.363839  L 177.50747 100.431242  L 177.831517 102.602292  L 178.3986 105.575531  L 178.722647 108.544255  L 180.018836 119.410794  L 180.342883 122.000948  L 180.423895 122.26571  L 180.66693 123.752894  L 180.828954 124.544923  L 181.234013 127.088898  L 181.315025 127.088898  L 181.639072 128.470177  L 181.720084 128.576082  L 182.044131 130.111703  L 182.287167 130.69418  L 182.611214 131.753228  L 182.692226 131.80731  L 182.935261 132.233187  L 183.259309 132.710888  L 183.583356 132.819051  L 183.74538 133.033119  L 183.826391 132.870874  L 183.907403 132.924956  L 184.069427 133.139023  L 186.499781 133.244928  L 186.580793 133.353091  L 186.742817 133.244928  L 192.413644 133.134508  L 193.385786 133.019571  L 193.54781 132.913666  L 193.709833 132.807761  L 193.871857 132.699599  L 194.519951 131.737423  L 195.087034 130.090253  L 195.654117 127.388549  L 195.978164 125.691813  L 197.11233 117.640785  L 197.436377 114.833176  L 197.5984 113.93863  L 197.679412 113.567963  L 198.00346 110.231959  L 198.975601 103.18364  L 199.218637 102.071638  L 199.78572 99.53105  L 199.866731 99.319241  L 200.190779 97.841088  L 201.000897 95.937058  L 201.324944 95.407534  L 201.56798 94.889299  L 201.811015 94.783394  L 202.135062 94.469066  L 202.540121 94.366548  L 202.702145 94.156996  L 203.593275 94.048834  L 203.674287 93.942929  L 203.83631 94.048834  L 209.021067 94.15248  L 209.345114 94.25387  L 210.884339 94.357517  L 211.208386 94.677489  L 211.694457 94.679747  L 211.85648 94.891557  L 212.099516 94.996333  L 212.909634 97.311564  L 214.448859 105.889859  L 215.421 114.216939  L 215.502012 114.481701  L 215.907071 118.082467  L 215.988083 118.082467  L 216.31213 120.891205  L 216.555166 121.793654  L 216.798201 123.803589  L 217.365284 127.142979  L 217.527308 127.300708  L 217.770343 129.315158  L 217.851355 129.421063  L 218.013379 129.952845  L 218.337426 130.905989  L 218.661473 132.181364  L 219.471591 133.137894  L 219.957662 133.136765  L 220.119686 133.029732  L 220.200698 133.136765  L 220.362721 133.030861  L 220.686769 133.139023  L 220.76778 133.244928  L 220.929804 133.139023  L 228.949974 133.244928  L 229.19301 133.350833  L 229.355033 133.348575  L 229.922116 133.288849  L 230.327175 133.129992  L 230.408187 133.129992  L 230.57021 132.917053  L 231.218305 131.901925  L 231.623364 130.572469  L 231.704376 130.412483  L 232.271459 127.489938  L 232.35247 127.278129  L 232.595506 126.21908  L 232.919553 124.206887  L 233.2436 121.034257  L 233.324612 120.823576  L 233.729671 117.37828  L 233.972707 115.788578  L 234.215742 113.091391  L 234.296754 113.091391  L 234.620801 109.861292  L 234.701813 109.59653  L 235.02586 107.054813  L 235.268896 105.998022  L 235.43092 105.468497  L 235.754967 103.447273  L 235.835979 103.447273  L 235.998002 102.286835  L 236.079014 102.286835  L 236.403061 100.958508  L 236.646097 99.319241  L 236.970144 98.366097  L 237.051156 98.261321  L 237.375203 96.989333  L 238.347345 94.679747  L 238.59038 94.465679  L 238.914428 94.363161  L 239.157463 94.209949  L 239.562522 94.051091  L 244.747279 94.15248  L 244.990314 94.256127  L 245.152338 94.256127  L 246.205491 94.251612  L 246.367515 94.357517  L 246.448527 94.357517  L 246.61055 94.571584  L 246.853586 94.571584  L 247.01561 94.78791  L 247.420669 94.893815  L 247.663704 95.31066  L 247.90674 95.729764  L 248.473822 97.417469  L 248.716858 98.478775  L 249.445964 101.439596  L 249.689 102.815231  L 249.851023 103.668114  L 249.932035 103.668114  L 250.256082 106.53432  L 250.337094 106.53432  L 250.661141 109.446704  L 251.228224 114.378055  L 251.309236 114.378055  L 252.605425 124.443534  L 253.820602 130.218737  L 253.901614 130.27056  L 254.14465 131.117799  L 254.792744 132.602725  L 254.954768 132.70863  L 255.116791 132.816793  L 255.278815 132.924956  L 255.359827 132.924956  L 255.440839 132.712017  L 255.602862 133.030861  L 255.764886 133.136765  L 258.6003 133.244928  L 258.762323 133.350833  L 258.843335 133.244928  L 258.924347 133.350833  L 259.08637 133.24267  L 259.815477 133.24267  L 259.896489 133.136765  L 260.058512 133.350833  L 260.220536 133.244928  L 266.377434 133.350833  L 266.62047 133.564901  L 266.782493 133.456738  L 267.430588 133.456738  L 267.592611 133.350833  L 268.807789 133.348575  L 268.969812 133.452222  L 269.131836 133.344059  L 269.860942 133.238155  L 270.022966 133.133379  L 270.18499 133.026345  L 270.347013 132.92044  L 270.914096 131.642808  L 270.995108 131.642808  L 271.481179 130.047461  L 272.615344 125.475488  L 272.939391 123.299922  L 273.101415 122.507893  L 273.425462 119.441168  L 273.506474 119.441168  L 273.911533 115.41904  L 273.992545 115.41904  L 274.397604 111.505075  L 274.478616 111.505075  L 274.802663 110.498979  L 274.883675 110.340122  L 275.53177 107.372527  L 275.612781 107.372527  L 276.179864 105.035846  L 276.260876 105.035846  L 276.90897 102.18093  L 277.233018 101.492549  L 277.638077 99.217852  L 278.043136 98.260192  L 278.286171 97.311564  L 278.853254 95.828895  L 279.177301 95.299371  L 279.501349 94.73157  L 280.392479 94.258385  L 280.635514 94.154738  L 280.797538 94.048834  L 283.713963 93.942929  L 283.794975 93.837024  L 283.956999 93.942929  L 284.119022 93.837024  L 288.49366 93.940671  L 288.655684 94.044318  L 290.113897 94.145707  L 290.437944 94.393571  L 290.761991 94.677489  L 290.924015 94.572713  L 291.086039 94.682005  L 291.329074 94.78791  L 291.653121 95.051543  L 292.05818 96.045221  L 292.706275 97.944735  L 293.759429 103.659083  L 294.083476 106.631193  L 294.164488 106.895955  L 294.650559 110.871904  L 295.055618 113.521784  L 295.460677 117.023419  L 295.703712 118.084725  L 295.784724 118.084725  L 296.02776 120.734605  L 296.108771 120.998238  L 296.270795 122.749056  L 296.351807 123.013818  L 296.594842 124.547181  L 296.756866 124.973058  L 297.080913 127.08664  L 297.647996 129.635131  L 297.729008 129.793988  L 297.972043 130.802342  L 298.377102 131.647323  L 298.377102 131.647323  " style="fill:none;stroke:#19d3f3;stroke-linecap:round;stroke-width:1.5;"/>
   </g>
   <g id="line2d_27"/>
   <g id="patch_3">
    <path d="M 43.189875 137.397932  L 43.189875 53.071239  " style="fill:none;stroke:#ffffff;stroke-linecap:square;stroke-linejoin:miter;"/>
   </g>
   <g id="patch_4">
    <path d="M 43.189875 137.397932  L 310.528875 137.397932  " style="fill:none;stroke:#ffffff;stroke-linecap:square;stroke-linejoin:miter;"/>
   </g>
   <g id="text_5">
    <!-- Animal: m22 -->
    <defs>
     <path d="M -0.140625 0  L 27.34375 71.578125  L 37.546875 71.578125  L 66.84375 0  L 56.0625 0  L 47.703125 21.6875  L 17.78125 21.6875  L 9.90625 0  z M 20.515625 29.390625  L 44.78125 29.390625  L 37.3125 49.21875  Q 33.890625 58.25 32.234375 64.0625  Q 30.859375 57.171875 28.375 50.390625  z " id="95a81be8"/>
     <path d="M 6.59375 0  L 6.59375 51.859375  L 14.5 51.859375  L 14.5 44.484375  Q 20.21875 53.03125 31 53.03125  Q 35.6875 53.03125 39.625 51.34375  Q 43.5625 49.65625 45.515625 46.921875  Q 47.46875 44.1875 48.25 40.4375  Q 48.734375 37.984375 48.734375 31.890625  L 48.734375 0  L 39.9375 0  L 39.9375 31.546875  Q 39.9375 36.921875 38.90625 39.578125  Q 37.890625 42.234375 35.28125 43.8125  Q 32.671875 45.40625 29.15625 45.40625  Q 23.53125 45.40625 19.453125 41.84375  Q 15.375 38.28125 15.375 28.328125  L 15.375 0  z " id="132bf14a"/>
     <path d="M 6.640625 61.46875  L 6.640625 71.578125  L 15.4375 71.578125  L 15.4375 61.46875  z M 6.640625 0  L 6.640625 51.859375  L 15.4375 51.859375  L 15.4375 0  z " id="e03c6763"/>
     <path d="M 6.59375 0  L 6.59375 51.859375  L 14.453125 51.859375  L 14.453125 44.578125  Q 16.890625 48.390625 20.9375 50.703125  Q 25 53.03125 30.171875 53.03125  Q 35.9375 53.03125 39.625 50.640625  Q 43.3125 48.25 44.828125 43.953125  Q 50.984375 53.03125 60.84375 53.03125  Q 68.5625 53.03125 72.703125 48.75  Q 76.859375 44.484375 76.859375 35.59375  L 76.859375 0  L 68.109375 0  L 68.109375 32.671875  Q 68.109375 37.9375 67.25 40.25  Q 66.40625 42.578125 64.15625 43.984375  Q 61.921875 45.40625 58.890625 45.40625  Q 53.421875 45.40625 49.796875 41.765625  Q 46.1875 38.140625 46.1875 30.125  L 46.1875 0  L 37.40625 0  L 37.40625 33.6875  Q 37.40625 39.546875 35.25 42.46875  Q 33.109375 45.40625 28.21875 45.40625  Q 24.515625 45.40625 21.359375 43.453125  Q 18.21875 41.5 16.796875 37.734375  Q 15.375 33.984375 15.375 26.90625  L 15.375 0  z " id="d932065d"/>
     <path d="M 40.4375 6.390625  Q 35.546875 2.25 31.03125 0.53125  Q 26.515625 -1.171875 21.34375 -1.171875  Q 12.796875 -1.171875 8.203125 3  Q 3.609375 7.171875 3.609375 13.671875  Q 3.609375 17.484375 5.34375 20.625  Q 7.078125 23.78125 9.890625 25.6875  Q 12.703125 27.59375 16.21875 28.5625  Q 18.796875 29.25 24.03125 29.890625  Q 34.671875 31.15625 39.703125 32.90625  Q 39.75 34.71875 39.75 35.203125  Q 39.75 40.578125 37.25 42.78125  Q 33.890625 45.75 27.25 45.75  Q 21.046875 45.75 18.09375 43.578125  Q 15.140625 41.40625 13.71875 35.890625  L 5.125 37.0625  Q 6.296875 42.578125 8.984375 45.96875  Q 11.671875 49.359375 16.75 51.1875  Q 21.828125 53.03125 28.515625 53.03125  Q 35.15625 53.03125 39.296875 51.46875  Q 43.453125 49.90625 45.40625 47.53125  Q 47.359375 45.171875 48.140625 41.546875  Q 48.578125 39.3125 48.578125 33.453125  L 48.578125 21.734375  Q 48.578125 9.46875 49.140625 6.21875  Q 49.703125 2.984375 51.375 0  L 42.1875 0  Q 40.828125 2.734375 40.4375 6.390625  z M 39.703125 26.03125  Q 34.90625 24.078125 25.34375 22.703125  Q 19.921875 21.921875 17.671875 20.9375  Q 15.4375 19.96875 14.203125 18.09375  Q 12.984375 16.21875 12.984375 13.921875  Q 12.984375 10.40625 15.640625 8.0625  Q 18.3125 5.71875 23.4375 5.71875  Q 28.515625 5.71875 32.46875 7.9375  Q 36.421875 10.15625 38.28125 14.015625  Q 39.703125 17 39.703125 22.796875  z " id="903babe4"/>
     <path d="M 6.390625 0  L 6.390625 71.578125  L 15.1875 71.578125  L 15.1875 0  z " id="65eb17cc"/>
     <path d="M 9.03125 41.84375  L 9.03125 51.859375  L 19.046875 51.859375  L 19.046875 41.84375  z M 9.03125 0  L 9.03125 10.015625  L 19.046875 10.015625  L 19.046875 0  z " id="c824937e"/>
     <path id="502821fc"/>
    </defs>
    <g style="fill:#262626;" transform="translate(150.184125 47.071239)scale(0.096 -0.096)">
     <use xlink:href="#95a81be8"/>
     <use x="66.699219" xlink:href="#132bf14a"/>
     <use x="122.314453" xlink:href="#e03c6763"/>
     <use x="144.53125" xlink:href="#d932065d"/>
     <use x="227.832031" xlink:href="#903babe4"/>
     <use x="283.447266" xlink:href="#65eb17cc"/>
     <use x="305.664062" xlink:href="#c824937e"/>
     <use x="333.447266" xlink:href="#502821fc"/>
     <use x="361.230469" xlink:href="#d932065d"/>
     <use x="444.53125" xlink:href="#3819eb89"/>
     <use x="500.146484" xlink:href="#3819eb89"/>
    </g>
   </g>
   <g id="legend_1">
    <g id="patch_5">
     <path d="M 76.083775 31.8059  L 277.634975 31.8059  Q 279.394975 31.8059 279.394975 30.0459  L 279.394975 8.96  Q 279.394975 7.2 277.634975 7.2  L 76.083775 7.2  Q 74.323775 7.2 74.323775 8.96  L 74.323775 30.0459  Q 74.323775 31.8059 76.083775 31.8059  z " style="fill:#eaeaf2;opacity:0.8;stroke:#cccccc;stroke-linejoin:miter;stroke-width:0.8;"/>
    </g>
    <g id="line2d_28">
     <path d="M 77.843775 19.572387  L 95.443775 19.572387  " style="fill:none;stroke:#19d3f3;stroke-linecap:round;stroke-width:1.2;"/>
    </g>
    <g id="line2d_29"/>
    <g id="text_6">
     <!-- Dual-channel -->
     <defs>
      <path d="M 7.71875 0  L 7.71875 71.578125  L 32.375 71.578125  Q 40.71875 71.578125 45.125 70.5625  Q 51.265625 69.140625 55.609375 65.4375  Q 61.28125 60.640625 64.078125 53.1875  Q 66.890625 45.75 66.890625 36.1875  Q 66.890625 28.03125 64.984375 21.734375  Q 63.09375 15.4375 60.109375 11.296875  Q 57.125 7.171875 53.578125 4.796875  Q 50.046875 2.4375 45.046875 1.21875  Q 40.046875 0 33.546875 0  z M 17.1875 8.453125  L 32.46875 8.453125  Q 39.546875 8.453125 43.578125 9.765625  Q 47.609375 11.078125 50 13.484375  Q 53.375 16.84375 55.25 22.53125  Q 57.125 28.21875 57.125 36.328125  Q 57.125 47.5625 53.4375 53.59375  Q 49.75 59.625 44.484375 61.671875  Q 40.671875 63.140625 32.234375 63.140625  L 17.1875 63.140625  z " id="3834f0c7"/>
      <path d="M 40.578125 0  L 40.578125 7.625  Q 34.515625 -1.171875 24.125 -1.171875  Q 19.53125 -1.171875 15.546875 0.578125  Q 11.578125 2.34375 9.640625 5  Q 7.71875 7.671875 6.9375 11.53125  Q 6.390625 14.109375 6.390625 19.734375  L 6.390625 51.859375  L 15.1875 51.859375  L 15.1875 23.09375  Q 15.1875 16.21875 15.71875 13.8125  Q 16.546875 10.359375 19.234375 8.375  Q 21.921875 6.390625 25.875 6.390625  Q 29.828125 6.390625 33.296875 8.421875  Q 36.765625 10.453125 38.203125 13.9375  Q 39.65625 17.4375 39.65625 24.078125  L 39.65625 51.859375  L 48.4375 51.859375  L 48.4375 0  z " id="5b67c12c"/>
      <path d="M 3.171875 21.484375  L 3.171875 30.328125  L 30.171875 30.328125  L 30.171875 21.484375  z " id="dc9d88aa"/>
      <path d="M 40.4375 19  L 49.078125 17.875  Q 47.65625 8.9375 41.8125 3.875  Q 35.984375 -1.171875 27.484375 -1.171875  Q 16.84375 -1.171875 10.375 5.78125  Q 3.90625 12.75 3.90625 25.734375  Q 3.90625 34.125 6.6875 40.421875  Q 9.46875 46.734375 15.15625 49.875  Q 20.84375 53.03125 27.546875 53.03125  Q 35.984375 53.03125 41.359375 48.75  Q 46.734375 44.484375 48.25 36.625  L 39.703125 35.296875  Q 38.484375 40.53125 35.375 43.15625  Q 32.28125 45.796875 27.875 45.796875  Q 21.234375 45.796875 17.078125 41.03125  Q 12.9375 36.28125 12.9375 25.984375  Q 12.9375 15.53125 16.9375 10.796875  Q 20.953125 6.0625 27.390625 6.0625  Q 32.5625 6.0625 36.03125 9.234375  Q 39.5 12.40625 40.4375 19  z " id="d4098073"/>
      <path d="M 6.59375 0  L 6.59375 71.578125  L 15.375 71.578125  L 15.375 45.90625  Q 21.53125 53.03125 30.90625 53.03125  Q 36.671875 53.03125 40.921875 50.75  Q 45.171875 48.484375 47 44.484375  Q 48.828125 40.484375 48.828125 32.859375  L 48.828125 0  L 40.046875 0  L 40.046875 32.859375  Q 40.046875 39.453125 37.1875 42.453125  Q 34.328125 45.453125 29.109375 45.453125  Q 25.203125 45.453125 21.75 43.421875  Q 18.3125 41.40625 16.84375 37.9375  Q 15.375 34.46875 15.375 28.375  L 15.375 0  z " id="9b4875e6"/>
      <path d="M 42.09375 16.703125  L 51.171875 15.578125  Q 49.03125 7.625 43.21875 3.21875  Q 37.40625 -1.171875 28.375 -1.171875  Q 17 -1.171875 10.328125 5.828125  Q 3.65625 12.84375 3.65625 25.484375  Q 3.65625 38.578125 10.390625 45.796875  Q 17.140625 53.03125 27.875 53.03125  Q 38.28125 53.03125 44.875 45.953125  Q 51.46875 38.875 51.46875 26.03125  Q 51.46875 25.25 51.421875 23.6875  L 12.75 23.6875  Q 13.234375 15.140625 17.578125 10.59375  Q 21.921875 6.0625 28.421875 6.0625  Q 33.25 6.0625 36.671875 8.59375  Q 40.09375 11.140625 42.09375 16.703125  z M 13.234375 30.90625  L 42.1875 30.90625  Q 41.609375 37.453125 38.875 40.71875  Q 34.671875 45.796875 27.984375 45.796875  Q 21.921875 45.796875 17.796875 41.75  Q 13.671875 37.703125 13.234375 30.90625  z " id="3c0c0681"/>
     </defs>
     <g style="fill:#262626;" transform="translate(102.483775 17.124062)scale(0.088 -0.088)">
      <use xlink:href="#3834f0c7"/>
      <use x="72.216797" xlink:href="#5b67c12c"/>
      <use x="127.832031" xlink:href="#903babe4"/>
      <use x="183.447266" xlink:href="#65eb17cc"/>
      <use x="205.664062" xlink:href="#dc9d88aa"/>
      <use x="238.964844" xlink:href="#d4098073"/>
      <use x="288.964844" xlink:href="#9b4875e6"/>
      <use x="344.580078" xlink:href="#903babe4"/>
      <use x="400.195312" xlink:href="#132bf14a"/>
      <use x="455.810547" xlink:href="#132bf14a"/>
      <use x="511.425781" xlink:href="#3c0c0681"/>
      <use x="567.041016" xlink:href="#65eb17cc"/>
     </g>
     <!-- Miniscope -->
     <defs>
      <path d="M 7.421875 0  L 7.421875 71.578125  L 21.6875 71.578125  L 38.625 20.90625  Q 40.96875 13.8125 42.046875 10.296875  Q 43.265625 14.203125 45.84375 21.78125  L 62.984375 71.578125  L 75.734375 71.578125  L 75.734375 0  L 66.609375 0  L 66.609375 59.90625  L 45.796875 0  L 37.25 0  L 16.546875 60.9375  L 16.546875 0  z " id="2d841b29"/>
      <path d="M 3.078125 15.484375  L 11.765625 16.84375  Q 12.5 11.625 15.84375 8.84375  Q 19.1875 6.0625 25.203125 6.0625  Q 31.25 6.0625 34.171875 8.515625  Q 37.109375 10.984375 37.109375 14.3125  Q 37.109375 17.28125 34.515625 19  Q 32.71875 20.171875 25.53125 21.96875  Q 15.875 24.421875 12.140625 26.203125  Q 8.40625 27.984375 6.46875 31.125  Q 4.546875 34.28125 4.546875 38.09375  Q 4.546875 41.546875 6.125 44.5  Q 7.71875 47.46875 10.453125 49.421875  Q 12.5 50.921875 16.03125 51.96875  Q 19.578125 53.03125 23.640625 53.03125  Q 29.734375 53.03125 34.34375 51.265625  Q 38.96875 49.515625 41.15625 46.5  Q 43.359375 43.5 44.1875 38.484375  L 35.59375 37.3125  Q 35.015625 41.3125 32.203125 43.546875  Q 29.390625 45.796875 24.265625 45.796875  Q 18.21875 45.796875 15.625 43.796875  Q 13.03125 41.796875 13.03125 39.109375  Q 13.03125 37.40625 14.109375 36.03125  Q 15.1875 34.625 17.484375 33.6875  Q 18.796875 33.203125 25.25 31.453125  Q 34.578125 28.953125 38.25 27.359375  Q 41.9375 25.78125 44.03125 22.75  Q 46.140625 19.734375 46.140625 15.234375  Q 46.140625 10.84375 43.578125 6.953125  Q 41.015625 3.078125 36.171875 0.953125  Q 31.34375 -1.171875 25.25 -1.171875  Q 15.140625 -1.171875 9.84375 3.03125  Q 4.546875 7.234375 3.078125 15.484375  z " id="b99354d9"/>
      <path d="M 3.328125 25.921875  Q 3.328125 40.328125 11.328125 47.265625  Q 18.015625 53.03125 27.640625 53.03125  Q 38.328125 53.03125 45.109375 46.015625  Q 51.90625 39.015625 51.90625 26.65625  Q 51.90625 16.65625 48.90625 10.90625  Q 45.90625 5.171875 40.15625 2  Q 34.421875 -1.171875 27.640625 -1.171875  Q 16.75 -1.171875 10.03125 5.8125  Q 3.328125 12.796875 3.328125 25.921875  z M 12.359375 25.921875  Q 12.359375 15.96875 16.703125 11.015625  Q 21.046875 6.0625 27.640625 6.0625  Q 34.1875 6.0625 38.53125 11.03125  Q 42.875 16.015625 42.875 26.21875  Q 42.875 35.84375 38.5 40.796875  Q 34.125 45.75 27.640625 45.75  Q 21.046875 45.75 16.703125 40.8125  Q 12.359375 35.890625 12.359375 25.921875  z " id="ec02be46"/>
      <path d="M 6.59375 -19.875  L 6.59375 51.859375  L 14.59375 51.859375  L 14.59375 45.125  Q 17.4375 49.078125 21 51.046875  Q 24.5625 53.03125 29.640625 53.03125  Q 36.28125 53.03125 41.359375 49.609375  Q 46.4375 46.1875 49.015625 39.953125  Q 51.609375 33.734375 51.609375 26.3125  Q 51.609375 18.359375 48.75 11.984375  Q 45.90625 5.609375 40.453125 2.21875  Q 35.015625 -1.171875 29 -1.171875  Q 24.609375 -1.171875 21.109375 0.6875  Q 17.625 2.546875 15.375 5.375  L 15.375 -19.875  z M 14.546875 25.640625  Q 14.546875 15.625 18.59375 10.84375  Q 22.65625 6.0625 28.421875 6.0625  Q 34.28125 6.0625 38.453125 11.015625  Q 42.625 15.96875 42.625 26.375  Q 42.625 36.28125 38.546875 41.203125  Q 34.46875 46.140625 28.8125 46.140625  Q 23.1875 46.140625 18.859375 40.890625  Q 14.546875 35.640625 14.546875 25.640625  z " id="b302ac01"/>
     </defs>
     <g style="fill:#262626;" transform="translate(102.483775 26.431712)scale(0.088 -0.088)">
      <use xlink:href="#2d841b29"/>
      <use x="83.300781" xlink:href="#e03c6763"/>
      <use x="105.517578" xlink:href="#132bf14a"/>
      <use x="161.132812" xlink:href="#e03c6763"/>
      <use x="183.349609" xlink:href="#b99354d9"/>
      <use x="233.349609" xlink:href="#d4098073"/>
      <use x="283.349609" xlink:href="#ec02be46"/>
      <use x="338.964844" xlink:href="#b302ac01"/>
      <use x="394.580078" xlink:href="#3c0c0681"/>
     </g>
    </g>
    <g id="line2d_30">
     <path d="M 193.020225 19.572387  L 210.620225 19.572387  " style="fill:none;stroke:#ff97ff;stroke-linecap:round;stroke-width:1.2;"/>
    </g>
    <g id="line2d_31"/>
    <g id="text_7">
     <!-- Single-channel -->
     <defs>
      <path d="M 4.5 23  L 13.421875 23.78125  Q 14.0625 18.40625 16.375 14.96875  Q 18.703125 11.53125 23.578125 9.40625  Q 28.46875 7.28125 34.578125 7.28125  Q 39.984375 7.28125 44.140625 8.890625  Q 48.296875 10.5 50.3125 13.296875  Q 52.34375 16.109375 52.34375 19.4375  Q 52.34375 22.796875 50.390625 25.3125  Q 48.4375 27.828125 43.953125 29.546875  Q 41.0625 30.671875 31.203125 33.03125  Q 21.34375 35.40625 17.390625 37.5  Q 12.25 40.1875 9.734375 44.15625  Q 7.234375 48.140625 7.234375 53.078125  Q 7.234375 58.5 10.296875 63.203125  Q 13.375 67.921875 19.28125 70.359375  Q 25.203125 72.796875 32.421875 72.796875  Q 40.375 72.796875 46.453125 70.234375  Q 52.546875 67.671875 55.8125 62.6875  Q 59.078125 57.71875 59.328125 51.421875  L 50.25 50.734375  Q 49.515625 57.515625 45.28125 60.984375  Q 41.0625 64.453125 32.8125 64.453125  Q 24.21875 64.453125 20.28125 61.296875  Q 16.359375 58.15625 16.359375 53.71875  Q 16.359375 49.859375 19.140625 47.359375  Q 21.875 44.875 33.421875 42.265625  Q 44.96875 39.65625 49.265625 37.703125  Q 55.515625 34.8125 58.484375 30.390625  Q 61.46875 25.984375 61.46875 20.21875  Q 61.46875 14.5 58.203125 9.4375  Q 54.9375 4.390625 48.796875 1.578125  Q 42.671875 -1.21875 35.015625 -1.21875  Q 25.296875 -1.21875 18.71875 1.609375  Q 12.15625 4.4375 8.421875 10.125  Q 4.6875 15.828125 4.5 23  z " id="e8451cdc"/>
      <path d="M 4.984375 -4.296875  L 13.53125 -5.5625  Q 14.0625 -9.515625 16.5 -11.328125  Q 19.78125 -13.765625 25.4375 -13.765625  Q 31.546875 -13.765625 34.859375 -11.328125  Q 38.1875 -8.890625 39.359375 -4.5  Q 40.046875 -1.8125 39.984375 6.78125  Q 34.234375 0 25.640625 0  Q 14.9375 0 9.078125 7.71875  Q 3.21875 15.4375 3.21875 26.21875  Q 3.21875 33.640625 5.90625 39.90625  Q 8.59375 46.1875 13.6875 49.609375  Q 18.796875 53.03125 25.6875 53.03125  Q 34.859375 53.03125 40.828125 45.609375  L 40.828125 51.859375  L 48.921875 51.859375  L 48.921875 7.03125  Q 48.921875 -5.078125 46.453125 -10.125  Q 44 -15.1875 38.640625 -18.109375  Q 33.296875 -21.046875 25.484375 -21.046875  Q 16.21875 -21.046875 10.5 -16.875  Q 4.78125 -12.703125 4.984375 -4.296875  z M 12.25 26.859375  Q 12.25 16.65625 16.296875 11.96875  Q 20.359375 7.28125 26.46875 7.28125  Q 32.515625 7.28125 36.609375 11.9375  Q 40.71875 16.609375 40.71875 26.5625  Q 40.71875 36.078125 36.5 40.90625  Q 32.28125 45.75 26.3125 45.75  Q 20.453125 45.75 16.34375 40.984375  Q 12.25 36.234375 12.25 26.859375  z " id="22a46feb"/>
     </defs>
     <g style="fill:#262626;" transform="translate(217.660225 17.126125)scale(0.088 -0.088)">
      <use xlink:href="#e8451cdc"/>
      <use x="66.699219" xlink:href="#e03c6763"/>
      <use x="88.916016" xlink:href="#132bf14a"/>
      <use x="144.53125" xlink:href="#22a46feb"/>
      <use x="200.146484" xlink:href="#65eb17cc"/>
      <use x="222.363281" xlink:href="#3c0c0681"/>
      <use x="277.978516" xlink:href="#dc9d88aa"/>
      <use x="311.279297" xlink:href="#d4098073"/>
      <use x="361.279297" xlink:href="#9b4875e6"/>
      <use x="416.894531" xlink:href="#903babe4"/>
      <use x="472.509766" xlink:href="#132bf14a"/>
      <use x="528.125" xlink:href="#132bf14a"/>
      <use x="583.740234" xlink:href="#3c0c0681"/>
      <use x="639.355469" xlink:href="#65eb17cc"/>
     </g>
     <!-- Miniscope -->
     <g style="fill:#262626;" transform="translate(217.660225 26.5369)scale(0.088 -0.088)">
      <use xlink:href="#2d841b29"/>
      <use x="83.300781" xlink:href="#e03c6763"/>
      <use x="105.517578" xlink:href="#132bf14a"/>
      <use x="161.132812" xlink:href="#e03c6763"/>
      <use x="183.349609" xlink:href="#b99354d9"/>
      <use x="233.349609" xlink:href="#d4098073"/>
      <use x="283.349609" xlink:href="#ec02be46"/>
      <use x="338.964844" xlink:href="#b302ac01"/>
      <use x="394.580078" xlink:href="#3c0c0681"/>
     </g>
    </g>
   </g>
  </g>
  <g id="axes_2">
   <g id="patch_6">
    <path d="M 43.189875 248.235239  L 310.528875 248.235239  L 310.528875 163.908545  L 43.189875 163.908545  z " style="fill:#eaeaf2;"/>
   </g>
   <g id="matplotlib.axis_3">
    <g id="xtick_23">
     <g id="line2d_32">
      <path clip-path="url(#p1a104c902b)" d="M 55.341648 248.235239  L 55.341648 163.908545  " style="fill:none;stroke:#ffffff;stroke-linecap:round;stroke-width:0.8;"/>
     </g>
     <g id="text_8">
      <!-- 0 -->
      <g style="fill:#262626;" transform="translate(52.894835 262.834114)scale(0.088 -0.088)">
       <use xlink:href="#1dbd8266"/>
      </g>
     </g>
    </g>
    <g id="xtick_24">
     <g id="line2d_33">
      <path clip-path="url(#p1a104c902b)" d="M 103.948739 248.235239  L 103.948739 163.908545  " style="fill:none;stroke:#ffffff;stroke-linecap:round;stroke-width:0.8;"/>
     </g>
     <g id="text_9">
      <!-- 20 -->
      <g style="fill:#262626;" transform="translate(99.055114 262.834114)scale(0.088 -0.088)">
       <use xlink:href="#3819eb89"/>
       <use x="55.615234" xlink:href="#1dbd8266"/>
      </g>
     </g>
    </g>
    <g id="xtick_25">
     <g id="line2d_34">
      <path clip-path="url(#p1a104c902b)" d="M 152.55583 248.235239  L 152.55583 163.908545  " style="fill:none;stroke:#ffffff;stroke-linecap:round;stroke-width:0.8;"/>
     </g>
     <g id="text_10">
      <!-- 40 -->
      <defs>
       <path d="M 32.328125 0  L 32.328125 17.140625  L 1.265625 17.140625  L 1.265625 25.203125  L 33.9375 71.578125  L 41.109375 71.578125  L 41.109375 25.203125  L 50.78125 25.203125  L 50.78125 17.140625  L 41.109375 17.140625  L 41.109375 0  z M 32.328125 25.203125  L 32.328125 57.46875  L 9.90625 25.203125  z " id="741eb511"/>
      </defs>
      <g style="fill:#262626;" transform="translate(147.662205 262.834114)scale(0.088 -0.088)">
       <use xlink:href="#741eb511"/>
       <use x="55.615234" xlink:href="#1dbd8266"/>
      </g>
     </g>
    </g>
    <g id="xtick_26">
     <g id="line2d_35">
      <path clip-path="url(#p1a104c902b)" d="M 201.16292 248.235239  L 201.16292 163.908545  " style="fill:none;stroke:#ffffff;stroke-linecap:round;stroke-width:0.8;"/>
     </g>
     <g id="text_11">
      <!-- 60 -->
      <defs>
       <path d="M 49.75 54.046875  L 41.015625 53.375  Q 39.84375 58.546875 37.703125 60.890625  Q 34.125 64.65625 28.90625 64.65625  Q 24.703125 64.65625 21.53125 62.3125  Q 17.390625 59.28125 14.984375 53.46875  Q 12.59375 47.65625 12.5 36.921875  Q 15.671875 41.75 20.265625 44.09375  Q 24.859375 46.4375 29.890625 46.4375  Q 38.671875 46.4375 44.84375 39.96875  Q 51.03125 33.5 51.03125 23.25  Q 51.03125 16.5 48.125 10.71875  Q 45.21875 4.9375 40.140625 1.859375  Q 35.0625 -1.21875 28.609375 -1.21875  Q 17.625 -1.21875 10.6875 6.859375  Q 3.765625 14.9375 3.765625 33.5  Q 3.765625 54.25 11.421875 63.671875  Q 18.109375 71.875 29.4375 71.875  Q 37.890625 71.875 43.28125 67.140625  Q 48.6875 62.40625 49.75 54.046875  z M 13.875 23.1875  Q 13.875 18.65625 15.796875 14.5  Q 17.71875 10.359375 21.1875 8.171875  Q 24.65625 6 28.46875 6  Q 34.03125 6 38.03125 10.484375  Q 42.046875 14.984375 42.046875 22.703125  Q 42.046875 30.125 38.078125 34.390625  Q 34.125 38.671875 28.125 38.671875  Q 22.171875 38.671875 18.015625 34.390625  Q 13.875 30.125 13.875 23.1875  z " id="9369f874"/>
      </defs>
      <g style="fill:#262626;" transform="translate(196.269295 262.834114)scale(0.088 -0.088)">
       <use xlink:href="#9369f874"/>
       <use x="55.615234" xlink:href="#1dbd8266"/>
      </g>
     </g>
    </g>
    <g id="xtick_27">
     <g id="line2d_36">
      <path clip-path="url(#p1a104c902b)" d="M 249.770011 248.235239  L 249.770011 163.908545  " style="fill:none;stroke:#ffffff;stroke-linecap:round;stroke-width:0.8;"/>
     </g>
     <g id="text_12">
      <!-- 80 -->
      <defs>
       <path d="M 17.671875 38.8125  Q 12.203125 40.828125 9.5625 44.53125  Q 6.9375 48.25 6.9375 53.421875  Q 6.9375 61.234375 12.546875 66.546875  Q 18.171875 71.875 27.484375 71.875  Q 36.859375 71.875 42.578125 66.421875  Q 48.296875 60.984375 48.296875 53.171875  Q 48.296875 48.1875 45.671875 44.5  Q 43.0625 40.828125 37.75 38.8125  Q 44.34375 36.671875 47.78125 31.875  Q 51.21875 27.09375 51.21875 20.453125  Q 51.21875 11.28125 44.71875 5.03125  Q 38.234375 -1.21875 27.640625 -1.21875  Q 17.046875 -1.21875 10.546875 5.046875  Q 4.046875 11.328125 4.046875 20.703125  Q 4.046875 27.6875 7.59375 32.390625  Q 11.140625 37.109375 17.671875 38.8125  z M 15.921875 53.71875  Q 15.921875 48.640625 19.1875 45.40625  Q 22.46875 42.1875 27.6875 42.1875  Q 32.765625 42.1875 36.015625 45.375  Q 39.265625 48.578125 39.265625 53.21875  Q 39.265625 58.0625 35.90625 61.359375  Q 32.5625 64.65625 27.59375 64.65625  Q 22.5625 64.65625 19.234375 61.421875  Q 15.921875 58.203125 15.921875 53.71875  z M 13.09375 20.65625  Q 13.09375 16.890625 14.875 13.375  Q 16.65625 9.859375 20.171875 7.921875  Q 23.6875 6 27.734375 6  Q 34.03125 6 38.125 10.046875  Q 42.234375 14.109375 42.234375 20.359375  Q 42.234375 26.703125 38.015625 30.859375  Q 33.796875 35.015625 27.4375 35.015625  Q 21.234375 35.015625 17.15625 30.90625  Q 13.09375 26.8125 13.09375 20.65625  z " id="ecf23257"/>
      </defs>
      <g style="fill:#262626;" transform="translate(244.876386 262.834114)scale(0.088 -0.088)">
       <use xlink:href="#ecf23257"/>
       <use x="55.615234" xlink:href="#1dbd8266"/>
      </g>
     </g>
    </g>
    <g id="xtick_28">
     <g id="line2d_37">
      <path clip-path="url(#p1a104c902b)" d="M 298.377102 248.235239  L 298.377102 163.908545  " style="fill:none;stroke:#ffffff;stroke-linecap:round;stroke-width:0.8;"/>
     </g>
     <g id="text_13">
      <!-- 100 -->
      <g style="fill:#262626;" transform="translate(291.036665 262.834114)scale(0.088 -0.088)">
       <use xlink:href="#850f507c"/>
       <use x="55.615234" xlink:href="#1dbd8266"/>
       <use x="111.230469" xlink:href="#1dbd8266"/>
      </g>
     </g>
    </g>
    <g id="xtick_29">
     <g id="line2d_38">
      <path clip-path="url(#p1a104c902b)" d="M 67.49342 248.235239  L 67.49342 163.908545  " style="fill:none;stroke:#ffffff;stroke-linecap:round;stroke-width:0.5;"/>
     </g>
    </g>
    <g id="xtick_30">
     <g id="line2d_39">
      <path clip-path="url(#p1a104c902b)" d="M 79.645193 248.235239  L 79.645193 163.908545  " style="fill:none;stroke:#ffffff;stroke-linecap:round;stroke-width:0.5;"/>
     </g>
    </g>
    <g id="xtick_31">
     <g id="line2d_40">
      <path clip-path="url(#p1a104c902b)" d="M 91.796966 248.235239  L 91.796966 163.908545  " style="fill:none;stroke:#ffffff;stroke-linecap:round;stroke-width:0.5;"/>
     </g>
    </g>
    <g id="xtick_32">
     <g id="line2d_41">
      <path clip-path="url(#p1a104c902b)" d="M 116.100511 248.235239  L 116.100511 163.908545  " style="fill:none;stroke:#ffffff;stroke-linecap:round;stroke-width:0.5;"/>
     </g>
    </g>
    <g id="xtick_33">
     <g id="line2d_42">
      <path clip-path="url(#p1a104c902b)" d="M 128.252284 248.235239  L 128.252284 163.908545  " style="fill:none;stroke:#ffffff;stroke-linecap:round;stroke-width:0.5;"/>
     </g>
    </g>
    <g id="xtick_34">
     <g id="line2d_43">
      <path clip-path="url(#p1a104c902b)" d="M 140.404057 248.235239  L 140.404057 163.908545  " style="fill:none;stroke:#ffffff;stroke-linecap:round;stroke-width:0.5;"/>
     </g>
    </g>
    <g id="xtick_35">
     <g id="line2d_44">
      <path clip-path="url(#p1a104c902b)" d="M 164.707602 248.235239  L 164.707602 163.908545  " style="fill:none;stroke:#ffffff;stroke-linecap:round;stroke-width:0.5;"/>
     </g>
    </g>
    <g id="xtick_36">
     <g id="line2d_45">
      <path clip-path="url(#p1a104c902b)" d="M 176.859375 248.235239  L 176.859375 163.908545  " style="fill:none;stroke:#ffffff;stroke-linecap:round;stroke-width:0.5;"/>
     </g>
    </g>
    <g id="xtick_37">
     <g id="line2d_46">
      <path clip-path="url(#p1a104c902b)" d="M 189.011148 248.235239  L 189.011148 163.908545  " style="fill:none;stroke:#ffffff;stroke-linecap:round;stroke-width:0.5;"/>
     </g>
    </g>
    <g id="xtick_38">
     <g id="line2d_47">
      <path clip-path="url(#p1a104c902b)" d="M 213.314693 248.235239  L 213.314693 163.908545  " style="fill:none;stroke:#ffffff;stroke-linecap:round;stroke-width:0.5;"/>
     </g>
    </g>
    <g id="xtick_39">
     <g id="line2d_48">
      <path clip-path="url(#p1a104c902b)" d="M 225.466466 248.235239  L 225.466466 163.908545  " style="fill:none;stroke:#ffffff;stroke-linecap:round;stroke-width:0.5;"/>
     </g>
    </g>
    <g id="xtick_40">
     <g id="line2d_49">
      <path clip-path="url(#p1a104c902b)" d="M 237.618239 248.235239  L 237.618239 163.908545  " style="fill:none;stroke:#ffffff;stroke-linecap:round;stroke-width:0.5;"/>
     </g>
    </g>
    <g id="xtick_41">
     <g id="line2d_50">
      <path clip-path="url(#p1a104c902b)" d="M 261.921784 248.235239  L 261.921784 163.908545  " style="fill:none;stroke:#ffffff;stroke-linecap:round;stroke-width:0.5;"/>
     </g>
    </g>
    <g id="xtick_42">
     <g id="line2d_51">
      <path clip-path="url(#p1a104c902b)" d="M 274.073557 248.235239  L 274.073557 163.908545  " style="fill:none;stroke:#ffffff;stroke-linecap:round;stroke-width:0.5;"/>
     </g>
    </g>
    <g id="xtick_43">
     <g id="line2d_52">
      <path clip-path="url(#p1a104c902b)" d="M 286.22533 248.235239  L 286.22533 163.908545  " style="fill:none;stroke:#ffffff;stroke-linecap:round;stroke-width:0.5;"/>
     </g>
    </g>
    <g id="xtick_44">
     <g id="line2d_53">
      <path clip-path="url(#p1a104c902b)" d="M 310.528875 248.235239  L 310.528875 163.908545  " style="fill:none;stroke:#ffffff;stroke-linecap:round;stroke-width:0.5;"/>
     </g>
    </g>
    <g id="text_14">
     <!-- Time (s) -->
     <defs>
      <path d="M 22.703125 0  L 35.9375 63.421875  L 12.453125 63.421875  L 14.15625 71.578125  L 70.515625 71.578125  L 68.796875 63.421875  L 45.515625 63.421875  L 32.28125 0  z " id="7fc64e9c"/>
      <path d="M 41.40625 17.625  L 50 16.75  Q 48.140625 10.359375 41.46875 4.59375  Q 34.8125 -1.171875 25.59375 -1.171875  Q 19.828125 -1.171875 15.015625 1.484375  Q 10.203125 4.15625 7.6875 9.234375  Q 5.171875 14.3125 5.171875 20.796875  Q 5.171875 29.296875 9.09375 37.28125  Q 13.03125 45.265625 19.28125 49.140625  Q 25.53125 53.03125 32.8125 53.03125  Q 42.09375 53.03125 47.625 47.265625  Q 53.171875 41.5 53.171875 31.546875  Q 53.171875 27.734375 52.484375 23.734375  L 14.3125 23.734375  Q 14.109375 22.21875 14.109375 21  Q 14.109375 13.71875 17.453125 9.890625  Q 20.796875 6.0625 25.640625 6.0625  Q 30.171875 6.0625 34.5625 9.03125  Q 38.96875 12.015625 41.40625 17.625  z M 15.71875 30.46875  L 44.828125 30.46875  Q 44.875 31.84375 44.875 32.421875  Q 44.875 39.0625 41.546875 42.59375  Q 38.234375 46.140625 33.015625 46.140625  Q 27.34375 46.140625 22.671875 42.234375  Q 18.015625 38.328125 15.71875 30.46875  z " id="628d9d00"/>
     </defs>
     <g style="fill:#262626;" transform="translate(159.305625 275.571614)scale(0.096 -0.096)">
      <use xlink:href="#7fc64e9c"/>
      <use x="60.208984" xlink:href="#1d8fcc6c"/>
      <use x="82.425781" xlink:href="#6d2f83d2"/>
      <use x="165.726562" xlink:href="#628d9d00"/>
      <use x="221.341797" xlink:href="#0f6c1e7f"/>
      <use x="249.125" xlink:href="#df034426"/>
      <use x="282.425781" xlink:href="#62886feb"/>
      <use x="332.425781" xlink:href="#1f71a0a0"/>
     </g>
    </g>
   </g>
   <g id="matplotlib.axis_4">
    <g id="ytick_4">
     <g id="line2d_54">
      <path clip-path="url(#p1a104c902b)" d="M 43.189875 246.017781  L 310.528875 246.017781  " style="fill:none;stroke:#ffffff;stroke-linecap:round;stroke-width:0.8;"/>
     </g>
     <g id="text_15">
      <!-- 0 -->
      <g style="fill:#262626;" transform="translate(29.99625 249.167218)scale(0.088 -0.088)">
       <use xlink:href="#1dbd8266"/>
      </g>
     </g>
    </g>
    <g id="ytick_5">
     <g id="line2d_55">
      <path clip-path="url(#p1a104c902b)" d="M 43.189875 206.178109  L 310.528875 206.178109  " style="fill:none;stroke:#ffffff;stroke-linecap:round;stroke-width:0.8;"/>
     </g>
     <g id="text_16">
      <!-- 100 -->
      <g style="fill:#262626;" transform="translate(20.209 209.327546)scale(0.088 -0.088)">
       <use xlink:href="#850f507c"/>
       <use x="55.615234" xlink:href="#1dbd8266"/>
       <use x="111.230469" xlink:href="#1dbd8266"/>
      </g>
     </g>
    </g>
    <g id="ytick_6">
     <g id="line2d_56">
      <path clip-path="url(#p1a104c902b)" d="M 43.189875 166.338437  L 310.528875 166.338437  " style="fill:none;stroke:#ffffff;stroke-linecap:round;stroke-width:0.8;"/>
     </g>
     <g id="text_17">
      <!-- 200 -->
      <g style="fill:#262626;" transform="translate(20.209 169.487875)scale(0.088 -0.088)">
       <use xlink:href="#3819eb89"/>
       <use x="55.615234" xlink:href="#1dbd8266"/>
       <use x="111.230469" xlink:href="#1dbd8266"/>
      </g>
     </g>
    </g>
    <g id="text_18">
     <!-- Position (cm) -->
     <g style="fill:#262626;" transform="translate(14.1885 234.076142)rotate(-90)scale(0.096 -0.096)">
      <use xlink:href="#c7d2c498"/>
      <use x="66.699219" xlink:href="#13bb6a03"/>
      <use x="122.314453" xlink:href="#62886feb"/>
      <use x="172.314453" xlink:href="#1d8fcc6c"/>
      <use x="194.53125" xlink:href="#3dd824e0"/>
      <use x="222.314453" xlink:href="#1d8fcc6c"/>
      <use x="244.53125" xlink:href="#13bb6a03"/>
      <use x="300.146484" xlink:href="#2a3e0bc0"/>
      <use x="355.761719" xlink:href="#0f6c1e7f"/>
      <use x="383.544922" xlink:href="#df034426"/>
      <use x="416.845703" xlink:href="#23b51186"/>
      <use x="466.845703" xlink:href="#6d2f83d2"/>
      <use x="550.146484" xlink:href="#1f71a0a0"/>
     </g>
    </g>
   </g>
   <g id="PolyCollection_2">
    <path clip-path="url(#p1a104c902b)" d="M 68.870621 243.641837  L 68.870621 243.641837  L 68.870621 243.641837  L 68.870621 243.641837  z " style="fill:#ff97ff;fill-opacity:0.2;stroke:#ff97ff;stroke-opacity:0.2;stroke-width:0.8;"/>
    <path clip-path="url(#p1a104c902b)" d="M 69.923775 243.688002  L 69.923775 243.688002  L 69.923775 243.688002  L 69.923775 243.688002  z " style="fill:#ff97ff;fill-opacity:0.2;stroke:#ff97ff;stroke-opacity:0.2;stroke-width:0.8;"/>
    <path clip-path="url(#p1a104c902b)" d="M 70.976929 243.696361  L 70.976929 243.696361  L 70.976929 243.696361  L 70.976929 243.696361  z " style="fill:#ff97ff;fill-opacity:0.2;stroke:#ff97ff;stroke-opacity:0.2;stroke-width:0.8;"/>
    <path clip-path="url(#p1a104c902b)" d="M 72.030082 243.730243  L 72.030082 243.730243  L 72.030082 243.730243  L 72.030082 243.730243  z " style="fill:#ff97ff;fill-opacity:0.2;stroke:#ff97ff;stroke-opacity:0.2;stroke-width:0.8;"/>
    <path clip-path="url(#p1a104c902b)" d="M 73.083236 243.771852  L 73.083236 243.771852  L 73.083236 243.771852  L 73.083236 243.771852  z " style="fill:#ff97ff;fill-opacity:0.2;stroke:#ff97ff;stroke-opacity:0.2;stroke-width:0.8;"/>
    <path clip-path="url(#p1a104c902b)" d="M 74.13639 243.773685  L 74.13639 243.773685  L 74.13639 243.773685  L 74.13639 243.773685  z " style="fill:#ff97ff;fill-opacity:0.2;stroke:#ff97ff;stroke-opacity:0.2;stroke-width:0.8;"/>
    <path clip-path="url(#p1a104c902b)" d="M 75.189543 243.758912  L 75.189543 243.758912  L 75.189543 243.758912  L 75.189543 243.758912  z " style="fill:#ff97ff;fill-opacity:0.2;stroke:#ff97ff;stroke-opacity:0.2;stroke-width:0.8;"/>
    <path clip-path="url(#p1a104c902b)" d="M 76.242697 244.03451  L 76.242697 244.03451  L 76.242697 244.03451  L 76.242697 244.03451  z " style="fill:#ff97ff;fill-opacity:0.2;stroke:#ff97ff;stroke-opacity:0.2;stroke-width:0.8;"/>
    <path clip-path="url(#p1a104c902b)" d="M 77.29585 244.119604  L 77.29585 244.119604  L 77.29585 244.119604  L 77.29585 244.119604  z " style="fill:#ff97ff;fill-opacity:0.2;stroke:#ff97ff;stroke-opacity:0.2;stroke-width:0.8;"/>
    <path clip-path="url(#p1a104c902b)" d="M 78.349004 243.884854  L 78.349004 243.884854  L 78.349004 243.884854  L 78.349004 243.884854  z " style="fill:#ff97ff;fill-opacity:0.2;stroke:#ff97ff;stroke-opacity:0.2;stroke-width:0.8;"/>
    <path clip-path="url(#p1a104c902b)" d="M 93.903273 168.937828  L 93.903273 168.937828  L 93.903273 168.937828  L 93.903273 168.937828  z " style="fill:#ff97ff;fill-opacity:0.2;stroke:#ff97ff;stroke-opacity:0.2;stroke-width:0.8;"/>
    <path clip-path="url(#p1a104c902b)" d="M 94.956427 168.895134  L 94.956427 168.895134  L 94.956427 168.895134  L 94.956427 168.895134  z " style="fill:#ff97ff;fill-opacity:0.2;stroke:#ff97ff;stroke-opacity:0.2;stroke-width:0.8;"/>
    <path clip-path="url(#p1a104c902b)" d="M 96.00958 168.806686  L 96.00958 168.806686  L 96.00958 168.806686  L 96.00958 168.806686  z " style="fill:#ff97ff;fill-opacity:0.2;stroke:#ff97ff;stroke-opacity:0.2;stroke-width:0.8;"/>
    <path clip-path="url(#p1a104c902b)" d="M 97.062734 168.818853  L 97.062734 168.818853  L 97.062734 168.818853  L 97.062734 168.818853  z " style="fill:#ff97ff;fill-opacity:0.2;stroke:#ff97ff;stroke-opacity:0.2;stroke-width:0.8;"/>
    <path clip-path="url(#p1a104c902b)" d="M 98.1969 168.939891  L 98.1969 168.939891  L 98.1969 168.939891  L 98.1969 168.939891  z " style="fill:#ff97ff;fill-opacity:0.2;stroke:#ff97ff;stroke-opacity:0.2;stroke-width:0.8;"/>
    <path clip-path="url(#p1a104c902b)" d="M 99.250053 168.999281  L 99.250053 168.999281  L 99.250053 168.999281  L 99.250053 168.999281  z " style="fill:#ff97ff;fill-opacity:0.2;stroke:#ff97ff;stroke-opacity:0.2;stroke-width:0.8;"/>
    <path clip-path="url(#p1a104c902b)" d="M 100.303207 168.988106  L 100.303207 168.988106  L 100.303207 168.988106  L 100.303207 168.988106  z " style="fill:#ff97ff;fill-opacity:0.2;stroke:#ff97ff;stroke-opacity:0.2;stroke-width:0.8;"/>
    <path clip-path="url(#p1a104c902b)" d="M 101.35636 168.965496  L 101.35636 168.965496  L 101.35636 168.965496  L 101.35636 168.965496  z " style="fill:#ff97ff;fill-opacity:0.2;stroke:#ff97ff;stroke-opacity:0.2;stroke-width:0.8;"/>
    <path clip-path="url(#p1a104c902b)" d="M 116.91063 168.300312  L 116.91063 168.300312  L 116.91063 168.300312  L 116.91063 168.300312  z " style="fill:#ff97ff;fill-opacity:0.2;stroke:#ff97ff;stroke-opacity:0.2;stroke-width:0.8;"/>
    <path clip-path="url(#p1a104c902b)" d="M 117.963783 168.818679  L 117.963783 168.818679  L 117.963783 168.818679  L 117.963783 168.818679  z " style="fill:#ff97ff;fill-opacity:0.2;stroke:#ff97ff;stroke-opacity:0.2;stroke-width:0.8;"/>
    <path clip-path="url(#p1a104c902b)" d="M 119.016937 170.833716  L 119.016937 170.833716  L 119.016937 170.833716  L 119.016937 170.833716  z " style="fill:#ff97ff;fill-opacity:0.2;stroke:#ff97ff;stroke-opacity:0.2;stroke-width:0.8;"/>
    <path clip-path="url(#p1a104c902b)" d="M 120.07009 172.520187  L 120.07009 172.520187  L 120.07009 172.520187  L 120.07009 172.520187  z " style="fill:#ff97ff;fill-opacity:0.2;stroke:#ff97ff;stroke-opacity:0.2;stroke-width:0.8;"/>
    <path clip-path="url(#p1a104c902b)" d="M 121.123244 177.824406  L 121.123244 177.824406  L 121.123244 177.824406  L 121.123244 177.824406  z " style="fill:#ff97ff;fill-opacity:0.2;stroke:#ff97ff;stroke-opacity:0.2;stroke-width:0.8;"/>
    <path clip-path="url(#p1a104c902b)" d="M 122.176398 183.645266  L 122.176398 183.645266  L 122.176398 183.645266  L 122.176398 183.645266  z " style="fill:#ff97ff;fill-opacity:0.2;stroke:#ff97ff;stroke-opacity:0.2;stroke-width:0.8;"/>
    <path clip-path="url(#p1a104c902b)" d="M 123.229551 189.710354  L 123.229551 189.710354  L 123.229551 189.710354  L 123.229551 189.710354  z " style="fill:#ff97ff;fill-opacity:0.2;stroke:#ff97ff;stroke-opacity:0.2;stroke-width:0.8;"/>
    <path clip-path="url(#p1a104c902b)" d="M 124.282705 196.759447  L 124.282705 196.759447  L 124.282705 196.759447  L 124.282705 196.759447  z " style="fill:#ff97ff;fill-opacity:0.2;stroke:#ff97ff;stroke-opacity:0.2;stroke-width:0.8;"/>
    <path clip-path="url(#p1a104c902b)" d="M 125.335859 204.758108  L 125.335859 204.758108  L 125.335859 204.758108  L 125.335859 204.758108  z " style="fill:#ff97ff;fill-opacity:0.2;stroke:#ff97ff;stroke-opacity:0.2;stroke-width:0.8;"/>
    <path clip-path="url(#p1a104c902b)" d="M 126.389012 212.848429  L 126.389012 212.848429  L 126.389012 212.848429  L 126.389012 212.848429  z " style="fill:#ff97ff;fill-opacity:0.2;stroke:#ff97ff;stroke-opacity:0.2;stroke-width:0.8;"/>
    <path clip-path="url(#p1a104c902b)" d="M 141.943281 243.899168  L 141.943281 243.899168  L 141.943281 243.899168  L 141.943281 243.899168  z " style="fill:#ff97ff;fill-opacity:0.2;stroke:#ff97ff;stroke-opacity:0.2;stroke-width:0.8;"/>
    <path clip-path="url(#p1a104c902b)" d="M 142.996435 243.943664  L 142.996435 243.943664  L 142.996435 243.943664  L 142.996435 243.943664  z " style="fill:#ff97ff;fill-opacity:0.2;stroke:#ff97ff;stroke-opacity:0.2;stroke-width:0.8;"/>
    <path clip-path="url(#p1a104c902b)" d="M 144.049589 243.765977  L 144.049589 243.765977  L 144.049589 243.765977  L 144.049589 243.765977  z " style="fill:#ff97ff;fill-opacity:0.2;stroke:#ff97ff;stroke-opacity:0.2;stroke-width:0.8;"/>
    <path clip-path="url(#p1a104c902b)" d="M 145.102742 242.756062  L 145.102742 242.756062  L 145.102742 242.756062  L 145.102742 242.756062  z " style="fill:#ff97ff;fill-opacity:0.2;stroke:#ff97ff;stroke-opacity:0.2;stroke-width:0.8;"/>
    <path clip-path="url(#p1a104c902b)" d="M 146.236908 239.163942  L 146.236908 239.163942  L 146.236908 239.163942  L 146.236908 239.163942  z " style="fill:#ff97ff;fill-opacity:0.2;stroke:#ff97ff;stroke-opacity:0.2;stroke-width:0.8;"/>
    <path clip-path="url(#p1a104c902b)" d="M 147.290061 237.281984  L 147.290061 237.281984  L 147.290061 237.281984  L 147.290061 237.281984  z " style="fill:#ff97ff;fill-opacity:0.2;stroke:#ff97ff;stroke-opacity:0.2;stroke-width:0.8;"/>
    <path clip-path="url(#p1a104c902b)" d="M 148.343215 236.890075  L 148.343215 236.890075  L 148.343215 236.890075  L 148.343215 236.890075  z " style="fill:#ff97ff;fill-opacity:0.2;stroke:#ff97ff;stroke-opacity:0.2;stroke-width:0.8;"/>
    <path clip-path="url(#p1a104c902b)" d="M 149.396369 233.9168  L 149.396369 233.9168  L 149.396369 233.9168  L 149.396369 233.9168  z " style="fill:#ff97ff;fill-opacity:0.2;stroke:#ff97ff;stroke-opacity:0.2;stroke-width:0.8;"/>
    <path clip-path="url(#p1a104c902b)" d="M 150.36851 229.107147  L 150.36851 229.107147  L 150.36851 229.107147  L 150.36851 229.107147  z " style="fill:#ff97ff;fill-opacity:0.2;stroke:#ff97ff;stroke-opacity:0.2;stroke-width:0.8;"/>
    <path clip-path="url(#p1a104c902b)" d="M 166.003791 168.735601  L 166.003791 168.735601  L 166.003791 168.735601  L 166.003791 168.735601  z " style="fill:#ff97ff;fill-opacity:0.2;stroke:#ff97ff;stroke-opacity:0.2;stroke-width:0.8;"/>
    <path clip-path="url(#p1a104c902b)" d="M 167.056945 168.722206  L 167.056945 168.722206  L 167.056945 168.722206  L 167.056945 168.722206  z " style="fill:#ff97ff;fill-opacity:0.2;stroke:#ff97ff;stroke-opacity:0.2;stroke-width:0.8;"/>
    <path clip-path="url(#p1a104c902b)" d="M 168.110099 168.782988  L 168.110099 168.782988  L 168.110099 168.782988  L 168.110099 168.782988  z " style="fill:#ff97ff;fill-opacity:0.2;stroke:#ff97ff;stroke-opacity:0.2;stroke-width:0.8;"/>
    <path clip-path="url(#p1a104c902b)" d="M 169.08224 168.667449  L 169.08224 168.667449  L 169.08224 168.667449  L 169.08224 168.667449  z " style="fill:#ff97ff;fill-opacity:0.2;stroke:#ff97ff;stroke-opacity:0.2;stroke-width:0.8;"/>
    <path clip-path="url(#p1a104c902b)" d="M 170.135394 168.705746  L 170.135394 168.705746  L 170.135394 168.705746  L 170.135394 168.705746  z " style="fill:#ff97ff;fill-opacity:0.2;stroke:#ff97ff;stroke-opacity:0.2;stroke-width:0.8;"/>
    <path clip-path="url(#p1a104c902b)" d="M 171.26956 168.736612  L 171.26956 168.736612  L 171.26956 168.736612  L 171.26956 168.736612  z " style="fill:#ff97ff;fill-opacity:0.2;stroke:#ff97ff;stroke-opacity:0.2;stroke-width:0.8;"/>
    <path clip-path="url(#p1a104c902b)" d="M 172.322713 168.849754  L 172.322713 168.849754  L 172.322713 168.849754  L 172.322713 168.849754  z " style="fill:#ff97ff;fill-opacity:0.2;stroke:#ff97ff;stroke-opacity:0.2;stroke-width:0.8;"/>
    <path clip-path="url(#p1a104c902b)" d="M 173.375867 168.792253  L 173.375867 168.792253  L 173.375867 168.792253  L 173.375867 168.792253  z " style="fill:#ff97ff;fill-opacity:0.2;stroke:#ff97ff;stroke-opacity:0.2;stroke-width:0.8;"/>
    <path clip-path="url(#p1a104c902b)" d="M 174.42902 168.800256  L 174.42902 168.800256  L 174.42902 168.800256  L 174.42902 168.800256  z " style="fill:#ff97ff;fill-opacity:0.2;stroke:#ff97ff;stroke-opacity:0.2;stroke-width:0.8;"/>
    <path clip-path="url(#p1a104c902b)" d="M 189.98329 171.592101  L 189.98329 171.592101  L 189.98329 171.592101  L 189.98329 171.592101  z " style="fill:#ff97ff;fill-opacity:0.2;stroke:#ff97ff;stroke-opacity:0.2;stroke-width:0.8;"/>
    <path clip-path="url(#p1a104c902b)" d="M 191.036443 176.59506  L 191.036443 176.59506  L 191.036443 176.59506  L 191.036443 176.59506  z " style="fill:#ff97ff;fill-opacity:0.2;stroke:#ff97ff;stroke-opacity:0.2;stroke-width:0.8;"/>
    <path clip-path="url(#p1a104c902b)" d="M 192.089597 183.921961  L 192.089597 183.921961  L 192.089597 183.921961  L 192.089597 183.921961  z " style="fill:#ff97ff;fill-opacity:0.2;stroke:#ff97ff;stroke-opacity:0.2;stroke-width:0.8;"/>
    <path clip-path="url(#p1a104c902b)" d="M 193.14275 190.787302  L 193.14275 190.787302  L 193.14275 190.787302  L 193.14275 190.787302  z " style="fill:#ff97ff;fill-opacity:0.2;stroke:#ff97ff;stroke-opacity:0.2;stroke-width:0.8;"/>
    <path clip-path="url(#p1a104c902b)" d="M 194.276916 199.040733  L 194.276916 199.040733  L 194.276916 199.040733  L 194.276916 199.040733  z " style="fill:#ff97ff;fill-opacity:0.2;stroke:#ff97ff;stroke-opacity:0.2;stroke-width:0.8;"/>
    <path clip-path="url(#p1a104c902b)" d="M 195.33007 207.223287  L 195.33007 207.223287  L 195.33007 207.223287  L 195.33007 207.223287  z " style="fill:#ff97ff;fill-opacity:0.2;stroke:#ff97ff;stroke-opacity:0.2;stroke-width:0.8;"/>
    <path clip-path="url(#p1a104c902b)" d="M 196.383223 215.55869  L 196.383223 215.55869  L 196.383223 215.55869  L 196.383223 215.55869  z " style="fill:#ff97ff;fill-opacity:0.2;stroke:#ff97ff;stroke-opacity:0.2;stroke-width:0.8;"/>
    <path clip-path="url(#p1a104c902b)" d="M 197.355365 223.497059  L 197.355365 223.497059  L 197.355365 223.497059  L 197.355365 223.497059  z " style="fill:#ff97ff;fill-opacity:0.2;stroke:#ff97ff;stroke-opacity:0.2;stroke-width:0.8;"/>
    <path clip-path="url(#p1a104c902b)" d="M 198.408519 232.140984  L 198.408519 232.140984  L 198.408519 232.140984  L 198.408519 232.140984  z " style="fill:#ff97ff;fill-opacity:0.2;stroke:#ff97ff;stroke-opacity:0.2;stroke-width:0.8;"/>
    <path clip-path="url(#p1a104c902b)" d="M 214.0438 244.082997  L 214.0438 244.082997  L 214.0438 244.082997  L 214.0438 244.082997  z " style="fill:#ff97ff;fill-opacity:0.2;stroke:#ff97ff;stroke-opacity:0.2;stroke-width:0.8;"/>
    <path clip-path="url(#p1a104c902b)" d="M 215.096953 243.954903  L 215.096953 243.954903  L 215.096953 243.954903  L 215.096953 243.954903  z " style="fill:#ff97ff;fill-opacity:0.2;stroke:#ff97ff;stroke-opacity:0.2;stroke-width:0.8;"/>
    <path clip-path="url(#p1a104c902b)" d="M 216.069095 243.285249  L 216.069095 243.285249  L 216.069095 243.285249  L 216.069095 243.285249  z " style="fill:#ff97ff;fill-opacity:0.2;stroke:#ff97ff;stroke-opacity:0.2;stroke-width:0.8;"/>
    <path clip-path="url(#p1a104c902b)" d="M 217.122249 241.030823  L 217.122249 241.030823  L 217.122249 241.030823  L 217.122249 241.030823  z " style="fill:#ff97ff;fill-opacity:0.2;stroke:#ff97ff;stroke-opacity:0.2;stroke-width:0.8;"/>
    <path clip-path="url(#p1a104c902b)" d="M 218.175402 237.366182  L 218.175402 237.366182  L 218.175402 237.366182  L 218.175402 237.366182  z " style="fill:#ff97ff;fill-opacity:0.2;stroke:#ff97ff;stroke-opacity:0.2;stroke-width:0.8;"/>
    <path clip-path="url(#p1a104c902b)" d="M 219.309568 231.708742  L 219.309568 231.708742  L 219.309568 231.708742  L 219.309568 231.708742  z " style="fill:#ff97ff;fill-opacity:0.2;stroke:#ff97ff;stroke-opacity:0.2;stroke-width:0.8;"/>
    <path clip-path="url(#p1a104c902b)" d="M 220.362721 225.599253  L 220.362721 225.599253  L 220.362721 225.599253  L 220.362721 225.599253  z " style="fill:#ff97ff;fill-opacity:0.2;stroke:#ff97ff;stroke-opacity:0.2;stroke-width:0.8;"/>
    <path clip-path="url(#p1a104c902b)" d="M 221.415875 218.97091  L 221.415875 218.97091  L 221.415875 218.97091  L 221.415875 218.97091  z " style="fill:#ff97ff;fill-opacity:0.2;stroke:#ff97ff;stroke-opacity:0.2;stroke-width:0.8;"/>
    <path clip-path="url(#p1a104c902b)" d="M 222.469029 211.442636  L 222.469029 211.442636  L 222.469029 211.442636  L 222.469029 211.442636  z " style="fill:#ff97ff;fill-opacity:0.2;stroke:#ff97ff;stroke-opacity:0.2;stroke-width:0.8;"/>
    <path clip-path="url(#p1a104c902b)" d="M 238.023298 168.350965  L 238.023298 168.350965  L 238.023298 168.350965  L 238.023298 168.350965  z " style="fill:#ff97ff;fill-opacity:0.2;stroke:#ff97ff;stroke-opacity:0.2;stroke-width:0.8;"/>
    <path clip-path="url(#p1a104c902b)" d="M 239.076451 168.47637  L 239.076451 168.47637  L 239.076451 168.47637  L 239.076451 168.47637  z " style="fill:#ff97ff;fill-opacity:0.2;stroke:#ff97ff;stroke-opacity:0.2;stroke-width:0.8;"/>
    <path clip-path="url(#p1a104c902b)" d="M 240.129605 168.41694  L 240.129605 168.41694  L 240.129605 168.41694  L 240.129605 168.41694  z " style="fill:#ff97ff;fill-opacity:0.2;stroke:#ff97ff;stroke-opacity:0.2;stroke-width:0.8;"/>
    <path clip-path="url(#p1a104c902b)" d="M 241.182759 168.435906  L 241.182759 168.435906  L 241.182759 168.435906  L 241.182759 168.435906  z " style="fill:#ff97ff;fill-opacity:0.2;stroke:#ff97ff;stroke-opacity:0.2;stroke-width:0.8;"/>
    <path clip-path="url(#p1a104c902b)" d="M 242.316924 168.321056  L 242.316924 168.321056  L 242.316924 168.321056  L 242.316924 168.321056  z " style="fill:#ff97ff;fill-opacity:0.2;stroke:#ff97ff;stroke-opacity:0.2;stroke-width:0.8;"/>
    <path clip-path="url(#p1a104c902b)" d="M 243.370078 168.151794  L 243.370078 168.151794  L 243.370078 168.151794  L 243.370078 168.151794  z " style="fill:#ff97ff;fill-opacity:0.2;stroke:#ff97ff;stroke-opacity:0.2;stroke-width:0.8;"/>
    <path clip-path="url(#p1a104c902b)" d="M 244.34222 168.108099  L 244.34222 168.108099  L 244.34222 168.108099  L 244.34222 168.108099  z " style="fill:#ff97ff;fill-opacity:0.2;stroke:#ff97ff;stroke-opacity:0.2;stroke-width:0.8;"/>
    <path clip-path="url(#p1a104c902b)" d="M 245.395373 168.81991  L 245.395373 168.81991  L 245.395373 168.81991  L 245.395373 168.81991  z " style="fill:#ff97ff;fill-opacity:0.2;stroke:#ff97ff;stroke-opacity:0.2;stroke-width:0.8;"/>
    <path clip-path="url(#p1a104c902b)" d="M 246.448527 168.621299  L 246.448527 168.621299  L 246.448527 168.621299  L 246.448527 168.621299  z " style="fill:#ff97ff;fill-opacity:0.2;stroke:#ff97ff;stroke-opacity:0.2;stroke-width:0.8;"/>
    <path clip-path="url(#p1a104c902b)" d="M 262.083808 243.524098  L 262.083808 243.524098  L 262.083808 243.524098  L 262.083808 243.524098  z " style="fill:#ff97ff;fill-opacity:0.2;stroke:#ff97ff;stroke-opacity:0.2;stroke-width:0.8;"/>
    <path clip-path="url(#p1a104c902b)" d="M 263.05595 243.64352  L 263.05595 243.64352  L 263.05595 243.64352  L 263.05595 243.64352  z " style="fill:#ff97ff;fill-opacity:0.2;stroke:#ff97ff;stroke-opacity:0.2;stroke-width:0.8;"/>
    <path clip-path="url(#p1a104c902b)" d="M 264.109103 243.652772  L 264.109103 243.652772  L 264.109103 243.652772  L 264.109103 243.652772  z " style="fill:#ff97ff;fill-opacity:0.2;stroke:#ff97ff;stroke-opacity:0.2;stroke-width:0.8;"/>
    <path clip-path="url(#p1a104c902b)" d="M 265.162257 243.674457  L 265.162257 243.674457  L 265.162257 243.674457  L 265.162257 243.674457  z " style="fill:#ff97ff;fill-opacity:0.2;stroke:#ff97ff;stroke-opacity:0.2;stroke-width:0.8;"/>
    <path clip-path="url(#p1a104c902b)" d="M 266.21541 243.678016  L 266.21541 243.678016  L 266.21541 243.678016  L 266.21541 243.678016  z " style="fill:#ff97ff;fill-opacity:0.2;stroke:#ff97ff;stroke-opacity:0.2;stroke-width:0.8;"/>
    <path clip-path="url(#p1a104c902b)" d="M 267.349576 243.72552  L 267.349576 243.72552  L 267.349576 243.72552  L 267.349576 243.72552  z " style="fill:#ff97ff;fill-opacity:0.2;stroke:#ff97ff;stroke-opacity:0.2;stroke-width:0.8;"/>
    <path clip-path="url(#p1a104c902b)" d="M 268.40273 243.80535  L 268.40273 243.80535  L 268.40273 243.80535  L 268.40273 243.80535  z " style="fill:#ff97ff;fill-opacity:0.2;stroke:#ff97ff;stroke-opacity:0.2;stroke-width:0.8;"/>
    <path clip-path="url(#p1a104c902b)" d="M 269.455883 243.801138  L 269.455883 243.801138  L 269.455883 243.801138  L 269.455883 243.801138  z " style="fill:#ff97ff;fill-opacity:0.2;stroke:#ff97ff;stroke-opacity:0.2;stroke-width:0.8;"/>
    <path clip-path="url(#p1a104c902b)" d="M 270.509037 243.767014  L 270.509037 243.767014  L 270.509037 243.767014  L 270.509037 243.767014  z " style="fill:#ff97ff;fill-opacity:0.2;stroke:#ff97ff;stroke-opacity:0.2;stroke-width:0.8;"/>
    <path clip-path="url(#p1a104c902b)" d="M 286.063306 223.456236  L 286.063306 223.456236  L 286.063306 223.456236  L 286.063306 223.456236  z " style="fill:#ff97ff;fill-opacity:0.2;stroke:#ff97ff;stroke-opacity:0.2;stroke-width:0.8;"/>
    <path clip-path="url(#p1a104c902b)" d="M 287.11646 216.609743  L 287.11646 216.609743  L 287.11646 216.609743  L 287.11646 216.609743  z " style="fill:#ff97ff;fill-opacity:0.2;stroke:#ff97ff;stroke-opacity:0.2;stroke-width:0.8;"/>
    <path clip-path="url(#p1a104c902b)" d="M 288.169613 208.22342  L 288.169613 208.22342  L 288.169613 208.22342  L 288.169613 208.22342  z " style="fill:#ff97ff;fill-opacity:0.2;stroke:#ff97ff;stroke-opacity:0.2;stroke-width:0.8;"/>
    <path clip-path="url(#p1a104c902b)" d="M 289.222767 199.38317  L 289.222767 199.38317  L 289.222767 199.38317  L 289.222767 199.38317  z " style="fill:#ff97ff;fill-opacity:0.2;stroke:#ff97ff;stroke-opacity:0.2;stroke-width:0.8;"/>
    <path clip-path="url(#p1a104c902b)" d="M 290.27592 191.155042  L 290.27592 191.155042  L 290.27592 191.155042  L 290.27592 191.155042  z " style="fill:#ff97ff;fill-opacity:0.2;stroke:#ff97ff;stroke-opacity:0.2;stroke-width:0.8;"/>
    <path clip-path="url(#p1a104c902b)" d="M 291.329074 187.349939  L 291.329074 187.349939  L 291.329074 187.349939  L 291.329074 187.349939  z " style="fill:#ff97ff;fill-opacity:0.2;stroke:#ff97ff;stroke-opacity:0.2;stroke-width:0.8;"/>
    <path clip-path="url(#p1a104c902b)" d="M 292.382228 182.459261  L 292.382228 182.459261  L 292.382228 182.459261  L 292.382228 182.459261  z " style="fill:#ff97ff;fill-opacity:0.2;stroke:#ff97ff;stroke-opacity:0.2;stroke-width:0.8;"/>
    <path clip-path="url(#p1a104c902b)" d="M 293.435381 176.273375  L 293.435381 176.273375  L 293.435381 176.273375  L 293.435381 176.273375  z " style="fill:#ff97ff;fill-opacity:0.2;stroke:#ff97ff;stroke-opacity:0.2;stroke-width:0.8;"/>
    <path clip-path="url(#p1a104c902b)" d="M 294.488535 171.559484  L 294.488535 171.559484  L 294.488535 171.559484  L 294.488535 171.559484  z " style="fill:#ff97ff;fill-opacity:0.2;stroke:#ff97ff;stroke-opacity:0.2;stroke-width:0.8;"/>
   </g>
   <g id="line2d_57">
    <path clip-path="url(#p1a104c902b)" d="M 55.341648 189.857172  L 55.584683 190.278806  L 55.827719 190.792905  L 55.989742 191.038458  L 56.475813 192.624084  L 57.285931 196.842256  L 59.149203 208.309882  L 61.498546 225.853166  L 62.470688 232.736834  L 63.199794 237.096997  L 64.090924 240.800495  L 64.495983 241.572429  L 64.658007 241.775493  L 65.22509 242.885462  L 65.792172 243.511937  L 66.11622 243.536595  L 71.300976 243.702085  L 71.868059 243.740573  L 72.35413 243.741188  L 75.837638 243.880562  L 76.242697 244.03451  L 77.214839 244.178307  L 77.781921 243.890344  L 78.18698 243.828309  L 78.511028 243.933957  L 78.835075 243.981409  L 79.240134 243.920801  L 79.645193 243.89095  L 79.888229 243.617691  L 80.455311 242.775437  L 81.508465 240.216583  L 81.994536 238.579449  L 82.399595 237.085285  L 83.04769 234.136185  L 85.478044 220.217021  L 88.718517 194.828931  L 90.6628 178.871534  L 91.55393 173.211573  L 92.040001 171.473797  L 92.769108 170.265981  L 92.85012 170.160045  L 93.093155 169.559078  L 93.255179 169.564002  L 93.579226 169.067166  L 93.74125 168.759537  L 94.065297 168.974343  L 94.389344 168.888654  L 94.713391 168.849662  L 95.037439 168.900666  L 95.52351 168.884768  L 95.928569 168.84432  L 96.171604 168.832642  L 97.143746 168.830935  L 97.30577 168.830514  L 97.548805 168.901345  L 98.763982 168.945935  L 99.169041 169.000013  L 101.680408 169.081558  L 101.923443 169.155395  L 104.110762 169.510165  L 104.43481 169.557572  L 105.163916 169.573309  L 106.70314 169.502395  L 107.189211 169.127891  L 107.270223 169.11317  L 107.756294 168.476306  L 108.323377 168.259357  L 108.566412 168.253353  L 109.052483 168.175834  L 110.26766 168.269371  L 110.834743 168.200078  L 111.077779 168.133263  L 111.644861 168.072634  L 112.04992 167.991449  L 112.698015 167.96363  L 112.94105 167.960299  L 113.265098 167.863006  L 113.589145 167.741577  L 114.075216 167.998609  L 114.642299 168.204854  L 115.533429 167.964071  L 115.776464 168.014562  L 116.100511 168.242273  L 116.667594 168.277763  L 116.991641 168.319838  L 117.3967 168.307702  L 117.558724 168.331962  L 118.125807 169.088441  L 118.368842 169.698991  L 118.611878 170.445694  L 119.097949 170.866643  L 119.259972 170.986661  L 120.232114 172.969011  L 120.96122 176.067642  L 121.36628 179.168806  L 122.905504 187.716586  L 123.877646 193.924513  L 126.632048 214.733497  L 128.819367 231.575142  L 130.520615 240.74524  L 131.16871 242.725012  L 131.573769 243.400793  L 132.869958 243.666515  L 134.166147 243.660364  L 136.191442 243.693984  L 137.082572 243.735565  L 138.29775 243.736684  L 140.728104 243.719772  L 143.64453 243.890041  L 144.049589 243.765977  L 144.292624 243.633158  L 144.778695 243.455698  L 145.264766 242.364291  L 146.155896 239.54428  L 146.560955 237.818723  L 146.885002 237.174919  L 147.452085 237.263542  L 148.262203 237.023611  L 148.424227 236.669277  L 148.667262 236.072461  L 148.910298 235.705745  L 149.234345 234.567198  L 149.963451 231.353721  L 151.097617 224.452913  L 151.826723 219.221863  L 153.527971 207.275159  L 154.257078 201.589661  L 155.391243 191.546803  L 156.930468 178.749938  L 157.659574 173.662832  L 158.307669 171.499936  L 159.117787 170.783343  L 160.332964 170.699195  L 160.494988 170.559349  L 160.657011 170.536441  L 160.981059 170.356754  L 161.143082 170.309619  L 162.034212 170.56078  L 162.520283 170.253439  L 162.84433 170.061865  L 163.006354 169.939548  L 163.24939 169.343082  L 163.411413 168.978878  L 163.654449 168.880716  L 164.059508 169.010026  L 164.869626 168.51185  L 165.112661 168.590908  L 165.436709 168.665968  L 166.327839 168.732882  L 166.732898 168.750981  L 167.462004 168.759111  L 167.70504 168.75847  L 168.110099 168.782988  L 168.920217 168.660309  L 169.811347 168.696873  L 170.135394 168.705746  L 170.459441 168.726653  L 170.8645 168.700964  L 171.512595 168.721219  L 171.917654 168.850093  L 172.241701 168.844207  L 173.294855 168.828436  L 173.456879 168.815825  L 173.861938 168.820074  L 174.266997 168.787794  L 175.077115 168.845815  L 175.563186 168.939739  L 176.130269 169.264762  L 176.292292 169.274826  L 176.940387 168.815259  L 177.264434 168.278179  L 177.426458 168.128005  L 177.669493 168.250568  L 178.155564 168.21801  L 179.451753 168.208063  L 183.259309 168.108368  L 183.664368 168.399757  L 184.23145 168.574576  L 184.555498 168.353826  L 184.717521 168.524559  L 184.879545 168.670323  L 185.52764 168.342009  L 185.770675 168.226207  L 185.932699 168.231563  L 186.499781 168.216586  L 187.228888 168.384147  L 187.471923 168.520771  L 187.876982 168.547771  L 188.444065 168.5847  L 188.606089 168.750409  L 189.173171 169.931443  L 189.98329 171.592101  L 190.955431 175.909957  L 191.76555 181.873658  L 193.385786 192.500392  L 196.059176 212.99791  L 198.975601 236.162793  L 199.623696 239.541627  L 200.109767 241.327015  L 200.838873 242.972997  L 201.56798 243.498794  L 202.05405 243.57333  L 203.026192 243.552707  L 205.213511 243.572484  L 206.185653 243.572293  L 206.671724 243.600568  L 207.076783 243.641949  L 207.80589 243.718977  L 208.453984 243.675695  L 209.993209 243.746416  L 210.803327 243.739687  L 212.018504 243.804651  L 213.314693 244.188878  L 213.557729 244.082879  L 213.881776 244.093397  L 215.745048 243.868769  L 216.879213 241.690332  L 218.09439 237.709199  L 219.066532 233.134267  L 220.119686 226.942021  L 220.76778 223.176338  L 222.874088 208.400708  L 224.170277 197.843574  L 227.086702 172.409145  L 227.41075 171.037259  L 227.572773 170.926612  L 228.058844 171.114308  L 228.30188 171.031076  L 228.706939 170.784349  L 228.949974 170.073946  L 229.19301 169.651269  L 229.436045 169.354647  L 229.922116 168.9101  L 230.08414 168.936746  L 230.246163 168.906839  L 230.57021 168.524017  L 230.813246 168.384641  L 230.97527 168.400675  L 231.218305 168.338662  L 232.514494 168.31846  L 232.75753 168.307447  L 233.729671 168.307235  L 234.296754 168.338771  L 234.620801 168.355785  L 235.349908 168.361619  L 235.91699 168.334001  L 237.456215 168.410082  L 238.752404 168.379965  L 239.157463 168.465253  L 239.805558 168.425538  L 243.127042 168.182605  L 243.289066 168.100487  L 243.45109 168.098871  L 243.775137 168.066665  L 244.180196 168.13001  L 244.82829 168.141077  L 245.314361 168.901843  L 245.557397 168.782197  L 246.691562 168.660382  L 247.50168 168.637499  L 247.825728 168.467604  L 248.068763 168.532961  L 248.230787 168.718839  L 248.473822 169.061475  L 248.716858 169.081739  L 248.878881 169.158416  L 249.121917 169.543037  L 249.932035 170.440891  L 250.337094 170.924777  L 250.823165 171.648141  L 251.147212 172.451862  L 251.47126 173.49382  L 252.038342 176.042751  L 252.36239 178.939776  L 253.982626 188.869884  L 256.899051 210.063083  L 258.357264 221.909261  L 259.896489 234.083066  L 260.86863 239.799801  L 261.435713 242.398069  L 261.921784 243.335154  L 262.245831 243.616238  L 262.731902 243.589832  L 272.939391 244.01829  L 273.182427 244.093334  L 273.587486 243.945343  L 273.911533 243.975168  L 274.23558 243.926762  L 275.53177 243.693174  L 275.855817 243.498267  L 276.260876 243.690978  L 276.503911 243.774825  L 276.746947 243.673172  L 277.31403 243.752846  L 278.20516 243.547904  L 278.529207 243.49882  L 279.744384 243.496564  L 281.526644 243.250559  L 282.174739 242.029608  L 282.498786 241.022966  L 283.389916 237.797985  L 284.362058 233.050167  L 286.387353 221.383952  L 287.845566 210.957674  L 290.27592 191.155042  L 290.843003 189.452954  L 291.16705 188.023377  L 292.05818 184.363007  L 292.787287 179.953506  L 293.921452 173.333326  L 294.2455 172.180662  L 294.73157 171.32584  L 294.893594 171.30269  L 295.6227 170.759463  L 296.108771 169.917446  L 296.270795 169.783444  L 296.91889 168.817625  L 297.080913 168.957146  L 297.647996 168.62518  L 297.81002 168.572453  L 298.134067 168.482913  L 298.377102 168.45473  L 298.377102 168.45473  " style="fill:none;stroke:#ff97ff;stroke-linecap:round;stroke-width:1.5;"/>
   </g>
   <g id="line2d_58"/>
   <g id="patch_7">
    <path d="M 43.189875 248.235239  L 43.189875 163.908545  " style="fill:none;stroke:#ffffff;stroke-linecap:square;stroke-linejoin:miter;"/>
   </g>
   <g id="patch_8">
    <path d="M 43.189875 248.235239  L 310.528875 248.235239  " style="fill:none;stroke:#ffffff;stroke-linecap:square;stroke-linejoin:miter;"/>
   </g>
   <g id="text_19">
    <!-- Animal: ts32-1 -->
    <defs>
     <path d="M 25.78125 7.859375  L 27.046875 0.09375  Q 23.34375 -0.6875 20.40625 -0.6875  Q 15.625 -0.6875 12.984375 0.828125  Q 10.359375 2.34375 9.28125 4.8125  Q 8.203125 7.28125 8.203125 15.1875  L 8.203125 45.015625  L 1.765625 45.015625  L 1.765625 51.859375  L 8.203125 51.859375  L 8.203125 64.703125  L 16.9375 69.96875  L 16.9375 51.859375  L 25.78125 51.859375  L 25.78125 45.015625  L 16.9375 45.015625  L 16.9375 14.703125  Q 16.9375 10.9375 17.40625 9.859375  Q 17.875 8.796875 18.921875 8.15625  Q 19.96875 7.515625 21.921875 7.515625  Q 23.390625 7.515625 25.78125 7.859375  z " id="258a57ee"/>
     <path d="M 4.203125 18.890625  L 12.984375 20.0625  Q 14.5 12.59375 18.140625 9.296875  Q 21.78125 6 27 6  Q 33.203125 6 37.46875 10.296875  Q 41.75 14.59375 41.75 20.953125  Q 41.75 27 37.796875 30.921875  Q 33.84375 34.859375 27.734375 34.859375  Q 25.25 34.859375 21.53125 33.890625  L 22.515625 41.609375  Q 23.390625 41.5 23.921875 41.5  Q 29.546875 41.5 34.03125 44.421875  Q 38.53125 47.359375 38.53125 53.46875  Q 38.53125 58.296875 35.25 61.46875  Q 31.984375 64.65625 26.8125 64.65625  Q 21.6875 64.65625 18.265625 61.421875  Q 14.84375 58.203125 13.875 51.765625  L 5.078125 53.328125  Q 6.6875 62.15625 12.390625 67.015625  Q 18.109375 71.875 26.609375 71.875  Q 32.46875 71.875 37.390625 69.359375  Q 42.328125 66.84375 44.9375 62.5  Q 47.5625 58.15625 47.5625 53.265625  Q 47.5625 48.640625 45.0625 44.828125  Q 42.578125 41.015625 37.703125 38.765625  Q 44.046875 37.3125 47.5625 32.6875  Q 51.078125 28.078125 51.078125 21.140625  Q 51.078125 11.765625 44.234375 5.25  Q 37.40625 -1.265625 26.953125 -1.265625  Q 17.53125 -1.265625 11.296875 4.34375  Q 5.078125 9.96875 4.203125 18.890625  z " id="1704b075"/>
    </defs>
    <g style="fill:#262626;" transform="translate(146.181375 157.908545)scale(0.096 -0.096)">
     <use xlink:href="#95a81be8"/>
     <use x="66.699219" xlink:href="#132bf14a"/>
     <use x="122.314453" xlink:href="#e03c6763"/>
     <use x="144.53125" xlink:href="#d932065d"/>
     <use x="227.832031" xlink:href="#903babe4"/>
     <use x="283.447266" xlink:href="#65eb17cc"/>
     <use x="305.664062" xlink:href="#c824937e"/>
     <use x="333.447266" xlink:href="#502821fc"/>
     <use x="361.230469" xlink:href="#258a57ee"/>
     <use x="389.013672" xlink:href="#b99354d9"/>
     <use x="439.013672" xlink:href="#1704b075"/>
     <use x="494.628906" xlink:href="#3819eb89"/>
     <use x="550.244141" xlink:href="#dc9d88aa"/>
     <use x="583.544922" xlink:href="#850f507c"/>
    </g>
   </g>
  </g>
 </g>
 <defs>
  <clipPath id="pf8cc655f09">
   <rect height="84.326694" width="267.339" x="43.189875" y="53.071239"/>
  </clipPath>
  <clipPath id="p1a104c902b">
   <rect height="84.326694" width="267.339" x="43.189875" y="163.908545"/>
  </clipPath>
 </defs>
</svg>
