<?xml version="1.0" encoding="utf-8" standalone="no"?>
<!DOCTYPE svg PUBLIC "-//W3C//DTD SVG 1.1//EN"
  "http://www.w3.org/Graphics/SVG/1.1/DTD/svg11.dtd">
<svg xmlns:xlink="http://www.w3.org/1999/xlink" width="318.133875pt" height="281.646775pt" viewBox="0 0 318.133875 281.646775" xmlns="http://www.w3.org/2000/svg" version="1.1">
 <metadata>
  <rdf:RDF xmlns:dc="http://purl.org/dc/elements/1.1/" xmlns:cc="http://creativecommons.org/ns#" xmlns:rdf="http://www.w3.org/1999/02/22-rdf-syntax-ns#">
   <cc:Work>
    <dc:type rdf:resource="http://purl.org/dc/dcmitype/StillImage"/>
    <dc:date>2023-11-07T13:41:21.789969</dc:date>
    <dc:format>image/svg+xml</dc:format>
    <dc:creator>
     <cc:Agent>
      <dc:title>Matplotlib v3.8.0, https://matplotlib.org/</dc:title>
     </cc:Agent>
    </dc:creator>
   </cc:Work>
  </rdf:RDF>
 </metadata>
 <defs>
  <style type="text/css">*{stroke-linejoin: round; stroke-linecap: butt}</style>
 </defs>
 <g id="figure_1">
  <g id="patch_1">
   <path d="M 0 281.646775 
L 318.133875 281.646775 
L 318.133875 0 
L 0 0 
z
" style="fill: #ffffff"/>
  </g>
  <g id="axes_1">
   <g id="patch_2">
    <path d="M 43.189875 133.952455 
L 310.933875 133.952455 
L 310.933875 48.6859 
L 43.189875 48.6859 
z
" style="fill: #eaeaf2"/>
   </g>
   <g id="matplotlib.axis_1">
    <g id="xtick_1">
     <g id="line2d_1">
      <path d="M 55.360057 133.952455 
L 55.360057 48.6859 
" clip-path="url(#pc4c9d46074)" style="fill: none; stroke: #ffffff; stroke-width: 0.8; stroke-linecap: round"/>
     </g>
    </g>
    <g id="xtick_2">
     <g id="line2d_2">
      <path d="M 104.040784 133.952455 
L 104.040784 48.6859 
" clip-path="url(#pc4c9d46074)" style="fill: none; stroke: #ffffff; stroke-width: 0.8; stroke-linecap: round"/>
     </g>
    </g>
    <g id="xtick_3">
     <g id="line2d_3">
      <path d="M 152.721511 133.952455 
L 152.721511 48.6859 
" clip-path="url(#pc4c9d46074)" style="fill: none; stroke: #ffffff; stroke-width: 0.8; stroke-linecap: round"/>
     </g>
    </g>
    <g id="xtick_4">
     <g id="line2d_4">
      <path d="M 201.402239 133.952455 
L 201.402239 48.6859 
" clip-path="url(#pc4c9d46074)" style="fill: none; stroke: #ffffff; stroke-width: 0.8; stroke-linecap: round"/>
     </g>
    </g>
    <g id="xtick_5">
     <g id="line2d_5">
      <path d="M 250.082966 133.952455 
L 250.082966 48.6859 
" clip-path="url(#pc4c9d46074)" style="fill: none; stroke: #ffffff; stroke-width: 0.8; stroke-linecap: round"/>
     </g>
    </g>
    <g id="xtick_6">
     <g id="line2d_6">
      <path d="M 298.763693 133.952455 
L 298.763693 48.6859 
" clip-path="url(#pc4c9d46074)" style="fill: none; stroke: #ffffff; stroke-width: 0.8; stroke-linecap: round"/>
     </g>
    </g>
    <g id="xtick_7">
     <g id="line2d_7">
      <path d="M 43.189875 133.952455 
L 43.189875 48.6859 
" clip-path="url(#pc4c9d46074)" style="fill: none; stroke: #ffffff; stroke-width: 0.5; stroke-linecap: round"/>
     </g>
    </g>
    <g id="xtick_8">
     <g id="line2d_8">
      <path d="M 67.530239 133.952455 
L 67.530239 48.6859 
" clip-path="url(#pc4c9d46074)" style="fill: none; stroke: #ffffff; stroke-width: 0.5; stroke-linecap: round"/>
     </g>
    </g>
    <g id="xtick_9">
     <g id="line2d_9">
      <path d="M 79.70042 133.952455 
L 79.70042 48.6859 
" clip-path="url(#pc4c9d46074)" style="fill: none; stroke: #ffffff; stroke-width: 0.5; stroke-linecap: round"/>
     </g>
    </g>
    <g id="xtick_10">
     <g id="line2d_10">
      <path d="M 91.870602 133.952455 
L 91.870602 48.6859 
" clip-path="url(#pc4c9d46074)" style="fill: none; stroke: #ffffff; stroke-width: 0.5; stroke-linecap: round"/>
     </g>
    </g>
    <g id="xtick_11">
     <g id="line2d_11">
      <path d="M 116.210966 133.952455 
L 116.210966 48.6859 
" clip-path="url(#pc4c9d46074)" style="fill: none; stroke: #ffffff; stroke-width: 0.5; stroke-linecap: round"/>
     </g>
    </g>
    <g id="xtick_12">
     <g id="line2d_12">
      <path d="M 128.381148 133.952455 
L 128.381148 48.6859 
" clip-path="url(#pc4c9d46074)" style="fill: none; stroke: #ffffff; stroke-width: 0.5; stroke-linecap: round"/>
     </g>
    </g>
    <g id="xtick_13">
     <g id="line2d_13">
      <path d="M 140.55133 133.952455 
L 140.55133 48.6859 
" clip-path="url(#pc4c9d46074)" style="fill: none; stroke: #ffffff; stroke-width: 0.5; stroke-linecap: round"/>
     </g>
    </g>
    <g id="xtick_14">
     <g id="line2d_14">
      <path d="M 164.891693 133.952455 
L 164.891693 48.6859 
" clip-path="url(#pc4c9d46074)" style="fill: none; stroke: #ffffff; stroke-width: 0.5; stroke-linecap: round"/>
     </g>
    </g>
    <g id="xtick_15">
     <g id="line2d_15">
      <path d="M 177.061875 133.952455 
L 177.061875 48.6859 
" clip-path="url(#pc4c9d46074)" style="fill: none; stroke: #ffffff; stroke-width: 0.5; stroke-linecap: round"/>
     </g>
    </g>
    <g id="xtick_16">
     <g id="line2d_16">
      <path d="M 189.232057 133.952455 
L 189.232057 48.6859 
" clip-path="url(#pc4c9d46074)" style="fill: none; stroke: #ffffff; stroke-width: 0.5; stroke-linecap: round"/>
     </g>
    </g>
    <g id="xtick_17">
     <g id="line2d_17">
      <path d="M 213.57242 133.952455 
L 213.57242 48.6859 
" clip-path="url(#pc4c9d46074)" style="fill: none; stroke: #ffffff; stroke-width: 0.5; stroke-linecap: round"/>
     </g>
    </g>
    <g id="xtick_18">
     <g id="line2d_18">
      <path d="M 225.742602 133.952455 
L 225.742602 48.6859 
" clip-path="url(#pc4c9d46074)" style="fill: none; stroke: #ffffff; stroke-width: 0.5; stroke-linecap: round"/>
     </g>
    </g>
    <g id="xtick_19">
     <g id="line2d_19">
      <path d="M 237.912784 133.952455 
L 237.912784 48.6859 
" clip-path="url(#pc4c9d46074)" style="fill: none; stroke: #ffffff; stroke-width: 0.5; stroke-linecap: round"/>
     </g>
    </g>
    <g id="xtick_20">
     <g id="line2d_20">
      <path d="M 262.253148 133.952455 
L 262.253148 48.6859 
" clip-path="url(#pc4c9d46074)" style="fill: none; stroke: #ffffff; stroke-width: 0.5; stroke-linecap: round"/>
     </g>
    </g>
    <g id="xtick_21">
     <g id="line2d_21">
      <path d="M 274.42333 133.952455 
L 274.42333 48.6859 
" clip-path="url(#pc4c9d46074)" style="fill: none; stroke: #ffffff; stroke-width: 0.5; stroke-linecap: round"/>
     </g>
    </g>
    <g id="xtick_22">
     <g id="line2d_22">
      <path d="M 286.593511 133.952455 
L 286.593511 48.6859 
" clip-path="url(#pc4c9d46074)" style="fill: none; stroke: #ffffff; stroke-width: 0.5; stroke-linecap: round"/>
     </g>
    </g>
    <g id="xtick_23">
     <g id="line2d_23">
      <path d="M 310.933875 133.952455 
L 310.933875 48.6859 
" clip-path="url(#pc4c9d46074)" style="fill: none; stroke: #ffffff; stroke-width: 0.5; stroke-linecap: round"/>
     </g>
    </g>
   </g>
   <g id="matplotlib.axis_2">
    <g id="ytick_1">
     <g id="line2d_24">
      <path d="M 43.189875 131.710282 
L 310.933875 131.710282 
" clip-path="url(#pc4c9d46074)" style="fill: none; stroke: #ffffff; stroke-width: 0.8; stroke-linecap: round"/>
     </g>
     <g id="text_1">
      <!-- 0 -->
      <g style="fill: #262626" transform="translate(29.99625 134.85972) scale(0.088 -0.088)">
       <defs>
        <path id="ArialMT-30" d="M 266 2259 
Q 266 3072 433 3567 
Q 600 4063 929 4331 
Q 1259 4600 1759 4600 
Q 2128 4600 2406 4451 
Q 2684 4303 2865 4023 
Q 3047 3744 3150 3342 
Q 3253 2941 3253 2259 
Q 3253 1453 3087 958 
Q 2922 463 2592 192 
Q 2263 -78 1759 -78 
Q 1097 -78 719 397 
Q 266 969 266 2259 
z
M 844 2259 
Q 844 1131 1108 757 
Q 1372 384 1759 384 
Q 2147 384 2411 759 
Q 2675 1134 2675 2259 
Q 2675 3391 2411 3762 
Q 2147 4134 1753 4134 
Q 1366 4134 1134 3806 
Q 844 3388 844 2259 
z
" transform="scale(0.015625)"/>
       </defs>
       <use xlink:href="#ArialMT-30"/>
      </g>
     </g>
    </g>
    <g id="ytick_2">
     <g id="line2d_25">
      <path d="M 43.189875 91.426578 
L 310.933875 91.426578 
" clip-path="url(#pc4c9d46074)" style="fill: none; stroke: #ffffff; stroke-width: 0.8; stroke-linecap: round"/>
     </g>
     <g id="text_2">
      <!-- 100 -->
      <g style="fill: #262626" transform="translate(20.209 94.576016) scale(0.088 -0.088)">
       <defs>
        <path id="ArialMT-31" d="M 2384 0 
L 1822 0 
L 1822 3584 
Q 1619 3391 1289 3197 
Q 959 3003 697 2906 
L 697 3450 
Q 1169 3672 1522 3987 
Q 1875 4303 2022 4600 
L 2384 4600 
L 2384 0 
z
" transform="scale(0.015625)"/>
       </defs>
       <use xlink:href="#ArialMT-31"/>
       <use xlink:href="#ArialMT-30" x="55.615234"/>
       <use xlink:href="#ArialMT-30" x="111.230469"/>
      </g>
     </g>
    </g>
    <g id="ytick_3">
     <g id="line2d_26">
      <path d="M 43.189875 51.142874 
L 310.933875 51.142874 
" clip-path="url(#pc4c9d46074)" style="fill: none; stroke: #ffffff; stroke-width: 0.8; stroke-linecap: round"/>
     </g>
     <g id="text_3">
      <!-- 200 -->
      <g style="fill: #262626" transform="translate(20.209 54.292312) scale(0.088 -0.088)">
       <defs>
        <path id="ArialMT-32" d="M 3222 541 
L 3222 0 
L 194 0 
Q 188 203 259 391 
Q 375 700 629 1000 
Q 884 1300 1366 1694 
Q 2113 2306 2375 2664 
Q 2638 3022 2638 3341 
Q 2638 3675 2398 3904 
Q 2159 4134 1775 4134 
Q 1369 4134 1125 3890 
Q 881 3647 878 3216 
L 300 3275 
Q 359 3922 746 4261 
Q 1134 4600 1788 4600 
Q 2447 4600 2831 4234 
Q 3216 3869 3216 3328 
Q 3216 3053 3103 2787 
Q 2991 2522 2730 2228 
Q 2469 1934 1863 1422 
Q 1356 997 1212 845 
Q 1069 694 975 541 
L 3222 541 
z
" transform="scale(0.015625)"/>
       </defs>
       <use xlink:href="#ArialMT-32"/>
       <use xlink:href="#ArialMT-30" x="55.615234"/>
       <use xlink:href="#ArialMT-30" x="111.230469"/>
      </g>
     </g>
    </g>
    <g id="text_4">
     <!-- Position (cm) -->
     <g style="fill: #262626" transform="translate(14.1885 119.323427) rotate(-90) scale(0.096 -0.096)">
      <defs>
       <path id="Arial-ItalicMT-50" d="M 275 0 
L 1234 4581 
L 3147 4581 
Q 3644 4581 3892 4467 
Q 4141 4353 4303 4076 
Q 4466 3800 4466 3456 
Q 4466 3172 4350 2878 
Q 4234 2584 4057 2393 
Q 3881 2203 3700 2106 
Q 3519 2009 3313 1963 
Q 2872 1859 2422 1859 
L 1275 1859 
L 888 0 
L 275 0 
z
M 1384 2378 
L 2394 2378 
Q 2981 2378 3256 2504 
Q 3531 2631 3697 2890 
Q 3863 3150 3863 3441 
Q 3863 3666 3775 3808 
Q 3688 3950 3528 4017 
Q 3369 4084 2916 4084 
L 1741 4084 
L 1384 2378 
z
" transform="scale(0.015625)"/>
       <path id="Arial-ItalicMT-6f" d="M 313 1259 
Q 313 2231 884 2869 
Q 1356 3394 2122 3394 
Q 2722 3394 3089 3019 
Q 3456 2644 3456 2006 
Q 3456 1434 3225 942 
Q 2994 450 2567 187 
Q 2141 -75 1669 -75 
Q 1281 -75 964 90 
Q 647 256 480 559 
Q 313 863 313 1259 
z
M 878 1316 
Q 878 847 1103 605 
Q 1328 363 1675 363 
Q 1856 363 2034 436 
Q 2213 509 2366 659 
Q 2519 809 2626 1001 
Q 2734 1194 2800 1416 
Q 2897 1725 2897 2009 
Q 2897 2459 2670 2707 
Q 2444 2956 2100 2956 
Q 1834 2956 1615 2829 
Q 1397 2703 1220 2459 
Q 1044 2216 961 1892 
Q 878 1569 878 1316 
z
" transform="scale(0.015625)"/>
       <path id="Arial-ItalicMT-73" d="M 266 1134 
L 831 1169 
Q 831 925 906 753 
Q 981 581 1182 472 
Q 1384 363 1653 363 
Q 2028 363 2215 513 
Q 2403 663 2403 866 
Q 2403 1013 2291 1144 
Q 2175 1275 1726 1467 
Q 1278 1659 1153 1738 
Q 944 1866 837 2039 
Q 731 2213 731 2438 
Q 731 2831 1043 3112 
Q 1356 3394 1919 3394 
Q 2544 3394 2870 3105 
Q 3197 2816 3209 2344 
L 2656 2306 
Q 2644 2606 2444 2781 
Q 2244 2956 1878 2956 
Q 1584 2956 1421 2822 
Q 1259 2688 1259 2531 
Q 1259 2375 1400 2256 
Q 1494 2175 1884 2006 
Q 2534 1725 2703 1563 
Q 2972 1303 2972 931 
Q 2972 684 2820 446 
Q 2669 209 2358 67 
Q 2047 -75 1625 -75 
Q 1050 -75 647 209 
Q 244 494 266 1134 
z
" transform="scale(0.015625)"/>
       <path id="Arial-ItalicMT-69" d="M 1016 3941 
L 1150 4581 
L 1713 4581 
L 1578 3941 
L 1016 3941 
z
M 191 0 
L 884 3319 
L 1450 3319 
L 756 0 
L 191 0 
z
" transform="scale(0.015625)"/>
       <path id="Arial-ItalicMT-74" d="M 1534 459 
L 1441 -3 
Q 1238 -56 1047 -56 
Q 709 -56 509 109 
Q 359 234 359 450 
Q 359 559 441 953 
L 844 2881 
L 397 2881 
L 488 3319 
L 934 3319 
L 1106 4134 
L 1753 4525 
L 1500 3319 
L 2056 3319 
L 1963 2881 
L 1409 2881 
L 1025 1047 
Q 953 697 953 628 
Q 953 528 1011 475 
Q 1069 422 1200 422 
Q 1388 422 1534 459 
z
" transform="scale(0.015625)"/>
       <path id="Arial-ItalicMT-6e" d="M 213 0 
L 906 3319 
L 1419 3319 
L 1297 2741 
Q 1631 3081 1922 3237 
Q 2213 3394 2516 3394 
Q 2919 3394 3148 3175 
Q 3378 2956 3378 2591 
Q 3378 2406 3297 2009 
L 2875 0 
L 2309 0 
L 2750 2103 
Q 2816 2409 2816 2556 
Q 2816 2722 2702 2825 
Q 2588 2928 2372 2928 
Q 1938 2928 1598 2615 
Q 1259 2303 1100 1544 
L 778 0 
L 213 0 
z
" transform="scale(0.015625)"/>
       <path id="Arial-ItalicMT-20" transform="scale(0.015625)"/>
       <path id="Arial-ItalicMT-28" d="M 1031 -1347 
Q 541 -272 541 863 
Q 541 1619 739 2270 
Q 938 2922 1344 3559 
Q 1613 3984 2203 4659 
L 2644 4659 
Q 2278 4269 1870 3559 
Q 1463 2850 1278 2165 
Q 1094 1481 1094 791 
Q 1094 -241 1453 -1347 
L 1031 -1347 
z
" transform="scale(0.015625)"/>
       <path id="Arial-ItalicMT-63" d="M 2503 1209 
L 3069 1150 
Q 2856 528 2464 226 
Q 2072 -75 1572 -75 
Q 1031 -75 695 275 
Q 359 625 359 1253 
Q 359 1797 575 2322 
Q 791 2847 1192 3120 
Q 1594 3394 2109 3394 
Q 2644 3394 2956 3092 
Q 3269 2791 3269 2294 
L 2713 2256 
Q 2709 2572 2529 2750 
Q 2350 2928 2056 2928 
Q 1716 2928 1466 2712 
Q 1216 2497 1073 2058 
Q 931 1619 931 1213 
Q 931 788 1118 575 
Q 1306 363 1581 363 
Q 1856 363 2107 572 
Q 2359 781 2503 1209 
z
" transform="scale(0.015625)"/>
       <path id="Arial-ItalicMT-6d" d="M 209 0 
L 903 3319 
L 1469 3319 
L 1353 2772 
Q 1669 3125 1917 3259 
Q 2166 3394 2456 3394 
Q 2766 3394 2973 3230 
Q 3181 3066 3247 2772 
Q 3500 3084 3779 3239 
Q 4059 3394 4369 3394 
Q 4784 3394 4992 3197 
Q 5200 3000 5200 2644 
Q 5200 2491 5128 2138 
L 4681 0 
L 4116 0 
L 4572 2194 
Q 4631 2463 4631 2578 
Q 4631 2741 4528 2834 
Q 4425 2928 4238 2928 
Q 3984 2928 3721 2775 
Q 3459 2622 3314 2373 
Q 3169 2125 3059 1609 
L 2722 0 
L 2156 0 
L 2625 2241 
Q 2675 2469 2675 2566 
Q 2675 2728 2573 2828 
Q 2472 2928 2309 2928 
Q 2069 2928 1805 2775 
Q 1541 2622 1375 2348 
Q 1209 2075 1103 1569 
L 775 0 
L 209 0 
z
" transform="scale(0.015625)"/>
       <path id="Arial-ItalicMT-29" d="M 1269 4659 
Q 1763 3584 1763 2453 
Q 1763 1694 1564 1044 
Q 1366 394 959 -247 
Q 688 -672 100 -1347 
L -341 -1347 
Q 22 -953 431 -243 
Q 841 466 1023 1148 
Q 1206 1831 1206 2525 
Q 1206 3556 847 4659 
L 1269 4659 
z
" transform="scale(0.015625)"/>
      </defs>
      <use xlink:href="#Arial-ItalicMT-50"/>
      <use xlink:href="#Arial-ItalicMT-6f" x="66.699219"/>
      <use xlink:href="#Arial-ItalicMT-73" x="122.314453"/>
      <use xlink:href="#Arial-ItalicMT-69" x="172.314453"/>
      <use xlink:href="#Arial-ItalicMT-74" x="194.53125"/>
      <use xlink:href="#Arial-ItalicMT-69" x="222.314453"/>
      <use xlink:href="#Arial-ItalicMT-6f" x="244.53125"/>
      <use xlink:href="#Arial-ItalicMT-6e" x="300.146484"/>
      <use xlink:href="#Arial-ItalicMT-20" x="355.761719"/>
      <use xlink:href="#Arial-ItalicMT-28" x="383.544922"/>
      <use xlink:href="#Arial-ItalicMT-63" x="416.845703"/>
      <use xlink:href="#Arial-ItalicMT-6d" x="466.845703"/>
      <use xlink:href="#Arial-ItalicMT-29" x="550.146484"/>
     </g>
    </g>
   </g>
   <g id="PolyCollection_1"/>
   <g id="line2d_27">
    <path d="M 55.360057 93.207417 
L 55.60346 92.348452 
L 55.76573 92.031762 
L 56.009133 91.500902 
L 56.65821 90.762721 
L 56.820479 90.653353 
L 56.982748 90.546267 
L 57.307286 90.441465 
L 57.469555 90.387923 
L 58.037497 90.122493 
L 63.79805 90.12021 
L 63.960319 90.226153 
L 64.52826 90.225012 
L 64.609395 90.329814 
L 64.771664 90.276271 
L 64.852799 90.222729 
L 65.015068 90.327531 
L 65.664144 90.432333 
L 66.069817 90.86524 
L 66.556624 90.970042 
L 67.043431 91.717356 
L 67.854777 93.959297 
L 68.666122 98.770142 
L 68.828391 99.627965 
L 69.234064 102.73572 
L 69.558602 105.410568 
L 70.77562 114.314624 
L 70.856755 114.314624 
L 71.100159 116.998605 
L 72.317177 124.385203 
L 73.371926 128.137753 
L 73.777599 128.996717 
L 74.021002 129.106086 
L 74.183271 129.427342 
L 74.264406 129.427342 
L 74.426675 129.643795 
L 74.994617 129.646078 
L 75.156886 129.53671 
L 75.23802 129.643795 
L 75.40029 129.53671 
L 75.724828 129.646078 
L 75.887097 129.643795 
L 79.375882 129.646078 
L 79.457017 129.862532 
L 79.538151 129.808989 
L 79.70042 129.862532 
L 79.943824 129.644937 
L 80.106093 129.753163 
L 80.187228 129.699621 
L 80.349497 129.862532 
L 80.674035 129.753163 
L 84.811897 129.860249 
L 84.974166 129.965051 
L 86.11005 129.904659 
L 86.84026 129.533285 
L 86.921395 129.534427 
L 87.813875 126.839031 
L 88.057279 125.605268 
L 89.355431 117.614861 
L 89.5177 116.328696 
L 89.923373 113.120705 
L 90.247911 110.54381 
L 90.41018 109.477524 
L 90.815853 105.51537 
L 90.896988 105.248799 
L 91.30266 102.195728 
L 91.383795 102.195728 
L 91.789468 99.623399 
L 91.951737 99.195058 
L 92.600813 95.663528 
L 92.681948 95.5029 
L 92.925351 94.485591 
L 93.006486 94.485591 
L 93.24989 93.528673 
L 93.817831 91.92696 
L 93.898966 91.873418 
L 94.14237 91.391534 
L 94.710311 90.75473 
L 94.87258 90.702329 
L 95.278253 90.12021 
L 102.336959 90.220446 
L 102.499228 90.326389 
L 102.986035 90.322965 
L 103.148304 90.43005 
L 103.310573 90.537135 
L 103.553977 90.700046 
L 103.79738 90.65107 
L 104.040784 90.760438 
L 104.527591 91.394959 
L 104.770995 92.138848 
L 104.85213 92.138848 
L 105.825744 97.055636 
L 106.880493 104.234914 
L 107.123897 106.269533 
L 107.448435 109.056032 
L 108.989991 120.532417 
L 109.071126 120.747729 
L 109.395664 122.990812 
L 109.639068 124.063947 
L 109.801337 124.922912 
L 110.04474 125.884396 
L 110.125875 125.992623 
L 110.612682 127.492958 
L 111.09949 128.568377 
L 111.342893 128.942033 
L 111.505162 129.210888 
L 111.99197 129.697338 
L 112.154239 129.75088 
L 112.316508 129.643795 
L 112.478777 129.753163 
L 112.641046 129.644937 
L 119.212944 129.643795 
L 119.375213 129.643795 
L 120.592231 129.744031 
L 120.91677 129.848833 
L 121.64698 129.741748 
L 121.80925 129.639229 
L 121.890384 129.639229 
L 122.133788 129.099237 
L 122.214922 129.099237 
L 122.70173 127.646737 
L 123.026268 125.872981 
L 123.107402 125.872981 
L 123.350806 124.258712 
L 123.513075 123.615059 
L 123.918748 121.682958 
L 124.32442 118.896459 
L 124.48669 118.361033 
L 124.892362 114.29636 
L 124.973497 114.29636 
L 125.2169 112.045287 
L 125.622573 108.353129 
L 125.865977 105.836626 
L 125.947111 105.836626 
L 126.352784 102.731154 
L 126.596188 101.124875 
L 126.758457 100.480081 
L 127.082995 98.771283 
L 127.650937 95.611127 
L 127.813206 95.128102 
L 128.300013 93.362337 
L 129.111359 91.546454 
L 129.435897 90.86524 
L 130.328377 90.389064 
L 130.409511 90.441465 
L 130.57178 90.332097 
L 130.896319 90.225012 
L 131.220857 90.12021 
L 138.036159 90.225012 
L 138.198428 90.329814 
L 139.739984 90.427767 
L 140.064522 90.753589 
L 140.713599 90.857249 
L 141.119271 91.496336 
L 141.44381 92.460103 
L 141.524944 92.513646 
L 141.849482 93.633475 
L 141.930617 93.794103 
L 142.417424 96.091869 
L 142.498559 96.30604 
L 143.147635 100.106424 
L 143.309904 100.80362 
L 143.553308 102.949891 
L 144.040115 106.050796 
L 144.283519 107.766443 
L 144.526922 110.441291 
L 144.932595 112.586421 
L 145.01373 112.801733 
L 145.662806 117.634267 
L 146.230748 120.744305 
L 146.474151 122.719674 
L 146.79869 123.526238 
L 147.285497 126.420964 
L 147.366631 126.526908 
L 147.69117 127.490675 
L 147.934573 127.921299 
L 148.502515 129.210888 
L 148.58365 129.210888 
L 148.745919 129.427342 
L 148.908188 129.53671 
L 148.989322 129.429625 
L 149.232726 129.643795 
L 156.61597 129.746314 
L 156.778239 129.853399 
L 157.832988 129.744031 
L 157.995257 129.532144 
L 158.157526 129.422775 
L 158.806602 128.875934 
L 159.13114 128.016969 
L 159.617948 126.458525 
L 160.9161 118.04206 
L 161.240639 115.364929 
L 162.295388 106.586223 
L 163.350137 99.090256 
L 163.674675 97.58878 
L 164.64829 93.414738 
L 164.729424 93.307653 
L 165.216231 91.813026 
L 165.297366 91.705941 
L 165.54077 91.072561 
L 165.946442 90.648787 
L 166.43325 90.546267 
L 166.595519 90.441465 
L 166.757788 90.33438 
L 167.001191 90.122493 
L 168.867286 90.015407 
L 168.94842 89.908322 
L 169.11069 90.015407 
L 173.735359 90.117926 
L 174.059897 90.225012 
L 175.033511 90.327531 
L 176.007126 90.918783 
L 176.169395 91.186496 
L 176.331664 91.500902 
L 176.575068 91.92696 
L 176.737337 92.138848 
L 177.224144 94.483308 
L 177.710951 96.573753 
L 178.03549 98.769 
L 178.603431 101.775378 
L 178.92797 104.777189 
L 180.226122 115.764841 
L 180.55066 118.383863 
L 180.631795 118.651577 
L 180.875199 120.155336 
L 181.037468 120.956192 
L 181.44314 123.528521 
L 181.524275 123.528521 
L 181.848813 124.925195 
L 181.929948 125.032281 
L 182.254486 126.585017 
L 182.49789 127.173985 
L 182.822428 128.244838 
L 182.903562 128.299522 
L 183.146966 128.730146 
L 183.471504 129.213171 
L 183.796042 129.322539 
L 183.958311 129.538993 
L 184.039446 129.37494 
L 184.12058 129.429625 
L 184.28285 129.646078 
L 186.716886 129.753163 
L 186.79802 129.862532 
L 186.96029 129.753163 
L 192.477439 129.696196 
L 192.801977 129.529861 
L 193.20765 129.741748 
L 193.369919 129.63238 
L 193.613322 129.525295 
L 193.775591 129.418209 
L 193.856726 129.420492 
L 194.83034 128.014686 
L 195.317148 126.563327 
L 195.88509 123.831512 
L 196.209628 122.115865 
L 197.345511 113.975104 
L 197.67005 111.136204 
L 197.832319 110.231687 
L 197.913453 109.856889 
L 198.237991 106.483704 
L 199.211606 99.356827 
L 199.45501 98.232432 
L 200.022951 95.663528 
L 200.104086 95.449358 
L 200.428624 93.954731 
L 201.23997 92.029479 
L 201.564508 91.494053 
L 201.807911 90.970042 
L 202.051315 90.862957 
L 202.375853 90.545126 
L 202.781526 90.441465 
L 202.943795 90.229578 
L 203.836275 90.12021 
L 203.91741 90.013124 
L 204.079679 90.12021 
L 209.27229 90.225012 
L 209.596828 90.327531 
L 211.138384 90.432333 
L 211.462922 90.755872 
L 211.94973 90.758155 
L 212.111999 90.972325 
L 212.355402 91.078269 
L 213.166748 93.419304 
L 214.708304 102.093209 
L 215.681919 110.513098 
L 215.763053 110.780812 
L 216.168726 114.42171 
L 216.24986 114.42171 
L 216.574399 117.261752 
L 216.817802 118.174259 
L 217.061206 120.206596 
L 217.629148 123.583205 
L 217.791417 123.742692 
L 218.03482 125.779594 
L 218.115955 125.886679 
L 218.278224 126.424389 
L 218.602762 127.388156 
L 218.9273 128.677745 
L 219.738646 129.644937 
L 220.225453 129.643795 
L 220.387722 129.535568 
L 220.468857 129.643795 
L 220.631126 129.53671 
L 220.955664 129.646078 
L 221.036799 129.753163 
L 221.199068 129.646078 
L 226.310544 129.643795 
L 226.472813 129.534427 
L 227.446428 129.644937 
L 229.231388 129.753163 
L 229.474791 129.860249 
L 229.63706 129.857966 
L 230.205002 129.797574 
L 230.610675 129.636946 
L 230.69181 129.636946 
L 230.854079 129.421634 
L 231.503155 128.395192 
L 231.827693 127.265089 
L 232.233366 126.087152 
L 232.47677 124.364655 
L 233.288115 119.54582 
L 235.559882 102.202577 
L 235.722151 101.667151 
L 236.04669 99.623399 
L 236.127824 99.623399 
L 236.290093 98.450028 
L 236.371228 98.450028 
L 236.695766 97.106896 
L 236.93917 95.449358 
L 237.263708 94.485591 
L 237.344842 94.379647 
L 237.66938 93.093483 
L 238.642995 90.758155 
L 238.886399 90.541701 
L 239.210937 90.438041 
L 239.45434 90.28312 
L 239.860013 90.122493 
L 245.052624 90.225012 
L 245.296028 90.329814 
L 245.458297 90.329814 
L 246.513046 90.325248 
L 246.675315 90.432333 
L 246.75645 90.432333 
L 246.918719 90.648787 
L 247.162122 90.648787 
L 247.324391 90.867523 
L 247.730064 90.974608 
L 247.973468 91.3961 
L 248.216871 91.819875 
L 248.784813 93.52639 
L 249.028217 94.599525 
L 249.758428 97.593346 
L 250.001831 98.984312 
L 250.1641 99.846702 
L 250.245235 99.846702 
L 250.569773 102.744852 
L 250.650908 102.744852 
L 250.975446 105.689697 
L 251.543388 110.676009 
L 251.624522 110.676009 
L 252.922675 120.853673 
L 254.139693 126.693243 
L 254.220828 126.745644 
L 254.464231 127.602326 
L 255.113308 129.103803 
L 255.275577 129.210888 
L 255.437846 129.320256 
L 255.600115 129.429625 
L 255.68125 129.429625 
L 255.762384 129.214313 
L 255.924653 129.53671 
L 256.086922 129.643795 
L 258.926631 129.753163 
L 259.0889 129.860249 
L 259.170035 129.753163 
L 259.25117 129.860249 
L 259.413439 129.75088 
L 260.14365 129.75088 
L 260.224784 129.643795 
L 260.387053 129.860249 
L 260.549322 129.753163 
L 266.715548 129.860249 
L 266.958951 130.076702 
L 267.12122 129.967334 
L 267.770297 129.967334 
L 267.932566 129.860249 
L 269.149584 129.857966 
L 269.311853 129.962768 
L 269.474122 129.853399 
L 270.204333 129.746314 
L 270.366602 129.64037 
L 270.528871 129.532144 
L 270.69114 129.425058 
L 271.259082 128.133186 
L 271.340217 128.133186 
L 271.827024 126.520059 
L 272.962908 121.897129 
L 273.287446 119.697315 
L 273.449715 118.896459 
L 273.774253 115.795553 
L 273.855388 115.795553 
L 274.26106 111.728597 
L 274.342195 111.728597 
L 274.747868 107.771009 
L 274.829002 107.771009 
L 275.15354 106.7537 
L 275.234675 106.593072 
L 275.883751 103.592402 
L 275.964886 103.592402 
L 276.532828 101.229678 
L 276.613962 101.229678 
L 277.263039 98.342942 
L 277.587577 97.646888 
L 277.99325 95.346839 
L 278.398922 94.378505 
L 278.642326 93.419304 
L 279.210268 91.920111 
L 279.534806 91.384685 
L 279.859344 90.810556 
L 280.751824 90.332097 
L 280.914093 90.33438 
L 281.157497 90.12021 
L 284.07834 90.013124 
L 284.159475 89.906039 
L 284.321744 90.013124 
L 284.484013 89.906039 
L 288.865279 90.010841 
L 289.027548 90.115643 
L 290.48797 90.218163 
L 290.812508 90.468789 
L 291.137046 90.755872 
L 291.299315 90.649928 
L 291.461584 90.760438 
L 291.704988 90.867523 
L 292.029526 91.134095 
L 292.435199 92.138848 
L 293.084275 94.059533 
L 294.139024 99.83757 
L 294.463562 102.842805 
L 294.544697 103.110519 
L 295.031504 107.130781 
L 295.437177 109.810195 
L 295.84285 113.350857 
L 296.086253 114.423993 
L 296.167388 114.423993 
L 296.410791 117.103407 
L 296.491926 117.369978 
L 296.654195 119.140309 
L 296.73533 119.408022 
L 296.978733 120.958475 
L 297.141002 121.389099 
L 297.46554 123.526238 
L 298.033482 126.103133 
L 298.114617 126.263761 
L 298.35802 127.283354 
L 298.763693 128.137753 
L 298.763693 128.137753 
" clip-path="url(#pc4c9d46074)" style="fill: none; stroke: #19d3f3; stroke-width: 1.5; stroke-linecap: round"/>
   </g>
   <g id="line2d_28"/>
   <g id="patch_3">
    <path d="M 43.189875 133.952455 
L 43.189875 48.6859 
" style="fill: none; stroke: #ffffff; stroke-linejoin: miter; stroke-linecap: square"/>
   </g>
   <g id="patch_4">
    <path d="M 43.189875 133.952455 
L 310.933875 133.952455 
" style="fill: none; stroke: #ffffff; stroke-linejoin: miter; stroke-linecap: square"/>
   </g>
   <g id="text_5">
    <!-- Animal: m22 -->
    <g style="fill: #262626" transform="translate(150.386625 42.6859) scale(0.096 -0.096)">
     <defs>
      <path id="ArialMT-41" d="M -9 0 
L 1750 4581 
L 2403 4581 
L 4278 0 
L 3588 0 
L 3053 1388 
L 1138 1388 
L 634 0 
L -9 0 
z
M 1313 1881 
L 2866 1881 
L 2388 3150 
Q 2169 3728 2063 4100 
Q 1975 3659 1816 3225 
L 1313 1881 
z
" transform="scale(0.015625)"/>
      <path id="ArialMT-6e" d="M 422 0 
L 422 3319 
L 928 3319 
L 928 2847 
Q 1294 3394 1984 3394 
Q 2284 3394 2536 3286 
Q 2788 3178 2913 3003 
Q 3038 2828 3088 2588 
Q 3119 2431 3119 2041 
L 3119 0 
L 2556 0 
L 2556 2019 
Q 2556 2363 2490 2533 
Q 2425 2703 2258 2804 
Q 2091 2906 1866 2906 
Q 1506 2906 1245 2678 
Q 984 2450 984 1813 
L 984 0 
L 422 0 
z
" transform="scale(0.015625)"/>
      <path id="ArialMT-69" d="M 425 3934 
L 425 4581 
L 988 4581 
L 988 3934 
L 425 3934 
z
M 425 0 
L 425 3319 
L 988 3319 
L 988 0 
L 425 0 
z
" transform="scale(0.015625)"/>
      <path id="ArialMT-6d" d="M 422 0 
L 422 3319 
L 925 3319 
L 925 2853 
Q 1081 3097 1340 3245 
Q 1600 3394 1931 3394 
Q 2300 3394 2536 3241 
Q 2772 3088 2869 2813 
Q 3263 3394 3894 3394 
Q 4388 3394 4653 3120 
Q 4919 2847 4919 2278 
L 4919 0 
L 4359 0 
L 4359 2091 
Q 4359 2428 4304 2576 
Q 4250 2725 4106 2815 
Q 3963 2906 3769 2906 
Q 3419 2906 3187 2673 
Q 2956 2441 2956 1928 
L 2956 0 
L 2394 0 
L 2394 2156 
Q 2394 2531 2256 2718 
Q 2119 2906 1806 2906 
Q 1569 2906 1367 2781 
Q 1166 2656 1075 2415 
Q 984 2175 984 1722 
L 984 0 
L 422 0 
z
" transform="scale(0.015625)"/>
      <path id="ArialMT-61" d="M 2588 409 
Q 2275 144 1986 34 
Q 1697 -75 1366 -75 
Q 819 -75 525 192 
Q 231 459 231 875 
Q 231 1119 342 1320 
Q 453 1522 633 1644 
Q 813 1766 1038 1828 
Q 1203 1872 1538 1913 
Q 2219 1994 2541 2106 
Q 2544 2222 2544 2253 
Q 2544 2597 2384 2738 
Q 2169 2928 1744 2928 
Q 1347 2928 1158 2789 
Q 969 2650 878 2297 
L 328 2372 
Q 403 2725 575 2942 
Q 747 3159 1072 3276 
Q 1397 3394 1825 3394 
Q 2250 3394 2515 3294 
Q 2781 3194 2906 3042 
Q 3031 2891 3081 2659 
Q 3109 2516 3109 2141 
L 3109 1391 
Q 3109 606 3145 398 
Q 3181 191 3288 0 
L 2700 0 
Q 2613 175 2588 409 
z
M 2541 1666 
Q 2234 1541 1622 1453 
Q 1275 1403 1131 1340 
Q 988 1278 909 1158 
Q 831 1038 831 891 
Q 831 666 1001 516 
Q 1172 366 1500 366 
Q 1825 366 2078 508 
Q 2331 650 2450 897 
Q 2541 1088 2541 1459 
L 2541 1666 
z
" transform="scale(0.015625)"/>
      <path id="ArialMT-6c" d="M 409 0 
L 409 4581 
L 972 4581 
L 972 0 
L 409 0 
z
" transform="scale(0.015625)"/>
      <path id="ArialMT-3a" d="M 578 2678 
L 578 3319 
L 1219 3319 
L 1219 2678 
L 578 2678 
z
M 578 0 
L 578 641 
L 1219 641 
L 1219 0 
L 578 0 
z
" transform="scale(0.015625)"/>
      <path id="ArialMT-20" transform="scale(0.015625)"/>
     </defs>
     <use xlink:href="#ArialMT-41"/>
     <use xlink:href="#ArialMT-6e" x="66.699219"/>
     <use xlink:href="#ArialMT-69" x="122.314453"/>
     <use xlink:href="#ArialMT-6d" x="144.53125"/>
     <use xlink:href="#ArialMT-61" x="227.832031"/>
     <use xlink:href="#ArialMT-6c" x="283.447266"/>
     <use xlink:href="#ArialMT-3a" x="305.664062"/>
     <use xlink:href="#ArialMT-20" x="333.447266"/>
     <use xlink:href="#ArialMT-6d" x="361.230469"/>
     <use xlink:href="#ArialMT-32" x="444.53125"/>
     <use xlink:href="#ArialMT-32" x="500.146484"/>
    </g>
   </g>
   <g id="legend_1">
    <g id="patch_5">
     <path d="M 35.861875 31.8059 
L 282.741875 31.8059 
Q 284.501875 31.8059 284.501875 30.0459 
L 284.501875 8.96 
Q 284.501875 7.2 282.741875 7.2 
L 35.861875 7.2 
Q 34.101875 7.2 34.101875 8.96 
L 34.101875 30.0459 
Q 34.101875 31.8059 35.861875 31.8059 
z
" style="fill: #eaeaf2; opacity: 0.8; stroke: #cccccc; stroke-width: 0.8; stroke-linejoin: miter"/>
    </g>
    <g id="line2d_29">
     <path d="M 37.621875 19.572388 
L 46.421875 19.572388 
L 55.221875 19.572388 
" style="fill: none; stroke: #19d3f3; stroke-width: 1.5; stroke-linecap: round"/>
    </g>
    <g id="text_6">
     <!-- Dual-channel -->
     <g style="fill: #262626" transform="translate(62.261875 17.124063) scale(0.088 -0.088)">
      <defs>
       <path id="ArialMT-44" d="M 494 0 
L 494 4581 
L 2072 4581 
Q 2606 4581 2888 4516 
Q 3281 4425 3559 4188 
Q 3922 3881 4101 3404 
Q 4281 2928 4281 2316 
Q 4281 1794 4159 1391 
Q 4038 988 3847 723 
Q 3656 459 3429 307 
Q 3203 156 2883 78 
Q 2563 0 2147 0 
L 494 0 
z
M 1100 541 
L 2078 541 
Q 2531 541 2789 625 
Q 3047 709 3200 863 
Q 3416 1078 3536 1442 
Q 3656 1806 3656 2325 
Q 3656 3044 3420 3430 
Q 3184 3816 2847 3947 
Q 2603 4041 2063 4041 
L 1100 4041 
L 1100 541 
z
" transform="scale(0.015625)"/>
       <path id="ArialMT-75" d="M 2597 0 
L 2597 488 
Q 2209 -75 1544 -75 
Q 1250 -75 995 37 
Q 741 150 617 320 
Q 494 491 444 738 
Q 409 903 409 1263 
L 409 3319 
L 972 3319 
L 972 1478 
Q 972 1038 1006 884 
Q 1059 663 1231 536 
Q 1403 409 1656 409 
Q 1909 409 2131 539 
Q 2353 669 2445 892 
Q 2538 1116 2538 1541 
L 2538 3319 
L 3100 3319 
L 3100 0 
L 2597 0 
z
" transform="scale(0.015625)"/>
       <path id="ArialMT-2d" d="M 203 1375 
L 203 1941 
L 1931 1941 
L 1931 1375 
L 203 1375 
z
" transform="scale(0.015625)"/>
       <path id="ArialMT-63" d="M 2588 1216 
L 3141 1144 
Q 3050 572 2676 248 
Q 2303 -75 1759 -75 
Q 1078 -75 664 370 
Q 250 816 250 1647 
Q 250 2184 428 2587 
Q 606 2991 970 3192 
Q 1334 3394 1763 3394 
Q 2303 3394 2647 3120 
Q 2991 2847 3088 2344 
L 2541 2259 
Q 2463 2594 2264 2762 
Q 2066 2931 1784 2931 
Q 1359 2931 1093 2626 
Q 828 2322 828 1663 
Q 828 994 1084 691 
Q 1341 388 1753 388 
Q 2084 388 2306 591 
Q 2528 794 2588 1216 
z
" transform="scale(0.015625)"/>
       <path id="ArialMT-68" d="M 422 0 
L 422 4581 
L 984 4581 
L 984 2938 
Q 1378 3394 1978 3394 
Q 2347 3394 2619 3248 
Q 2891 3103 3008 2847 
Q 3125 2591 3125 2103 
L 3125 0 
L 2563 0 
L 2563 2103 
Q 2563 2525 2380 2717 
Q 2197 2909 1863 2909 
Q 1613 2909 1392 2779 
Q 1172 2650 1078 2428 
Q 984 2206 984 1816 
L 984 0 
L 422 0 
z
" transform="scale(0.015625)"/>
       <path id="ArialMT-65" d="M 2694 1069 
L 3275 997 
Q 3138 488 2766 206 
Q 2394 -75 1816 -75 
Q 1088 -75 661 373 
Q 234 822 234 1631 
Q 234 2469 665 2931 
Q 1097 3394 1784 3394 
Q 2450 3394 2872 2941 
Q 3294 2488 3294 1666 
Q 3294 1616 3291 1516 
L 816 1516 
Q 847 969 1125 678 
Q 1403 388 1819 388 
Q 2128 388 2347 550 
Q 2566 713 2694 1069 
z
M 847 1978 
L 2700 1978 
Q 2663 2397 2488 2606 
Q 2219 2931 1791 2931 
Q 1403 2931 1139 2672 
Q 875 2413 847 1978 
z
" transform="scale(0.015625)"/>
      </defs>
      <use xlink:href="#ArialMT-44"/>
      <use xlink:href="#ArialMT-75" x="72.216797"/>
      <use xlink:href="#ArialMT-61" x="127.832031"/>
      <use xlink:href="#ArialMT-6c" x="183.447266"/>
      <use xlink:href="#ArialMT-2d" x="205.664062"/>
      <use xlink:href="#ArialMT-63" x="238.964844"/>
      <use xlink:href="#ArialMT-68" x="288.964844"/>
      <use xlink:href="#ArialMT-61" x="344.580078"/>
      <use xlink:href="#ArialMT-6e" x="400.195312"/>
      <use xlink:href="#ArialMT-6e" x="455.810547"/>
      <use xlink:href="#ArialMT-65" x="511.425781"/>
      <use xlink:href="#ArialMT-6c" x="567.041016"/>
     </g>
     <!-- Miniscope -->
     <g style="fill: #262626" transform="translate(62.261875 26.431713) scale(0.088 -0.088)">
      <defs>
       <path id="ArialMT-4d" d="M 475 0 
L 475 4581 
L 1388 4581 
L 2472 1338 
Q 2622 884 2691 659 
Q 2769 909 2934 1394 
L 4031 4581 
L 4847 4581 
L 4847 0 
L 4263 0 
L 4263 3834 
L 2931 0 
L 2384 0 
L 1059 3900 
L 1059 0 
L 475 0 
z
" transform="scale(0.015625)"/>
       <path id="ArialMT-73" d="M 197 991 
L 753 1078 
Q 800 744 1014 566 
Q 1228 388 1613 388 
Q 2000 388 2187 545 
Q 2375 703 2375 916 
Q 2375 1106 2209 1216 
Q 2094 1291 1634 1406 
Q 1016 1563 777 1677 
Q 538 1791 414 1992 
Q 291 2194 291 2438 
Q 291 2659 392 2848 
Q 494 3038 669 3163 
Q 800 3259 1026 3326 
Q 1253 3394 1513 3394 
Q 1903 3394 2198 3281 
Q 2494 3169 2634 2976 
Q 2775 2784 2828 2463 
L 2278 2388 
Q 2241 2644 2061 2787 
Q 1881 2931 1553 2931 
Q 1166 2931 1000 2803 
Q 834 2675 834 2503 
Q 834 2394 903 2306 
Q 972 2216 1119 2156 
Q 1203 2125 1616 2013 
Q 2213 1853 2448 1751 
Q 2684 1650 2818 1456 
Q 2953 1263 2953 975 
Q 2953 694 2789 445 
Q 2625 197 2315 61 
Q 2006 -75 1616 -75 
Q 969 -75 630 194 
Q 291 463 197 991 
z
" transform="scale(0.015625)"/>
       <path id="ArialMT-6f" d="M 213 1659 
Q 213 2581 725 3025 
Q 1153 3394 1769 3394 
Q 2453 3394 2887 2945 
Q 3322 2497 3322 1706 
Q 3322 1066 3130 698 
Q 2938 331 2570 128 
Q 2203 -75 1769 -75 
Q 1072 -75 642 372 
Q 213 819 213 1659 
z
M 791 1659 
Q 791 1022 1069 705 
Q 1347 388 1769 388 
Q 2188 388 2466 706 
Q 2744 1025 2744 1678 
Q 2744 2294 2464 2611 
Q 2184 2928 1769 2928 
Q 1347 2928 1069 2612 
Q 791 2297 791 1659 
z
" transform="scale(0.015625)"/>
       <path id="ArialMT-70" d="M 422 -1272 
L 422 3319 
L 934 3319 
L 934 2888 
Q 1116 3141 1344 3267 
Q 1572 3394 1897 3394 
Q 2322 3394 2647 3175 
Q 2972 2956 3137 2557 
Q 3303 2159 3303 1684 
Q 3303 1175 3120 767 
Q 2938 359 2589 142 
Q 2241 -75 1856 -75 
Q 1575 -75 1351 44 
Q 1128 163 984 344 
L 984 -1272 
L 422 -1272 
z
M 931 1641 
Q 931 1000 1190 694 
Q 1450 388 1819 388 
Q 2194 388 2461 705 
Q 2728 1022 2728 1688 
Q 2728 2322 2467 2637 
Q 2206 2953 1844 2953 
Q 1484 2953 1207 2617 
Q 931 2281 931 1641 
z
" transform="scale(0.015625)"/>
      </defs>
      <use xlink:href="#ArialMT-4d"/>
      <use xlink:href="#ArialMT-69" x="83.300781"/>
      <use xlink:href="#ArialMT-6e" x="105.517578"/>
      <use xlink:href="#ArialMT-69" x="161.132812"/>
      <use xlink:href="#ArialMT-73" x="183.349609"/>
      <use xlink:href="#ArialMT-63" x="233.349609"/>
      <use xlink:href="#ArialMT-6f" x="283.349609"/>
      <use xlink:href="#ArialMT-70" x="338.964844"/>
      <use xlink:href="#ArialMT-65" x="394.580078"/>
     </g>
    </g>
    <g id="line2d_30">
     <path d="M 198.127125 19.572388 
L 206.927125 19.572388 
L 215.727125 19.572388 
" style="fill: none; stroke: #ff97ff; stroke-width: 1.5; stroke-linecap: round"/>
    </g>
    <g id="text_7">
     <!-- Single-channel -->
     <g style="fill: #262626" transform="translate(222.767125 17.126125) scale(0.088 -0.088)">
      <defs>
       <path id="ArialMT-53" d="M 288 1472 
L 859 1522 
Q 900 1178 1048 958 
Q 1197 738 1509 602 
Q 1822 466 2213 466 
Q 2559 466 2825 569 
Q 3091 672 3220 851 
Q 3350 1031 3350 1244 
Q 3350 1459 3225 1620 
Q 3100 1781 2813 1891 
Q 2628 1963 1997 2114 
Q 1366 2266 1113 2400 
Q 784 2572 623 2826 
Q 463 3081 463 3397 
Q 463 3744 659 4045 
Q 856 4347 1234 4503 
Q 1613 4659 2075 4659 
Q 2584 4659 2973 4495 
Q 3363 4331 3572 4012 
Q 3781 3694 3797 3291 
L 3216 3247 
Q 3169 3681 2898 3903 
Q 2628 4125 2100 4125 
Q 1550 4125 1298 3923 
Q 1047 3722 1047 3438 
Q 1047 3191 1225 3031 
Q 1400 2872 2139 2705 
Q 2878 2538 3153 2413 
Q 3553 2228 3743 1945 
Q 3934 1663 3934 1294 
Q 3934 928 3725 604 
Q 3516 281 3123 101 
Q 2731 -78 2241 -78 
Q 1619 -78 1198 103 
Q 778 284 539 648 
Q 300 1013 288 1472 
z
" transform="scale(0.015625)"/>
       <path id="ArialMT-67" d="M 319 -275 
L 866 -356 
Q 900 -609 1056 -725 
Q 1266 -881 1628 -881 
Q 2019 -881 2231 -725 
Q 2444 -569 2519 -288 
Q 2563 -116 2559 434 
Q 2191 0 1641 0 
Q 956 0 581 494 
Q 206 988 206 1678 
Q 206 2153 378 2554 
Q 550 2956 876 3175 
Q 1203 3394 1644 3394 
Q 2231 3394 2613 2919 
L 2613 3319 
L 3131 3319 
L 3131 450 
Q 3131 -325 2973 -648 
Q 2816 -972 2473 -1159 
Q 2131 -1347 1631 -1347 
Q 1038 -1347 672 -1080 
Q 306 -813 319 -275 
z
M 784 1719 
Q 784 1066 1043 766 
Q 1303 466 1694 466 
Q 2081 466 2343 764 
Q 2606 1063 2606 1700 
Q 2606 2309 2336 2618 
Q 2066 2928 1684 2928 
Q 1309 2928 1046 2623 
Q 784 2319 784 1719 
z
" transform="scale(0.015625)"/>
      </defs>
      <use xlink:href="#ArialMT-53"/>
      <use xlink:href="#ArialMT-69" x="66.699219"/>
      <use xlink:href="#ArialMT-6e" x="88.916016"/>
      <use xlink:href="#ArialMT-67" x="144.53125"/>
      <use xlink:href="#ArialMT-6c" x="200.146484"/>
      <use xlink:href="#ArialMT-65" x="222.363281"/>
      <use xlink:href="#ArialMT-2d" x="277.978516"/>
      <use xlink:href="#ArialMT-63" x="311.279297"/>
      <use xlink:href="#ArialMT-68" x="361.279297"/>
      <use xlink:href="#ArialMT-61" x="416.894531"/>
      <use xlink:href="#ArialMT-6e" x="472.509766"/>
      <use xlink:href="#ArialMT-6e" x="528.125"/>
      <use xlink:href="#ArialMT-65" x="583.740234"/>
      <use xlink:href="#ArialMT-6c" x="639.355469"/>
     </g>
     <!-- Miniscope -->
     <g style="fill: #262626" transform="translate(222.767125 26.5369) scale(0.088 -0.088)">
      <use xlink:href="#ArialMT-4d"/>
      <use xlink:href="#ArialMT-69" x="83.300781"/>
      <use xlink:href="#ArialMT-6e" x="105.517578"/>
      <use xlink:href="#ArialMT-69" x="161.132812"/>
      <use xlink:href="#ArialMT-73" x="183.349609"/>
      <use xlink:href="#ArialMT-63" x="233.349609"/>
      <use xlink:href="#ArialMT-6f" x="283.349609"/>
      <use xlink:href="#ArialMT-70" x="338.964844"/>
      <use xlink:href="#ArialMT-65" x="394.580078"/>
     </g>
    </g>
   </g>
  </g>
  <g id="axes_2">
   <g id="patch_6">
    <path d="M 43.189875 245.0899 
L 310.933875 245.0899 
L 310.933875 159.823345 
L 43.189875 159.823345 
z
" style="fill: #eaeaf2"/>
   </g>
   <g id="matplotlib.axis_3">
    <g id="xtick_24">
     <g id="line2d_31">
      <path d="M 55.360057 245.0899 
L 55.360057 159.823345 
" clip-path="url(#peaab24f40c)" style="fill: none; stroke: #ffffff; stroke-width: 0.8; stroke-linecap: round"/>
     </g>
     <g id="text_8">
      <!-- 0 -->
      <g style="fill: #262626" transform="translate(52.913244 259.688775) scale(0.088 -0.088)">
       <use xlink:href="#ArialMT-30"/>
      </g>
     </g>
    </g>
    <g id="xtick_25">
     <g id="line2d_32">
      <path d="M 104.040784 245.0899 
L 104.040784 159.823345 
" clip-path="url(#peaab24f40c)" style="fill: none; stroke: #ffffff; stroke-width: 0.8; stroke-linecap: round"/>
     </g>
     <g id="text_9">
      <!-- 20 -->
      <g style="fill: #262626" transform="translate(99.147159 259.688775) scale(0.088 -0.088)">
       <use xlink:href="#ArialMT-32"/>
       <use xlink:href="#ArialMT-30" x="55.615234"/>
      </g>
     </g>
    </g>
    <g id="xtick_26">
     <g id="line2d_33">
      <path d="M 152.721511 245.0899 
L 152.721511 159.823345 
" clip-path="url(#peaab24f40c)" style="fill: none; stroke: #ffffff; stroke-width: 0.8; stroke-linecap: round"/>
     </g>
     <g id="text_10">
      <!-- 40 -->
      <g style="fill: #262626" transform="translate(147.827886 259.688775) scale(0.088 -0.088)">
       <defs>
        <path id="ArialMT-34" d="M 2069 0 
L 2069 1097 
L 81 1097 
L 81 1613 
L 2172 4581 
L 2631 4581 
L 2631 1613 
L 3250 1613 
L 3250 1097 
L 2631 1097 
L 2631 0 
L 2069 0 
z
M 2069 1613 
L 2069 3678 
L 634 1613 
L 2069 1613 
z
" transform="scale(0.015625)"/>
       </defs>
       <use xlink:href="#ArialMT-34"/>
       <use xlink:href="#ArialMT-30" x="55.615234"/>
      </g>
     </g>
    </g>
    <g id="xtick_27">
     <g id="line2d_34">
      <path d="M 201.402239 245.0899 
L 201.402239 159.823345 
" clip-path="url(#peaab24f40c)" style="fill: none; stroke: #ffffff; stroke-width: 0.8; stroke-linecap: round"/>
     </g>
     <g id="text_11">
      <!-- 60 -->
      <g style="fill: #262626" transform="translate(196.508614 259.688775) scale(0.088 -0.088)">
       <defs>
        <path id="ArialMT-36" d="M 3184 3459 
L 2625 3416 
Q 2550 3747 2413 3897 
Q 2184 4138 1850 4138 
Q 1581 4138 1378 3988 
Q 1113 3794 959 3422 
Q 806 3050 800 2363 
Q 1003 2672 1297 2822 
Q 1591 2972 1913 2972 
Q 2475 2972 2870 2558 
Q 3266 2144 3266 1488 
Q 3266 1056 3080 686 
Q 2894 316 2569 119 
Q 2244 -78 1831 -78 
Q 1128 -78 684 439 
Q 241 956 241 2144 
Q 241 3472 731 4075 
Q 1159 4600 1884 4600 
Q 2425 4600 2770 4297 
Q 3116 3994 3184 3459 
z
M 888 1484 
Q 888 1194 1011 928 
Q 1134 663 1356 523 
Q 1578 384 1822 384 
Q 2178 384 2434 671 
Q 2691 959 2691 1453 
Q 2691 1928 2437 2201 
Q 2184 2475 1800 2475 
Q 1419 2475 1153 2201 
Q 888 1928 888 1484 
z
" transform="scale(0.015625)"/>
       </defs>
       <use xlink:href="#ArialMT-36"/>
       <use xlink:href="#ArialMT-30" x="55.615234"/>
      </g>
     </g>
    </g>
    <g id="xtick_28">
     <g id="line2d_35">
      <path d="M 250.082966 245.0899 
L 250.082966 159.823345 
" clip-path="url(#peaab24f40c)" style="fill: none; stroke: #ffffff; stroke-width: 0.8; stroke-linecap: round"/>
     </g>
     <g id="text_12">
      <!-- 80 -->
      <g style="fill: #262626" transform="translate(245.189341 259.688775) scale(0.088 -0.088)">
       <defs>
        <path id="ArialMT-38" d="M 1131 2484 
Q 781 2613 612 2850 
Q 444 3088 444 3419 
Q 444 3919 803 4259 
Q 1163 4600 1759 4600 
Q 2359 4600 2725 4251 
Q 3091 3903 3091 3403 
Q 3091 3084 2923 2848 
Q 2756 2613 2416 2484 
Q 2838 2347 3058 2040 
Q 3278 1734 3278 1309 
Q 3278 722 2862 322 
Q 2447 -78 1769 -78 
Q 1091 -78 675 323 
Q 259 725 259 1325 
Q 259 1772 486 2073 
Q 713 2375 1131 2484 
z
M 1019 3438 
Q 1019 3113 1228 2906 
Q 1438 2700 1772 2700 
Q 2097 2700 2305 2904 
Q 2513 3109 2513 3406 
Q 2513 3716 2298 3927 
Q 2084 4138 1766 4138 
Q 1444 4138 1231 3931 
Q 1019 3725 1019 3438 
z
M 838 1322 
Q 838 1081 952 856 
Q 1066 631 1291 507 
Q 1516 384 1775 384 
Q 2178 384 2440 643 
Q 2703 903 2703 1303 
Q 2703 1709 2433 1975 
Q 2163 2241 1756 2241 
Q 1359 2241 1098 1978 
Q 838 1716 838 1322 
z
" transform="scale(0.015625)"/>
       </defs>
       <use xlink:href="#ArialMT-38"/>
       <use xlink:href="#ArialMT-30" x="55.615234"/>
      </g>
     </g>
    </g>
    <g id="xtick_29">
     <g id="line2d_36">
      <path d="M 298.763693 245.0899 
L 298.763693 159.823345 
" clip-path="url(#peaab24f40c)" style="fill: none; stroke: #ffffff; stroke-width: 0.8; stroke-linecap: round"/>
     </g>
     <g id="text_13">
      <!-- 100 -->
      <g style="fill: #262626" transform="translate(291.423256 259.688775) scale(0.088 -0.088)">
       <use xlink:href="#ArialMT-31"/>
       <use xlink:href="#ArialMT-30" x="55.615234"/>
       <use xlink:href="#ArialMT-30" x="111.230469"/>
      </g>
     </g>
    </g>
    <g id="xtick_30">
     <g id="line2d_37">
      <path d="M 43.189875 245.0899 
L 43.189875 159.823345 
" clip-path="url(#peaab24f40c)" style="fill: none; stroke: #ffffff; stroke-width: 0.5; stroke-linecap: round"/>
     </g>
    </g>
    <g id="xtick_31">
     <g id="line2d_38">
      <path d="M 67.530239 245.0899 
L 67.530239 159.823345 
" clip-path="url(#peaab24f40c)" style="fill: none; stroke: #ffffff; stroke-width: 0.5; stroke-linecap: round"/>
     </g>
    </g>
    <g id="xtick_32">
     <g id="line2d_39">
      <path d="M 79.70042 245.0899 
L 79.70042 159.823345 
" clip-path="url(#peaab24f40c)" style="fill: none; stroke: #ffffff; stroke-width: 0.5; stroke-linecap: round"/>
     </g>
    </g>
    <g id="xtick_33">
     <g id="line2d_40">
      <path d="M 91.870602 245.0899 
L 91.870602 159.823345 
" clip-path="url(#peaab24f40c)" style="fill: none; stroke: #ffffff; stroke-width: 0.5; stroke-linecap: round"/>
     </g>
    </g>
    <g id="xtick_34">
     <g id="line2d_41">
      <path d="M 116.210966 245.0899 
L 116.210966 159.823345 
" clip-path="url(#peaab24f40c)" style="fill: none; stroke: #ffffff; stroke-width: 0.5; stroke-linecap: round"/>
     </g>
    </g>
    <g id="xtick_35">
     <g id="line2d_42">
      <path d="M 128.381148 245.0899 
L 128.381148 159.823345 
" clip-path="url(#peaab24f40c)" style="fill: none; stroke: #ffffff; stroke-width: 0.5; stroke-linecap: round"/>
     </g>
    </g>
    <g id="xtick_36">
     <g id="line2d_43">
      <path d="M 140.55133 245.0899 
L 140.55133 159.823345 
" clip-path="url(#peaab24f40c)" style="fill: none; stroke: #ffffff; stroke-width: 0.5; stroke-linecap: round"/>
     </g>
    </g>
    <g id="xtick_37">
     <g id="line2d_44">
      <path d="M 164.891693 245.0899 
L 164.891693 159.823345 
" clip-path="url(#peaab24f40c)" style="fill: none; stroke: #ffffff; stroke-width: 0.5; stroke-linecap: round"/>
     </g>
    </g>
    <g id="xtick_38">
     <g id="line2d_45">
      <path d="M 177.061875 245.0899 
L 177.061875 159.823345 
" clip-path="url(#peaab24f40c)" style="fill: none; stroke: #ffffff; stroke-width: 0.5; stroke-linecap: round"/>
     </g>
    </g>
    <g id="xtick_39">
     <g id="line2d_46">
      <path d="M 189.232057 245.0899 
L 189.232057 159.823345 
" clip-path="url(#peaab24f40c)" style="fill: none; stroke: #ffffff; stroke-width: 0.5; stroke-linecap: round"/>
     </g>
    </g>
    <g id="xtick_40">
     <g id="line2d_47">
      <path d="M 213.57242 245.0899 
L 213.57242 159.823345 
" clip-path="url(#peaab24f40c)" style="fill: none; stroke: #ffffff; stroke-width: 0.5; stroke-linecap: round"/>
     </g>
    </g>
    <g id="xtick_41">
     <g id="line2d_48">
      <path d="M 225.742602 245.0899 
L 225.742602 159.823345 
" clip-path="url(#peaab24f40c)" style="fill: none; stroke: #ffffff; stroke-width: 0.5; stroke-linecap: round"/>
     </g>
    </g>
    <g id="xtick_42">
     <g id="line2d_49">
      <path d="M 237.912784 245.0899 
L 237.912784 159.823345 
" clip-path="url(#peaab24f40c)" style="fill: none; stroke: #ffffff; stroke-width: 0.5; stroke-linecap: round"/>
     </g>
    </g>
    <g id="xtick_43">
     <g id="line2d_50">
      <path d="M 262.253148 245.0899 
L 262.253148 159.823345 
" clip-path="url(#peaab24f40c)" style="fill: none; stroke: #ffffff; stroke-width: 0.5; stroke-linecap: round"/>
     </g>
    </g>
    <g id="xtick_44">
     <g id="line2d_51">
      <path d="M 274.42333 245.0899 
L 274.42333 159.823345 
" clip-path="url(#peaab24f40c)" style="fill: none; stroke: #ffffff; stroke-width: 0.5; stroke-linecap: round"/>
     </g>
    </g>
    <g id="xtick_45">
     <g id="line2d_52">
      <path d="M 286.593511 245.0899 
L 286.593511 159.823345 
" clip-path="url(#peaab24f40c)" style="fill: none; stroke: #ffffff; stroke-width: 0.5; stroke-linecap: round"/>
     </g>
    </g>
    <g id="xtick_46">
     <g id="line2d_53">
      <path d="M 310.933875 245.0899 
L 310.933875 159.823345 
" clip-path="url(#peaab24f40c)" style="fill: none; stroke: #ffffff; stroke-width: 0.5; stroke-linecap: round"/>
     </g>
    </g>
    <g id="text_14">
     <!-- Time (s) -->
     <g style="fill: #262626" transform="translate(159.508125 272.426275) scale(0.096 -0.096)">
      <defs>
       <path id="Arial-ItalicMT-54" d="M 1453 0 
L 2300 4059 
L 797 4059 
L 906 4581 
L 4513 4581 
L 4403 4059 
L 2913 4059 
L 2066 0 
L 1453 0 
z
" transform="scale(0.015625)"/>
       <path id="Arial-ItalicMT-65" d="M 2650 1128 
L 3200 1072 
Q 3081 663 2654 294 
Q 2228 -75 1638 -75 
Q 1269 -75 961 95 
Q 653 266 492 591 
Q 331 916 331 1331 
Q 331 1875 582 2386 
Q 834 2897 1234 3145 
Q 1634 3394 2100 3394 
Q 2694 3394 3048 3025 
Q 3403 2656 3403 2019 
Q 3403 1775 3359 1519 
L 916 1519 
Q 903 1422 903 1344 
Q 903 878 1117 633 
Q 1331 388 1641 388 
Q 1931 388 2212 578 
Q 2494 769 2650 1128 
z
M 1006 1950 
L 2869 1950 
Q 2872 2038 2872 2075 
Q 2872 2500 2659 2726 
Q 2447 2953 2113 2953 
Q 1750 2953 1451 2703 
Q 1153 2453 1006 1950 
z
" transform="scale(0.015625)"/>
      </defs>
      <use xlink:href="#Arial-ItalicMT-54"/>
      <use xlink:href="#Arial-ItalicMT-69" x="60.208984"/>
      <use xlink:href="#Arial-ItalicMT-6d" x="82.425781"/>
      <use xlink:href="#Arial-ItalicMT-65" x="165.726562"/>
      <use xlink:href="#Arial-ItalicMT-20" x="221.341797"/>
      <use xlink:href="#Arial-ItalicMT-28" x="249.125"/>
      <use xlink:href="#Arial-ItalicMT-73" x="282.425781"/>
      <use xlink:href="#Arial-ItalicMT-29" x="332.425781"/>
     </g>
    </g>
   </g>
   <g id="matplotlib.axis_4">
    <g id="ytick_4">
     <g id="line2d_54">
      <path d="M 43.189875 242.847727 
L 310.933875 242.847727 
" clip-path="url(#peaab24f40c)" style="fill: none; stroke: #ffffff; stroke-width: 0.8; stroke-linecap: round"/>
     </g>
     <g id="text_15">
      <!-- 0 -->
      <g style="fill: #262626" transform="translate(29.99625 245.997165) scale(0.088 -0.088)">
       <use xlink:href="#ArialMT-30"/>
      </g>
     </g>
    </g>
    <g id="ytick_5">
     <g id="line2d_55">
      <path d="M 43.189875 202.564024 
L 310.933875 202.564024 
" clip-path="url(#peaab24f40c)" style="fill: none; stroke: #ffffff; stroke-width: 0.8; stroke-linecap: round"/>
     </g>
     <g id="text_16">
      <!-- 100 -->
      <g style="fill: #262626" transform="translate(20.209 205.713461) scale(0.088 -0.088)">
       <use xlink:href="#ArialMT-31"/>
       <use xlink:href="#ArialMT-30" x="55.615234"/>
       <use xlink:href="#ArialMT-30" x="111.230469"/>
      </g>
     </g>
    </g>
    <g id="ytick_6">
     <g id="line2d_56">
      <path d="M 43.189875 162.28032 
L 310.933875 162.28032 
" clip-path="url(#peaab24f40c)" style="fill: none; stroke: #ffffff; stroke-width: 0.8; stroke-linecap: round"/>
     </g>
     <g id="text_17">
      <!-- 200 -->
      <g style="fill: #262626" transform="translate(20.209 165.429757) scale(0.088 -0.088)">
       <use xlink:href="#ArialMT-32"/>
       <use xlink:href="#ArialMT-30" x="55.615234"/>
       <use xlink:href="#ArialMT-30" x="111.230469"/>
      </g>
     </g>
    </g>
    <g id="text_18">
     <!-- Position (cm) -->
     <g style="fill: #262626" transform="translate(14.1885 230.460873) rotate(-90) scale(0.096 -0.096)">
      <use xlink:href="#Arial-ItalicMT-50"/>
      <use xlink:href="#Arial-ItalicMT-6f" x="66.699219"/>
      <use xlink:href="#Arial-ItalicMT-73" x="122.314453"/>
      <use xlink:href="#Arial-ItalicMT-69" x="172.314453"/>
      <use xlink:href="#Arial-ItalicMT-74" x="194.53125"/>
      <use xlink:href="#Arial-ItalicMT-69" x="222.314453"/>
      <use xlink:href="#Arial-ItalicMT-6f" x="244.53125"/>
      <use xlink:href="#Arial-ItalicMT-6e" x="300.146484"/>
      <use xlink:href="#Arial-ItalicMT-20" x="355.761719"/>
      <use xlink:href="#Arial-ItalicMT-28" x="383.544922"/>
      <use xlink:href="#Arial-ItalicMT-63" x="416.845703"/>
      <use xlink:href="#Arial-ItalicMT-6d" x="466.845703"/>
      <use xlink:href="#Arial-ItalicMT-29" x="550.146484"/>
     </g>
    </g>
   </g>
   <g id="PolyCollection_2">
    <path d="M 68.909526 240.445302 
L 68.909526 240.445302 
L 68.909526 240.445302 
L 68.909526 240.445302 
z
" clip-path="url(#peaab24f40c)" style="fill: #ff97ff; fill-opacity: 0.2; stroke: #ff97ff; stroke-opacity: 0.2; stroke-width: 0.8"/>
    <path d="M 69.964275 240.491982 
L 69.964275 240.491982 
L 69.964275 240.491982 
L 69.964275 240.491982 
z
" clip-path="url(#peaab24f40c)" style="fill: #ff97ff; fill-opacity: 0.2; stroke: #ff97ff; stroke-opacity: 0.2; stroke-width: 0.8"/>
    <path d="M 71.019024 240.500435 
L 71.019024 240.500435 
L 71.019024 240.500435 
L 71.019024 240.500435 
z
" clip-path="url(#peaab24f40c)" style="fill: #ff97ff; fill-opacity: 0.2; stroke: #ff97ff; stroke-opacity: 0.2; stroke-width: 0.8"/>
    <path d="M 72.073773 240.534694 
L 72.073773 240.534694 
L 72.073773 240.534694 
L 72.073773 240.534694 
z
" clip-path="url(#peaab24f40c)" style="fill: #ff97ff; fill-opacity: 0.2; stroke: #ff97ff; stroke-opacity: 0.2; stroke-width: 0.8"/>
    <path d="M 73.128522 240.576766 
L 73.128522 240.576766 
L 73.128522 240.576766 
L 73.128522 240.576766 
z
" clip-path="url(#peaab24f40c)" style="fill: #ff97ff; fill-opacity: 0.2; stroke: #ff97ff; stroke-opacity: 0.2; stroke-width: 0.8"/>
    <path d="M 74.183271 240.578621 
L 74.183271 240.578621 
L 74.183271 240.578621 
L 74.183271 240.578621 
z
" clip-path="url(#peaab24f40c)" style="fill: #ff97ff; fill-opacity: 0.2; stroke: #ff97ff; stroke-opacity: 0.2; stroke-width: 0.8"/>
    <path d="M 75.23802 240.563682 
L 75.23802 240.563682 
L 75.23802 240.563682 
L 75.23802 240.563682 
z
" clip-path="url(#peaab24f40c)" style="fill: #ff97ff; fill-opacity: 0.2; stroke: #ff97ff; stroke-opacity: 0.2; stroke-width: 0.8"/>
    <path d="M 76.29277 240.842353 
L 76.29277 240.842353 
L 76.29277 240.842353 
L 76.29277 240.842353 
z
" clip-path="url(#peaab24f40c)" style="fill: #ff97ff; fill-opacity: 0.2; stroke: #ff97ff; stroke-opacity: 0.2; stroke-width: 0.8"/>
    <path d="M 77.347519 240.928395 
L 77.347519 240.928395 
L 77.347519 240.928395 
L 77.347519 240.928395 
z
" clip-path="url(#peaab24f40c)" style="fill: #ff97ff; fill-opacity: 0.2; stroke: #ff97ff; stroke-opacity: 0.2; stroke-width: 0.8"/>
    <path d="M 78.402268 240.691028 
L 78.402268 240.691028 
L 78.402268 240.691028 
L 78.402268 240.691028 
z
" clip-path="url(#peaab24f40c)" style="fill: #ff97ff; fill-opacity: 0.2; stroke: #ff97ff; stroke-opacity: 0.2; stroke-width: 0.8"/>
    <path d="M 93.9801 164.908682 
L 93.9801 164.908682 
L 93.9801 164.908682 
L 93.9801 164.908682 
z
" clip-path="url(#peaab24f40c)" style="fill: #ff97ff; fill-opacity: 0.2; stroke: #ff97ff; stroke-opacity: 0.2; stroke-width: 0.8"/>
    <path d="M 95.03485 164.865512 
L 95.03485 164.865512 
L 95.03485 164.865512 
L 95.03485 164.865512 
z
" clip-path="url(#peaab24f40c)" style="fill: #ff97ff; fill-opacity: 0.2; stroke: #ff97ff; stroke-opacity: 0.2; stroke-width: 0.8"/>
    <path d="M 96.089599 164.776078 
L 96.089599 164.776078 
L 96.089599 164.776078 
L 96.089599 164.776078 
z
" clip-path="url(#peaab24f40c)" style="fill: #ff97ff; fill-opacity: 0.2; stroke: #ff97ff; stroke-opacity: 0.2; stroke-width: 0.8"/>
    <path d="M 97.144348 164.788381 
L 97.144348 164.788381 
L 97.144348 164.788381 
L 97.144348 164.788381 
z
" clip-path="url(#peaab24f40c)" style="fill: #ff97ff; fill-opacity: 0.2; stroke: #ff97ff; stroke-opacity: 0.2; stroke-width: 0.8"/>
    <path d="M 98.280231 164.910768 
L 98.280231 164.910768 
L 98.280231 164.910768 
L 98.280231 164.910768 
z
" clip-path="url(#peaab24f40c)" style="fill: #ff97ff; fill-opacity: 0.2; stroke: #ff97ff; stroke-opacity: 0.2; stroke-width: 0.8"/>
    <path d="M 99.33498 164.97082 
L 99.33498 164.97082 
L 99.33498 164.97082 
L 99.33498 164.97082 
z
" clip-path="url(#peaab24f40c)" style="fill: #ff97ff; fill-opacity: 0.2; stroke: #ff97ff; stroke-opacity: 0.2; stroke-width: 0.8"/>
    <path d="M 100.38973 164.959521 
L 100.38973 164.959521 
L 100.38973 164.959521 
L 100.38973 164.959521 
z
" clip-path="url(#peaab24f40c)" style="fill: #ff97ff; fill-opacity: 0.2; stroke: #ff97ff; stroke-opacity: 0.2; stroke-width: 0.8"/>
    <path d="M 101.444479 164.936659 
L 101.444479 164.936659 
L 101.444479 164.936659 
L 101.444479 164.936659 
z
" clip-path="url(#peaab24f40c)" style="fill: #ff97ff; fill-opacity: 0.2; stroke: #ff97ff; stroke-opacity: 0.2; stroke-width: 0.8"/>
    <path d="M 117.022311 164.264061 
L 117.022311 164.264061 
L 117.022311 164.264061 
L 117.022311 164.264061 
z
" clip-path="url(#peaab24f40c)" style="fill: #ff97ff; fill-opacity: 0.2; stroke: #ff97ff; stroke-opacity: 0.2; stroke-width: 0.8"/>
    <path d="M 118.07706 164.788205 
L 118.07706 164.788205 
L 118.07706 164.788205 
L 118.07706 164.788205 
z
" clip-path="url(#peaab24f40c)" style="fill: #ff97ff; fill-opacity: 0.2; stroke: #ff97ff; stroke-opacity: 0.2; stroke-width: 0.8"/>
    <path d="M 119.13181 166.8257 
L 119.13181 166.8257 
L 119.13181 166.8257 
L 119.13181 166.8257 
z
" clip-path="url(#peaab24f40c)" style="fill: #ff97ff; fill-opacity: 0.2; stroke: #ff97ff; stroke-opacity: 0.2; stroke-width: 0.8"/>
    <path d="M 120.186559 168.530968 
L 120.186559 168.530968 
L 120.186559 168.530968 
L 120.186559 168.530968 
z
" clip-path="url(#peaab24f40c)" style="fill: #ff97ff; fill-opacity: 0.2; stroke: #ff97ff; stroke-opacity: 0.2; stroke-width: 0.8"/>
    <path d="M 121.241308 173.894306 
L 121.241308 173.894306 
L 121.241308 173.894306 
L 121.241308 173.894306 
z
" clip-path="url(#peaab24f40c)" style="fill: #ff97ff; fill-opacity: 0.2; stroke: #ff97ff; stroke-opacity: 0.2; stroke-width: 0.8"/>
    <path d="M 122.296057 179.780041 
L 122.296057 179.780041 
L 122.296057 179.780041 
L 122.296057 179.780041 
z
" clip-path="url(#peaab24f40c)" style="fill: #ff97ff; fill-opacity: 0.2; stroke: #ff97ff; stroke-opacity: 0.2; stroke-width: 0.8"/>
    <path d="M 123.350806 185.912728 
L 123.350806 185.912728 
L 123.350806 185.912728 
L 123.350806 185.912728 
z
" clip-path="url(#peaab24f40c)" style="fill: #ff97ff; fill-opacity: 0.2; stroke: #ff97ff; stroke-opacity: 0.2; stroke-width: 0.8"/>
    <path d="M 124.405555 193.040387 
L 124.405555 193.040387 
L 124.405555 193.040387 
L 124.405555 193.040387 
z
" clip-path="url(#peaab24f40c)" style="fill: #ff97ff; fill-opacity: 0.2; stroke: #ff97ff; stroke-opacity: 0.2; stroke-width: 0.8"/>
    <path d="M 125.460304 201.128196 
L 125.460304 201.128196 
L 125.460304 201.128196 
L 125.460304 201.128196 
z
" clip-path="url(#peaab24f40c)" style="fill: #ff97ff; fill-opacity: 0.2; stroke: #ff97ff; stroke-opacity: 0.2; stroke-width: 0.8"/>
    <path d="M 126.515053 209.308687 
L 126.515053 209.308687 
L 126.515053 209.308687 
L 126.515053 209.308687 
z
" clip-path="url(#peaab24f40c)" style="fill: #ff97ff; fill-opacity: 0.2; stroke: #ff97ff; stroke-opacity: 0.2; stroke-width: 0.8"/>
    <path d="M 142.092886 240.705502 
L 142.092886 240.705502 
L 142.092886 240.705502 
L 142.092886 240.705502 
z
" clip-path="url(#peaab24f40c)" style="fill: #ff97ff; fill-opacity: 0.2; stroke: #ff97ff; stroke-opacity: 0.2; stroke-width: 0.8"/>
    <path d="M 143.147635 240.750494 
L 143.147635 240.750494 
L 143.147635 240.750494 
L 143.147635 240.750494 
z
" clip-path="url(#peaab24f40c)" style="fill: #ff97ff; fill-opacity: 0.2; stroke: #ff97ff; stroke-opacity: 0.2; stroke-width: 0.8"/>
    <path d="M 144.202384 240.570827 
L 144.202384 240.570827 
L 144.202384 240.570827 
L 144.202384 240.570827 
z
" clip-path="url(#peaab24f40c)" style="fill: #ff97ff; fill-opacity: 0.2; stroke: #ff97ff; stroke-opacity: 0.2; stroke-width: 0.8"/>
    <path d="M 145.257133 239.549656 
L 145.257133 239.549656 
L 145.257133 239.549656 
L 145.257133 239.549656 
z
" clip-path="url(#peaab24f40c)" style="fill: #ff97ff; fill-opacity: 0.2; stroke: #ff97ff; stroke-opacity: 0.2; stroke-width: 0.8"/>
    <path d="M 146.393017 235.917499 
L 146.393017 235.917499 
L 146.393017 235.917499 
L 146.393017 235.917499 
z
" clip-path="url(#peaab24f40c)" style="fill: #ff97ff; fill-opacity: 0.2; stroke: #ff97ff; stroke-opacity: 0.2; stroke-width: 0.8"/>
    <path d="M 147.447766 234.014566 
L 147.447766 234.014566 
L 147.447766 234.014566 
L 147.447766 234.014566 
z
" clip-path="url(#peaab24f40c)" style="fill: #ff97ff; fill-opacity: 0.2; stroke: #ff97ff; stroke-opacity: 0.2; stroke-width: 0.8"/>
    <path d="M 148.502515 233.618289 
L 148.502515 233.618289 
L 148.502515 233.618289 
L 148.502515 233.618289 
z
" clip-path="url(#peaab24f40c)" style="fill: #ff97ff; fill-opacity: 0.2; stroke: #ff97ff; stroke-opacity: 0.2; stroke-width: 0.8"/>
    <path d="M 149.557264 230.611875 
L 149.557264 230.611875 
L 149.557264 230.611875 
L 149.557264 230.611875 
z
" clip-path="url(#peaab24f40c)" style="fill: #ff97ff; fill-opacity: 0.2; stroke: #ff97ff; stroke-opacity: 0.2; stroke-width: 0.8"/>
    <path d="M 150.530879 225.748617 
L 150.530879 225.748617 
L 150.530879 225.748617 
L 150.530879 225.748617 
z
" clip-path="url(#peaab24f40c)" style="fill: #ff97ff; fill-opacity: 0.2; stroke: #ff97ff; stroke-opacity: 0.2; stroke-width: 0.8"/>
    <path d="M 166.189846 164.704201 
L 166.189846 164.704201 
L 166.189846 164.704201 
L 166.189846 164.704201 
z
" clip-path="url(#peaab24f40c)" style="fill: #ff97ff; fill-opacity: 0.2; stroke: #ff97ff; stroke-opacity: 0.2; stroke-width: 0.8"/>
    <path d="M 167.244595 164.690656 
L 167.244595 164.690656 
L 167.244595 164.690656 
L 167.244595 164.690656 
z
" clip-path="url(#peaab24f40c)" style="fill: #ff97ff; fill-opacity: 0.2; stroke: #ff97ff; stroke-opacity: 0.2; stroke-width: 0.8"/>
    <path d="M 168.299344 164.752116 
L 168.299344 164.752116 
L 168.299344 164.752116 
L 168.299344 164.752116 
z
" clip-path="url(#peaab24f40c)" style="fill: #ff97ff; fill-opacity: 0.2; stroke: #ff97ff; stroke-opacity: 0.2; stroke-width: 0.8"/>
    <path d="M 169.272959 164.635289 
L 169.272959 164.635289 
L 169.272959 164.635289 
L 169.272959 164.635289 
z
" clip-path="url(#peaab24f40c)" style="fill: #ff97ff; fill-opacity: 0.2; stroke: #ff97ff; stroke-opacity: 0.2; stroke-width: 0.8"/>
    <path d="M 170.327708 164.674013 
L 170.327708 164.674013 
L 170.327708 164.674013 
L 170.327708 164.674013 
z
" clip-path="url(#peaab24f40c)" style="fill: #ff97ff; fill-opacity: 0.2; stroke: #ff97ff; stroke-opacity: 0.2; stroke-width: 0.8"/>
    <path d="M 171.463591 164.705223 
L 171.463591 164.705223 
L 171.463591 164.705223 
L 171.463591 164.705223 
z
" clip-path="url(#peaab24f40c)" style="fill: #ff97ff; fill-opacity: 0.2; stroke: #ff97ff; stroke-opacity: 0.2; stroke-width: 0.8"/>
    <path d="M 172.51834 164.819627 
L 172.51834 164.819627 
L 172.51834 164.819627 
L 172.51834 164.819627 
z
" clip-path="url(#peaab24f40c)" style="fill: #ff97ff; fill-opacity: 0.2; stroke: #ff97ff; stroke-opacity: 0.2; stroke-width: 0.8"/>
    <path d="M 173.57309 164.761485 
L 173.57309 164.761485 
L 173.57309 164.761485 
L 173.57309 164.761485 
z
" clip-path="url(#peaab24f40c)" style="fill: #ff97ff; fill-opacity: 0.2; stroke: #ff97ff; stroke-opacity: 0.2; stroke-width: 0.8"/>
    <path d="M 174.627839 164.769577 
L 174.627839 164.769577 
L 174.627839 164.769577 
L 174.627839 164.769577 
z
" clip-path="url(#peaab24f40c)" style="fill: #ff97ff; fill-opacity: 0.2; stroke: #ff97ff; stroke-opacity: 0.2; stroke-width: 0.8"/>
    <path d="M 190.205671 167.592538 
L 190.205671 167.592538 
L 190.205671 167.592538 
L 190.205671 167.592538 
z
" clip-path="url(#peaab24f40c)" style="fill: #ff97ff; fill-opacity: 0.2; stroke: #ff97ff; stroke-opacity: 0.2; stroke-width: 0.8"/>
    <path d="M 191.26042 172.651258 
L 191.26042 172.651258 
L 191.26042 172.651258 
L 191.26042 172.651258 
z
" clip-path="url(#peaab24f40c)" style="fill: #ff97ff; fill-opacity: 0.2; stroke: #ff97ff; stroke-opacity: 0.2; stroke-width: 0.8"/>
    <path d="M 192.31517 180.05982 
L 192.31517 180.05982 
L 192.31517 180.05982 
L 192.31517 180.05982 
z
" clip-path="url(#peaab24f40c)" style="fill: #ff97ff; fill-opacity: 0.2; stroke: #ff97ff; stroke-opacity: 0.2; stroke-width: 0.8"/>
    <path d="M 193.369919 187.001679 
L 193.369919 187.001679 
L 193.369919 187.001679 
L 193.369919 187.001679 
z
" clip-path="url(#peaab24f40c)" style="fill: #ff97ff; fill-opacity: 0.2; stroke: #ff97ff; stroke-opacity: 0.2; stroke-width: 0.8"/>
    <path d="M 194.505802 195.347098 
L 194.505802 195.347098 
L 194.505802 195.347098 
L 194.505802 195.347098 
z
" clip-path="url(#peaab24f40c)" style="fill: #ff97ff; fill-opacity: 0.2; stroke: #ff97ff; stroke-opacity: 0.2; stroke-width: 0.8"/>
    <path d="M 195.560551 203.62085 
L 195.560551 203.62085 
L 195.560551 203.62085 
L 195.560551 203.62085 
z
" clip-path="url(#peaab24f40c)" style="fill: #ff97ff; fill-opacity: 0.2; stroke: #ff97ff; stroke-opacity: 0.2; stroke-width: 0.8"/>
    <path d="M 196.6153 212.049156 
L 196.6153 212.049156 
L 196.6153 212.049156 
L 196.6153 212.049156 
z
" clip-path="url(#peaab24f40c)" style="fill: #ff97ff; fill-opacity: 0.2; stroke: #ff97ff; stroke-opacity: 0.2; stroke-width: 0.8"/>
    <path d="M 197.588915 220.076002 
L 197.588915 220.076002 
L 197.588915 220.076002 
L 197.588915 220.076002 
z
" clip-path="url(#peaab24f40c)" style="fill: #ff97ff; fill-opacity: 0.2; stroke: #ff97ff; stroke-opacity: 0.2; stroke-width: 0.8"/>
    <path d="M 198.643664 228.816267 
L 198.643664 228.816267 
L 198.643664 228.816267 
L 198.643664 228.816267 
z
" clip-path="url(#peaab24f40c)" style="fill: #ff97ff; fill-opacity: 0.2; stroke: #ff97ff; stroke-opacity: 0.2; stroke-width: 0.8"/>
    <path d="M 214.302631 240.89138 
L 214.302631 240.89138 
L 214.302631 240.89138 
L 214.302631 240.89138 
z
" clip-path="url(#peaab24f40c)" style="fill: #ff97ff; fill-opacity: 0.2; stroke: #ff97ff; stroke-opacity: 0.2; stroke-width: 0.8"/>
    <path d="M 215.35738 240.761857 
L 215.35738 240.761857 
L 215.35738 240.761857 
L 215.35738 240.761857 
z
" clip-path="url(#peaab24f40c)" style="fill: #ff97ff; fill-opacity: 0.2; stroke: #ff97ff; stroke-opacity: 0.2; stroke-width: 0.8"/>
    <path d="M 216.330995 240.08474 
L 216.330995 240.08474 
L 216.330995 240.08474 
L 216.330995 240.08474 
z
" clip-path="url(#peaab24f40c)" style="fill: #ff97ff; fill-opacity: 0.2; stroke: #ff97ff; stroke-opacity: 0.2; stroke-width: 0.8"/>
    <path d="M 217.385744 237.805187 
L 217.385744 237.805187 
L 217.385744 237.805187 
L 217.385744 237.805187 
z
" clip-path="url(#peaab24f40c)" style="fill: #ff97ff; fill-opacity: 0.2; stroke: #ff97ff; stroke-opacity: 0.2; stroke-width: 0.8"/>
    <path d="M 218.440493 234.099703 
L 218.440493 234.099703 
L 218.440493 234.099703 
L 218.440493 234.099703 
z
" clip-path="url(#peaab24f40c)" style="fill: #ff97ff; fill-opacity: 0.2; stroke: #ff97ff; stroke-opacity: 0.2; stroke-width: 0.8"/>
    <path d="M 219.576377 228.379207 
L 219.576377 228.379207 
L 219.576377 228.379207 
L 219.576377 228.379207 
z
" clip-path="url(#peaab24f40c)" style="fill: #ff97ff; fill-opacity: 0.2; stroke: #ff97ff; stroke-opacity: 0.2; stroke-width: 0.8"/>
    <path d="M 220.631126 222.201626 
L 220.631126 222.201626 
L 220.631126 222.201626 
L 220.631126 222.201626 
z
" clip-path="url(#peaab24f40c)" style="fill: #ff97ff; fill-opacity: 0.2; stroke: #ff97ff; stroke-opacity: 0.2; stroke-width: 0.8"/>
    <path d="M 221.685875 215.499407 
L 221.685875 215.499407 
L 221.685875 215.499407 
L 221.685875 215.499407 
z
" clip-path="url(#peaab24f40c)" style="fill: #ff97ff; fill-opacity: 0.2; stroke: #ff97ff; stroke-opacity: 0.2; stroke-width: 0.8"/>
    <path d="M 222.740624 207.887227 
L 222.740624 207.887227 
L 222.740624 207.887227 
L 222.740624 207.887227 
z
" clip-path="url(#peaab24f40c)" style="fill: #ff97ff; fill-opacity: 0.2; stroke: #ff97ff; stroke-opacity: 0.2; stroke-width: 0.8"/>
    <path d="M 238.318457 164.315278 
L 238.318457 164.315278 
L 238.318457 164.315278 
L 238.318457 164.315278 
z
" clip-path="url(#peaab24f40c)" style="fill: #ff97ff; fill-opacity: 0.2; stroke: #ff97ff; stroke-opacity: 0.2; stroke-width: 0.8"/>
    <path d="M 239.373206 164.44208 
L 239.373206 164.44208 
L 239.373206 164.44208 
L 239.373206 164.44208 
z
" clip-path="url(#peaab24f40c)" style="fill: #ff97ff; fill-opacity: 0.2; stroke: #ff97ff; stroke-opacity: 0.2; stroke-width: 0.8"/>
    <path d="M 240.427955 164.381988 
L 240.427955 164.381988 
L 240.427955 164.381988 
L 240.427955 164.381988 
z
" clip-path="url(#peaab24f40c)" style="fill: #ff97ff; fill-opacity: 0.2; stroke: #ff97ff; stroke-opacity: 0.2; stroke-width: 0.8"/>
    <path d="M 241.482704 164.401166 
L 241.482704 164.401166 
L 241.482704 164.401166 
L 241.482704 164.401166 
z
" clip-path="url(#peaab24f40c)" style="fill: #ff97ff; fill-opacity: 0.2; stroke: #ff97ff; stroke-opacity: 0.2; stroke-width: 0.8"/>
    <path d="M 242.618588 164.285036 
L 242.618588 164.285036 
L 242.618588 164.285036 
L 242.618588 164.285036 
z
" clip-path="url(#peaab24f40c)" style="fill: #ff97ff; fill-opacity: 0.2; stroke: #ff97ff; stroke-opacity: 0.2; stroke-width: 0.8"/>
    <path d="M 243.673337 164.113887 
L 243.673337 164.113887 
L 243.673337 164.113887 
L 243.673337 164.113887 
z
" clip-path="url(#peaab24f40c)" style="fill: #ff97ff; fill-opacity: 0.2; stroke: #ff97ff; stroke-opacity: 0.2; stroke-width: 0.8"/>
    <path d="M 244.646951 164.069705 
L 244.646951 164.069705 
L 244.646951 164.069705 
L 244.646951 164.069705 
z
" clip-path="url(#peaab24f40c)" style="fill: #ff97ff; fill-opacity: 0.2; stroke: #ff97ff; stroke-opacity: 0.2; stroke-width: 0.8"/>
    <path d="M 245.7017 164.78945 
L 245.7017 164.78945 
L 245.7017 164.78945 
L 245.7017 164.78945 
z
" clip-path="url(#peaab24f40c)" style="fill: #ff97ff; fill-opacity: 0.2; stroke: #ff97ff; stroke-opacity: 0.2; stroke-width: 0.8"/>
    <path d="M 246.75645 164.588625 
L 246.75645 164.588625 
L 246.75645 164.588625 
L 246.75645 164.588625 
z
" clip-path="url(#peaab24f40c)" style="fill: #ff97ff; fill-opacity: 0.2; stroke: #ff97ff; stroke-opacity: 0.2; stroke-width: 0.8"/>
    <path d="M 262.415417 240.326251 
L 262.415417 240.326251 
L 262.415417 240.326251 
L 262.415417 240.326251 
z
" clip-path="url(#peaab24f40c)" style="fill: #ff97ff; fill-opacity: 0.2; stroke: #ff97ff; stroke-opacity: 0.2; stroke-width: 0.8"/>
    <path d="M 263.389031 240.447004 
L 263.389031 240.447004 
L 263.389031 240.447004 
L 263.389031 240.447004 
z
" clip-path="url(#peaab24f40c)" style="fill: #ff97ff; fill-opacity: 0.2; stroke: #ff97ff; stroke-opacity: 0.2; stroke-width: 0.8"/>
    <path d="M 264.44378 240.456359 
L 264.44378 240.456359 
L 264.44378 240.456359 
L 264.44378 240.456359 
z
" clip-path="url(#peaab24f40c)" style="fill: #ff97ff; fill-opacity: 0.2; stroke: #ff97ff; stroke-opacity: 0.2; stroke-width: 0.8"/>
    <path d="M 265.49853 240.478286 
L 265.49853 240.478286 
L 265.49853 240.478286 
L 265.49853 240.478286 
z
" clip-path="url(#peaab24f40c)" style="fill: #ff97ff; fill-opacity: 0.2; stroke: #ff97ff; stroke-opacity: 0.2; stroke-width: 0.8"/>
    <path d="M 266.553279 240.481885 
L 266.553279 240.481885 
L 266.553279 240.481885 
L 266.553279 240.481885 
z
" clip-path="url(#peaab24f40c)" style="fill: #ff97ff; fill-opacity: 0.2; stroke: #ff97ff; stroke-opacity: 0.2; stroke-width: 0.8"/>
    <path d="M 267.689162 240.529919 
L 267.689162 240.529919 
L 267.689162 240.529919 
L 267.689162 240.529919 
z
" clip-path="url(#peaab24f40c)" style="fill: #ff97ff; fill-opacity: 0.2; stroke: #ff97ff; stroke-opacity: 0.2; stroke-width: 0.8"/>
    <path d="M 268.743911 240.610638 
L 268.743911 240.610638 
L 268.743911 240.610638 
L 268.743911 240.610638 
z
" clip-path="url(#peaab24f40c)" style="fill: #ff97ff; fill-opacity: 0.2; stroke: #ff97ff; stroke-opacity: 0.2; stroke-width: 0.8"/>
    <path d="M 269.79866 240.606379 
L 269.79866 240.606379 
L 269.79866 240.606379 
L 269.79866 240.606379 
z
" clip-path="url(#peaab24f40c)" style="fill: #ff97ff; fill-opacity: 0.2; stroke: #ff97ff; stroke-opacity: 0.2; stroke-width: 0.8"/>
    <path d="M 270.85341 240.571875 
L 270.85341 240.571875 
L 270.85341 240.571875 
L 270.85341 240.571875 
z
" clip-path="url(#peaab24f40c)" style="fill: #ff97ff; fill-opacity: 0.2; stroke: #ff97ff; stroke-opacity: 0.2; stroke-width: 0.8"/>
    <path d="M 286.431242 220.034724 
L 286.431242 220.034724 
L 286.431242 220.034724 
L 286.431242 220.034724 
z
" clip-path="url(#peaab24f40c)" style="fill: #ff97ff; fill-opacity: 0.2; stroke: #ff97ff; stroke-opacity: 0.2; stroke-width: 0.8"/>
    <path d="M 287.485991 213.111923 
L 287.485991 213.111923 
L 287.485991 213.111923 
L 287.485991 213.111923 
z
" clip-path="url(#peaab24f40c)" style="fill: #ff97ff; fill-opacity: 0.2; stroke: #ff97ff; stroke-opacity: 0.2; stroke-width: 0.8"/>
    <path d="M 288.54074 204.63213 
L 288.54074 204.63213 
L 288.54074 204.63213 
L 288.54074 204.63213 
z
" clip-path="url(#peaab24f40c)" style="fill: #ff97ff; fill-opacity: 0.2; stroke: #ff97ff; stroke-opacity: 0.2; stroke-width: 0.8"/>
    <path d="M 289.59549 195.693351 
L 289.59549 195.693351 
L 289.59549 195.693351 
L 289.59549 195.693351 
z
" clip-path="url(#peaab24f40c)" style="fill: #ff97ff; fill-opacity: 0.2; stroke: #ff97ff; stroke-opacity: 0.2; stroke-width: 0.8"/>
    <path d="M 290.650239 187.373518 
L 290.650239 187.373518 
L 290.650239 187.373518 
L 290.650239 187.373518 
z
" clip-path="url(#peaab24f40c)" style="fill: #ff97ff; fill-opacity: 0.2; stroke: #ff97ff; stroke-opacity: 0.2; stroke-width: 0.8"/>
    <path d="M 291.704988 183.526005 
L 291.704988 183.526005 
L 291.704988 183.526005 
L 291.704988 183.526005 
z
" clip-path="url(#peaab24f40c)" style="fill: #ff97ff; fill-opacity: 0.2; stroke: #ff97ff; stroke-opacity: 0.2; stroke-width: 0.8"/>
    <path d="M 292.759737 178.580817 
L 292.759737 178.580817 
L 292.759737 178.580817 
L 292.759737 178.580817 
z
" clip-path="url(#peaab24f40c)" style="fill: #ff97ff; fill-opacity: 0.2; stroke: #ff97ff; stroke-opacity: 0.2; stroke-width: 0.8"/>
    <path d="M 293.814486 172.325987 
L 293.814486 172.325987 
L 293.814486 172.325987 
L 293.814486 172.325987 
z
" clip-path="url(#peaab24f40c)" style="fill: #ff97ff; fill-opacity: 0.2; stroke: #ff97ff; stroke-opacity: 0.2; stroke-width: 0.8"/>
    <path d="M 294.869235 167.559558 
L 294.869235 167.559558 
L 294.869235 167.559558 
L 294.869235 167.559558 
z
" clip-path="url(#peaab24f40c)" style="fill: #ff97ff; fill-opacity: 0.2; stroke: #ff97ff; stroke-opacity: 0.2; stroke-width: 0.8"/>
   </g>
   <g id="line2d_57">
    <path d="M 55.360057 186.061182 
L 55.60346 186.487515 
L 55.846864 187.007345 
L 56.009133 187.255634 
L 56.49594 188.858933 
L 57.307286 193.124118 
L 59.17338 204.719556 
L 61.526282 222.458368 
L 62.499897 229.418758 
L 63.230108 233.827517 
L 64.122588 237.572293 
L 64.52826 238.35283 
L 64.69053 238.558157 
L 65.258471 239.680497 
L 65.826413 240.313954 
L 66.150951 240.338888 
L 71.343562 240.506222 
L 71.911504 240.545139 
L 72.398311 240.545761 
L 75.887097 240.686689 
L 76.29277 240.842353 
L 77.266384 240.987752 
L 77.834326 240.69658 
L 78.239999 240.633853 
L 78.564537 240.740679 
L 78.889075 240.78866 
L 79.294748 240.727376 
L 79.70042 240.697192 
L 79.943824 240.420888 
L 80.511766 239.569246 
L 81.566515 236.981872 
L 82.053322 235.326492 
L 82.458995 233.815675 
L 83.108071 230.833706 
L 85.542108 216.759406 
L 88.78749 191.088354 
L 90.734719 174.953104 
L 91.627199 169.23006 
L 92.114006 167.472915 
L 92.844217 166.251638 
L 92.925351 166.144522 
L 93.168755 165.536856 
L 93.331024 165.541835 
L 93.655562 165.039461 
L 93.817831 164.728403 
L 94.14237 164.945604 
L 94.466908 164.85896 
L 94.791446 164.819534 
L 95.115984 164.871106 
L 95.602791 164.85503 
L 96.008464 164.814132 
L 96.251868 164.802324 
L 97.225482 164.800598 
L 97.387751 164.800172 
L 97.631155 164.871793 
L 98.848173 164.916879 
L 99.253846 164.97156 
L 101.769017 165.054014 
L 102.01242 165.128673 
L 104.203053 165.487398 
L 104.527591 165.535333 
L 105.257802 165.551246 
L 106.799359 165.479541 
L 107.042762 165.365971 
L 107.3673 165.085979 
L 107.854108 164.442016 
L 108.42205 164.222649 
L 108.665453 164.216579 
L 109.15226 164.138196 
L 110.369279 164.232775 
L 110.93722 164.16271 
L 111.180624 164.09515 
L 111.748566 164.033845 
L 112.154239 163.951755 
L 112.803315 163.923626 
L 113.046719 163.920258 
L 113.371257 163.821881 
L 113.695795 163.699098 
L 114.182602 163.958995 
L 114.750544 164.167538 
L 115.643024 163.924072 
L 115.886428 163.975126 
L 116.210966 164.205375 
L 116.778908 164.24126 
L 117.103446 164.283804 
L 117.509119 164.271533 
L 117.671388 164.296063 
L 118.23933 165.060974 
L 118.482733 165.678328 
L 118.726137 166.433354 
L 119.212944 166.858995 
L 119.375213 166.98035 
L 120.348828 168.984795 
L 121.079039 172.117961 
L 121.484711 175.253689 
L 122.945133 183.442863 
L 123.837613 188.995504 
L 125.2169 199.17326 
L 126.352784 208.034801 
L 127.975475 221.06028 
L 128.78682 227.114911 
L 129.598166 232.205775 
L 130.652915 237.516422 
L 131.301991 239.518259 
L 131.707664 240.201572 
L 133.005817 240.470256 
L 134.30397 240.464036 
L 136.332333 240.498031 
L 137.224813 240.540075 
L 138.441831 240.541207 
L 140.794733 240.515309 
L 143.391039 240.694098 
L 144.770326 240.433327 
L 145.01373 240.10452 
L 146.149613 236.952799 
L 146.960959 233.98634 
L 147.123228 233.933774 
L 148.015708 233.999508 
L 148.259111 233.964229 
L 148.58365 233.39503 
L 148.827053 232.791562 
L 149.070457 232.420759 
L 149.394995 231.269522 
L 150.125206 228.02023 
L 151.26109 221.042509 
L 151.9913 215.753156 
L 153.695126 203.673301 
L 154.425337 197.924435 
L 155.56122 187.769645 
L 157.102777 174.830152 
L 157.832988 169.686349 
L 158.482064 167.499346 
L 159.29341 166.774766 
L 160.510428 166.68968 
L 160.672697 166.548275 
L 160.834966 166.525112 
L 161.159504 166.343423 
L 161.321773 166.295762 
L 162.214253 166.549722 
L 162.70106 166.238956 
L 163.025599 166.045247 
L 163.187868 165.921566 
L 163.431271 165.318453 
L 163.59354 164.950189 
L 163.836944 164.850933 
L 164.242617 164.981684 
L 165.053962 164.477957 
L 165.297366 164.557896 
L 165.54077 164.585477 
L 165.865308 164.681487 
L 168.705017 164.699849 
L 169.516362 164.621793 
L 174.141031 164.766148 
L 174.3033 164.754447 
L 174.627839 164.769577 
L 174.952377 164.928763 
L 175.520319 164.857973 
L 176.25053 165.157473 
L 176.493933 165.249436 
L 177.14301 164.784747 
L 177.467548 164.24168 
L 177.629817 164.089833 
L 177.87322 164.213762 
L 178.360028 164.180841 
L 179.414777 164.175185 
L 179.982719 164.15714 
L 180.307257 164.178053 
L 180.875199 164.163545 
L 181.929948 164.132972 
L 182.33562 164.07597 
L 182.660159 164.039304 
L 183.146966 164.031098 
L 183.471504 164.069977 
L 183.877177 164.364614 
L 184.445119 164.541382 
L 184.769657 164.318171 
L 184.931926 164.490807 
L 185.094195 164.638196 
L 185.743271 164.306222 
L 185.986675 164.18913 
L 186.148944 164.194546 
L 186.716886 164.179402 
L 187.447097 164.34883 
L 187.6905 164.486976 
L 188.096173 164.514277 
L 188.664115 164.551619 
L 188.826384 164.719174 
L 189.394326 165.913371 
L 190.205671 167.592538 
L 191.179286 171.958518 
L 191.990631 177.988688 
L 193.613322 188.733862 
L 196.290762 209.459835 
L 199.211606 232.882901 
L 199.860682 236.299394 
L 200.34749 238.104681 
L 201.0777 239.769008 
L 201.807911 240.300665 
L 202.294719 240.376032 
L 203.268333 240.355179 
L 205.458966 240.375177 
L 206.43258 240.374984 
L 206.919388 240.403574 
L 207.32506 240.445416 
L 208.055271 240.523303 
L 208.704348 240.479538 
L 210.245904 240.551047 
L 211.05725 240.544243 
L 212.274268 240.609931 
L 213.57242 240.99844 
L 213.815824 240.89126 
L 214.140362 240.901896 
L 216.006457 240.674764 
L 217.14234 238.472047 
L 218.359359 234.446542 
L 219.332973 229.820621 
L 220.387722 223.559359 
L 221.036799 219.751706 
L 223.146297 204.811394 
L 224.44445 194.136596 
L 227.365293 168.418688 
L 227.689831 167.031512 
L 227.8521 166.919632 
L 228.338908 167.10942 
L 228.582311 167.02526 
L 228.987984 166.775784 
L 229.231388 166.057462 
L 229.474791 165.630075 
L 229.718195 165.330147 
L 230.205002 164.880645 
L 230.367271 164.907588 
L 230.448406 164.958047 
L 231.097482 164.349329 
L 231.259751 164.365542 
L 231.503155 164.302838 
L 232.801308 164.282411 
L 233.044711 164.271275 
L 234.018326 164.271061 
L 234.586268 164.302948 
L 234.910806 164.320152 
L 235.641017 164.326051 
L 236.208959 164.298125 
L 237.750515 164.375054 
L 239.048668 164.344602 
L 239.45434 164.43084 
L 240.103417 164.390683 
L 242.212915 164.399619 
L 242.456319 164.328901 
L 244.403548 164.064997 
L 244.80922 164.082454 
L 245.133759 164.103051 
L 245.620566 164.872296 
L 245.86397 164.751316 
L 246.999853 164.628144 
L 247.811199 164.605005 
L 248.135737 164.433218 
L 248.298006 164.476407 
L 248.460275 164.572001 
L 248.865948 165.01578 
L 249.028217 165.054197 
L 249.190486 165.131729 
L 249.43389 165.520636 
L 250.245235 166.428498 
L 250.650908 166.917777 
L 251.137715 167.649202 
L 251.462253 168.461881 
L 251.786791 169.515453 
L 252.354733 172.092792 
L 252.679271 175.022106 
L 254.301962 185.062891 
L 257.222806 206.492297 
L 258.683228 218.470507 
L 260.224784 230.779995 
L 261.198399 236.560446 
L 261.76634 239.187672 
L 262.253148 240.135201 
L 262.577686 240.419418 
L 263.064493 240.392718 
L 273.287446 240.825952 
L 273.53085 240.901832 
L 273.936522 240.752191 
L 274.26106 240.782348 
L 274.504464 240.736828 
L 275.15354 240.61199 
L 275.396944 240.543506 
L 275.721482 240.500116 
L 276.04602 240.352753 
L 276.289424 240.320282 
L 276.857366 240.579773 
L 277.10077 240.476986 
L 277.668711 240.557549 
L 278.561191 240.350323 
L 278.88573 240.300692 
L 280.102748 240.29841 
L 281.887708 240.049664 
L 282.536784 238.815105 
L 282.861322 237.797243 
L 283.753802 234.536318 
L 284.727417 229.735583 
L 286.75578 217.939343 
L 288.216202 207.396859 
L 290.650239 187.373518 
L 291.21818 185.652459 
L 291.542719 184.206949 
L 292.435199 180.505782 
L 293.16541 176.047135 
L 294.301293 169.35317 
L 294.625831 168.187659 
L 295.112639 167.32331 
L 295.274908 167.299902 
L 296.005119 166.75062 
L 296.491926 165.899219 
L 296.654195 165.763723 
L 297.303271 164.78714 
L 297.46554 164.928216 
L 298.033482 164.59255 
L 298.195751 164.539235 
L 298.439155 164.44015 
L 298.763693 164.420199 
L 298.763693 164.420199 
" clip-path="url(#peaab24f40c)" style="fill: none; stroke: #ff97ff; stroke-width: 1.5; stroke-linecap: round"/>
   </g>
   <g id="line2d_58"/>
   <g id="patch_7">
    <path d="M 43.189875 245.0899 
L 43.189875 159.823345 
" style="fill: none; stroke: #ffffff; stroke-linejoin: miter; stroke-linecap: square"/>
   </g>
   <g id="patch_8">
    <path d="M 43.189875 245.0899 
L 310.933875 245.0899 
" style="fill: none; stroke: #ffffff; stroke-linejoin: miter; stroke-linecap: square"/>
   </g>
   <g id="text_19">
    <!-- Animal: ts32-1 -->
    <g style="fill: #262626" transform="translate(146.383875 153.823345) scale(0.096 -0.096)">
     <defs>
      <path id="ArialMT-74" d="M 1650 503 
L 1731 6 
Q 1494 -44 1306 -44 
Q 1000 -44 831 53 
Q 663 150 594 308 
Q 525 466 525 972 
L 525 2881 
L 113 2881 
L 113 3319 
L 525 3319 
L 525 4141 
L 1084 4478 
L 1084 3319 
L 1650 3319 
L 1650 2881 
L 1084 2881 
L 1084 941 
Q 1084 700 1114 631 
Q 1144 563 1211 522 
Q 1278 481 1403 481 
Q 1497 481 1650 503 
z
" transform="scale(0.015625)"/>
      <path id="ArialMT-33" d="M 269 1209 
L 831 1284 
Q 928 806 1161 595 
Q 1394 384 1728 384 
Q 2125 384 2398 659 
Q 2672 934 2672 1341 
Q 2672 1728 2419 1979 
Q 2166 2231 1775 2231 
Q 1616 2231 1378 2169 
L 1441 2663 
Q 1497 2656 1531 2656 
Q 1891 2656 2178 2843 
Q 2466 3031 2466 3422 
Q 2466 3731 2256 3934 
Q 2047 4138 1716 4138 
Q 1388 4138 1169 3931 
Q 950 3725 888 3313 
L 325 3413 
Q 428 3978 793 4289 
Q 1159 4600 1703 4600 
Q 2078 4600 2393 4439 
Q 2709 4278 2876 4000 
Q 3044 3722 3044 3409 
Q 3044 3113 2884 2869 
Q 2725 2625 2413 2481 
Q 2819 2388 3044 2092 
Q 3269 1797 3269 1353 
Q 3269 753 2831 336 
Q 2394 -81 1725 -81 
Q 1122 -81 723 278 
Q 325 638 269 1209 
z
" transform="scale(0.015625)"/>
     </defs>
     <use xlink:href="#ArialMT-41"/>
     <use xlink:href="#ArialMT-6e" x="66.699219"/>
     <use xlink:href="#ArialMT-69" x="122.314453"/>
     <use xlink:href="#ArialMT-6d" x="144.53125"/>
     <use xlink:href="#ArialMT-61" x="227.832031"/>
     <use xlink:href="#ArialMT-6c" x="283.447266"/>
     <use xlink:href="#ArialMT-3a" x="305.664062"/>
     <use xlink:href="#ArialMT-20" x="333.447266"/>
     <use xlink:href="#ArialMT-74" x="361.230469"/>
     <use xlink:href="#ArialMT-73" x="389.013672"/>
     <use xlink:href="#ArialMT-33" x="439.013672"/>
     <use xlink:href="#ArialMT-32" x="494.628906"/>
     <use xlink:href="#ArialMT-2d" x="550.244141"/>
     <use xlink:href="#ArialMT-31" x="583.544922"/>
    </g>
   </g>
  </g>
 </g>
 <defs>
  <clipPath id="pc4c9d46074">
   <rect x="43.189875" y="48.6859" width="267.744" height="85.266555"/>
  </clipPath>
  <clipPath id="peaab24f40c">
   <rect x="43.189875" y="159.823345" width="267.744" height="85.266555"/>
  </clipPath>
 </defs>
</svg>
