<?xml version="1.0" encoding="utf-8" standalone="no"?>
<!DOCTYPE svg PUBLIC "-//W3C//DTD SVG 1.1//EN"
  "http://www.w3.org/Graphics/SVG/1.1/DTD/svg11.dtd">
<!-- Created with matplotlib (https://matplotlib.org/) -->
<svg height="151.648438pt" version="1.1" viewBox="0 0 246.407187 151.648438" width="246.407187pt" xmlns="http://www.w3.org/2000/svg" xmlns:xlink="http://www.w3.org/1999/xlink">
 <defs>
  <style type="text/css">
*{stroke-linecap:butt;stroke-linejoin:round;}
  </style>
 </defs>
 <g id="figure_1">
  <g id="patch_1">
   <path d="M 0 151.648438 
L 246.407187 151.648438 
L 246.407187 0 
L 0 0 
z
" style="fill:#ffffff;"/>
  </g>
  <g id="axes_1">
   <g id="patch_2">
    <path d="M 41.367188 115.157813 
L 133.137188 115.157813 
L 133.137188 20.357812 
L 41.367188 20.357812 
z
" style="fill:#ffffff;"/>
   </g>
   <g id="PathCollection_1"/>
   <g id="patch_3">
    <path clip-path="url(#pd0eec8892b)" d="M 43.202587 115.157813 
L 57.885788 115.157813 
L 57.885788 101.436797 
L 43.202587 101.436797 
z
" style="fill:#dd624d;"/>
   </g>
   <g id="patch_4">
    <path clip-path="url(#pd0eec8892b)" d="M 61.556587 115.157813 
L 76.239788 115.157813 
L 76.239788 101.903803 
L 61.556587 101.903803 
z
" style="fill:#dd624d;"/>
   </g>
   <g id="patch_5">
    <path clip-path="url(#pd0eec8892b)" d="M 79.910588 115.157813 
L 94.593788 115.157813 
L 94.593788 105.080375 
L 79.910588 105.080375 
z
" style="fill:#dd624d;"/>
   </g>
   <g id="patch_6">
    <path clip-path="url(#pd0eec8892b)" d="M 98.264588 115.157813 
L 112.947788 115.157813 
L 112.947788 96.625172 
L 98.264588 96.625172 
z
" style="fill:#dd624d;"/>
   </g>
   <g id="patch_7">
    <path clip-path="url(#pd0eec8892b)" d="M 116.618588 115.157813 
L 131.301788 115.157813 
L 131.301788 37.987283 
L 116.618588 37.987283 
z
" style="fill:#dd624d;"/>
   </g>
   <g id="matplotlib.axis_1">
    <g id="xtick_1">
     <g id="line2d_1">
      <defs>
       <path d="M 0 0 
L 0 3.5 
" id="m6b7c5c02d9" style="stroke:#000000;stroke-width:0.8;"/>
      </defs>
      <g>
       <use style="stroke:#000000;stroke-width:0.8;" x="50.544187" xlink:href="#m6b7c5c02d9" y="115.157813"/>
      </g>
     </g>
     <g id="text_1">
      <text style="font-family:Arial;font-size:10px;font-style:normal;font-weight:normal;text-anchor:middle;" transform="rotate(-0, 50.544187, 129.315625)" x="50.544187" y="129.315625">1</text>
     </g>
    </g>
    <g id="xtick_2">
     <g id="line2d_2">
      <g>
       <use style="stroke:#000000;stroke-width:0.8;" x="68.898188" xlink:href="#m6b7c5c02d9" y="115.157813"/>
      </g>
     </g>
     <g id="text_2">
      <text style="font-family:Arial;font-size:10px;font-style:normal;font-weight:normal;text-anchor:middle;" transform="rotate(-0, 68.898188, 129.315625)" x="68.898188" y="129.315625">2</text>
     </g>
    </g>
    <g id="xtick_3">
     <g id="line2d_3">
      <g>
       <use style="stroke:#000000;stroke-width:0.8;" x="87.252188" xlink:href="#m6b7c5c02d9" y="115.157813"/>
      </g>
     </g>
     <g id="text_3">
      <text style="font-family:Arial;font-size:10px;font-style:normal;font-weight:normal;text-anchor:middle;" transform="rotate(-0, 87.252188, 129.315625)" x="87.252188" y="129.315625">3</text>
     </g>
    </g>
    <g id="xtick_4">
     <g id="line2d_4">
      <g>
       <use style="stroke:#000000;stroke-width:0.8;" x="105.606188" xlink:href="#m6b7c5c02d9" y="115.157813"/>
      </g>
     </g>
     <g id="text_4">
      <text style="font-family:Arial;font-size:10px;font-style:normal;font-weight:normal;text-anchor:middle;" transform="rotate(-0, 105.606188, 129.315625)" x="105.606188" y="129.315625">4</text>
     </g>
    </g>
    <g id="xtick_5">
     <g id="line2d_5">
      <g>
       <use style="stroke:#000000;stroke-width:0.8;" x="123.960188" xlink:href="#m6b7c5c02d9" y="115.157813"/>
      </g>
     </g>
     <g id="text_5">
      <text style="font-family:Arial;font-size:10px;font-style:normal;font-weight:normal;text-anchor:middle;" transform="rotate(-0, 123.960188, 129.315625)" x="123.960188" y="129.315625">5</text>
     </g>
    </g>
    <g id="text_6">
     <text style="font-family:Arial;font-size:10px;font-style:italic;font-weight:normal;text-anchor:middle;" transform="rotate(-0, 87.252188, 142.460938)" x="87.252188" y="142.460938"># of sessions active</text>
    </g>
   </g>
   <g id="matplotlib.axis_2">
    <g id="ytick_1">
     <g id="line2d_6">
      <defs>
       <path d="M 0 0 
L -3.5 0 
" id="m38f100cb54" style="stroke:#000000;stroke-width:0.8;"/>
      </defs>
      <g>
       <use style="stroke:#000000;stroke-width:0.8;" x="41.367188" xlink:href="#m38f100cb54" y="115.157813"/>
      </g>
     </g>
     <g id="text_7">
      <text style="font-family:Arial;font-size:10px;font-style:normal;font-weight:normal;text-anchor:end;" transform="rotate(-0, 34.367188, 118.736719)" x="34.367188" y="118.736719">0.0</text>
     </g>
    </g>
    <g id="ytick_2">
     <g id="line2d_7">
      <g>
       <use style="stroke:#000000;stroke-width:0.8;" x="41.367188" xlink:href="#m38f100cb54" y="89.155527"/>
      </g>
     </g>
     <g id="text_8">
      <text style="font-family:Arial;font-size:10px;font-style:normal;font-weight:normal;text-anchor:end;" transform="rotate(-0, 34.367188, 92.734433)" x="34.367188" y="92.734433">0.2</text>
     </g>
    </g>
    <g id="ytick_3">
     <g id="line2d_8">
      <g>
       <use style="stroke:#000000;stroke-width:0.8;" x="41.367188" xlink:href="#m38f100cb54" y="63.153241"/>
      </g>
     </g>
     <g id="text_9">
      <text style="font-family:Arial;font-size:10px;font-style:normal;font-weight:normal;text-anchor:end;" transform="rotate(-0, 34.367188, 66.732147)" x="34.367188" y="66.732147">0.4</text>
     </g>
    </g>
    <g id="ytick_4">
     <g id="line2d_9">
      <g>
       <use style="stroke:#000000;stroke-width:0.8;" x="41.367188" xlink:href="#m38f100cb54" y="37.150955"/>
      </g>
     </g>
     <g id="text_10">
      <text style="font-family:Arial;font-size:10px;font-style:normal;font-weight:normal;text-anchor:end;" transform="rotate(-0, 34.367188, 40.729862)" x="34.367188" y="40.729862">0.6</text>
     </g>
    </g>
    <g id="text_11">
     <text style="font-family:Arial;font-size:10px;font-style:italic;font-weight:normal;text-anchor:middle;" transform="rotate(-90, 14.479688, 67.757812)" x="14.479688" y="67.757812">Proportion of cells</text>
    </g>
   </g>
   <g id="line2d_10">
    <path clip-path="url(#pd0eec8892b)" d="M 50.544187 105.916245 
L 50.544187 96.957349 
" style="fill:none;stroke:#424242;stroke-linecap:square;stroke-width:1.5;"/>
   </g>
   <g id="line2d_11">
    <path clip-path="url(#pd0eec8892b)" d="M 47.791087 105.916245 
L 53.297288 105.916245 
" style="fill:none;stroke:#424242;stroke-linecap:square;stroke-width:1.5;"/>
   </g>
   <g id="line2d_12">
    <path clip-path="url(#pd0eec8892b)" d="M 47.791087 96.957349 
L 53.297288 96.957349 
" style="fill:none;stroke:#424242;stroke-linecap:square;stroke-width:1.5;"/>
   </g>
   <g id="line2d_13">
    <path clip-path="url(#pd0eec8892b)" d="M 68.898188 103.853721 
L 68.898188 99.953885 
" style="fill:none;stroke:#424242;stroke-linecap:square;stroke-width:1.5;"/>
   </g>
   <g id="line2d_14">
    <path clip-path="url(#pd0eec8892b)" d="M 66.145088 103.853721 
L 71.651287 103.853721 
" style="fill:none;stroke:#424242;stroke-linecap:square;stroke-width:1.5;"/>
   </g>
   <g id="line2d_15">
    <path clip-path="url(#pd0eec8892b)" d="M 66.145088 99.953885 
L 71.651287 99.953885 
" style="fill:none;stroke:#424242;stroke-linecap:square;stroke-width:1.5;"/>
   </g>
   <g id="line2d_16">
    <path clip-path="url(#pd0eec8892b)" d="M 87.252188 106.232039 
L 87.252188 103.928711 
" style="fill:none;stroke:#424242;stroke-linecap:square;stroke-width:1.5;"/>
   </g>
   <g id="line2d_17">
    <path clip-path="url(#pd0eec8892b)" d="M 84.499088 106.232039 
L 90.005288 106.232039 
" style="fill:none;stroke:#424242;stroke-linecap:square;stroke-width:1.5;"/>
   </g>
   <g id="line2d_18">
    <path clip-path="url(#pd0eec8892b)" d="M 84.499088 103.928711 
L 90.005288 103.928711 
" style="fill:none;stroke:#424242;stroke-linecap:square;stroke-width:1.5;"/>
   </g>
   <g id="line2d_19">
    <path clip-path="url(#pd0eec8892b)" d="M 105.606188 98.266064 
L 105.606188 94.984281 
" style="fill:none;stroke:#424242;stroke-linecap:square;stroke-width:1.5;"/>
   </g>
   <g id="line2d_20">
    <path clip-path="url(#pd0eec8892b)" d="M 102.853088 98.266064 
L 108.359288 98.266064 
" style="fill:none;stroke:#424242;stroke-linecap:square;stroke-width:1.5;"/>
   </g>
   <g id="line2d_21">
    <path clip-path="url(#pd0eec8892b)" d="M 102.853088 94.984281 
L 108.359288 94.984281 
" style="fill:none;stroke:#424242;stroke-linecap:square;stroke-width:1.5;"/>
   </g>
   <g id="line2d_22">
    <path clip-path="url(#pd0eec8892b)" d="M 123.960188 42.098314 
L 123.960188 33.876251 
" style="fill:none;stroke:#424242;stroke-linecap:square;stroke-width:1.5;"/>
   </g>
   <g id="line2d_23">
    <path clip-path="url(#pd0eec8892b)" d="M 121.207088 42.098314 
L 126.713288 42.098314 
" style="fill:none;stroke:#424242;stroke-linecap:square;stroke-width:1.5;"/>
   </g>
   <g id="line2d_24">
    <path clip-path="url(#pd0eec8892b)" d="M 121.207088 33.876251 
L 126.713288 33.876251 
" style="fill:none;stroke:#424242;stroke-linecap:square;stroke-width:1.5;"/>
   </g>
   <g id="patch_8">
    <path d="M 41.367188 115.157813 
L 41.367188 20.357813 
" style="fill:none;stroke:#000000;stroke-linecap:square;stroke-linejoin:miter;stroke-width:0.8;"/>
   </g>
   <g id="patch_9">
    <path d="M 41.367188 115.157813 
L 133.137188 115.157813 
" style="fill:none;stroke:#000000;stroke-linecap:square;stroke-linejoin:miter;stroke-width:0.8;"/>
   </g>
   <g id="PathCollection_2">
    <defs>
     <path d="M 0 1.5 
C 0.397805 1.5 0.77937 1.341951 1.06066 1.06066 
C 1.341951 0.77937 1.5 0.397805 1.5 0 
C 1.5 -0.397805 1.341951 -0.77937 1.06066 -1.06066 
C 0.77937 -1.341951 0.397805 -1.5 0 -1.5 
C -0.397805 -1.5 -0.77937 -1.341951 -1.06066 -1.06066 
C -1.341951 -0.77937 -1.5 -0.397805 -1.5 0 
C -1.5 0.397805 -1.341951 0.77937 -1.06066 1.06066 
C -0.77937 1.341951 -0.397805 1.5 0 1.5 
z
" id="C0_0_8cb799c766"/>
    </defs>
    <g clip-path="url(#pd0eec8892b)">
     <use style="fill:#ef553b;stroke:#595959;" x="47.949182" xlink:href="#C0_0_8cb799c766" y="101.551965"/>
    </g>
    <g clip-path="url(#pd0eec8892b)">
     <use style="fill:#ef553b;stroke:#595959;" x="50.544188" xlink:href="#C0_0_8cb799c766" y="104.697123"/>
    </g>
    <g clip-path="url(#pd0eec8892b)">
     <use style="fill:#ef553b;stroke:#595959;" x="50.544188" xlink:href="#C0_0_8cb799c766" y="110.342574"/>
    </g>
    <g clip-path="url(#pd0eec8892b)">
     <use style="fill:#ef553b;stroke:#595959;" x="50.544188" xlink:href="#C0_0_8cb799c766" y="89.155527"/>
    </g>
   </g>
   <g id="PathCollection_3">
    <defs>
     <path d="M 0 1.5 
C 0.397805 1.5 0.77937 1.341951 1.06066 1.06066 
C 1.341951 0.77937 1.5 0.397805 1.5 0 
C 1.5 -0.397805 1.341951 -0.77937 1.06066 -1.06066 
C 0.77937 -1.341951 0.397805 -1.5 0 -1.5 
C -0.397805 -1.5 -0.77937 -1.341951 -1.06066 -1.06066 
C -1.341951 -0.77937 -1.5 -0.397805 -1.5 0 
C -1.5 0.397805 -1.341951 0.77937 -1.06066 1.06066 
C -0.77937 1.341951 -0.397805 1.5 0 1.5 
z
" id="C1_0_68f02ff872"/>
    </defs>
    <g clip-path="url(#pd0eec8892b)">
     <use style="fill:#ef553b;stroke:#595959;" x="65.482878" xlink:href="#C1_0_68f02ff872" y="98.528444"/>
    </g>
    <g clip-path="url(#pd0eec8892b)">
     <use style="fill:#ef553b;stroke:#595959;" x="66.432042" xlink:href="#C1_0_68f02ff872" y="104.697123"/>
    </g>
    <g clip-path="url(#pd0eec8892b)">
     <use style="fill:#ef553b;stroke:#595959;" x="68.898188" xlink:href="#C1_0_68f02ff872" y="107.934955"/>
    </g>
    <g clip-path="url(#pd0eec8892b)">
     <use style="fill:#ef553b;stroke:#595959;" x="71.185779" xlink:href="#C1_0_68f02ff872" y="97.501939"/>
    </g>
    <g clip-path="url(#pd0eec8892b)">
     <use style="fill:#ef553b;stroke:#595959;" x="68.898188" xlink:href="#C1_0_68f02ff872" y="100.856555"/>
    </g>
   </g>
   <g id="PathCollection_4">
    <defs>
     <path d="M 0 1.5 
C 0.397805 1.5 0.77937 1.341951 1.06066 1.06066 
C 1.341951 0.77937 1.5 0.397805 1.5 0 
C 1.5 -0.397805 1.341951 -0.77937 1.06066 -1.06066 
C 0.77937 -1.341951 0.397805 -1.5 0 -1.5 
C -0.397805 -1.5 -0.77937 -1.341951 -1.06066 -1.06066 
C -1.341951 -0.77937 -1.5 -0.397805 -1.5 0 
C -1.5 0.397805 -1.341951 0.77937 -1.06066 1.06066 
C -0.77937 1.341951 -0.397805 1.5 0 1.5 
z
" id="C2_0_1f70e0da99"/>
    </defs>
    <g clip-path="url(#pd0eec8892b)">
     <use style="fill:#ef553b;stroke:#595959;" x="88.036023" xlink:href="#C2_0_1f70e0da99" y="104.575487"/>
    </g>
    <g clip-path="url(#pd0eec8892b)">
     <use style="fill:#ef553b;stroke:#595959;" x="85.107379" xlink:href="#C2_0_1f70e0da99" y="101.708354"/>
    </g>
    <g clip-path="url(#pd0eec8892b)">
     <use style="fill:#ef553b;stroke:#595959;" x="92.227683" xlink:href="#C2_0_1f70e0da99" y="104.323527"/>
    </g>
    <g clip-path="url(#pd0eec8892b)">
     <use style="fill:#ef553b;stroke:#595959;" x="87.252188" xlink:href="#C2_0_1f70e0da99" y="108.737495"/>
    </g>
    <g clip-path="url(#pd0eec8892b)">
     <use style="fill:#ef553b;stroke:#595959;" x="84.134728" xlink:href="#C2_0_1f70e0da99" y="106.057012"/>
    </g>
   </g>
   <g id="PathCollection_5">
    <defs>
     <path d="M 0 1.5 
C 0.397805 1.5 0.77937 1.341951 1.06066 1.06066 
C 1.341951 0.77937 1.5 0.397805 1.5 0 
C 1.5 -0.397805 1.341951 -0.77937 1.06066 -1.06066 
C 0.77937 -1.341951 0.397805 -1.5 0 -1.5 
C -0.397805 -1.5 -0.77937 -1.341951 -1.06066 -1.06066 
C -1.341951 -0.77937 -1.5 -0.397805 -1.5 0 
C -1.5 0.397805 -1.341951 0.77937 -1.06066 1.06066 
C -0.77937 1.341951 -0.397805 1.5 0 1.5 
z
" id="C3_0_2069ea85bd"/>
    </defs>
    <g clip-path="url(#pd0eec8892b)">
     <use style="fill:#ef553b;stroke:#595959;" x="105.606188" xlink:href="#C3_0_2069ea85bd" y="101.551965"/>
    </g>
    <g clip-path="url(#pd0eec8892b)">
     <use style="fill:#ef553b;stroke:#595959;" x="101.40659" xlink:href="#C3_0_2069ea85bd" y="94.236433"/>
    </g>
    <g clip-path="url(#pd0eec8892b)">
     <use style="fill:#ef553b;stroke:#595959;" x="109.720785" xlink:href="#C3_0_2069ea85bd" y="93.489241"/>
    </g>
    <g clip-path="url(#pd0eec8892b)">
     <use style="fill:#ef553b;stroke:#595959;" x="105.606188" xlink:href="#C3_0_2069ea85bd" y="94.291781"/>
    </g>
    <g clip-path="url(#pd0eec8892b)">
     <use style="fill:#ef553b;stroke:#595959;" x="101.966172" xlink:href="#C3_0_2069ea85bd" y="99.556441"/>
    </g>
   </g>
   <g id="PathCollection_6">
    <defs>
     <path d="M 0 1.5 
C 0.397805 1.5 0.77937 1.341951 1.06066 1.06066 
C 1.341951 0.77937 1.5 0.397805 1.5 0 
C 1.5 -0.397805 1.341951 -0.77937 1.06066 -1.06066 
C 0.77937 -1.341951 0.397805 -1.5 0 -1.5 
C -0.397805 -1.5 -0.77937 -1.341951 -1.06066 -1.06066 
C -1.341951 -0.77937 -1.5 -0.397805 -1.5 0 
C -1.5 0.397805 -1.341951 0.77937 -1.06066 1.06066 
C -0.77937 1.341951 -0.397805 1.5 0 1.5 
z
" id="C4_0_b81e7383fb"/>
    </defs>
    <g clip-path="url(#pd0eec8892b)">
     <use style="fill:#ef553b;stroke:#595959;" x="119.86046" xlink:href="#C4_0_b81e7383fb" y="39.569773"/>
    </g>
    <g clip-path="url(#pd0eec8892b)">
     <use style="fill:#ef553b;stroke:#595959;" x="123.960188" xlink:href="#C4_0_b81e7383fb" y="40.438601"/>
    </g>
    <g clip-path="url(#pd0eec8892b)">
     <use style="fill:#ef553b;stroke:#595959;" x="123.960188" xlink:href="#C4_0_b81e7383fb" y="24.872098"/>
    </g>
    <g clip-path="url(#pd0eec8892b)">
     <use style="fill:#ef553b;stroke:#595959;" x="123.960188" xlink:href="#C4_0_b81e7383fb" y="34.903844"/>
    </g>
    <g clip-path="url(#pd0eec8892b)">
     <use style="fill:#ef553b;stroke:#595959;" x="123.960188" xlink:href="#C4_0_b81e7383fb" y="50.152098"/>
    </g>
   </g>
   <g id="text_12">
    <text style="font-family:Arial;font-size:10px;font-style:normal;font-weight:normal;text-anchor:middle;" transform="rotate(-0, 87.252188, 14.357812)" x="87.252188" y="14.357812">tdTomato</text>
   </g>
  </g>
  <g id="axes_2">
   <g id="patch_10">
    <path d="M 147.437188 115.157813 
L 239.207188 115.157813 
L 239.207188 20.357812 
L 147.437188 20.357812 
z
" style="fill:#ffffff;"/>
   </g>
   <g id="PathCollection_7"/>
   <g id="patch_11">
    <path clip-path="url(#pc3287d1d8a)" d="M 149.272588 115.157813 
L 163.955788 115.157813 
L 163.955788 89.688451 
L 149.272588 89.688451 
z
" style="fill:#14b88c;"/>
   </g>
   <g id="patch_12">
    <path clip-path="url(#pc3287d1d8a)" d="M 167.626587 115.157813 
L 182.309787 115.157813 
L 182.309787 89.877241 
L 167.626587 89.877241 
z
" style="fill:#14b88c;"/>
   </g>
   <g id="patch_13">
    <path clip-path="url(#pc3287d1d8a)" d="M 185.980588 115.157813 
L 200.663788 115.157813 
L 200.663788 96.75637 
L 185.980588 96.75637 
z
" style="fill:#14b88c;"/>
   </g>
   <g id="patch_14">
    <path clip-path="url(#pc3287d1d8a)" d="M 204.334587 115.157813 
L 219.017787 115.157813 
L 219.017787 88.401079 
L 204.334587 88.401079 
z
" style="fill:#14b88c;"/>
   </g>
   <g id="patch_15">
    <path clip-path="url(#pc3287d1d8a)" d="M 222.688587 115.157813 
L 237.371787 115.157813 
L 237.371787 81.054493 
L 222.688587 81.054493 
z
" style="fill:#14b88c;"/>
   </g>
   <g id="matplotlib.axis_3">
    <g id="xtick_6">
     <g id="line2d_25">
      <g>
       <use style="stroke:#000000;stroke-width:0.8;" x="156.614188" xlink:href="#m6b7c5c02d9" y="115.157813"/>
      </g>
     </g>
     <g id="text_13">
      <text style="font-family:Arial;font-size:10px;font-style:normal;font-weight:normal;text-anchor:middle;" transform="rotate(-0, 156.614188, 129.315625)" x="156.614188" y="129.315625">1</text>
     </g>
    </g>
    <g id="xtick_7">
     <g id="line2d_26">
      <g>
       <use style="stroke:#000000;stroke-width:0.8;" x="174.968187" xlink:href="#m6b7c5c02d9" y="115.157813"/>
      </g>
     </g>
     <g id="text_14">
      <text style="font-family:Arial;font-size:10px;font-style:normal;font-weight:normal;text-anchor:middle;" transform="rotate(-0, 174.968187, 129.315625)" x="174.968187" y="129.315625">2</text>
     </g>
    </g>
    <g id="xtick_8">
     <g id="line2d_27">
      <g>
       <use style="stroke:#000000;stroke-width:0.8;" x="193.322188" xlink:href="#m6b7c5c02d9" y="115.157813"/>
      </g>
     </g>
     <g id="text_15">
      <text style="font-family:Arial;font-size:10px;font-style:normal;font-weight:normal;text-anchor:middle;" transform="rotate(-0, 193.322188, 129.315625)" x="193.322188" y="129.315625">3</text>
     </g>
    </g>
    <g id="xtick_9">
     <g id="line2d_28">
      <g>
       <use style="stroke:#000000;stroke-width:0.8;" x="211.676187" xlink:href="#m6b7c5c02d9" y="115.157813"/>
      </g>
     </g>
     <g id="text_16">
      <text style="font-family:Arial;font-size:10px;font-style:normal;font-weight:normal;text-anchor:middle;" transform="rotate(-0, 211.676187, 129.315625)" x="211.676187" y="129.315625">4</text>
     </g>
    </g>
    <g id="xtick_10">
     <g id="line2d_29">
      <g>
       <use style="stroke:#000000;stroke-width:0.8;" x="230.030188" xlink:href="#m6b7c5c02d9" y="115.157813"/>
      </g>
     </g>
     <g id="text_17">
      <text style="font-family:Arial;font-size:10px;font-style:normal;font-weight:normal;text-anchor:middle;" transform="rotate(-0, 230.030188, 129.315625)" x="230.030188" y="129.315625">5</text>
     </g>
    </g>
    <g id="text_18">
     <text style="font-family:Arial;font-size:10px;font-style:italic;font-weight:normal;text-anchor:middle;" transform="rotate(-0, 193.322188, 142.460938)" x="193.322188" y="142.460938"># of sessions active</text>
    </g>
   </g>
   <g id="matplotlib.axis_4">
    <g id="ytick_5">
     <g id="line2d_30">
      <g>
       <use style="stroke:#000000;stroke-width:0.8;" x="147.437188" xlink:href="#m38f100cb54" y="115.157813"/>
      </g>
     </g>
    </g>
    <g id="ytick_6">
     <g id="line2d_31">
      <g>
       <use style="stroke:#000000;stroke-width:0.8;" x="147.437188" xlink:href="#m38f100cb54" y="89.155527"/>
      </g>
     </g>
    </g>
    <g id="ytick_7">
     <g id="line2d_32">
      <g>
       <use style="stroke:#000000;stroke-width:0.8;" x="147.437188" xlink:href="#m38f100cb54" y="63.153241"/>
      </g>
     </g>
    </g>
    <g id="ytick_8">
     <g id="line2d_33">
      <g>
       <use style="stroke:#000000;stroke-width:0.8;" x="147.437188" xlink:href="#m38f100cb54" y="37.150955"/>
      </g>
     </g>
    </g>
   </g>
   <g id="line2d_34">
    <path clip-path="url(#pc3287d1d8a)" d="M 156.614188 94.502153 
L 156.614188 84.87475 
" style="fill:none;stroke:#424242;stroke-linecap:square;stroke-width:1.5;"/>
   </g>
   <g id="line2d_35">
    <path clip-path="url(#pc3287d1d8a)" d="M 153.861088 94.502153 
L 159.367288 94.502153 
" style="fill:none;stroke:#424242;stroke-linecap:square;stroke-width:1.5;"/>
   </g>
   <g id="line2d_36">
    <path clip-path="url(#pc3287d1d8a)" d="M 153.861088 84.87475 
L 159.367288 84.87475 
" style="fill:none;stroke:#424242;stroke-linecap:square;stroke-width:1.5;"/>
   </g>
   <g id="line2d_37">
    <path clip-path="url(#pc3287d1d8a)" d="M 174.968187 92.882339 
L 174.968187 86.872142 
" style="fill:none;stroke:#424242;stroke-linecap:square;stroke-width:1.5;"/>
   </g>
   <g id="line2d_38">
    <path clip-path="url(#pc3287d1d8a)" d="M 172.215088 92.882339 
L 177.721288 92.882339 
" style="fill:none;stroke:#424242;stroke-linecap:square;stroke-width:1.5;"/>
   </g>
   <g id="line2d_39">
    <path clip-path="url(#pc3287d1d8a)" d="M 172.215088 86.872142 
L 177.721288 86.872142 
" style="fill:none;stroke:#424242;stroke-linecap:square;stroke-width:1.5;"/>
   </g>
   <g id="line2d_40">
    <path clip-path="url(#pc3287d1d8a)" d="M 193.322188 99.964874 
L 193.322188 93.547865 
" style="fill:none;stroke:#424242;stroke-linecap:square;stroke-width:1.5;"/>
   </g>
   <g id="line2d_41">
    <path clip-path="url(#pc3287d1d8a)" d="M 190.569088 99.964874 
L 196.075288 99.964874 
" style="fill:none;stroke:#424242;stroke-linecap:square;stroke-width:1.5;"/>
   </g>
   <g id="line2d_42">
    <path clip-path="url(#pc3287d1d8a)" d="M 190.569088 93.547865 
L 196.075288 93.547865 
" style="fill:none;stroke:#424242;stroke-linecap:square;stroke-width:1.5;"/>
   </g>
   <g id="line2d_43">
    <path clip-path="url(#pc3287d1d8a)" d="M 211.676187 89.767099 
L 211.676187 87.035059 
" style="fill:none;stroke:#424242;stroke-linecap:square;stroke-width:1.5;"/>
   </g>
   <g id="line2d_44">
    <path clip-path="url(#pc3287d1d8a)" d="M 208.923088 89.767099 
L 214.429287 89.767099 
" style="fill:none;stroke:#424242;stroke-linecap:square;stroke-width:1.5;"/>
   </g>
   <g id="line2d_45">
    <path clip-path="url(#pc3287d1d8a)" d="M 208.923088 87.035059 
L 214.429287 87.035059 
" style="fill:none;stroke:#424242;stroke-linecap:square;stroke-width:1.5;"/>
   </g>
   <g id="line2d_46">
    <path clip-path="url(#pc3287d1d8a)" d="M 230.030188 83.566403 
L 230.030188 78.542584 
" style="fill:none;stroke:#424242;stroke-linecap:square;stroke-width:1.5;"/>
   </g>
   <g id="line2d_47">
    <path clip-path="url(#pc3287d1d8a)" d="M 227.277087 83.566403 
L 232.783288 83.566403 
" style="fill:none;stroke:#424242;stroke-linecap:square;stroke-width:1.5;"/>
   </g>
   <g id="line2d_48">
    <path clip-path="url(#pc3287d1d8a)" d="M 227.277087 78.542584 
L 232.783288 78.542584 
" style="fill:none;stroke:#424242;stroke-linecap:square;stroke-width:1.5;"/>
   </g>
   <g id="patch_16">
    <path d="M 147.437188 115.157813 
L 147.437188 20.357813 
" style="fill:none;stroke:#000000;stroke-linecap:square;stroke-linejoin:miter;stroke-width:0.8;"/>
   </g>
   <g id="patch_17">
    <path d="M 147.437188 115.157813 
L 239.207187 115.157813 
" style="fill:none;stroke:#000000;stroke-linecap:square;stroke-linejoin:miter;stroke-width:0.8;"/>
   </g>
   <g id="PathCollection_8">
    <defs>
     <path d="M 0 1.5 
C 0.397805 1.5 0.77937 1.341951 1.06066 1.06066 
C 1.341951 0.77937 1.5 0.397805 1.5 0 
C 1.5 -0.397805 1.341951 -0.77937 1.06066 -1.06066 
C 0.77937 -1.341951 0.397805 -1.5 0 -1.5 
C -0.397805 -1.5 -0.77937 -1.341951 -1.06066 -1.06066 
C -1.341951 -0.77937 -1.5 -0.397805 -1.5 0 
C -1.5 0.397805 -1.341951 0.77937 -1.06066 1.06066 
C -0.77937 1.341951 -0.397805 1.5 0 1.5 
z
" id="C5_0_42bbe701d5"/>
    </defs>
    <g clip-path="url(#pc3287d1d8a)">
     <use style="fill:#00cc96;stroke:#3d3d3d;" x="156.614187" xlink:href="#C5_0_42bbe701d5" y="106.632473"/>
    </g>
    <g clip-path="url(#pc3287d1d8a)">
     <use style="fill:#00cc96;stroke:#3d3d3d;" x="160.209096" xlink:href="#C5_0_42bbe701d5" y="87.087163"/>
    </g>
    <g clip-path="url(#pc3287d1d8a)">
     <use style="fill:#00cc96;stroke:#3d3d3d;" x="152.425406" xlink:href="#C5_0_42bbe701d5" y="88.863366"/>
    </g>
    <g clip-path="url(#pc3287d1d8a)">
     <use style="fill:#00cc96;stroke:#3d3d3d;" x="156.614187" xlink:href="#C5_0_42bbe701d5" y="89.155527"/>
    </g>
    <g clip-path="url(#pc3287d1d8a)">
     <use style="fill:#00cc96;stroke:#3d3d3d;" x="156.614187" xlink:href="#C5_0_42bbe701d5" y="76.703728"/>
    </g>
   </g>
   <g id="PathCollection_9">
    <defs>
     <path d="M 0 1.5 
C 0.397805 1.5 0.77937 1.341951 1.06066 1.06066 
C 1.341951 0.77937 1.5 0.397805 1.5 0 
C 1.5 -0.397805 1.341951 -0.77937 1.06066 -1.06066 
C 0.77937 -1.341951 0.397805 -1.5 0 -1.5 
C -0.397805 -1.5 -0.77937 -1.341951 -1.06066 -1.06066 
C -1.341951 -0.77937 -1.5 -0.397805 -1.5 0 
C -1.5 0.397805 -1.341951 0.77937 -1.06066 1.06066 
C -0.77937 1.341951 -0.397805 1.5 0 1.5 
z
" id="C6_0_4e71ecec36"/>
    </defs>
    <g clip-path="url(#pc3287d1d8a)">
     <use style="fill:#00cc96;stroke:#3d3d3d;" x="174.968187" xlink:href="#C6_0_4e71ecec36" y="78.925119"/>
    </g>
    <g clip-path="url(#pc3287d1d8a)">
     <use style="fill:#00cc96;stroke:#3d3d3d;" x="178.74847" xlink:href="#C6_0_4e71ecec36" y="90.041968"/>
    </g>
    <g clip-path="url(#pc3287d1d8a)">
     <use style="fill:#00cc96;stroke:#3d3d3d;" x="174.968187" xlink:href="#C6_0_4e71ecec36" y="91.784971"/>
    </g>
    <g clip-path="url(#pc3287d1d8a)">
     <use style="fill:#00cc96;stroke:#3d3d3d;" x="174.968187" xlink:href="#C6_0_4e71ecec36" y="97.281241"/>
    </g>
    <g clip-path="url(#pc3287d1d8a)">
     <use style="fill:#00cc96;stroke:#3d3d3d;" x="170.792762" xlink:href="#C6_0_4e71ecec36" y="91.352903"/>
    </g>
   </g>
   <g id="PathCollection_10">
    <defs>
     <path d="M 0 1.5 
C 0.397805 1.5 0.77937 1.341951 1.06066 1.06066 
C 1.341951 0.77937 1.5 0.397805 1.5 0 
C 1.5 -0.397805 1.341951 -0.77937 1.06066 -1.06066 
C 0.77937 -1.341951 0.397805 -1.5 0 -1.5 
C -0.397805 -1.5 -0.77937 -1.341951 -1.06066 -1.06066 
C -1.341951 -0.77937 -1.5 -0.397805 -1.5 0 
C -1.5 0.397805 -1.341951 0.77937 -1.06066 1.06066 
C -0.77937 1.341951 -0.397805 1.5 0 1.5 
z
" id="C7_0_1a3759a53a"/>
    </defs>
    <g clip-path="url(#pc3287d1d8a)">
     <use style="fill:#00cc96;stroke:#3d3d3d;" x="193.322188" xlink:href="#C7_0_1a3759a53a" y="100.238468"/>
    </g>
    <g clip-path="url(#pc3287d1d8a)">
     <use style="fill:#00cc96;stroke:#3d3d3d;" x="197.417756" xlink:href="#C7_0_1a3759a53a" y="91.519371"/>
    </g>
    <g clip-path="url(#pc3287d1d8a)">
     <use style="fill:#00cc96;stroke:#3d3d3d;" x="189.173085" xlink:href="#C7_0_1a3759a53a" y="91.784971"/>
    </g>
    <g clip-path="url(#pc3287d1d8a)">
     <use style="fill:#00cc96;stroke:#3d3d3d;" x="193.322188" xlink:href="#C7_0_1a3759a53a" y="92.405812"/>
    </g>
    <g clip-path="url(#pc3287d1d8a)">
     <use style="fill:#00cc96;stroke:#3d3d3d;" x="193.322188" xlink:href="#C7_0_1a3759a53a" y="107.833225"/>
    </g>
   </g>
   <g id="PathCollection_11">
    <defs>
     <path d="M 0 1.5 
C 0.397805 1.5 0.77937 1.341951 1.06066 1.06066 
C 1.341951 0.77937 1.5 0.397805 1.5 0 
C 1.5 -0.397805 1.341951 -0.77937 1.06066 -1.06066 
C 0.77937 -1.341951 0.397805 -1.5 0 -1.5 
C -0.397805 -1.5 -0.77937 -1.341951 -1.06066 -1.06066 
C -1.341951 -0.77937 -1.5 -0.397805 -1.5 0 
C -1.5 0.397805 -1.341951 0.77937 -1.06066 1.06066 
C -0.77937 1.341951 -0.397805 1.5 0 1.5 
z
" id="C8_0_7ace1f6354"/>
    </defs>
    <g clip-path="url(#pc3287d1d8a)">
     <use style="fill:#00cc96;stroke:#3d3d3d;" x="211.676187" xlink:href="#C8_0_7ace1f6354" y="87.450459"/>
    </g>
    <g clip-path="url(#pc3287d1d8a)">
     <use style="fill:#00cc96;stroke:#3d3d3d;" x="211.676187" xlink:href="#C8_0_7ace1f6354" y="91.519371"/>
    </g>
    <g clip-path="url(#pc3287d1d8a)">
     <use style="fill:#00cc96;stroke:#3d3d3d;" x="215.875886" xlink:href="#C8_0_7ace1f6354" y="87.402564"/>
    </g>
    <g clip-path="url(#pc3287d1d8a)">
     <use style="fill:#00cc96;stroke:#3d3d3d;" x="209.115218" xlink:href="#C8_0_7ace1f6354" y="84.280098"/>
    </g>
    <g clip-path="url(#pc3287d1d8a)">
     <use style="fill:#00cc96;stroke:#3d3d3d;" x="207.479826" xlink:href="#C8_0_7ace1f6354" y="91.352903"/>
    </g>
   </g>
   <g id="PathCollection_12">
    <defs>
     <path d="M 0 1.5 
C 0.397805 1.5 0.77937 1.341951 1.06066 1.06066 
C 1.341951 0.77937 1.5 0.397805 1.5 0 
C 1.5 -0.397805 1.341951 -0.77937 1.06066 -1.06066 
C 0.77937 -1.341951 0.397805 -1.5 0 -1.5 
C -0.397805 -1.5 -0.77937 -1.341951 -1.06066 -1.06066 
C -1.341951 -0.77937 -1.5 -0.397805 -1.5 0 
C -1.5 0.397805 -1.341951 0.77937 -1.06066 1.06066 
C -0.77937 1.341951 -0.397805 1.5 0 1.5 
z
" id="C9_0_cf1f12447e"/>
    </defs>
    <g clip-path="url(#pc3287d1d8a)">
     <use style="fill:#00cc96;stroke:#3d3d3d;" x="230.030188" xlink:href="#C9_0_cf1f12447e" y="72.531115"/>
    </g>
    <g clip-path="url(#pc3287d1d8a)">
     <use style="fill:#00cc96;stroke:#3d3d3d;" x="225.844679" xlink:href="#C9_0_cf1f12447e" y="85.609761"/>
    </g>
    <g clip-path="url(#pc3287d1d8a)">
     <use style="fill:#00cc96;stroke:#3d3d3d;" x="230.030188" xlink:href="#C9_0_cf1f12447e" y="85.941761"/>
    </g>
    <g clip-path="url(#pc3287d1d8a)">
     <use style="fill:#00cc96;stroke:#3d3d3d;" x="232.423844" xlink:href="#C9_0_cf1f12447e" y="82.654955"/>
    </g>
    <g clip-path="url(#pc3287d1d8a)">
     <use style="fill:#00cc96;stroke:#3d3d3d;" x="230.030188" xlink:href="#C9_0_cf1f12447e" y="78.534875"/>
    </g>
   </g>
   <g id="text_19">
    <text style="font-family:Arial;font-size:10px;font-style:normal;font-weight:normal;text-anchor:middle;" transform="rotate(-0, 193.322188, 14.357812)" x="193.322188" y="14.357812">GCaMP</text>
   </g>
  </g>
 </g>
 <defs>
  <clipPath id="pd0eec8892b">
   <rect height="94.8" width="91.77" x="41.367188" y="20.357812"/>
  </clipPath>
  <clipPath id="pc3287d1d8a">
   <rect height="94.8" width="91.77" x="147.437188" y="20.357812"/>
  </clipPath>
 </defs>
</svg>
