<!DOCTYPE svg PUBLIC "-//W3C//DTD SVG 1.1//EN" "http://www.w3.org/Graphics/SVG/1.1/DTD/svg11.dtd">
<svg xmlns:xlink="http://www.w3.org/1999/xlink" xmlns="http://www.w3.org/2000/svg" width="165.920312pt" height="137.122188pt" viewBox="0 0 165.920312 137.122188" version="1.1">
 <metadata>
  <rdf:RDF xmlns:dc="http://purl.org/dc/elements/1.1/" xmlns:cc="http://creativecommons.org/ns#" xmlns:rdf="http://www.w3.org/1999/02/22-rdf-syntax-ns#">
   <cc:Work>
    <dc:type rdf:resource="http://purl.org/dc/dcmitype/StillImage"/>
    <dc:date>2022-12-29T16:50:48.059254</dc:date>
    <dc:format>image/svg+xml</dc:format>
    <dc:creator>
     <cc:Agent>
      <dc:title>Matplotlib v3.6.2, https://matplotlib.org/</dc:title>
     </cc:Agent>
    </dc:creator>
   </cc:Work>
  </rdf:RDF>
 </metadata>
 <defs>
  <style type="text/css">*{stroke-linejoin: round; stroke-linecap: butt}</style>
 </defs>
 <g id="figure_1">
  <g id="patch_1">
   <path d="M 0 137.122188  L 165.920312 137.122188  L 165.920312 0  L 0 0  L 0 137.122188  z " style="fill: none"/>
  </g>
  <g id="axes_1">
   <g id="patch_2">
    <path d="M 33.145313 103.2  L 158.720312 103.2  L 158.720312 7.2  L 33.145313 7.2  z " style="fill: #ffffff"/>
   </g>
   <g id="patch_3">
    <path d="M 48.842188 103.2  L 80.235937 103.2  L 80.235937 28.914641  L 48.842188 28.914641  z " clip-path="url(#p83263c651e)" style="fill: #4c6f87"/>
   </g>
   <g id="patch_4">
    <path d="M 111.629687 103.2  L 143.023437 103.2  L 143.023437 31.299987  L 111.629687 31.299987  z " clip-path="url(#p83263c651e)" style="fill: #4c6f87"/>
   </g>
   <g id="matplotlib.axis_1">
    <g id="xtick_1">
     <g id="line2d_1">
      <defs>
       <path id="cc07c2b6" d="M 0 0  L 0 3.5  " style="stroke: #000000; stroke-width: 0.8"/>
      </defs>
      <g>
       <use xlink:href="#cc07c2b6" x="64.539062" y="103.2" style="stroke: #000000; stroke-width: 0.8"/>
      </g>
     </g>
     <g id="text_1">
      <!-- Dual-channel -->
      <g transform="translate(35.078125 117.357813) scale(0.1 -0.1)">
       <defs>
        <path id="cd2180f3" d="M 494 0  L 494 4581  L 2072 4581  Q 2606 4581 2888 4516  Q 3281 4425 3559 4188  Q 3922 3881 4101 3404  Q 4281 2928 4281 2316  Q 4281 1794 4159 1391  Q 4038 988 3847 723  Q 3656 459 3429 307  Q 3203 156 2883 78  Q 2563 0 2147 0  L 494 0  z M 1100 541  L 2078 541  Q 2531 541 2789 625  Q 3047 709 3200 863  Q 3416 1078 3536 1442  Q 3656 1806 3656 2325  Q 3656 3044 3420 3430  Q 3184 3816 2847 3947  Q 2603 4041 2063 4041  L 1100 4041  L 1100 541  z " transform="scale(0.015625)"/>
        <path id="3f704133" d="M 2597 0  L 2597 488  Q 2209 -75 1544 -75  Q 1250 -75 995 37  Q 741 150 617 320  Q 494 491 444 738  Q 409 903 409 1263  L 409 3319  L 972 3319  L 972 1478  Q 972 1038 1006 884  Q 1059 663 1231 536  Q 1403 409 1656 409  Q 1909 409 2131 539  Q 2353 669 2445 892  Q 2538 1116 2538 1541  L 2538 3319  L 3100 3319  L 3100 0  L 2597 0  z " transform="scale(0.015625)"/>
        <path id="ced61c97" d="M 2588 409  Q 2275 144 1986 34  Q 1697 -75 1366 -75  Q 819 -75 525 192  Q 231 459 231 875  Q 231 1119 342 1320  Q 453 1522 633 1644  Q 813 1766 1038 1828  Q 1203 1872 1538 1913  Q 2219 1994 2541 2106  Q 2544 2222 2544 2253  Q 2544 2597 2384 2738  Q 2169 2928 1744 2928  Q 1347 2928 1158 2789  Q 969 2650 878 2297  L 328 2372  Q 403 2725 575 2942  Q 747 3159 1072 3276  Q 1397 3394 1825 3394  Q 2250 3394 2515 3294  Q 2781 3194 2906 3042  Q 3031 2891 3081 2659  Q 3109 2516 3109 2141  L 3109 1391  Q 3109 606 3145 398  Q 3181 191 3288 0  L 2700 0  Q 2613 175 2588 409  z M 2541 1666  Q 2234 1541 1622 1453  Q 1275 1403 1131 1340  Q 988 1278 909 1158  Q 831 1038 831 891  Q 831 666 1001 516  Q 1172 366 1500 366  Q 1825 366 2078 508  Q 2331 650 2450 897  Q 2541 1088 2541 1459  L 2541 1666  z " transform="scale(0.015625)"/>
        <path id="23015113" d="M 409 0  L 409 4581  L 972 4581  L 972 0  L 409 0  z " transform="scale(0.015625)"/>
        <path id="ff331d44" d="M 203 1375  L 203 1941  L 1931 1941  L 1931 1375  L 203 1375  z " transform="scale(0.015625)"/>
        <path id="86bf12da" d="M 2588 1216  L 3141 1144  Q 3050 572 2676 248  Q 2303 -75 1759 -75  Q 1078 -75 664 370  Q 250 816 250 1647  Q 250 2184 428 2587  Q 606 2991 970 3192  Q 1334 3394 1763 3394  Q 2303 3394 2647 3120  Q 2991 2847 3088 2344  L 2541 2259  Q 2463 2594 2264 2762  Q 2066 2931 1784 2931  Q 1359 2931 1093 2626  Q 828 2322 828 1663  Q 828 994 1084 691  Q 1341 388 1753 388  Q 2084 388 2306 591  Q 2528 794 2588 1216  z " transform="scale(0.015625)"/>
        <path id="18e75653" d="M 422 0  L 422 4581  L 984 4581  L 984 2938  Q 1378 3394 1978 3394  Q 2347 3394 2619 3248  Q 2891 3103 3008 2847  Q 3125 2591 3125 2103  L 3125 0  L 2563 0  L 2563 2103  Q 2563 2525 2380 2717  Q 2197 2909 1863 2909  Q 1613 2909 1392 2779  Q 1172 2650 1078 2428  Q 984 2206 984 1816  L 984 0  L 422 0  z " transform="scale(0.015625)"/>
        <path id="a3bef156" d="M 422 0  L 422 3319  L 928 3319  L 928 2847  Q 1294 3394 1984 3394  Q 2284 3394 2536 3286  Q 2788 3178 2913 3003  Q 3038 2828 3088 2588  Q 3119 2431 3119 2041  L 3119 0  L 2556 0  L 2556 2019  Q 2556 2363 2490 2533  Q 2425 2703 2258 2804  Q 2091 2906 1866 2906  Q 1506 2906 1245 2678  Q 984 2450 984 1813  L 984 0  L 422 0  z " transform="scale(0.015625)"/>
        <path id="cccbc86f" d="M 2694 1069  L 3275 997  Q 3138 488 2766 206  Q 2394 -75 1816 -75  Q 1088 -75 661 373  Q 234 822 234 1631  Q 234 2469 665 2931  Q 1097 3394 1784 3394  Q 2450 3394 2872 2941  Q 3294 2488 3294 1666  Q 3294 1616 3291 1516  L 816 1516  Q 847 969 1125 678  Q 1403 388 1819 388  Q 2128 388 2347 550  Q 2566 713 2694 1069  z M 847 1978  L 2700 1978  Q 2663 2397 2488 2606  Q 2219 2931 1791 2931  Q 1403 2931 1139 2672  Q 875 2413 847 1978  z " transform="scale(0.015625)"/>
       </defs>
       <use xlink:href="#cd2180f3"/>
       <use xlink:href="#3f704133" x="72.216797"/>
       <use xlink:href="#ced61c97" x="127.832031"/>
       <use xlink:href="#23015113" x="183.447266"/>
       <use xlink:href="#ff331d44" x="205.664062"/>
       <use xlink:href="#86bf12da" x="238.964844"/>
       <use xlink:href="#18e75653" x="288.964844"/>
       <use xlink:href="#ced61c97" x="344.580078"/>
       <use xlink:href="#a3bef156" x="400.195312"/>
       <use xlink:href="#a3bef156" x="455.810547"/>
       <use xlink:href="#cccbc86f" x="511.425781"/>
       <use xlink:href="#23015113" x="567.041016"/>
      </g>
      <!-- Miniscope -->
      <g transform="translate(42.030469 127.934688) scale(0.1 -0.1)">
       <defs>
        <path id="2afd51f8" d="M 475 0  L 475 4581  L 1388 4581  L 2472 1338  Q 2622 884 2691 659  Q 2769 909 2934 1394  L 4031 4581  L 4847 4581  L 4847 0  L 4263 0  L 4263 3834  L 2931 0  L 2384 0  L 1059 3900  L 1059 0  L 475 0  z " transform="scale(0.015625)"/>
        <path id="c7910bd8" d="M 425 3934  L 425 4581  L 988 4581  L 988 3934  L 425 3934  z M 425 0  L 425 3319  L 988 3319  L 988 0  L 425 0  z " transform="scale(0.015625)"/>
        <path id="d7805c11" d="M 197 991  L 753 1078  Q 800 744 1014 566  Q 1228 388 1613 388  Q 2000 388 2187 545  Q 2375 703 2375 916  Q 2375 1106 2209 1216  Q 2094 1291 1634 1406  Q 1016 1563 777 1677  Q 538 1791 414 1992  Q 291 2194 291 2438  Q 291 2659 392 2848  Q 494 3038 669 3163  Q 800 3259 1026 3326  Q 1253 3394 1513 3394  Q 1903 3394 2198 3281  Q 2494 3169 2634 2976  Q 2775 2784 2828 2463  L 2278 2388  Q 2241 2644 2061 2787  Q 1881 2931 1553 2931  Q 1166 2931 1000 2803  Q 834 2675 834 2503  Q 834 2394 903 2306  Q 972 2216 1119 2156  Q 1203 2125 1616 2013  Q 2213 1853 2448 1751  Q 2684 1650 2818 1456  Q 2953 1263 2953 975  Q 2953 694 2789 445  Q 2625 197 2315 61  Q 2006 -75 1616 -75  Q 969 -75 630 194  Q 291 463 197 991  z " transform="scale(0.015625)"/>
        <path id="ef491f7f" d="M 213 1659  Q 213 2581 725 3025  Q 1153 3394 1769 3394  Q 2453 3394 2887 2945  Q 3322 2497 3322 1706  Q 3322 1066 3130 698  Q 2938 331 2570 128  Q 2203 -75 1769 -75  Q 1072 -75 642 372  Q 213 819 213 1659  z M 791 1659  Q 791 1022 1069 705  Q 1347 388 1769 388  Q 2188 388 2466 706  Q 2744 1025 2744 1678  Q 2744 2294 2464 2611  Q 2184 2928 1769 2928  Q 1347 2928 1069 2612  Q 791 2297 791 1659  z " transform="scale(0.015625)"/>
        <path id="34283862" d="M 422 -1272  L 422 3319  L 934 3319  L 934 2888  Q 1116 3141 1344 3267  Q 1572 3394 1897 3394  Q 2322 3394 2647 3175  Q 2972 2956 3137 2557  Q 3303 2159 3303 1684  Q 3303 1175 3120 767  Q 2938 359 2589 142  Q 2241 -75 1856 -75  Q 1575 -75 1351 44  Q 1128 163 984 344  L 984 -1272  L 422 -1272  z M 931 1641  Q 931 1000 1190 694  Q 1450 388 1819 388  Q 2194 388 2461 705  Q 2728 1022 2728 1688  Q 2728 2322 2467 2637  Q 2206 2953 1844 2953  Q 1484 2953 1207 2617  Q 931 2281 931 1641  z " transform="scale(0.015625)"/>
       </defs>
       <use xlink:href="#2afd51f8"/>
       <use xlink:href="#c7910bd8" x="83.300781"/>
       <use xlink:href="#a3bef156" x="105.517578"/>
       <use xlink:href="#c7910bd8" x="161.132812"/>
       <use xlink:href="#d7805c11" x="183.349609"/>
       <use xlink:href="#86bf12da" x="233.349609"/>
       <use xlink:href="#ef491f7f" x="283.349609"/>
       <use xlink:href="#34283862" x="338.964844"/>
       <use xlink:href="#cccbc86f" x="394.580078"/>
      </g>
     </g>
    </g>
    <g id="xtick_2">
     <g id="line2d_2">
      <g>
       <use xlink:href="#cc07c2b6" x="127.326562" y="103.2" style="stroke: #000000; stroke-width: 0.8"/>
      </g>
     </g>
     <g id="text_2">
      <!-- Normal -->
      <g transform="translate(111.214062 117.357813) scale(0.1 -0.1)">
       <defs>
        <path id="94657ef3" d="M 488 0  L 488 4581  L 1109 4581  L 3516 984  L 3516 4581  L 4097 4581  L 4097 0  L 3475 0  L 1069 3600  L 1069 0  L 488 0  z " transform="scale(0.015625)"/>
        <path id="0723ad6f" d="M 416 0  L 416 3319  L 922 3319  L 922 2816  Q 1116 3169 1280 3281  Q 1444 3394 1641 3394  Q 1925 3394 2219 3213  L 2025 2691  Q 1819 2813 1613 2813  Q 1428 2813 1281 2702  Q 1134 2591 1072 2394  Q 978 2094 978 1738  L 978 0  L 416 0  z " transform="scale(0.015625)"/>
        <path id="c5bd1f19" d="M 422 0  L 422 3319  L 925 3319  L 925 2853  Q 1081 3097 1340 3245  Q 1600 3394 1931 3394  Q 2300 3394 2536 3241  Q 2772 3088 2869 2813  Q 3263 3394 3894 3394  Q 4388 3394 4653 3120  Q 4919 2847 4919 2278  L 4919 0  L 4359 0  L 4359 2091  Q 4359 2428 4304 2576  Q 4250 2725 4106 2815  Q 3963 2906 3769 2906  Q 3419 2906 3187 2673  Q 2956 2441 2956 1928  L 2956 0  L 2394 0  L 2394 2156  Q 2394 2531 2256 2718  Q 2119 2906 1806 2906  Q 1569 2906 1367 2781  Q 1166 2656 1075 2415  Q 984 2175 984 1722  L 984 0  L 422 0  z " transform="scale(0.015625)"/>
       </defs>
       <use xlink:href="#94657ef3"/>
       <use xlink:href="#ef491f7f" x="72.216797"/>
       <use xlink:href="#0723ad6f" x="127.832031"/>
       <use xlink:href="#c5bd1f19" x="161.132812"/>
       <use xlink:href="#ced61c97" x="244.433594"/>
       <use xlink:href="#23015113" x="300.048828"/>
      </g>
      <!-- Miniscope -->
      <g transform="translate(104.817969 127.934688) scale(0.1 -0.1)">
       <use xlink:href="#2afd51f8"/>
       <use xlink:href="#c7910bd8" x="83.300781"/>
       <use xlink:href="#a3bef156" x="105.517578"/>
       <use xlink:href="#c7910bd8" x="161.132812"/>
       <use xlink:href="#d7805c11" x="183.349609"/>
       <use xlink:href="#86bf12da" x="233.349609"/>
       <use xlink:href="#ef491f7f" x="283.349609"/>
       <use xlink:href="#34283862" x="338.964844"/>
       <use xlink:href="#cccbc86f" x="394.580078"/>
      </g>
     </g>
    </g>
   </g>
   <g id="matplotlib.axis_2">
    <g id="ytick_1">
     <g id="line2d_3">
      <defs>
       <path id="9ccc4a48" d="M 0 0  L -3.5 0  " style="stroke: #000000; stroke-width: 0.8"/>
      </defs>
      <g>
       <use xlink:href="#9ccc4a48" x="33.145313" y="103.2" style="stroke: #000000; stroke-width: 0.8"/>
      </g>
     </g>
     <g id="text_3">
      <!-- 0 -->
      <g transform="translate(20.584375 106.778906) scale(0.1 -0.1)">
       <defs>
        <path id="1beba6ed" d="M 266 2259  Q 266 3072 433 3567  Q 600 4063 929 4331  Q 1259 4600 1759 4600  Q 2128 4600 2406 4451  Q 2684 4303 2865 4023  Q 3047 3744 3150 3342  Q 3253 2941 3253 2259  Q 3253 1453 3087 958  Q 2922 463 2592 192  Q 2263 -78 1759 -78  Q 1097 -78 719 397  Q 266 969 266 2259  z M 844 2259  Q 844 1131 1108 757  Q 1372 384 1759 384  Q 2147 384 2411 759  Q 2675 1134 2675 2259  Q 2675 3391 2411 3762  Q 2147 4134 1753 4134  Q 1366 4134 1134 3806  Q 844 3388 844 2259  z " transform="scale(0.015625)"/>
       </defs>
       <use xlink:href="#1beba6ed"/>
      </g>
     </g>
    </g>
    <g id="ytick_2">
     <g id="line2d_4">
      <g>
       <use xlink:href="#9ccc4a48" x="33.145313" y="66.89677" style="stroke: #000000; stroke-width: 0.8"/>
      </g>
     </g>
     <g id="text_4">
      <!-- 2 -->
      <g transform="translate(20.584375 70.475677) scale(0.1 -0.1)">
       <defs>
        <path id="654a2150" d="M 3222 541  L 3222 0  L 194 0  Q 188 203 259 391  Q 375 700 629 1000  Q 884 1300 1366 1694  Q 2113 2306 2375 2664  Q 2638 3022 2638 3341  Q 2638 3675 2398 3904  Q 2159 4134 1775 4134  Q 1369 4134 1125 3890  Q 881 3647 878 3216  L 300 3275  Q 359 3922 746 4261  Q 1134 4600 1788 4600  Q 2447 4600 2831 4234  Q 3216 3869 3216 3328  Q 3216 3053 3103 2787  Q 2991 2522 2730 2228  Q 2469 1934 1863 1422  Q 1356 997 1212 845  Q 1069 694 975 541  L 3222 541  z " transform="scale(0.015625)"/>
       </defs>
       <use xlink:href="#654a2150"/>
      </g>
     </g>
    </g>
    <g id="ytick_3">
     <g id="line2d_5">
      <g>
       <use xlink:href="#9ccc4a48" x="33.145313" y="30.593541" style="stroke: #000000; stroke-width: 0.8"/>
      </g>
     </g>
     <g id="text_5">
      <!-- 4 -->
      <g transform="translate(20.584375 34.172447) scale(0.1 -0.1)">
       <defs>
        <path id="0724da83" d="M 2069 0  L 2069 1097  L 81 1097  L 81 1613  L 2172 4581  L 2631 4581  L 2631 1613  L 3250 1613  L 3250 1097  L 2631 1097  L 2631 0  L 2069 0  z M 2069 1613  L 2069 3678  L 634 1613  L 2069 1613  z " transform="scale(0.015625)"/>
       </defs>
       <use xlink:href="#0724da83"/>
      </g>
     </g>
    </g>
    <g id="text_6">
     <!-- Running Speed (cm/s) -->
     <g transform="translate(14.479687 104.942969) rotate(-90) scale(0.1 -0.1)">
      <defs>
       <path id="6feb2849" d="M 300 0  L 1259 4581  L 3181 4581  Q 3750 4581 4044 4486  Q 4338 4391 4505 4128  Q 4672 3866 4672 3466  Q 4672 2906 4306 2537  Q 3941 2169 3125 2059  Q 3375 1875 3503 1697  Q 3791 1294 3966 863  L 4316 0  L 3631 0  L 3303 853  Q 3125 1316 2897 1653  Q 2741 1888 2578 1961  Q 2416 2034 2050 2034  L 1338 2034  L 913 0  L 300 0  z M 1441 2531  L 2288 2531  Q 2875 2531 3053 2547  Q 3400 2581 3622 2703  Q 3844 2825 3966 3031  Q 4088 3238 4088 3475  Q 4088 3675 3997 3823  Q 3906 3972 3759 4025  Q 3613 4078 3259 4078  L 1766 4078  L 1441 2531  z " transform="scale(0.015625)"/>
       <path id="9c41e5dd" d="M 2478 600  Q 1881 -75 1256 -75  Q 872 -75 636 145  Q 400 366 400 684  Q 400 894 506 1403  L 906 3319  L 1472 3319  L 1028 1197  Q 972 931 972 784  Q 972 597 1086 492  Q 1200 388 1422 388  Q 1659 388 1886 503  Q 2113 619 2277 816  Q 2441 1013 2544 1281  Q 2613 1453 2703 1884  L 3003 3319  L 3569 3319  L 2875 0  L 2353 0  L 2478 600  z " transform="scale(0.015625)"/>
       <path id="0bb5dc68" d="M 213 0  L 906 3319  L 1419 3319  L 1297 2741  Q 1631 3081 1922 3237  Q 2213 3394 2516 3394  Q 2919 3394 3148 3175  Q 3378 2956 3378 2591  Q 3378 2406 3297 2009  L 2875 0  L 2309 0  L 2750 2103  Q 2816 2409 2816 2556  Q 2816 2722 2702 2825  Q 2588 2928 2372 2928  Q 1938 2928 1598 2615  Q 1259 2303 1100 1544  L 778 0  L 213 0  z " transform="scale(0.015625)"/>
       <path id="dc39932f" d="M 1016 3941  L 1150 4581  L 1713 4581  L 1578 3941  L 1016 3941  z M 191 0  L 884 3319  L 1450 3319  L 756 0  L 191 0  z " transform="scale(0.015625)"/>
       <path id="d56a6622" d="M 181 -300  L 753 -353  Q 747 -547 800 -644  Q 853 -741 969 -794  Q 1122 -863 1366 -863  Q 1878 -863 2103 -597  Q 2250 -419 2375 178  L 2431 447  Q 1991 0 1494 0  Q 991 0 652 370  Q 313 741 313 1419  Q 313 1978 580 2447  Q 847 2916 1215 3155  Q 1584 3394 1975 3394  Q 2628 3394 2981 2775  L 3094 3319  L 3613 3319  L 2944 116  Q 2834 -413 2656 -708  Q 2478 -1003 2161 -1165  Q 1844 -1328 1428 -1328  Q 1028 -1328 739 -1225  Q 450 -1122 308 -923  Q 166 -725 166 -469  Q 166 -391 181 -300  z M 888 1469  Q 888 1128 953 956  Q 1047 716 1220 589  Q 1394 463 1606 463  Q 1884 463 2159 658  Q 2434 853 2604 1262  Q 2775 1672 2775 2044  Q 2775 2453 2548 2695  Q 2322 2938 1988 2938  Q 1781 2938 1587 2827  Q 1394 2716 1226 2489  Q 1059 2263 973 1947  Q 888 1631 888 1469  z " transform="scale(0.015625)"/>
       <path id="4edc82b9" transform="scale(0.015625)"/>
       <path id="c6ef6830" d="M 450 1481  L 1050 1538  L 1044 1378  Q 1044 1113 1166 892  Q 1288 672 1569 551  Q 1850 431 2238 431  Q 2788 431 3077 672  Q 3366 913 3366 1222  Q 3366 1438 3213 1616  Q 3056 1791 2359 2091  Q 1819 2325 1622 2450  Q 1313 2653 1166 2892  Q 1019 3131 1019 3438  Q 1019 3791 1212 4075  Q 1406 4359 1779 4509  Q 2153 4659 2622 4659  Q 3181 4659 3565 4471  Q 3950 4284 4123 3971  Q 4297 3659 4297 3375  Q 4297 3347 4294 3281  L 3703 3234  Q 3703 3428 3669 3538  Q 3606 3728 3475 3859  Q 3344 3991 3114 4070  Q 2884 4150 2600 4150  Q 2100 4150 1822 3925  Q 1609 3753 1609 3469  Q 1609 3300 1696 3167  Q 1784 3034 2013 2906  Q 2175 2816 2784 2547  Q 3278 2328 3466 2203  Q 3716 2038 3850 1802  Q 3984 1566 3984 1266  Q 3984 894 3757 580  Q 3531 266 3131 94  Q 2731 -78 2216 -78  Q 1438 -78 945 261  Q 453 600 450 1481  z " transform="scale(0.015625)"/>
       <path id="90a916fc" d="M -66 -1272  L 894 3319  L 1416 3319  L 1319 2856  Q 1609 3159 1839 3276  Q 2069 3394 2325 3394  Q 2800 3394 3112 3048  Q 3425 2703 3425 2059  Q 3425 1541 3253 1114  Q 3081 688 2831 428  Q 2581 169 2325 47  Q 2069 -75 1800 -75  Q 1203 -75 875 531  L 500 -1272  L -66 -1272  z M 1053 1356  Q 1053 984 1106 841  Q 1184 638 1362 513  Q 1541 388 1775 388  Q 2263 388 2563 936  Q 2863 1484 2863 2056  Q 2863 2478 2661 2708  Q 2459 2938 2159 2938  Q 1944 2938 1759 2823  Q 1575 2709 1417 2482  Q 1259 2256 1156 1928  Q 1053 1600 1053 1356  z " transform="scale(0.015625)"/>
       <path id="0eb21e14" d="M 2650 1128  L 3200 1072  Q 3081 663 2654 294  Q 2228 -75 1638 -75  Q 1269 -75 961 95  Q 653 266 492 591  Q 331 916 331 1331  Q 331 1875 582 2386  Q 834 2897 1234 3145  Q 1634 3394 2100 3394  Q 2694 3394 3048 3025  Q 3403 2656 3403 2019  Q 3403 1775 3359 1519  L 916 1519  Q 903 1422 903 1344  Q 903 878 1117 633  Q 1331 388 1641 388  Q 1931 388 2212 578  Q 2494 769 2650 1128  z M 1006 1950  L 2869 1950  Q 2872 2038 2872 2075  Q 2872 2500 2659 2726  Q 2447 2953 2113 2953  Q 1750 2953 1451 2703  Q 1153 2453 1006 1950  z " transform="scale(0.015625)"/>
       <path id="81e91078" d="M 2450 481  Q 1966 -75 1438 -75  Q 966 -75 652 273  Q 338 622 338 1284  Q 338 1891 586 2392  Q 834 2894 1207 3144  Q 1581 3394 1956 3394  Q 2575 3394 2891 2797  L 3266 4581  L 3828 4581  L 2872 0  L 2350 0  L 2450 481  z M 900 1391  Q 900 1044 969 844  Q 1038 644 1203 511  Q 1369 378 1600 378  Q 1984 378 2297 778  Q 2716 1309 2716 2091  Q 2716 2484 2509 2706  Q 2303 2928 1991 2928  Q 1788 2928 1620 2837  Q 1453 2747 1289 2530  Q 1125 2313 1012 1978  Q 900 1644 900 1391  z " transform="scale(0.015625)"/>
       <path id="a94b2220" d="M 1031 -1347  Q 541 -272 541 863  Q 541 1619 739 2270  Q 938 2922 1344 3559  Q 1613 3984 2203 4659  L 2644 4659  Q 2278 4269 1870 3559  Q 1463 2850 1278 2165  Q 1094 1481 1094 791  Q 1094 -241 1453 -1347  L 1031 -1347  z " transform="scale(0.015625)"/>
       <path id="08efed0a" d="M 2503 1209  L 3069 1150  Q 2856 528 2464 226  Q 2072 -75 1572 -75  Q 1031 -75 695 275  Q 359 625 359 1253  Q 359 1797 575 2322  Q 791 2847 1192 3120  Q 1594 3394 2109 3394  Q 2644 3394 2956 3092  Q 3269 2791 3269 2294  L 2713 2256  Q 2709 2572 2529 2750  Q 2350 2928 2056 2928  Q 1716 2928 1466 2712  Q 1216 2497 1073 2058  Q 931 1619 931 1213  Q 931 788 1118 575  Q 1306 363 1581 363  Q 1856 363 2107 572  Q 2359 781 2503 1209  z " transform="scale(0.015625)"/>
       <path id="b0a4e9cb" d="M 209 0  L 903 3319  L 1469 3319  L 1353 2772  Q 1669 3125 1917 3259  Q 2166 3394 2456 3394  Q 2766 3394 2973 3230  Q 3181 3066 3247 2772  Q 3500 3084 3779 3239  Q 4059 3394 4369 3394  Q 4784 3394 4992 3197  Q 5200 3000 5200 2644  Q 5200 2491 5128 2138  L 4681 0  L 4116 0  L 4572 2194  Q 4631 2463 4631 2578  Q 4631 2741 4528 2834  Q 4425 2928 4238 2928  Q 3984 2928 3721 2775  Q 3459 2622 3314 2373  Q 3169 2125 3059 1609  L 2722 0  L 2156 0  L 2625 2241  Q 2675 2469 2675 2566  Q 2675 2728 2573 2828  Q 2472 2928 2309 2928  Q 2069 2928 1805 2775  Q 1541 2622 1375 2348  Q 1209 2075 1103 1569  L 775 0  L 209 0  z " transform="scale(0.015625)"/>
       <path id="73b456a0" d="M -325 -75  L 2138 4659  L 2628 4659  L 166 -75  L -325 -75  z " transform="scale(0.015625)"/>
       <path id="03efbe74" d="M 266 1134  L 831 1169  Q 831 925 906 753  Q 981 581 1182 472  Q 1384 363 1653 363  Q 2028 363 2215 513  Q 2403 663 2403 866  Q 2403 1013 2291 1144  Q 2175 1275 1726 1467  Q 1278 1659 1153 1738  Q 944 1866 837 2039  Q 731 2213 731 2438  Q 731 2831 1043 3112  Q 1356 3394 1919 3394  Q 2544 3394 2870 3105  Q 3197 2816 3209 2344  L 2656 2306  Q 2644 2606 2444 2781  Q 2244 2956 1878 2956  Q 1584 2956 1421 2822  Q 1259 2688 1259 2531  Q 1259 2375 1400 2256  Q 1494 2175 1884 2006  Q 2534 1725 2703 1563  Q 2972 1303 2972 931  Q 2972 684 2820 446  Q 2669 209 2358 67  Q 2047 -75 1625 -75  Q 1050 -75 647 209  Q 244 494 266 1134  z " transform="scale(0.015625)"/>
       <path id="4053a3fa" d="M 1269 4659  Q 1763 3584 1763 2453  Q 1763 1694 1564 1044  Q 1366 394 959 -247  Q 688 -672 100 -1347  L -341 -1347  Q 22 -953 431 -243  Q 841 466 1023 1148  Q 1206 1831 1206 2525  Q 1206 3556 847 4659  L 1269 4659  z " transform="scale(0.015625)"/>
      </defs>
      <use xlink:href="#6feb2849"/>
      <use xlink:href="#9c41e5dd" x="72.216797"/>
      <use xlink:href="#0bb5dc68" x="127.832031"/>
      <use xlink:href="#0bb5dc68" x="183.447266"/>
      <use xlink:href="#dc39932f" x="239.0625"/>
      <use xlink:href="#0bb5dc68" x="261.279297"/>
      <use xlink:href="#d56a6622" x="316.894531"/>
      <use xlink:href="#4edc82b9" x="372.509766"/>
      <use xlink:href="#c6ef6830" x="400.292969"/>
      <use xlink:href="#90a916fc" x="466.992188"/>
      <use xlink:href="#0eb21e14" x="522.607422"/>
      <use xlink:href="#0eb21e14" x="578.222656"/>
      <use xlink:href="#81e91078" x="633.837891"/>
      <use xlink:href="#4edc82b9" x="689.453125"/>
      <use xlink:href="#a94b2220" x="717.236328"/>
      <use xlink:href="#08efed0a" x="750.537109"/>
      <use xlink:href="#b0a4e9cb" x="800.537109"/>
      <use xlink:href="#73b456a0" x="883.837891"/>
      <use xlink:href="#03efbe74" x="911.621094"/>
      <use xlink:href="#4053a3fa" x="961.621094"/>
     </g>
    </g>
   </g>
   <g id="line2d_6">
    <path d="M 64.539062 32.818414  L 64.539062 25.010867  " clip-path="url(#p83263c651e)" style="fill: none; stroke: #424242; stroke-width: 3; stroke-linecap: square"/>
   </g>
   <g id="line2d_7">
    <path d="M 58.260312 32.818414  L 70.817813 32.818414  " clip-path="url(#p83263c651e)" style="fill: none; stroke: #424242; stroke-width: 3; stroke-linecap: square"/>
   </g>
   <g id="line2d_8">
    <path d="M 58.260312 25.010867  L 70.817813 25.010867  " clip-path="url(#p83263c651e)" style="fill: none; stroke: #424242; stroke-width: 3; stroke-linecap: square"/>
   </g>
   <g id="line2d_9">
    <path d="M 127.326562 34.213602  L 127.326562 28.386372  " clip-path="url(#p83263c651e)" style="fill: none; stroke: #424242; stroke-width: 3; stroke-linecap: square"/>
   </g>
   <g id="line2d_10">
    <path d="M 121.047812 34.213602  L 133.605312 34.213602  " clip-path="url(#p83263c651e)" style="fill: none; stroke: #424242; stroke-width: 3; stroke-linecap: square"/>
   </g>
   <g id="line2d_11">
    <path d="M 121.047812 28.386372  L 133.605312 28.386372  " clip-path="url(#p83263c651e)" style="fill: none; stroke: #424242; stroke-width: 3; stroke-linecap: square"/>
   </g>
   <g id="patch_5">
    <path d="M 33.145313 103.2  L 33.145313 7.2  " style="fill: none; stroke: #000000; stroke-width: 0.8; stroke-linejoin: miter; stroke-linecap: square"/>
   </g>
   <g id="patch_6">
    <path d="M 158.720312 103.2  L 158.720312 7.2  " style="fill: none; stroke: #000000; stroke-width: 0.8; stroke-linejoin: miter; stroke-linecap: square"/>
   </g>
   <g id="patch_7">
    <path d="M 33.145313 103.2  L 158.720312 103.2  " style="fill: none; stroke: #000000; stroke-width: 0.8; stroke-linejoin: miter; stroke-linecap: square"/>
   </g>
   <g id="patch_8">
    <path d="M 33.145313 7.2  L 158.720312 7.2  " style="fill: none; stroke: #000000; stroke-width: 0.8; stroke-linejoin: miter; stroke-linecap: square"/>
   </g>
   <g id="PathCollection_1">
    <defs>
     <path id="6ce4de10" d="M 0 2.5  C 0.663008 2.5 1.29895 2.236584 1.767767 1.767767  C 2.236584 1.29895 2.5 0.663008 2.5 0  C 2.5 -0.663008 2.236584 -1.29895 1.767767 -1.767767  C 1.29895 -2.236584 0.663008 -2.5 0 -2.5  C -0.663008 -2.5 -1.29895 -2.236584 -1.767767 -1.767767  C -2.236584 -1.29895 -2.5 -0.663008 -2.5 0  C -2.5 0.663008 -2.236584 1.29895 -1.767767 1.767767  C -1.29895 2.236584 -0.663008 2.5 0 2.5  z " style="stroke: #3f3f3f; stroke-opacity: 0.8"/>
    </defs>
    <g clip-path="url(#p83263c651e)">
     <use xlink:href="#6ce4de10" x="58.239065" y="34.627152" style="fill: #1f77b4; fill-opacity: 0.8; stroke: #3f3f3f; stroke-opacity: 0.8"/>
     <use xlink:href="#6ce4de10" x="70.839062" y="34.629991" style="fill: #1f77b4; fill-opacity: 0.8; stroke: #3f3f3f; stroke-opacity: 0.8"/>
     <use xlink:href="#6ce4de10" x="64.539063" y="11.771429" style="fill: #1f77b4; fill-opacity: 0.8; stroke: #3f3f3f; stroke-opacity: 0.8"/>
     <use xlink:href="#6ce4de10" x="64.539063" y="23.19929" style="fill: #1f77b4; fill-opacity: 0.8; stroke: #3f3f3f; stroke-opacity: 0.8"/>
     <use xlink:href="#6ce4de10" x="51.939065" y="34.627152" style="fill: #1f77b4; fill-opacity: 0.8; stroke: #3f3f3f; stroke-opacity: 0.8"/>
     <use xlink:href="#6ce4de10" x="64.539063" y="34.632831" style="fill: #1f77b4; fill-opacity: 0.8; stroke: #3f3f3f; stroke-opacity: 0.8"/>
    </g>
   </g>
   <g id="PathCollection_2">
    <g clip-path="url(#p83263c651e)">
     <use xlink:href="#6ce4de10" x="127.326562" y="40.804812" style="fill: #1f77b4; fill-opacity: 0.8; stroke: #3f3f3f; stroke-opacity: 0.8"/>
     <use xlink:href="#6ce4de10" x="132.118532" y="36.909698" style="fill: #1f77b4; fill-opacity: 0.8; stroke: #3f3f3f; stroke-opacity: 0.8"/>
     <use xlink:href="#6ce4de10" x="126.790226" y="33.708343" style="fill: #1f77b4; fill-opacity: 0.8; stroke: #3f3f3f; stroke-opacity: 0.8"/>
     <use xlink:href="#6ce4de10" x="127.326562" y="16.278436" style="fill: #1f77b4; fill-opacity: 0.8; stroke: #3f3f3f; stroke-opacity: 0.8"/>
     <use xlink:href="#6ce4de10" x="138.151068" y="29.906742" style="fill: #1f77b4; fill-opacity: 0.8; stroke: #3f3f3f; stroke-opacity: 0.8"/>
     <use xlink:href="#6ce4de10" x="120.996962" y="31.350727" style="fill: #1f77b4; fill-opacity: 0.8; stroke: #3f3f3f; stroke-opacity: 0.8"/>
     <use xlink:href="#6ce4de10" x="131.855878" y="30.141149" style="fill: #1f77b4; fill-opacity: 0.8; stroke: #3f3f3f; stroke-opacity: 0.8"/>
    </g>
   </g>
  </g>
 </g>
 <defs>
  <clipPath id="p83263c651e">
   <rect x="33.145313" y="7.2" width="125.575" height="96"/>
  </clipPath>
 </defs>
</svg>
