<?xml version="1.0" encoding="utf-8" standalone="no"?>
<!DOCTYPE svg PUBLIC "-//W3C//DTD SVG 1.1//EN"
  "http://www.w3.org/Graphics/SVG/1.1/DTD/svg11.dtd">
<!-- Created with matplotlib (https://matplotlib.org/) -->
<svg height="252.378989pt" version="1.1" viewBox="0 0 338.5625 252.378989" width="338.5625pt" xmlns="http://www.w3.org/2000/svg" xmlns:xlink="http://www.w3.org/1999/xlink">
 <defs>
  <style type="text/css">
*{stroke-linecap:butt;stroke-linejoin:round;}
  </style>
 </defs>
 <g id="figure_1">
  <g id="patch_1">
   <path d="M 0 252.378989 
L 338.5625 252.378989 
L 338.5625 0 
L 0 0 
z
" style="fill:#ffffff;"/>
  </g>
  <g id="axes_1">
   <g id="patch_2">
    <path d="M 41.3625 215.771177 
L 331.3625 215.771177 
L 331.3625 43.485097 
L 41.3625 43.485097 
z
" style="fill:#ffffff;"/>
   </g>
   <g id="PolyCollection_1">
    <defs>
     <path d="M 59.238153 -85.664215 
L 59.238153 -80.371262 
L 109.952658 -73.548918 
L 160.667163 -67.567674 
L 211.381669 -63.189824 
L 262.096174 -58.468157 
L 312.810679 -49.629831 
L 312.810679 -55.108325 
L 312.810679 -55.108325 
L 262.096174 -63.147181 
L 211.381669 -67.889866 
L 160.667163 -72.008632 
L 109.952658 -77.955971 
L 59.238153 -85.664215 
z
" id="m0da746cb56" style="stroke:#00cc96;stroke-opacity:0.2;"/>
    </defs>
    <g clip-path="url(#p933eda4f2d)">
     <use style="fill:#00cc96;fill-opacity:0.2;stroke:#00cc96;stroke-opacity:0.2;" x="0" xlink:href="#m0da746cb56" y="252.378989"/>
    </g>
   </g>
   <g id="PolyCollection_2">
    <defs>
     <path d="M 59.238153 -117.367802 
L 59.238153 -110.975556 
L 109.952658 -106.33005 
L 160.667163 -101.160763 
L 211.381669 -95.92838 
L 262.096174 -96.755263 
L 312.810679 -93.118487 
L 312.810679 -104.731422 
L 312.810679 -104.731422 
L 262.096174 -103.40432 
L 211.381669 -104.382261 
L 160.667163 -112.32139 
L 109.952658 -115.802921 
L 59.238153 -117.367802 
z
" id="m854a21c931" style="stroke:#ffa15a;stroke-opacity:0.2;"/>
    </defs>
    <g clip-path="url(#p933eda4f2d)">
     <use style="fill:#ffa15a;fill-opacity:0.2;stroke:#ffa15a;stroke-opacity:0.2;" x="0" xlink:href="#m854a21c931" y="252.378989"/>
    </g>
   </g>
   <g id="matplotlib.axis_1">
    <g id="xtick_1">
     <g id="line2d_1">
      <defs>
       <path d="M 0 0 
L 0 3.5 
" id="m46341cc3ba" style="stroke:#000000;stroke-width:0.8;"/>
      </defs>
      <g>
       <use style="stroke:#000000;stroke-width:0.8;" x="59.238153" xlink:href="#m46341cc3ba" y="215.771177"/>
      </g>
     </g>
     <g id="text_1">
      <!-- 2 -->
      <defs>
       <path d="M 50.34375 8.453125 
L 50.34375 0 
L 3.03125 0 
Q 2.9375 3.171875 4.046875 6.109375 
Q 5.859375 10.9375 9.828125 15.625 
Q 13.8125 20.3125 21.34375 26.46875 
Q 33.015625 36.03125 37.109375 41.625 
Q 41.21875 47.21875 41.21875 52.203125 
Q 41.21875 57.421875 37.46875 61 
Q 33.734375 64.59375 27.734375 64.59375 
Q 21.390625 64.59375 17.578125 60.78125 
Q 13.765625 56.984375 13.71875 50.25 
L 4.6875 51.171875 
Q 5.609375 61.28125 11.65625 66.578125 
Q 17.71875 71.875 27.9375 71.875 
Q 38.234375 71.875 44.234375 66.15625 
Q 50.25 60.453125 50.25 52 
Q 50.25 47.703125 48.484375 43.546875 
Q 46.734375 39.40625 42.65625 34.8125 
Q 38.578125 30.21875 29.109375 22.21875 
Q 21.1875 15.578125 18.9375 13.203125 
Q 16.703125 10.84375 15.234375 8.453125 
z
" id="ArialMT-50"/>
      </defs>
      <g transform="translate(56.457684 229.928989)scale(0.1 -0.1)">
       <use xlink:href="#ArialMT-50"/>
      </g>
     </g>
    </g>
    <g id="xtick_2">
     <g id="line2d_2">
      <g>
       <use style="stroke:#000000;stroke-width:0.8;" x="109.952658" xlink:href="#m46341cc3ba" y="215.771177"/>
      </g>
     </g>
     <g id="text_2">
      <!-- 4 -->
      <defs>
       <path d="M 32.328125 0 
L 32.328125 17.140625 
L 1.265625 17.140625 
L 1.265625 25.203125 
L 33.9375 71.578125 
L 41.109375 71.578125 
L 41.109375 25.203125 
L 50.78125 25.203125 
L 50.78125 17.140625 
L 41.109375 17.140625 
L 41.109375 0 
z
M 32.328125 25.203125 
L 32.328125 57.46875 
L 9.90625 25.203125 
z
" id="ArialMT-52"/>
      </defs>
      <g transform="translate(107.172189 229.928989)scale(0.1 -0.1)">
       <use xlink:href="#ArialMT-52"/>
      </g>
     </g>
    </g>
    <g id="xtick_3">
     <g id="line2d_3">
      <g>
       <use style="stroke:#000000;stroke-width:0.8;" x="160.667163" xlink:href="#m46341cc3ba" y="215.771177"/>
      </g>
     </g>
     <g id="text_3">
      <!-- 6 -->
      <defs>
       <path d="M 49.75 54.046875 
L 41.015625 53.375 
Q 39.84375 58.546875 37.703125 60.890625 
Q 34.125 64.65625 28.90625 64.65625 
Q 24.703125 64.65625 21.53125 62.3125 
Q 17.390625 59.28125 14.984375 53.46875 
Q 12.59375 47.65625 12.5 36.921875 
Q 15.671875 41.75 20.265625 44.09375 
Q 24.859375 46.4375 29.890625 46.4375 
Q 38.671875 46.4375 44.84375 39.96875 
Q 51.03125 33.5 51.03125 23.25 
Q 51.03125 16.5 48.125 10.71875 
Q 45.21875 4.9375 40.140625 1.859375 
Q 35.0625 -1.21875 28.609375 -1.21875 
Q 17.625 -1.21875 10.6875 6.859375 
Q 3.765625 14.9375 3.765625 33.5 
Q 3.765625 54.25 11.421875 63.671875 
Q 18.109375 71.875 29.4375 71.875 
Q 37.890625 71.875 43.28125 67.140625 
Q 48.6875 62.40625 49.75 54.046875 
z
M 13.875 23.1875 
Q 13.875 18.65625 15.796875 14.5 
Q 17.71875 10.359375 21.1875 8.171875 
Q 24.65625 6 28.46875 6 
Q 34.03125 6 38.03125 10.484375 
Q 42.046875 14.984375 42.046875 22.703125 
Q 42.046875 30.125 38.078125 34.390625 
Q 34.125 38.671875 28.125 38.671875 
Q 22.171875 38.671875 18.015625 34.390625 
Q 13.875 30.125 13.875 23.1875 
z
" id="ArialMT-54"/>
      </defs>
      <g transform="translate(157.886695 229.928989)scale(0.1 -0.1)">
       <use xlink:href="#ArialMT-54"/>
      </g>
     </g>
    </g>
    <g id="xtick_4">
     <g id="line2d_4">
      <g>
       <use style="stroke:#000000;stroke-width:0.8;" x="211.381669" xlink:href="#m46341cc3ba" y="215.771177"/>
      </g>
     </g>
     <g id="text_4">
      <!-- 8 -->
      <defs>
       <path d="M 17.671875 38.8125 
Q 12.203125 40.828125 9.5625 44.53125 
Q 6.9375 48.25 6.9375 53.421875 
Q 6.9375 61.234375 12.546875 66.546875 
Q 18.171875 71.875 27.484375 71.875 
Q 36.859375 71.875 42.578125 66.421875 
Q 48.296875 60.984375 48.296875 53.171875 
Q 48.296875 48.1875 45.671875 44.5 
Q 43.0625 40.828125 37.75 38.8125 
Q 44.34375 36.671875 47.78125 31.875 
Q 51.21875 27.09375 51.21875 20.453125 
Q 51.21875 11.28125 44.71875 5.03125 
Q 38.234375 -1.21875 27.640625 -1.21875 
Q 17.046875 -1.21875 10.546875 5.046875 
Q 4.046875 11.328125 4.046875 20.703125 
Q 4.046875 27.6875 7.59375 32.390625 
Q 11.140625 37.109375 17.671875 38.8125 
z
M 15.921875 53.71875 
Q 15.921875 48.640625 19.1875 45.40625 
Q 22.46875 42.1875 27.6875 42.1875 
Q 32.765625 42.1875 36.015625 45.375 
Q 39.265625 48.578125 39.265625 53.21875 
Q 39.265625 58.0625 35.90625 61.359375 
Q 32.5625 64.65625 27.59375 64.65625 
Q 22.5625 64.65625 19.234375 61.421875 
Q 15.921875 58.203125 15.921875 53.71875 
z
M 13.09375 20.65625 
Q 13.09375 16.890625 14.875 13.375 
Q 16.65625 9.859375 20.171875 7.921875 
Q 23.6875 6 27.734375 6 
Q 34.03125 6 38.125 10.046875 
Q 42.234375 14.109375 42.234375 20.359375 
Q 42.234375 26.703125 38.015625 30.859375 
Q 33.796875 35.015625 27.4375 35.015625 
Q 21.234375 35.015625 17.15625 30.90625 
Q 13.09375 26.8125 13.09375 20.65625 
z
" id="ArialMT-56"/>
      </defs>
      <g transform="translate(208.6012 229.928989)scale(0.1 -0.1)">
       <use xlink:href="#ArialMT-56"/>
      </g>
     </g>
    </g>
    <g id="xtick_5">
     <g id="line2d_5">
      <g>
       <use style="stroke:#000000;stroke-width:0.8;" x="262.096174" xlink:href="#m46341cc3ba" y="215.771177"/>
      </g>
     </g>
     <g id="text_5">
      <!-- 10 -->
      <defs>
       <path d="M 37.25 0 
L 28.46875 0 
L 28.46875 56 
Q 25.296875 52.984375 20.140625 49.953125 
Q 14.984375 46.921875 10.890625 45.40625 
L 10.890625 53.90625 
Q 18.265625 57.375 23.78125 62.296875 
Q 29.296875 67.234375 31.59375 71.875 
L 37.25 71.875 
z
" id="ArialMT-49"/>
       <path d="M 4.15625 35.296875 
Q 4.15625 48 6.765625 55.734375 
Q 9.375 63.484375 14.515625 67.671875 
Q 19.671875 71.875 27.484375 71.875 
Q 33.25 71.875 37.59375 69.546875 
Q 41.9375 67.234375 44.765625 62.859375 
Q 47.609375 58.5 49.21875 52.21875 
Q 50.828125 45.953125 50.828125 35.296875 
Q 50.828125 22.703125 48.234375 14.96875 
Q 45.65625 7.234375 40.5 3 
Q 35.359375 -1.21875 27.484375 -1.21875 
Q 17.140625 -1.21875 11.234375 6.203125 
Q 4.15625 15.140625 4.15625 35.296875 
z
M 13.1875 35.296875 
Q 13.1875 17.671875 17.3125 11.828125 
Q 21.4375 6 27.484375 6 
Q 33.546875 6 37.671875 11.859375 
Q 41.796875 17.71875 41.796875 35.296875 
Q 41.796875 52.984375 37.671875 58.78125 
Q 33.546875 64.59375 27.390625 64.59375 
Q 21.34375 64.59375 17.71875 59.46875 
Q 13.1875 52.9375 13.1875 35.296875 
z
" id="ArialMT-48"/>
      </defs>
      <g transform="translate(256.535237 229.928989)scale(0.1 -0.1)">
       <use xlink:href="#ArialMT-49"/>
       <use x="55.615234" xlink:href="#ArialMT-48"/>
      </g>
     </g>
    </g>
    <g id="xtick_6">
     <g id="line2d_6">
      <g>
       <use style="stroke:#000000;stroke-width:0.8;" x="312.810679" xlink:href="#m46341cc3ba" y="215.771177"/>
      </g>
     </g>
     <g id="text_6">
      <!-- 12 -->
      <g transform="translate(307.249742 229.928989)scale(0.1 -0.1)">
       <use xlink:href="#ArialMT-49"/>
       <use x="55.615234" xlink:href="#ArialMT-50"/>
      </g>
     </g>
    </g>
    <g id="text_7">
     <!-- Days apart -->
     <defs>
      <path d="M 4.4375 0 
L 19.390625 71.578125 
L 40.96875 71.578125 
Q 48.734375 71.578125 52.828125 70.453125 
Q 58.6875 68.953125 62.84375 65.0625 
Q 67 61.1875 69.09375 55.375 
Q 71.1875 49.5625 71.1875 42.328125 
Q 71.1875 33.6875 68.578125 26.578125 
Q 65.96875 19.484375 61.734375 14.078125 
Q 57.515625 8.6875 52.90625 5.640625 
Q 48.296875 2.59375 42 1.125 
Q 37.203125 0 30.21875 0 
z
M 15.71875 8.109375 
L 27.046875 8.109375 
Q 34.71875 8.109375 40.671875 9.515625 
Q 44.390625 10.40625 47.015625 12.109375 
Q 50.484375 14.3125 53.328125 17.921875 
Q 57.03125 22.703125 59.25 28.828125 
Q 61.46875 34.96875 61.46875 42.78125 
Q 61.46875 51.46875 58.4375 56.125 
Q 55.421875 60.796875 50.734375 62.3125 
Q 47.265625 63.421875 39.9375 63.421875 
L 27.296875 63.421875 
z
" id="Arial-ItalicMT-68"/>
      <path d="M 38.28125 6.453125 
Q 33.6875 2.484375 29.4375 0.65625 
Q 25.203125 -1.171875 20.359375 -1.171875 
Q 13.1875 -1.171875 8.78125 3.046875 
Q 4.390625 7.28125 4.390625 13.875 
Q 4.390625 18.21875 6.359375 21.5625 
Q 8.34375 24.90625 11.609375 26.921875 
Q 14.890625 28.953125 19.625 29.828125 
Q 22.609375 30.421875 30.9375 30.765625 
Q 39.265625 31.109375 42.875 32.515625 
Q 43.890625 36.140625 43.890625 38.53125 
Q 43.890625 41.609375 41.65625 43.359375 
Q 38.578125 45.796875 32.671875 45.796875 
Q 27.09375 45.796875 23.546875 43.328125 
Q 20.015625 40.875 18.40625 36.328125 
L 9.46875 37.109375 
Q 12.203125 44.828125 18.140625 48.921875 
Q 24.078125 53.03125 33.109375 53.03125 
Q 42.71875 53.03125 48.34375 48.4375 
Q 52.640625 45.015625 52.640625 39.546875 
Q 52.640625 35.40625 51.421875 29.9375 
L 48.53125 17.046875 
Q 47.171875 10.890625 47.171875 7.03125 
Q 47.171875 4.59375 48.25 0 
L 39.3125 0 
Q 38.578125 2.546875 38.28125 6.453125 
z
M 41.546875 26.265625 
Q 39.703125 25.53125 37.578125 25.140625 
Q 35.453125 24.75 30.46875 24.3125 
Q 22.75 23.640625 19.578125 22.578125 
Q 16.40625 21.53125 14.796875 19.234375 
Q 13.1875 16.9375 13.1875 14.15625 
Q 13.1875 10.453125 15.75 8.0625 
Q 18.3125 5.671875 23.046875 5.671875 
Q 27.4375 5.671875 31.484375 7.984375 
Q 35.546875 10.296875 37.890625 14.453125 
Q 40.234375 18.609375 41.546875 26.265625 
z
" id="Arial-ItalicMT-97"/>
      <path d="M 0 -20.015625 
L 0.53125 -11.71875 
Q 3.265625 -12.5 5.859375 -12.5 
Q 8.546875 -12.5 10.203125 -11.28125 
Q 12.359375 -9.671875 14.890625 -5.21875 
L 17.71875 -0.140625 
L 9.078125 51.859375 
L 17.78125 51.859375 
L 21.6875 25.640625 
Q 22.859375 17.875 23.6875 10.109375 
L 46.875 51.859375 
L 56.109375 51.859375 
L 23.046875 -6.890625 
Q 18.265625 -15.484375 14.546875 -18.265625 
Q 10.84375 -21.046875 6 -21.046875 
Q 2.9375 -21.046875 0 -20.015625 
z
" id="Arial-ItalicMT-121"/>
      <path d="M 4.15625 17.71875 
L 12.984375 18.265625 
Q 12.984375 14.453125 14.15625 11.765625 
Q 15.328125 9.078125 18.46875 7.375 
Q 21.625 5.671875 25.828125 5.671875 
Q 31.6875 5.671875 34.609375 8.015625 
Q 37.546875 10.359375 37.546875 13.53125 
Q 37.546875 15.828125 35.796875 17.875 
Q 33.984375 19.921875 26.96875 22.921875 
Q 19.96875 25.921875 18.015625 27.15625 
Q 14.75 29.15625 13.078125 31.859375 
Q 11.421875 34.578125 11.421875 38.09375 
Q 11.421875 44.234375 16.296875 48.625 
Q 21.1875 53.03125 29.984375 53.03125 
Q 39.75 53.03125 44.84375 48.515625 
Q 49.953125 44 50.140625 36.625 
L 41.5 36.03125 
Q 41.3125 40.71875 38.1875 43.453125 
Q 35.0625 46.1875 29.34375 46.1875 
Q 24.75 46.1875 22.203125 44.09375 
Q 19.671875 42 19.671875 39.546875 
Q 19.671875 37.109375 21.875 35.25 
Q 23.34375 33.984375 29.4375 31.34375 
Q 39.59375 26.953125 42.234375 24.421875 
Q 46.4375 20.359375 46.4375 14.546875 
Q 46.4375 10.6875 44.0625 6.96875 
Q 41.703125 3.265625 36.84375 1.046875 
Q 31.984375 -1.171875 25.390625 -1.171875 
Q 16.40625 -1.171875 10.109375 3.265625 
Q 3.8125 7.71875 4.15625 17.71875 
z
" id="Arial-ItalicMT-115"/>
      <path id="Arial-ItalicMT-32"/>
      <path d="M -1.03125 -19.875 
L 13.96875 51.859375 
L 22.125 51.859375 
L 20.609375 44.625 
Q 25.140625 49.359375 28.734375 51.1875 
Q 32.328125 53.03125 36.328125 53.03125 
Q 43.75 53.03125 48.625 47.625 
Q 53.515625 42.234375 53.515625 32.171875 
Q 53.515625 24.078125 50.828125 17.40625 
Q 48.140625 10.75 44.234375 6.6875 
Q 40.328125 2.640625 36.328125 0.734375 
Q 32.328125 -1.171875 28.125 -1.171875 
Q 18.796875 -1.171875 13.671875 8.296875 
L 7.8125 -19.875 
z
M 16.453125 21.1875 
Q 16.453125 15.375 17.28125 13.140625 
Q 18.5 9.96875 21.28125 8.015625 
Q 24.078125 6.0625 27.734375 6.0625 
Q 35.359375 6.0625 40.046875 14.625 
Q 44.734375 23.1875 44.734375 32.125 
Q 44.734375 38.71875 41.578125 42.3125 
Q 38.421875 45.90625 33.734375 45.90625 
Q 30.375 45.90625 27.484375 44.109375 
Q 24.609375 42.328125 22.140625 38.78125 
Q 19.671875 35.25 18.0625 30.125 
Q 16.453125 25 16.453125 21.1875 
z
" id="Arial-ItalicMT-112"/>
      <path d="M 3.328125 0 
L 14.15625 51.859375 
L 21.96875 51.859375 
L 19.78125 41.265625 
Q 23.78125 47.265625 27.609375 50.140625 
Q 31.453125 53.03125 35.453125 53.03125 
Q 38.09375 53.03125 41.9375 51.125 
L 38.328125 42.921875 
Q 36.03125 44.578125 33.296875 44.578125 
Q 28.65625 44.578125 23.765625 39.40625 
Q 18.890625 34.234375 16.109375 20.796875 
L 11.71875 0 
z
" id="Arial-ItalicMT-114"/>
      <path d="M 23.96875 7.171875 
L 22.515625 -0.046875 
Q 19.34375 -0.875 16.359375 -0.875 
Q 11.078125 -0.875 7.953125 1.703125 
Q 5.609375 3.65625 5.609375 7.03125 
Q 5.609375 8.734375 6.890625 14.890625 
L 13.1875 45.015625 
L 6.203125 45.015625 
L 7.625 51.859375 
L 14.59375 51.859375 
L 17.28125 64.59375 
L 27.390625 70.703125 
L 23.4375 51.859375 
L 32.125 51.859375 
L 30.671875 45.015625 
L 22.015625 45.015625 
L 16.015625 16.359375 
Q 14.890625 10.890625 14.890625 9.8125 
Q 14.890625 8.25 15.796875 7.421875 
Q 16.703125 6.59375 18.75 6.59375 
Q 21.6875 6.59375 23.96875 7.171875 
z
" id="Arial-ItalicMT-116"/>
     </defs>
     <g transform="translate(162.186719 243.074302)scale(0.1 -0.1)">
      <use xlink:href="#Arial-ItalicMT-68"/>
      <use x="72.216797" xlink:href="#Arial-ItalicMT-97"/>
      <use x="127.832031" xlink:href="#Arial-ItalicMT-121"/>
      <use x="177.832031" xlink:href="#Arial-ItalicMT-115"/>
      <use x="227.832031" xlink:href="#Arial-ItalicMT-32"/>
      <use x="255.615234" xlink:href="#Arial-ItalicMT-97"/>
      <use x="311.230469" xlink:href="#Arial-ItalicMT-112"/>
      <use x="366.845703" xlink:href="#Arial-ItalicMT-97"/>
      <use x="422.460938" xlink:href="#Arial-ItalicMT-114"/>
      <use x="455.761719" xlink:href="#Arial-ItalicMT-116"/>
     </g>
    </g>
   </g>
   <g id="matplotlib.axis_2">
    <g id="ytick_1">
     <g id="line2d_7">
      <defs>
       <path d="M 0 0 
L -3.5 0 
" id="m5483316e29" style="stroke:#000000;stroke-width:0.8;"/>
      </defs>
      <g>
       <use style="stroke:#000000;stroke-width:0.8;" x="41.3625" xlink:href="#m5483316e29" y="215.771177"/>
      </g>
     </g>
     <g id="text_8">
      <!-- 0.2 -->
      <defs>
       <path d="M 9.078125 0 
L 9.078125 10.015625 
L 19.09375 10.015625 
L 19.09375 0 
z
" id="ArialMT-46"/>
      </defs>
      <g transform="translate(20.4625 219.350083)scale(0.1 -0.1)">
       <use xlink:href="#ArialMT-48"/>
       <use x="55.615234" xlink:href="#ArialMT-46"/>
       <use x="83.398438" xlink:href="#ArialMT-50"/>
      </g>
     </g>
    </g>
    <g id="ytick_2">
     <g id="line2d_8">
      <g>
       <use style="stroke:#000000;stroke-width:0.8;" x="41.3625" xlink:href="#m5483316e29" y="175.233275"/>
      </g>
     </g>
     <g id="text_9">
      <!-- 0.4 -->
      <g transform="translate(20.4625 178.812182)scale(0.1 -0.1)">
       <use xlink:href="#ArialMT-48"/>
       <use x="55.615234" xlink:href="#ArialMT-46"/>
       <use x="83.398438" xlink:href="#ArialMT-52"/>
      </g>
     </g>
    </g>
    <g id="ytick_3">
     <g id="line2d_9">
      <g>
       <use style="stroke:#000000;stroke-width:0.8;" x="41.3625" xlink:href="#m5483316e29" y="134.695374"/>
      </g>
     </g>
     <g id="text_10">
      <!-- 0.6 -->
      <g transform="translate(20.4625 138.27428)scale(0.1 -0.1)">
       <use xlink:href="#ArialMT-48"/>
       <use x="55.615234" xlink:href="#ArialMT-46"/>
       <use x="83.398438" xlink:href="#ArialMT-54"/>
      </g>
     </g>
    </g>
    <g id="ytick_4">
     <g id="line2d_10">
      <g>
       <use style="stroke:#000000;stroke-width:0.8;" x="41.3625" xlink:href="#m5483316e29" y="94.157473"/>
      </g>
     </g>
     <g id="text_11">
      <!-- 0.8 -->
      <g transform="translate(20.4625 97.736379)scale(0.1 -0.1)">
       <use xlink:href="#ArialMT-48"/>
       <use x="55.615234" xlink:href="#ArialMT-46"/>
       <use x="83.398438" xlink:href="#ArialMT-56"/>
      </g>
     </g>
    </g>
    <g id="ytick_5">
     <g id="line2d_11">
      <g>
       <use style="stroke:#000000;stroke-width:0.8;" x="41.3625" xlink:href="#m5483316e29" y="53.619572"/>
      </g>
     </g>
     <g id="text_12">
      <!-- 1.0 -->
      <g transform="translate(20.4625 57.198478)scale(0.1 -0.1)">
       <use xlink:href="#ArialMT-49"/>
       <use x="55.615234" xlink:href="#ArialMT-46"/>
       <use x="83.398438" xlink:href="#ArialMT-48"/>
      </g>
     </g>
    </g>
    <g id="text_13">
     <!-- Reactivation probability -->
     <defs>
      <path d="M 4.6875 0 
L 19.671875 71.578125 
L 49.703125 71.578125 
Q 58.59375 71.578125 63.1875 70.09375 
Q 67.78125 68.609375 70.390625 64.5 
Q 73 60.40625 73 54.15625 
Q 73 45.40625 67.28125 39.640625 
Q 61.578125 33.890625 48.828125 32.171875 
Q 52.734375 29.296875 54.734375 26.515625 
Q 59.234375 20.21875 61.96875 13.484375 
L 67.4375 0 
L 56.734375 0 
L 51.609375 13.328125 
Q 48.828125 20.5625 45.265625 25.828125 
Q 42.828125 29.5 40.28125 30.640625 
Q 37.75 31.78125 32.03125 31.78125 
L 20.90625 31.78125 
L 14.265625 0 
z
M 22.515625 39.546875 
L 35.75 39.546875 
Q 44.921875 39.546875 47.703125 39.796875 
Q 53.125 40.328125 56.59375 42.234375 
Q 60.0625 44.140625 61.96875 47.359375 
Q 63.875 50.59375 63.875 54.296875 
Q 63.875 57.421875 62.453125 59.734375 
Q 61.03125 62.0625 58.734375 62.890625 
Q 56.453125 63.71875 50.921875 63.71875 
L 27.59375 63.71875 
z
" id="Arial-ItalicMT-82"/>
      <path d="M 41.40625 17.625 
L 50 16.75 
Q 48.140625 10.359375 41.46875 4.59375 
Q 34.8125 -1.171875 25.59375 -1.171875 
Q 19.828125 -1.171875 15.015625 1.484375 
Q 10.203125 4.15625 7.6875 9.234375 
Q 5.171875 14.3125 5.171875 20.796875 
Q 5.171875 29.296875 9.09375 37.28125 
Q 13.03125 45.265625 19.28125 49.140625 
Q 25.53125 53.03125 32.8125 53.03125 
Q 42.09375 53.03125 47.625 47.265625 
Q 53.171875 41.5 53.171875 31.546875 
Q 53.171875 27.734375 52.484375 23.734375 
L 14.3125 23.734375 
Q 14.109375 22.21875 14.109375 21 
Q 14.109375 13.71875 17.453125 9.890625 
Q 20.796875 6.0625 25.640625 6.0625 
Q 30.171875 6.0625 34.5625 9.03125 
Q 38.96875 12.015625 41.40625 17.625 
z
M 15.71875 30.46875 
L 44.828125 30.46875 
Q 44.875 31.84375 44.875 32.421875 
Q 44.875 39.0625 41.546875 42.59375 
Q 38.234375 46.140625 33.015625 46.140625 
Q 27.34375 46.140625 22.671875 42.234375 
Q 18.015625 38.328125 15.71875 30.46875 
z
" id="Arial-ItalicMT-101"/>
      <path d="M 39.109375 18.890625 
L 47.953125 17.96875 
Q 44.625 8.25 38.5 3.53125 
Q 32.375 -1.171875 24.5625 -1.171875 
Q 16.109375 -1.171875 10.859375 4.296875 
Q 5.609375 9.765625 5.609375 19.578125 
Q 5.609375 28.078125 8.984375 36.28125 
Q 12.359375 44.484375 18.625 48.75 
Q 24.90625 53.03125 32.953125 53.03125 
Q 41.3125 53.03125 46.1875 48.3125 
Q 51.078125 43.609375 51.078125 35.84375 
L 42.390625 35.25 
Q 42.328125 40.1875 39.515625 42.96875 
Q 36.71875 45.75 32.125 45.75 
Q 26.8125 45.75 22.90625 42.375 
Q 19 39.015625 16.765625 32.15625 
Q 14.546875 25.296875 14.546875 18.953125 
Q 14.546875 12.3125 17.46875 8.984375 
Q 20.40625 5.671875 24.703125 5.671875 
Q 29 5.671875 32.921875 8.9375 
Q 36.859375 12.203125 39.109375 18.890625 
z
" id="Arial-ItalicMT-99"/>
      <path d="M 15.875 61.578125 
L 17.96875 71.578125 
L 26.765625 71.578125 
L 24.65625 61.578125 
z
M 2.984375 0 
L 13.8125 51.859375 
L 22.65625 51.859375 
L 11.8125 0 
z
" id="Arial-ItalicMT-105"/>
      <path d="M 16.40625 0 
L 7.90625 51.859375 
L 16.5 51.859375 
L 20.953125 23.296875 
Q 21.6875 18.609375 22.75 8.015625 
Q 25.296875 13.53125 29.25 20.65625 
L 46.578125 51.859375 
L 55.90625 51.859375 
L 26.21875 0 
z
" id="Arial-ItalicMT-118"/>
      <path d="M 4.890625 19.671875 
Q 4.890625 34.859375 13.8125 44.828125 
Q 21.1875 53.03125 33.15625 53.03125 
Q 42.53125 53.03125 48.265625 47.171875 
Q 54 41.3125 54 31.34375 
Q 54 22.40625 50.390625 14.71875 
Q 46.78125 7.03125 40.109375 2.921875 
Q 33.453125 -1.171875 26.078125 -1.171875 
Q 20.015625 -1.171875 15.0625 1.40625 
Q 10.109375 4 7.5 8.734375 
Q 4.890625 13.484375 4.890625 19.671875 
z
M 13.71875 20.5625 
Q 13.71875 13.234375 17.234375 9.453125 
Q 20.75 5.671875 26.171875 5.671875 
Q 29 5.671875 31.78125 6.8125 
Q 34.578125 7.953125 36.96875 10.296875 
Q 39.359375 12.640625 41.03125 15.640625 
Q 42.71875 18.65625 43.75 22.125 
Q 45.265625 26.953125 45.265625 31.390625 
Q 45.265625 38.421875 41.71875 42.296875 
Q 38.1875 46.1875 32.8125 46.1875 
Q 28.65625 46.1875 25.234375 44.203125 
Q 21.828125 42.234375 19.0625 38.421875 
Q 16.3125 34.625 15.015625 29.5625 
Q 13.71875 24.515625 13.71875 20.5625 
z
" id="Arial-ItalicMT-111"/>
      <path d="M 3.328125 0 
L 14.15625 51.859375 
L 22.171875 51.859375 
L 20.265625 42.828125 
Q 25.484375 48.140625 30.03125 50.578125 
Q 34.578125 53.03125 39.3125 53.03125 
Q 45.609375 53.03125 49.1875 49.609375 
Q 52.78125 46.1875 52.78125 40.484375 
Q 52.78125 37.59375 51.515625 31.390625 
L 44.921875 0 
L 36.078125 0 
L 42.96875 32.859375 
Q 44 37.640625 44 39.9375 
Q 44 42.53125 42.21875 44.140625 
Q 40.4375 45.75 37.0625 45.75 
Q 30.28125 45.75 24.96875 40.859375 
Q 19.671875 35.984375 17.1875 24.125 
L 12.15625 0 
z
" id="Arial-ItalicMT-110"/>
      <path d="M 3.328125 0 
L 18.265625 71.578125 
L 27.09375 71.578125 
L 21.78125 46 
Q 25.984375 49.859375 29.390625 51.4375 
Q 32.8125 53.03125 36.53125 53.03125 
Q 43.796875 53.03125 48.65625 47.609375 
Q 53.515625 42.1875 53.515625 31.84375 
Q 53.515625 24.953125 51.5625 19.234375 
Q 49.609375 13.53125 46.71875 9.640625 
Q 43.84375 5.765625 40.765625 3.4375 
Q 37.703125 1.125 34.46875 -0.015625 
Q 31.25 -1.171875 28.265625 -1.171875 
Q 23.140625 -1.171875 19.234375 1.53125 
Q 15.328125 4.25 13.140625 9.8125 
L 11.078125 0 
z
M 16.40625 21.296875 
L 16.359375 19.625 
Q 16.359375 12.984375 19.53125 9.515625 
Q 22.703125 6.0625 27.4375 6.0625 
Q 32.078125 6.0625 35.953125 9.296875 
Q 39.84375 12.546875 42.328125 19.421875 
Q 44.828125 26.3125 44.828125 32.125 
Q 44.828125 38.671875 41.671875 42.28125 
Q 38.53125 45.90625 33.890625 45.90625 
Q 29.109375 45.90625 25.09375 42.21875 
Q 21.09375 38.53125 18.40625 30.859375 
Q 16.40625 25.140625 16.40625 21.296875 
z
" id="Arial-ItalicMT-98"/>
      <path d="M 2.640625 0 
L 17.578125 71.578125 
L 26.421875 71.578125 
L 11.46875 0 
z
" id="Arial-ItalicMT-108"/>
     </defs>
     <g transform="translate(14.357813 181.319543)rotate(-90)scale(0.1 -0.1)">
      <use xlink:href="#Arial-ItalicMT-82"/>
      <use x="72.216797" xlink:href="#Arial-ItalicMT-101"/>
      <use x="127.832031" xlink:href="#Arial-ItalicMT-97"/>
      <use x="183.447266" xlink:href="#Arial-ItalicMT-99"/>
      <use x="233.447266" xlink:href="#Arial-ItalicMT-116"/>
      <use x="261.230469" xlink:href="#Arial-ItalicMT-105"/>
      <use x="283.447266" xlink:href="#Arial-ItalicMT-118"/>
      <use x="333.447266" xlink:href="#Arial-ItalicMT-97"/>
      <use x="389.0625" xlink:href="#Arial-ItalicMT-116"/>
      <use x="416.845703" xlink:href="#Arial-ItalicMT-105"/>
      <use x="439.0625" xlink:href="#Arial-ItalicMT-111"/>
      <use x="494.677734" xlink:href="#Arial-ItalicMT-110"/>
      <use x="550.292969" xlink:href="#Arial-ItalicMT-32"/>
      <use x="578.076172" xlink:href="#Arial-ItalicMT-112"/>
      <use x="633.691406" xlink:href="#Arial-ItalicMT-114"/>
      <use x="666.992188" xlink:href="#Arial-ItalicMT-111"/>
      <use x="722.607422" xlink:href="#Arial-ItalicMT-98"/>
      <use x="778.222656" xlink:href="#Arial-ItalicMT-97"/>
      <use x="833.837891" xlink:href="#Arial-ItalicMT-98"/>
      <use x="889.453125" xlink:href="#Arial-ItalicMT-105"/>
      <use x="911.669922" xlink:href="#Arial-ItalicMT-108"/>
      <use x="933.886719" xlink:href="#Arial-ItalicMT-105"/>
      <use x="956.103516" xlink:href="#Arial-ItalicMT-116"/>
      <use x="983.886719" xlink:href="#Arial-ItalicMT-121"/>
     </g>
    </g>
   </g>
   <g id="line2d_12"/>
   <g id="line2d_13"/>
   <g id="patch_3">
    <path d="M 41.3625 215.771177 
L 41.3625 43.485097 
" style="fill:none;stroke:#000000;stroke-linecap:square;stroke-linejoin:miter;stroke-width:0.8;"/>
   </g>
   <g id="patch_4">
    <path d="M 331.3625 215.771177 
L 331.3625 43.485097 
" style="fill:none;stroke:#000000;stroke-linecap:square;stroke-linejoin:miter;stroke-width:0.8;"/>
   </g>
   <g id="patch_5">
    <path d="M 41.3625 215.771177 
L 331.3625 215.771177 
" style="fill:none;stroke:#000000;stroke-linecap:square;stroke-linejoin:miter;stroke-width:0.8;"/>
   </g>
   <g id="patch_6">
    <path d="M 41.3625 43.485097 
L 331.3625 43.485097 
" style="fill:none;stroke:#000000;stroke-linecap:square;stroke-linejoin:miter;stroke-width:0.8;"/>
   </g>
   <g id="PathCollection_1">
    <defs>
     <path d="M 0 1.75 
C 0.464105 1.75 0.909265 1.565609 1.237437 1.237437 
C 1.565609 0.909265 1.75 0.464105 1.75 0 
C 1.75 -0.464105 1.565609 -0.909265 1.237437 -1.237437 
C 0.909265 -1.565609 0.464105 -1.75 0 -1.75 
C -0.464105 -1.75 -0.909265 -1.565609 -1.237437 -1.237437 
C -1.565609 -0.909265 -1.75 -0.464105 -1.75 0 
C -1.75 0.464105 -1.565609 0.909265 -1.237437 1.237437 
C -0.909265 1.565609 -0.464105 1.75 0 1.75 
z
" id="C0_0_87fdb89e0a"/>
    </defs>
    <g clip-path="url(#p933eda4f2d)">
     <use style="fill:#00cc96;stroke:#3d3d3d;stroke-width:0.8;" x="66.639081" xlink:href="#C0_0_87fdb89e0a" y="165.365876"/>
    </g>
    <g clip-path="url(#p933eda4f2d)">
     <use style="fill:#00cc96;stroke:#3d3d3d;stroke-width:0.8;" x="59.238153" xlink:href="#C0_0_87fdb89e0a" y="153.71485"/>
    </g>
    <g clip-path="url(#p933eda4f2d)">
     <use style="fill:#00cc96;stroke:#3d3d3d;stroke-width:0.8;" x="59.238153" xlink:href="#C0_0_87fdb89e0a" y="168.80925"/>
    </g>
    <g clip-path="url(#p933eda4f2d)">
     <use style="fill:#00cc96;stroke:#3d3d3d;stroke-width:0.8;" x="59.238153" xlink:href="#C0_0_87fdb89e0a" y="179.77111"/>
    </g>
    <g clip-path="url(#p933eda4f2d)">
     <use style="fill:#00cc96;stroke:#3d3d3d;stroke-width:0.8;" x="62.737687" xlink:href="#C0_0_87fdb89e0a" y="177.054154"/>
    </g>
    <g clip-path="url(#p933eda4f2d)">
     <use style="fill:#00cc96;stroke:#3d3d3d;stroke-width:0.8;" x="54.741647" xlink:href="#C0_0_87fdb89e0a" y="179.38231"/>
    </g>
    <g clip-path="url(#p933eda4f2d)">
     <use style="fill:#00cc96;stroke:#3d3d3d;stroke-width:0.8;" x="59.238153" xlink:href="#C0_0_87fdb89e0a" y="174.347201"/>
    </g>
    <g clip-path="url(#p933eda4f2d)">
     <use style="fill:#00cc96;stroke:#3d3d3d;stroke-width:0.8;" x="59.238153" xlink:href="#C0_0_87fdb89e0a" y="161.627764"/>
    </g>
    <g clip-path="url(#p933eda4f2d)">
     <use style="fill:#00cc96;stroke:#3d3d3d;stroke-width:0.8;" x="54.796791" xlink:href="#C0_0_87fdb89e0a" y="168.03581"/>
    </g>
    <g clip-path="url(#p933eda4f2d)">
     <use style="fill:#00cc96;stroke:#3d3d3d;stroke-width:0.8;" x="62.126417" xlink:href="#C0_0_87fdb89e0a" y="165.504179"/>
    </g>
    <g clip-path="url(#p933eda4f2d)">
     <use style="fill:#ffa15a;stroke:#3d3d3d;stroke-width:0.8;" x="54.781344" xlink:href="#C0_0_87fdb89e0a" y="135.259545"/>
    </g>
    <g clip-path="url(#p933eda4f2d)">
     <use style="fill:#ffa15a;stroke:#3d3d3d;stroke-width:0.8;" x="59.238153" xlink:href="#C0_0_87fdb89e0a" y="146.797348"/>
    </g>
    <g clip-path="url(#p933eda4f2d)">
     <use style="fill:#ffa15a;stroke:#3d3d3d;stroke-width:0.8;" x="54.771563" xlink:href="#C0_0_87fdb89e0a" y="127.657544"/>
    </g>
    <g clip-path="url(#p933eda4f2d)">
     <use style="fill:#ffa15a;stroke:#3d3d3d;stroke-width:0.8;" x="67.243555" xlink:href="#C0_0_87fdb89e0a" y="132.668479"/>
    </g>
    <g clip-path="url(#p933eda4f2d)">
     <use style="fill:#ffa15a;stroke:#3d3d3d;stroke-width:0.8;" x="62.458964" xlink:href="#C0_0_87fdb89e0a" y="150.701411"/>
    </g>
    <g clip-path="url(#p933eda4f2d)">
     <use style="fill:#ffa15a;stroke:#3d3d3d;stroke-width:0.8;" x="59.238153" xlink:href="#C0_0_87fdb89e0a" y="135.947689"/>
    </g>
    <g clip-path="url(#p933eda4f2d)">
     <use style="fill:#ffa15a;stroke:#3d3d3d;stroke-width:0.8;" x="54.74681" xlink:href="#C0_0_87fdb89e0a" y="153.275246"/>
    </g>
    <g clip-path="url(#p933eda4f2d)">
     <use style="fill:#ffa15a;stroke:#3d3d3d;stroke-width:0.8;" x="59.238153" xlink:href="#C0_0_87fdb89e0a" y="128.285535"/>
    </g>
    <g clip-path="url(#p933eda4f2d)">
     <use style="fill:#ffa15a;stroke:#3d3d3d;stroke-width:0.8;" x="62.773394" xlink:href="#C0_0_87fdb89e0a" y="133.272992"/>
    </g>
   </g>
   <g id="PathCollection_2">
    <defs>
     <path d="M 0 1.75 
C 0.464105 1.75 0.909265 1.565609 1.237437 1.237437 
C 1.565609 0.909265 1.75 0.464105 1.75 0 
C 1.75 -0.464105 1.565609 -0.909265 1.237437 -1.237437 
C 0.909265 -1.565609 0.464105 -1.75 0 -1.75 
C -0.464105 -1.75 -0.909265 -1.565609 -1.237437 -1.237437 
C -1.565609 -0.909265 -1.75 -0.464105 -1.75 0 
C -1.75 0.464105 -1.565609 0.909265 -1.237437 1.237437 
C -0.909265 1.565609 -0.464105 1.75 0 1.75 
z
" id="C1_0_93d9f7875f"/>
    </defs>
    <g clip-path="url(#p933eda4f2d)">
     <use style="fill:#00cc96;stroke:#3d3d3d;stroke-width:0.8;" x="105.459797" xlink:href="#C1_0_93d9f7875f" y="177.738427"/>
    </g>
    <g clip-path="url(#p933eda4f2d)">
     <use style="fill:#00cc96;stroke:#3d3d3d;stroke-width:0.8;" x="114.241863" xlink:href="#C1_0_93d9f7875f" y="166.383452"/>
    </g>
    <g clip-path="url(#p933eda4f2d)">
     <use style="fill:#00cc96;stroke:#3d3d3d;stroke-width:0.8;" x="101.061613" xlink:href="#C1_0_93d9f7875f" y="176.766624"/>
    </g>
    <g clip-path="url(#p933eda4f2d)">
     <use style="fill:#00cc96;stroke:#3d3d3d;stroke-width:0.8;" x="114.364947" xlink:href="#C1_0_93d9f7875f" y="177.25176"/>
    </g>
    <g clip-path="url(#p933eda4f2d)">
     <use style="fill:#00cc96;stroke:#3d3d3d;stroke-width:0.8;" x="109.952658" xlink:href="#C1_0_93d9f7875f" y="187.638316"/>
    </g>
    <g clip-path="url(#p933eda4f2d)">
     <use style="fill:#00cc96;stroke:#3d3d3d;stroke-width:0.8;" x="105.488383" xlink:href="#C1_0_93d9f7875f" y="186.995568"/>
    </g>
    <g clip-path="url(#p933eda4f2d)">
     <use style="fill:#00cc96;stroke:#3d3d3d;stroke-width:0.8;" x="109.952658" xlink:href="#C1_0_93d9f7875f" y="178.163726"/>
    </g>
    <g clip-path="url(#p933eda4f2d)">
     <use style="fill:#00cc96;stroke:#3d3d3d;stroke-width:0.8;" x="109.952658" xlink:href="#C1_0_93d9f7875f" y="167.726257"/>
    </g>
    <g clip-path="url(#p933eda4f2d)">
     <use style="fill:#00cc96;stroke:#3d3d3d;stroke-width:0.8;" x="118.351591" xlink:href="#C1_0_93d9f7875f" y="175.233275"/>
    </g>
    <g clip-path="url(#p933eda4f2d)">
     <use style="fill:#00cc96;stroke:#3d3d3d;stroke-width:0.8;" x="109.952658" xlink:href="#C1_0_93d9f7875f" y="172.368043"/>
    </g>
    <g clip-path="url(#p933eda4f2d)">
     <use style="fill:#ffa15a;stroke:#3d3d3d;stroke-width:0.8;" x="109.498135" xlink:href="#C1_0_93d9f7875f" y="143.270699"/>
    </g>
    <g clip-path="url(#p933eda4f2d)">
     <use style="fill:#ffa15a;stroke:#3d3d3d;stroke-width:0.8;" x="105.481911" xlink:href="#C1_0_93d9f7875f" y="167.125695"/>
    </g>
    <g clip-path="url(#p933eda4f2d)">
     <use style="fill:#ffa15a;stroke:#3d3d3d;stroke-width:0.8;" x="109.952658" xlink:href="#C1_0_93d9f7875f" y="121.917123"/>
    </g>
    <g clip-path="url(#p933eda4f2d)">
     <use style="fill:#ffa15a;stroke:#3d3d3d;stroke-width:0.8;" x="109.952658" xlink:href="#C1_0_93d9f7875f" y="126.682068"/>
    </g>
    <g clip-path="url(#p933eda4f2d)">
     <use style="fill:#ffa15a;stroke:#3d3d3d;stroke-width:0.8;" x="109.952658" xlink:href="#C1_0_93d9f7875f" y="137.079957"/>
    </g>
    <g clip-path="url(#p933eda4f2d)">
     <use style="fill:#ffa15a;stroke:#3d3d3d;stroke-width:0.8;" x="109.952658" xlink:href="#C1_0_93d9f7875f" y="147.548855"/>
    </g>
    <g clip-path="url(#p933eda4f2d)">
     <use style="fill:#ffa15a;stroke:#3d3d3d;stroke-width:0.8;" x="109.952658" xlink:href="#C1_0_93d9f7875f" y="156.625714"/>
    </g>
    <g clip-path="url(#p933eda4f2d)">
     <use style="fill:#ffa15a;stroke:#3d3d3d;stroke-width:0.8;" x="113.709805" xlink:href="#C1_0_93d9f7875f" y="134.695374"/>
    </g>
    <g clip-path="url(#p933eda4f2d)">
     <use style="fill:#ffa15a;stroke:#3d3d3d;stroke-width:0.8;" x="105.443196" xlink:href="#C1_0_93d9f7875f" y="136.867048"/>
    </g>
   </g>
   <g id="PathCollection_3">
    <defs>
     <path d="M 0 1.75 
C 0.464105 1.75 0.909265 1.565609 1.237437 1.237437 
C 1.565609 0.909265 1.75 0.464105 1.75 0 
C 1.75 -0.464105 1.565609 -0.909265 1.237437 -1.237437 
C 0.909265 -1.565609 0.464105 -1.75 0 -1.75 
C -0.464105 -1.75 -0.909265 -1.565609 -1.237437 -1.237437 
C -1.565609 -0.909265 -1.75 -0.464105 -1.75 0 
C -1.75 0.464105 -1.565609 0.909265 -1.237437 1.237437 
C -0.909265 1.565609 -0.464105 1.75 0 1.75 
z
" id="C2_0_1933a29231"/>
    </defs>
    <g clip-path="url(#p933eda4f2d)">
     <use style="fill:#00cc96;stroke:#3d3d3d;stroke-width:0.8;" x="162.120751" xlink:href="#C2_0_1933a29231" y="185.499302"/>
    </g>
    <g clip-path="url(#p933eda4f2d)">
     <use style="fill:#00cc96;stroke:#3d3d3d;stroke-width:0.8;" x="160.667163" xlink:href="#C2_0_1933a29231" y="170.1242"/>
    </g>
    <g clip-path="url(#p933eda4f2d)">
     <use style="fill:#00cc96;stroke:#3d3d3d;stroke-width:0.8;" x="161.623329" xlink:href="#C2_0_1933a29231" y="177.959314"/>
    </g>
    <g clip-path="url(#p933eda4f2d)">
     <use style="fill:#00cc96;stroke:#3d3d3d;stroke-width:0.8;" x="160.667163" xlink:href="#C2_0_1933a29231" y="189.570361"/>
    </g>
    <g clip-path="url(#p933eda4f2d)">
     <use style="fill:#00cc96;stroke:#3d3d3d;stroke-width:0.8;" x="160.667163" xlink:href="#C2_0_1933a29231" y="194.833326"/>
    </g>
    <g clip-path="url(#p933eda4f2d)">
     <use style="fill:#00cc96;stroke:#3d3d3d;stroke-width:0.8;" x="156.667212" xlink:href="#C2_0_1933a29231" y="187.575899"/>
    </g>
    <g clip-path="url(#p933eda4f2d)">
     <use style="fill:#00cc96;stroke:#3d3d3d;stroke-width:0.8;" x="159.719043" xlink:href="#C2_0_1933a29231" y="181.858139"/>
    </g>
    <g clip-path="url(#p933eda4f2d)">
     <use style="fill:#00cc96;stroke:#3d3d3d;stroke-width:0.8;" x="164.210538" xlink:href="#C2_0_1933a29231" y="181.419942"/>
    </g>
    <g clip-path="url(#p933eda4f2d)">
     <use style="fill:#00cc96;stroke:#3d3d3d;stroke-width:0.8;" x="152.056691" xlink:href="#C2_0_1933a29231" y="178.257728"/>
    </g>
    <g clip-path="url(#p933eda4f2d)">
     <use style="fill:#00cc96;stroke:#3d3d3d;stroke-width:0.8;" x="156.534277" xlink:href="#C2_0_1933a29231" y="178.810149"/>
    </g>
    <g clip-path="url(#p933eda4f2d)">
     <use style="fill:#ffa15a;stroke:#3d3d3d;stroke-width:0.8;" x="160.667163" xlink:href="#C2_0_1933a29231" y="145.942655"/>
    </g>
    <g clip-path="url(#p933eda4f2d)">
     <use style="fill:#ffa15a;stroke:#3d3d3d;stroke-width:0.8;" x="167.373658" xlink:href="#C2_0_1933a29231" y="178.351576"/>
    </g>
    <g clip-path="url(#p933eda4f2d)">
     <use style="fill:#ffa15a;stroke:#3d3d3d;stroke-width:0.8;" x="160.667163" xlink:href="#C2_0_1933a29231" y="119.008294"/>
    </g>
    <g clip-path="url(#p933eda4f2d)">
     <use style="fill:#ffa15a;stroke:#3d3d3d;stroke-width:0.8;" x="160.667163" xlink:href="#C2_0_1933a29231" y="133.203334"/>
    </g>
    <g clip-path="url(#p933eda4f2d)">
     <use style="fill:#ffa15a;stroke:#3d3d3d;stroke-width:0.8;" x="160.667163" xlink:href="#C2_0_1933a29231" y="159.148981"/>
    </g>
    <g clip-path="url(#p933eda4f2d)">
     <use style="fill:#ffa15a;stroke:#3d3d3d;stroke-width:0.8;" x="160.667163" xlink:href="#C2_0_1933a29231" y="151.636167"/>
    </g>
    <g clip-path="url(#p933eda4f2d)">
     <use style="fill:#ffa15a;stroke:#3d3d3d;stroke-width:0.8;" x="156.210762" xlink:href="#C2_0_1933a29231" y="145.252119"/>
    </g>
    <g clip-path="url(#p933eda4f2d)">
     <use style="fill:#ffa15a;stroke:#3d3d3d;stroke-width:0.8;" x="157.218135" xlink:href="#C2_0_1933a29231" y="137.711587"/>
    </g>
    <g clip-path="url(#p933eda4f2d)">
     <use style="fill:#ffa15a;stroke:#3d3d3d;stroke-width:0.8;" x="160.667163" xlink:href="#C2_0_1933a29231" y="140.486503"/>
    </g>
   </g>
   <g id="PathCollection_4">
    <defs>
     <path d="M 0 1.75 
C 0.464105 1.75 0.909265 1.565609 1.237437 1.237437 
C 1.565609 0.909265 1.75 0.464105 1.75 0 
C 1.75 -0.464105 1.565609 -0.909265 1.237437 -1.237437 
C 0.909265 -1.565609 0.464105 -1.75 0 -1.75 
C -0.464105 -1.75 -0.909265 -1.565609 -1.237437 -1.237437 
C -1.565609 -0.909265 -1.75 -0.464105 -1.75 0 
C -1.75 0.464105 -1.565609 0.909265 -1.237437 1.237437 
C -0.909265 1.565609 -0.464105 1.75 0 1.75 
z
" id="C3_0_1beb59e25c"/>
    </defs>
    <g clip-path="url(#p933eda4f2d)">
     <use style="fill:#00cc96;stroke:#3d3d3d;stroke-width:0.8;" x="213.10706" xlink:href="#C3_0_1beb59e25c" y="188.930005"/>
    </g>
    <g clip-path="url(#p933eda4f2d)">
     <use style="fill:#00cc96;stroke:#3d3d3d;stroke-width:0.8;" x="211.381669" xlink:href="#C3_0_1beb59e25c" y="177.997223"/>
    </g>
    <g clip-path="url(#p933eda4f2d)">
     <use style="fill:#00cc96;stroke:#3d3d3d;stroke-width:0.8;" x="211.381669" xlink:href="#C3_0_1beb59e25c" y="182.500574"/>
    </g>
    <g clip-path="url(#p933eda4f2d)">
     <use style="fill:#00cc96;stroke:#3d3d3d;stroke-width:0.8;" x="207.034349" xlink:href="#C3_0_1beb59e25c" y="191.742663"/>
    </g>
    <g clip-path="url(#p933eda4f2d)">
     <use style="fill:#00cc96;stroke:#3d3d3d;stroke-width:0.8;" x="211.381669" xlink:href="#C3_0_1beb59e25c" y="201.030122"/>
    </g>
    <g clip-path="url(#p933eda4f2d)">
     <use style="fill:#00cc96;stroke:#3d3d3d;stroke-width:0.8;" x="211.381669" xlink:href="#C3_0_1beb59e25c" y="192.903643"/>
    </g>
    <g clip-path="url(#p933eda4f2d)">
     <use style="fill:#00cc96;stroke:#3d3d3d;stroke-width:0.8;" x="209.034523" xlink:href="#C3_0_1beb59e25c" y="187.073553"/>
    </g>
    <g clip-path="url(#p933eda4f2d)">
     <use style="fill:#00cc96;stroke:#3d3d3d;stroke-width:0.8;" x="217.482315" xlink:href="#C3_0_1beb59e25c" y="187.868465"/>
    </g>
    <g clip-path="url(#p933eda4f2d)">
     <use style="fill:#00cc96;stroke:#3d3d3d;stroke-width:0.8;" x="206.912165" xlink:href="#C3_0_1beb59e25c" y="181.891675"/>
    </g>
    <g clip-path="url(#p933eda4f2d)">
     <use style="fill:#00cc96;stroke:#3d3d3d;stroke-width:0.8;" x="207.167651" xlink:href="#C3_0_1beb59e25c" y="176.453519"/>
    </g>
    <g clip-path="url(#p933eda4f2d)">
     <use style="fill:#ffa15a;stroke:#3d3d3d;stroke-width:0.8;" x="209.393702" xlink:href="#C3_0_1beb59e25c" y="157.859889"/>
    </g>
    <g clip-path="url(#p933eda4f2d)">
     <use style="fill:#ffa15a;stroke:#3d3d3d;stroke-width:0.8;" x="211.381669" xlink:href="#C3_0_1beb59e25c" y="167.125695"/>
    </g>
    <g clip-path="url(#p933eda4f2d)">
     <use style="fill:#ffa15a;stroke:#3d3d3d;stroke-width:0.8;" x="211.381669" xlink:href="#C3_0_1beb59e25c" y="131.051518"/>
    </g>
    <g clip-path="url(#p933eda4f2d)">
     <use style="fill:#ffa15a;stroke:#3d3d3d;stroke-width:0.8;" x="211.381669" xlink:href="#C3_0_1beb59e25c" y="138.962522"/>
    </g>
    <g clip-path="url(#p933eda4f2d)">
     <use style="fill:#ffa15a;stroke:#3d3d3d;stroke-width:0.8;" x="213.90571" xlink:href="#C3_0_1beb59e25c" y="157.703372"/>
    </g>
    <g clip-path="url(#p933eda4f2d)">
     <use style="fill:#ffa15a;stroke:#3d3d3d;stroke-width:0.8;" x="211.381669" xlink:href="#C3_0_1beb59e25c" y="161.720642"/>
    </g>
    <g clip-path="url(#p933eda4f2d)">
     <use style="fill:#ffa15a;stroke:#3d3d3d;stroke-width:0.8;" x="207.179659" xlink:href="#C3_0_1beb59e25c" y="165.552583"/>
    </g>
    <g clip-path="url(#p933eda4f2d)">
     <use style="fill:#ffa15a;stroke:#3d3d3d;stroke-width:0.8;" x="209.040398" xlink:href="#C3_0_1beb59e25c" y="143.180051"/>
    </g>
    <g clip-path="url(#p933eda4f2d)">
     <use style="fill:#ffa15a;stroke:#3d3d3d;stroke-width:0.8;" x="211.381669" xlink:href="#C3_0_1beb59e25c" y="146.856745"/>
    </g>
   </g>
   <g id="PathCollection_5">
    <defs>
     <path d="M 0 1.75 
C 0.464105 1.75 0.909265 1.565609 1.237437 1.237437 
C 1.565609 0.909265 1.75 0.464105 1.75 0 
C 1.75 -0.464105 1.565609 -0.909265 1.237437 -1.237437 
C 0.909265 -1.565609 0.464105 -1.75 0 -1.75 
C -0.464105 -1.75 -0.909265 -1.565609 -1.237437 -1.237437 
C -1.565609 -0.909265 -1.75 -0.464105 -1.75 0 
C -1.75 0.464105 -1.565609 0.909265 -1.237437 1.237437 
C -0.909265 1.565609 -0.464105 1.75 0 1.75 
z
" id="C4_0_13cde63da9"/>
    </defs>
    <g clip-path="url(#p933eda4f2d)">
     <use style="fill:#00cc96;stroke:#3d3d3d;stroke-width:0.8;" x="258.232349" xlink:href="#C4_0_13cde63da9" y="195.887934"/>
    </g>
    <g clip-path="url(#p933eda4f2d)">
     <use style="fill:#00cc96;stroke:#3d3d3d;stroke-width:0.8;" x="259.288652" xlink:href="#C4_0_13cde63da9" y="179.372709"/>
    </g>
    <g clip-path="url(#p933eda4f2d)">
     <use style="fill:#00cc96;stroke:#3d3d3d;stroke-width:0.8;" x="264.983634" xlink:href="#C4_0_13cde63da9" y="187.207716"/>
    </g>
    <g clip-path="url(#p933eda4f2d)">
     <use style="fill:#00cc96;stroke:#3d3d3d;stroke-width:0.8;" x="269.815622" xlink:href="#C4_0_13cde63da9" y="193.677923"/>
    </g>
    <g clip-path="url(#p933eda4f2d)">
     <use style="fill:#00cc96;stroke:#3d3d3d;stroke-width:0.8;" x="262.096174" xlink:href="#C4_0_13cde63da9" y="203.970116"/>
    </g>
    <g clip-path="url(#p933eda4f2d)">
     <use style="fill:#00cc96;stroke:#3d3d3d;stroke-width:0.8;" x="262.096174" xlink:href="#C4_0_13cde63da9" y="198.112529"/>
    </g>
    <g clip-path="url(#p933eda4f2d)">
     <use style="fill:#00cc96;stroke:#3d3d3d;stroke-width:0.8;" x="258.080934" xlink:href="#C4_0_13cde63da9" y="188.547024"/>
    </g>
    <g clip-path="url(#p933eda4f2d)">
     <use style="fill:#00cc96;stroke:#3d3d3d;stroke-width:0.8;" x="265.821819" xlink:href="#C4_0_13cde63da9" y="195.683529"/>
    </g>
    <g clip-path="url(#p933eda4f2d)">
     <use style="fill:#00cc96;stroke:#3d3d3d;stroke-width:0.8;" x="262.096174" xlink:href="#C4_0_13cde63da9" y="190.513425"/>
    </g>
    <g clip-path="url(#p933eda4f2d)">
     <use style="fill:#00cc96;stroke:#3d3d3d;stroke-width:0.8;" x="262.096174" xlink:href="#C4_0_13cde63da9" y="182.740294"/>
    </g>
    <g clip-path="url(#p933eda4f2d)">
     <use style="fill:#ffa15a;stroke:#3d3d3d;stroke-width:0.8;" x="258.097125" xlink:href="#C4_0_13cde63da9" y="156.924623"/>
    </g>
    <g clip-path="url(#p933eda4f2d)">
     <use style="fill:#ffa15a;stroke:#3d3d3d;stroke-width:0.8;" x="262.096174" xlink:href="#C4_0_13cde63da9" y="145.167665"/>
    </g>
    <g clip-path="url(#p933eda4f2d)">
     <use style="fill:#ffa15a;stroke:#3d3d3d;stroke-width:0.8;" x="258.10765" xlink:href="#C4_0_13cde63da9" y="143.152552"/>
    </g>
    <g clip-path="url(#p933eda4f2d)">
     <use style="fill:#ffa15a;stroke:#3d3d3d;stroke-width:0.8;" x="269.128985" xlink:href="#C4_0_13cde63da9" y="140.881123"/>
    </g>
    <g clip-path="url(#p933eda4f2d)">
     <use style="fill:#ffa15a;stroke:#3d3d3d;stroke-width:0.8;" x="262.096174" xlink:href="#C4_0_13cde63da9" y="158.920727"/>
    </g>
    <g clip-path="url(#p933eda4f2d)">
     <use style="fill:#ffa15a;stroke:#3d3d3d;stroke-width:0.8;" x="257.588671" xlink:href="#C4_0_13cde63da9" y="165.437643"/>
    </g>
    <g clip-path="url(#p933eda4f2d)">
     <use style="fill:#ffa15a;stroke:#3d3d3d;stroke-width:0.8;" x="262.096174" xlink:href="#C4_0_13cde63da9" y="165.68533"/>
    </g>
    <g clip-path="url(#p933eda4f2d)">
     <use style="fill:#ffa15a;stroke:#3d3d3d;stroke-width:0.8;" x="264.685856" xlink:href="#C4_0_13cde63da9" y="141.645301"/>
    </g>
    <g clip-path="url(#p933eda4f2d)">
     <use style="fill:#ffa15a;stroke:#3d3d3d;stroke-width:0.8;" x="262.096174" xlink:href="#C4_0_13cde63da9" y="152.877815"/>
    </g>
   </g>
   <g id="PathCollection_6">
    <defs>
     <path d="M 0 1.75 
C 0.464105 1.75 0.909265 1.565609 1.237437 1.237437 
C 1.565609 0.909265 1.75 0.464105 1.75 0 
C 1.75 -0.464105 1.565609 -0.909265 1.237437 -1.237437 
C 0.909265 -1.565609 0.464105 -1.75 0 -1.75 
C -0.464105 -1.75 -0.909265 -1.565609 -1.237437 -1.237437 
C -1.565609 -0.909265 -1.75 -0.464105 -1.75 0 
C -1.75 0.464105 -1.565609 0.909265 -1.237437 1.237437 
C -0.909265 1.565609 -0.464105 1.75 0 1.75 
z
" id="C5_0_8d3d9dc1f3"/>
    </defs>
    <g clip-path="url(#p933eda4f2d)">
     <use style="fill:#00cc96;stroke:#3d3d3d;stroke-width:0.8;" x="308.279718" xlink:href="#C5_0_8d3d9dc1f3" y="196.398091"/>
    </g>
    <g clip-path="url(#p933eda4f2d)">
     <use style="fill:#00cc96;stroke:#3d3d3d;stroke-width:0.8;" x="308.54179" xlink:href="#C5_0_8d3d9dc1f3" y="189.168179"/>
    </g>
    <g clip-path="url(#p933eda4f2d)">
     <use style="fill:#00cc96;stroke:#3d3d3d;stroke-width:0.8;" x="312.765273" xlink:href="#C5_0_8d3d9dc1f3" y="190.686366"/>
    </g>
    <g clip-path="url(#p933eda4f2d)">
     <use style="fill:#00cc96;stroke:#3d3d3d;stroke-width:0.8;" x="313.674974" xlink:href="#C5_0_8d3d9dc1f3" y="201.186719"/>
    </g>
    <g clip-path="url(#p933eda4f2d)">
     <use style="fill:#00cc96;stroke:#3d3d3d;stroke-width:0.8;" x="312.765273" xlink:href="#C5_0_8d3d9dc1f3" y="205.636701"/>
    </g>
    <g clip-path="url(#p933eda4f2d)">
     <use style="fill:#00cc96;stroke:#3d3d3d;stroke-width:0.8;" x="312.765273" xlink:href="#C5_0_8d3d9dc1f3" y="216.495068"/>
    </g>
    <g clip-path="url(#p933eda4f2d)">
     <use style="fill:#00cc96;stroke:#3d3d3d;stroke-width:0.8;" x="312.765273" xlink:href="#C5_0_8d3d9dc1f3" y="196.881788"/>
    </g>
    <g clip-path="url(#p933eda4f2d)">
     <use style="fill:#00cc96;stroke:#3d3d3d;stroke-width:0.8;" x="318.180682" xlink:href="#C5_0_8d3d9dc1f3" y="200.922992"/>
    </g>
    <g clip-path="url(#p933eda4f2d)">
     <use style="fill:#00cc96;stroke:#3d3d3d;stroke-width:0.8;" x="309.454825" xlink:href="#C5_0_8d3d9dc1f3" y="202.713295"/>
    </g>
    <g clip-path="url(#p933eda4f2d)">
     <use style="fill:#ffa15a;stroke:#3d3d3d;stroke-width:0.8;" x="312.765273" xlink:href="#C5_0_8d3d9dc1f3" y="163.48865"/>
    </g>
    <g clip-path="url(#p933eda4f2d)">
     <use style="fill:#ffa15a;stroke:#3d3d3d;stroke-width:0.8;" x="309.400254" xlink:href="#C5_0_8d3d9dc1f3" y="134.695374"/>
    </g>
    <g clip-path="url(#p933eda4f2d)">
     <use style="fill:#ffa15a;stroke:#3d3d3d;stroke-width:0.8;" x="312.765273" xlink:href="#C5_0_8d3d9dc1f3" y="129.628137"/>
    </g>
    <g clip-path="url(#p933eda4f2d)">
     <use style="fill:#ffa15a;stroke:#3d3d3d;stroke-width:0.8;" x="312.765273" xlink:href="#C5_0_8d3d9dc1f3" y="137.56169"/>
    </g>
    <g clip-path="url(#p933eda4f2d)">
     <use style="fill:#ffa15a;stroke:#3d3d3d;stroke-width:0.8;" x="308.262601" xlink:href="#C5_0_8d3d9dc1f3" y="163.181467"/>
    </g>
    <g clip-path="url(#p933eda4f2d)">
     <use style="fill:#ffa15a;stroke:#3d3d3d;stroke-width:0.8;" x="312.765273" xlink:href="#C5_0_8d3d9dc1f3" y="179.737487"/>
    </g>
    <g clip-path="url(#p933eda4f2d)">
     <use style="fill:#ffa15a;stroke:#3d3d3d;stroke-width:0.8;" x="312.765273" xlink:href="#C5_0_8d3d9dc1f3" y="171.310253"/>
    </g>
    <g clip-path="url(#p933eda4f2d)">
     <use style="fill:#ffa15a;stroke:#3d3d3d;stroke-width:0.8;" x="312.765273" xlink:href="#C5_0_8d3d9dc1f3" y="146.518929"/>
    </g>
    <g clip-path="url(#p933eda4f2d)">
     <use style="fill:#ffa15a;stroke:#3d3d3d;stroke-width:0.8;" x="312.765273" xlink:href="#C5_0_8d3d9dc1f3" y="154.964325"/>
    </g>
   </g>
   <g id="line2d_14">
    <path clip-path="url(#p933eda4f2d)" d="M 59.237328 169.361251 
L 109.942917 176.626545 
L 160.648506 182.590836 
L 211.354095 186.839144 
L 262.059684 191.57132 
L 312.765273 200.009911 
" style="fill:none;stroke:#00cc96;stroke-linecap:square;stroke-width:1.5;"/>
   </g>
   <g id="line2d_15">
    <path clip-path="url(#p933eda4f2d)" d="M 59.237328 138.20731 
L 109.942917 141.312504 
L 160.648506 145.637913 
L 211.354095 152.223668 
L 262.059684 152.299198 
L 312.765273 153.454035 
" style="fill:none;stroke:#ffa15a;stroke-linecap:square;stroke-width:1.5;"/>
   </g>
   <g id="legend_1">
    <g id="patch_7">
     <path d="M 48.3625 35.039375 
L 324.3625 35.039375 
Q 326.3625 35.039375 326.3625 33.039375 
L 326.3625 9.2 
Q 326.3625 7.2 324.3625 7.2 
L 48.3625 7.2 
Q 46.3625 7.2 46.3625 9.2 
L 46.3625 33.039375 
Q 46.3625 35.039375 48.3625 35.039375 
z
" style="fill:#ffffff;opacity:0.8;stroke:#cccccc;stroke-linejoin:miter;"/>
    </g>
    <g id="line2d_16">
     <path d="M 50.3625 21.198594 
L 70.3625 21.198594 
" style="fill:none;stroke:#00cc96;stroke-linecap:square;stroke-width:1.5;"/>
    </g>
    <g id="line2d_17"/>
    <g id="text_14">
     <!-- All GCaMP cells -->
     <defs>
      <path d="M -0.140625 0 
L 27.34375 71.578125 
L 37.546875 71.578125 
L 66.84375 0 
L 56.0625 0 
L 47.703125 21.6875 
L 17.78125 21.6875 
L 9.90625 0 
z
M 20.515625 29.390625 
L 44.78125 29.390625 
L 37.3125 49.21875 
Q 33.890625 58.25 32.234375 64.0625 
Q 30.859375 57.171875 28.375 50.390625 
z
" id="ArialMT-65"/>
      <path d="M 6.390625 0 
L 6.390625 71.578125 
L 15.1875 71.578125 
L 15.1875 0 
z
" id="ArialMT-108"/>
      <path id="ArialMT-32"/>
      <path d="M 41.21875 28.078125 
L 41.21875 36.46875 
L 71.53125 36.53125 
L 71.53125 9.96875 
Q 64.546875 4.390625 57.125 1.578125 
Q 49.703125 -1.21875 41.890625 -1.21875 
Q 31.34375 -1.21875 22.71875 3.296875 
Q 14.109375 7.8125 9.71875 16.359375 
Q 5.328125 24.90625 5.328125 35.453125 
Q 5.328125 45.90625 9.6875 54.953125 
Q 14.0625 64.015625 22.265625 68.40625 
Q 30.46875 72.796875 41.15625 72.796875 
Q 48.921875 72.796875 55.1875 70.28125 
Q 61.46875 67.78125 65.03125 63.28125 
Q 68.609375 58.796875 70.453125 51.5625 
L 61.921875 49.21875 
Q 60.296875 54.6875 57.90625 57.8125 
Q 55.515625 60.9375 51.0625 62.8125 
Q 46.625 64.703125 41.21875 64.703125 
Q 34.71875 64.703125 29.984375 62.71875 
Q 25.25 60.75 22.34375 57.515625 
Q 19.4375 54.296875 17.828125 50.4375 
Q 15.09375 43.796875 15.09375 36.03125 
Q 15.09375 26.46875 18.390625 20.015625 
Q 21.6875 13.578125 27.984375 10.453125 
Q 34.28125 7.328125 41.359375 7.328125 
Q 47.515625 7.328125 53.375 9.6875 
Q 59.234375 12.0625 62.25 14.75 
L 62.25 28.078125 
z
" id="ArialMT-71"/>
      <path d="M 58.796875 25.09375 
L 68.265625 22.703125 
Q 65.28125 11.03125 57.546875 4.90625 
Q 49.8125 -1.21875 38.625 -1.21875 
Q 27.046875 -1.21875 19.796875 3.484375 
Q 12.546875 8.203125 8.765625 17.140625 
Q 4.984375 26.078125 4.984375 36.328125 
Q 4.984375 47.515625 9.25 55.828125 
Q 13.53125 64.15625 21.40625 68.46875 
Q 29.296875 72.796875 38.765625 72.796875 
Q 49.515625 72.796875 56.828125 67.328125 
Q 64.15625 61.859375 67.046875 51.953125 
L 57.71875 49.75 
Q 55.21875 57.5625 50.484375 61.125 
Q 45.75 64.703125 38.578125 64.703125 
Q 30.328125 64.703125 24.78125 60.734375 
Q 19.234375 56.78125 16.984375 50.109375 
Q 14.75 43.453125 14.75 36.375 
Q 14.75 27.25 17.40625 20.4375 
Q 20.0625 13.625 25.671875 10.25 
Q 31.296875 6.890625 37.84375 6.890625 
Q 45.796875 6.890625 51.3125 11.46875 
Q 56.84375 16.0625 58.796875 25.09375 
z
" id="ArialMT-67"/>
      <path d="M 40.4375 6.390625 
Q 35.546875 2.25 31.03125 0.53125 
Q 26.515625 -1.171875 21.34375 -1.171875 
Q 12.796875 -1.171875 8.203125 3 
Q 3.609375 7.171875 3.609375 13.671875 
Q 3.609375 17.484375 5.34375 20.625 
Q 7.078125 23.78125 9.890625 25.6875 
Q 12.703125 27.59375 16.21875 28.5625 
Q 18.796875 29.25 24.03125 29.890625 
Q 34.671875 31.15625 39.703125 32.90625 
Q 39.75 34.71875 39.75 35.203125 
Q 39.75 40.578125 37.25 42.78125 
Q 33.890625 45.75 27.25 45.75 
Q 21.046875 45.75 18.09375 43.578125 
Q 15.140625 41.40625 13.71875 35.890625 
L 5.125 37.0625 
Q 6.296875 42.578125 8.984375 45.96875 
Q 11.671875 49.359375 16.75 51.1875 
Q 21.828125 53.03125 28.515625 53.03125 
Q 35.15625 53.03125 39.296875 51.46875 
Q 43.453125 49.90625 45.40625 47.53125 
Q 47.359375 45.171875 48.140625 41.546875 
Q 48.578125 39.3125 48.578125 33.453125 
L 48.578125 21.734375 
Q 48.578125 9.46875 49.140625 6.21875 
Q 49.703125 2.984375 51.375 0 
L 42.1875 0 
Q 40.828125 2.734375 40.4375 6.390625 
z
M 39.703125 26.03125 
Q 34.90625 24.078125 25.34375 22.703125 
Q 19.921875 21.921875 17.671875 20.9375 
Q 15.4375 19.96875 14.203125 18.09375 
Q 12.984375 16.21875 12.984375 13.921875 
Q 12.984375 10.40625 15.640625 8.0625 
Q 18.3125 5.71875 23.4375 5.71875 
Q 28.515625 5.71875 32.46875 7.9375 
Q 36.421875 10.15625 38.28125 14.015625 
Q 39.703125 17 39.703125 22.796875 
z
" id="ArialMT-97"/>
      <path d="M 7.421875 0 
L 7.421875 71.578125 
L 21.6875 71.578125 
L 38.625 20.90625 
Q 40.96875 13.8125 42.046875 10.296875 
Q 43.265625 14.203125 45.84375 21.78125 
L 62.984375 71.578125 
L 75.734375 71.578125 
L 75.734375 0 
L 66.609375 0 
L 66.609375 59.90625 
L 45.796875 0 
L 37.25 0 
L 16.546875 60.9375 
L 16.546875 0 
z
" id="ArialMT-77"/>
      <path d="M 7.71875 0 
L 7.71875 71.578125 
L 34.71875 71.578125 
Q 41.84375 71.578125 45.609375 70.90625 
Q 50.875 70.015625 54.4375 67.546875 
Q 58.015625 65.09375 60.1875 60.640625 
Q 62.359375 56.203125 62.359375 50.875 
Q 62.359375 41.75 56.546875 35.421875 
Q 50.734375 29.109375 35.546875 29.109375 
L 17.1875 29.109375 
L 17.1875 0 
z
M 17.1875 37.546875 
L 35.6875 37.546875 
Q 44.875 37.546875 48.734375 40.96875 
Q 52.59375 44.390625 52.59375 50.59375 
Q 52.59375 55.078125 50.3125 58.265625 
Q 48.046875 61.46875 44.34375 62.5 
Q 41.9375 63.140625 35.5 63.140625 
L 17.1875 63.140625 
z
" id="ArialMT-80"/>
      <path d="M 40.4375 19 
L 49.078125 17.875 
Q 47.65625 8.9375 41.8125 3.875 
Q 35.984375 -1.171875 27.484375 -1.171875 
Q 16.84375 -1.171875 10.375 5.78125 
Q 3.90625 12.75 3.90625 25.734375 
Q 3.90625 34.125 6.6875 40.421875 
Q 9.46875 46.734375 15.15625 49.875 
Q 20.84375 53.03125 27.546875 53.03125 
Q 35.984375 53.03125 41.359375 48.75 
Q 46.734375 44.484375 48.25 36.625 
L 39.703125 35.296875 
Q 38.484375 40.53125 35.375 43.15625 
Q 32.28125 45.796875 27.875 45.796875 
Q 21.234375 45.796875 17.078125 41.03125 
Q 12.9375 36.28125 12.9375 25.984375 
Q 12.9375 15.53125 16.9375 10.796875 
Q 20.953125 6.0625 27.390625 6.0625 
Q 32.5625 6.0625 36.03125 9.234375 
Q 39.5 12.40625 40.4375 19 
z
" id="ArialMT-99"/>
      <path d="M 42.09375 16.703125 
L 51.171875 15.578125 
Q 49.03125 7.625 43.21875 3.21875 
Q 37.40625 -1.171875 28.375 -1.171875 
Q 17 -1.171875 10.328125 5.828125 
Q 3.65625 12.84375 3.65625 25.484375 
Q 3.65625 38.578125 10.390625 45.796875 
Q 17.140625 53.03125 27.875 53.03125 
Q 38.28125 53.03125 44.875 45.953125 
Q 51.46875 38.875 51.46875 26.03125 
Q 51.46875 25.25 51.421875 23.6875 
L 12.75 23.6875 
Q 13.234375 15.140625 17.578125 10.59375 
Q 21.921875 6.0625 28.421875 6.0625 
Q 33.25 6.0625 36.671875 8.59375 
Q 40.09375 11.140625 42.09375 16.703125 
z
M 13.234375 30.90625 
L 42.1875 30.90625 
Q 41.609375 37.453125 38.875 40.71875 
Q 34.671875 45.796875 27.984375 45.796875 
Q 21.921875 45.796875 17.796875 41.75 
Q 13.671875 37.703125 13.234375 30.90625 
z
" id="ArialMT-101"/>
      <path d="M 3.078125 15.484375 
L 11.765625 16.84375 
Q 12.5 11.625 15.84375 8.84375 
Q 19.1875 6.0625 25.203125 6.0625 
Q 31.25 6.0625 34.171875 8.515625 
Q 37.109375 10.984375 37.109375 14.3125 
Q 37.109375 17.28125 34.515625 19 
Q 32.71875 20.171875 25.53125 21.96875 
Q 15.875 24.421875 12.140625 26.203125 
Q 8.40625 27.984375 6.46875 31.125 
Q 4.546875 34.28125 4.546875 38.09375 
Q 4.546875 41.546875 6.125 44.5 
Q 7.71875 47.46875 10.453125 49.421875 
Q 12.5 50.921875 16.03125 51.96875 
Q 19.578125 53.03125 23.640625 53.03125 
Q 29.734375 53.03125 34.34375 51.265625 
Q 38.96875 49.515625 41.15625 46.5 
Q 43.359375 43.5 44.1875 38.484375 
L 35.59375 37.3125 
Q 35.015625 41.3125 32.203125 43.546875 
Q 29.390625 45.796875 24.265625 45.796875 
Q 18.21875 45.796875 15.625 43.796875 
Q 13.03125 41.796875 13.03125 39.109375 
Q 13.03125 37.40625 14.109375 36.03125 
Q 15.1875 34.625 17.484375 33.6875 
Q 18.796875 33.203125 25.25 31.453125 
Q 34.578125 28.953125 38.25 27.359375 
Q 41.9375 25.78125 44.03125 22.75 
Q 46.140625 19.734375 46.140625 15.234375 
Q 46.140625 10.84375 43.578125 6.953125 
Q 41.015625 3.078125 36.171875 0.953125 
Q 31.34375 -1.171875 25.25 -1.171875 
Q 15.140625 -1.171875 9.84375 3.03125 
Q 4.546875 7.234375 3.078125 15.484375 
z
" id="ArialMT-115"/>
     </defs>
     <g transform="translate(78.3625 24.698594)scale(0.1 -0.1)">
      <use xlink:href="#ArialMT-65"/>
      <use x="66.699219" xlink:href="#ArialMT-108"/>
      <use x="88.916016" xlink:href="#ArialMT-108"/>
      <use x="111.132812" xlink:href="#ArialMT-32"/>
      <use x="138.916016" xlink:href="#ArialMT-71"/>
      <use x="216.699219" xlink:href="#ArialMT-67"/>
      <use x="288.916016" xlink:href="#ArialMT-97"/>
      <use x="344.53125" xlink:href="#ArialMT-77"/>
      <use x="427.832031" xlink:href="#ArialMT-80"/>
      <use x="492.78125" xlink:href="#ArialMT-32"/>
      <use x="520.564453" xlink:href="#ArialMT-99"/>
      <use x="570.564453" xlink:href="#ArialMT-101"/>
      <use x="626.179688" xlink:href="#ArialMT-108"/>
      <use x="648.396484" xlink:href="#ArialMT-108"/>
      <use x="670.613281" xlink:href="#ArialMT-115"/>
     </g>
    </g>
    <g id="line2d_18">
     <path d="M 185.434375 21.198594 
L 205.434375 21.198594 
" style="fill:none;stroke:#ffa15a;stroke-linecap:square;stroke-width:1.5;"/>
    </g>
    <g id="line2d_19"/>
    <g id="text_15">
     <!-- GCaMP cells -->
     <g transform="translate(213.434375 18.357813)scale(0.1 -0.1)">
      <use xlink:href="#ArialMT-71"/>
      <use x="77.783203" xlink:href="#ArialMT-67"/>
      <use x="150" xlink:href="#ArialMT-97"/>
      <use x="205.615234" xlink:href="#ArialMT-77"/>
      <use x="288.916016" xlink:href="#ArialMT-80"/>
      <use x="353.865234" xlink:href="#ArialMT-32"/>
      <use x="381.648438" xlink:href="#ArialMT-99"/>
      <use x="431.648438" xlink:href="#ArialMT-101"/>
      <use x="487.263672" xlink:href="#ArialMT-108"/>
      <use x="509.480469" xlink:href="#ArialMT-108"/>
      <use x="531.697266" xlink:href="#ArialMT-115"/>
     </g>
     <!-- registered with tdTomato -->
     <defs>
      <path d="M 6.5 0 
L 6.5 51.859375 
L 14.40625 51.859375 
L 14.40625 44 
Q 17.4375 49.515625 20 51.265625 
Q 22.5625 53.03125 25.640625 53.03125 
Q 30.078125 53.03125 34.671875 50.203125 
L 31.640625 42.046875 
Q 28.421875 43.953125 25.203125 43.953125 
Q 22.3125 43.953125 20.015625 42.21875 
Q 17.71875 40.484375 16.75 37.40625 
Q 15.28125 32.71875 15.28125 27.15625 
L 15.28125 0 
z
" id="ArialMT-114"/>
      <path d="M 4.984375 -4.296875 
L 13.53125 -5.5625 
Q 14.0625 -9.515625 16.5 -11.328125 
Q 19.78125 -13.765625 25.4375 -13.765625 
Q 31.546875 -13.765625 34.859375 -11.328125 
Q 38.1875 -8.890625 39.359375 -4.5 
Q 40.046875 -1.8125 39.984375 6.78125 
Q 34.234375 0 25.640625 0 
Q 14.9375 0 9.078125 7.71875 
Q 3.21875 15.4375 3.21875 26.21875 
Q 3.21875 33.640625 5.90625 39.90625 
Q 8.59375 46.1875 13.6875 49.609375 
Q 18.796875 53.03125 25.6875 53.03125 
Q 34.859375 53.03125 40.828125 45.609375 
L 40.828125 51.859375 
L 48.921875 51.859375 
L 48.921875 7.03125 
Q 48.921875 -5.078125 46.453125 -10.125 
Q 44 -15.1875 38.640625 -18.109375 
Q 33.296875 -21.046875 25.484375 -21.046875 
Q 16.21875 -21.046875 10.5 -16.875 
Q 4.78125 -12.703125 4.984375 -4.296875 
z
M 12.25 26.859375 
Q 12.25 16.65625 16.296875 11.96875 
Q 20.359375 7.28125 26.46875 7.28125 
Q 32.515625 7.28125 36.609375 11.9375 
Q 40.71875 16.609375 40.71875 26.5625 
Q 40.71875 36.078125 36.5 40.90625 
Q 32.28125 45.75 26.3125 45.75 
Q 20.453125 45.75 16.34375 40.984375 
Q 12.25 36.234375 12.25 26.859375 
z
" id="ArialMT-103"/>
      <path d="M 6.640625 61.46875 
L 6.640625 71.578125 
L 15.4375 71.578125 
L 15.4375 61.46875 
z
M 6.640625 0 
L 6.640625 51.859375 
L 15.4375 51.859375 
L 15.4375 0 
z
" id="ArialMT-105"/>
      <path d="M 25.78125 7.859375 
L 27.046875 0.09375 
Q 23.34375 -0.6875 20.40625 -0.6875 
Q 15.625 -0.6875 12.984375 0.828125 
Q 10.359375 2.34375 9.28125 4.8125 
Q 8.203125 7.28125 8.203125 15.1875 
L 8.203125 45.015625 
L 1.765625 45.015625 
L 1.765625 51.859375 
L 8.203125 51.859375 
L 8.203125 64.703125 
L 16.9375 69.96875 
L 16.9375 51.859375 
L 25.78125 51.859375 
L 25.78125 45.015625 
L 16.9375 45.015625 
L 16.9375 14.703125 
Q 16.9375 10.9375 17.40625 9.859375 
Q 17.875 8.796875 18.921875 8.15625 
Q 19.96875 7.515625 21.921875 7.515625 
Q 23.390625 7.515625 25.78125 7.859375 
z
" id="ArialMT-116"/>
      <path d="M 40.234375 0 
L 40.234375 6.546875 
Q 35.296875 -1.171875 25.734375 -1.171875 
Q 19.53125 -1.171875 14.328125 2.25 
Q 9.125 5.671875 6.265625 11.796875 
Q 3.421875 17.921875 3.421875 25.875 
Q 3.421875 33.640625 6 39.96875 
Q 8.59375 46.296875 13.765625 49.65625 
Q 18.953125 53.03125 25.34375 53.03125 
Q 30.03125 53.03125 33.6875 51.046875 
Q 37.359375 49.078125 39.65625 45.90625 
L 39.65625 71.578125 
L 48.390625 71.578125 
L 48.390625 0 
z
M 12.453125 25.875 
Q 12.453125 15.921875 16.640625 10.984375 
Q 20.84375 6.0625 26.5625 6.0625 
Q 32.328125 6.0625 36.34375 10.765625 
Q 40.375 15.484375 40.375 25.140625 
Q 40.375 35.796875 36.265625 40.765625 
Q 32.171875 45.75 26.171875 45.75 
Q 20.3125 45.75 16.375 40.96875 
Q 12.453125 36.1875 12.453125 25.875 
z
" id="ArialMT-100"/>
      <path d="M 16.15625 0 
L 0.296875 51.859375 
L 9.375 51.859375 
L 17.625 21.921875 
L 20.703125 10.796875 
Q 20.90625 11.625 23.390625 21.484375 
L 31.640625 51.859375 
L 40.671875 51.859375 
L 48.4375 21.78125 
L 51.03125 11.859375 
L 54 21.875 
L 62.890625 51.859375 
L 71.4375 51.859375 
L 55.21875 0 
L 46.09375 0 
L 37.84375 31.0625 
L 35.84375 39.890625 
L 25.34375 0 
z
" id="ArialMT-119"/>
      <path d="M 6.59375 0 
L 6.59375 71.578125 
L 15.375 71.578125 
L 15.375 45.90625 
Q 21.53125 53.03125 30.90625 53.03125 
Q 36.671875 53.03125 40.921875 50.75 
Q 45.171875 48.484375 47 44.484375 
Q 48.828125 40.484375 48.828125 32.859375 
L 48.828125 0 
L 40.046875 0 
L 40.046875 32.859375 
Q 40.046875 39.453125 37.1875 42.453125 
Q 34.328125 45.453125 29.109375 45.453125 
Q 25.203125 45.453125 21.75 43.421875 
Q 18.3125 41.40625 16.84375 37.9375 
Q 15.375 34.46875 15.375 28.375 
L 15.375 0 
z
" id="ArialMT-104"/>
      <path d="M 25.921875 0 
L 25.921875 63.140625 
L 2.34375 63.140625 
L 2.34375 71.578125 
L 59.078125 71.578125 
L 59.078125 63.140625 
L 35.40625 63.140625 
L 35.40625 0 
z
" id="ArialMT-84"/>
      <path d="M 3.328125 25.921875 
Q 3.328125 40.328125 11.328125 47.265625 
Q 18.015625 53.03125 27.640625 53.03125 
Q 38.328125 53.03125 45.109375 46.015625 
Q 51.90625 39.015625 51.90625 26.65625 
Q 51.90625 16.65625 48.90625 10.90625 
Q 45.90625 5.171875 40.15625 2 
Q 34.421875 -1.171875 27.640625 -1.171875 
Q 16.75 -1.171875 10.03125 5.8125 
Q 3.328125 12.796875 3.328125 25.921875 
z
M 12.359375 25.921875 
Q 12.359375 15.96875 16.703125 11.015625 
Q 21.046875 6.0625 27.640625 6.0625 
Q 34.1875 6.0625 38.53125 11.03125 
Q 42.875 16.015625 42.875 26.21875 
Q 42.875 35.84375 38.5 40.796875 
Q 34.125 45.75 27.640625 45.75 
Q 21.046875 45.75 16.703125 40.8125 
Q 12.359375 35.890625 12.359375 25.921875 
z
" id="ArialMT-111"/>
      <path d="M 6.59375 0 
L 6.59375 51.859375 
L 14.453125 51.859375 
L 14.453125 44.578125 
Q 16.890625 48.390625 20.9375 50.703125 
Q 25 53.03125 30.171875 53.03125 
Q 35.9375 53.03125 39.625 50.640625 
Q 43.3125 48.25 44.828125 43.953125 
Q 50.984375 53.03125 60.84375 53.03125 
Q 68.5625 53.03125 72.703125 48.75 
Q 76.859375 44.484375 76.859375 35.59375 
L 76.859375 0 
L 68.109375 0 
L 68.109375 32.671875 
Q 68.109375 37.9375 67.25 40.25 
Q 66.40625 42.578125 64.15625 43.984375 
Q 61.921875 45.40625 58.890625 45.40625 
Q 53.421875 45.40625 49.796875 41.765625 
Q 46.1875 38.140625 46.1875 30.125 
L 46.1875 0 
L 37.40625 0 
L 37.40625 33.6875 
Q 37.40625 39.546875 35.25 42.46875 
Q 33.109375 45.40625 28.21875 45.40625 
Q 24.515625 45.40625 21.359375 43.453125 
Q 18.21875 41.5 16.796875 37.734375 
Q 15.375 33.984375 15.375 26.90625 
L 15.375 0 
z
" id="ArialMT-109"/>
     </defs>
     <g transform="translate(213.434375 28.934688)scale(0.1 -0.1)">
      <use xlink:href="#ArialMT-114"/>
      <use x="33.300781" xlink:href="#ArialMT-101"/>
      <use x="88.916016" xlink:href="#ArialMT-103"/>
      <use x="144.53125" xlink:href="#ArialMT-105"/>
      <use x="166.748047" xlink:href="#ArialMT-115"/>
      <use x="216.748047" xlink:href="#ArialMT-116"/>
      <use x="244.53125" xlink:href="#ArialMT-101"/>
      <use x="300.146484" xlink:href="#ArialMT-114"/>
      <use x="333.447266" xlink:href="#ArialMT-101"/>
      <use x="389.0625" xlink:href="#ArialMT-100"/>
      <use x="444.677734" xlink:href="#ArialMT-32"/>
      <use x="472.460938" xlink:href="#ArialMT-119"/>
      <use x="544.677734" xlink:href="#ArialMT-105"/>
      <use x="566.894531" xlink:href="#ArialMT-116"/>
      <use x="594.677734" xlink:href="#ArialMT-104"/>
      <use x="650.292969" xlink:href="#ArialMT-32"/>
      <use x="678.076172" xlink:href="#ArialMT-116"/>
      <use x="705.859375" xlink:href="#ArialMT-100"/>
      <use x="761.474609" xlink:href="#ArialMT-84"/>
      <use x="811.433594" xlink:href="#ArialMT-111"/>
      <use x="867.048828" xlink:href="#ArialMT-109"/>
      <use x="950.349609" xlink:href="#ArialMT-97"/>
      <use x="1005.964844" xlink:href="#ArialMT-116"/>
      <use x="1033.748047" xlink:href="#ArialMT-111"/>
     </g>
    </g>
   </g>
  </g>
 </g>
 <defs>
  <clipPath id="p933eda4f2d">
   <rect height="172.28608" width="290" x="41.3625" y="43.485097"/>
  </clipPath>
 </defs>
</svg>
