<?xml version="1.0" encoding="utf-8" standalone="no"?>
<!DOCTYPE svg PUBLIC "-//W3C//DTD SVG 1.1//EN"
  "http://www.w3.org/Graphics/SVG/1.1/DTD/svg11.dtd">
<!-- Created with matplotlib (https://matplotlib.org/) -->
<svg height="252.500864pt" version="1.1" viewBox="0 0 338.445312 252.500864" width="338.445312pt" xmlns="http://www.w3.org/2000/svg" xmlns:xlink="http://www.w3.org/1999/xlink">
 <defs>
  <style type="text/css">
*{stroke-linecap:butt;stroke-linejoin:round;}
  </style>
 </defs>
 <g id="figure_1">
  <g id="patch_1">
   <path d="M 0 252.500864 
L 338.445312 252.500864 
L 338.445312 0 
L 0 0 
z
" style="fill:#ffffff;"/>
  </g>
  <g id="axes_1">
   <g id="patch_2">
    <path d="M 41.245313 215.893052 
L 331.245312 215.893052 
L 331.245312 43.606972 
L 41.245313 43.606972 
z
" style="fill:#ffffff;"/>
   </g>
   <g id="PolyCollection_1">
    <defs>
     <path d="M 62.631892 -99.176047 
L 62.631892 -93.623727 
L 111.971164 -84.484717 
L 161.310436 -78.226599 
L 210.649707 -72.407564 
L 259.988979 -65.863921 
L 309.328251 -63.126272 
L 309.328251 -69.199314 
L 309.328251 -69.199314 
L 259.988979 -72.374054 
L 210.649707 -77.208132 
L 161.310436 -85.025411 
L 111.971164 -92.32307 
L 62.631892 -99.176047 
z
" id="m2b8dcafbbb" style="stroke:#00cc96;stroke-opacity:0.2;"/>
    </defs>
    <g clip-path="url(#pd792137e79)">
     <use style="fill:#00cc96;fill-opacity:0.2;stroke:#00cc96;stroke-opacity:0.2;" x="0" xlink:href="#m2b8dcafbbb" y="252.500864"/>
    </g>
   </g>
   <g id="PolyCollection_2">
    <defs>
     <path d="M 62.631892 -116.562119 
L 62.631892 -108.979332 
L 111.971164 -93.763279 
L 161.310436 -87.699645 
L 210.649707 -82.382752 
L 259.988979 -79.339522 
L 309.328251 -71.260667 
L 309.328251 -85.397359 
L 309.328251 -85.397359 
L 259.988979 -88.442403 
L 210.649707 -94.616764 
L 161.310436 -99.903906 
L 111.971164 -103.019641 
L 62.631892 -116.562119 
z
" id="md7cc39a7b7" style="stroke:#ffa15a;stroke-opacity:0.2;"/>
    </defs>
    <g clip-path="url(#pd792137e79)">
     <use style="fill:#ffa15a;fill-opacity:0.2;stroke:#ffa15a;stroke-opacity:0.2;" x="0" xlink:href="#md7cc39a7b7" y="252.500864"/>
    </g>
   </g>
   <g id="matplotlib.axis_1">
    <g id="xtick_1">
     <g id="line2d_1">
      <defs>
       <path d="M 0 0 
L 0 3.5 
" id="mbb2e84a072" style="stroke:#000000;stroke-width:0.8;"/>
      </defs>
      <g>
       <use style="stroke:#000000;stroke-width:0.8;" x="62.631892" xlink:href="#mbb2e84a072" y="215.893052"/>
      </g>
     </g>
     <g id="text_1">
      <!-- 2 -->
      <defs>
       <path d="M 50.34375 8.453125 
L 50.34375 0 
L 3.03125 0 
Q 2.9375 3.171875 4.046875 6.109375 
Q 5.859375 10.9375 9.828125 15.625 
Q 13.8125 20.3125 21.34375 26.46875 
Q 33.015625 36.03125 37.109375 41.625 
Q 41.21875 47.21875 41.21875 52.203125 
Q 41.21875 57.421875 37.46875 61 
Q 33.734375 64.59375 27.734375 64.59375 
Q 21.390625 64.59375 17.578125 60.78125 
Q 13.765625 56.984375 13.71875 50.25 
L 4.6875 51.171875 
Q 5.609375 61.28125 11.65625 66.578125 
Q 17.71875 71.875 27.9375 71.875 
Q 38.234375 71.875 44.234375 66.15625 
Q 50.25 60.453125 50.25 52 
Q 50.25 47.703125 48.484375 43.546875 
Q 46.734375 39.40625 42.65625 34.8125 
Q 38.578125 30.21875 29.109375 22.21875 
Q 21.1875 15.578125 18.9375 13.203125 
Q 16.703125 10.84375 15.234375 8.453125 
z
" id="ArialMT-50"/>
      </defs>
      <g transform="translate(59.851423 230.050864)scale(0.1 -0.1)">
       <use xlink:href="#ArialMT-50"/>
      </g>
     </g>
    </g>
    <g id="xtick_2">
     <g id="line2d_2">
      <g>
       <use style="stroke:#000000;stroke-width:0.8;" x="111.971164" xlink:href="#mbb2e84a072" y="215.893052"/>
      </g>
     </g>
     <g id="text_2">
      <!-- 4 -->
      <defs>
       <path d="M 32.328125 0 
L 32.328125 17.140625 
L 1.265625 17.140625 
L 1.265625 25.203125 
L 33.9375 71.578125 
L 41.109375 71.578125 
L 41.109375 25.203125 
L 50.78125 25.203125 
L 50.78125 17.140625 
L 41.109375 17.140625 
L 41.109375 0 
z
M 32.328125 25.203125 
L 32.328125 57.46875 
L 9.90625 25.203125 
z
" id="ArialMT-52"/>
      </defs>
      <g transform="translate(109.190695 230.050864)scale(0.1 -0.1)">
       <use xlink:href="#ArialMT-52"/>
      </g>
     </g>
    </g>
    <g id="xtick_3">
     <g id="line2d_3">
      <g>
       <use style="stroke:#000000;stroke-width:0.8;" x="161.310436" xlink:href="#mbb2e84a072" y="215.893052"/>
      </g>
     </g>
     <g id="text_3">
      <!-- 6 -->
      <defs>
       <path d="M 49.75 54.046875 
L 41.015625 53.375 
Q 39.84375 58.546875 37.703125 60.890625 
Q 34.125 64.65625 28.90625 64.65625 
Q 24.703125 64.65625 21.53125 62.3125 
Q 17.390625 59.28125 14.984375 53.46875 
Q 12.59375 47.65625 12.5 36.921875 
Q 15.671875 41.75 20.265625 44.09375 
Q 24.859375 46.4375 29.890625 46.4375 
Q 38.671875 46.4375 44.84375 39.96875 
Q 51.03125 33.5 51.03125 23.25 
Q 51.03125 16.5 48.125 10.71875 
Q 45.21875 4.9375 40.140625 1.859375 
Q 35.0625 -1.21875 28.609375 -1.21875 
Q 17.625 -1.21875 10.6875 6.859375 
Q 3.765625 14.9375 3.765625 33.5 
Q 3.765625 54.25 11.421875 63.671875 
Q 18.109375 71.875 29.4375 71.875 
Q 37.890625 71.875 43.28125 67.140625 
Q 48.6875 62.40625 49.75 54.046875 
z
M 13.875 23.1875 
Q 13.875 18.65625 15.796875 14.5 
Q 17.71875 10.359375 21.1875 8.171875 
Q 24.65625 6 28.46875 6 
Q 34.03125 6 38.03125 10.484375 
Q 42.046875 14.984375 42.046875 22.703125 
Q 42.046875 30.125 38.078125 34.390625 
Q 34.125 38.671875 28.125 38.671875 
Q 22.171875 38.671875 18.015625 34.390625 
Q 13.875 30.125 13.875 23.1875 
z
" id="ArialMT-54"/>
      </defs>
      <g transform="translate(158.529967 230.050864)scale(0.1 -0.1)">
       <use xlink:href="#ArialMT-54"/>
      </g>
     </g>
    </g>
    <g id="xtick_4">
     <g id="line2d_4">
      <g>
       <use style="stroke:#000000;stroke-width:0.8;" x="210.649707" xlink:href="#mbb2e84a072" y="215.893052"/>
      </g>
     </g>
     <g id="text_4">
      <!-- 8 -->
      <defs>
       <path d="M 17.671875 38.8125 
Q 12.203125 40.828125 9.5625 44.53125 
Q 6.9375 48.25 6.9375 53.421875 
Q 6.9375 61.234375 12.546875 66.546875 
Q 18.171875 71.875 27.484375 71.875 
Q 36.859375 71.875 42.578125 66.421875 
Q 48.296875 60.984375 48.296875 53.171875 
Q 48.296875 48.1875 45.671875 44.5 
Q 43.0625 40.828125 37.75 38.8125 
Q 44.34375 36.671875 47.78125 31.875 
Q 51.21875 27.09375 51.21875 20.453125 
Q 51.21875 11.28125 44.71875 5.03125 
Q 38.234375 -1.21875 27.640625 -1.21875 
Q 17.046875 -1.21875 10.546875 5.046875 
Q 4.046875 11.328125 4.046875 20.703125 
Q 4.046875 27.6875 7.59375 32.390625 
Q 11.140625 37.109375 17.671875 38.8125 
z
M 15.921875 53.71875 
Q 15.921875 48.640625 19.1875 45.40625 
Q 22.46875 42.1875 27.6875 42.1875 
Q 32.765625 42.1875 36.015625 45.375 
Q 39.265625 48.578125 39.265625 53.21875 
Q 39.265625 58.0625 35.90625 61.359375 
Q 32.5625 64.65625 27.59375 64.65625 
Q 22.5625 64.65625 19.234375 61.421875 
Q 15.921875 58.203125 15.921875 53.71875 
z
M 13.09375 20.65625 
Q 13.09375 16.890625 14.875 13.375 
Q 16.65625 9.859375 20.171875 7.921875 
Q 23.6875 6 27.734375 6 
Q 34.03125 6 38.125 10.046875 
Q 42.234375 14.109375 42.234375 20.359375 
Q 42.234375 26.703125 38.015625 30.859375 
Q 33.796875 35.015625 27.4375 35.015625 
Q 21.234375 35.015625 17.15625 30.90625 
Q 13.09375 26.8125 13.09375 20.65625 
z
" id="ArialMT-56"/>
      </defs>
      <g transform="translate(207.869239 230.050864)scale(0.1 -0.1)">
       <use xlink:href="#ArialMT-56"/>
      </g>
     </g>
    </g>
    <g id="xtick_5">
     <g id="line2d_5">
      <g>
       <use style="stroke:#000000;stroke-width:0.8;" x="259.988979" xlink:href="#mbb2e84a072" y="215.893052"/>
      </g>
     </g>
     <g id="text_5">
      <!-- 10 -->
      <defs>
       <path d="M 37.25 0 
L 28.46875 0 
L 28.46875 56 
Q 25.296875 52.984375 20.140625 49.953125 
Q 14.984375 46.921875 10.890625 45.40625 
L 10.890625 53.90625 
Q 18.265625 57.375 23.78125 62.296875 
Q 29.296875 67.234375 31.59375 71.875 
L 37.25 71.875 
z
" id="ArialMT-49"/>
       <path d="M 4.15625 35.296875 
Q 4.15625 48 6.765625 55.734375 
Q 9.375 63.484375 14.515625 67.671875 
Q 19.671875 71.875 27.484375 71.875 
Q 33.25 71.875 37.59375 69.546875 
Q 41.9375 67.234375 44.765625 62.859375 
Q 47.609375 58.5 49.21875 52.21875 
Q 50.828125 45.953125 50.828125 35.296875 
Q 50.828125 22.703125 48.234375 14.96875 
Q 45.65625 7.234375 40.5 3 
Q 35.359375 -1.21875 27.484375 -1.21875 
Q 17.140625 -1.21875 11.234375 6.203125 
Q 4.15625 15.140625 4.15625 35.296875 
z
M 13.1875 35.296875 
Q 13.1875 17.671875 17.3125 11.828125 
Q 21.4375 6 27.484375 6 
Q 33.546875 6 37.671875 11.859375 
Q 41.796875 17.71875 41.796875 35.296875 
Q 41.796875 52.984375 37.671875 58.78125 
Q 33.546875 64.59375 27.390625 64.59375 
Q 21.34375 64.59375 17.71875 59.46875 
Q 13.1875 52.9375 13.1875 35.296875 
z
" id="ArialMT-48"/>
      </defs>
      <g transform="translate(254.428041 230.050864)scale(0.1 -0.1)">
       <use xlink:href="#ArialMT-49"/>
       <use x="55.615234" xlink:href="#ArialMT-48"/>
      </g>
     </g>
    </g>
    <g id="xtick_6">
     <g id="line2d_6">
      <g>
       <use style="stroke:#000000;stroke-width:0.8;" x="309.328251" xlink:href="#mbb2e84a072" y="215.893052"/>
      </g>
     </g>
     <g id="text_6">
      <!-- 12 -->
      <g transform="translate(303.767313 230.050864)scale(0.1 -0.1)">
       <use xlink:href="#ArialMT-49"/>
       <use x="55.615234" xlink:href="#ArialMT-50"/>
      </g>
     </g>
    </g>
    <g id="text_7">
     <!-- Days apart -->
     <defs>
      <path d="M 4.4375 0 
L 19.390625 71.578125 
L 40.96875 71.578125 
Q 48.734375 71.578125 52.828125 70.453125 
Q 58.6875 68.953125 62.84375 65.0625 
Q 67 61.1875 69.09375 55.375 
Q 71.1875 49.5625 71.1875 42.328125 
Q 71.1875 33.6875 68.578125 26.578125 
Q 65.96875 19.484375 61.734375 14.078125 
Q 57.515625 8.6875 52.90625 5.640625 
Q 48.296875 2.59375 42 1.125 
Q 37.203125 0 30.21875 0 
z
M 15.71875 8.109375 
L 27.046875 8.109375 
Q 34.71875 8.109375 40.671875 9.515625 
Q 44.390625 10.40625 47.015625 12.109375 
Q 50.484375 14.3125 53.328125 17.921875 
Q 57.03125 22.703125 59.25 28.828125 
Q 61.46875 34.96875 61.46875 42.78125 
Q 61.46875 51.46875 58.4375 56.125 
Q 55.421875 60.796875 50.734375 62.3125 
Q 47.265625 63.421875 39.9375 63.421875 
L 27.296875 63.421875 
z
" id="Arial-ItalicMT-68"/>
      <path d="M 38.28125 6.453125 
Q 33.6875 2.484375 29.4375 0.65625 
Q 25.203125 -1.171875 20.359375 -1.171875 
Q 13.1875 -1.171875 8.78125 3.046875 
Q 4.390625 7.28125 4.390625 13.875 
Q 4.390625 18.21875 6.359375 21.5625 
Q 8.34375 24.90625 11.609375 26.921875 
Q 14.890625 28.953125 19.625 29.828125 
Q 22.609375 30.421875 30.9375 30.765625 
Q 39.265625 31.109375 42.875 32.515625 
Q 43.890625 36.140625 43.890625 38.53125 
Q 43.890625 41.609375 41.65625 43.359375 
Q 38.578125 45.796875 32.671875 45.796875 
Q 27.09375 45.796875 23.546875 43.328125 
Q 20.015625 40.875 18.40625 36.328125 
L 9.46875 37.109375 
Q 12.203125 44.828125 18.140625 48.921875 
Q 24.078125 53.03125 33.109375 53.03125 
Q 42.71875 53.03125 48.34375 48.4375 
Q 52.640625 45.015625 52.640625 39.546875 
Q 52.640625 35.40625 51.421875 29.9375 
L 48.53125 17.046875 
Q 47.171875 10.890625 47.171875 7.03125 
Q 47.171875 4.59375 48.25 0 
L 39.3125 0 
Q 38.578125 2.546875 38.28125 6.453125 
z
M 41.546875 26.265625 
Q 39.703125 25.53125 37.578125 25.140625 
Q 35.453125 24.75 30.46875 24.3125 
Q 22.75 23.640625 19.578125 22.578125 
Q 16.40625 21.53125 14.796875 19.234375 
Q 13.1875 16.9375 13.1875 14.15625 
Q 13.1875 10.453125 15.75 8.0625 
Q 18.3125 5.671875 23.046875 5.671875 
Q 27.4375 5.671875 31.484375 7.984375 
Q 35.546875 10.296875 37.890625 14.453125 
Q 40.234375 18.609375 41.546875 26.265625 
z
" id="Arial-ItalicMT-97"/>
      <path d="M 0 -20.015625 
L 0.53125 -11.71875 
Q 3.265625 -12.5 5.859375 -12.5 
Q 8.546875 -12.5 10.203125 -11.28125 
Q 12.359375 -9.671875 14.890625 -5.21875 
L 17.71875 -0.140625 
L 9.078125 51.859375 
L 17.78125 51.859375 
L 21.6875 25.640625 
Q 22.859375 17.875 23.6875 10.109375 
L 46.875 51.859375 
L 56.109375 51.859375 
L 23.046875 -6.890625 
Q 18.265625 -15.484375 14.546875 -18.265625 
Q 10.84375 -21.046875 6 -21.046875 
Q 2.9375 -21.046875 0 -20.015625 
z
" id="Arial-ItalicMT-121"/>
      <path d="M 4.15625 17.71875 
L 12.984375 18.265625 
Q 12.984375 14.453125 14.15625 11.765625 
Q 15.328125 9.078125 18.46875 7.375 
Q 21.625 5.671875 25.828125 5.671875 
Q 31.6875 5.671875 34.609375 8.015625 
Q 37.546875 10.359375 37.546875 13.53125 
Q 37.546875 15.828125 35.796875 17.875 
Q 33.984375 19.921875 26.96875 22.921875 
Q 19.96875 25.921875 18.015625 27.15625 
Q 14.75 29.15625 13.078125 31.859375 
Q 11.421875 34.578125 11.421875 38.09375 
Q 11.421875 44.234375 16.296875 48.625 
Q 21.1875 53.03125 29.984375 53.03125 
Q 39.75 53.03125 44.84375 48.515625 
Q 49.953125 44 50.140625 36.625 
L 41.5 36.03125 
Q 41.3125 40.71875 38.1875 43.453125 
Q 35.0625 46.1875 29.34375 46.1875 
Q 24.75 46.1875 22.203125 44.09375 
Q 19.671875 42 19.671875 39.546875 
Q 19.671875 37.109375 21.875 35.25 
Q 23.34375 33.984375 29.4375 31.34375 
Q 39.59375 26.953125 42.234375 24.421875 
Q 46.4375 20.359375 46.4375 14.546875 
Q 46.4375 10.6875 44.0625 6.96875 
Q 41.703125 3.265625 36.84375 1.046875 
Q 31.984375 -1.171875 25.390625 -1.171875 
Q 16.40625 -1.171875 10.109375 3.265625 
Q 3.8125 7.71875 4.15625 17.71875 
z
" id="Arial-ItalicMT-115"/>
      <path id="Arial-ItalicMT-32"/>
      <path d="M -1.03125 -19.875 
L 13.96875 51.859375 
L 22.125 51.859375 
L 20.609375 44.625 
Q 25.140625 49.359375 28.734375 51.1875 
Q 32.328125 53.03125 36.328125 53.03125 
Q 43.75 53.03125 48.625 47.625 
Q 53.515625 42.234375 53.515625 32.171875 
Q 53.515625 24.078125 50.828125 17.40625 
Q 48.140625 10.75 44.234375 6.6875 
Q 40.328125 2.640625 36.328125 0.734375 
Q 32.328125 -1.171875 28.125 -1.171875 
Q 18.796875 -1.171875 13.671875 8.296875 
L 7.8125 -19.875 
z
M 16.453125 21.1875 
Q 16.453125 15.375 17.28125 13.140625 
Q 18.5 9.96875 21.28125 8.015625 
Q 24.078125 6.0625 27.734375 6.0625 
Q 35.359375 6.0625 40.046875 14.625 
Q 44.734375 23.1875 44.734375 32.125 
Q 44.734375 38.71875 41.578125 42.3125 
Q 38.421875 45.90625 33.734375 45.90625 
Q 30.375 45.90625 27.484375 44.109375 
Q 24.609375 42.328125 22.140625 38.78125 
Q 19.671875 35.25 18.0625 30.125 
Q 16.453125 25 16.453125 21.1875 
z
" id="Arial-ItalicMT-112"/>
      <path d="M 3.328125 0 
L 14.15625 51.859375 
L 21.96875 51.859375 
L 19.78125 41.265625 
Q 23.78125 47.265625 27.609375 50.140625 
Q 31.453125 53.03125 35.453125 53.03125 
Q 38.09375 53.03125 41.9375 51.125 
L 38.328125 42.921875 
Q 36.03125 44.578125 33.296875 44.578125 
Q 28.65625 44.578125 23.765625 39.40625 
Q 18.890625 34.234375 16.109375 20.796875 
L 11.71875 0 
z
" id="Arial-ItalicMT-114"/>
      <path d="M 23.96875 7.171875 
L 22.515625 -0.046875 
Q 19.34375 -0.875 16.359375 -0.875 
Q 11.078125 -0.875 7.953125 1.703125 
Q 5.609375 3.65625 5.609375 7.03125 
Q 5.609375 8.734375 6.890625 14.890625 
L 13.1875 45.015625 
L 6.203125 45.015625 
L 7.625 51.859375 
L 14.59375 51.859375 
L 17.28125 64.59375 
L 27.390625 70.703125 
L 23.4375 51.859375 
L 32.125 51.859375 
L 30.671875 45.015625 
L 22.015625 45.015625 
L 16.015625 16.359375 
Q 14.890625 10.890625 14.890625 9.8125 
Q 14.890625 8.25 15.796875 7.421875 
Q 16.703125 6.59375 18.75 6.59375 
Q 21.6875 6.59375 23.96875 7.171875 
z
" id="Arial-ItalicMT-116"/>
     </defs>
     <g transform="translate(162.069531 243.196177)scale(0.1 -0.1)">
      <use xlink:href="#Arial-ItalicMT-68"/>
      <use x="72.216797" xlink:href="#Arial-ItalicMT-97"/>
      <use x="127.832031" xlink:href="#Arial-ItalicMT-121"/>
      <use x="177.832031" xlink:href="#Arial-ItalicMT-115"/>
      <use x="227.832031" xlink:href="#Arial-ItalicMT-32"/>
      <use x="255.615234" xlink:href="#Arial-ItalicMT-97"/>
      <use x="311.230469" xlink:href="#Arial-ItalicMT-112"/>
      <use x="366.845703" xlink:href="#Arial-ItalicMT-97"/>
      <use x="422.460938" xlink:href="#Arial-ItalicMT-114"/>
      <use x="455.761719" xlink:href="#Arial-ItalicMT-116"/>
     </g>
    </g>
   </g>
   <g id="matplotlib.axis_2">
    <g id="ytick_1">
     <g id="line2d_7">
      <defs>
       <path d="M 0 0 
L -3.5 0 
" id="mbbd9599e46" style="stroke:#000000;stroke-width:0.8;"/>
      </defs>
      <g>
       <use style="stroke:#000000;stroke-width:0.8;" x="41.245313" xlink:href="#mbbd9599e46" y="215.893052"/>
      </g>
     </g>
     <g id="text_8">
      <!-- 0.0 -->
      <defs>
       <path d="M 9.078125 0 
L 9.078125 10.015625 
L 19.09375 10.015625 
L 19.09375 0 
z
" id="ArialMT-46"/>
      </defs>
      <g transform="translate(20.345313 219.471958)scale(0.1 -0.1)">
       <use xlink:href="#ArialMT-48"/>
       <use x="55.615234" xlink:href="#ArialMT-46"/>
       <use x="83.398438" xlink:href="#ArialMT-48"/>
      </g>
     </g>
    </g>
    <g id="ytick_2">
     <g id="line2d_8">
      <g>
       <use style="stroke:#000000;stroke-width:0.8;" x="41.245313" xlink:href="#mbbd9599e46" y="183.076655"/>
      </g>
     </g>
     <g id="text_9">
      <!-- 0.2 -->
      <g transform="translate(20.345313 186.655562)scale(0.1 -0.1)">
       <use xlink:href="#ArialMT-48"/>
       <use x="55.615234" xlink:href="#ArialMT-46"/>
       <use x="83.398438" xlink:href="#ArialMT-50"/>
      </g>
     </g>
    </g>
    <g id="ytick_3">
     <g id="line2d_9">
      <g>
       <use style="stroke:#000000;stroke-width:0.8;" x="41.245313" xlink:href="#mbbd9599e46" y="150.260259"/>
      </g>
     </g>
     <g id="text_10">
      <!-- 0.4 -->
      <g transform="translate(20.345313 153.839165)scale(0.1 -0.1)">
       <use xlink:href="#ArialMT-48"/>
       <use x="55.615234" xlink:href="#ArialMT-46"/>
       <use x="83.398438" xlink:href="#ArialMT-52"/>
      </g>
     </g>
    </g>
    <g id="ytick_4">
     <g id="line2d_10">
      <g>
       <use style="stroke:#000000;stroke-width:0.8;" x="41.245313" xlink:href="#mbbd9599e46" y="117.443863"/>
      </g>
     </g>
     <g id="text_11">
      <!-- 0.6 -->
      <g transform="translate(20.345313 121.022769)scale(0.1 -0.1)">
       <use xlink:href="#ArialMT-48"/>
       <use x="55.615234" xlink:href="#ArialMT-46"/>
       <use x="83.398438" xlink:href="#ArialMT-54"/>
      </g>
     </g>
    </g>
    <g id="ytick_5">
     <g id="line2d_11">
      <g>
       <use style="stroke:#000000;stroke-width:0.8;" x="41.245313" xlink:href="#mbbd9599e46" y="84.627467"/>
      </g>
     </g>
     <g id="text_12">
      <!-- 0.8 -->
      <g transform="translate(20.345313 88.206373)scale(0.1 -0.1)">
       <use xlink:href="#ArialMT-48"/>
       <use x="55.615234" xlink:href="#ArialMT-46"/>
       <use x="83.398438" xlink:href="#ArialMT-56"/>
      </g>
     </g>
    </g>
    <g id="ytick_6">
     <g id="line2d_12">
      <g>
       <use style="stroke:#000000;stroke-width:0.8;" x="41.245313" xlink:href="#mbbd9599e46" y="51.811071"/>
      </g>
     </g>
     <g id="text_13">
      <!-- 1.0 -->
      <g transform="translate(20.345313 55.389977)scale(0.1 -0.1)">
       <use xlink:href="#ArialMT-49"/>
       <use x="55.615234" xlink:href="#ArialMT-46"/>
       <use x="83.398438" xlink:href="#ArialMT-48"/>
      </g>
     </g>
    </g>
    <g id="text_14">
     <!-- PV correlation -->
     <defs>
      <path d="M 4.296875 0 
L 19.28125 71.578125 
L 49.171875 71.578125 
Q 56.9375 71.578125 60.8125 69.796875 
Q 64.703125 68.015625 67.234375 63.6875 
Q 69.78125 59.375 69.78125 54 
Q 69.78125 49.5625 67.96875 44.96875 
Q 66.15625 40.375 63.390625 37.390625 
Q 60.640625 34.421875 57.8125 32.90625 
Q 54.984375 31.390625 51.765625 30.671875 
Q 44.875 29.046875 37.84375 29.046875 
L 19.921875 29.046875 
L 13.875 0 
z
M 21.625 37.15625 
L 37.40625 37.15625 
Q 46.578125 37.15625 50.875 39.125 
Q 55.171875 41.109375 57.765625 45.15625 
Q 60.359375 49.21875 60.359375 53.765625 
Q 60.359375 57.28125 58.984375 59.5 
Q 57.625 61.71875 55.125 62.765625 
Q 52.640625 63.8125 45.5625 63.8125 
L 27.203125 63.8125 
z
" id="Arial-ItalicMT-80"/>
      <path d="M 26.171875 0 
L 12.40625 71.578125 
L 21.625 71.578125 
L 29.9375 28.90625 
Q 32.234375 17.28125 32.90625 10.15625 
Q 37.40625 19.34375 40.28125 24.703125 
L 65.828125 71.578125 
L 75.6875 71.578125 
L 36.421875 0 
z
" id="Arial-ItalicMT-86"/>
      <path d="M 39.109375 18.890625 
L 47.953125 17.96875 
Q 44.625 8.25 38.5 3.53125 
Q 32.375 -1.171875 24.5625 -1.171875 
Q 16.109375 -1.171875 10.859375 4.296875 
Q 5.609375 9.765625 5.609375 19.578125 
Q 5.609375 28.078125 8.984375 36.28125 
Q 12.359375 44.484375 18.625 48.75 
Q 24.90625 53.03125 32.953125 53.03125 
Q 41.3125 53.03125 46.1875 48.3125 
Q 51.078125 43.609375 51.078125 35.84375 
L 42.390625 35.25 
Q 42.328125 40.1875 39.515625 42.96875 
Q 36.71875 45.75 32.125 45.75 
Q 26.8125 45.75 22.90625 42.375 
Q 19 39.015625 16.765625 32.15625 
Q 14.546875 25.296875 14.546875 18.953125 
Q 14.546875 12.3125 17.46875 8.984375 
Q 20.40625 5.671875 24.703125 5.671875 
Q 29 5.671875 32.921875 8.9375 
Q 36.859375 12.203125 39.109375 18.890625 
z
" id="Arial-ItalicMT-99"/>
      <path d="M 4.890625 19.671875 
Q 4.890625 34.859375 13.8125 44.828125 
Q 21.1875 53.03125 33.15625 53.03125 
Q 42.53125 53.03125 48.265625 47.171875 
Q 54 41.3125 54 31.34375 
Q 54 22.40625 50.390625 14.71875 
Q 46.78125 7.03125 40.109375 2.921875 
Q 33.453125 -1.171875 26.078125 -1.171875 
Q 20.015625 -1.171875 15.0625 1.40625 
Q 10.109375 4 7.5 8.734375 
Q 4.890625 13.484375 4.890625 19.671875 
z
M 13.71875 20.5625 
Q 13.71875 13.234375 17.234375 9.453125 
Q 20.75 5.671875 26.171875 5.671875 
Q 29 5.671875 31.78125 6.8125 
Q 34.578125 7.953125 36.96875 10.296875 
Q 39.359375 12.640625 41.03125 15.640625 
Q 42.71875 18.65625 43.75 22.125 
Q 45.265625 26.953125 45.265625 31.390625 
Q 45.265625 38.421875 41.71875 42.296875 
Q 38.1875 46.1875 32.8125 46.1875 
Q 28.65625 46.1875 25.234375 44.203125 
Q 21.828125 42.234375 19.0625 38.421875 
Q 16.3125 34.625 15.015625 29.5625 
Q 13.71875 24.515625 13.71875 20.5625 
z
" id="Arial-ItalicMT-111"/>
      <path d="M 41.40625 17.625 
L 50 16.75 
Q 48.140625 10.359375 41.46875 4.59375 
Q 34.8125 -1.171875 25.59375 -1.171875 
Q 19.828125 -1.171875 15.015625 1.484375 
Q 10.203125 4.15625 7.6875 9.234375 
Q 5.171875 14.3125 5.171875 20.796875 
Q 5.171875 29.296875 9.09375 37.28125 
Q 13.03125 45.265625 19.28125 49.140625 
Q 25.53125 53.03125 32.8125 53.03125 
Q 42.09375 53.03125 47.625 47.265625 
Q 53.171875 41.5 53.171875 31.546875 
Q 53.171875 27.734375 52.484375 23.734375 
L 14.3125 23.734375 
Q 14.109375 22.21875 14.109375 21 
Q 14.109375 13.71875 17.453125 9.890625 
Q 20.796875 6.0625 25.640625 6.0625 
Q 30.171875 6.0625 34.5625 9.03125 
Q 38.96875 12.015625 41.40625 17.625 
z
M 15.71875 30.46875 
L 44.828125 30.46875 
Q 44.875 31.84375 44.875 32.421875 
Q 44.875 39.0625 41.546875 42.59375 
Q 38.234375 46.140625 33.015625 46.140625 
Q 27.34375 46.140625 22.671875 42.234375 
Q 18.015625 38.328125 15.71875 30.46875 
z
" id="Arial-ItalicMT-101"/>
      <path d="M 2.640625 0 
L 17.578125 71.578125 
L 26.421875 71.578125 
L 11.46875 0 
z
" id="Arial-ItalicMT-108"/>
      <path d="M 15.875 61.578125 
L 17.96875 71.578125 
L 26.765625 71.578125 
L 24.65625 61.578125 
z
M 2.984375 0 
L 13.8125 51.859375 
L 22.65625 51.859375 
L 11.8125 0 
z
" id="Arial-ItalicMT-105"/>
      <path d="M 3.328125 0 
L 14.15625 51.859375 
L 22.171875 51.859375 
L 20.265625 42.828125 
Q 25.484375 48.140625 30.03125 50.578125 
Q 34.578125 53.03125 39.3125 53.03125 
Q 45.609375 53.03125 49.1875 49.609375 
Q 52.78125 46.1875 52.78125 40.484375 
Q 52.78125 37.59375 51.515625 31.390625 
L 44.921875 0 
L 36.078125 0 
L 42.96875 32.859375 
Q 44 37.640625 44 39.9375 
Q 44 42.53125 42.21875 44.140625 
Q 40.4375 45.75 37.0625 45.75 
Q 30.28125 45.75 24.96875 40.859375 
Q 19.671875 35.984375 17.1875 24.125 
L 12.15625 0 
z
" id="Arial-ItalicMT-110"/>
     </defs>
     <g transform="translate(14.357813 161.152355)rotate(-90)scale(0.1 -0.1)">
      <use xlink:href="#Arial-ItalicMT-80"/>
      <use x="66.699219" xlink:href="#Arial-ItalicMT-86"/>
      <use x="133.398438" xlink:href="#Arial-ItalicMT-32"/>
      <use x="161.181641" xlink:href="#Arial-ItalicMT-99"/>
      <use x="211.181641" xlink:href="#Arial-ItalicMT-111"/>
      <use x="266.796875" xlink:href="#Arial-ItalicMT-114"/>
      <use x="300.097656" xlink:href="#Arial-ItalicMT-114"/>
      <use x="333.398438" xlink:href="#Arial-ItalicMT-101"/>
      <use x="389.013672" xlink:href="#Arial-ItalicMT-108"/>
      <use x="411.230469" xlink:href="#Arial-ItalicMT-97"/>
      <use x="466.845703" xlink:href="#Arial-ItalicMT-116"/>
      <use x="494.628906" xlink:href="#Arial-ItalicMT-105"/>
      <use x="516.845703" xlink:href="#Arial-ItalicMT-111"/>
      <use x="572.460938" xlink:href="#Arial-ItalicMT-110"/>
     </g>
    </g>
   </g>
   <g id="line2d_13"/>
   <g id="line2d_14"/>
   <g id="patch_3">
    <path d="M 41.245313 215.893052 
L 41.245313 43.606972 
" style="fill:none;stroke:#000000;stroke-linecap:square;stroke-linejoin:miter;stroke-width:0.8;"/>
   </g>
   <g id="patch_4">
    <path d="M 331.245312 215.893052 
L 331.245312 43.606972 
" style="fill:none;stroke:#000000;stroke-linecap:square;stroke-linejoin:miter;stroke-width:0.8;"/>
   </g>
   <g id="patch_5">
    <path d="M 41.245313 215.893052 
L 331.245312 215.893052 
" style="fill:none;stroke:#000000;stroke-linecap:square;stroke-linejoin:miter;stroke-width:0.8;"/>
   </g>
   <g id="patch_6">
    <path d="M 41.245313 43.606972 
L 331.245312 43.606972 
" style="fill:none;stroke:#000000;stroke-linecap:square;stroke-linejoin:miter;stroke-width:0.8;"/>
   </g>
   <g id="PathCollection_1">
    <defs>
     <path d="M 0 1.75 
C 0.464105 1.75 0.909265 1.565609 1.237437 1.237437 
C 1.565609 0.909265 1.75 0.464105 1.75 0 
C 1.75 -0.464105 1.565609 -0.909265 1.237437 -1.237437 
C 0.909265 -1.565609 0.464105 -1.75 0 -1.75 
C -0.464105 -1.75 -0.909265 -1.565609 -1.237437 -1.237437 
C -1.565609 -0.909265 -1.75 -0.464105 -1.75 0 
C -1.75 0.464105 -1.565609 0.909265 -1.237437 1.237437 
C -0.909265 1.565609 -0.464105 1.75 0 1.75 
z
" id="C0_0_07ec95119d"/>
    </defs>
    <g clip-path="url(#pd792137e79)">
     <use style="fill:#00cc96;stroke:#3d3d3d;stroke-width:0.8;" x="62.631892" xlink:href="#C0_0_07ec95119d" y="151.813535"/>
    </g>
    <g clip-path="url(#pd792137e79)">
     <use style="fill:#00cc96;stroke:#3d3d3d;stroke-width:0.8;" x="62.631892" xlink:href="#C0_0_07ec95119d" y="142.275572"/>
    </g>
    <g clip-path="url(#pd792137e79)">
     <use style="fill:#00cc96;stroke:#3d3d3d;stroke-width:0.8;" x="62.631892" xlink:href="#C0_0_07ec95119d" y="161.370486"/>
    </g>
    <g clip-path="url(#pd792137e79)">
     <use style="fill:#00cc96;stroke:#3d3d3d;stroke-width:0.8;" x="58.134542" xlink:href="#C0_0_07ec95119d" y="165.587208"/>
    </g>
    <g clip-path="url(#pd792137e79)">
     <use style="fill:#00cc96;stroke:#3d3d3d;stroke-width:0.8;" x="66.433363" xlink:href="#C0_0_07ec95119d" y="163.64706"/>
    </g>
    <g clip-path="url(#pd792137e79)">
     <use style="fill:#00cc96;stroke:#3d3d3d;stroke-width:0.8;" x="62.631892" xlink:href="#C0_0_07ec95119d" y="165.967049"/>
    </g>
    <g clip-path="url(#pd792137e79)">
     <use style="fill:#00cc96;stroke:#3d3d3d;stroke-width:0.8;" x="62.984505" xlink:href="#C0_0_07ec95119d" y="147.37849"/>
    </g>
    <g clip-path="url(#pd792137e79)">
     <use style="fill:#00cc96;stroke:#3d3d3d;stroke-width:0.8;" x="66.952154" xlink:href="#C0_0_07ec95119d" y="145.32634"/>
    </g>
    <g clip-path="url(#pd792137e79)">
     <use style="fill:#00cc96;stroke:#3d3d3d;stroke-width:0.8;" x="58.22921" xlink:href="#C0_0_07ec95119d" y="160.417336"/>
    </g>
    <g clip-path="url(#pd792137e79)">
     <use style="fill:#00cc96;stroke:#3d3d3d;stroke-width:0.8;" x="61.425997" xlink:href="#C0_0_07ec95119d" y="157.226693"/>
    </g>
    <g clip-path="url(#pd792137e79)">
     <use style="fill:#ffa15a;stroke:#3d3d3d;stroke-width:0.8;" x="66.392714" xlink:href="#C0_0_07ec95119d" y="139.896251"/>
    </g>
    <g clip-path="url(#pd792137e79)">
     <use style="fill:#ffa15a;stroke:#3d3d3d;stroke-width:0.8;" x="58.425674" xlink:href="#C0_0_07ec95119d" y="140.712694"/>
    </g>
    <g clip-path="url(#pd792137e79)">
     <use style="fill:#ffa15a;stroke:#3d3d3d;stroke-width:0.8;" x="62.631892" xlink:href="#C0_0_07ec95119d" y="137.235337"/>
    </g>
    <g clip-path="url(#pd792137e79)">
     <use style="fill:#ffa15a;stroke:#3d3d3d;stroke-width:0.8;" x="70.901506" xlink:href="#C0_0_07ec95119d" y="139.670835"/>
    </g>
    <g clip-path="url(#pd792137e79)">
     <use style="fill:#ffa15a;stroke:#3d3d3d;stroke-width:0.8;" x="58.954944" xlink:href="#C0_0_07ec95119d" y="149.318138"/>
    </g>
    <g clip-path="url(#pd792137e79)">
     <use style="fill:#ffa15a;stroke:#3d3d3d;stroke-width:0.8;" x="64.870571" xlink:href="#C0_0_07ec95119d" y="133.501136"/>
    </g>
    <g clip-path="url(#pd792137e79)">
     <use style="fill:#ffa15a;stroke:#3d3d3d;stroke-width:0.8;" x="70.946219" xlink:href="#C0_0_07ec95119d" y="163.514546"/>
    </g>
    <g clip-path="url(#pd792137e79)">
     <use style="fill:#ffa15a;stroke:#3d3d3d;stroke-width:0.8;" x="62.631892" xlink:href="#C0_0_07ec95119d" y="127.090882"/>
    </g>
    <g clip-path="url(#pd792137e79)">
     <use style="fill:#ffa15a;stroke:#3d3d3d;stroke-width:0.8;" x="58.14274" xlink:href="#C0_0_07ec95119d" y="126.631427"/>
    </g>
   </g>
   <g id="PathCollection_2">
    <defs>
     <path d="M 0 1.75 
C 0.464105 1.75 0.909265 1.565609 1.237437 1.237437 
C 1.565609 0.909265 1.75 0.464105 1.75 0 
C 1.75 -0.464105 1.565609 -0.909265 1.237437 -1.237437 
C 0.909265 -1.565609 0.464105 -1.75 0 -1.75 
C -0.464105 -1.75 -0.909265 -1.565609 -1.237437 -1.237437 
C -1.565609 -0.909265 -1.75 -0.464105 -1.75 0 
C -1.75 0.464105 -1.565609 0.909265 -1.237437 1.237437 
C -0.909265 1.565609 -0.464105 1.75 0 1.75 
z
" id="C1_0_116b09d1ed"/>
    </defs>
    <g clip-path="url(#pd792137e79)">
     <use style="fill:#00cc96;stroke:#3d3d3d;stroke-width:0.8;" x="104.56794" xlink:href="#C1_0_116b09d1ed" y="159.40966"/>
    </g>
    <g clip-path="url(#pd792137e79)">
     <use style="fill:#00cc96;stroke:#3d3d3d;stroke-width:0.8;" x="114.404047" xlink:href="#C1_0_116b09d1ed" y="143.107734"/>
    </g>
    <g clip-path="url(#pd792137e79)">
     <use style="fill:#00cc96;stroke:#3d3d3d;stroke-width:0.8;" x="114.561555" xlink:href="#C1_0_116b09d1ed" y="171.862089"/>
    </g>
    <g clip-path="url(#pd792137e79)">
     <use style="fill:#00cc96;stroke:#3d3d3d;stroke-width:0.8;" x="117.314401" xlink:href="#C1_0_116b09d1ed" y="168.453808"/>
    </g>
    <g clip-path="url(#pd792137e79)">
     <use style="fill:#00cc96;stroke:#3d3d3d;stroke-width:0.8;" x="111.971164" xlink:href="#C1_0_116b09d1ed" y="181.51282"/>
    </g>
    <g clip-path="url(#pd792137e79)">
     <use style="fill:#00cc96;stroke:#3d3d3d;stroke-width:0.8;" x="111.971164" xlink:href="#C1_0_116b09d1ed" y="175.38398"/>
    </g>
    <g clip-path="url(#pd792137e79)">
     <use style="fill:#00cc96;stroke:#3d3d3d;stroke-width:0.8;" x="111.971164" xlink:href="#C1_0_116b09d1ed" y="153.353788"/>
    </g>
    <g clip-path="url(#pd792137e79)">
     <use style="fill:#00cc96;stroke:#3d3d3d;stroke-width:0.8;" x="112.970502" xlink:href="#C1_0_116b09d1ed" y="148.84328"/>
    </g>
    <g clip-path="url(#pd792137e79)">
     <use style="fill:#00cc96;stroke:#3d3d3d;stroke-width:0.8;" x="110.204116" xlink:href="#C1_0_116b09d1ed" y="170.736041"/>
    </g>
    <g clip-path="url(#pd792137e79)">
     <use style="fill:#00cc96;stroke:#3d3d3d;stroke-width:0.8;" x="106.478856" xlink:href="#C1_0_116b09d1ed" y="168.306506"/>
    </g>
    <g clip-path="url(#pd792137e79)">
     <use style="fill:#ffa15a;stroke:#3d3d3d;stroke-width:0.8;" x="111.971164" xlink:href="#C1_0_116b09d1ed" y="163.380415"/>
    </g>
    <g clip-path="url(#pd792137e79)">
     <use style="fill:#ffa15a;stroke:#3d3d3d;stroke-width:0.8;" x="107.467198" xlink:href="#C1_0_116b09d1ed" y="175.083545"/>
    </g>
    <g clip-path="url(#pd792137e79)">
     <use style="fill:#ffa15a;stroke:#3d3d3d;stroke-width:0.8;" x="108.741386" xlink:href="#C1_0_116b09d1ed" y="150.349066"/>
    </g>
    <g clip-path="url(#pd792137e79)">
     <use style="fill:#ffa15a;stroke:#3d3d3d;stroke-width:0.8;" x="110.489619" xlink:href="#C1_0_116b09d1ed" y="145.250588"/>
    </g>
    <g clip-path="url(#pd792137e79)">
     <use style="fill:#ffa15a;stroke:#3d3d3d;stroke-width:0.8;" x="107.51931" xlink:href="#C1_0_116b09d1ed" y="162.663773"/>
    </g>
    <g clip-path="url(#pd792137e79)">
     <use style="fill:#ffa15a;stroke:#3d3d3d;stroke-width:0.8;" x="111.971164" xlink:href="#C1_0_116b09d1ed" y="139.491722"/>
    </g>
    <g clip-path="url(#pd792137e79)">
     <use style="fill:#ffa15a;stroke:#3d3d3d;stroke-width:0.8;" x="119.811864" xlink:href="#C1_0_116b09d1ed" y="159.844322"/>
    </g>
    <g clip-path="url(#pd792137e79)">
     <use style="fill:#ffa15a;stroke:#3d3d3d;stroke-width:0.8;" x="111.971164" xlink:href="#C1_0_116b09d1ed" y="130.387243"/>
    </g>
    <g clip-path="url(#pd792137e79)">
     <use style="fill:#ffa15a;stroke:#3d3d3d;stroke-width:0.8;" x="115.35531" xlink:href="#C1_0_116b09d1ed" y="160.533962"/>
    </g>
   </g>
   <g id="PathCollection_3">
    <defs>
     <path d="M 0 1.75 
C 0.464105 1.75 0.909265 1.565609 1.237437 1.237437 
C 1.565609 0.909265 1.75 0.464105 1.75 0 
C 1.75 -0.464105 1.565609 -0.909265 1.237437 -1.237437 
C 0.909265 -1.565609 0.464105 -1.75 0 -1.75 
C -0.464105 -1.75 -0.909265 -1.565609 -1.237437 -1.237437 
C -1.565609 -0.909265 -1.75 -0.464105 -1.75 0 
C -1.75 0.464105 -1.565609 0.909265 -1.237437 1.237437 
C -0.909265 1.565609 -0.464105 1.75 0 1.75 
z
" id="C2_0_32f1e76662"/>
    </defs>
    <g clip-path="url(#pd792137e79)">
     <use style="fill:#00cc96;stroke:#3d3d3d;stroke-width:0.8;" x="164.583384" xlink:href="#C2_0_32f1e76662" y="170.031754"/>
    </g>
    <g clip-path="url(#pd792137e79)">
     <use style="fill:#00cc96;stroke:#3d3d3d;stroke-width:0.8;" x="156.814616" xlink:href="#C2_0_32f1e76662" y="154.637572"/>
    </g>
    <g clip-path="url(#pd792137e79)">
     <use style="fill:#00cc96;stroke:#3d3d3d;stroke-width:0.8;" x="164.728268" xlink:href="#C2_0_32f1e76662" y="176.013506"/>
    </g>
    <g clip-path="url(#pd792137e79)">
     <use style="fill:#00cc96;stroke:#3d3d3d;stroke-width:0.8;" x="161.310436" xlink:href="#C2_0_32f1e76662" y="178.823215"/>
    </g>
    <g clip-path="url(#pd792137e79)">
     <use style="fill:#00cc96;stroke:#3d3d3d;stroke-width:0.8;" x="161.310436" xlink:href="#C2_0_32f1e76662" y="186.433633"/>
    </g>
    <g clip-path="url(#pd792137e79)">
     <use style="fill:#00cc96;stroke:#3d3d3d;stroke-width:0.8;" x="153.615788" xlink:href="#C2_0_32f1e76662" y="174.326374"/>
    </g>
    <g clip-path="url(#pd792137e79)">
     <use style="fill:#00cc96;stroke:#3d3d3d;stroke-width:0.8;" x="164.873539" xlink:href="#C2_0_32f1e76662" y="152.392559"/>
    </g>
    <g clip-path="url(#pd792137e79)">
     <use style="fill:#00cc96;stroke:#3d3d3d;stroke-width:0.8;" x="161.310436" xlink:href="#C2_0_32f1e76662" y="164.477539"/>
    </g>
    <g clip-path="url(#pd792137e79)">
     <use style="fill:#00cc96;stroke:#3d3d3d;stroke-width:0.8;" x="157.514763" xlink:href="#C2_0_32f1e76662" y="176.49463"/>
    </g>
    <g clip-path="url(#pd792137e79)">
     <use style="fill:#00cc96;stroke:#3d3d3d;stroke-width:0.8;" x="169.14423" xlink:href="#C2_0_32f1e76662" y="175.11781"/>
    </g>
    <g clip-path="url(#pd792137e79)">
     <use style="fill:#ffa15a;stroke:#3d3d3d;stroke-width:0.8;" x="157.035519" xlink:href="#C2_0_32f1e76662" y="163.094022"/>
    </g>
    <g clip-path="url(#pd792137e79)">
     <use style="fill:#ffa15a;stroke:#3d3d3d;stroke-width:0.8;" x="161.310436" xlink:href="#C2_0_32f1e76662" y="199.243915"/>
    </g>
    <g clip-path="url(#pd792137e79)">
     <use style="fill:#ffa15a;stroke:#3d3d3d;stroke-width:0.8;" x="161.310436" xlink:href="#C2_0_32f1e76662" y="159.399493"/>
    </g>
    <g clip-path="url(#pd792137e79)">
     <use style="fill:#ffa15a;stroke:#3d3d3d;stroke-width:0.8;" x="161.310436" xlink:href="#C2_0_32f1e76662" y="155.03351"/>
    </g>
    <g clip-path="url(#pd792137e79)">
     <use style="fill:#ffa15a;stroke:#3d3d3d;stroke-width:0.8;" x="161.310436" xlink:href="#C2_0_32f1e76662" y="172.993801"/>
    </g>
    <g clip-path="url(#pd792137e79)">
     <use style="fill:#ffa15a;stroke:#3d3d3d;stroke-width:0.8;" x="165.287805" xlink:href="#C2_0_32f1e76662" y="144.380499"/>
    </g>
    <g clip-path="url(#pd792137e79)">
     <use style="fill:#ffa15a;stroke:#3d3d3d;stroke-width:0.8;" x="153.436599" xlink:href="#C2_0_32f1e76662" y="142.533234"/>
    </g>
    <g clip-path="url(#pd792137e79)">
     <use style="fill:#ffa15a;stroke:#3d3d3d;stroke-width:0.8;" x="156.980258" xlink:href="#C2_0_32f1e76662" y="145.197809"/>
    </g>
    <g clip-path="url(#pd792137e79)">
     <use style="fill:#ffa15a;stroke:#3d3d3d;stroke-width:0.8;" x="161.310436" xlink:href="#C2_0_32f1e76662" y="146.415512"/>
    </g>
   </g>
   <g id="PathCollection_4">
    <defs>
     <path d="M 0 1.75 
C 0.464105 1.75 0.909265 1.565609 1.237437 1.237437 
C 1.565609 0.909265 1.75 0.464105 1.75 0 
C 1.75 -0.464105 1.565609 -0.909265 1.237437 -1.237437 
C 0.909265 -1.565609 0.464105 -1.75 0 -1.75 
C -0.464105 -1.75 -0.909265 -1.565609 -1.237437 -1.237437 
C -1.565609 -0.909265 -1.75 -0.464105 -1.75 0 
C -1.75 0.464105 -1.565609 0.909265 -1.237437 1.237437 
C -0.909265 1.565609 -0.464105 1.75 0 1.75 
z
" id="C3_0_595ef6a996"/>
    </defs>
    <g clip-path="url(#pd792137e79)">
     <use style="fill:#00cc96;stroke:#3d3d3d;stroke-width:0.8;" x="214.220015" xlink:href="#C3_0_595ef6a996" y="169.49492"/>
    </g>
    <g clip-path="url(#pd792137e79)">
     <use style="fill:#00cc96;stroke:#3d3d3d;stroke-width:0.8;" x="210.296367" xlink:href="#C3_0_595ef6a996" y="167.367418"/>
    </g>
    <g clip-path="url(#pd792137e79)">
     <use style="fill:#00cc96;stroke:#3d3d3d;stroke-width:0.8;" x="192.844878" xlink:href="#C3_0_595ef6a996" y="182.690482"/>
    </g>
    <g clip-path="url(#pd792137e79)">
     <use style="fill:#00cc96;stroke:#3d3d3d;stroke-width:0.8;" x="219.569456" xlink:href="#C3_0_595ef6a996" y="184.003539"/>
    </g>
    <g clip-path="url(#pd792137e79)">
     <use style="fill:#00cc96;stroke:#3d3d3d;stroke-width:0.8;" x="223.992689" xlink:href="#C3_0_595ef6a996" y="183.141001"/>
    </g>
    <g clip-path="url(#pd792137e79)">
     <use style="fill:#00cc96;stroke:#3d3d3d;stroke-width:0.8;" x="228.278267" xlink:href="#C3_0_595ef6a996" y="181.787731"/>
    </g>
    <g clip-path="url(#pd792137e79)">
     <use style="fill:#00cc96;stroke:#3d3d3d;stroke-width:0.8;" x="218.549089" xlink:href="#C3_0_595ef6a996" y="168.273664"/>
    </g>
    <g clip-path="url(#pd792137e79)">
     <use style="fill:#00cc96;stroke:#3d3d3d;stroke-width:0.8;" x="206.342894" xlink:href="#C3_0_595ef6a996" y="170.836359"/>
    </g>
    <g clip-path="url(#pd792137e79)">
     <use style="fill:#00cc96;stroke:#3d3d3d;stroke-width:0.8;" x="215.059464" xlink:href="#C3_0_595ef6a996" y="184.206018"/>
    </g>
    <g clip-path="url(#pd792137e79)">
     <use style="fill:#00cc96;stroke:#3d3d3d;stroke-width:0.8;" x="210.649707" xlink:href="#C3_0_595ef6a996" y="185.129027"/>
    </g>
    <g clip-path="url(#pd792137e79)">
     <use style="fill:#ffa15a;stroke:#3d3d3d;stroke-width:0.8;" x="201.732357" xlink:href="#C3_0_595ef6a996" y="183.819764"/>
    </g>
    <g clip-path="url(#pd792137e79)">
     <use style="fill:#ffa15a;stroke:#3d3d3d;stroke-width:0.8;" x="197.359453" xlink:href="#C3_0_595ef6a996" y="182.749475"/>
    </g>
    <g clip-path="url(#pd792137e79)">
     <use style="fill:#ffa15a;stroke:#3d3d3d;stroke-width:0.8;" x="210.649707" xlink:href="#C3_0_595ef6a996" y="161.521163"/>
    </g>
    <g clip-path="url(#pd792137e79)">
     <use style="fill:#ffa15a;stroke:#3d3d3d;stroke-width:0.8;" x="206.215494" xlink:href="#C3_0_595ef6a996" y="160.711369"/>
    </g>
    <g clip-path="url(#pd792137e79)">
     <use style="fill:#ffa15a;stroke:#3d3d3d;stroke-width:0.8;" x="206.163365" xlink:href="#C3_0_595ef6a996" y="184.645316"/>
    </g>
    <g clip-path="url(#pd792137e79)">
     <use style="fill:#ffa15a;stroke:#3d3d3d;stroke-width:0.8;" x="210.649707" xlink:href="#C3_0_595ef6a996" y="133.380621"/>
    </g>
    <g clip-path="url(#pd792137e79)">
     <use style="fill:#ffa15a;stroke:#3d3d3d;stroke-width:0.8;" x="210.649707" xlink:href="#C3_0_595ef6a996" y="172.127031"/>
    </g>
    <g clip-path="url(#pd792137e79)">
     <use style="fill:#ffa15a;stroke:#3d3d3d;stroke-width:0.8;" x="210.649707" xlink:href="#C3_0_595ef6a996" y="152.001747"/>
    </g>
    <g clip-path="url(#pd792137e79)">
     <use style="fill:#ffa15a;stroke:#3d3d3d;stroke-width:0.8;" x="210.649707" xlink:href="#C3_0_595ef6a996" y="145.053471"/>
    </g>
   </g>
   <g id="PathCollection_5">
    <defs>
     <path d="M 0 1.75 
C 0.464105 1.75 0.909265 1.565609 1.237437 1.237437 
C 1.565609 0.909265 1.75 0.464105 1.75 0 
C 1.75 -0.464105 1.565609 -0.909265 1.237437 -1.237437 
C 0.909265 -1.565609 0.464105 -1.75 0 -1.75 
C -0.464105 -1.75 -0.909265 -1.565609 -1.237437 -1.237437 
C -1.565609 -0.909265 -1.75 -0.464105 -1.75 0 
C -1.75 0.464105 -1.565609 0.909265 -1.237437 1.237437 
C -0.909265 1.565609 -0.464105 1.75 0 1.75 
z
" id="C4_0_1fad7ae784"/>
    </defs>
    <g clip-path="url(#pd792137e79)">
     <use style="fill:#00cc96;stroke:#3d3d3d;stroke-width:0.8;" x="247.320785" xlink:href="#C4_0_1fad7ae784" y="183.621796"/>
    </g>
    <g clip-path="url(#pd792137e79)">
     <use style="fill:#00cc96;stroke:#3d3d3d;stroke-width:0.8;" x="264.008983" xlink:href="#C4_0_1fad7ae784" y="175.197255"/>
    </g>
    <g clip-path="url(#pd792137e79)">
     <use style="fill:#00cc96;stroke:#3d3d3d;stroke-width:0.8;" x="264.465832" xlink:href="#C4_0_1fad7ae784" y="186.752031"/>
    </g>
    <g clip-path="url(#pd792137e79)">
     <use style="fill:#00cc96;stroke:#3d3d3d;stroke-width:0.8;" x="255.479549" xlink:href="#C4_0_1fad7ae784" y="187.096279"/>
    </g>
    <g clip-path="url(#pd792137e79)">
     <use style="fill:#00cc96;stroke:#3d3d3d;stroke-width:0.8;" x="255.64871" xlink:href="#C4_0_1fad7ae784" y="193.021267"/>
    </g>
    <g clip-path="url(#pd792137e79)">
     <use style="fill:#00cc96;stroke:#3d3d3d;stroke-width:0.8;" x="251.136723" xlink:href="#C4_0_1fad7ae784" y="185.920143"/>
    </g>
    <g clip-path="url(#pd792137e79)">
     <use style="fill:#00cc96;stroke:#3d3d3d;stroke-width:0.8;" x="260.320259" xlink:href="#C4_0_1fad7ae784" y="160.740258"/>
    </g>
    <g clip-path="url(#pd792137e79)">
     <use style="fill:#00cc96;stroke:#3d3d3d;stroke-width:0.8;" x="255.819644" xlink:href="#C4_0_1fad7ae784" y="175.504721"/>
    </g>
    <g clip-path="url(#pd792137e79)">
     <use style="fill:#00cc96;stroke:#3d3d3d;stroke-width:0.8;" x="263.701722" xlink:href="#C4_0_1fad7ae784" y="191.759082"/>
    </g>
    <g clip-path="url(#pd792137e79)">
     <use style="fill:#00cc96;stroke:#3d3d3d;stroke-width:0.8;" x="259.988979" xlink:href="#C4_0_1fad7ae784" y="194.205935"/>
    </g>
    <g clip-path="url(#pd792137e79)">
     <use style="fill:#ffa15a;stroke:#3d3d3d;stroke-width:0.8;" x="259.988979" xlink:href="#C4_0_1fad7ae784" y="187.30981"/>
    </g>
    <g clip-path="url(#pd792137e79)">
     <use style="fill:#ffa15a;stroke:#3d3d3d;stroke-width:0.8;" x="259.988979" xlink:href="#C4_0_1fad7ae784" y="165.30477"/>
    </g>
    <g clip-path="url(#pd792137e79)">
     <use style="fill:#ffa15a;stroke:#3d3d3d;stroke-width:0.8;" x="259.988979" xlink:href="#C4_0_1fad7ae784" y="177.154808"/>
    </g>
    <g clip-path="url(#pd792137e79)">
     <use style="fill:#ffa15a;stroke:#3d3d3d;stroke-width:0.8;" x="255.853133" xlink:href="#C4_0_1fad7ae784" y="167.998508"/>
    </g>
    <g clip-path="url(#pd792137e79)">
     <use style="fill:#ffa15a;stroke:#3d3d3d;stroke-width:0.8;" x="268.838813" xlink:href="#C4_0_1fad7ae784" y="185.682026"/>
    </g>
    <g clip-path="url(#pd792137e79)">
     <use style="fill:#ffa15a;stroke:#3d3d3d;stroke-width:0.8;" x="259.988979" xlink:href="#C4_0_1fad7ae784" y="169.723344"/>
    </g>
    <g clip-path="url(#pd792137e79)">
     <use style="fill:#ffa15a;stroke:#3d3d3d;stroke-width:0.8;" x="256.340735" xlink:href="#C4_0_1fad7ae784" y="162.771447"/>
    </g>
    <g clip-path="url(#pd792137e79)">
     <use style="fill:#ffa15a;stroke:#3d3d3d;stroke-width:0.8;" x="259.988979" xlink:href="#C4_0_1fad7ae784" y="143.902979"/>
    </g>
    <g clip-path="url(#pd792137e79)">
     <use style="fill:#ffa15a;stroke:#3d3d3d;stroke-width:0.8;" x="257.19006" xlink:href="#C4_0_1fad7ae784" y="157.64142"/>
    </g>
   </g>
   <g id="PathCollection_6">
    <defs>
     <path d="M 0 1.75 
C 0.464105 1.75 0.909265 1.565609 1.237437 1.237437 
C 1.565609 0.909265 1.75 0.464105 1.75 0 
C 1.75 -0.464105 1.565609 -0.909265 1.237437 -1.237437 
C 0.909265 -1.565609 0.464105 -1.75 0 -1.75 
C -0.464105 -1.75 -0.909265 -1.565609 -1.237437 -1.237437 
C -1.565609 -0.909265 -1.75 -0.464105 -1.75 0 
C -1.75 0.464105 -1.565609 0.909265 -1.237437 1.237437 
C -0.909265 1.565609 -0.464105 1.75 0 1.75 
z
" id="C5_0_b96df68b9a"/>
    </defs>
    <g clip-path="url(#pd792137e79)">
     <use style="fill:#00cc96;stroke:#3d3d3d;stroke-width:0.8;" x="302.883563" xlink:href="#C5_0_b96df68b9a" y="187.891847"/>
    </g>
    <g clip-path="url(#pd792137e79)">
     <use style="fill:#00cc96;stroke:#3d3d3d;stroke-width:0.8;" x="318.063494" xlink:href="#C5_0_b96df68b9a" y="187.861855"/>
    </g>
    <g clip-path="url(#pd792137e79)">
     <use style="fill:#00cc96;stroke:#3d3d3d;stroke-width:0.8;" x="309.287973" xlink:href="#C5_0_b96df68b9a" y="189.332494"/>
    </g>
    <g clip-path="url(#pd792137e79)">
     <use style="fill:#00cc96;stroke:#3d3d3d;stroke-width:0.8;" x="309.287973" xlink:href="#C5_0_b96df68b9a" y="193.66363"/>
    </g>
    <g clip-path="url(#pd792137e79)">
     <use style="fill:#00cc96;stroke:#3d3d3d;stroke-width:0.8;" x="305.417472" xlink:href="#C5_0_b96df68b9a" y="191.450555"/>
    </g>
    <g clip-path="url(#pd792137e79)">
     <use style="fill:#00cc96;stroke:#3d3d3d;stroke-width:0.8;" x="313.243341" xlink:href="#C5_0_b96df68b9a" y="198.883785"/>
    </g>
    <g clip-path="url(#pd792137e79)">
     <use style="fill:#00cc96;stroke:#3d3d3d;stroke-width:0.8;" x="309.287973" xlink:href="#C5_0_b96df68b9a" y="174.440324"/>
    </g>
    <g clip-path="url(#pd792137e79)">
     <use style="fill:#00cc96;stroke:#3d3d3d;stroke-width:0.8;" x="309.287973" xlink:href="#C5_0_b96df68b9a" y="170.12947"/>
    </g>
    <g clip-path="url(#pd792137e79)">
     <use style="fill:#00cc96;stroke:#3d3d3d;stroke-width:0.8;" x="309.287973" xlink:href="#C5_0_b96df68b9a" y="183.388681"/>
    </g>
    <g clip-path="url(#pd792137e79)">
     <use style="fill:#ffa15a;stroke:#3d3d3d;stroke-width:0.8;" x="304.956999" xlink:href="#C5_0_b96df68b9a" y="199.743329"/>
    </g>
    <g clip-path="url(#pd792137e79)">
     <use style="fill:#ffa15a;stroke:#3d3d3d;stroke-width:0.8;" x="317.62831" xlink:href="#C5_0_b96df68b9a" y="167.56661"/>
    </g>
    <g clip-path="url(#pd792137e79)">
     <use style="fill:#ffa15a;stroke:#3d3d3d;stroke-width:0.8;" x="304.818761" xlink:href="#C5_0_b96df68b9a" y="169.523337"/>
    </g>
    <g clip-path="url(#pd792137e79)">
     <use style="fill:#ffa15a;stroke:#3d3d3d;stroke-width:0.8;" x="306.199801" xlink:href="#C5_0_b96df68b9a" y="180.252265"/>
    </g>
    <g clip-path="url(#pd792137e79)">
     <use style="fill:#ffa15a;stroke:#3d3d3d;stroke-width:0.8;" x="313.801928" xlink:href="#C5_0_b96df68b9a" y="189.280403"/>
    </g>
    <g clip-path="url(#pd792137e79)">
     <use style="fill:#ffa15a;stroke:#3d3d3d;stroke-width:0.8;" x="313.124822" xlink:href="#C5_0_b96df68b9a" y="167.863853"/>
    </g>
    <g clip-path="url(#pd792137e79)">
     <use style="fill:#ffa15a;stroke:#3d3d3d;stroke-width:0.8;" x="309.287973" xlink:href="#C5_0_b96df68b9a" y="200.956246"/>
    </g>
    <g clip-path="url(#pd792137e79)">
     <use style="fill:#ffa15a;stroke:#3d3d3d;stroke-width:0.8;" x="309.287973" xlink:href="#C5_0_b96df68b9a" y="158.192879"/>
    </g>
    <g clip-path="url(#pd792137e79)">
     <use style="fill:#ffa15a;stroke:#3d3d3d;stroke-width:0.8;" x="309.287973" xlink:href="#C5_0_b96df68b9a" y="134.167738"/>
    </g>
   </g>
   <g id="line2d_15">
    <path clip-path="url(#pd792137e79)" d="M 62.630596 156.100977 
L 111.962071 164.096971 
L 161.293547 170.874859 
L 210.625022 177.693016 
L 259.956497 183.381877 
L 309.287973 186.338071 
" style="fill:none;stroke:#00cc96;stroke-linecap:square;stroke-width:1.5;"/>
   </g>
   <g id="line2d_16">
    <path clip-path="url(#pd792137e79)" d="M 62.630596 139.730138 
L 111.962071 154.109404 
L 161.293547 158.699088 
L 210.625022 164.001106 
L 259.956497 168.609901 
L 309.287973 174.171851 
" style="fill:none;stroke:#ffa15a;stroke-linecap:square;stroke-width:1.5;"/>
   </g>
   <g id="legend_1">
    <g id="patch_7">
     <path d="M 48.245313 35.16125 
L 324.245312 35.16125 
Q 326.245312 35.16125 326.245312 33.16125 
L 326.245312 9.2 
Q 326.245312 7.2 324.245312 7.2 
L 48.245313 7.2 
Q 46.245313 7.2 46.245313 9.2 
L 46.245313 33.16125 
Q 46.245313 35.16125 48.245313 35.16125 
z
" style="fill:#ffffff;opacity:0.8;stroke:#cccccc;stroke-linejoin:miter;"/>
    </g>
    <g id="line2d_17">
     <path d="M 50.245313 21.259531 
L 70.245313 21.259531 
" style="fill:none;stroke:#00cc96;stroke-linecap:square;stroke-width:1.5;"/>
    </g>
    <g id="line2d_18"/>
    <g id="text_15">
     <!-- All GCaMP cells -->
     <defs>
      <path d="M -0.140625 0 
L 27.34375 71.578125 
L 37.546875 71.578125 
L 66.84375 0 
L 56.0625 0 
L 47.703125 21.6875 
L 17.78125 21.6875 
L 9.90625 0 
z
M 20.515625 29.390625 
L 44.78125 29.390625 
L 37.3125 49.21875 
Q 33.890625 58.25 32.234375 64.0625 
Q 30.859375 57.171875 28.375 50.390625 
z
" id="ArialMT-65"/>
      <path d="M 6.390625 0 
L 6.390625 71.578125 
L 15.1875 71.578125 
L 15.1875 0 
z
" id="ArialMT-108"/>
      <path id="ArialMT-32"/>
      <path d="M 41.21875 28.078125 
L 41.21875 36.46875 
L 71.53125 36.53125 
L 71.53125 9.96875 
Q 64.546875 4.390625 57.125 1.578125 
Q 49.703125 -1.21875 41.890625 -1.21875 
Q 31.34375 -1.21875 22.71875 3.296875 
Q 14.109375 7.8125 9.71875 16.359375 
Q 5.328125 24.90625 5.328125 35.453125 
Q 5.328125 45.90625 9.6875 54.953125 
Q 14.0625 64.015625 22.265625 68.40625 
Q 30.46875 72.796875 41.15625 72.796875 
Q 48.921875 72.796875 55.1875 70.28125 
Q 61.46875 67.78125 65.03125 63.28125 
Q 68.609375 58.796875 70.453125 51.5625 
L 61.921875 49.21875 
Q 60.296875 54.6875 57.90625 57.8125 
Q 55.515625 60.9375 51.0625 62.8125 
Q 46.625 64.703125 41.21875 64.703125 
Q 34.71875 64.703125 29.984375 62.71875 
Q 25.25 60.75 22.34375 57.515625 
Q 19.4375 54.296875 17.828125 50.4375 
Q 15.09375 43.796875 15.09375 36.03125 
Q 15.09375 26.46875 18.390625 20.015625 
Q 21.6875 13.578125 27.984375 10.453125 
Q 34.28125 7.328125 41.359375 7.328125 
Q 47.515625 7.328125 53.375 9.6875 
Q 59.234375 12.0625 62.25 14.75 
L 62.25 28.078125 
z
" id="ArialMT-71"/>
      <path d="M 58.796875 25.09375 
L 68.265625 22.703125 
Q 65.28125 11.03125 57.546875 4.90625 
Q 49.8125 -1.21875 38.625 -1.21875 
Q 27.046875 -1.21875 19.796875 3.484375 
Q 12.546875 8.203125 8.765625 17.140625 
Q 4.984375 26.078125 4.984375 36.328125 
Q 4.984375 47.515625 9.25 55.828125 
Q 13.53125 64.15625 21.40625 68.46875 
Q 29.296875 72.796875 38.765625 72.796875 
Q 49.515625 72.796875 56.828125 67.328125 
Q 64.15625 61.859375 67.046875 51.953125 
L 57.71875 49.75 
Q 55.21875 57.5625 50.484375 61.125 
Q 45.75 64.703125 38.578125 64.703125 
Q 30.328125 64.703125 24.78125 60.734375 
Q 19.234375 56.78125 16.984375 50.109375 
Q 14.75 43.453125 14.75 36.375 
Q 14.75 27.25 17.40625 20.4375 
Q 20.0625 13.625 25.671875 10.25 
Q 31.296875 6.890625 37.84375 6.890625 
Q 45.796875 6.890625 51.3125 11.46875 
Q 56.84375 16.0625 58.796875 25.09375 
z
" id="ArialMT-67"/>
      <path d="M 40.4375 6.390625 
Q 35.546875 2.25 31.03125 0.53125 
Q 26.515625 -1.171875 21.34375 -1.171875 
Q 12.796875 -1.171875 8.203125 3 
Q 3.609375 7.171875 3.609375 13.671875 
Q 3.609375 17.484375 5.34375 20.625 
Q 7.078125 23.78125 9.890625 25.6875 
Q 12.703125 27.59375 16.21875 28.5625 
Q 18.796875 29.25 24.03125 29.890625 
Q 34.671875 31.15625 39.703125 32.90625 
Q 39.75 34.71875 39.75 35.203125 
Q 39.75 40.578125 37.25 42.78125 
Q 33.890625 45.75 27.25 45.75 
Q 21.046875 45.75 18.09375 43.578125 
Q 15.140625 41.40625 13.71875 35.890625 
L 5.125 37.0625 
Q 6.296875 42.578125 8.984375 45.96875 
Q 11.671875 49.359375 16.75 51.1875 
Q 21.828125 53.03125 28.515625 53.03125 
Q 35.15625 53.03125 39.296875 51.46875 
Q 43.453125 49.90625 45.40625 47.53125 
Q 47.359375 45.171875 48.140625 41.546875 
Q 48.578125 39.3125 48.578125 33.453125 
L 48.578125 21.734375 
Q 48.578125 9.46875 49.140625 6.21875 
Q 49.703125 2.984375 51.375 0 
L 42.1875 0 
Q 40.828125 2.734375 40.4375 6.390625 
z
M 39.703125 26.03125 
Q 34.90625 24.078125 25.34375 22.703125 
Q 19.921875 21.921875 17.671875 20.9375 
Q 15.4375 19.96875 14.203125 18.09375 
Q 12.984375 16.21875 12.984375 13.921875 
Q 12.984375 10.40625 15.640625 8.0625 
Q 18.3125 5.71875 23.4375 5.71875 
Q 28.515625 5.71875 32.46875 7.9375 
Q 36.421875 10.15625 38.28125 14.015625 
Q 39.703125 17 39.703125 22.796875 
z
" id="ArialMT-97"/>
      <path d="M 7.421875 0 
L 7.421875 71.578125 
L 21.6875 71.578125 
L 38.625 20.90625 
Q 40.96875 13.8125 42.046875 10.296875 
Q 43.265625 14.203125 45.84375 21.78125 
L 62.984375 71.578125 
L 75.734375 71.578125 
L 75.734375 0 
L 66.609375 0 
L 66.609375 59.90625 
L 45.796875 0 
L 37.25 0 
L 16.546875 60.9375 
L 16.546875 0 
z
" id="ArialMT-77"/>
      <path d="M 7.71875 0 
L 7.71875 71.578125 
L 34.71875 71.578125 
Q 41.84375 71.578125 45.609375 70.90625 
Q 50.875 70.015625 54.4375 67.546875 
Q 58.015625 65.09375 60.1875 60.640625 
Q 62.359375 56.203125 62.359375 50.875 
Q 62.359375 41.75 56.546875 35.421875 
Q 50.734375 29.109375 35.546875 29.109375 
L 17.1875 29.109375 
L 17.1875 0 
z
M 17.1875 37.546875 
L 35.6875 37.546875 
Q 44.875 37.546875 48.734375 40.96875 
Q 52.59375 44.390625 52.59375 50.59375 
Q 52.59375 55.078125 50.3125 58.265625 
Q 48.046875 61.46875 44.34375 62.5 
Q 41.9375 63.140625 35.5 63.140625 
L 17.1875 63.140625 
z
" id="ArialMT-80"/>
      <path d="M 40.4375 19 
L 49.078125 17.875 
Q 47.65625 8.9375 41.8125 3.875 
Q 35.984375 -1.171875 27.484375 -1.171875 
Q 16.84375 -1.171875 10.375 5.78125 
Q 3.90625 12.75 3.90625 25.734375 
Q 3.90625 34.125 6.6875 40.421875 
Q 9.46875 46.734375 15.15625 49.875 
Q 20.84375 53.03125 27.546875 53.03125 
Q 35.984375 53.03125 41.359375 48.75 
Q 46.734375 44.484375 48.25 36.625 
L 39.703125 35.296875 
Q 38.484375 40.53125 35.375 43.15625 
Q 32.28125 45.796875 27.875 45.796875 
Q 21.234375 45.796875 17.078125 41.03125 
Q 12.9375 36.28125 12.9375 25.984375 
Q 12.9375 15.53125 16.9375 10.796875 
Q 20.953125 6.0625 27.390625 6.0625 
Q 32.5625 6.0625 36.03125 9.234375 
Q 39.5 12.40625 40.4375 19 
z
" id="ArialMT-99"/>
      <path d="M 42.09375 16.703125 
L 51.171875 15.578125 
Q 49.03125 7.625 43.21875 3.21875 
Q 37.40625 -1.171875 28.375 -1.171875 
Q 17 -1.171875 10.328125 5.828125 
Q 3.65625 12.84375 3.65625 25.484375 
Q 3.65625 38.578125 10.390625 45.796875 
Q 17.140625 53.03125 27.875 53.03125 
Q 38.28125 53.03125 44.875 45.953125 
Q 51.46875 38.875 51.46875 26.03125 
Q 51.46875 25.25 51.421875 23.6875 
L 12.75 23.6875 
Q 13.234375 15.140625 17.578125 10.59375 
Q 21.921875 6.0625 28.421875 6.0625 
Q 33.25 6.0625 36.671875 8.59375 
Q 40.09375 11.140625 42.09375 16.703125 
z
M 13.234375 30.90625 
L 42.1875 30.90625 
Q 41.609375 37.453125 38.875 40.71875 
Q 34.671875 45.796875 27.984375 45.796875 
Q 21.921875 45.796875 17.796875 41.75 
Q 13.671875 37.703125 13.234375 30.90625 
z
" id="ArialMT-101"/>
      <path d="M 3.078125 15.484375 
L 11.765625 16.84375 
Q 12.5 11.625 15.84375 8.84375 
Q 19.1875 6.0625 25.203125 6.0625 
Q 31.25 6.0625 34.171875 8.515625 
Q 37.109375 10.984375 37.109375 14.3125 
Q 37.109375 17.28125 34.515625 19 
Q 32.71875 20.171875 25.53125 21.96875 
Q 15.875 24.421875 12.140625 26.203125 
Q 8.40625 27.984375 6.46875 31.125 
Q 4.546875 34.28125 4.546875 38.09375 
Q 4.546875 41.546875 6.125 44.5 
Q 7.71875 47.46875 10.453125 49.421875 
Q 12.5 50.921875 16.03125 51.96875 
Q 19.578125 53.03125 23.640625 53.03125 
Q 29.734375 53.03125 34.34375 51.265625 
Q 38.96875 49.515625 41.15625 46.5 
Q 43.359375 43.5 44.1875 38.484375 
L 35.59375 37.3125 
Q 35.015625 41.3125 32.203125 43.546875 
Q 29.390625 45.796875 24.265625 45.796875 
Q 18.21875 45.796875 15.625 43.796875 
Q 13.03125 41.796875 13.03125 39.109375 
Q 13.03125 37.40625 14.109375 36.03125 
Q 15.1875 34.625 17.484375 33.6875 
Q 18.796875 33.203125 25.25 31.453125 
Q 34.578125 28.953125 38.25 27.359375 
Q 41.9375 25.78125 44.03125 22.75 
Q 46.140625 19.734375 46.140625 15.234375 
Q 46.140625 10.84375 43.578125 6.953125 
Q 41.015625 3.078125 36.171875 0.953125 
Q 31.34375 -1.171875 25.25 -1.171875 
Q 15.140625 -1.171875 9.84375 3.03125 
Q 4.546875 7.234375 3.078125 15.484375 
z
" id="ArialMT-115"/>
     </defs>
     <g transform="translate(78.245313 24.759531)scale(0.1 -0.1)">
      <use xlink:href="#ArialMT-65"/>
      <use x="66.699219" xlink:href="#ArialMT-108"/>
      <use x="88.916016" xlink:href="#ArialMT-108"/>
      <use x="111.132812" xlink:href="#ArialMT-32"/>
      <use x="138.916016" xlink:href="#ArialMT-71"/>
      <use x="216.699219" xlink:href="#ArialMT-67"/>
      <use x="288.916016" xlink:href="#ArialMT-97"/>
      <use x="344.53125" xlink:href="#ArialMT-77"/>
      <use x="427.832031" xlink:href="#ArialMT-80"/>
      <use x="492.78125" xlink:href="#ArialMT-32"/>
      <use x="520.564453" xlink:href="#ArialMT-99"/>
      <use x="570.564453" xlink:href="#ArialMT-101"/>
      <use x="626.179688" xlink:href="#ArialMT-108"/>
      <use x="648.396484" xlink:href="#ArialMT-108"/>
      <use x="670.613281" xlink:href="#ArialMT-115"/>
     </g>
    </g>
    <g id="line2d_19">
     <path d="M 188.834375 21.259531 
L 208.834375 21.259531 
" style="fill:none;stroke:#ffa15a;stroke-linecap:square;stroke-width:1.5;"/>
    </g>
    <g id="line2d_20"/>
    <g id="text_16">
     <!-- GCaMP cells registered -->
     <defs>
      <path d="M 6.5 0 
L 6.5 51.859375 
L 14.40625 51.859375 
L 14.40625 44 
Q 17.4375 49.515625 20 51.265625 
Q 22.5625 53.03125 25.640625 53.03125 
Q 30.078125 53.03125 34.671875 50.203125 
L 31.640625 42.046875 
Q 28.421875 43.953125 25.203125 43.953125 
Q 22.3125 43.953125 20.015625 42.21875 
Q 17.71875 40.484375 16.75 37.40625 
Q 15.28125 32.71875 15.28125 27.15625 
L 15.28125 0 
z
" id="ArialMT-114"/>
      <path d="M 4.984375 -4.296875 
L 13.53125 -5.5625 
Q 14.0625 -9.515625 16.5 -11.328125 
Q 19.78125 -13.765625 25.4375 -13.765625 
Q 31.546875 -13.765625 34.859375 -11.328125 
Q 38.1875 -8.890625 39.359375 -4.5 
Q 40.046875 -1.8125 39.984375 6.78125 
Q 34.234375 0 25.640625 0 
Q 14.9375 0 9.078125 7.71875 
Q 3.21875 15.4375 3.21875 26.21875 
Q 3.21875 33.640625 5.90625 39.90625 
Q 8.59375 46.1875 13.6875 49.609375 
Q 18.796875 53.03125 25.6875 53.03125 
Q 34.859375 53.03125 40.828125 45.609375 
L 40.828125 51.859375 
L 48.921875 51.859375 
L 48.921875 7.03125 
Q 48.921875 -5.078125 46.453125 -10.125 
Q 44 -15.1875 38.640625 -18.109375 
Q 33.296875 -21.046875 25.484375 -21.046875 
Q 16.21875 -21.046875 10.5 -16.875 
Q 4.78125 -12.703125 4.984375 -4.296875 
z
M 12.25 26.859375 
Q 12.25 16.65625 16.296875 11.96875 
Q 20.359375 7.28125 26.46875 7.28125 
Q 32.515625 7.28125 36.609375 11.9375 
Q 40.71875 16.609375 40.71875 26.5625 
Q 40.71875 36.078125 36.5 40.90625 
Q 32.28125 45.75 26.3125 45.75 
Q 20.453125 45.75 16.34375 40.984375 
Q 12.25 36.234375 12.25 26.859375 
z
" id="ArialMT-103"/>
      <path d="M 6.640625 61.46875 
L 6.640625 71.578125 
L 15.4375 71.578125 
L 15.4375 61.46875 
z
M 6.640625 0 
L 6.640625 51.859375 
L 15.4375 51.859375 
L 15.4375 0 
z
" id="ArialMT-105"/>
      <path d="M 25.78125 7.859375 
L 27.046875 0.09375 
Q 23.34375 -0.6875 20.40625 -0.6875 
Q 15.625 -0.6875 12.984375 0.828125 
Q 10.359375 2.34375 9.28125 4.8125 
Q 8.203125 7.28125 8.203125 15.1875 
L 8.203125 45.015625 
L 1.765625 45.015625 
L 1.765625 51.859375 
L 8.203125 51.859375 
L 8.203125 64.703125 
L 16.9375 69.96875 
L 16.9375 51.859375 
L 25.78125 51.859375 
L 25.78125 45.015625 
L 16.9375 45.015625 
L 16.9375 14.703125 
Q 16.9375 10.9375 17.40625 9.859375 
Q 17.875 8.796875 18.921875 8.15625 
Q 19.96875 7.515625 21.921875 7.515625 
Q 23.390625 7.515625 25.78125 7.859375 
z
" id="ArialMT-116"/>
      <path d="M 40.234375 0 
L 40.234375 6.546875 
Q 35.296875 -1.171875 25.734375 -1.171875 
Q 19.53125 -1.171875 14.328125 2.25 
Q 9.125 5.671875 6.265625 11.796875 
Q 3.421875 17.921875 3.421875 25.875 
Q 3.421875 33.640625 6 39.96875 
Q 8.59375 46.296875 13.765625 49.65625 
Q 18.953125 53.03125 25.34375 53.03125 
Q 30.03125 53.03125 33.6875 51.046875 
Q 37.359375 49.078125 39.65625 45.90625 
L 39.65625 71.578125 
L 48.390625 71.578125 
L 48.390625 0 
z
M 12.453125 25.875 
Q 12.453125 15.921875 16.640625 10.984375 
Q 20.84375 6.0625 26.5625 6.0625 
Q 32.328125 6.0625 36.34375 10.765625 
Q 40.375 15.484375 40.375 25.140625 
Q 40.375 35.796875 36.265625 40.765625 
Q 32.171875 45.75 26.171875 45.75 
Q 20.3125 45.75 16.375 40.96875 
Q 12.453125 36.1875 12.453125 25.875 
z
" id="ArialMT-100"/>
     </defs>
     <g transform="translate(216.834375 18.479688)scale(0.1 -0.1)">
      <use xlink:href="#ArialMT-71"/>
      <use x="77.783203" xlink:href="#ArialMT-67"/>
      <use x="150" xlink:href="#ArialMT-97"/>
      <use x="205.615234" xlink:href="#ArialMT-77"/>
      <use x="288.916016" xlink:href="#ArialMT-80"/>
      <use x="353.865234" xlink:href="#ArialMT-32"/>
      <use x="381.648438" xlink:href="#ArialMT-99"/>
      <use x="431.648438" xlink:href="#ArialMT-101"/>
      <use x="487.263672" xlink:href="#ArialMT-108"/>
      <use x="509.480469" xlink:href="#ArialMT-108"/>
      <use x="531.697266" xlink:href="#ArialMT-115"/>
      <use x="581.697266" xlink:href="#ArialMT-32"/>
      <use x="609.480469" xlink:href="#ArialMT-114"/>
      <use x="642.78125" xlink:href="#ArialMT-101"/>
      <use x="698.396484" xlink:href="#ArialMT-103"/>
      <use x="754.011719" xlink:href="#ArialMT-105"/>
      <use x="776.228516" xlink:href="#ArialMT-115"/>
      <use x="826.228516" xlink:href="#ArialMT-116"/>
      <use x="854.011719" xlink:href="#ArialMT-101"/>
      <use x="909.626953" xlink:href="#ArialMT-114"/>
      <use x="942.927734" xlink:href="#ArialMT-101"/>
      <use x="998.542969" xlink:href="#ArialMT-100"/>
     </g>
     <!-- with tdTomato -->
     <defs>
      <path d="M 16.15625 0 
L 0.296875 51.859375 
L 9.375 51.859375 
L 17.625 21.921875 
L 20.703125 10.796875 
Q 20.90625 11.625 23.390625 21.484375 
L 31.640625 51.859375 
L 40.671875 51.859375 
L 48.4375 21.78125 
L 51.03125 11.859375 
L 54 21.875 
L 62.890625 51.859375 
L 71.4375 51.859375 
L 55.21875 0 
L 46.09375 0 
L 37.84375 31.0625 
L 35.84375 39.890625 
L 25.34375 0 
z
" id="ArialMT-119"/>
      <path d="M 6.59375 0 
L 6.59375 71.578125 
L 15.375 71.578125 
L 15.375 45.90625 
Q 21.53125 53.03125 30.90625 53.03125 
Q 36.671875 53.03125 40.921875 50.75 
Q 45.171875 48.484375 47 44.484375 
Q 48.828125 40.484375 48.828125 32.859375 
L 48.828125 0 
L 40.046875 0 
L 40.046875 32.859375 
Q 40.046875 39.453125 37.1875 42.453125 
Q 34.328125 45.453125 29.109375 45.453125 
Q 25.203125 45.453125 21.75 43.421875 
Q 18.3125 41.40625 16.84375 37.9375 
Q 15.375 34.46875 15.375 28.375 
L 15.375 0 
z
" id="ArialMT-104"/>
      <path d="M 25.921875 0 
L 25.921875 63.140625 
L 2.34375 63.140625 
L 2.34375 71.578125 
L 59.078125 71.578125 
L 59.078125 63.140625 
L 35.40625 63.140625 
L 35.40625 0 
z
" id="ArialMT-84"/>
      <path d="M 3.328125 25.921875 
Q 3.328125 40.328125 11.328125 47.265625 
Q 18.015625 53.03125 27.640625 53.03125 
Q 38.328125 53.03125 45.109375 46.015625 
Q 51.90625 39.015625 51.90625 26.65625 
Q 51.90625 16.65625 48.90625 10.90625 
Q 45.90625 5.171875 40.15625 2 
Q 34.421875 -1.171875 27.640625 -1.171875 
Q 16.75 -1.171875 10.03125 5.8125 
Q 3.328125 12.796875 3.328125 25.921875 
z
M 12.359375 25.921875 
Q 12.359375 15.96875 16.703125 11.015625 
Q 21.046875 6.0625 27.640625 6.0625 
Q 34.1875 6.0625 38.53125 11.03125 
Q 42.875 16.015625 42.875 26.21875 
Q 42.875 35.84375 38.5 40.796875 
Q 34.125 45.75 27.640625 45.75 
Q 21.046875 45.75 16.703125 40.8125 
Q 12.359375 35.890625 12.359375 25.921875 
z
" id="ArialMT-111"/>
      <path d="M 6.59375 0 
L 6.59375 51.859375 
L 14.453125 51.859375 
L 14.453125 44.578125 
Q 16.890625 48.390625 20.9375 50.703125 
Q 25 53.03125 30.171875 53.03125 
Q 35.9375 53.03125 39.625 50.640625 
Q 43.3125 48.25 44.828125 43.953125 
Q 50.984375 53.03125 60.84375 53.03125 
Q 68.5625 53.03125 72.703125 48.75 
Q 76.859375 44.484375 76.859375 35.59375 
L 76.859375 0 
L 68.109375 0 
L 68.109375 32.671875 
Q 68.109375 37.9375 67.25 40.25 
Q 66.40625 42.578125 64.15625 43.984375 
Q 61.921875 45.40625 58.890625 45.40625 
Q 53.421875 45.40625 49.796875 41.765625 
Q 46.1875 38.140625 46.1875 30.125 
L 46.1875 0 
L 37.40625 0 
L 37.40625 33.6875 
Q 37.40625 39.546875 35.25 42.46875 
Q 33.109375 45.40625 28.21875 45.40625 
Q 24.515625 45.40625 21.359375 43.453125 
Q 18.21875 41.5 16.796875 37.734375 
Q 15.375 33.984375 15.375 26.90625 
L 15.375 0 
z
" id="ArialMT-109"/>
     </defs>
     <g transform="translate(216.834375 29.17375)scale(0.1 -0.1)">
      <use xlink:href="#ArialMT-119"/>
      <use x="72.216797" xlink:href="#ArialMT-105"/>
      <use x="94.433594" xlink:href="#ArialMT-116"/>
      <use x="122.216797" xlink:href="#ArialMT-104"/>
      <use x="177.832031" xlink:href="#ArialMT-32"/>
      <use x="205.615234" xlink:href="#ArialMT-116"/>
      <use x="233.398438" xlink:href="#ArialMT-100"/>
      <use x="289.013672" xlink:href="#ArialMT-84"/>
      <use x="338.972656" xlink:href="#ArialMT-111"/>
      <use x="394.587891" xlink:href="#ArialMT-109"/>
      <use x="477.888672" xlink:href="#ArialMT-97"/>
      <use x="533.503906" xlink:href="#ArialMT-116"/>
      <use x="561.287109" xlink:href="#ArialMT-111"/>
     </g>
    </g>
   </g>
  </g>
 </g>
 <defs>
  <clipPath id="pd792137e79">
   <rect height="172.28608" width="290" x="41.245313" y="43.606972"/>
  </clipPath>
 </defs>
</svg>
