<!DOCTYPE svg PUBLIC "-//W3C//DTD SVG 1.1//EN" "http://www.w3.org/Graphics/SVG/1.1/DTD/svg11.dtd">
<svg xmlns:xlink="http://www.w3.org/1999/xlink" xmlns="http://www.w3.org/2000/svg" width="286.049538pt" height="137.169531pt" viewBox="0 0 286.049538 137.169531" version="1.1">
 <metadata>
  <rdf:RDF xmlns:dc="http://purl.org/dc/elements/1.1/" xmlns:cc="http://creativecommons.org/ns#" xmlns:rdf="http://www.w3.org/1999/02/22-rdf-syntax-ns#">
   <cc:Work>
    <dc:type rdf:resource="http://purl.org/dc/dcmitype/StillImage"/>
    <dc:date>2022-11-30T15:28:24.420414</dc:date>
    <dc:format>image/svg+xml</dc:format>
    <dc:creator>
     <cc:Agent>
      <dc:title>Matplotlib v3.6.2, https://matplotlib.org/</dc:title>
     </cc:Agent>
    </dc:creator>
   </cc:Work>
  </rdf:RDF>
 </metadata>
 <defs>
  <style type="text/css">*{stroke-linejoin: round; stroke-linecap: butt}</style>
 </defs>
 <g id="figure_1">
  <g id="patch_1">
   <path d="M 0 137.169531  L 286.049538 137.169531  L 286.049538 0  L 0 0  L 0 137.169531  z " style="fill: none"/>
  </g>
  <g id="axes_1">
   <g id="patch_2">
    <path d="M 46.80625 100.678906  L 278.023942 100.678906  L 278.023942 10.778906  L 46.80625 10.778906  z " style="fill: #ffffff"/>
   </g>
   <g id="matplotlib.axis_1">
    <g id="xtick_1">
     <g id="line2d_1">
      <defs>
       <path id="6595b810" d="M 0 0  L 0 3.5  " style="stroke: #000000; stroke-width: 0.8"/>
      </defs>
      <g>
       <use xlink:href="#6595b810" x="55.442843" y="100.678906" style="stroke: #000000; stroke-width: 0.8"/>
      </g>
     </g>
     <g id="text_1">
      <!-- 0 -->
      <g transform="translate(52.662374 114.836719) scale(0.1 -0.1)">
       <defs>
        <path id="aa94918f" d="M 266 2259  Q 266 3072 433 3567  Q 600 4063 929 4331  Q 1259 4600 1759 4600  Q 2128 4600 2406 4451  Q 2684 4303 2865 4023  Q 3047 3744 3150 3342  Q 3253 2941 3253 2259  Q 3253 1453 3087 958  Q 2922 463 2592 192  Q 2263 -78 1759 -78  Q 1097 -78 719 397  Q 266 969 266 2259  z M 844 2259  Q 844 1131 1108 757  Q 1372 384 1759 384  Q 2147 384 2411 759  Q 2675 1134 2675 2259  Q 2675 3391 2411 3762  Q 2147 4134 1753 4134  Q 1366 4134 1134 3806  Q 844 3388 844 2259  z " transform="scale(0.015625)"/>
       </defs>
       <use xlink:href="#aa94918f"/>
      </g>
     </g>
    </g>
    <g id="xtick_2">
     <g id="line2d_2">
      <g>
       <use xlink:href="#6595b810" x="109.209165" y="100.678906" style="stroke: #000000; stroke-width: 0.8"/>
      </g>
     </g>
     <g id="text_2">
      <!-- 50 -->
      <g transform="translate(103.648228 114.836719) scale(0.1 -0.1)">
       <defs>
        <path id="306ba128" d="M 266 1200  L 856 1250  Q 922 819 1161 601  Q 1400 384 1738 384  Q 2144 384 2425 690  Q 2706 997 2706 1503  Q 2706 1984 2436 2262  Q 2166 2541 1728 2541  Q 1456 2541 1237 2417  Q 1019 2294 894 2097  L 366 2166  L 809 4519  L 3088 4519  L 3088 3981  L 1259 3981  L 1013 2750  Q 1425 3038 1878 3038  Q 2478 3038 2890 2622  Q 3303 2206 3303 1553  Q 3303 931 2941 478  Q 2500 -78 1738 -78  Q 1113 -78 717 272  Q 322 622 266 1200  z " transform="scale(0.015625)"/>
       </defs>
       <use xlink:href="#306ba128"/>
       <use xlink:href="#aa94918f" x="55.615234"/>
      </g>
     </g>
    </g>
    <g id="xtick_3">
     <g id="line2d_3">
      <g>
       <use xlink:href="#6595b810" x="162.975487" y="100.678906" style="stroke: #000000; stroke-width: 0.8"/>
      </g>
     </g>
     <g id="text_3">
      <!-- 100 -->
      <g transform="translate(154.634081 114.836719) scale(0.1 -0.1)">
       <defs>
        <path id="d207069d" d="M 2384 0  L 1822 0  L 1822 3584  Q 1619 3391 1289 3197  Q 959 3003 697 2906  L 697 3450  Q 1169 3672 1522 3987  Q 1875 4303 2022 4600  L 2384 4600  L 2384 0  z " transform="scale(0.015625)"/>
       </defs>
       <use xlink:href="#d207069d"/>
       <use xlink:href="#aa94918f" x="55.615234"/>
       <use xlink:href="#aa94918f" x="111.230469"/>
      </g>
     </g>
    </g>
    <g id="xtick_4">
     <g id="line2d_4">
      <g>
       <use xlink:href="#6595b810" x="216.74181" y="100.678906" style="stroke: #000000; stroke-width: 0.8"/>
      </g>
     </g>
     <g id="text_4">
      <!-- 150 -->
      <g transform="translate(208.400404 114.836719) scale(0.1 -0.1)">
       <use xlink:href="#d207069d"/>
       <use xlink:href="#306ba128" x="55.615234"/>
       <use xlink:href="#aa94918f" x="111.230469"/>
      </g>
     </g>
    </g>
    <g id="xtick_5">
     <g id="line2d_5">
      <g>
       <use xlink:href="#6595b810" x="270.508132" y="100.678906" style="stroke: #000000; stroke-width: 0.8"/>
      </g>
     </g>
     <g id="text_5">
      <!-- 200 -->
      <g transform="translate(262.166726 114.836719) scale(0.1 -0.1)">
       <defs>
        <path id="60b0387b" d="M 3222 541  L 3222 0  L 194 0  Q 188 203 259 391  Q 375 700 629 1000  Q 884 1300 1366 1694  Q 2113 2306 2375 2664  Q 2638 3022 2638 3341  Q 2638 3675 2398 3904  Q 2159 4134 1775 4134  Q 1369 4134 1125 3890  Q 881 3647 878 3216  L 300 3275  Q 359 3922 746 4261  Q 1134 4600 1788 4600  Q 2447 4600 2831 4234  Q 3216 3869 3216 3328  Q 3216 3053 3103 2787  Q 2991 2522 2730 2228  Q 2469 1934 1863 1422  Q 1356 997 1212 845  Q 1069 694 975 541  L 3222 541  z " transform="scale(0.015625)"/>
       </defs>
       <use xlink:href="#60b0387b"/>
       <use xlink:href="#aa94918f" x="55.615234"/>
       <use xlink:href="#aa94918f" x="111.230469"/>
      </g>
     </g>
    </g>
    <g id="text_6">
     <!-- Place Field Location -->
     <g transform="translate(117.390877 127.982031) scale(0.1 -0.1)">
      <defs>
       <path id="0a34ade1" d="M 275 0  L 1234 4581  L 3147 4581  Q 3644 4581 3892 4467  Q 4141 4353 4303 4076  Q 4466 3800 4466 3456  Q 4466 3172 4350 2878  Q 4234 2584 4057 2393  Q 3881 2203 3700 2106  Q 3519 2009 3313 1963  Q 2872 1859 2422 1859  L 1275 1859  L 888 0  L 275 0  z M 1384 2378  L 2394 2378  Q 2981 2378 3256 2504  Q 3531 2631 3697 2890  Q 3863 3150 3863 3441  Q 3863 3666 3775 3808  Q 3688 3950 3528 4017  Q 3369 4084 2916 4084  L 1741 4084  L 1384 2378  z " transform="scale(0.015625)"/>
       <path id="2128dd10" d="M 169 0  L 1125 4581  L 1691 4581  L 734 0  L 169 0  z " transform="scale(0.015625)"/>
       <path id="d4bef3fd" d="M 2450 413  Q 2156 159 1884 42  Q 1613 -75 1303 -75  Q 844 -75 562 195  Q 281 466 281 888  Q 281 1166 407 1380  Q 534 1594 743 1723  Q 953 1853 1256 1909  Q 1447 1947 1980 1969  Q 2513 1991 2744 2081  Q 2809 2313 2809 2466  Q 2809 2663 2666 2775  Q 2469 2931 2091 2931  Q 1734 2931 1507 2773  Q 1281 2616 1178 2325  L 606 2375  Q 781 2869 1161 3131  Q 1541 3394 2119 3394  Q 2734 3394 3094 3100  Q 3369 2881 3369 2531  Q 3369 2266 3291 1916  L 3106 1091  Q 3019 697 3019 450  Q 3019 294 3088 0  L 2516 0  Q 2469 163 2450 413  z M 2659 1681  Q 2541 1634 2405 1609  Q 2269 1584 1950 1556  Q 1456 1513 1253 1445  Q 1050 1378 947 1231  Q 844 1084 844 906  Q 844 669 1008 516  Q 1172 363 1475 363  Q 1756 363 2015 511  Q 2275 659 2425 925  Q 2575 1191 2659 1681  z " transform="scale(0.015625)"/>
       <path id="3d33d040" d="M 2503 1209  L 3069 1150  Q 2856 528 2464 226  Q 2072 -75 1572 -75  Q 1031 -75 695 275  Q 359 625 359 1253  Q 359 1797 575 2322  Q 791 2847 1192 3120  Q 1594 3394 2109 3394  Q 2644 3394 2956 3092  Q 3269 2791 3269 2294  L 2713 2256  Q 2709 2572 2529 2750  Q 2350 2928 2056 2928  Q 1716 2928 1466 2712  Q 1216 2497 1073 2058  Q 931 1619 931 1213  Q 931 788 1118 575  Q 1306 363 1581 363  Q 1856 363 2107 572  Q 2359 781 2503 1209  z " transform="scale(0.015625)"/>
       <path id="b95c31ee" d="M 2650 1128  L 3200 1072  Q 3081 663 2654 294  Q 2228 -75 1638 -75  Q 1269 -75 961 95  Q 653 266 492 591  Q 331 916 331 1331  Q 331 1875 582 2386  Q 834 2897 1234 3145  Q 1634 3394 2100 3394  Q 2694 3394 3048 3025  Q 3403 2656 3403 2019  Q 3403 1775 3359 1519  L 916 1519  Q 903 1422 903 1344  Q 903 878 1117 633  Q 1331 388 1641 388  Q 1931 388 2212 578  Q 2494 769 2650 1128  z M 1006 1950  L 2869 1950  Q 2872 2038 2872 2075  Q 2872 2500 2659 2726  Q 2447 2953 2113 2953  Q 1750 2953 1451 2703  Q 1153 2453 1006 1950  z " transform="scale(0.015625)"/>
       <path id="7944528f" transform="scale(0.015625)"/>
       <path id="496e99cf" d="M 291 0  L 1247 4581  L 4225 4581  L 4116 4059  L 1750 4059  L 1447 2600  L 3856 2600  L 3747 2078  L 1338 2078  L 903 0  L 291 0  z " transform="scale(0.015625)"/>
       <path id="16f42e12" d="M 1016 3941  L 1150 4581  L 1713 4581  L 1578 3941  L 1016 3941  z M 191 0  L 884 3319  L 1450 3319  L 756 0  L 191 0  z " transform="scale(0.015625)"/>
       <path id="1f0bbb10" d="M 2450 481  Q 1966 -75 1438 -75  Q 966 -75 652 273  Q 338 622 338 1284  Q 338 1891 586 2392  Q 834 2894 1207 3144  Q 1581 3394 1956 3394  Q 2575 3394 2891 2797  L 3266 4581  L 3828 4581  L 2872 0  L 2350 0  L 2450 481  z M 900 1391  Q 900 1044 969 844  Q 1038 644 1203 511  Q 1369 378 1600 378  Q 1984 378 2297 778  Q 2716 1309 2716 2091  Q 2716 2484 2509 2706  Q 2303 2928 1991 2928  Q 1788 2928 1620 2837  Q 1453 2747 1289 2530  Q 1125 2313 1012 1978  Q 900 1644 900 1391  z " transform="scale(0.015625)"/>
       <path id="912d7b3c" d="M 256 0  L 1213 4581  L 1825 4581  L 978 519  L 3356 519  L 3247 0  L 256 0  z " transform="scale(0.015625)"/>
       <path id="f10051f6" d="M 313 1259  Q 313 2231 884 2869  Q 1356 3394 2122 3394  Q 2722 3394 3089 3019  Q 3456 2644 3456 2006  Q 3456 1434 3225 942  Q 2994 450 2567 187  Q 2141 -75 1669 -75  Q 1281 -75 964 90  Q 647 256 480 559  Q 313 863 313 1259  z M 878 1316  Q 878 847 1103 605  Q 1328 363 1675 363  Q 1856 363 2034 436  Q 2213 509 2366 659  Q 2519 809 2626 1001  Q 2734 1194 2800 1416  Q 2897 1725 2897 2009  Q 2897 2459 2670 2707  Q 2444 2956 2100 2956  Q 1834 2956 1615 2829  Q 1397 2703 1220 2459  Q 1044 2216 961 1892  Q 878 1569 878 1316  z " transform="scale(0.015625)"/>
       <path id="f4e33aac" d="M 1534 459  L 1441 -3  Q 1238 -56 1047 -56  Q 709 -56 509 109  Q 359 234 359 450  Q 359 559 441 953  L 844 2881  L 397 2881  L 488 3319  L 934 3319  L 1106 4134  L 1753 4525  L 1500 3319  L 2056 3319  L 1963 2881  L 1409 2881  L 1025 1047  Q 953 697 953 628  Q 953 528 1011 475  Q 1069 422 1200 422  Q 1388 422 1534 459  z " transform="scale(0.015625)"/>
       <path id="a4d8cf97" d="M 213 0  L 906 3319  L 1419 3319  L 1297 2741  Q 1631 3081 1922 3237  Q 2213 3394 2516 3394  Q 2919 3394 3148 3175  Q 3378 2956 3378 2591  Q 3378 2406 3297 2009  L 2875 0  L 2309 0  L 2750 2103  Q 2816 2409 2816 2556  Q 2816 2722 2702 2825  Q 2588 2928 2372 2928  Q 1938 2928 1598 2615  Q 1259 2303 1100 1544  L 778 0  L 213 0  z " transform="scale(0.015625)"/>
      </defs>
      <use xlink:href="#0a34ade1"/>
      <use xlink:href="#2128dd10" x="66.699219"/>
      <use xlink:href="#d4bef3fd" x="88.916016"/>
      <use xlink:href="#3d33d040" x="144.53125"/>
      <use xlink:href="#b95c31ee" x="194.53125"/>
      <use xlink:href="#7944528f" x="250.146484"/>
      <use xlink:href="#496e99cf" x="277.929688"/>
      <use xlink:href="#16f42e12" x="339.013672"/>
      <use xlink:href="#b95c31ee" x="361.230469"/>
      <use xlink:href="#2128dd10" x="416.845703"/>
      <use xlink:href="#1f0bbb10" x="439.0625"/>
      <use xlink:href="#7944528f" x="494.677734"/>
      <use xlink:href="#912d7b3c" x="522.460938"/>
      <use xlink:href="#f10051f6" x="578.076172"/>
      <use xlink:href="#3d33d040" x="633.691406"/>
      <use xlink:href="#d4bef3fd" x="683.691406"/>
      <use xlink:href="#f4e33aac" x="739.306641"/>
      <use xlink:href="#16f42e12" x="767.089844"/>
      <use xlink:href="#f10051f6" x="789.306641"/>
      <use xlink:href="#a4d8cf97" x="844.921875"/>
     </g>
    </g>
   </g>
   <g id="matplotlib.axis_2">
    <g id="ytick_1">
     <g id="line2d_6">
      <defs>
       <path id="0e619085" d="M 0 0  L -3.5 0  " style="stroke: #000000; stroke-width: 0.8"/>
      </defs>
      <g>
       <use xlink:href="#0e619085" x="46.80625" y="100.678906" style="stroke: #000000; stroke-width: 0.8"/>
      </g>
     </g>
     <g id="text_7">
      <!-- 0.00 -->
      <g transform="translate(20.345313 104.257812) scale(0.1 -0.1)">
       <defs>
        <path id="b08fd710" d="M 581 0  L 581 641  L 1222 641  L 1222 0  L 581 0  z " transform="scale(0.015625)"/>
       </defs>
       <use xlink:href="#aa94918f"/>
       <use xlink:href="#b08fd710" x="55.615234"/>
       <use xlink:href="#aa94918f" x="83.398438"/>
       <use xlink:href="#aa94918f" x="139.013672"/>
      </g>
     </g>
    </g>
    <g id="ytick_2">
     <g id="line2d_7">
      <g>
       <use xlink:href="#0e619085" x="46.80625" y="78.203906" style="stroke: #000000; stroke-width: 0.8"/>
      </g>
     </g>
     <g id="text_8">
      <!-- 0.25 -->
      <g transform="translate(20.345313 81.782812) scale(0.1 -0.1)">
       <use xlink:href="#aa94918f"/>
       <use xlink:href="#b08fd710" x="55.615234"/>
       <use xlink:href="#60b0387b" x="83.398438"/>
       <use xlink:href="#306ba128" x="139.013672"/>
      </g>
     </g>
    </g>
    <g id="ytick_3">
     <g id="line2d_8">
      <g>
       <use xlink:href="#0e619085" x="46.80625" y="55.728906" style="stroke: #000000; stroke-width: 0.8"/>
      </g>
     </g>
     <g id="text_9">
      <!-- 0.50 -->
      <g transform="translate(20.345313 59.307812) scale(0.1 -0.1)">
       <use xlink:href="#aa94918f"/>
       <use xlink:href="#b08fd710" x="55.615234"/>
       <use xlink:href="#306ba128" x="83.398438"/>
       <use xlink:href="#aa94918f" x="139.013672"/>
      </g>
     </g>
    </g>
    <g id="ytick_4">
     <g id="line2d_9">
      <g>
       <use xlink:href="#0e619085" x="46.80625" y="33.253906" style="stroke: #000000; stroke-width: 0.8"/>
      </g>
     </g>
     <g id="text_10">
      <!-- 0.75 -->
      <g transform="translate(20.345313 36.832813) scale(0.1 -0.1)">
       <defs>
        <path id="618762ee" d="M 303 3981  L 303 4522  L 3269 4522  L 3269 4084  Q 2831 3619 2401 2847  Q 1972 2075 1738 1259  Q 1569 684 1522 0  L 944 0  Q 953 541 1156 1306  Q 1359 2072 1739 2783  Q 2119 3494 2547 3981  L 303 3981  z " transform="scale(0.015625)"/>
       </defs>
       <use xlink:href="#aa94918f"/>
       <use xlink:href="#b08fd710" x="55.615234"/>
       <use xlink:href="#618762ee" x="83.398438"/>
       <use xlink:href="#306ba128" x="139.013672"/>
      </g>
     </g>
    </g>
    <g id="ytick_5">
     <g id="line2d_10">
      <g>
       <use xlink:href="#0e619085" x="46.80625" y="10.778906" style="stroke: #000000; stroke-width: 0.8"/>
      </g>
     </g>
     <g id="text_11">
      <!-- 1.00 -->
      <g transform="translate(20.345313 14.357813) scale(0.1 -0.1)">
       <use xlink:href="#d207069d"/>
       <use xlink:href="#b08fd710" x="55.615234"/>
       <use xlink:href="#aa94918f" x="83.398438"/>
       <use xlink:href="#aa94918f" x="139.013672"/>
      </g>
     </g>
    </g>
    <g id="text_12">
     <!-- Proportion -->
     <g transform="translate(14.357813 78.796094) rotate(-90) scale(0.1 -0.1)">
      <defs>
       <path id="0ec7e981" d="M 213 0  L 906 3319  L 1406 3319  L 1266 2641  Q 1522 3025 1767 3209  Q 2013 3394 2269 3394  Q 2438 3394 2684 3272  L 2453 2747  Q 2306 2853 2131 2853  Q 1834 2853 1521 2522  Q 1209 2191 1031 1331  L 750 0  L 213 0  z " transform="scale(0.015625)"/>
       <path id="6c1b813c" d="M -66 -1272  L 894 3319  L 1416 3319  L 1319 2856  Q 1609 3159 1839 3276  Q 2069 3394 2325 3394  Q 2800 3394 3112 3048  Q 3425 2703 3425 2059  Q 3425 1541 3253 1114  Q 3081 688 2831 428  Q 2581 169 2325 47  Q 2069 -75 1800 -75  Q 1203 -75 875 531  L 500 -1272  L -66 -1272  z M 1053 1356  Q 1053 984 1106 841  Q 1184 638 1362 513  Q 1541 388 1775 388  Q 2263 388 2563 936  Q 2863 1484 2863 2056  Q 2863 2478 2661 2708  Q 2459 2938 2159 2938  Q 1944 2938 1759 2823  Q 1575 2709 1417 2482  Q 1259 2256 1156 1928  Q 1053 1600 1053 1356  z " transform="scale(0.015625)"/>
      </defs>
      <use xlink:href="#0a34ade1"/>
      <use xlink:href="#0ec7e981" x="66.699219"/>
      <use xlink:href="#f10051f6" x="100"/>
      <use xlink:href="#6c1b813c" x="155.615234"/>
      <use xlink:href="#f10051f6" x="211.230469"/>
      <use xlink:href="#0ec7e981" x="266.845703"/>
      <use xlink:href="#f4e33aac" x="300.146484"/>
      <use xlink:href="#16f42e12" x="327.929688"/>
      <use xlink:href="#f10051f6" x="350.146484"/>
      <use xlink:href="#a4d8cf97" x="405.761719"/>
     </g>
    </g>
   </g>
   <g id="line2d_11">
    <path d="M 57.316145 100.678906  L 57.316145 100.453593  L 57.643337 100.453593  L 57.736161 99.777653  L 57.797599 99.777653  L 57.846698 99.327027  L 57.941583 99.327027  L 57.941583 99.101713  L 58.145198 99.101713  L 58.165765 98.651087  L 58.277418 98.651087  L 58.323927 98.20046  L 58.675787 98.20046  L 58.675787 97.975147  L 59.010697 97.975147  L 59.010697 97.749834  L 59.312118 97.749834  L 59.312118 97.52452  L 59.482821 97.52452  L 59.482821 97.299207  L 60.236354 97.299207  L 60.236354 97.073894  L 60.725012 97.073894  L 60.764378 96.623267  L 61.381454 96.623267  L 61.381454 96.397954  L 61.664924 96.397954  L 61.664924 96.172641  L 62.377753 96.172641  L 62.377753 95.947327  L 63.377102 95.947327  L 63.377102 95.722014  L 64.983551 95.722014  L 64.99672 95.271387  L 65.526619 95.271387  L 65.526619 95.046074  L 70.517564 95.046074  L 70.517564 94.820761  L 71.353364 94.820761  L 71.353364 94.595448  L 73.667786 94.595448  L 73.667786 94.370134  L 73.852118 94.370134  L 73.852118 94.144821  L 74.859447 94.144821  L 74.859447 93.919508  L 76.821 93.919508  L 76.821 93.694194  L 77.806641 93.694194  L 77.806641 93.468881  L 80.160801 93.468881  L 80.160801 93.243568  L 80.670571 93.243568  L 80.684983 92.792941  L 83.499631 92.792941  L 83.499631 92.567628  L 85.5944 92.567628  L 85.5944 92.342315  L 87.118936 92.342315  L 87.118936 92.117001  L 87.712046 92.117001  L 87.712046 91.891688  L 88.184494 91.891688  L 88.184494 91.666375  L 88.536353 91.666375  L 88.536353 91.441062  L 88.76571 91.441062  L 88.76571 91.215748  L 90.604994 91.215748  L 90.604994 90.990435  L 93.849785 90.990435  L 93.849785 90.765122  L 94.477367 90.765122  L 94.477367 90.539809  L 95.327842 90.539809  L 95.327842 90.314495  L 96.044358 90.314495  L 96.044358 90.089182  L 96.918408 90.089182  L 96.918408 89.863869  L 98.072985 89.863869  L 98.072985 89.638555  L 102.228091 89.638555  L 102.228091 89.413242  L 104.12679 89.413242  L 104.12679 89.187929  L 104.987573 89.187929  L 104.987573 88.962616  L 105.633614 88.962616  L 105.633614 88.737302  L 106.844702 88.737302  L 106.844702 88.511989  L 107.242686 88.511989  L 107.242686 88.286676  L 107.753678 88.286676  L 107.753678 88.061362  L 108.155788 88.061362  L 108.155788 87.836049  L 108.390713 87.836049  L 108.390713 87.610736  L 108.827922 87.610736  L 108.827922 87.385423  L 110.155139 87.385423  L 110.155139 87.160109  L 110.869444 87.160109  L 110.869444 86.934796  L 111.815851 86.934796  L 111.815851 86.709483  L 112.073893 86.709483  L 112.073893 86.484169  L 113.048468 86.484169  L 113.048468 86.258856  L 113.916839 86.258856  L 113.916839 86.033543  L 114.166939 86.033543  L 114.166939 85.80823  L 114.425539 85.80823  L 114.425539 85.582916  L 115.162165 85.582916  L 115.162165 85.357603  L 116.207267 85.357603  L 116.221873 84.906976  L 116.677367 84.906976  L 116.744975 84.45635  L 118.011693 84.45635  L 118.062872 83.78041  L 119.134947 83.78041  L 119.134947 83.555097  L 119.821428 83.555097  L 119.821428 83.329783  L 120.529892 83.329783  L 120.529892 83.10447  L 122.024327 83.10447  L 122.024327 82.879157  L 123.404144 82.879157  L 123.404144 82.653844  L 124.649107 82.653844  L 124.649107 82.42853  L 125.316681 82.42853  L 125.316681 82.203217  L 126.126939 82.203217  L 126.199139 81.75259  L 126.590045 81.75259  L 126.590045 81.527277  L 127.060155 81.527277  L 127.060155 81.301964  L 127.869183 81.301964  L 127.869183 81.076651  L 128.957196 81.076651  L 128.957196 80.851337  L 129.48086 80.851337  L 129.48086 80.626024  L 129.620648 80.626024  L 129.670408 80.175397  L 131.740045 80.175397  L 131.740045 79.950084  L 134.764699 79.950084  L 134.764699 79.724771  L 135.553603 79.724771  L 135.634199 79.274144  L 135.82997 79.274144  L 135.885605 78.823518  L 136.856591 78.823518  L 136.912752 78.372891  L 137.307836 78.372891  L 137.307836 78.147578  L 138.938694 78.147578  L 138.970569 77.696951  L 139.320096 77.696951  L 139.320096 77.471638  L 139.4605 77.471638  L 139.489812 76.795698  L 140.269897 76.795698  L 140.269897 76.570385  L 142.166632 76.570385  L 142.166632 76.345072  L 142.96326 76.345072  L 142.96326 76.119758  L 143.111802 76.119758  L 143.111802 75.894445  L 143.384769 75.894445  L 143.384769 75.669132  L 145.203438 75.669132  L 145.203438 75.443819  L 146.011889 75.443819  L 146.011889 75.218505  L 146.138327 75.218505  L 146.138327 74.993192  L 147.066576 74.993192  L 147.066576 74.767879  L 147.424584 74.767879  L 147.424584 74.542565  L 150.801791 74.542565  L 150.854618 74.091939  L 151.465525 74.091939  L 151.465525 73.866626  L 151.61729 73.866626  L 151.61729 73.641312  L 151.81717 73.641312  L 151.81717 73.415999  L 152.163249 73.415999  L 152.258218 72.740059  L 152.539547 72.740059  L 152.62562 72.289433  L 152.678562 72.289433  L 152.678562 72.064119  L 153.020344 72.064119  L 153.020344 71.838806  L 153.146606 71.838806  L 153.224502 71.388179  L 153.856807 71.388179  L 153.941647 70.486926  L 154.113782 70.486926  L 154.170834 69.810986  L 154.383696 69.810986  L 154.383696 69.585673  L 154.76454 69.585673  L 154.833199 68.68442  L 155.362345 68.68442  L 155.362345 68.459107  L 155.741802 68.459107  L 155.741802 68.233793  L 156.019683 68.233793  L 156.128825 67.783167  L 156.603333 67.783167  L 156.707484 67.107227  L 156.830675 67.107227  L 156.849789 66.6566  L 157.072384 66.6566  L 157.09167 65.980661  L 157.570588 65.980661  L 157.570588 65.755347  L 157.812645 65.755347  L 157.842017 65.304721  L 157.979811 65.304721  L 158.06082 64.854094  L 158.096248 64.854094  L 158.191897 64.403468  L 158.249135 64.403468  L 158.3167 63.727528  L 158.388092 63.727528  L 158.436769 63.051588  L 158.545444 63.051588  L 158.655209 62.600961  L 159.058881 62.600961  L 159.058881 62.375648  L 159.38388 62.375648  L 159.38388 62.150335  L 159.877865 62.150335  L 159.986827 61.699708  L 160.015839 61.699708  L 160.118152 61.249082  L 160.384002 61.249082  L 160.384002 61.023768  L 160.717583 61.023768  L 160.791541 60.122515  L 160.915752 60.122515  L 160.997789 59.446575  L 162.194394 59.446575  L 162.194394 59.221262  L 163.409547 59.221262  L 163.409547 58.995949  L 163.891494 58.995949  L 163.891494 58.770636  L 164.39911 58.770636  L 164.473876 58.320009  L 164.527026 58.320009  L 164.629253 57.869382  L 164.675197 57.869382  L 164.74366 57.418756  L 164.886975 57.418756  L 164.886975 57.193443  L 165.040151 57.193443  L 165.040151 56.968129  L 165.312649 56.968129  L 165.312649 56.742816  L 166.027316 56.742816  L 166.027316 56.517503  L 166.175689 56.517503  L 166.24827 56.066876  L 166.355053 56.066876  L 166.355053 55.841563  L 166.484645 55.841563  L 166.484645 55.61625  L 166.806826 55.61625  L 166.840138 55.165623  L 166.972049 55.165623  L 167.016422 54.714996  L 167.19842 54.714996  L 167.305049 54.26437  L 167.505099 54.26437  L 167.569125 53.813743  L 167.941988 53.813743  L 167.941988 53.58843  L 168.176177 53.58843  L 168.176177 53.363117  L 168.339798 53.363117  L 168.339798 53.137803  L 168.608804 53.137803  L 168.608804 52.91249  L 168.788941 52.91249  L 168.844566 52.461864  L 168.998191 52.461864  L 168.998191 52.23655  L 169.120159 52.23655  L 169.190102 51.335297  L 169.287638 51.335297  L 169.379175 50.884671  L 169.592396 50.884671  L 169.592396 50.659357  L 170.289872 50.659357  L 170.289872 50.434044  L 170.528499 50.434044  L 170.589966 49.983418  L 170.664138 49.983418  L 170.664138 49.758104  L 171.279238 49.758104  L 171.340362 49.082164  L 171.848774 49.082164  L 171.848774 48.856851  L 172.187754 48.856851  L 172.187754 48.631538  L 172.431452 48.631538  L 172.431452 48.406225  L 172.790591 48.406225  L 172.790591 48.180911  L 173.097493 48.180911  L 173.097493 47.955598  L 173.245519 47.955598  L 173.245519 47.730285  L 173.935619 47.730285  L 173.935619 47.504971  L 174.093129 47.504971  L 174.093129 47.279658  L 175.50248 47.279658  L 175.50248 47.054345  L 175.94836 47.054345  L 175.94836 46.829032  L 176.579456 46.829032  L 176.631155 46.378405  L 176.94997 46.378405  L 176.952373 45.927778  L 179.053815 45.927778  L 179.053815 45.702465  L 180.929216 45.702465  L 180.943755 45.251839  L 181.169169 45.251839  L 181.169169 45.026525  L 181.741145 45.026525  L 181.741145 44.801212  L 181.950099 44.801212  L 181.950099 44.575899  L 182.178094 44.575899  L 182.250977 44.125272  L 185.326162 44.125272  L 185.326162 43.899959  L 186.66497 43.899959  L 186.66497 43.674646  L 188.434799 43.674646  L 188.523754 42.998706  L 189.293472 42.998706  L 189.372793 42.548079  L 189.846256 42.548079  L 189.871752 42.097453  L 190.832469 42.097453  L 190.832469 41.872139  L 191.766347 41.872139  L 191.766347 41.646826  L 191.922508 41.646826  L 191.922508 41.421513  L 192.710164 41.421513  L 192.710164 41.196199  L 193.381876 41.196199  L 193.381876 40.970886  L 194.365175 40.970886  L 194.365175 40.745573  L 195.095808 40.745573  L 195.095808 40.52026  L 196.014614 40.52026  L 196.014614 40.294946  L 197.005509 40.294946  L 197.005509 40.069633  L 198.160481 40.069633  L 198.160481 39.84432  L 198.289806 39.84432  L 198.289806 39.619007  L 199.023698 39.619007  L 199.023698 39.393693  L 200.022527 39.393693  L 200.022527 39.16838  L 200.218554 39.16838  L 200.218554 38.943067  L 201.176503 38.943067  L 201.176503 38.717753  L 201.588619 38.717753  L 201.588619 38.49244  L 202.775579 38.49244  L 202.775579 38.267127  L 203.317798 38.267127  L 203.317798 38.041814  L 204.959744 38.041814  L 204.994567 37.591187  L 205.227093 37.591187  L 205.227093 37.365874  L 206.05581 37.365874  L 206.05581 37.14056  L 206.347551 37.14056  L 206.347551 36.915247  L 206.500095 36.915247  L 206.576636 36.464621  L 207.277532 36.464621  L 207.277532 36.239307  L 207.665104 36.239307  L 207.665104 36.013994  L 208.287411 36.013994  L 208.287411 35.788681  L 208.583878 35.788681  L 208.583878 35.563367  L 208.86587 35.563367  L 208.86587 35.338054  L 209.38367 35.338054  L 209.448925 34.662114  L 209.521661 34.662114  L 209.521661 34.436801  L 209.795553 34.436801  L 209.795553 34.211488  L 210.081148 34.211488  L 210.104611 33.760861  L 211.294119 33.760861  L 211.294119 33.535548  L 211.84264 33.535548  L 211.84264 33.310235  L 213.057185 33.310235  L 213.057185 33.084921  L 213.192216 33.084921  L 213.192216 32.859608  L 214.089039 32.859608  L 214.089039 32.634295  L 214.413057 32.634295  L 214.413057 32.408981  L 214.529498 32.408981  L 214.529498 32.183668  L 214.790116 32.183668  L 214.790116 31.958355  L 217.471284 31.958355  L 217.471284 31.733042  L 218.11417 31.733042  L 218.11417 31.507728  L 218.314723 31.507728  L 218.314723 31.282415  L 218.502753 31.282415  L 218.502753 31.057102  L 219.075755 31.057102  L 219.075755 30.831788  L 220.726464 30.831788  L 220.726464 30.606475  L 221.768121 30.606475  L 221.768121 30.381162  L 222.872248 30.381162  L 222.872248 30.155849  L 225.790671 30.155849  L 225.790671 29.930535  L 225.938056 29.930535  L 225.938056 29.705222  L 227.927163 29.705222  L 227.927163 29.479909  L 228.512998 29.479909  L 228.512998 29.254595  L 229.128089 29.254595  L 229.128089 29.029282  L 230.407243 29.029282  L 230.407243 28.803969  L 230.714954 28.803969  L 230.734786 28.353342  L 232.236533 28.353342  L 232.236533 28.128029  L 233.089976 28.128029  L 233.089976 27.902716  L 233.489379 27.902716  L 233.489379 27.677402  L 234.603884 27.677402  L 234.603884 27.452089  L 235.476476 27.452089  L 235.476476 27.226776  L 235.686771 27.226776  L 235.686771 27.001463  L 235.803023 27.001463  L 235.803023 26.776149  L 236.341992 26.776149  L 236.341992 26.550836  L 236.464651 26.550836  L 236.513221 26.10021  L 237.468294 26.10021  L 237.468294 25.874896  L 237.58112 25.874896  L 237.58112 25.649583  L 239.440031 25.649583  L 239.440031 25.42427  L 240.110556 25.42427  L 240.110556 25.198956  L 241.091102 25.198956  L 241.091102 24.973643  L 241.320497 24.973643  L 241.320497 24.74833  L 241.796234 24.74833  L 241.796234 24.523017  L 244.213509 24.523017  L 244.213509 24.297703  L 245.2224 24.297703  L 245.2224 24.07239  L 247.902825 24.07239  L 247.902825 23.847077  L 258.656761 23.847077  L 258.656761 23.621763  L 259.102816 23.621763  L 259.102816 23.39645  L 259.372773 23.39645  L 259.400417 22.945824  L 259.517398 22.945824  L 259.517398 22.72051  L 260.145616 22.72051  L 260.184259 22.269884  L 260.536089 22.269884  L 260.609945 21.819257  L 260.997812 21.819257  L 261.086598 21.368631  L 261.155699 21.368631  L 261.155699 21.143317  L 261.460185 21.143317  L 261.550246 20.467377  L 261.939944 20.467377  L 261.939944 20.242064  L 262.091401 20.242064  L 262.18371 19.791438  L 262.291297 19.791438  L 262.301444 19.340811  L 262.53125 19.340811  L 262.596846 18.890184  L 262.787927 18.890184  L 262.787927 18.664871  L 262.902347 18.664871  L 262.902347 18.439558  L 263.022537 18.439558  L 263.063087 17.763618  L 263.749683 17.763618  L 263.749683 17.538305  L 264.146833 17.538305  L 264.206917 17.087678  L 264.480966 17.087678  L 264.480966 16.862365  L 264.771084 16.862365  L 264.795646 16.411738  L 265.479698 16.411738  L 265.479698 16.186425  L 265.618733 16.186425  L 265.637578 15.735798  L 265.749066 15.735798  L 265.794902 15.285172  L 265.940018 15.285172  L 265.940018 15.059859  L 266.101913 15.059859  L 266.111116 14.609232  L 266.288362 14.609232  L 266.337701 14.158605  L 266.528438 14.158605  L 266.633046 13.482666  L 266.697711 13.482666  L 266.768821 12.806726  L 266.827241 12.806726  L 266.918364 12.356099  L 267.02988 12.356099  L 267.1168 11.454846  L 267.149109 11.454846  L 267.149109 11.229533  L 267.261605 11.229533  L 267.27219 10.778906  L 267.27219 10.778906  " clip-path="url(#p90adc892ec)" style="fill: none; stroke: #2e91e5; stroke-width: 1.5; stroke-linecap: square"/>
   </g>
   <g id="line2d_12">
    <path d="M 57.585729 100.678906  L 57.681539 98.80599  L 58.465076 98.80599  L 58.465076 97.869531  L 60.644289 97.869531  L 60.644289 96.933073  L 69.890931 96.933073  L 69.890931 95.996615  L 81.227139 95.996615  L 81.227139 95.060156  L 81.901196 95.060156  L 81.901196 94.123698  L 82.116956 94.123698  L 82.116956 93.18724  L 82.770844 93.18724  L 82.770844 92.250781  L 83.010953 92.250781  L 83.010953 91.314323  L 83.230144 91.314323  L 83.230144 90.377865  L 85.574773 90.377865  L 85.574773 89.441406  L 86.423348 89.441406  L 86.423348 88.504948  L 88.010896 88.504948  L 88.010896 87.56849  L 98.798256 87.56849  L 98.798256 86.632031  L 99.01426 86.632031  L 99.01426 85.695573  L 104.510764 85.695573  L 104.528872 83.822656  L 115.485764 83.822656  L 115.485764 82.886198  L 115.905542 82.886198  L 115.905542 81.94974  L 116.108287 81.94974  L 116.108287 81.013281  L 122.518117 81.013281  L 122.518117 80.076823  L 125.598905 80.076823  L 125.598905 79.140365  L 126.749325 79.140365  L 126.749325 78.203906  L 127.989453 78.203906  L 127.989453 77.267448  L 135.895041 77.267448  L 135.895041 76.33099  L 138.243304 76.33099  L 138.243304 75.394531  L 141.050572 75.394531  L 141.050572 74.458073  L 142.471672 74.458073  L 142.471672 73.521615  L 143.957331 73.521615  L 143.957331 72.585156  L 146.838317 72.585156  L 146.838317 71.648698  L 147.198919 71.648698  L 147.198919 70.71224  L 148.303876 70.71224  L 148.303876 69.775781  L 151.613372 69.775781  L 151.613372 68.839323  L 151.830802 68.839323  L 151.830802 67.902865  L 152.41652 67.902865  L 152.41652 66.966406  L 152.980201 66.966406  L 153.037089 65.09349  L 153.161603 65.09349  L 153.161603 64.157031  L 154.302205 64.157031  L 154.302205 63.220573  L 154.47886 63.220573  L 154.47886 62.284115  L 155.121722 62.284115  L 155.121722 61.347656  L 155.443002 61.347656  L 155.443002 60.411198  L 156.12435 60.411198  L 156.209247 58.538281  L 156.590393 58.538281  L 156.590393 57.601823  L 156.787892 57.601823  L 156.806234 55.728906  L 157.612491 55.728906  L 157.627964 53.85599  L 157.786786 53.85599  L 157.786786 52.919531  L 157.904091 52.919531  L 157.904091 51.983073  L 158.724464 51.983073  L 158.724464 51.046615  L 159.377962 51.046615  L 159.377962 50.110156  L 159.827381 50.110156  L 159.827381 49.173698  L 160.196324 49.173698  L 160.196324 48.23724  L 164.637697 48.23724  L 164.637697 47.300781  L 165.992621 47.300781  L 165.992621 46.364323  L 166.34684 46.364323  L 166.34684 45.427865  L 167.993732 45.427865  L 167.993732 44.491406  L 169.644346 44.491406  L 169.644346 43.554948  L 174.190319 43.554948  L 174.190319 42.61849  L 175.171642 42.61849  L 175.171642 41.682031  L 177.842262 41.682031  L 177.842262 40.745573  L 178.810501 40.745573  L 178.810501 39.809115  L 180.888084 39.809115  L 180.888084 38.872656  L 181.369495 38.872656  L 181.369495 37.936198  L 181.947603 37.936198  L 181.947603 36.99974  L 185.174843 36.99974  L 185.174843 36.063281  L 186.857539 36.063281  L 186.857539 35.126823  L 189.090667 35.126823  L 189.090667 34.190365  L 195.288359 34.190365  L 195.288359 33.253906  L 197.514978 33.253906  L 197.514978 32.317448  L 199.667896 32.317448  L 199.667896 31.38099  L 200.592993 31.38099  L 200.592993 30.444531  L 202.664078 30.444531  L 202.664078 29.508073  L 206.606872 29.508073  L 206.606872 28.571615  L 208.816382 28.571615  L 208.816382 27.635156  L 212.373982 27.635156  L 212.373982 26.698698  L 216.371573 26.698698  L 216.371573 25.76224  L 217.808764 25.76224  L 217.808764 24.825781  L 218.066165 24.825781  L 218.129386 22.952865  L 229.629271 22.952865  L 229.629271 22.016406  L 246.454328 22.016406  L 246.454328 21.079948  L 248.686033 21.079948  L 248.686033 20.14349  L 249.679531 20.14349  L 249.679531 19.207031  L 249.937904 19.207031  L 249.937904 18.270573  L 256.22702 18.270573  L 256.22702 17.334115  L 256.867284 17.334115  L 256.867284 16.397656  L 257.222373 16.397656  L 257.222373 15.461198  L 264.226105 15.461198  L 264.226105 14.52474  L 266.101913 14.52474  L 266.101913 13.588281  L 266.258221 13.588281  L 266.258221 12.651823  L 267.412103 12.651823  L 267.514047 10.778906  L 267.514047 10.778906  " clip-path="url(#p90adc892ec)" style="fill: none; stroke: #e15f99; stroke-width: 1.5; stroke-linecap: square"/>
   </g>
   <g id="patch_3">
    <path d="M 46.80625 100.678906  L 46.80625 10.778906  " style="fill: none; stroke: #000000; stroke-width: 0.8; stroke-linejoin: miter; stroke-linecap: square"/>
   </g>
   <g id="patch_4">
    <path d="M 278.023942 100.678906  L 278.023942 10.778906  " style="fill: none; stroke: #000000; stroke-width: 0.8; stroke-linejoin: miter; stroke-linecap: square"/>
   </g>
   <g id="patch_5">
    <path d="M 46.80625 100.678906  L 278.023942 100.678906  " style="fill: none; stroke: #000000; stroke-width: 0.8; stroke-linejoin: miter; stroke-linecap: square"/>
   </g>
   <g id="patch_6">
    <path d="M 46.80625 10.778906  L 278.023942 10.778906  " style="fill: none; stroke: #000000; stroke-width: 0.8; stroke-linejoin: miter; stroke-linecap: square"/>
   </g>
   <g id="legend_1">
    <g id="patch_7">
     <path d="M 53.80625 47.069531  L 102.489063 47.069531  Q 104.489063 47.069531 104.489063 45.069531  L 104.489063 17.778906  Q 104.489063 15.778906 102.489063 15.778906  L 53.80625 15.778906  Q 51.80625 15.778906 51.80625 17.778906  L 51.80625 45.069531  Q 51.80625 47.069531 53.80625 47.069531  z " style="fill: #ffffff; opacity: 0.8; stroke: #cccccc; stroke-linejoin: miter"/>
    </g>
    <g id="line2d_13">
     <path d="M 55.80625 23.436719  L 65.80625 23.436719  L 65.80625 23.436719  L 75.80625 23.436719  L 75.80625 23.436719  " style="fill: none; stroke: #e15f99; stroke-width: 1.5; stroke-linecap: square"/>
    </g>
    <g id="text_13">
     <!-- drift -->
     <g transform="translate(83.80625 26.936719) scale(0.1 -0.1)">
      <defs>
       <path id="d22f8e73" d="M 2575 0  L 2575 419  Q 2259 -75 1647 -75  Q 1250 -75 917 144  Q 584 363 401 755  Q 219 1147 219 1656  Q 219 2153 384 2558  Q 550 2963 881 3178  Q 1213 3394 1622 3394  Q 1922 3394 2156 3267  Q 2391 3141 2538 2938  L 2538 4581  L 3097 4581  L 3097 0  L 2575 0  z M 797 1656  Q 797 1019 1065 703  Q 1334 388 1700 388  Q 2069 388 2326 689  Q 2584 991 2584 1609  Q 2584 2291 2321 2609  Q 2059 2928 1675 2928  Q 1300 2928 1048 2622  Q 797 2316 797 1656  z " transform="scale(0.015625)"/>
       <path id="07485ca7" d="M 416 0  L 416 3319  L 922 3319  L 922 2816  Q 1116 3169 1280 3281  Q 1444 3394 1641 3394  Q 1925 3394 2219 3213  L 2025 2691  Q 1819 2813 1613 2813  Q 1428 2813 1281 2702  Q 1134 2591 1072 2394  Q 978 2094 978 1738  L 978 0  L 416 0  z " transform="scale(0.015625)"/>
       <path id="620408f9" d="M 425 3934  L 425 4581  L 988 4581  L 988 3934  L 425 3934  z M 425 0  L 425 3319  L 988 3319  L 988 0  L 425 0  z " transform="scale(0.015625)"/>
       <path id="8d65630e" d="M 556 0  L 556 2881  L 59 2881  L 59 3319  L 556 3319  L 556 3672  Q 556 4006 616 4169  Q 697 4388 901 4523  Q 1106 4659 1475 4659  Q 1713 4659 2000 4603  L 1916 4113  Q 1741 4144 1584 4144  Q 1328 4144 1222 4034  Q 1116 3925 1116 3625  L 1116 3319  L 1763 3319  L 1763 2881  L 1116 2881  L 1116 0  L 556 0  z " transform="scale(0.015625)"/>
       <path id="ea19b803" d="M 1650 503  L 1731 6  Q 1494 -44 1306 -44  Q 1000 -44 831 53  Q 663 150 594 308  Q 525 466 525 972  L 525 2881  L 113 2881  L 113 3319  L 525 3319  L 525 4141  L 1084 4478  L 1084 3319  L 1650 3319  L 1650 2881  L 1084 2881  L 1084 941  Q 1084 700 1114 631  Q 1144 563 1211 522  Q 1278 481 1403 481  Q 1497 481 1650 503  z " transform="scale(0.015625)"/>
      </defs>
      <use xlink:href="#d22f8e73"/>
      <use xlink:href="#07485ca7" x="55.615234"/>
      <use xlink:href="#620408f9" x="88.916016"/>
      <use xlink:href="#8d65630e" x="111.132812"/>
      <use xlink:href="#ea19b803" x="138.916016"/>
     </g>
    </g>
    <g id="line2d_14">
     <path d="M 55.80625 37.582031  L 65.80625 37.582031  L 65.80625 37.582031  L 75.80625 37.582031  L 75.80625 37.582031  " style="fill: none; stroke: #2e91e5; stroke-width: 1.5; stroke-linecap: square"/>
    </g>
    <g id="text_14">
     <!-- hub -->
     <g transform="translate(83.80625 41.082031) scale(0.1 -0.1)">
      <defs>
       <path id="df6d9f63" d="M 422 0  L 422 4581  L 984 4581  L 984 2938  Q 1378 3394 1978 3394  Q 2347 3394 2619 3248  Q 2891 3103 3008 2847  Q 3125 2591 3125 2103  L 3125 0  L 2563 0  L 2563 2103  Q 2563 2525 2380 2717  Q 2197 2909 1863 2909  Q 1613 2909 1392 2779  Q 1172 2650 1078 2428  Q 984 2206 984 1816  L 984 0  L 422 0  z " transform="scale(0.015625)"/>
       <path id="66e7b11d" d="M 2597 0  L 2597 488  Q 2209 -75 1544 -75  Q 1250 -75 995 37  Q 741 150 617 320  Q 494 491 444 738  Q 409 903 409 1263  L 409 3319  L 972 3319  L 972 1478  Q 972 1038 1006 884  Q 1059 663 1231 536  Q 1403 409 1656 409  Q 1909 409 2131 539  Q 2353 669 2445 892  Q 2538 1116 2538 1541  L 2538 3319  L 3100 3319  L 3100 0  L 2597 0  z " transform="scale(0.015625)"/>
       <path id="4db6d924" d="M 941 0  L 419 0  L 419 4581  L 981 4581  L 981 2947  Q 1338 3394 1891 3394  Q 2197 3394 2470 3270  Q 2744 3147 2920 2923  Q 3097 2700 3197 2384  Q 3297 2069 3297 1709  Q 3297 856 2875 390  Q 2453 -75 1863 -75  Q 1275 -75 941 416  L 941 0  z M 934 1684  Q 934 1088 1097 822  Q 1363 388 1816 388  Q 2184 388 2453 708  Q 2722 1028 2722 1663  Q 2722 2313 2464 2622  Q 2206 2931 1841 2931  Q 1472 2931 1203 2611  Q 934 2291 934 1684  z " transform="scale(0.015625)"/>
      </defs>
      <use xlink:href="#df6d9f63"/>
      <use xlink:href="#66e7b11d" x="55.615234"/>
      <use xlink:href="#4db6d924" x="111.230469"/>
     </g>
    </g>
   </g>
  </g>
 </g>
 <defs>
  <clipPath id="p90adc892ec">
   <rect x="46.80625" y="10.778906" width="231.217692" height="89.9"/>
  </clipPath>
 </defs>
</svg>
