<?xml version="1.0" encoding="utf-8" standalone="no"?>
<!DOCTYPE svg PUBLIC "-//W3C//DTD SVG 1.1//EN"
  "http://www.w3.org/Graphics/SVG/1.1/DTD/svg11.dtd">
<!-- Created with matplotlib (https://matplotlib.org/) -->
<svg height="279.955469pt" version="1.1" viewBox="0 0 424.38125 279.955469" width="424.38125pt" xmlns="http://www.w3.org/2000/svg" xmlns:xlink="http://www.w3.org/1999/xlink">
 <defs>
  <style type="text/css">
*{stroke-linecap:butt;stroke-linejoin:round;}
  </style>
 </defs>
 <g id="figure_1">
  <g id="patch_1">
   <path d="M 0 279.955469 
L 424.38125 279.955469 
L 424.38125 0 
L 0 0 
z
" style="fill:#ffffff;"/>
  </g>
  <g id="axes_1">
   <g id="patch_2">
    <path d="M 43.78125 242.399219 
L 417.18125 242.399219 
L 417.18125 10.999219 
L 43.78125 10.999219 
z
" style="fill:#ffffff;"/>
   </g>
   <g id="matplotlib.axis_1">
    <g id="xtick_1">
     <g id="line2d_1">
      <defs>
       <path d="M 0 0 
L 0 3.5 
" id="maa2f5144f3" style="stroke:#000000;stroke-width:0.8;"/>
      </defs>
      <g>
       <use style="stroke:#000000;stroke-width:0.8;" x="57.91302" xlink:href="#maa2f5144f3" y="242.399219"/>
      </g>
     </g>
     <g id="text_1">
      <!-- 0 -->
      <defs>
       <path d="M 31.78125 66.40625 
Q 24.171875 66.40625 20.328125 58.90625 
Q 16.5 51.421875 16.5 36.375 
Q 16.5 21.390625 20.328125 13.890625 
Q 24.171875 6.390625 31.78125 6.390625 
Q 39.453125 6.390625 43.28125 13.890625 
Q 47.125 21.390625 47.125 36.375 
Q 47.125 51.421875 43.28125 58.90625 
Q 39.453125 66.40625 31.78125 66.40625 
z
M 31.78125 74.21875 
Q 44.046875 74.21875 50.515625 64.515625 
Q 56.984375 54.828125 56.984375 36.375 
Q 56.984375 17.96875 50.515625 8.265625 
Q 44.046875 -1.421875 31.78125 -1.421875 
Q 19.53125 -1.421875 13.0625 8.265625 
Q 6.59375 17.96875 6.59375 36.375 
Q 6.59375 54.828125 13.0625 64.515625 
Q 19.53125 74.21875 31.78125 74.21875 
z
" id="DejaVuSans-48"/>
      </defs>
      <g transform="translate(54.73177 256.997656)scale(0.1 -0.1)">
       <use xlink:href="#DejaVuSans-48"/>
      </g>
     </g>
    </g>
    <g id="xtick_2">
     <g id="line2d_2">
      <g>
       <use style="stroke:#000000;stroke-width:0.8;" x="101.304037" xlink:href="#maa2f5144f3" y="242.399219"/>
      </g>
     </g>
     <g id="text_2">
      <!-- 25 -->
      <defs>
       <path d="M 19.1875 8.296875 
L 53.609375 8.296875 
L 53.609375 0 
L 7.328125 0 
L 7.328125 8.296875 
Q 12.9375 14.109375 22.625 23.890625 
Q 32.328125 33.6875 34.8125 36.53125 
Q 39.546875 41.84375 41.421875 45.53125 
Q 43.3125 49.21875 43.3125 52.78125 
Q 43.3125 58.59375 39.234375 62.25 
Q 35.15625 65.921875 28.609375 65.921875 
Q 23.96875 65.921875 18.8125 64.3125 
Q 13.671875 62.703125 7.8125 59.421875 
L 7.8125 69.390625 
Q 13.765625 71.78125 18.9375 73 
Q 24.125 74.21875 28.421875 74.21875 
Q 39.75 74.21875 46.484375 68.546875 
Q 53.21875 62.890625 53.21875 53.421875 
Q 53.21875 48.921875 51.53125 44.890625 
Q 49.859375 40.875 45.40625 35.40625 
Q 44.1875 33.984375 37.640625 27.21875 
Q 31.109375 20.453125 19.1875 8.296875 
z
" id="DejaVuSans-50"/>
       <path d="M 10.796875 72.90625 
L 49.515625 72.90625 
L 49.515625 64.59375 
L 19.828125 64.59375 
L 19.828125 46.734375 
Q 21.96875 47.46875 24.109375 47.828125 
Q 26.265625 48.1875 28.421875 48.1875 
Q 40.625 48.1875 47.75 41.5 
Q 54.890625 34.8125 54.890625 23.390625 
Q 54.890625 11.625 47.5625 5.09375 
Q 40.234375 -1.421875 26.90625 -1.421875 
Q 22.3125 -1.421875 17.546875 -0.640625 
Q 12.796875 0.140625 7.71875 1.703125 
L 7.71875 11.625 
Q 12.109375 9.234375 16.796875 8.0625 
Q 21.484375 6.890625 26.703125 6.890625 
Q 35.15625 6.890625 40.078125 11.328125 
Q 45.015625 15.765625 45.015625 23.390625 
Q 45.015625 31 40.078125 35.4375 
Q 35.15625 39.890625 26.703125 39.890625 
Q 22.75 39.890625 18.8125 39.015625 
Q 14.890625 38.140625 10.796875 36.28125 
z
" id="DejaVuSans-53"/>
      </defs>
      <g transform="translate(94.941537 256.997656)scale(0.1 -0.1)">
       <use xlink:href="#DejaVuSans-50"/>
       <use x="63.623047" xlink:href="#DejaVuSans-53"/>
      </g>
     </g>
    </g>
    <g id="xtick_3">
     <g id="line2d_3">
      <g>
       <use style="stroke:#000000;stroke-width:0.8;" x="144.695054" xlink:href="#maa2f5144f3" y="242.399219"/>
      </g>
     </g>
     <g id="text_3">
      <!-- 50 -->
      <g transform="translate(138.332554 256.997656)scale(0.1 -0.1)">
       <use xlink:href="#DejaVuSans-53"/>
       <use x="63.623047" xlink:href="#DejaVuSans-48"/>
      </g>
     </g>
    </g>
    <g id="xtick_4">
     <g id="line2d_4">
      <g>
       <use style="stroke:#000000;stroke-width:0.8;" x="188.08607" xlink:href="#maa2f5144f3" y="242.399219"/>
      </g>
     </g>
     <g id="text_4">
      <!-- 75 -->
      <defs>
       <path d="M 8.203125 72.90625 
L 55.078125 72.90625 
L 55.078125 68.703125 
L 28.609375 0 
L 18.3125 0 
L 43.21875 64.59375 
L 8.203125 64.59375 
z
" id="DejaVuSans-55"/>
      </defs>
      <g transform="translate(181.72357 256.997656)scale(0.1 -0.1)">
       <use xlink:href="#DejaVuSans-55"/>
       <use x="63.623047" xlink:href="#DejaVuSans-53"/>
      </g>
     </g>
    </g>
    <g id="xtick_5">
     <g id="line2d_5">
      <g>
       <use style="stroke:#000000;stroke-width:0.8;" x="231.477087" xlink:href="#maa2f5144f3" y="242.399219"/>
      </g>
     </g>
     <g id="text_5">
      <!-- 100 -->
      <defs>
       <path d="M 12.40625 8.296875 
L 28.515625 8.296875 
L 28.515625 63.921875 
L 10.984375 60.40625 
L 10.984375 69.390625 
L 28.421875 72.90625 
L 38.28125 72.90625 
L 38.28125 8.296875 
L 54.390625 8.296875 
L 54.390625 0 
L 12.40625 0 
z
" id="DejaVuSans-49"/>
      </defs>
      <g transform="translate(221.933337 256.997656)scale(0.1 -0.1)">
       <use xlink:href="#DejaVuSans-49"/>
       <use x="63.623047" xlink:href="#DejaVuSans-48"/>
       <use x="127.246094" xlink:href="#DejaVuSans-48"/>
      </g>
     </g>
    </g>
    <g id="xtick_6">
     <g id="line2d_6">
      <g>
       <use style="stroke:#000000;stroke-width:0.8;" x="274.868104" xlink:href="#maa2f5144f3" y="242.399219"/>
      </g>
     </g>
     <g id="text_6">
      <!-- 125 -->
      <g transform="translate(265.324354 256.997656)scale(0.1 -0.1)">
       <use xlink:href="#DejaVuSans-49"/>
       <use x="63.623047" xlink:href="#DejaVuSans-50"/>
       <use x="127.246094" xlink:href="#DejaVuSans-53"/>
      </g>
     </g>
    </g>
    <g id="xtick_7">
     <g id="line2d_7">
      <g>
       <use style="stroke:#000000;stroke-width:0.8;" x="318.25912" xlink:href="#maa2f5144f3" y="242.399219"/>
      </g>
     </g>
     <g id="text_7">
      <!-- 150 -->
      <g transform="translate(308.71537 256.997656)scale(0.1 -0.1)">
       <use xlink:href="#DejaVuSans-49"/>
       <use x="63.623047" xlink:href="#DejaVuSans-53"/>
       <use x="127.246094" xlink:href="#DejaVuSans-48"/>
      </g>
     </g>
    </g>
    <g id="xtick_8">
     <g id="line2d_8">
      <g>
       <use style="stroke:#000000;stroke-width:0.8;" x="361.650137" xlink:href="#maa2f5144f3" y="242.399219"/>
      </g>
     </g>
     <g id="text_8">
      <!-- 175 -->
      <g transform="translate(352.106387 256.997656)scale(0.1 -0.1)">
       <use xlink:href="#DejaVuSans-49"/>
       <use x="63.623047" xlink:href="#DejaVuSans-55"/>
       <use x="127.246094" xlink:href="#DejaVuSans-53"/>
      </g>
     </g>
    </g>
    <g id="xtick_9">
     <g id="line2d_9">
      <g>
       <use style="stroke:#000000;stroke-width:0.8;" x="405.041154" xlink:href="#maa2f5144f3" y="242.399219"/>
      </g>
     </g>
     <g id="text_9">
      <!-- 200 -->
      <g transform="translate(395.497404 256.997656)scale(0.1 -0.1)">
       <use xlink:href="#DejaVuSans-50"/>
       <use x="63.623047" xlink:href="#DejaVuSans-48"/>
       <use x="127.246094" xlink:href="#DejaVuSans-48"/>
      </g>
     </g>
    </g>
    <g id="text_10">
     <!-- Peak Location -->
     <defs>
      <path d="M 19.671875 64.796875 
L 19.671875 37.40625 
L 32.078125 37.40625 
Q 38.96875 37.40625 42.71875 40.96875 
Q 46.484375 44.53125 46.484375 51.125 
Q 46.484375 57.671875 42.71875 61.234375 
Q 38.96875 64.796875 32.078125 64.796875 
z
M 9.8125 72.90625 
L 32.078125 72.90625 
Q 44.34375 72.90625 50.609375 67.359375 
Q 56.890625 61.8125 56.890625 51.125 
Q 56.890625 40.328125 50.609375 34.8125 
Q 44.34375 29.296875 32.078125 29.296875 
L 19.671875 29.296875 
L 19.671875 0 
L 9.8125 0 
z
" id="DejaVuSans-80"/>
      <path d="M 56.203125 29.59375 
L 56.203125 25.203125 
L 14.890625 25.203125 
Q 15.484375 15.921875 20.484375 11.0625 
Q 25.484375 6.203125 34.421875 6.203125 
Q 39.59375 6.203125 44.453125 7.46875 
Q 49.3125 8.734375 54.109375 11.28125 
L 54.109375 2.78125 
Q 49.265625 0.734375 44.1875 -0.34375 
Q 39.109375 -1.421875 33.890625 -1.421875 
Q 20.796875 -1.421875 13.15625 6.1875 
Q 5.515625 13.8125 5.515625 26.8125 
Q 5.515625 40.234375 12.765625 48.109375 
Q 20.015625 56 32.328125 56 
Q 43.359375 56 49.78125 48.890625 
Q 56.203125 41.796875 56.203125 29.59375 
z
M 47.21875 32.234375 
Q 47.125 39.59375 43.09375 43.984375 
Q 39.0625 48.390625 32.421875 48.390625 
Q 24.90625 48.390625 20.390625 44.140625 
Q 15.875 39.890625 15.1875 32.171875 
z
" id="DejaVuSans-101"/>
      <path d="M 34.28125 27.484375 
Q 23.390625 27.484375 19.1875 25 
Q 14.984375 22.515625 14.984375 16.5 
Q 14.984375 11.71875 18.140625 8.90625 
Q 21.296875 6.109375 26.703125 6.109375 
Q 34.1875 6.109375 38.703125 11.40625 
Q 43.21875 16.703125 43.21875 25.484375 
L 43.21875 27.484375 
z
M 52.203125 31.203125 
L 52.203125 0 
L 43.21875 0 
L 43.21875 8.296875 
Q 40.140625 3.328125 35.546875 0.953125 
Q 30.953125 -1.421875 24.3125 -1.421875 
Q 15.921875 -1.421875 10.953125 3.296875 
Q 6 8.015625 6 15.921875 
Q 6 25.140625 12.171875 29.828125 
Q 18.359375 34.515625 30.609375 34.515625 
L 43.21875 34.515625 
L 43.21875 35.40625 
Q 43.21875 41.609375 39.140625 45 
Q 35.0625 48.390625 27.6875 48.390625 
Q 23 48.390625 18.546875 47.265625 
Q 14.109375 46.140625 10.015625 43.890625 
L 10.015625 52.203125 
Q 14.9375 54.109375 19.578125 55.046875 
Q 24.21875 56 28.609375 56 
Q 40.484375 56 46.34375 49.84375 
Q 52.203125 43.703125 52.203125 31.203125 
z
" id="DejaVuSans-97"/>
      <path d="M 9.078125 75.984375 
L 18.109375 75.984375 
L 18.109375 31.109375 
L 44.921875 54.6875 
L 56.390625 54.6875 
L 27.390625 29.109375 
L 57.625 0 
L 45.90625 0 
L 18.109375 26.703125 
L 18.109375 0 
L 9.078125 0 
z
" id="DejaVuSans-107"/>
      <path id="DejaVuSans-32"/>
      <path d="M 9.8125 72.90625 
L 19.671875 72.90625 
L 19.671875 8.296875 
L 55.171875 8.296875 
L 55.171875 0 
L 9.8125 0 
z
" id="DejaVuSans-76"/>
      <path d="M 30.609375 48.390625 
Q 23.390625 48.390625 19.1875 42.75 
Q 14.984375 37.109375 14.984375 27.296875 
Q 14.984375 17.484375 19.15625 11.84375 
Q 23.34375 6.203125 30.609375 6.203125 
Q 37.796875 6.203125 41.984375 11.859375 
Q 46.1875 17.53125 46.1875 27.296875 
Q 46.1875 37.015625 41.984375 42.703125 
Q 37.796875 48.390625 30.609375 48.390625 
z
M 30.609375 56 
Q 42.328125 56 49.015625 48.375 
Q 55.71875 40.765625 55.71875 27.296875 
Q 55.71875 13.875 49.015625 6.21875 
Q 42.328125 -1.421875 30.609375 -1.421875 
Q 18.84375 -1.421875 12.171875 6.21875 
Q 5.515625 13.875 5.515625 27.296875 
Q 5.515625 40.765625 12.171875 48.375 
Q 18.84375 56 30.609375 56 
z
" id="DejaVuSans-111"/>
      <path d="M 48.78125 52.59375 
L 48.78125 44.1875 
Q 44.96875 46.296875 41.140625 47.34375 
Q 37.3125 48.390625 33.40625 48.390625 
Q 24.65625 48.390625 19.8125 42.84375 
Q 14.984375 37.3125 14.984375 27.296875 
Q 14.984375 17.28125 19.8125 11.734375 
Q 24.65625 6.203125 33.40625 6.203125 
Q 37.3125 6.203125 41.140625 7.25 
Q 44.96875 8.296875 48.78125 10.40625 
L 48.78125 2.09375 
Q 45.015625 0.34375 40.984375 -0.53125 
Q 36.96875 -1.421875 32.421875 -1.421875 
Q 20.0625 -1.421875 12.78125 6.34375 
Q 5.515625 14.109375 5.515625 27.296875 
Q 5.515625 40.671875 12.859375 48.328125 
Q 20.21875 56 33.015625 56 
Q 37.15625 56 41.109375 55.140625 
Q 45.0625 54.296875 48.78125 52.59375 
z
" id="DejaVuSans-99"/>
      <path d="M 18.3125 70.21875 
L 18.3125 54.6875 
L 36.8125 54.6875 
L 36.8125 47.703125 
L 18.3125 47.703125 
L 18.3125 18.015625 
Q 18.3125 11.328125 20.140625 9.421875 
Q 21.96875 7.515625 27.59375 7.515625 
L 36.8125 7.515625 
L 36.8125 0 
L 27.59375 0 
Q 17.1875 0 13.234375 3.875 
Q 9.28125 7.765625 9.28125 18.015625 
L 9.28125 47.703125 
L 2.6875 47.703125 
L 2.6875 54.6875 
L 9.28125 54.6875 
L 9.28125 70.21875 
z
" id="DejaVuSans-116"/>
      <path d="M 9.421875 54.6875 
L 18.40625 54.6875 
L 18.40625 0 
L 9.421875 0 
z
M 9.421875 75.984375 
L 18.40625 75.984375 
L 18.40625 64.59375 
L 9.421875 64.59375 
z
" id="DejaVuSans-105"/>
      <path d="M 54.890625 33.015625 
L 54.890625 0 
L 45.90625 0 
L 45.90625 32.71875 
Q 45.90625 40.484375 42.875 44.328125 
Q 39.84375 48.1875 33.796875 48.1875 
Q 26.515625 48.1875 22.3125 43.546875 
Q 18.109375 38.921875 18.109375 30.90625 
L 18.109375 0 
L 9.078125 0 
L 9.078125 54.6875 
L 18.109375 54.6875 
L 18.109375 46.1875 
Q 21.34375 51.125 25.703125 53.5625 
Q 30.078125 56 35.796875 56 
Q 45.21875 56 50.046875 50.171875 
Q 54.890625 44.34375 54.890625 33.015625 
z
" id="DejaVuSans-110"/>
     </defs>
     <g transform="translate(195.874219 270.675781)scale(0.1 -0.1)">
      <use xlink:href="#DejaVuSans-80"/>
      <use x="56.677734" xlink:href="#DejaVuSans-101"/>
      <use x="118.201172" xlink:href="#DejaVuSans-97"/>
      <use x="179.480469" xlink:href="#DejaVuSans-107"/>
      <use x="237.390625" xlink:href="#DejaVuSans-32"/>
      <use x="269.177734" xlink:href="#DejaVuSans-76"/>
      <use x="323.140625" xlink:href="#DejaVuSans-111"/>
      <use x="384.322266" xlink:href="#DejaVuSans-99"/>
      <use x="439.302734" xlink:href="#DejaVuSans-97"/>
      <use x="500.582031" xlink:href="#DejaVuSans-116"/>
      <use x="539.791016" xlink:href="#DejaVuSans-105"/>
      <use x="567.574219" xlink:href="#DejaVuSans-111"/>
      <use x="628.755859" xlink:href="#DejaVuSans-110"/>
     </g>
    </g>
   </g>
   <g id="matplotlib.axis_2">
    <g id="ytick_1">
     <g id="line2d_10">
      <defs>
       <path d="M 0 0 
L -3.5 0 
" id="m3c3dedb9dd" style="stroke:#000000;stroke-width:0.8;"/>
      </defs>
      <g>
       <use style="stroke:#000000;stroke-width:0.8;" x="43.78125" xlink:href="#m3c3dedb9dd" y="242.399219"/>
      </g>
     </g>
     <g id="text_11">
      <!-- 0.0 -->
      <defs>
       <path d="M 10.6875 12.40625 
L 21 12.40625 
L 21 0 
L 10.6875 0 
z
" id="DejaVuSans-46"/>
      </defs>
      <g transform="translate(20.878125 246.198438)scale(0.1 -0.1)">
       <use xlink:href="#DejaVuSans-48"/>
       <use x="63.623047" xlink:href="#DejaVuSans-46"/>
       <use x="95.410156" xlink:href="#DejaVuSans-48"/>
      </g>
     </g>
    </g>
    <g id="ytick_2">
     <g id="line2d_11">
      <g>
       <use style="stroke:#000000;stroke-width:0.8;" x="43.78125" xlink:href="#m3c3dedb9dd" y="196.119219"/>
      </g>
     </g>
     <g id="text_12">
      <!-- 0.2 -->
      <g transform="translate(20.878125 199.918438)scale(0.1 -0.1)">
       <use xlink:href="#DejaVuSans-48"/>
       <use x="63.623047" xlink:href="#DejaVuSans-46"/>
       <use x="95.410156" xlink:href="#DejaVuSans-50"/>
      </g>
     </g>
    </g>
    <g id="ytick_3">
     <g id="line2d_12">
      <g>
       <use style="stroke:#000000;stroke-width:0.8;" x="43.78125" xlink:href="#m3c3dedb9dd" y="149.839219"/>
      </g>
     </g>
     <g id="text_13">
      <!-- 0.4 -->
      <defs>
       <path d="M 37.796875 64.3125 
L 12.890625 25.390625 
L 37.796875 25.390625 
z
M 35.203125 72.90625 
L 47.609375 72.90625 
L 47.609375 25.390625 
L 58.015625 25.390625 
L 58.015625 17.1875 
L 47.609375 17.1875 
L 47.609375 0 
L 37.796875 0 
L 37.796875 17.1875 
L 4.890625 17.1875 
L 4.890625 26.703125 
z
" id="DejaVuSans-52"/>
      </defs>
      <g transform="translate(20.878125 153.638438)scale(0.1 -0.1)">
       <use xlink:href="#DejaVuSans-48"/>
       <use x="63.623047" xlink:href="#DejaVuSans-46"/>
       <use x="95.410156" xlink:href="#DejaVuSans-52"/>
      </g>
     </g>
    </g>
    <g id="ytick_4">
     <g id="line2d_13">
      <g>
       <use style="stroke:#000000;stroke-width:0.8;" x="43.78125" xlink:href="#m3c3dedb9dd" y="103.559219"/>
      </g>
     </g>
     <g id="text_14">
      <!-- 0.6 -->
      <defs>
       <path d="M 33.015625 40.375 
Q 26.375 40.375 22.484375 35.828125 
Q 18.609375 31.296875 18.609375 23.390625 
Q 18.609375 15.53125 22.484375 10.953125 
Q 26.375 6.390625 33.015625 6.390625 
Q 39.65625 6.390625 43.53125 10.953125 
Q 47.40625 15.53125 47.40625 23.390625 
Q 47.40625 31.296875 43.53125 35.828125 
Q 39.65625 40.375 33.015625 40.375 
z
M 52.59375 71.296875 
L 52.59375 62.3125 
Q 48.875 64.0625 45.09375 64.984375 
Q 41.3125 65.921875 37.59375 65.921875 
Q 27.828125 65.921875 22.671875 59.328125 
Q 17.53125 52.734375 16.796875 39.40625 
Q 19.671875 43.65625 24.015625 45.921875 
Q 28.375 48.1875 33.59375 48.1875 
Q 44.578125 48.1875 50.953125 41.515625 
Q 57.328125 34.859375 57.328125 23.390625 
Q 57.328125 12.15625 50.6875 5.359375 
Q 44.046875 -1.421875 33.015625 -1.421875 
Q 20.359375 -1.421875 13.671875 8.265625 
Q 6.984375 17.96875 6.984375 36.375 
Q 6.984375 53.65625 15.1875 63.9375 
Q 23.390625 74.21875 37.203125 74.21875 
Q 40.921875 74.21875 44.703125 73.484375 
Q 48.484375 72.75 52.59375 71.296875 
z
" id="DejaVuSans-54"/>
      </defs>
      <g transform="translate(20.878125 107.358437)scale(0.1 -0.1)">
       <use xlink:href="#DejaVuSans-48"/>
       <use x="63.623047" xlink:href="#DejaVuSans-46"/>
       <use x="95.410156" xlink:href="#DejaVuSans-54"/>
      </g>
     </g>
    </g>
    <g id="ytick_5">
     <g id="line2d_14">
      <g>
       <use style="stroke:#000000;stroke-width:0.8;" x="43.78125" xlink:href="#m3c3dedb9dd" y="57.279219"/>
      </g>
     </g>
     <g id="text_15">
      <!-- 0.8 -->
      <defs>
       <path d="M 31.78125 34.625 
Q 24.75 34.625 20.71875 30.859375 
Q 16.703125 27.09375 16.703125 20.515625 
Q 16.703125 13.921875 20.71875 10.15625 
Q 24.75 6.390625 31.78125 6.390625 
Q 38.8125 6.390625 42.859375 10.171875 
Q 46.921875 13.96875 46.921875 20.515625 
Q 46.921875 27.09375 42.890625 30.859375 
Q 38.875 34.625 31.78125 34.625 
z
M 21.921875 38.8125 
Q 15.578125 40.375 12.03125 44.71875 
Q 8.5 49.078125 8.5 55.328125 
Q 8.5 64.0625 14.71875 69.140625 
Q 20.953125 74.21875 31.78125 74.21875 
Q 42.671875 74.21875 48.875 69.140625 
Q 55.078125 64.0625 55.078125 55.328125 
Q 55.078125 49.078125 51.53125 44.71875 
Q 48 40.375 41.703125 38.8125 
Q 48.828125 37.15625 52.796875 32.3125 
Q 56.78125 27.484375 56.78125 20.515625 
Q 56.78125 9.90625 50.3125 4.234375 
Q 43.84375 -1.421875 31.78125 -1.421875 
Q 19.734375 -1.421875 13.25 4.234375 
Q 6.78125 9.90625 6.78125 20.515625 
Q 6.78125 27.484375 10.78125 32.3125 
Q 14.796875 37.15625 21.921875 38.8125 
z
M 18.3125 54.390625 
Q 18.3125 48.734375 21.84375 45.5625 
Q 25.390625 42.390625 31.78125 42.390625 
Q 38.140625 42.390625 41.71875 45.5625 
Q 45.3125 48.734375 45.3125 54.390625 
Q 45.3125 60.0625 41.71875 63.234375 
Q 38.140625 66.40625 31.78125 66.40625 
Q 25.390625 66.40625 21.84375 63.234375 
Q 18.3125 60.0625 18.3125 54.390625 
z
" id="DejaVuSans-56"/>
      </defs>
      <g transform="translate(20.878125 61.078438)scale(0.1 -0.1)">
       <use xlink:href="#DejaVuSans-48"/>
       <use x="63.623047" xlink:href="#DejaVuSans-46"/>
       <use x="95.410156" xlink:href="#DejaVuSans-56"/>
      </g>
     </g>
    </g>
    <g id="ytick_6">
     <g id="line2d_15">
      <g>
       <use style="stroke:#000000;stroke-width:0.8;" x="43.78125" xlink:href="#m3c3dedb9dd" y="10.999219"/>
      </g>
     </g>
     <g id="text_16">
      <!-- 1.0 -->
      <g transform="translate(20.878125 14.798438)scale(0.1 -0.1)">
       <use xlink:href="#DejaVuSans-49"/>
       <use x="63.623047" xlink:href="#DejaVuSans-46"/>
       <use x="95.410156" xlink:href="#DejaVuSans-48"/>
      </g>
     </g>
    </g>
    <g id="text_17">
     <!-- Proportion -->
     <defs>
      <path d="M 41.109375 46.296875 
Q 39.59375 47.171875 37.8125 47.578125 
Q 36.03125 48 33.890625 48 
Q 26.265625 48 22.1875 43.046875 
Q 18.109375 38.09375 18.109375 28.8125 
L 18.109375 0 
L 9.078125 0 
L 9.078125 54.6875 
L 18.109375 54.6875 
L 18.109375 46.1875 
Q 20.953125 51.171875 25.484375 53.578125 
Q 30.03125 56 36.53125 56 
Q 37.453125 56 38.578125 55.875 
Q 39.703125 55.765625 41.0625 55.515625 
z
" id="DejaVuSans-114"/>
      <path d="M 18.109375 8.203125 
L 18.109375 -20.796875 
L 9.078125 -20.796875 
L 9.078125 54.6875 
L 18.109375 54.6875 
L 18.109375 46.390625 
Q 20.953125 51.265625 25.265625 53.625 
Q 29.59375 56 35.59375 56 
Q 45.5625 56 51.78125 48.09375 
Q 58.015625 40.1875 58.015625 27.296875 
Q 58.015625 14.40625 51.78125 6.484375 
Q 45.5625 -1.421875 35.59375 -1.421875 
Q 29.59375 -1.421875 25.265625 0.953125 
Q 20.953125 3.328125 18.109375 8.203125 
z
M 48.6875 27.296875 
Q 48.6875 37.203125 44.609375 42.84375 
Q 40.53125 48.484375 33.40625 48.484375 
Q 26.265625 48.484375 22.1875 42.84375 
Q 18.109375 37.203125 18.109375 27.296875 
Q 18.109375 17.390625 22.1875 11.75 
Q 26.265625 6.109375 33.40625 6.109375 
Q 40.53125 6.109375 44.609375 11.75 
Q 48.6875 17.390625 48.6875 27.296875 
z
" id="DejaVuSans-112"/>
     </defs>
     <g transform="translate(14.798438 152.495313)rotate(-90)scale(0.1 -0.1)">
      <use xlink:href="#DejaVuSans-80"/>
      <use x="58.552734" xlink:href="#DejaVuSans-114"/>
      <use x="97.416016" xlink:href="#DejaVuSans-111"/>
      <use x="158.597656" xlink:href="#DejaVuSans-112"/>
      <use x="222.074219" xlink:href="#DejaVuSans-111"/>
      <use x="283.255859" xlink:href="#DejaVuSans-114"/>
      <use x="324.369141" xlink:href="#DejaVuSans-116"/>
      <use x="363.578125" xlink:href="#DejaVuSans-105"/>
      <use x="391.361328" xlink:href="#DejaVuSans-111"/>
      <use x="452.542969" xlink:href="#DejaVuSans-110"/>
     </g>
    </g>
   </g>
   <g id="line2d_16">
    <path clip-path="url(#pf73455f022)" d="M 61.526408 242.399219 
L 61.526408 239.045596 
L 62.158903 239.045596 
L 62.158903 235.691972 
L 62.785331 235.691972 
L 62.785331 232.338349 
L 80.609065 232.338349 
L 80.609065 228.984726 
L 81.233091 228.984726 
L 81.233091 225.631103 
L 99.530404 225.631103 
L 99.530404 222.27748 
L 100.618371 222.27748 
L 100.618371 218.923856 
L 107.143535 218.923856 
L 107.143535 215.570233 
L 107.917394 215.570233 
L 107.917394 212.21661 
L 110.479789 212.21661 
L 110.479789 208.862987 
L 117.109843 208.862987 
L 117.109843 205.509364 
L 128.239873 205.509364 
L 128.239873 202.15574 
L 137.140783 202.15574 
L 137.140783 198.802117 
L 144.672735 198.802117 
L 144.759949 192.094871 
L 146.852519 192.094871 
L 146.852519 188.741248 
L 155.830646 188.741248 
L 155.830646 185.387625 
L 166.176492 185.387625 
L 166.176492 182.034001 
L 171.149066 182.034001 
L 171.149066 178.680378 
L 173.005911 178.680378 
L 173.005911 175.326755 
L 196.088972 175.326755 
L 196.088972 171.973132 
L 198.382713 171.973132 
L 198.382713 168.619509 
L 206.012769 168.619509 
L 206.012769 165.265885 
L 206.340205 165.265885 
L 206.340205 161.912262 
L 215.435922 161.912262 
L 215.435922 158.558639 
L 215.636896 158.558639 
L 215.636896 155.205016 
L 217.321667 155.205016 
L 217.321667 151.851393 
L 217.477894 151.851393 
L 217.477894 148.497769 
L 217.763026 148.497769 
L 217.763026 145.144146 
L 219.319209 145.144146 
L 219.319209 141.790523 
L 221.052364 141.790523 
L 221.052364 138.4369 
L 221.171166 138.4369 
L 221.171166 135.083277 
L 222.820892 135.083277 
L 222.820892 131.729654 
L 223.016203 131.729654 
L 223.102215 125.022407 
L 223.291553 125.022407 
L 223.291553 121.668784 
L 223.555966 121.668784 
L 223.555966 118.315161 
L 224.564252 118.315161 
L 224.615683 111.607914 
L 225.891631 111.607914 
L 225.891631 108.254291 
L 228.521636 108.254291 
L 228.521636 104.900668 
L 255.472944 104.900668 
L 255.472944 101.547045 
L 256.282602 101.547045 
L 256.282602 98.193422 
L 259.655044 98.193422 
L 259.655044 94.839798 
L 260.389081 94.839798 
L 260.389081 91.486175 
L 260.926134 91.486175 
L 260.926134 88.132552 
L 267.228355 88.132552 
L 267.228355 84.778929 
L 277.703865 84.778929 
L 277.703865 81.425306 
L 287.225874 81.425306 
L 287.225874 78.071683 
L 290.70081 78.071683 
L 290.70081 74.718059 
L 292.193972 74.718059 
L 292.193972 71.364436 
L 298.40855 71.364436 
L 298.40855 68.010813 
L 301.900729 68.010813 
L 301.900729 64.65719 
L 305.46701 64.65719 
L 305.46701 61.303567 
L 307.436838 61.303567 
L 307.436838 57.949943 
L 311.209187 57.949943 
L 311.209187 54.59632 
L 317.961797 54.59632 
L 317.961797 51.242697 
L 319.981248 51.242697 
L 319.981248 47.889074 
L 320.396709 47.889074 
L 320.396709 44.535451 
L 355.378298 44.535451 
L 355.378298 41.181827 
L 356.54328 41.181827 
L 356.54328 37.828204 
L 375.364077 37.828204 
L 375.364077 34.474581 
L 383.597151 34.474581 
L 383.597151 31.120958 
L 394.901589 31.120958 
L 394.901589 27.767335 
L 397.929254 27.767335 
L 397.929254 24.413712 
L 398.181545 24.413712 
L 398.181545 21.060088 
L 398.644615 21.060088 
L 398.644615 17.706465 
L 400.043978 17.706465 
L 400.043978 14.352842 
L 400.208523 14.352842 
L 400.208523 10.999219 
L 400.208523 10.999219 
" style="fill:none;stroke:#ff7f0e;stroke-linecap:square;stroke-width:1.5;"/>
   </g>
   <g id="line2d_17">
    <path clip-path="url(#pf73455f022)" d="M 60.753977 242.399219 
L 60.753977 242.080486 
L 60.936641 242.080486 
L 60.936641 241.761753 
L 61.464748 241.761753 
L 61.464748 241.44302 
L 61.583482 241.44302 
L 61.633942 240.486822 
L 61.713737 240.486822 
L 61.792985 239.849356 
L 61.946135 239.849356 
L 61.946135 239.530624 
L 62.265036 239.530624 
L 62.35053 238.255693 
L 62.488193 238.255693 
L 62.563261 237.618227 
L 63.131184 237.618227 
L 63.131184 237.299494 
L 63.671749 237.299494 
L 63.671749 236.980761 
L 63.81055 236.980761 
L 63.81055 236.662029 
L 64.15826 236.662029 
L 64.15826 236.343296 
L 64.32933 236.343296 
L 64.433784 235.70583 
L 64.730328 235.70583 
L 64.730328 235.387098 
L 65.650031 235.387098 
L 65.650031 235.068365 
L 66.024443 235.068365 
L 66.024443 234.749632 
L 66.438755 234.749632 
L 66.502293 234.112166 
L 66.928428 234.112166 
L 66.928428 233.793434 
L 67.49174 233.793434 
L 67.498291 233.155968 
L 67.895205 233.155968 
L 67.955828 232.518502 
L 69.106377 232.518502 
L 69.106377 232.19977 
L 69.661042 232.19977 
L 69.661042 231.881037 
L 69.876135 231.881037 
L 69.876135 231.562304 
L 70.655565 231.562304 
L 70.719385 230.606106 
L 70.91825 230.606106 
L 70.91825 230.287373 
L 71.802515 230.287373 
L 71.802515 229.96864 
L 72.792096 229.96864 
L 72.792096 229.649907 
L 73.312288 229.649907 
L 73.333545 229.012442 
L 74.188833 229.012442 
L 74.188833 228.693709 
L 75.487227 228.693709 
L 75.487227 228.374976 
L 80.784082 228.374976 
L 80.784082 228.056244 
L 82.244514 228.056244 
L 82.244514 227.737511 
L 82.430924 227.737511 
L 82.430924 227.418778 
L 83.593546 227.418778 
L 83.593546 227.100045 
L 86.754001 227.100045 
L 86.805345 226.46258 
L 87.329159 226.46258 
L 87.329159 226.143847 
L 87.626683 226.143847 
L 87.626683 225.825114 
L 88.849703 225.825114 
L 88.849703 225.506381 
L 89.031078 225.506381 
L 89.031078 225.187649 
L 89.252571 225.187649 
L 89.252571 224.868916 
L 92.418307 224.868916 
L 92.418634 224.23145 
L 94.009518 224.23145 
L 94.009518 223.912717 
L 95.474103 223.912717 
L 95.474103 223.593985 
L 96.291146 223.593985 
L 96.291146 223.275252 
L 97.32166 223.275252 
L 97.32166 222.956519 
L 97.809271 222.956519 
L 97.809271 222.637786 
L 98.303005 222.637786 
L 98.303005 222.319053 
L 98.632071 222.319053 
L 98.655332 221.681588 
L 99.126303 221.681588 
L 99.126303 221.362855 
L 103.198341 221.362855 
L 103.198341 221.044122 
L 105.397969 221.044122 
L 105.397969 220.72539 
L 106.475693 220.72539 
L 106.579422 220.087924 
L 107.043142 220.087924 
L 107.043142 219.769191 
L 108.489333 219.769191 
L 108.489333 219.450458 
L 109.040113 219.450458 
L 109.040113 219.131726 
L 109.997428 219.131726 
L 109.997428 218.812993 
L 110.759988 218.812993 
L 110.759988 218.49426 
L 111.327908 218.49426 
L 111.327908 218.175527 
L 111.698105 218.175527 
L 111.698105 217.856795 
L 112.035602 217.856795 
L 112.035602 217.538062 
L 112.191337 217.538062 
L 112.191337 217.219329 
L 113.646525 217.219329 
L 113.646525 216.900596 
L 114.666817 216.900596 
L 114.666817 216.581863 
L 115.93089 216.581863 
L 115.93089 216.263131 
L 119.904102 216.263131 
L 119.904102 215.944398 
L 120.917057 215.944398 
L 120.917057 215.625665 
L 121.150625 215.625665 
L 121.150625 215.306932 
L 122.289775 215.306932 
L 122.289775 214.988199 
L 123.446274 214.988199 
L 123.446274 214.669467 
L 124.857042 214.669467 
L 124.857042 214.350734 
L 126.720598 214.350734 
L 126.720598 214.032001 
L 127.828704 214.032001 
L 127.828704 213.713268 
L 131.897094 213.713268 
L 131.897094 213.394536 
L 133.10794 213.394536 
L 133.10794 213.075803 
L 133.427186 213.075803 
L 133.427186 212.75707 
L 136.491798 212.75707 
L 136.491798 212.438337 
L 137.326971 212.438337 
L 137.326971 212.119604 
L 137.881153 212.119604 
L 137.972326 211.482139 
L 138.923903 211.482139 
L 138.923903 211.163406 
L 140.87867 211.163406 
L 140.87867 210.844673 
L 141.521039 210.844673 
L 141.521039 210.525941 
L 142.345811 210.525941 
L 142.345811 210.207208 
L 142.529647 210.207208 
L 142.607296 209.569742 
L 142.664068 209.569742 
L 142.664068 209.251009 
L 142.99484 209.251009 
L 142.99484 208.932277 
L 143.374023 208.932277 
L 143.374023 208.613544 
L 143.964578 208.613544 
L 143.964578 208.294811 
L 144.079705 208.294811 
L 144.079705 207.976078 
L 145.119264 207.976078 
L 145.119264 207.657345 
L 146.204233 207.657345 
L 146.221912 207.01988 
L 146.970333 207.01988 
L 146.970333 206.701147 
L 147.374843 206.701147 
L 147.374843 206.382414 
L 148.229612 206.382414 
L 148.229612 206.063682 
L 148.634339 206.063682 
L 148.634339 205.744949 
L 148.902399 205.744949 
L 148.902399 205.426216 
L 149.077993 205.426216 
L 149.077993 205.107483 
L 149.318895 205.107483 
L 149.318895 204.78875 
L 150.792129 204.78875 
L 150.891915 204.151285 
L 151.977386 204.151285 
L 151.977386 203.832552 
L 152.141072 203.832552 
L 152.141072 203.513819 
L 152.293519 203.513819 
L 152.293519 203.195087 
L 152.697195 203.195087 
L 152.697195 202.876354 
L 153.037747 202.876354 
L 153.114591 202.238888 
L 153.154751 202.238888 
L 153.154751 201.920155 
L 154.303549 201.920155 
L 154.303549 201.601423 
L 154.707683 201.601423 
L 154.707683 201.28269 
L 155.269208 201.28269 
L 155.269208 200.963957 
L 155.990406 200.963957 
L 156.013979 200.326491 
L 156.749174 200.326491 
L 156.858298 199.689026 
L 157.294995 199.689026 
L 157.294995 199.370293 
L 158.902856 199.370293 
L 158.985462 198.414095 
L 159.768829 198.414095 
L 159.768829 198.095362 
L 160.715855 198.095362 
L 160.715855 197.776629 
L 161.050329 197.776629 
L 161.050329 197.457896 
L 161.269845 197.457896 
L 161.269845 197.139164 
L 161.823875 197.139164 
L 161.823875 196.820431 
L 162.032589 196.820431 
L 162.032589 196.501698 
L 162.324595 196.501698 
L 162.324595 196.182965 
L 162.967378 196.182965 
L 162.967378 195.864233 
L 164.398484 195.864233 
L 164.398484 195.5455 
L 165.379484 195.5455 
L 165.379484 195.226767 
L 165.715158 195.226767 
L 165.715158 194.908034 
L 167.606591 194.908034 
L 167.606591 194.589301 
L 168.152974 194.589301 
L 168.152974 194.270569 
L 168.862928 194.270569 
L 168.862928 193.951836 
L 169.029247 193.951836 
L 169.029247 193.633103 
L 169.616035 193.633103 
L 169.616035 193.31437 
L 170.69354 193.31437 
L 170.69354 192.995637 
L 172.001344 192.995637 
L 172.001344 192.676905 
L 172.117879 192.676905 
L 172.154606 192.039439 
L 172.748825 192.039439 
L 172.748825 191.720706 
L 173.507609 191.720706 
L 173.507609 191.401974 
L 174.325211 191.401974 
L 174.325211 191.083241 
L 174.81343 191.083241 
L 174.81343 190.764508 
L 175.589342 190.764508 
L 175.589342 190.445775 
L 176.337236 190.445775 
L 176.337236 190.127042 
L 176.569546 190.127042 
L 176.569546 189.80831 
L 177.414772 189.80831 
L 177.414772 189.489577 
L 177.614545 189.489577 
L 177.720714 188.533379 
L 178.297483 188.533379 
L 178.297483 188.214646 
L 180.620069 188.214646 
L 180.620069 187.895913 
L 181.06123 187.895913 
L 181.06123 187.57718 
L 185.943201 187.57718 
L 185.943201 187.258447 
L 186.612587 187.258447 
L 186.612587 186.939715 
L 187.216539 186.939715 
L 187.216539 186.620982 
L 187.346625 186.620982 
L 187.346625 186.302249 
L 187.514607 186.302249 
L 187.514607 185.983516 
L 187.662612 185.983516 
L 187.75241 185.346051 
L 189.319639 185.346051 
L 189.410287 184.708585 
L 190.047976 184.708585 
L 190.047976 184.389852 
L 190.657689 184.389852 
L 190.657689 184.07112 
L 192.680276 184.07112 
L 192.731725 183.433654 
L 193.295882 183.433654 
L 193.295882 183.114921 
L 193.522503 183.114921 
L 193.569814 182.158723 
L 194.828917 182.158723 
L 194.828917 181.83999 
L 195.505585 181.83999 
L 195.505585 181.521257 
L 197.890361 181.521257 
L 197.890361 181.202525 
L 199.176164 181.202525 
L 199.176164 180.883792 
L 199.415921 180.883792 
L 199.415921 180.565059 
L 199.856506 180.565059 
L 199.960082 179.608861 
L 200.475983 179.608861 
L 200.475983 179.290128 
L 202.194115 179.290128 
L 202.194115 178.971395 
L 202.791946 178.971395 
L 202.791946 178.652662 
L 204.096833 178.652662 
L 204.154566 178.015197 
L 204.300912 178.015197 
L 204.397533 177.377731 
L 204.981185 177.377731 
L 204.981185 177.058998 
L 205.79916 177.058998 
L 205.79916 176.740266 
L 206.377006 176.740266 
L 206.377006 176.421533 
L 207.349284 176.421533 
L 207.349284 176.1028 
L 208.415324 176.1028 
L 208.518966 175.146602 
L 209.76367 175.146602 
L 209.76367 174.827869 
L 211.088458 174.827869 
L 211.088458 174.509136 
L 211.828019 174.509136 
L 211.913285 173.871671 
L 212.899326 173.871671 
L 212.899326 173.552938 
L 213.144282 173.552938 
L 213.144282 173.234205 
L 213.41879 173.234205 
L 213.466901 172.596739 
L 214.025493 172.596739 
L 214.095736 171.959274 
L 214.178779 171.959274 
L 214.222949 171.321808 
L 214.63286 171.321808 
L 214.712972 170.684343 
L 214.762183 170.684343 
L 214.861512 169.409412 
L 215.16247 169.409412 
L 215.261191 168.771946 
L 215.31031 168.771946 
L 215.408895 168.13448 
L 215.488912 168.13448 
L 215.488912 167.815748 
L 215.612689 167.815748 
L 215.612689 167.497015 
L 215.738418 167.497015 
L 215.738418 167.178282 
L 215.9366 167.178282 
L 215.9366 166.859549 
L 216.5837 166.859549 
L 216.5837 166.540817 
L 216.758995 166.540817 
L 216.764402 165.584618 
L 216.895933 165.584618 
L 216.895933 165.265885 
L 217.173768 165.265885 
L 217.265855 164.309687 
L 217.609426 164.309687 
L 217.609426 163.990954 
L 218.054447 163.990954 
L 218.134976 163.353489 
L 218.22413 163.353489 
L 218.334951 162.078558 
L 218.870249 162.078558 
L 218.899736 161.441092 
L 219.031095 161.441092 
L 219.031095 161.122359 
L 219.189024 161.122359 
L 219.189024 160.803626 
L 219.322319 160.803626 
L 219.322319 160.484894 
L 219.80149 160.484894 
L 219.80149 160.166161 
L 220.250006 160.166161 
L 220.360202 159.528695 
L 220.426168 159.528695 
L 220.494904 158.89123 
L 220.664506 158.89123 
L 220.664506 158.572497 
L 221.192052 158.572497 
L 221.192052 158.253764 
L 221.356761 158.253764 
L 221.360158 157.616299 
L 221.49932 157.616299 
L 221.589846 156.341368 
L 221.773655 156.341368 
L 221.773655 156.022635 
L 221.949128 156.022635 
L 222.025343 154.110238 
L 222.269943 154.110238 
L 222.269943 153.791505 
L 222.40098 153.791505 
L 222.40098 153.472772 
L 222.588907 153.472772 
L 222.588907 153.15404 
L 222.736318 153.15404 
L 222.753259 152.516574 
L 223.143954 152.516574 
L 223.191362 151.241643 
L 223.413769 151.241643 
L 223.497117 150.604177 
L 223.542071 150.604177 
L 223.601705 149.329246 
L 223.756087 149.329246 
L 223.848474 148.691781 
L 223.89679 148.691781 
L 223.957528 148.054315 
L 224.021058 148.054315 
L 224.072758 147.41685 
L 224.148013 147.41685 
L 224.151327 146.779384 
L 224.274137 146.779384 
L 224.326734 146.141918 
L 224.455166 146.141918 
L 224.513991 144.866987 
L 224.678817 144.866987 
L 224.719588 144.229522 
L 224.796085 144.229522 
L 224.796085 143.910789 
L 224.959612 143.910789 
L 224.959612 143.592056 
L 225.155452 143.592056 
L 225.155452 143.273323 
L 225.537574 143.273323 
L 225.60963 142.635858 
L 225.65874 142.635858 
L 225.74559 141.360927 
L 225.856246 141.360927 
L 225.874919 140.723461 
L 226.356309 140.723461 
L 226.356309 140.404728 
L 226.477341 140.404728 
L 226.477341 140.085996 
L 226.638896 140.085996 
L 226.736787 137.536133 
L 226.763429 137.536133 
L 226.865177 136.898668 
L 227.167925 136.898668 
L 227.167925 136.579935 
L 227.294275 136.579935 
L 227.294275 136.261202 
L 227.832696 136.261202 
L 227.897637 135.305004 
L 227.952067 135.305004 
L 227.952067 134.986271 
L 228.098038 134.986271 
L 228.152552 134.348806 
L 228.239256 134.348806 
L 228.284964 133.392607 
L 228.369203 133.392607 
L 228.369203 133.073874 
L 230.216355 133.073874 
L 230.216355 132.755142 
L 231.18273 132.755142 
L 231.186633 132.117676 
L 231.726219 132.117676 
L 231.726219 131.798943 
L 231.923839 131.798943 
L 231.923839 131.48021 
L 232.177684 131.48021 
L 232.177684 131.161478 
L 232.387428 131.161478 
L 232.387428 130.842745 
L 232.955575 130.842745 
L 232.955575 130.524012 
L 233.256665 130.524012 
L 233.28511 129.886547 
L 233.540332 129.886547 
L 233.626463 129.249081 
L 233.654852 129.249081 
L 233.654852 128.930348 
L 233.774899 128.930348 
L 233.777572 128.292883 
L 233.895574 128.292883 
L 233.981361 127.655417 
L 234.146362 127.655417 
L 234.220519 127.017952 
L 234.331023 127.017952 
L 234.331023 126.699219 
L 234.562341 126.699219 
L 234.562341 126.380486 
L 234.69161 126.380486 
L 234.69161 126.061753 
L 234.809576 126.061753 
L 234.809576 125.74302 
L 235.172643 125.74302 
L 235.256339 124.468089 
L 235.52056 124.468089 
L 235.552672 123.511891 
L 235.7384 123.511891 
L 235.7384 123.193158 
L 235.997963 123.193158 
L 236.036438 122.555693 
L 236.40292 122.555693 
L 236.40292 122.23696 
L 236.642401 122.23696 
L 236.642401 121.918227 
L 236.759553 121.918227 
L 236.759553 121.599494 
L 236.931906 121.599494 
L 236.931906 121.280761 
L 237.141075 121.280761 
L 237.141075 120.962029 
L 237.308328 120.962029 
L 237.308328 120.643296 
L 237.585899 120.643296 
L 237.661094 120.00583 
L 237.714862 120.00583 
L 237.714862 119.687098 
L 237.927774 119.687098 
L 237.999395 118.730899 
L 238.044336 118.730899 
L 238.111218 118.093434 
L 238.293151 118.093434 
L 238.293151 117.774701 
L 238.465257 117.774701 
L 238.465257 117.455968 
L 238.692851 117.455968 
L 238.788149 116.818502 
L 238.832026 116.818502 
L 238.891491 115.543571 
L 239.144307 115.543571 
L 239.144307 115.224839 
L 239.309815 115.224839 
L 239.309815 114.906106 
L 239.493314 114.906106 
L 239.493314 114.587373 
L 239.871308 114.587373 
L 239.871308 114.26864 
L 240.092208 114.26864 
L 240.135402 113.631175 
L 240.569593 113.631175 
L 240.569593 113.312442 
L 240.860346 113.312442 
L 240.950128 112.356244 
L 241.099536 112.356244 
L 241.198087 111.400045 
L 241.394951 111.400045 
L 241.49068 110.443847 
L 241.507843 110.443847 
L 241.507843 110.125114 
L 241.665272 110.125114 
L 241.665272 109.806381 
L 241.813018 109.806381 
L 241.813018 109.487649 
L 242.15717 109.487649 
L 242.15717 109.168916 
L 242.918379 109.168916 
L 242.918379 108.850183 
L 243.282938 108.850183 
L 243.282938 108.53145 
L 243.668096 108.53145 
L 243.767307 107.893985 
L 243.887024 107.893985 
L 243.887024 107.575252 
L 244.879833 107.575252 
L 244.97849 106.619053 
L 245.799099 106.619053 
L 245.799099 106.300321 
L 246.346231 106.300321 
L 246.346231 105.981588 
L 246.739574 105.981588 
L 246.739574 105.662855 
L 247.319247 105.662855 
L 247.364638 105.02539 
L 247.814604 105.02539 
L 247.814604 104.706657 
L 248.053528 104.706657 
L 248.053528 104.387924 
L 248.170277 104.387924 
L 248.170277 104.069191 
L 249.16739 104.069191 
L 249.16739 103.750458 
L 249.421621 103.750458 
L 249.421621 103.431726 
L 249.758081 103.431726 
L 249.758081 103.112993 
L 251.696396 103.112993 
L 251.696396 102.79426 
L 252.416072 102.79426 
L 252.416072 102.475527 
L 253.4347 102.475527 
L 253.518144 101.838062 
L 254.032731 101.838062 
L 254.036609 101.200596 
L 255.516493 101.200596 
L 255.516493 100.881863 
L 255.673477 100.881863 
L 255.673477 100.563131 
L 257.428462 100.563131 
L 257.428462 100.244398 
L 258.297439 100.244398 
L 258.297439 99.925665 
L 259.227105 99.925665 
L 259.315172 99.288199 
L 259.775455 99.288199 
L 259.775455 98.969467 
L 260.043033 98.969467 
L 260.043033 98.650734 
L 260.157734 98.650734 
L 260.157734 98.332001 
L 260.290515 98.332001 
L 260.290515 98.013268 
L 260.45547 98.013268 
L 260.478937 97.375803 
L 260.842769 97.375803 
L 260.842769 97.05707 
L 260.971482 97.05707 
L 260.971482 96.738337 
L 261.765972 96.738337 
L 261.765972 96.419604 
L 262.103236 96.419604 
L 262.103236 96.100872 
L 262.429597 96.100872 
L 262.471233 95.463406 
L 262.58887 95.463406 
L 262.58887 95.144673 
L 263.581976 95.144673 
L 263.581976 94.825941 
L 265.267793 94.825941 
L 265.267793 94.507208 
L 265.645429 94.507208 
L 265.645429 94.188475 
L 266.50892 94.188475 
L 266.50892 93.869742 
L 267.552402 93.869742 
L 267.552402 93.551009 
L 267.921131 93.551009 
L 267.921131 93.232277 
L 269.713317 93.232277 
L 269.713317 92.913544 
L 270.1381 92.913544 
L 270.1381 92.594811 
L 270.524278 92.594811 
L 270.524278 92.276078 
L 271.715449 92.276078 
L 271.715449 91.957345 
L 272.123393 91.957345 
L 272.123393 91.638613 
L 272.544044 91.638613 
L 272.615541 90.682414 
L 272.713505 90.682414 
L 272.713505 90.363682 
L 273.955875 90.363682 
L 273.955875 90.044949 
L 274.083904 90.044949 
L 274.083904 89.726216 
L 274.848101 89.726216 
L 274.889253 89.08875 
L 276.439907 89.08875 
L 276.439907 88.770018 
L 277.844526 88.770018 
L 277.947241 88.132552 
L 278.199295 88.132552 
L 278.199295 87.813819 
L 279.470619 87.813819 
L 279.470619 87.495087 
L 280.227538 87.495087 
L 280.227538 87.176354 
L 280.554801 87.176354 
L 280.554801 86.857621 
L 281.521403 86.857621 
L 281.521403 86.538888 
L 282.141904 86.538888 
L 282.141904 86.220155 
L 282.455099 86.220155 
L 282.455099 85.901423 
L 283.32119 85.901423 
L 283.32119 85.58269 
L 283.791097 85.58269 
L 283.791097 85.263957 
L 284.804197 85.263957 
L 284.804197 84.945224 
L 286.006475 84.945224 
L 286.006475 84.626491 
L 286.40356 84.626491 
L 286.40356 84.307759 
L 288.220335 84.307759 
L 288.267753 83.670293 
L 288.476492 83.670293 
L 288.476492 83.35156 
L 289.661037 83.35156 
L 289.724197 82.714095 
L 290.186464 82.714095 
L 290.186464 82.395362 
L 290.759588 82.395362 
L 290.759588 82.076629 
L 291.273207 82.076629 
L 291.273207 81.757896 
L 291.589606 81.757896 
L 291.589606 81.439164 
L 292.692163 81.439164 
L 292.692163 81.120431 
L 293.135791 81.120431 
L 293.135791 80.801698 
L 293.800972 80.801698 
L 293.800972 80.482965 
L 294.383519 80.482965 
L 294.383519 80.164233 
L 295.230662 80.164233 
L 295.230662 79.8455 
L 295.435939 79.8455 
L 295.435939 79.526767 
L 295.716795 79.526767 
L 295.716795 79.208034 
L 296.126075 79.208034 
L 296.126075 78.889301 
L 296.564932 78.889301 
L 296.591969 78.251836 
L 297.601298 78.251836 
L 297.601298 77.933103 
L 299.242167 77.933103 
L 299.298374 77.295637 
L 299.41855 77.295637 
L 299.41855 76.976905 
L 299.673685 76.976905 
L 299.673685 76.658172 
L 300.702554 76.658172 
L 300.702554 76.339439 
L 301.011283 76.339439 
L 301.011283 76.020706 
L 301.48217 76.020706 
L 301.48217 75.701974 
L 301.728385 75.701974 
L 301.728385 75.383241 
L 301.851928 75.383241 
L 301.851928 75.064508 
L 302.983215 75.064508 
L 302.983215 74.745775 
L 303.608779 74.745775 
L 303.608779 74.427042 
L 304.61322 74.427042 
L 304.61322 74.10831 
L 305.091735 74.10831 
L 305.091735 73.789577 
L 305.546887 73.789577 
L 305.546887 73.470844 
L 306.382646 73.470844 
L 306.487972 72.514646 
L 306.605371 72.514646 
L 306.605371 72.195913 
L 307.04745 72.195913 
L 307.04745 71.87718 
L 307.508417 71.87718 
L 307.546288 71.239715 
L 309.466225 71.239715 
L 309.466225 70.920982 
L 310.35157 70.920982 
L 310.35157 70.602249 
L 311.632637 70.602249 
L 311.632637 70.283516 
L 312.311918 70.283516 
L 312.399388 69.646051 
L 312.529865 69.646051 
L 312.529865 69.327318 
L 313.022768 69.327318 
L 313.022768 69.008585 
L 313.977391 69.008585 
L 313.977391 68.689852 
L 314.288546 68.689852 
L 314.288546 68.37112 
L 314.500376 68.37112 
L 314.500376 68.052387 
L 314.688319 68.052387 
L 314.688319 67.733654 
L 315.108971 67.733654 
L 315.108971 67.414921 
L 316.609465 67.414921 
L 316.609465 67.096188 
L 316.73501 67.096188 
L 316.73501 66.777456 
L 317.314492 66.777456 
L 317.314492 66.458723 
L 317.880505 66.458723 
L 317.880505 66.13999 
L 318.272792 66.13999 
L 318.272792 65.821257 
L 318.393094 65.821257 
L 318.393094 65.502525 
L 318.714907 65.502525 
L 318.714907 65.183792 
L 319.177138 65.183792 
L 319.177138 64.865059 
L 319.417683 64.865059 
L 319.436534 64.227593 
L 320.474192 64.227593 
L 320.474192 63.908861 
L 320.606736 63.908861 
L 320.606736 63.590128 
L 320.797896 63.590128 
L 320.797896 63.271395 
L 321.101388 63.271395 
L 321.101388 62.952662 
L 321.403349 62.952662 
L 321.403349 62.633929 
L 321.519134 62.633929 
L 321.519134 62.315197 
L 321.789894 62.315197 
L 321.789894 61.996464 
L 322.026246 61.996464 
L 322.026246 61.677731 
L 323.376044 61.677731 
L 323.376044 61.358998 
L 324.237893 61.358998 
L 324.237893 61.040266 
L 324.476976 61.040266 
L 324.476976 60.721533 
L 324.690589 60.721533 
L 324.690589 60.4028 
L 326.371885 60.4028 
L 326.371885 60.084067 
L 326.81563 60.084067 
L 326.81563 59.765334 
L 327.870696 59.765334 
L 327.919715 59.127869 
L 328.154011 59.127869 
L 328.154011 58.809136 
L 329.759118 58.809136 
L 329.861233 58.171671 
L 330.188151 58.171671 
L 330.188151 57.852938 
L 332.864519 57.852938 
L 332.864519 57.534205 
L 333.102407 57.534205 
L 333.102407 57.215472 
L 333.770362 57.215472 
L 333.770362 56.896739 
L 334.343832 56.896739 
L 334.343832 56.578007 
L 335.073765 56.578007 
L 335.073765 56.259274 
L 336.312944 56.259274 
L 336.312944 55.940541 
L 337.258517 55.940541 
L 337.258517 55.621808 
L 338.25131 55.621808 
L 338.25131 55.303075 
L 338.372326 55.303075 
L 338.372326 54.984343 
L 339.690804 54.984343 
L 339.690804 54.66561 
L 340.31594 54.66561 
L 340.31594 54.346877 
L 340.558763 54.346877 
L 340.558763 54.028144 
L 340.812604 54.028144 
L 340.844615 53.390679 
L 343.268523 53.390679 
L 343.268523 53.071946 
L 344.64603 53.071946 
L 344.64603 52.753213 
L 345.29069 52.753213 
L 345.29069 52.43448 
L 347.089568 52.43448 
L 347.089568 52.115748 
L 347.458242 52.115748 
L 347.458242 51.797015 
L 348.497982 51.797015 
L 348.497982 51.478282 
L 348.837412 51.478282 
L 348.837412 51.159549 
L 349.025049 51.159549 
L 349.025049 50.840817 
L 349.758594 50.840817 
L 349.758594 50.522084 
L 349.894978 50.522084 
L 349.894978 50.203351 
L 350.092957 50.203351 
L 350.17135 49.565885 
L 351.712896 49.565885 
L 351.712896 49.247153 
L 351.895003 49.247153 
L 351.895003 48.92842 
L 354.895396 48.92842 
L 354.895396 48.609687 
L 355.977663 48.609687 
L 355.977663 48.290954 
L 357.560322 48.290954 
L 357.560322 47.972222 
L 357.93058 47.972222 
L 357.93058 47.653489 
L 358.698448 47.653489 
L 358.698448 47.334756 
L 362.535835 47.334756 
L 362.600073 46.69729 
L 362.97239 46.69729 
L 362.97239 46.378558 
L 364.228483 46.378558 
L 364.228483 46.059825 
L 368.554847 46.059825 
L 368.554847 45.741092 
L 372.422481 45.741092 
L 372.422481 45.422359 
L 374.84982 45.422359 
L 374.84982 45.103626 
L 379.557137 45.103626 
L 379.557137 44.784894 
L 382.327676 44.784894 
L 382.327676 44.466161 
L 384.609981 44.466161 
L 384.609981 44.147428 
L 384.769594 44.147428 
L 384.769594 43.828695 
L 385.912338 43.828695 
L 385.912338 43.509963 
L 386.632296 43.509963 
L 386.632296 43.19123 
L 387.068023 43.19123 
L 387.112643 42.235031 
L 387.301456 42.235031 
L 387.301456 41.916299 
L 387.727181 41.916299 
L 387.727181 41.597566 
L 387.9665 41.597566 
L 387.9665 41.278833 
L 388.315439 41.278833 
L 388.377811 40.641368 
L 388.945685 40.641368 
L 388.945685 40.322635 
L 389.064892 40.322635 
L 389.110632 39.685169 
L 389.690933 39.685169 
L 389.776424 39.047704 
L 389.83424 39.047704 
L 389.907495 38.410238 
L 389.945771 38.410238 
L 389.945771 38.091505 
L 390.162333 38.091505 
L 390.162333 37.772772 
L 390.437231 37.772772 
L 390.484335 37.135307 
L 390.582595 37.135307 
L 390.582595 36.816574 
L 391.116977 36.816574 
L 391.211589 35.860376 
L 391.45605 35.860376 
L 391.45605 35.541643 
L 391.605042 35.541643 
L 391.605042 35.22291 
L 391.778694 35.22291 
L 391.795072 34.585445 
L 392.126448 34.585445 
L 392.165993 33.947979 
L 392.271868 33.947979 
L 392.271868 33.629246 
L 392.438565 33.629246 
L 392.438565 33.310514 
L 392.580284 33.310514 
L 392.605058 32.673048 
L 392.764966 32.673048 
L 392.871085 32.035582 
L 392.95896 32.035582 
L 393.02441 31.079384 
L 393.421732 31.079384 
L 393.421732 30.760651 
L 393.569663 30.760651 
L 393.569663 30.441918 
L 393.905537 30.441918 
L 393.905537 30.123186 
L 394.132617 30.123186 
L 394.156905 29.48572 
L 394.293561 29.48572 
L 394.293561 29.166987 
L 394.7645 29.166987 
L 394.870619 28.210789 
L 394.934044 28.210789 
L 394.934044 27.892056 
L 395.312951 27.892056 
L 395.312951 27.573323 
L 395.444302 27.573323 
L 395.444302 27.254591 
L 395.781217 27.254591 
L 395.820862 26.617125 
L 396.728767 26.617125 
L 396.728767 26.298392 
L 396.896567 26.298392 
L 396.924964 25.660927 
L 397.149373 25.660927 
L 397.17979 24.704728 
L 397.359739 24.704728 
L 397.43372 23.74853 
L 397.511872 23.74853 
L 397.522244 23.111064 
L 397.667947 23.111064 
L 397.667947 22.792332 
L 397.84556 22.792332 
L 397.944109 21.836133 
L 398.070016 21.836133 
L 398.070016 21.517401 
L 398.230195 21.517401 
L 398.30983 20.879935 
L 398.453959 20.879935 
L 398.560069 19.605004 
L 398.605475 19.605004 
L 398.706534 18.01134 
L 398.786535 18.01134 
L 398.890909 17.373874 
L 398.91368 17.373874 
L 399.005683 16.736409 
L 399.099977 16.736409 
L 399.209762 15.78021 
L 399.247056 15.78021 
L 399.247056 15.461478 
L 399.427049 15.461478 
L 399.452161 14.505279 
L 399.552685 14.505279 
L 399.6465 12.911615 
L 399.801067 12.911615 
L 399.818152 12.27415 
L 400.020532 12.27415 
L 400.117203 11.317952 
L 400.170685 11.317952 
L 400.170685 10.999219 
L 400.170685 10.999219 
" style="fill:none;stroke:#1f77b4;stroke-linecap:square;stroke-width:1.5;"/>
   </g>
   <g id="patch_3">
    <path d="M 43.78125 242.399219 
L 43.78125 10.999219 
" style="fill:none;stroke:#000000;stroke-linecap:square;stroke-linejoin:miter;stroke-width:0.8;"/>
   </g>
   <g id="patch_4">
    <path d="M 417.18125 242.399219 
L 417.18125 10.999219 
" style="fill:none;stroke:#000000;stroke-linecap:square;stroke-linejoin:miter;stroke-width:0.8;"/>
   </g>
   <g id="patch_5">
    <path d="M 43.78125 242.399219 
L 417.18125 242.399219 
" style="fill:none;stroke:#000000;stroke-linecap:square;stroke-linejoin:miter;stroke-width:0.8;"/>
   </g>
   <g id="patch_6">
    <path d="M 43.78125 10.999219 
L 417.18125 10.999219 
" style="fill:none;stroke:#000000;stroke-linecap:square;stroke-linejoin:miter;stroke-width:0.8;"/>
   </g>
   <g id="legend_1">
    <g id="patch_7">
     <path d="M 50.78125 63.311719 
L 103.284375 63.311719 
Q 105.284375 63.311719 105.284375 61.311719 
L 105.284375 17.999219 
Q 105.284375 15.999219 103.284375 15.999219 
L 50.78125 15.999219 
Q 48.78125 15.999219 48.78125 17.999219 
L 48.78125 61.311719 
Q 48.78125 63.311719 50.78125 63.311719 
z
" style="fill:#ffffff;opacity:0.8;stroke:#cccccc;stroke-linejoin:miter;"/>
    </g>
    <g id="text_18">
     <!-- cell_type -->
     <defs>
      <path d="M 9.421875 75.984375 
L 18.40625 75.984375 
L 18.40625 0 
L 9.421875 0 
z
" id="DejaVuSans-108"/>
      <path d="M 50.984375 -16.609375 
L 50.984375 -23.578125 
L -0.984375 -23.578125 
L -0.984375 -16.609375 
z
" id="DejaVuSans-95"/>
      <path d="M 32.171875 -5.078125 
Q 28.375 -14.84375 24.75 -17.8125 
Q 21.140625 -20.796875 15.09375 -20.796875 
L 7.90625 -20.796875 
L 7.90625 -13.28125 
L 13.1875 -13.28125 
Q 16.890625 -13.28125 18.9375 -11.515625 
Q 21 -9.765625 23.484375 -3.21875 
L 25.09375 0.875 
L 2.984375 54.6875 
L 12.5 54.6875 
L 29.59375 11.921875 
L 46.6875 54.6875 
L 56.203125 54.6875 
z
" id="DejaVuSans-121"/>
     </defs>
     <g transform="translate(54.758594 27.597656)scale(0.1 -0.1)">
      <use xlink:href="#DejaVuSans-99"/>
      <use x="54.980469" xlink:href="#DejaVuSans-101"/>
      <use x="116.503906" xlink:href="#DejaVuSans-108"/>
      <use x="144.287109" xlink:href="#DejaVuSans-108"/>
      <use x="172.070312" xlink:href="#DejaVuSans-95"/>
      <use x="222.070312" xlink:href="#DejaVuSans-116"/>
      <use x="261.279297" xlink:href="#DejaVuSans-121"/>
      <use x="320.458984" xlink:href="#DejaVuSans-112"/>
      <use x="383.935547" xlink:href="#DejaVuSans-101"/>
     </g>
    </g>
    <g id="line2d_18">
     <path d="M 52.78125 39.053906 
L 72.78125 39.053906 
" style="fill:none;stroke:#1f77b4;stroke-linecap:square;stroke-width:1.5;"/>
    </g>
    <g id="line2d_19"/>
    <g id="text_19">
     <!-- hub -->
     <defs>
      <path d="M 54.890625 33.015625 
L 54.890625 0 
L 45.90625 0 
L 45.90625 32.71875 
Q 45.90625 40.484375 42.875 44.328125 
Q 39.84375 48.1875 33.796875 48.1875 
Q 26.515625 48.1875 22.3125 43.546875 
Q 18.109375 38.921875 18.109375 30.90625 
L 18.109375 0 
L 9.078125 0 
L 9.078125 75.984375 
L 18.109375 75.984375 
L 18.109375 46.1875 
Q 21.34375 51.125 25.703125 53.5625 
Q 30.078125 56 35.796875 56 
Q 45.21875 56 50.046875 50.171875 
Q 54.890625 44.34375 54.890625 33.015625 
z
" id="DejaVuSans-104"/>
      <path d="M 8.5 21.578125 
L 8.5 54.6875 
L 17.484375 54.6875 
L 17.484375 21.921875 
Q 17.484375 14.15625 20.5 10.265625 
Q 23.53125 6.390625 29.59375 6.390625 
Q 36.859375 6.390625 41.078125 11.03125 
Q 45.3125 15.671875 45.3125 23.6875 
L 45.3125 54.6875 
L 54.296875 54.6875 
L 54.296875 0 
L 45.3125 0 
L 45.3125 8.40625 
Q 42.046875 3.421875 37.71875 1 
Q 33.40625 -1.421875 27.6875 -1.421875 
Q 18.265625 -1.421875 13.375 4.4375 
Q 8.5 10.296875 8.5 21.578125 
z
M 31.109375 56 
z
" id="DejaVuSans-117"/>
      <path d="M 48.6875 27.296875 
Q 48.6875 37.203125 44.609375 42.84375 
Q 40.53125 48.484375 33.40625 48.484375 
Q 26.265625 48.484375 22.1875 42.84375 
Q 18.109375 37.203125 18.109375 27.296875 
Q 18.109375 17.390625 22.1875 11.75 
Q 26.265625 6.109375 33.40625 6.109375 
Q 40.53125 6.109375 44.609375 11.75 
Q 48.6875 17.390625 48.6875 27.296875 
z
M 18.109375 46.390625 
Q 20.953125 51.265625 25.265625 53.625 
Q 29.59375 56 35.59375 56 
Q 45.5625 56 51.78125 48.09375 
Q 58.015625 40.1875 58.015625 27.296875 
Q 58.015625 14.40625 51.78125 6.484375 
Q 45.5625 -1.421875 35.59375 -1.421875 
Q 29.59375 -1.421875 25.265625 0.953125 
Q 20.953125 3.328125 18.109375 8.203125 
L 18.109375 0 
L 9.078125 0 
L 9.078125 75.984375 
L 18.109375 75.984375 
z
" id="DejaVuSans-98"/>
     </defs>
     <g transform="translate(80.78125 42.553906)scale(0.1 -0.1)">
      <use xlink:href="#DejaVuSans-104"/>
      <use x="63.378906" xlink:href="#DejaVuSans-117"/>
      <use x="126.757812" xlink:href="#DejaVuSans-98"/>
     </g>
    </g>
    <g id="line2d_20">
     <path d="M 52.78125 53.732031 
L 72.78125 53.732031 
" style="fill:none;stroke:#ff7f0e;stroke-linecap:square;stroke-width:1.5;"/>
    </g>
    <g id="line2d_21"/>
    <g id="text_20">
     <!-- drift -->
     <defs>
      <path d="M 45.40625 46.390625 
L 45.40625 75.984375 
L 54.390625 75.984375 
L 54.390625 0 
L 45.40625 0 
L 45.40625 8.203125 
Q 42.578125 3.328125 38.25 0.953125 
Q 33.9375 -1.421875 27.875 -1.421875 
Q 17.96875 -1.421875 11.734375 6.484375 
Q 5.515625 14.40625 5.515625 27.296875 
Q 5.515625 40.1875 11.734375 48.09375 
Q 17.96875 56 27.875 56 
Q 33.9375 56 38.25 53.625 
Q 42.578125 51.265625 45.40625 46.390625 
z
M 14.796875 27.296875 
Q 14.796875 17.390625 18.875 11.75 
Q 22.953125 6.109375 30.078125 6.109375 
Q 37.203125 6.109375 41.296875 11.75 
Q 45.40625 17.390625 45.40625 27.296875 
Q 45.40625 37.203125 41.296875 42.84375 
Q 37.203125 48.484375 30.078125 48.484375 
Q 22.953125 48.484375 18.875 42.84375 
Q 14.796875 37.203125 14.796875 27.296875 
z
" id="DejaVuSans-100"/>
      <path d="M 37.109375 75.984375 
L 37.109375 68.5 
L 28.515625 68.5 
Q 23.6875 68.5 21.796875 66.546875 
Q 19.921875 64.59375 19.921875 59.515625 
L 19.921875 54.6875 
L 34.71875 54.6875 
L 34.71875 47.703125 
L 19.921875 47.703125 
L 19.921875 0 
L 10.890625 0 
L 10.890625 47.703125 
L 2.296875 47.703125 
L 2.296875 54.6875 
L 10.890625 54.6875 
L 10.890625 58.5 
Q 10.890625 67.625 15.140625 71.796875 
Q 19.390625 75.984375 28.609375 75.984375 
z
" id="DejaVuSans-102"/>
     </defs>
     <g transform="translate(80.78125 57.232031)scale(0.1 -0.1)">
      <use xlink:href="#DejaVuSans-100"/>
      <use x="63.476562" xlink:href="#DejaVuSans-114"/>
      <use x="104.589844" xlink:href="#DejaVuSans-105"/>
      <use x="132.373047" xlink:href="#DejaVuSans-102"/>
      <use x="165.828125" xlink:href="#DejaVuSans-116"/>
     </g>
    </g>
   </g>
  </g>
 </g>
 <defs>
  <clipPath id="pf73455f022">
   <rect height="231.4" width="373.4" x="43.78125" y="10.999219"/>
  </clipPath>
 </defs>
</svg>
