<?xml version="1.0" encoding="utf-8" standalone="no"?>
<!DOCTYPE svg PUBLIC "-//W3C//DTD SVG 1.1//EN"
  "http://www.w3.org/Graphics/SVG/1.1/DTD/svg11.dtd">
<!-- Created with matplotlib (https://matplotlib.org/) -->
<svg height="190.701687pt" version="1.1" viewBox="0 0 321.545625 190.701687" width="321.545625pt" xmlns="http://www.w3.org/2000/svg" xmlns:xlink="http://www.w3.org/1999/xlink">
 <defs>
  <style type="text/css">
*{stroke-linecap:butt;stroke-linejoin:round;}
  </style>
 </defs>
 <g id="figure_1">
  <g id="patch_1">
   <path d="M 0 190.701687 
L 321.545625 190.701687 
L 321.545625 0 
L 0 0 
z
" style="fill:#ffffff;"/>
  </g>
  <g id="axes_1">
   <g id="patch_2">
    <path d="M 52.085625 153.972 
L 314.345625 153.972 
L 314.345625 7.2 
L 52.085625 7.2 
z
" style="fill:#ffffff;"/>
   </g>
   <g id="PolyCollection_1"/>
   <g id="PolyCollection_2"/>
   <g id="PolyCollection_3"/>
   <g id="PolyCollection_4"/>
   <g id="PolyCollection_5">
    <defs>
     <path d="M 228.255929 -43.40189 
L 228.255929 -43.401142 
L 228.82606 -43.401142 
L 229.39619 -43.401142 
L 229.966321 -43.401142 
L 230.536451 -43.401142 
L 231.106582 -43.401142 
L 231.676712 -43.401142 
L 232.246842 -43.401142 
L 232.816973 -43.401142 
L 233.387103 -43.401142 
L 233.957234 -43.401142 
L 234.527364 -43.401142 
L 235.097495 -43.401142 
L 235.667625 -43.401142 
L 236.237755 -43.401142 
L 236.807886 -43.401142 
L 237.378016 -43.401142 
L 237.948147 -43.401142 
L 238.518277 -43.401142 
L 239.088408 -43.401142 
L 239.658538 -43.401142 
L 240.228668 -43.401142 
L 240.798799 -43.401142 
L 241.368929 -43.401142 
L 241.93906 -43.401142 
L 242.50919 -43.401142 
L 243.079321 -43.401142 
L 243.649451 -43.401142 
L 244.219582 -43.401142 
L 244.789712 -43.401142 
L 245.359842 -43.401142 
L 245.929973 -43.401142 
L 246.500103 -43.401142 
L 247.070234 -43.401142 
L 247.640364 -43.401142 
L 248.210495 -43.401142 
L 248.780625 -43.401142 
L 249.350755 -43.401142 
L 249.920886 -43.401142 
L 250.491016 -43.401142 
L 251.061147 -43.401142 
L 251.631277 -43.401142 
L 252.201408 -43.401142 
L 252.771538 -43.401142 
L 253.341668 -43.401142 
L 253.911799 -43.401142 
L 254.481929 -43.401142 
L 255.05206 -43.401142 
L 255.62219 -43.401142 
L 256.192321 -43.401142 
L 256.762451 -43.401142 
L 257.332582 -43.401142 
L 257.902712 -43.401142 
L 258.472842 -43.401142 
L 259.042973 -43.401142 
L 259.613103 -43.401142 
L 260.183234 -43.401142 
L 260.753364 -43.401142 
L 261.323495 -43.401142 
L 261.893625 -43.401142 
L 262.463755 -43.401142 
L 263.033886 -43.401142 
L 263.604016 -43.401142 
L 263.604016 -43.402469 
L 263.604016 -43.402469 
L 263.033886 -43.406039 
L 262.463755 -43.421593 
L 261.893625 -43.502546 
L 261.323495 -44.030717 
L 260.753364 -45.429264 
L 260.183234 -45.442607 
L 259.613103 -45.469293 
L 259.042973 -45.709465 
L 258.472842 -45.669437 
L 257.902712 -45.77618 
L 257.332582 -45.789523 
L 256.762451 -45.936295 
L 256.192321 -46.056381 
L 255.62219 -46.176467 
L 255.05206 -46.376611 
L 254.481929 -46.336582 
L 253.911799 -46.363268 
L 253.341668 -46.630126 
L 252.771538 -46.763555 
L 252.201408 -46.816927 
L 251.631277 -47.01707 
L 251.061147 -47.123814 
L 250.491016 -47.217214 
L 249.920886 -47.350643 
L 249.350755 -47.737587 
L 248.780625 -47.724245 
L 248.210495 -47.884359 
L 247.640364 -48.151218 
L 247.070234 -48.217932 
L 246.500103 -48.338018 
L 245.929973 -48.578191 
L 245.359842 -48.831706 
L 244.789712 -48.965135 
L 244.219582 -49.285365 
L 243.649451 -49.552223 
L 243.079321 -49.698995 
L 242.50919 -49.965853 
L 241.93906 -50.085939 
L 241.368929 -50.472884 
L 240.798799 -50.659685 
L 240.228668 -50.846485 
L 239.658538 -51.286801 
L 239.088408 -51.32683 
L 238.518277 -51.847203 
L 237.948147 -52.007318 
L 237.378016 -52.114062 
L 236.807886 -52.567721 
L 236.237755 -52.901293 
L 235.667625 -53.234866 
L 235.097495 -53.52841 
L 234.527364 -53.902011 
L 233.957234 -54.248927 
L 233.387103 -54.649214 
L 232.816973 -55.182931 
L 232.246842 -55.676618 
L 231.676712 -56.196992 
L 231.106582 -56.330421 
L 230.536451 -45.231362 
L 229.966321 -43.576414 
L 229.39619 -43.424443 
L 228.82606 -43.404992 
L 228.255929 -43.40189 
z
" id="mc9ed3d35b4" style="stroke:#ef553b;stroke-opacity:0.4;"/>
    </defs>
    <g clip-path="url(#peadc3cc47d)">
     <use style="fill:#ef553b;fill-opacity:0.4;stroke:#ef553b;stroke-opacity:0.4;" x="0" xlink:href="#mc9ed3d35b4" y="190.701687"/>
    </g>
   </g>
   <g id="PolyCollection_6">
    <defs>
     <path d="M 187.206538 -43.404008 
L 187.206538 -43.401142 
L 187.776668 -43.401142 
L 188.346799 -43.401142 
L 188.916929 -43.401142 
L 189.48706 -43.401142 
L 190.05719 -43.401142 
L 190.627321 -43.401142 
L 191.197451 -43.401142 
L 191.767582 -43.401142 
L 192.337712 -43.401142 
L 192.907842 -43.401142 
L 193.477973 -43.401142 
L 194.048103 -43.401142 
L 194.618234 -43.401142 
L 195.188364 -43.401142 
L 195.758495 -43.401142 
L 196.328625 -43.401142 
L 196.898755 -43.401142 
L 197.468886 -43.401142 
L 198.039016 -43.401142 
L 198.609147 -43.401142 
L 199.179277 -43.401142 
L 199.749408 -43.401142 
L 200.319538 -43.401142 
L 200.889668 -43.401142 
L 201.459799 -43.401142 
L 202.029929 -43.401142 
L 202.60006 -43.401142 
L 203.17019 -43.401142 
L 203.740321 -43.401142 
L 204.310451 -43.401142 
L 204.880582 -43.401142 
L 205.450712 -43.401142 
L 206.020842 -43.401142 
L 206.590973 -43.401142 
L 207.161103 -43.401142 
L 207.731234 -43.401142 
L 208.301364 -43.401142 
L 208.871495 -43.401142 
L 209.441625 -43.401142 
L 210.011755 -43.401142 
L 210.581886 -43.401142 
L 211.152016 -43.401142 
L 211.722147 -43.401142 
L 212.292277 -43.401142 
L 212.862408 -43.401142 
L 213.432538 -43.401142 
L 214.002668 -43.401142 
L 214.572799 -43.401142 
L 215.142929 -43.401142 
L 215.71306 -43.401142 
L 216.28319 -43.401142 
L 216.853321 -43.401142 
L 217.423451 -43.401142 
L 217.993582 -43.401142 
L 218.563712 -43.401142 
L 219.133842 -43.401142 
L 219.133842 -43.401966 
L 219.133842 -43.401966 
L 218.563712 -43.405925 
L 217.993582 -43.434642 
L 217.423451 -43.745757 
L 216.853321 -48.036749 
L 216.28319 -85.031018 
L 215.71306 -86.405338 
L 215.142929 -87.366028 
L 214.572799 -88.673633 
L 214.002668 -89.781094 
L 213.432538 -91.208785 
L 212.862408 -91.715816 
L 212.292277 -92.676505 
L 211.722147 -94.237626 
L 211.152016 -94.998171 
L 210.581886 -95.99889 
L 210.011755 -96.959579 
L 209.441625 -98.173784 
L 208.871495 -99.721561 
L 208.301364 -100.722279 
L 207.731234 -102.016542 
L 207.161103 -103.497605 
L 206.590973 -105.258869 
L 206.020842 -106.553131 
L 205.450712 -108.781397 
L 204.880582 -111.236492 
L 204.310451 -113.784987 
L 203.740321 -116.386855 
L 203.17019 -119.429038 
L 202.60006 -123.004938 
L 202.029929 -126.233922 
L 201.459799 -130.183423 
L 200.889668 -134.15961 
L 200.319538 -138.789599 
L 199.749408 -143.593046 
L 199.179277 -149.263783 
L 198.609147 -154.747718 
L 198.039016 -159.631223 
L 197.468886 -164.287898 
L 196.898755 -168.904545 
L 196.328625 -172.773989 
L 195.758495 -174.187405 
L 195.188364 -173.359475 
L 194.618234 -173.321181 
L 194.048103 -173.932687 
L 193.477973 -173.750691 
L 192.907842 -172.347015 
L 192.337712 -168.224057 
L 191.767582 -163.847582 
L 191.197451 -158.443704 
L 190.627321 -152.292623 
L 190.05719 -145.687883 
L 189.48706 -139.229915 
L 188.916929 -71.62473 
L 188.346799 -44.423356 
L 187.776668 -43.44224 
L 187.206538 -43.404008 
z
" id="mf083c2076d" style="stroke:#00cc96;stroke-opacity:0.4;"/>
    </defs>
    <g clip-path="url(#peadc3cc47d)">
     <use style="fill:#00cc96;fill-opacity:0.4;stroke:#00cc96;stroke-opacity:0.4;" x="0" xlink:href="#mf083c2076d" y="190.701687"/>
    </g>
   </g>
   <g id="matplotlib.axis_1">
    <g id="xtick_1">
     <g id="line2d_1">
      <defs>
       <path d="M 0 0 
L 0 3.5 
" id="m5b088fe166" style="stroke:#000000;stroke-width:0.8;"/>
      </defs>
      <g>
       <use style="stroke:#000000;stroke-width:0.8;" x="74.890842" xlink:href="#m5b088fe166" y="153.972"/>
      </g>
     </g>
     <g id="text_1">
      <!-- 300 -->
      <defs>
       <path d="M 4.203125 18.890625 
L 12.984375 20.0625 
Q 14.5 12.59375 18.140625 9.296875 
Q 21.78125 6 27 6 
Q 33.203125 6 37.46875 10.296875 
Q 41.75 14.59375 41.75 20.953125 
Q 41.75 27 37.796875 30.921875 
Q 33.84375 34.859375 27.734375 34.859375 
Q 25.25 34.859375 21.53125 33.890625 
L 22.515625 41.609375 
Q 23.390625 41.5 23.921875 41.5 
Q 29.546875 41.5 34.03125 44.421875 
Q 38.53125 47.359375 38.53125 53.46875 
Q 38.53125 58.296875 35.25 61.46875 
Q 31.984375 64.65625 26.8125 64.65625 
Q 21.6875 64.65625 18.265625 61.421875 
Q 14.84375 58.203125 13.875 51.765625 
L 5.078125 53.328125 
Q 6.6875 62.15625 12.390625 67.015625 
Q 18.109375 71.875 26.609375 71.875 
Q 32.46875 71.875 37.390625 69.359375 
Q 42.328125 66.84375 44.9375 62.5 
Q 47.5625 58.15625 47.5625 53.265625 
Q 47.5625 48.640625 45.0625 44.828125 
Q 42.578125 41.015625 37.703125 38.765625 
Q 44.046875 37.3125 47.5625 32.6875 
Q 51.078125 28.078125 51.078125 21.140625 
Q 51.078125 11.765625 44.234375 5.25 
Q 37.40625 -1.265625 26.953125 -1.265625 
Q 17.53125 -1.265625 11.296875 4.34375 
Q 5.078125 9.96875 4.203125 18.890625 
z
" id="ArialMT-51"/>
       <path d="M 4.15625 35.296875 
Q 4.15625 48 6.765625 55.734375 
Q 9.375 63.484375 14.515625 67.671875 
Q 19.671875 71.875 27.484375 71.875 
Q 33.25 71.875 37.59375 69.546875 
Q 41.9375 67.234375 44.765625 62.859375 
Q 47.609375 58.5 49.21875 52.21875 
Q 50.828125 45.953125 50.828125 35.296875 
Q 50.828125 22.703125 48.234375 14.96875 
Q 45.65625 7.234375 40.5 3 
Q 35.359375 -1.21875 27.484375 -1.21875 
Q 17.140625 -1.21875 11.234375 6.203125 
Q 4.15625 15.140625 4.15625 35.296875 
z
M 13.1875 35.296875 
Q 13.1875 17.671875 17.3125 11.828125 
Q 21.4375 6 27.484375 6 
Q 33.546875 6 37.671875 11.859375 
Q 41.796875 17.71875 41.796875 35.296875 
Q 41.796875 52.984375 37.671875 58.78125 
Q 33.546875 64.59375 27.390625 64.59375 
Q 21.34375 64.59375 17.71875 59.46875 
Q 13.1875 52.9375 13.1875 35.296875 
z
" id="ArialMT-48"/>
      </defs>
      <g transform="translate(66.549436 168.129812)scale(0.1 -0.1)">
       <use xlink:href="#ArialMT-51"/>
       <use x="55.615234" xlink:href="#ArialMT-48"/>
       <use x="111.230469" xlink:href="#ArialMT-48"/>
      </g>
     </g>
    </g>
    <g id="xtick_2">
     <g id="line2d_2">
      <g>
       <use style="stroke:#000000;stroke-width:0.8;" x="131.903886" xlink:href="#m5b088fe166" y="153.972"/>
      </g>
     </g>
     <g id="text_2">
      <!-- 400 -->
      <defs>
       <path d="M 32.328125 0 
L 32.328125 17.140625 
L 1.265625 17.140625 
L 1.265625 25.203125 
L 33.9375 71.578125 
L 41.109375 71.578125 
L 41.109375 25.203125 
L 50.78125 25.203125 
L 50.78125 17.140625 
L 41.109375 17.140625 
L 41.109375 0 
z
M 32.328125 25.203125 
L 32.328125 57.46875 
L 9.90625 25.203125 
z
" id="ArialMT-52"/>
      </defs>
      <g transform="translate(123.56248 168.129812)scale(0.1 -0.1)">
       <use xlink:href="#ArialMT-52"/>
       <use x="55.615234" xlink:href="#ArialMT-48"/>
       <use x="111.230469" xlink:href="#ArialMT-48"/>
      </g>
     </g>
    </g>
    <g id="xtick_3">
     <g id="line2d_3">
      <g>
       <use style="stroke:#000000;stroke-width:0.8;" x="188.916929" xlink:href="#m5b088fe166" y="153.972"/>
      </g>
     </g>
     <g id="text_3">
      <!-- 500 -->
      <defs>
       <path d="M 4.15625 18.75 
L 13.375 19.53125 
Q 14.40625 12.796875 18.140625 9.390625 
Q 21.875 6 27.15625 6 
Q 33.5 6 37.890625 10.78125 
Q 42.28125 15.578125 42.28125 23.484375 
Q 42.28125 31 38.0625 35.34375 
Q 33.84375 39.703125 27 39.703125 
Q 22.75 39.703125 19.328125 37.765625 
Q 15.921875 35.84375 13.96875 32.765625 
L 5.71875 33.84375 
L 12.640625 70.609375 
L 48.25 70.609375 
L 48.25 62.203125 
L 19.671875 62.203125 
L 15.828125 42.96875 
Q 22.265625 47.46875 29.34375 47.46875 
Q 38.71875 47.46875 45.15625 40.96875 
Q 51.609375 34.46875 51.609375 24.265625 
Q 51.609375 14.546875 45.953125 7.46875 
Q 39.0625 -1.21875 27.15625 -1.21875 
Q 17.390625 -1.21875 11.203125 4.25 
Q 5.03125 9.71875 4.15625 18.75 
z
" id="ArialMT-53"/>
      </defs>
      <g transform="translate(180.575523 168.129812)scale(0.1 -0.1)">
       <use xlink:href="#ArialMT-53"/>
       <use x="55.615234" xlink:href="#ArialMT-48"/>
       <use x="111.230469" xlink:href="#ArialMT-48"/>
      </g>
     </g>
    </g>
    <g id="xtick_4">
     <g id="line2d_4">
      <g>
       <use style="stroke:#000000;stroke-width:0.8;" x="245.929973" xlink:href="#m5b088fe166" y="153.972"/>
      </g>
     </g>
     <g id="text_4">
      <!-- 600 -->
      <defs>
       <path d="M 49.75 54.046875 
L 41.015625 53.375 
Q 39.84375 58.546875 37.703125 60.890625 
Q 34.125 64.65625 28.90625 64.65625 
Q 24.703125 64.65625 21.53125 62.3125 
Q 17.390625 59.28125 14.984375 53.46875 
Q 12.59375 47.65625 12.5 36.921875 
Q 15.671875 41.75 20.265625 44.09375 
Q 24.859375 46.4375 29.890625 46.4375 
Q 38.671875 46.4375 44.84375 39.96875 
Q 51.03125 33.5 51.03125 23.25 
Q 51.03125 16.5 48.125 10.71875 
Q 45.21875 4.9375 40.140625 1.859375 
Q 35.0625 -1.21875 28.609375 -1.21875 
Q 17.625 -1.21875 10.6875 6.859375 
Q 3.765625 14.9375 3.765625 33.5 
Q 3.765625 54.25 11.421875 63.671875 
Q 18.109375 71.875 29.4375 71.875 
Q 37.890625 71.875 43.28125 67.140625 
Q 48.6875 62.40625 49.75 54.046875 
z
M 13.875 23.1875 
Q 13.875 18.65625 15.796875 14.5 
Q 17.71875 10.359375 21.1875 8.171875 
Q 24.65625 6 28.46875 6 
Q 34.03125 6 38.03125 10.484375 
Q 42.046875 14.984375 42.046875 22.703125 
Q 42.046875 30.125 38.078125 34.390625 
Q 34.125 38.671875 28.125 38.671875 
Q 22.171875 38.671875 18.015625 34.390625 
Q 13.875 30.125 13.875 23.1875 
z
" id="ArialMT-54"/>
      </defs>
      <g transform="translate(237.588567 168.129812)scale(0.1 -0.1)">
       <use xlink:href="#ArialMT-54"/>
       <use x="55.615234" xlink:href="#ArialMT-48"/>
       <use x="111.230469" xlink:href="#ArialMT-48"/>
      </g>
     </g>
    </g>
    <g id="xtick_5">
     <g id="line2d_5">
      <g>
       <use style="stroke:#000000;stroke-width:0.8;" x="302.943016" xlink:href="#m5b088fe166" y="153.972"/>
      </g>
     </g>
     <g id="text_5">
      <!-- 700 -->
      <defs>
       <path d="M 4.734375 62.203125 
L 4.734375 70.65625 
L 51.078125 70.65625 
L 51.078125 63.8125 
Q 44.234375 56.546875 37.515625 44.484375 
Q 30.8125 32.421875 27.15625 19.671875 
Q 24.515625 10.6875 23.78125 0 
L 14.75 0 
Q 14.890625 8.453125 18.0625 20.40625 
Q 21.234375 32.375 27.171875 43.484375 
Q 33.109375 54.59375 39.796875 62.203125 
z
" id="ArialMT-55"/>
      </defs>
      <g transform="translate(294.60161 168.129812)scale(0.1 -0.1)">
       <use xlink:href="#ArialMT-55"/>
       <use x="55.615234" xlink:href="#ArialMT-48"/>
       <use x="111.230469" xlink:href="#ArialMT-48"/>
      </g>
     </g>
    </g>
    <g id="text_6">
     <!-- Wavelength (nm) -->
     <defs>
      <path d="M 16.890625 0 
L 12.5 71.578125 
L 22.21875 71.578125 
L 23.875 36.1875 
Q 24.03125 33.640625 24.359375 22.40625 
Q 24.46875 19.28125 24.46875 18.015625 
Q 24.46875 17.1875 24.421875 13.1875 
Q 30.375 25.390625 33.015625 30.375 
L 54.78125 71.578125 
L 64.65625 71.578125 
L 67.046875 29.734375 
Q 67.4375 22.5625 67.578125 12.453125 
Q 68.453125 14.9375 70.703125 19.875 
Q 74.265625 27.828125 75.984375 31.25 
L 96.390625 71.578125 
L 106.15625 71.578125 
L 69.734375 0 
L 59.46875 0 
L 57.078125 43.359375 
Q 56.734375 48.921875 56.546875 57.03125 
Q 53.5625 50.25 51.5625 46.484375 
L 26.765625 0 
z
" id="Arial-ItalicMT-87"/>
      <path d="M 38.28125 6.453125 
Q 33.6875 2.484375 29.4375 0.65625 
Q 25.203125 -1.171875 20.359375 -1.171875 
Q 13.1875 -1.171875 8.78125 3.046875 
Q 4.390625 7.28125 4.390625 13.875 
Q 4.390625 18.21875 6.359375 21.5625 
Q 8.34375 24.90625 11.609375 26.921875 
Q 14.890625 28.953125 19.625 29.828125 
Q 22.609375 30.421875 30.9375 30.765625 
Q 39.265625 31.109375 42.875 32.515625 
Q 43.890625 36.140625 43.890625 38.53125 
Q 43.890625 41.609375 41.65625 43.359375 
Q 38.578125 45.796875 32.671875 45.796875 
Q 27.09375 45.796875 23.546875 43.328125 
Q 20.015625 40.875 18.40625 36.328125 
L 9.46875 37.109375 
Q 12.203125 44.828125 18.140625 48.921875 
Q 24.078125 53.03125 33.109375 53.03125 
Q 42.71875 53.03125 48.34375 48.4375 
Q 52.640625 45.015625 52.640625 39.546875 
Q 52.640625 35.40625 51.421875 29.9375 
L 48.53125 17.046875 
Q 47.171875 10.890625 47.171875 7.03125 
Q 47.171875 4.59375 48.25 0 
L 39.3125 0 
Q 38.578125 2.546875 38.28125 6.453125 
z
M 41.546875 26.265625 
Q 39.703125 25.53125 37.578125 25.140625 
Q 35.453125 24.75 30.46875 24.3125 
Q 22.75 23.640625 19.578125 22.578125 
Q 16.40625 21.53125 14.796875 19.234375 
Q 13.1875 16.9375 13.1875 14.15625 
Q 13.1875 10.453125 15.75 8.0625 
Q 18.3125 5.671875 23.046875 5.671875 
Q 27.4375 5.671875 31.484375 7.984375 
Q 35.546875 10.296875 37.890625 14.453125 
Q 40.234375 18.609375 41.546875 26.265625 
z
" id="Arial-ItalicMT-97"/>
      <path d="M 16.40625 0 
L 7.90625 51.859375 
L 16.5 51.859375 
L 20.953125 23.296875 
Q 21.6875 18.609375 22.75 8.015625 
Q 25.296875 13.53125 29.25 20.65625 
L 46.578125 51.859375 
L 55.90625 51.859375 
L 26.21875 0 
z
" id="Arial-ItalicMT-118"/>
      <path d="M 41.40625 17.625 
L 50 16.75 
Q 48.140625 10.359375 41.46875 4.59375 
Q 34.8125 -1.171875 25.59375 -1.171875 
Q 19.828125 -1.171875 15.015625 1.484375 
Q 10.203125 4.15625 7.6875 9.234375 
Q 5.171875 14.3125 5.171875 20.796875 
Q 5.171875 29.296875 9.09375 37.28125 
Q 13.03125 45.265625 19.28125 49.140625 
Q 25.53125 53.03125 32.8125 53.03125 
Q 42.09375 53.03125 47.625 47.265625 
Q 53.171875 41.5 53.171875 31.546875 
Q 53.171875 27.734375 52.484375 23.734375 
L 14.3125 23.734375 
Q 14.109375 22.21875 14.109375 21 
Q 14.109375 13.71875 17.453125 9.890625 
Q 20.796875 6.0625 25.640625 6.0625 
Q 30.171875 6.0625 34.5625 9.03125 
Q 38.96875 12.015625 41.40625 17.625 
z
M 15.71875 30.46875 
L 44.828125 30.46875 
Q 44.875 31.84375 44.875 32.421875 
Q 44.875 39.0625 41.546875 42.59375 
Q 38.234375 46.140625 33.015625 46.140625 
Q 27.34375 46.140625 22.671875 42.234375 
Q 18.015625 38.328125 15.71875 30.46875 
z
" id="Arial-ItalicMT-101"/>
      <path d="M 2.640625 0 
L 17.578125 71.578125 
L 26.421875 71.578125 
L 11.46875 0 
z
" id="Arial-ItalicMT-108"/>
      <path d="M 3.328125 0 
L 14.15625 51.859375 
L 22.171875 51.859375 
L 20.265625 42.828125 
Q 25.484375 48.140625 30.03125 50.578125 
Q 34.578125 53.03125 39.3125 53.03125 
Q 45.609375 53.03125 49.1875 49.609375 
Q 52.78125 46.1875 52.78125 40.484375 
Q 52.78125 37.59375 51.515625 31.390625 
L 44.921875 0 
L 36.078125 0 
L 42.96875 32.859375 
Q 44 37.640625 44 39.9375 
Q 44 42.53125 42.21875 44.140625 
Q 40.4375 45.75 37.0625 45.75 
Q 30.28125 45.75 24.96875 40.859375 
Q 19.671875 35.984375 17.1875 24.125 
L 12.15625 0 
z
" id="Arial-ItalicMT-110"/>
      <path d="M 2.828125 -4.6875 
L 11.765625 -5.515625 
Q 11.671875 -8.546875 12.5 -10.0625 
Q 13.328125 -11.578125 15.140625 -12.40625 
Q 17.53125 -13.484375 21.34375 -13.484375 
Q 29.34375 -13.484375 32.859375 -9.328125 
Q 35.15625 -6.546875 37.109375 2.78125 
L 37.984375 6.984375 
Q 31.109375 0 23.34375 0 
Q 15.484375 0 10.1875 5.78125 
Q 4.890625 11.578125 4.890625 22.171875 
Q 4.890625 30.90625 9.0625 38.234375 
Q 13.234375 45.5625 18.984375 49.296875 
Q 24.75 53.03125 30.859375 53.03125 
Q 41.0625 53.03125 46.578125 43.359375 
L 48.34375 51.859375 
L 56.453125 51.859375 
L 46 1.8125 
Q 44.28125 -6.453125 41.5 -11.0625 
Q 38.71875 -15.671875 33.765625 -18.203125 
Q 28.8125 -20.75 22.3125 -20.75 
Q 16.0625 -20.75 11.546875 -19.140625 
Q 7.03125 -17.53125 4.8125 -14.421875 
Q 2.59375 -11.328125 2.59375 -7.328125 
Q 2.59375 -6.109375 2.828125 -4.6875 
z
M 13.875 22.953125 
Q 13.875 17.625 14.890625 14.9375 
Q 16.359375 11.1875 19.0625 9.203125 
Q 21.78125 7.234375 25.09375 7.234375 
Q 29.4375 7.234375 33.734375 10.28125 
Q 38.03125 13.328125 40.6875 19.71875 
Q 43.359375 26.125 43.359375 31.9375 
Q 43.359375 38.328125 39.8125 42.109375 
Q 36.28125 45.90625 31.0625 45.90625 
Q 27.828125 45.90625 24.796875 44.171875 
Q 21.78125 42.4375 19.15625 38.890625 
Q 16.546875 35.359375 15.203125 30.421875 
Q 13.875 25.484375 13.875 22.953125 
z
" id="Arial-ItalicMT-103"/>
      <path d="M 23.96875 7.171875 
L 22.515625 -0.046875 
Q 19.34375 -0.875 16.359375 -0.875 
Q 11.078125 -0.875 7.953125 1.703125 
Q 5.609375 3.65625 5.609375 7.03125 
Q 5.609375 8.734375 6.890625 14.890625 
L 13.1875 45.015625 
L 6.203125 45.015625 
L 7.625 51.859375 
L 14.59375 51.859375 
L 17.28125 64.59375 
L 27.390625 70.703125 
L 23.4375 51.859375 
L 32.125 51.859375 
L 30.671875 45.015625 
L 22.015625 45.015625 
L 16.015625 16.359375 
Q 14.890625 10.890625 14.890625 9.8125 
Q 14.890625 8.25 15.796875 7.421875 
Q 16.703125 6.59375 18.75 6.59375 
Q 21.6875 6.59375 23.96875 7.171875 
z
" id="Arial-ItalicMT-116"/>
      <path d="M 3.328125 0 
L 18.265625 71.578125 
L 27.09375 71.578125 
L 21.390625 44.09375 
Q 26.3125 48.875 30.5625 50.953125 
Q 34.8125 53.03125 39.3125 53.03125 
Q 45.75 53.03125 49.3125 49.625 
Q 52.875 46.234375 52.875 40.671875 
Q 52.875 37.9375 51.3125 30.609375 
L 44.921875 0 
L 36.078125 0 
L 42.671875 31.390625 
Q 44.09375 38.234375 44.09375 39.984375 
Q 44.09375 42.53125 42.328125 44.140625 
Q 40.578125 45.75 37.25 45.75 
Q 32.46875 45.75 28.125 43.234375 
Q 23.78125 40.71875 21.3125 36.34375 
Q 18.84375 31.984375 16.796875 22.265625 
L 12.15625 0 
z
" id="Arial-ItalicMT-104"/>
      <path id="Arial-ItalicMT-32"/>
      <path d="M 16.109375 -21.046875 
Q 8.453125 -4.25 8.453125 13.484375 
Q 8.453125 25.296875 11.546875 35.46875 
Q 14.65625 45.65625 21 55.609375 
Q 25.203125 62.25 34.421875 72.796875 
L 41.3125 72.796875 
Q 35.59375 66.703125 29.21875 55.609375 
Q 22.859375 44.53125 19.96875 33.828125 
Q 17.09375 23.140625 17.09375 12.359375 
Q 17.09375 -3.765625 22.703125 -21.046875 
z
" id="Arial-ItalicMT-40"/>
      <path d="M 3.265625 0 
L 14.109375 51.859375 
L 22.953125 51.859375 
L 21.140625 43.3125 
Q 26.078125 48.828125 29.953125 50.921875 
Q 33.84375 53.03125 38.375 53.03125 
Q 43.21875 53.03125 46.453125 50.46875 
Q 49.703125 47.90625 50.734375 43.3125 
Q 54.6875 48.1875 59.046875 50.609375 
Q 63.421875 53.03125 68.265625 53.03125 
Q 74.75 53.03125 78 49.953125 
Q 81.25 46.875 81.25 41.3125 
Q 81.25 38.921875 80.125 33.40625 
L 73.140625 0 
L 64.3125 0 
L 71.4375 34.28125 
Q 72.359375 38.484375 72.359375 40.28125 
Q 72.359375 42.828125 70.75 44.28125 
Q 69.140625 45.75 66.21875 45.75 
Q 62.25 45.75 58.140625 43.359375 
Q 54.046875 40.96875 51.78125 37.078125 
Q 49.515625 33.203125 47.796875 25.140625 
L 42.53125 0 
L 33.6875 0 
L 41.015625 35.015625 
Q 41.796875 38.578125 41.796875 40.09375 
Q 41.796875 42.625 40.203125 44.1875 
Q 38.625 45.75 36.078125 45.75 
Q 32.328125 45.75 28.203125 43.359375 
Q 24.078125 40.96875 21.484375 36.6875 
Q 18.890625 32.421875 17.234375 24.515625 
L 12.109375 0 
z
" id="Arial-ItalicMT-109"/>
      <path d="M 19.828125 72.796875 
Q 27.546875 56 27.546875 38.328125 
Q 27.546875 26.46875 24.4375 16.3125 
Q 21.34375 6.15625 14.984375 -3.859375 
Q 10.75 -10.5 1.5625 -21.046875 
L -5.328125 -21.046875 
Q 0.34375 -14.890625 6.734375 -3.796875 
Q 13.140625 7.28125 15.984375 17.9375 
Q 18.84375 28.609375 18.84375 39.453125 
Q 18.84375 55.5625 13.234375 72.796875 
z
" id="Arial-ItalicMT-41"/>
     </defs>
     <g transform="translate(145.236719 181.397)scale(0.1 -0.1)">
      <use xlink:href="#Arial-ItalicMT-87"/>
      <use x="92.634766" xlink:href="#Arial-ItalicMT-97"/>
      <use x="148.25" xlink:href="#Arial-ItalicMT-118"/>
      <use x="198.25" xlink:href="#Arial-ItalicMT-101"/>
      <use x="253.865234" xlink:href="#Arial-ItalicMT-108"/>
      <use x="276.082031" xlink:href="#Arial-ItalicMT-101"/>
      <use x="331.697266" xlink:href="#Arial-ItalicMT-110"/>
      <use x="387.3125" xlink:href="#Arial-ItalicMT-103"/>
      <use x="442.927734" xlink:href="#Arial-ItalicMT-116"/>
      <use x="470.710938" xlink:href="#Arial-ItalicMT-104"/>
      <use x="526.326172" xlink:href="#Arial-ItalicMT-32"/>
      <use x="554.109375" xlink:href="#Arial-ItalicMT-40"/>
      <use x="587.410156" xlink:href="#Arial-ItalicMT-110"/>
      <use x="643.025391" xlink:href="#Arial-ItalicMT-109"/>
      <use x="726.326172" xlink:href="#Arial-ItalicMT-41"/>
     </g>
    </g>
   </g>
   <g id="matplotlib.axis_2">
    <g id="ytick_1">
     <g id="line2d_6">
      <defs>
       <path d="M 0 0 
L -3.5 0 
" id="mc5f7345e55" style="stroke:#000000;stroke-width:0.8;"/>
      </defs>
      <g>
       <use style="stroke:#000000;stroke-width:0.8;" x="52.085625" xlink:href="#mc5f7345e55" y="147.300545"/>
      </g>
     </g>
     <g id="text_7">
      <!-- 0.0 -->
      <defs>
       <path d="M 9.078125 0 
L 9.078125 10.015625 
L 19.09375 10.015625 
L 19.09375 0 
z
" id="ArialMT-46"/>
      </defs>
      <g transform="translate(31.185625 150.879452)scale(0.1 -0.1)">
       <use xlink:href="#ArialMT-48"/>
       <use x="55.615234" xlink:href="#ArialMT-46"/>
       <use x="83.398438" xlink:href="#ArialMT-48"/>
      </g>
     </g>
    </g>
    <g id="ytick_2">
     <g id="line2d_7">
      <g>
       <use style="stroke:#000000;stroke-width:0.8;" x="52.085625" xlink:href="#mc5f7345e55" y="120.614727"/>
      </g>
     </g>
     <g id="text_8">
      <!-- 0.2 -->
      <defs>
       <path d="M 50.34375 8.453125 
L 50.34375 0 
L 3.03125 0 
Q 2.9375 3.171875 4.046875 6.109375 
Q 5.859375 10.9375 9.828125 15.625 
Q 13.8125 20.3125 21.34375 26.46875 
Q 33.015625 36.03125 37.109375 41.625 
Q 41.21875 47.21875 41.21875 52.203125 
Q 41.21875 57.421875 37.46875 61 
Q 33.734375 64.59375 27.734375 64.59375 
Q 21.390625 64.59375 17.578125 60.78125 
Q 13.765625 56.984375 13.71875 50.25 
L 4.6875 51.171875 
Q 5.609375 61.28125 11.65625 66.578125 
Q 17.71875 71.875 27.9375 71.875 
Q 38.234375 71.875 44.234375 66.15625 
Q 50.25 60.453125 50.25 52 
Q 50.25 47.703125 48.484375 43.546875 
Q 46.734375 39.40625 42.65625 34.8125 
Q 38.578125 30.21875 29.109375 22.21875 
Q 21.1875 15.578125 18.9375 13.203125 
Q 16.703125 10.84375 15.234375 8.453125 
z
" id="ArialMT-50"/>
      </defs>
      <g transform="translate(31.185625 124.193634)scale(0.1 -0.1)">
       <use xlink:href="#ArialMT-48"/>
       <use x="55.615234" xlink:href="#ArialMT-46"/>
       <use x="83.398438" xlink:href="#ArialMT-50"/>
      </g>
     </g>
    </g>
    <g id="ytick_3">
     <g id="line2d_8">
      <g>
       <use style="stroke:#000000;stroke-width:0.8;" x="52.085625" xlink:href="#mc5f7345e55" y="93.928909"/>
      </g>
     </g>
     <g id="text_9">
      <!-- 0.4 -->
      <g transform="translate(31.185625 97.507815)scale(0.1 -0.1)">
       <use xlink:href="#ArialMT-48"/>
       <use x="55.615234" xlink:href="#ArialMT-46"/>
       <use x="83.398438" xlink:href="#ArialMT-52"/>
      </g>
     </g>
    </g>
    <g id="ytick_4">
     <g id="line2d_9">
      <g>
       <use style="stroke:#000000;stroke-width:0.8;" x="52.085625" xlink:href="#mc5f7345e55" y="67.243091"/>
      </g>
     </g>
     <g id="text_10">
      <!-- 0.6 -->
      <g transform="translate(31.185625 70.821997)scale(0.1 -0.1)">
       <use xlink:href="#ArialMT-48"/>
       <use x="55.615234" xlink:href="#ArialMT-46"/>
       <use x="83.398438" xlink:href="#ArialMT-54"/>
      </g>
     </g>
    </g>
    <g id="ytick_5">
     <g id="line2d_10">
      <g>
       <use style="stroke:#000000;stroke-width:0.8;" x="52.085625" xlink:href="#mc5f7345e55" y="40.557273"/>
      </g>
     </g>
     <g id="text_11">
      <!-- 0.8 -->
      <defs>
       <path d="M 17.671875 38.8125 
Q 12.203125 40.828125 9.5625 44.53125 
Q 6.9375 48.25 6.9375 53.421875 
Q 6.9375 61.234375 12.546875 66.546875 
Q 18.171875 71.875 27.484375 71.875 
Q 36.859375 71.875 42.578125 66.421875 
Q 48.296875 60.984375 48.296875 53.171875 
Q 48.296875 48.1875 45.671875 44.5 
Q 43.0625 40.828125 37.75 38.8125 
Q 44.34375 36.671875 47.78125 31.875 
Q 51.21875 27.09375 51.21875 20.453125 
Q 51.21875 11.28125 44.71875 5.03125 
Q 38.234375 -1.21875 27.640625 -1.21875 
Q 17.046875 -1.21875 10.546875 5.046875 
Q 4.046875 11.328125 4.046875 20.703125 
Q 4.046875 27.6875 7.59375 32.390625 
Q 11.140625 37.109375 17.671875 38.8125 
z
M 15.921875 53.71875 
Q 15.921875 48.640625 19.1875 45.40625 
Q 22.46875 42.1875 27.6875 42.1875 
Q 32.765625 42.1875 36.015625 45.375 
Q 39.265625 48.578125 39.265625 53.21875 
Q 39.265625 58.0625 35.90625 61.359375 
Q 32.5625 64.65625 27.59375 64.65625 
Q 22.5625 64.65625 19.234375 61.421875 
Q 15.921875 58.203125 15.921875 53.71875 
z
M 13.09375 20.65625 
Q 13.09375 16.890625 14.875 13.375 
Q 16.65625 9.859375 20.171875 7.921875 
Q 23.6875 6 27.734375 6 
Q 34.03125 6 38.125 10.046875 
Q 42.234375 14.109375 42.234375 20.359375 
Q 42.234375 26.703125 38.015625 30.859375 
Q 33.796875 35.015625 27.4375 35.015625 
Q 21.234375 35.015625 17.15625 30.90625 
Q 13.09375 26.8125 13.09375 20.65625 
z
" id="ArialMT-56"/>
      </defs>
      <g transform="translate(31.185625 44.136179)scale(0.1 -0.1)">
       <use xlink:href="#ArialMT-48"/>
       <use x="55.615234" xlink:href="#ArialMT-46"/>
       <use x="83.398438" xlink:href="#ArialMT-56"/>
      </g>
     </g>
    </g>
    <g id="ytick_6">
     <g id="line2d_11">
      <g>
       <use style="stroke:#000000;stroke-width:0.8;" x="52.085625" xlink:href="#mc5f7345e55" y="13.871455"/>
      </g>
     </g>
     <g id="text_12">
      <!-- 1.0 -->
      <defs>
       <path d="M 37.25 0 
L 28.46875 0 
L 28.46875 56 
Q 25.296875 52.984375 20.140625 49.953125 
Q 14.984375 46.921875 10.890625 45.40625 
L 10.890625 53.90625 
Q 18.265625 57.375 23.78125 62.296875 
Q 29.296875 67.234375 31.59375 71.875 
L 37.25 71.875 
z
" id="ArialMT-49"/>
      </defs>
      <g transform="translate(31.185625 17.450361)scale(0.1 -0.1)">
       <use xlink:href="#ArialMT-49"/>
       <use x="55.615234" xlink:href="#ArialMT-46"/>
       <use x="83.398438" xlink:href="#ArialMT-48"/>
      </g>
     </g>
    </g>
    <g id="text_13">
     <!-- Relative -->
     <defs>
      <path d="M 4.6875 0 
L 19.671875 71.578125 
L 49.703125 71.578125 
Q 58.59375 71.578125 63.1875 70.09375 
Q 67.78125 68.609375 70.390625 64.5 
Q 73 60.40625 73 54.15625 
Q 73 45.40625 67.28125 39.640625 
Q 61.578125 33.890625 48.828125 32.171875 
Q 52.734375 29.296875 54.734375 26.515625 
Q 59.234375 20.21875 61.96875 13.484375 
L 67.4375 0 
L 56.734375 0 
L 51.609375 13.328125 
Q 48.828125 20.5625 45.265625 25.828125 
Q 42.828125 29.5 40.28125 30.640625 
Q 37.75 31.78125 32.03125 31.78125 
L 20.90625 31.78125 
L 14.265625 0 
z
M 22.515625 39.546875 
L 35.75 39.546875 
Q 44.921875 39.546875 47.703125 39.796875 
Q 53.125 40.328125 56.59375 42.234375 
Q 60.0625 44.140625 61.96875 47.359375 
Q 63.875 50.59375 63.875 54.296875 
Q 63.875 57.421875 62.453125 59.734375 
Q 61.03125 62.0625 58.734375 62.890625 
Q 56.453125 63.71875 50.921875 63.71875 
L 27.59375 63.71875 
z
" id="Arial-ItalicMT-82"/>
      <path d="M 15.875 61.578125 
L 17.96875 71.578125 
L 26.765625 71.578125 
L 24.65625 61.578125 
z
M 2.984375 0 
L 13.8125 51.859375 
L 22.65625 51.859375 
L 11.8125 0 
z
" id="Arial-ItalicMT-105"/>
     </defs>
     <g transform="translate(14.357813 98.649281)rotate(-90)scale(0.1 -0.1)">
      <use xlink:href="#Arial-ItalicMT-82"/>
      <use x="72.216797" xlink:href="#Arial-ItalicMT-101"/>
      <use x="127.832031" xlink:href="#Arial-ItalicMT-108"/>
      <use x="150.048828" xlink:href="#Arial-ItalicMT-97"/>
      <use x="205.664062" xlink:href="#Arial-ItalicMT-116"/>
      <use x="233.447266" xlink:href="#Arial-ItalicMT-105"/>
      <use x="255.664062" xlink:href="#Arial-ItalicMT-118"/>
      <use x="305.664062" xlink:href="#Arial-ItalicMT-101"/>
     </g>
     <!-- Transmission/Power (A.U.) -->
     <defs>
      <path d="M 22.703125 0 
L 35.9375 63.421875 
L 12.453125 63.421875 
L 14.15625 71.578125 
L 70.515625 71.578125 
L 68.796875 63.421875 
L 45.515625 63.421875 
L 32.28125 0 
z
" id="Arial-ItalicMT-84"/>
      <path d="M 3.328125 0 
L 14.15625 51.859375 
L 21.96875 51.859375 
L 19.78125 41.265625 
Q 23.78125 47.265625 27.609375 50.140625 
Q 31.453125 53.03125 35.453125 53.03125 
Q 38.09375 53.03125 41.9375 51.125 
L 38.328125 42.921875 
Q 36.03125 44.578125 33.296875 44.578125 
Q 28.65625 44.578125 23.765625 39.40625 
Q 18.890625 34.234375 16.109375 20.796875 
L 11.71875 0 
z
" id="Arial-ItalicMT-114"/>
      <path d="M 4.15625 17.71875 
L 12.984375 18.265625 
Q 12.984375 14.453125 14.15625 11.765625 
Q 15.328125 9.078125 18.46875 7.375 
Q 21.625 5.671875 25.828125 5.671875 
Q 31.6875 5.671875 34.609375 8.015625 
Q 37.546875 10.359375 37.546875 13.53125 
Q 37.546875 15.828125 35.796875 17.875 
Q 33.984375 19.921875 26.96875 22.921875 
Q 19.96875 25.921875 18.015625 27.15625 
Q 14.75 29.15625 13.078125 31.859375 
Q 11.421875 34.578125 11.421875 38.09375 
Q 11.421875 44.234375 16.296875 48.625 
Q 21.1875 53.03125 29.984375 53.03125 
Q 39.75 53.03125 44.84375 48.515625 
Q 49.953125 44 50.140625 36.625 
L 41.5 36.03125 
Q 41.3125 40.71875 38.1875 43.453125 
Q 35.0625 46.1875 29.34375 46.1875 
Q 24.75 46.1875 22.203125 44.09375 
Q 19.671875 42 19.671875 39.546875 
Q 19.671875 37.109375 21.875 35.25 
Q 23.34375 33.984375 29.4375 31.34375 
Q 39.59375 26.953125 42.234375 24.421875 
Q 46.4375 20.359375 46.4375 14.546875 
Q 46.4375 10.6875 44.0625 6.96875 
Q 41.703125 3.265625 36.84375 1.046875 
Q 31.984375 -1.171875 25.390625 -1.171875 
Q 16.40625 -1.171875 10.109375 3.265625 
Q 3.8125 7.71875 4.15625 17.71875 
z
" id="Arial-ItalicMT-115"/>
      <path d="M 4.890625 19.671875 
Q 4.890625 34.859375 13.8125 44.828125 
Q 21.1875 53.03125 33.15625 53.03125 
Q 42.53125 53.03125 48.265625 47.171875 
Q 54 41.3125 54 31.34375 
Q 54 22.40625 50.390625 14.71875 
Q 46.78125 7.03125 40.109375 2.921875 
Q 33.453125 -1.171875 26.078125 -1.171875 
Q 20.015625 -1.171875 15.0625 1.40625 
Q 10.109375 4 7.5 8.734375 
Q 4.890625 13.484375 4.890625 19.671875 
z
M 13.71875 20.5625 
Q 13.71875 13.234375 17.234375 9.453125 
Q 20.75 5.671875 26.171875 5.671875 
Q 29 5.671875 31.78125 6.8125 
Q 34.578125 7.953125 36.96875 10.296875 
Q 39.359375 12.640625 41.03125 15.640625 
Q 42.71875 18.65625 43.75 22.125 
Q 45.265625 26.953125 45.265625 31.390625 
Q 45.265625 38.421875 41.71875 42.296875 
Q 38.1875 46.1875 32.8125 46.1875 
Q 28.65625 46.1875 25.234375 44.203125 
Q 21.828125 42.234375 19.0625 38.421875 
Q 16.3125 34.625 15.015625 29.5625 
Q 13.71875 24.515625 13.71875 20.5625 
z
" id="Arial-ItalicMT-111"/>
      <path d="M -5.078125 -1.171875 
L 33.40625 72.796875 
L 41.0625 72.796875 
L 2.59375 -1.171875 
z
" id="Arial-ItalicMT-47"/>
      <path d="M 4.296875 0 
L 19.28125 71.578125 
L 49.171875 71.578125 
Q 56.9375 71.578125 60.8125 69.796875 
Q 64.703125 68.015625 67.234375 63.6875 
Q 69.78125 59.375 69.78125 54 
Q 69.78125 49.5625 67.96875 44.96875 
Q 66.15625 40.375 63.390625 37.390625 
Q 60.640625 34.421875 57.8125 32.90625 
Q 54.984375 31.390625 51.765625 30.671875 
Q 44.875 29.046875 37.84375 29.046875 
L 19.921875 29.046875 
L 13.875 0 
z
M 21.625 37.15625 
L 37.40625 37.15625 
Q 46.578125 37.15625 50.875 39.125 
Q 55.171875 41.109375 57.765625 45.15625 
Q 60.359375 49.21875 60.359375 53.765625 
Q 60.359375 57.28125 58.984375 59.5 
Q 57.625 61.71875 55.125 62.765625 
Q 52.640625 63.8125 45.5625 63.8125 
L 27.203125 63.8125 
z
" id="Arial-ItalicMT-80"/>
      <path d="M 13.1875 0 
L 7.765625 51.859375 
L 16.265625 51.859375 
L 18.609375 28.5625 
L 19.53125 15.484375 
Q 19.625 14.015625 19.828125 9.578125 
Q 21.296875 14.546875 22.3125 17.203125 
Q 23.34375 19.875 25.59375 24.8125 
L 37.9375 51.859375 
L 47.5625 51.859375 
L 49.265625 25.921875 
Q 49.65625 20.015625 49.75 10.15625 
Q 52.203125 16.703125 57.71875 28.328125 
L 68.84375 51.859375 
L 77.6875 51.859375 
L 52.34375 0 
L 43.171875 0 
L 41.21875 30.421875 
Q 41.015625 33.25 40.921875 41.453125 
Q 38.921875 36.234375 36.1875 30.171875 
L 22.46875 0 
z
" id="Arial-ItalicMT-119"/>
      <path d="M -2 0 
L 38.578125 71.578125 
L 49.859375 71.578125 
L 61.671875 0 
L 52.390625 0 
L 48.921875 20.609375 
L 19.96875 20.609375 
L 8.5 0 
z
M 24.078125 27.984375 
L 47.75 27.984375 
L 44.96875 45.953125 
Q 43.359375 56.640625 42.96875 63.765625 
Q 40.53125 57.625 35.84375 49.171875 
z
" id="Arial-ItalicMT-65"/>
      <path d="M 5.765625 0 
L 7.859375 10.015625 
L 17.875 10.015625 
L 15.71875 0 
z
" id="Arial-ItalicMT-46"/>
      <path d="M 19.828125 71.578125 
L 29.390625 71.578125 
L 20.21875 27.59375 
Q 19.09375 22.125 19.09375 19.484375 
Q 19.09375 13.71875 23.625 10.203125 
Q 28.171875 6.6875 35.0625 6.6875 
Q 40.53125 6.6875 45.234375 9.203125 
Q 49.953125 11.71875 52.6875 16.59375 
Q 55.421875 21.484375 57.625 32.171875 
L 65.875 71.578125 
L 75.4375 71.578125 
L 66.703125 29.59375 
Q 64.453125 18.84375 60.78125 12.5625 
Q 57.125 6.296875 50.625 2.515625 
Q 44.140625 -1.265625 35.546875 -1.265625 
Q 27.4375 -1.265625 21.5 1.421875 
Q 15.578125 4.109375 12.625 8.84375 
Q 9.671875 13.578125 9.671875 19.578125 
Q 9.671875 23.34375 11.671875 32.515625 
z
" id="Arial-ItalicMT-85"/>
     </defs>
     <g transform="translate(25.080938 139.9485)rotate(-90)scale(0.1 -0.1)">
      <use xlink:href="#Arial-ItalicMT-84"/>
      <use x="53.708984" xlink:href="#Arial-ItalicMT-114"/>
      <use x="87.009766" xlink:href="#Arial-ItalicMT-97"/>
      <use x="142.625" xlink:href="#Arial-ItalicMT-110"/>
      <use x="198.240234" xlink:href="#Arial-ItalicMT-115"/>
      <use x="248.240234" xlink:href="#Arial-ItalicMT-109"/>
      <use x="331.541016" xlink:href="#Arial-ItalicMT-105"/>
      <use x="353.757812" xlink:href="#Arial-ItalicMT-115"/>
      <use x="403.757812" xlink:href="#Arial-ItalicMT-115"/>
      <use x="453.757812" xlink:href="#Arial-ItalicMT-105"/>
      <use x="475.974609" xlink:href="#Arial-ItalicMT-111"/>
      <use x="531.589844" xlink:href="#Arial-ItalicMT-110"/>
      <use x="587.205078" xlink:href="#Arial-ItalicMT-47"/>
      <use x="614.988281" xlink:href="#Arial-ItalicMT-80"/>
      <use x="681.6875" xlink:href="#Arial-ItalicMT-111"/>
      <use x="737.302734" xlink:href="#Arial-ItalicMT-119"/>
      <use x="809.519531" xlink:href="#Arial-ItalicMT-101"/>
      <use x="865.134766" xlink:href="#Arial-ItalicMT-114"/>
      <use x="898.435547" xlink:href="#Arial-ItalicMT-32"/>
      <use x="926.21875" xlink:href="#Arial-ItalicMT-40"/>
      <use x="959.519531" xlink:href="#Arial-ItalicMT-65"/>
      <use x="1026.21875" xlink:href="#Arial-ItalicMT-46"/>
      <use x="1054.001953" xlink:href="#Arial-ItalicMT-85"/>
      <use x="1126.21875" xlink:href="#Arial-ItalicMT-46"/>
      <use x="1154.001953" xlink:href="#Arial-ItalicMT-41"/>
     </g>
    </g>
   </g>
   <g id="line2d_12">
    <path clip-path="url(#peadc3cc47d)" d="M 74.890842 147.300545 
L 302.943016 147.300545 
L 302.943016 147.300545 
" style="fill:none;stroke:#808080;stroke-linecap:square;"/>
   </g>
   <g id="line2d_13">
    <path clip-path="url(#peadc3cc47d)" d="M 228.255929 147.299798 
L 228.82606 147.296696 
L 229.39619 147.277245 
L 229.966321 147.125273 
L 230.536451 145.470325 
L 231.106582 123.99155 
L 231.676712 49.971627 
L 232.246842 18.518922 
L 232.816973 17.548362 
L 233.387103 16.427825 
L 233.957234 15.508626 
L 234.527364 15.720247 
L 235.097495 15.981233 
L 235.667625 16.216204 
L 236.237755 15.925593 
L 236.807886 15.428309 
L 237.378016 15.544923 
L 237.948147 16.463717 
L 238.518277 17.240669 
L 239.088408 17.474709 
L 239.658538 17.438682 
L 240.228668 16.844657 
L 240.798799 16.017928 
L 241.368929 15.903715 
L 241.93906 16.629433 
L 242.50919 17.596128 
L 243.079321 17.715812 
L 243.649451 17.186103 
L 244.219582 16.107725 
L 244.789712 15.161581 
L 245.359842 15.308354 
L 245.929973 15.735724 
L 246.500103 15.628183 
L 247.070234 15.521709 
L 247.640364 15.435244 
L 248.210495 15.582414 
L 248.780625 15.934803 
L 249.350755 16.105594 
L 249.920886 16.065161 
L 250.491016 16.177513 
L 251.061147 16.899493 
L 251.631277 17.68886 
L 252.201408 17.970793 
L 252.771538 17.264019 
L 253.341668 16.322416 
L 253.911799 15.792031 
L 254.481929 16.58407 
L 255.05206 17.637221 
L 255.62219 17.280434 
L 256.192321 16.704025 
L 256.762451 16.048881 
L 257.332582 15.643389 
L 257.902712 15.473537 
L 258.472842 15.705701 
L 259.042973 16.494407 
L 259.613103 69.680036 
L 260.183234 110.083037 
L 260.753364 142.937774 
L 261.323495 146.670971 
L 261.893625 147.199141 
L 262.463755 147.280095 
L 263.033886 147.295649 
L 263.604016 147.299219 
" style="fill:none;stroke:#ef553b;stroke-linecap:square;stroke-width:1.5;"/>
   </g>
   <g id="line2d_14">
    <path clip-path="url(#peadc3cc47d)" d="M 187.206538 147.29768 
L 187.776668 147.259447 
L 188.346799 146.278332 
L 188.916929 119.076958 
L 189.48706 36.666746 
L 190.05719 18.555346 
L 190.627321 17.272831 
L 191.197451 16.136817 
L 191.767582 16.065431 
L 192.337712 16.613957 
L 192.907842 17.369165 
L 193.477973 16.950997 
L 194.048103 16.769001 
L 194.618234 17.380506 
L 195.188364 17.342213 
L 195.758495 16.514282 
L 196.328625 17.172758 
L 196.898755 17.853916 
L 197.468886 17.231332 
L 198.039016 15.948148 
L 198.609147 15.883562 
L 199.179277 16.480124 
L 199.749408 17.034925 
L 200.319538 16.89189 
L 200.889668 16.852531 
L 201.459799 16.824107 
L 202.029929 16.411012 
L 202.60006 16.169233 
L 203.17019 16.468783 
L 203.740321 16.878943 
L 204.310451 17.068948 
L 204.880582 16.726301 
L 205.450712 15.859679 
L 206.020842 16.248628 
L 206.590973 16.695881 
L 207.161103 16.870942 
L 207.731234 16.434362 
L 208.301364 16.272781 
L 208.871495 16.218073 
L 209.441625 16.362173 
L 210.011755 16.694282 
L 210.581886 16.973679 
L 211.152016 17.299378 
L 211.722147 16.908432 
L 212.292277 16.406877 
L 212.862408 16.188981 
L 213.432538 16.34136 
L 214.002668 16.697614 
L 214.572799 18.232582 
L 215.142929 25.884078 
L 215.71306 29.417012 
L 216.28319 97.385255 
L 216.853321 142.664939 
L 217.423451 146.95593 
L 217.993582 147.267045 
L 218.563712 147.295763 
L 219.133842 147.299721 
" style="fill:none;stroke:#00cc96;stroke-linecap:square;stroke-width:1.5;"/>
   </g>
   <g id="line2d_15">
    <path clip-path="url(#peadc3cc47d)" d="M 74.890842 147.300545 
L 167.251973 147.300545 
L 167.822103 146.940287 
L 170.672755 146.620057 
L 172.383147 146.153055 
L 173.523408 145.672711 
L 174.663668 144.912165 
L 175.803929 143.751332 
L 176.37406 143.0575 
L 177.514321 141.149464 
L 178.654582 138.614312 
L 179.794842 135.025069 
L 180.935103 130.408423 
L 182.075364 124.404113 
L 183.215625 117.052171 
L 184.355886 108.005678 
L 185.496147 97.744981 
L 187.206538 79.411824 
L 191.197451 32.257983 
L 192.337712 22.477631 
L 192.907842 18.354672 
L 193.477973 15.512632 
L 194.048103 13.951512 
L 195.188364 13.871455 
L 195.758495 15.352517 
L 196.328625 17.927699 
L 197.468886 26.413789 
L 198.609147 35.953969 
L 200.319538 51.912088 
L 201.459799 60.518265 
L 202.60006 67.69675 
L 203.740321 74.314833 
L 205.450712 81.920291 
L 206.020842 84.148557 
L 206.590973 85.442819 
L 207.731234 88.685146 
L 208.301364 89.979408 
L 208.871495 90.980126 
L 209.441625 92.527904 
L 210.581886 94.702798 
L 211.152016 95.703516 
L 211.722147 96.464062 
L 212.292277 98.025182 
L 212.862408 98.985872 
L 213.432538 99.492902 
L 214.002668 100.920593 
L 215.71306 104.296349 
L 217.993582 109.993772 
L 219.703973 114.597075 
L 220.844234 117.3724 
L 221.984495 119.707409 
L 223.124755 122.41602 
L 223.694886 123.203252 
L 224.835147 125.725061 
L 227.685799 130.181593 
L 228.82606 131.649313 
L 229.39619 132.0496 
L 229.966321 132.890204 
L 230.536451 133.410577 
L 231.106582 134.371267 
L 231.676712 134.504696 
L 233.957234 136.45276 
L 237.378016 138.587626 
L 238.518277 138.854484 
L 239.088408 139.374857 
L 239.658538 139.414886 
L 240.228668 139.855202 
L 241.368929 140.228804 
L 241.93906 140.615748 
L 242.50919 140.735834 
L 244.789712 141.736552 
L 245.359842 141.869981 
L 246.500103 142.363669 
L 248.210495 142.817328 
L 248.780625 142.977443 
L 249.350755 142.9641 
L 249.920886 143.351044 
L 254.481929 144.365105 
L 255.05206 144.325077 
L 256.192321 144.645307 
L 258.472842 145.032251 
L 259.042973 144.992222 
L 259.613103 145.232395 
L 262.463755 145.405852 
L 263.033886 145.512596 
L 263.604016 145.48591 
L 264.174147 145.632682 
L 266.454668 145.712739 
L 268.16506 145.846168 
L 272.155973 146.019626 
L 272.726103 146.139712 
L 273.296234 146.006283 
L 273.866364 146.126369 
L 275.006625 146.179741 
L 277.857277 146.286484 
L 285.268973 146.366542 
L 285.839103 146.446599 
L 286.979364 146.433256 
L 291.540408 146.446599 
L 294.96119 146.393228 
L 295.531321 146.486628 
L 296.101451 146.379885 
L 296.671582 146.486628 
L 297.241712 146.433256 
L 297.811842 146.499971 
L 298.381973 146.393228 
L 302.943016 146.446599 
L 302.943016 146.446599 
" style="fill:none;stroke:#000000;stroke-linecap:square;stroke-width:1.5;"/>
   </g>
   <g id="patch_3">
    <path d="M 52.085625 153.972 
L 52.085625 7.2 
" style="fill:none;stroke:#000000;stroke-linecap:square;stroke-linejoin:miter;stroke-width:0.8;"/>
   </g>
   <g id="patch_4">
    <path d="M 314.345625 153.972 
L 314.345625 7.2 
" style="fill:none;stroke:#000000;stroke-linecap:square;stroke-linejoin:miter;stroke-width:0.8;"/>
   </g>
   <g id="patch_5">
    <path d="M 52.085625 153.972 
L 314.345625 153.972 
" style="fill:none;stroke:#000000;stroke-linecap:square;stroke-linejoin:miter;stroke-width:0.8;"/>
   </g>
   <g id="patch_6">
    <path d="M 52.085625 7.2 
L 314.345625 7.2 
" style="fill:none;stroke:#000000;stroke-linecap:square;stroke-linejoin:miter;stroke-width:0.8;"/>
   </g>
   <g id="legend_1">
    <g id="patch_7">
     <path d="M 59.085625 78.789687 
L 172.237188 78.789687 
Q 174.237188 78.789687 174.237188 76.789687 
L 174.237188 14.2 
Q 174.237188 12.2 172.237188 12.2 
L 59.085625 12.2 
Q 57.085625 12.2 57.085625 14.2 
L 57.085625 76.789687 
Q 57.085625 78.789687 59.085625 78.789687 
z
" style="fill:#ffffff;opacity:0.8;stroke:#cccccc;stroke-linejoin:miter;"/>
    </g>
    <g id="line2d_16">
     <path d="M 61.085625 26.14 
L 81.085625 26.14 
" style="fill:none;stroke:#ef553b;stroke-linecap:square;stroke-width:1.5;"/>
    </g>
    <g id="line2d_17"/>
    <g id="text_14">
     <!-- tdTomato Channel -->
     <defs>
      <path d="M 25.78125 7.859375 
L 27.046875 0.09375 
Q 23.34375 -0.6875 20.40625 -0.6875 
Q 15.625 -0.6875 12.984375 0.828125 
Q 10.359375 2.34375 9.28125 4.8125 
Q 8.203125 7.28125 8.203125 15.1875 
L 8.203125 45.015625 
L 1.765625 45.015625 
L 1.765625 51.859375 
L 8.203125 51.859375 
L 8.203125 64.703125 
L 16.9375 69.96875 
L 16.9375 51.859375 
L 25.78125 51.859375 
L 25.78125 45.015625 
L 16.9375 45.015625 
L 16.9375 14.703125 
Q 16.9375 10.9375 17.40625 9.859375 
Q 17.875 8.796875 18.921875 8.15625 
Q 19.96875 7.515625 21.921875 7.515625 
Q 23.390625 7.515625 25.78125 7.859375 
z
" id="ArialMT-116"/>
      <path d="M 40.234375 0 
L 40.234375 6.546875 
Q 35.296875 -1.171875 25.734375 -1.171875 
Q 19.53125 -1.171875 14.328125 2.25 
Q 9.125 5.671875 6.265625 11.796875 
Q 3.421875 17.921875 3.421875 25.875 
Q 3.421875 33.640625 6 39.96875 
Q 8.59375 46.296875 13.765625 49.65625 
Q 18.953125 53.03125 25.34375 53.03125 
Q 30.03125 53.03125 33.6875 51.046875 
Q 37.359375 49.078125 39.65625 45.90625 
L 39.65625 71.578125 
L 48.390625 71.578125 
L 48.390625 0 
z
M 12.453125 25.875 
Q 12.453125 15.921875 16.640625 10.984375 
Q 20.84375 6.0625 26.5625 6.0625 
Q 32.328125 6.0625 36.34375 10.765625 
Q 40.375 15.484375 40.375 25.140625 
Q 40.375 35.796875 36.265625 40.765625 
Q 32.171875 45.75 26.171875 45.75 
Q 20.3125 45.75 16.375 40.96875 
Q 12.453125 36.1875 12.453125 25.875 
z
" id="ArialMT-100"/>
      <path d="M 25.921875 0 
L 25.921875 63.140625 
L 2.34375 63.140625 
L 2.34375 71.578125 
L 59.078125 71.578125 
L 59.078125 63.140625 
L 35.40625 63.140625 
L 35.40625 0 
z
" id="ArialMT-84"/>
      <path d="M 3.328125 25.921875 
Q 3.328125 40.328125 11.328125 47.265625 
Q 18.015625 53.03125 27.640625 53.03125 
Q 38.328125 53.03125 45.109375 46.015625 
Q 51.90625 39.015625 51.90625 26.65625 
Q 51.90625 16.65625 48.90625 10.90625 
Q 45.90625 5.171875 40.15625 2 
Q 34.421875 -1.171875 27.640625 -1.171875 
Q 16.75 -1.171875 10.03125 5.8125 
Q 3.328125 12.796875 3.328125 25.921875 
z
M 12.359375 25.921875 
Q 12.359375 15.96875 16.703125 11.015625 
Q 21.046875 6.0625 27.640625 6.0625 
Q 34.1875 6.0625 38.53125 11.03125 
Q 42.875 16.015625 42.875 26.21875 
Q 42.875 35.84375 38.5 40.796875 
Q 34.125 45.75 27.640625 45.75 
Q 21.046875 45.75 16.703125 40.8125 
Q 12.359375 35.890625 12.359375 25.921875 
z
" id="ArialMT-111"/>
      <path d="M 6.59375 0 
L 6.59375 51.859375 
L 14.453125 51.859375 
L 14.453125 44.578125 
Q 16.890625 48.390625 20.9375 50.703125 
Q 25 53.03125 30.171875 53.03125 
Q 35.9375 53.03125 39.625 50.640625 
Q 43.3125 48.25 44.828125 43.953125 
Q 50.984375 53.03125 60.84375 53.03125 
Q 68.5625 53.03125 72.703125 48.75 
Q 76.859375 44.484375 76.859375 35.59375 
L 76.859375 0 
L 68.109375 0 
L 68.109375 32.671875 
Q 68.109375 37.9375 67.25 40.25 
Q 66.40625 42.578125 64.15625 43.984375 
Q 61.921875 45.40625 58.890625 45.40625 
Q 53.421875 45.40625 49.796875 41.765625 
Q 46.1875 38.140625 46.1875 30.125 
L 46.1875 0 
L 37.40625 0 
L 37.40625 33.6875 
Q 37.40625 39.546875 35.25 42.46875 
Q 33.109375 45.40625 28.21875 45.40625 
Q 24.515625 45.40625 21.359375 43.453125 
Q 18.21875 41.5 16.796875 37.734375 
Q 15.375 33.984375 15.375 26.90625 
L 15.375 0 
z
" id="ArialMT-109"/>
      <path d="M 40.4375 6.390625 
Q 35.546875 2.25 31.03125 0.53125 
Q 26.515625 -1.171875 21.34375 -1.171875 
Q 12.796875 -1.171875 8.203125 3 
Q 3.609375 7.171875 3.609375 13.671875 
Q 3.609375 17.484375 5.34375 20.625 
Q 7.078125 23.78125 9.890625 25.6875 
Q 12.703125 27.59375 16.21875 28.5625 
Q 18.796875 29.25 24.03125 29.890625 
Q 34.671875 31.15625 39.703125 32.90625 
Q 39.75 34.71875 39.75 35.203125 
Q 39.75 40.578125 37.25 42.78125 
Q 33.890625 45.75 27.25 45.75 
Q 21.046875 45.75 18.09375 43.578125 
Q 15.140625 41.40625 13.71875 35.890625 
L 5.125 37.0625 
Q 6.296875 42.578125 8.984375 45.96875 
Q 11.671875 49.359375 16.75 51.1875 
Q 21.828125 53.03125 28.515625 53.03125 
Q 35.15625 53.03125 39.296875 51.46875 
Q 43.453125 49.90625 45.40625 47.53125 
Q 47.359375 45.171875 48.140625 41.546875 
Q 48.578125 39.3125 48.578125 33.453125 
L 48.578125 21.734375 
Q 48.578125 9.46875 49.140625 6.21875 
Q 49.703125 2.984375 51.375 0 
L 42.1875 0 
Q 40.828125 2.734375 40.4375 6.390625 
z
M 39.703125 26.03125 
Q 34.90625 24.078125 25.34375 22.703125 
Q 19.921875 21.921875 17.671875 20.9375 
Q 15.4375 19.96875 14.203125 18.09375 
Q 12.984375 16.21875 12.984375 13.921875 
Q 12.984375 10.40625 15.640625 8.0625 
Q 18.3125 5.71875 23.4375 5.71875 
Q 28.515625 5.71875 32.46875 7.9375 
Q 36.421875 10.15625 38.28125 14.015625 
Q 39.703125 17 39.703125 22.796875 
z
" id="ArialMT-97"/>
      <path id="ArialMT-32"/>
      <path d="M 58.796875 25.09375 
L 68.265625 22.703125 
Q 65.28125 11.03125 57.546875 4.90625 
Q 49.8125 -1.21875 38.625 -1.21875 
Q 27.046875 -1.21875 19.796875 3.484375 
Q 12.546875 8.203125 8.765625 17.140625 
Q 4.984375 26.078125 4.984375 36.328125 
Q 4.984375 47.515625 9.25 55.828125 
Q 13.53125 64.15625 21.40625 68.46875 
Q 29.296875 72.796875 38.765625 72.796875 
Q 49.515625 72.796875 56.828125 67.328125 
Q 64.15625 61.859375 67.046875 51.953125 
L 57.71875 49.75 
Q 55.21875 57.5625 50.484375 61.125 
Q 45.75 64.703125 38.578125 64.703125 
Q 30.328125 64.703125 24.78125 60.734375 
Q 19.234375 56.78125 16.984375 50.109375 
Q 14.75 43.453125 14.75 36.375 
Q 14.75 27.25 17.40625 20.4375 
Q 20.0625 13.625 25.671875 10.25 
Q 31.296875 6.890625 37.84375 6.890625 
Q 45.796875 6.890625 51.3125 11.46875 
Q 56.84375 16.0625 58.796875 25.09375 
z
" id="ArialMT-67"/>
      <path d="M 6.59375 0 
L 6.59375 71.578125 
L 15.375 71.578125 
L 15.375 45.90625 
Q 21.53125 53.03125 30.90625 53.03125 
Q 36.671875 53.03125 40.921875 50.75 
Q 45.171875 48.484375 47 44.484375 
Q 48.828125 40.484375 48.828125 32.859375 
L 48.828125 0 
L 40.046875 0 
L 40.046875 32.859375 
Q 40.046875 39.453125 37.1875 42.453125 
Q 34.328125 45.453125 29.109375 45.453125 
Q 25.203125 45.453125 21.75 43.421875 
Q 18.3125 41.40625 16.84375 37.9375 
Q 15.375 34.46875 15.375 28.375 
L 15.375 0 
z
" id="ArialMT-104"/>
      <path d="M 6.59375 0 
L 6.59375 51.859375 
L 14.5 51.859375 
L 14.5 44.484375 
Q 20.21875 53.03125 31 53.03125 
Q 35.6875 53.03125 39.625 51.34375 
Q 43.5625 49.65625 45.515625 46.921875 
Q 47.46875 44.1875 48.25 40.4375 
Q 48.734375 37.984375 48.734375 31.890625 
L 48.734375 0 
L 39.9375 0 
L 39.9375 31.546875 
Q 39.9375 36.921875 38.90625 39.578125 
Q 37.890625 42.234375 35.28125 43.8125 
Q 32.671875 45.40625 29.15625 45.40625 
Q 23.53125 45.40625 19.453125 41.84375 
Q 15.375 38.28125 15.375 28.328125 
L 15.375 0 
z
" id="ArialMT-110"/>
      <path d="M 42.09375 16.703125 
L 51.171875 15.578125 
Q 49.03125 7.625 43.21875 3.21875 
Q 37.40625 -1.171875 28.375 -1.171875 
Q 17 -1.171875 10.328125 5.828125 
Q 3.65625 12.84375 3.65625 25.484375 
Q 3.65625 38.578125 10.390625 45.796875 
Q 17.140625 53.03125 27.875 53.03125 
Q 38.28125 53.03125 44.875 45.953125 
Q 51.46875 38.875 51.46875 26.03125 
Q 51.46875 25.25 51.421875 23.6875 
L 12.75 23.6875 
Q 13.234375 15.140625 17.578125 10.59375 
Q 21.921875 6.0625 28.421875 6.0625 
Q 33.25 6.0625 36.671875 8.59375 
Q 40.09375 11.140625 42.09375 16.703125 
z
M 13.234375 30.90625 
L 42.1875 30.90625 
Q 41.609375 37.453125 38.875 40.71875 
Q 34.671875 45.796875 27.984375 45.796875 
Q 21.921875 45.796875 17.796875 41.75 
Q 13.671875 37.703125 13.234375 30.90625 
z
" id="ArialMT-101"/>
      <path d="M 6.390625 0 
L 6.390625 71.578125 
L 15.1875 71.578125 
L 15.1875 0 
z
" id="ArialMT-108"/>
     </defs>
     <g transform="translate(89.085625 23.357812)scale(0.1 -0.1)">
      <use xlink:href="#ArialMT-116"/>
      <use x="27.783203" xlink:href="#ArialMT-100"/>
      <use x="83.398438" xlink:href="#ArialMT-84"/>
      <use x="133.357422" xlink:href="#ArialMT-111"/>
      <use x="188.972656" xlink:href="#ArialMT-109"/>
      <use x="272.273438" xlink:href="#ArialMT-97"/>
      <use x="327.888672" xlink:href="#ArialMT-116"/>
      <use x="355.671875" xlink:href="#ArialMT-111"/>
      <use x="411.287109" xlink:href="#ArialMT-32"/>
      <use x="439.070312" xlink:href="#ArialMT-67"/>
      <use x="511.287109" xlink:href="#ArialMT-104"/>
      <use x="566.902344" xlink:href="#ArialMT-97"/>
      <use x="622.517578" xlink:href="#ArialMT-110"/>
      <use x="678.132812" xlink:href="#ArialMT-110"/>
      <use x="733.748047" xlink:href="#ArialMT-101"/>
      <use x="789.363281" xlink:href="#ArialMT-108"/>
     </g>
     <!-- Emission Filter -->
     <defs>
      <path d="M 7.90625 0 
L 7.90625 71.578125 
L 59.671875 71.578125 
L 59.671875 63.140625 
L 17.390625 63.140625 
L 17.390625 41.21875 
L 56.984375 41.21875 
L 56.984375 32.8125 
L 17.390625 32.8125 
L 17.390625 8.453125 
L 61.328125 8.453125 
L 61.328125 0 
z
" id="ArialMT-69"/>
      <path d="M 6.640625 61.46875 
L 6.640625 71.578125 
L 15.4375 71.578125 
L 15.4375 61.46875 
z
M 6.640625 0 
L 6.640625 51.859375 
L 15.4375 51.859375 
L 15.4375 0 
z
" id="ArialMT-105"/>
      <path d="M 3.078125 15.484375 
L 11.765625 16.84375 
Q 12.5 11.625 15.84375 8.84375 
Q 19.1875 6.0625 25.203125 6.0625 
Q 31.25 6.0625 34.171875 8.515625 
Q 37.109375 10.984375 37.109375 14.3125 
Q 37.109375 17.28125 34.515625 19 
Q 32.71875 20.171875 25.53125 21.96875 
Q 15.875 24.421875 12.140625 26.203125 
Q 8.40625 27.984375 6.46875 31.125 
Q 4.546875 34.28125 4.546875 38.09375 
Q 4.546875 41.546875 6.125 44.5 
Q 7.71875 47.46875 10.453125 49.421875 
Q 12.5 50.921875 16.03125 51.96875 
Q 19.578125 53.03125 23.640625 53.03125 
Q 29.734375 53.03125 34.34375 51.265625 
Q 38.96875 49.515625 41.15625 46.5 
Q 43.359375 43.5 44.1875 38.484375 
L 35.59375 37.3125 
Q 35.015625 41.3125 32.203125 43.546875 
Q 29.390625 45.796875 24.265625 45.796875 
Q 18.21875 45.796875 15.625 43.796875 
Q 13.03125 41.796875 13.03125 39.109375 
Q 13.03125 37.40625 14.109375 36.03125 
Q 15.1875 34.625 17.484375 33.6875 
Q 18.796875 33.203125 25.25 31.453125 
Q 34.578125 28.953125 38.25 27.359375 
Q 41.9375 25.78125 44.03125 22.75 
Q 46.140625 19.734375 46.140625 15.234375 
Q 46.140625 10.84375 43.578125 6.953125 
Q 41.015625 3.078125 36.171875 0.953125 
Q 31.34375 -1.171875 25.25 -1.171875 
Q 15.140625 -1.171875 9.84375 3.03125 
Q 4.546875 7.234375 3.078125 15.484375 
z
" id="ArialMT-115"/>
      <path d="M 8.203125 0 
L 8.203125 71.578125 
L 56.5 71.578125 
L 56.5 63.140625 
L 17.671875 63.140625 
L 17.671875 40.96875 
L 51.265625 40.96875 
L 51.265625 32.515625 
L 17.671875 32.515625 
L 17.671875 0 
z
" id="ArialMT-70"/>
      <path d="M 6.5 0 
L 6.5 51.859375 
L 14.40625 51.859375 
L 14.40625 44 
Q 17.4375 49.515625 20 51.265625 
Q 22.5625 53.03125 25.640625 53.03125 
Q 30.078125 53.03125 34.671875 50.203125 
L 31.640625 42.046875 
Q 28.421875 43.953125 25.203125 43.953125 
Q 22.3125 43.953125 20.015625 42.21875 
Q 17.71875 40.484375 16.75 37.40625 
Q 15.28125 32.71875 15.28125 27.15625 
L 15.28125 0 
z
" id="ArialMT-114"/>
     </defs>
     <g transform="translate(89.085625 33.934687)scale(0.1 -0.1)">
      <use xlink:href="#ArialMT-69"/>
      <use x="66.699219" xlink:href="#ArialMT-109"/>
      <use x="150" xlink:href="#ArialMT-105"/>
      <use x="172.216797" xlink:href="#ArialMT-115"/>
      <use x="222.216797" xlink:href="#ArialMT-115"/>
      <use x="272.216797" xlink:href="#ArialMT-105"/>
      <use x="294.433594" xlink:href="#ArialMT-111"/>
      <use x="350.048828" xlink:href="#ArialMT-110"/>
      <use x="405.664062" xlink:href="#ArialMT-32"/>
      <use x="433.447266" xlink:href="#ArialMT-70"/>
      <use x="494.53125" xlink:href="#ArialMT-105"/>
      <use x="516.748047" xlink:href="#ArialMT-108"/>
      <use x="538.964844" xlink:href="#ArialMT-116"/>
      <use x="566.748047" xlink:href="#ArialMT-101"/>
      <use x="622.363281" xlink:href="#ArialMT-114"/>
     </g>
    </g>
    <g id="line2d_18">
     <path d="M 61.085625 50.862187 
L 81.085625 50.862187 
" style="fill:none;stroke:#00cc96;stroke-linecap:square;stroke-width:1.5;"/>
    </g>
    <g id="line2d_19"/>
    <g id="text_15">
     <!-- GCaMP Channel -->
     <defs>
      <path d="M 41.21875 28.078125 
L 41.21875 36.46875 
L 71.53125 36.53125 
L 71.53125 9.96875 
Q 64.546875 4.390625 57.125 1.578125 
Q 49.703125 -1.21875 41.890625 -1.21875 
Q 31.34375 -1.21875 22.71875 3.296875 
Q 14.109375 7.8125 9.71875 16.359375 
Q 5.328125 24.90625 5.328125 35.453125 
Q 5.328125 45.90625 9.6875 54.953125 
Q 14.0625 64.015625 22.265625 68.40625 
Q 30.46875 72.796875 41.15625 72.796875 
Q 48.921875 72.796875 55.1875 70.28125 
Q 61.46875 67.78125 65.03125 63.28125 
Q 68.609375 58.796875 70.453125 51.5625 
L 61.921875 49.21875 
Q 60.296875 54.6875 57.90625 57.8125 
Q 55.515625 60.9375 51.0625 62.8125 
Q 46.625 64.703125 41.21875 64.703125 
Q 34.71875 64.703125 29.984375 62.71875 
Q 25.25 60.75 22.34375 57.515625 
Q 19.4375 54.296875 17.828125 50.4375 
Q 15.09375 43.796875 15.09375 36.03125 
Q 15.09375 26.46875 18.390625 20.015625 
Q 21.6875 13.578125 27.984375 10.453125 
Q 34.28125 7.328125 41.359375 7.328125 
Q 47.515625 7.328125 53.375 9.6875 
Q 59.234375 12.0625 62.25 14.75 
L 62.25 28.078125 
z
" id="ArialMT-71"/>
      <path d="M 7.421875 0 
L 7.421875 71.578125 
L 21.6875 71.578125 
L 38.625 20.90625 
Q 40.96875 13.8125 42.046875 10.296875 
Q 43.265625 14.203125 45.84375 21.78125 
L 62.984375 71.578125 
L 75.734375 71.578125 
L 75.734375 0 
L 66.609375 0 
L 66.609375 59.90625 
L 45.796875 0 
L 37.25 0 
L 16.546875 60.9375 
L 16.546875 0 
z
" id="ArialMT-77"/>
      <path d="M 7.71875 0 
L 7.71875 71.578125 
L 34.71875 71.578125 
Q 41.84375 71.578125 45.609375 70.90625 
Q 50.875 70.015625 54.4375 67.546875 
Q 58.015625 65.09375 60.1875 60.640625 
Q 62.359375 56.203125 62.359375 50.875 
Q 62.359375 41.75 56.546875 35.421875 
Q 50.734375 29.109375 35.546875 29.109375 
L 17.1875 29.109375 
L 17.1875 0 
z
M 17.1875 37.546875 
L 35.6875 37.546875 
Q 44.875 37.546875 48.734375 40.96875 
Q 52.59375 44.390625 52.59375 50.59375 
Q 52.59375 55.078125 50.3125 58.265625 
Q 48.046875 61.46875 44.34375 62.5 
Q 41.9375 63.140625 35.5 63.140625 
L 17.1875 63.140625 
z
" id="ArialMT-80"/>
     </defs>
     <g transform="translate(89.085625 48.08)scale(0.1 -0.1)">
      <use xlink:href="#ArialMT-71"/>
      <use x="77.783203" xlink:href="#ArialMT-67"/>
      <use x="150" xlink:href="#ArialMT-97"/>
      <use x="205.615234" xlink:href="#ArialMT-77"/>
      <use x="288.916016" xlink:href="#ArialMT-80"/>
      <use x="353.865234" xlink:href="#ArialMT-32"/>
      <use x="381.648438" xlink:href="#ArialMT-67"/>
      <use x="453.865234" xlink:href="#ArialMT-104"/>
      <use x="509.480469" xlink:href="#ArialMT-97"/>
      <use x="565.095703" xlink:href="#ArialMT-110"/>
      <use x="620.710938" xlink:href="#ArialMT-110"/>
      <use x="676.326172" xlink:href="#ArialMT-101"/>
      <use x="731.941406" xlink:href="#ArialMT-108"/>
     </g>
     <!-- Emission Filter -->
     <g transform="translate(89.085625 58.656875)scale(0.1 -0.1)">
      <use xlink:href="#ArialMT-69"/>
      <use x="66.699219" xlink:href="#ArialMT-109"/>
      <use x="150" xlink:href="#ArialMT-105"/>
      <use x="172.216797" xlink:href="#ArialMT-115"/>
      <use x="222.216797" xlink:href="#ArialMT-115"/>
      <use x="272.216797" xlink:href="#ArialMT-105"/>
      <use x="294.433594" xlink:href="#ArialMT-111"/>
      <use x="350.048828" xlink:href="#ArialMT-110"/>
      <use x="405.664062" xlink:href="#ArialMT-32"/>
      <use x="433.447266" xlink:href="#ArialMT-70"/>
      <use x="494.53125" xlink:href="#ArialMT-105"/>
      <use x="516.748047" xlink:href="#ArialMT-108"/>
      <use x="538.964844" xlink:href="#ArialMT-116"/>
      <use x="566.748047" xlink:href="#ArialMT-101"/>
      <use x="622.363281" xlink:href="#ArialMT-114"/>
     </g>
    </g>
    <g id="line2d_20">
     <path d="M 61.085625 69.302187 
L 81.085625 69.302187 
" style="fill:none;stroke:#000000;stroke-linecap:square;stroke-width:1.5;"/>
    </g>
    <g id="line2d_21"/>
    <g id="text_16">
     <!-- GCaMP Emission -->
     <g transform="translate(89.085625 72.802187)scale(0.1 -0.1)">
      <use xlink:href="#ArialMT-71"/>
      <use x="77.783203" xlink:href="#ArialMT-67"/>
      <use x="150" xlink:href="#ArialMT-97"/>
      <use x="205.615234" xlink:href="#ArialMT-77"/>
      <use x="288.916016" xlink:href="#ArialMT-80"/>
      <use x="353.865234" xlink:href="#ArialMT-32"/>
      <use x="381.648438" xlink:href="#ArialMT-69"/>
      <use x="448.347656" xlink:href="#ArialMT-109"/>
      <use x="531.648438" xlink:href="#ArialMT-105"/>
      <use x="553.865234" xlink:href="#ArialMT-115"/>
      <use x="603.865234" xlink:href="#ArialMT-115"/>
      <use x="653.865234" xlink:href="#ArialMT-105"/>
      <use x="676.082031" xlink:href="#ArialMT-111"/>
      <use x="731.697266" xlink:href="#ArialMT-110"/>
     </g>
    </g>
   </g>
  </g>
 </g>
 <defs>
  <clipPath id="peadc3cc47d">
   <rect height="146.772" width="262.26" x="52.085625" y="7.2"/>
  </clipPath>
 </defs>
</svg>
