<?xml version="1.0" encoding="utf-8" standalone="no"?>
<!DOCTYPE svg PUBLIC "-//W3C//DTD SVG 1.1//EN"
  "http://www.w3.org/Graphics/SVG/1.1/DTD/svg11.dtd">
<!-- Created with matplotlib (https://matplotlib.org/) -->
<svg height="190.672pt" version="1.1" viewBox="0 0 316.26625 190.672" width="316.26625pt" xmlns="http://www.w3.org/2000/svg" xmlns:xlink="http://www.w3.org/1999/xlink">
 <defs>
  <style type="text/css">
*{stroke-linecap:butt;stroke-linejoin:round;}
  </style>
 </defs>
 <g id="figure_1">
  <g id="patch_1">
   <path d="M 0 190.672 
L 316.26625 190.672 
L 316.26625 0 
L 0 0 
z
" style="fill:#ffffff;"/>
  </g>
  <g id="axes_1">
   <g id="patch_2">
    <path d="M 46.80625 153.972 
L 309.06625 153.972 
L 309.06625 7.2 
L 46.80625 7.2 
z
" style="fill:#ffffff;"/>
   </g>
   <g id="patch_3">
    <path clip-path="url(#pb19e75ba7b)" d="M 58.727159 153.972 
L 63.495523 153.972 
L 63.495523 153.70801 
L 58.727159 153.70801 
z
" style="fill:#ff97ff;fill-opacity:0.4;stroke:#000000;stroke-linejoin:miter;stroke-width:0.476836;"/>
   </g>
   <g id="patch_4">
    <path clip-path="url(#pb19e75ba7b)" d="M 63.495523 153.972 
L 68.263886 153.972 
L 68.263886 152.784044 
L 63.495523 152.784044 
z
" style="fill:#ff97ff;fill-opacity:0.4;stroke:#000000;stroke-linejoin:miter;stroke-width:0.476836;"/>
   </g>
   <g id="patch_5">
    <path clip-path="url(#pb19e75ba7b)" d="M 68.263886 153.972 
L 73.03225 153.972 
L 73.03225 152.388058 
L 68.263886 152.388058 
z
" style="fill:#ff97ff;fill-opacity:0.4;stroke:#000000;stroke-linejoin:miter;stroke-width:0.476836;"/>
   </g>
   <g id="patch_6">
    <path clip-path="url(#pb19e75ba7b)" d="M 73.03225 153.972 
L 77.800614 153.972 
L 77.800614 152.388058 
L 73.03225 152.388058 
z
" style="fill:#ff97ff;fill-opacity:0.4;stroke:#000000;stroke-linejoin:miter;stroke-width:0.476836;"/>
   </g>
   <g id="patch_7">
    <path clip-path="url(#pb19e75ba7b)" d="M 77.800614 153.972 
L 82.568977 153.972 
L 82.568977 152.388058 
L 77.800614 152.388058 
z
" style="fill:#ff97ff;fill-opacity:0.4;stroke:#000000;stroke-linejoin:miter;stroke-width:0.476836;"/>
   </g>
   <g id="patch_8">
    <path clip-path="url(#pb19e75ba7b)" d="M 82.568977 153.972 
L 87.337341 153.972 
L 87.337341 152.124068 
L 82.568977 152.124068 
z
" style="fill:#ff97ff;fill-opacity:0.4;stroke:#000000;stroke-linejoin:miter;stroke-width:0.476836;"/>
   </g>
   <g id="patch_9">
    <path clip-path="url(#pb19e75ba7b)" d="M 87.337341 153.972 
L 92.105705 153.972 
L 92.105705 151.860078 
L 87.337341 151.860078 
z
" style="fill:#ff97ff;fill-opacity:0.4;stroke:#000000;stroke-linejoin:miter;stroke-width:0.476836;"/>
   </g>
   <g id="patch_10">
    <path clip-path="url(#pb19e75ba7b)" d="M 92.105705 153.972 
L 96.874068 153.972 
L 96.874068 151.332097 
L 92.105705 151.332097 
z
" style="fill:#ff97ff;fill-opacity:0.4;stroke:#000000;stroke-linejoin:miter;stroke-width:0.476836;"/>
   </g>
   <g id="patch_11">
    <path clip-path="url(#pb19e75ba7b)" d="M 96.874068 153.972 
L 101.642432 153.972 
L 101.642432 150.936112 
L 96.874068 150.936112 
z
" style="fill:#ff97ff;fill-opacity:0.4;stroke:#000000;stroke-linejoin:miter;stroke-width:0.476836;"/>
   </g>
   <g id="patch_12">
    <path clip-path="url(#pb19e75ba7b)" d="M 101.642432 153.972 
L 106.410795 153.972 
L 106.410795 148.956185 
L 101.642432 148.956185 
z
" style="fill:#ff97ff;fill-opacity:0.4;stroke:#000000;stroke-linejoin:miter;stroke-width:0.476836;"/>
   </g>
   <g id="patch_13">
    <path clip-path="url(#pb19e75ba7b)" d="M 106.410795 153.972 
L 111.179159 153.972 
L 111.179159 148.956185 
L 106.410795 148.956185 
z
" style="fill:#ff97ff;fill-opacity:0.4;stroke:#000000;stroke-linejoin:miter;stroke-width:0.476836;"/>
   </g>
   <g id="patch_14">
    <path clip-path="url(#pb19e75ba7b)" d="M 111.179159 153.972 
L 115.947523 153.972 
L 115.947523 144.864335 
L 111.179159 144.864335 
z
" style="fill:#ff97ff;fill-opacity:0.4;stroke:#000000;stroke-linejoin:miter;stroke-width:0.476836;"/>
   </g>
   <g id="patch_15">
    <path clip-path="url(#pb19e75ba7b)" d="M 115.947523 153.972 
L 120.715886 153.972 
L 120.715886 141.960442 
L 115.947523 141.960442 
z
" style="fill:#ff97ff;fill-opacity:0.4;stroke:#000000;stroke-linejoin:miter;stroke-width:0.476836;"/>
   </g>
   <g id="patch_16">
    <path clip-path="url(#pb19e75ba7b)" d="M 120.715886 153.972 
L 125.48425 153.972 
L 125.48425 137.076622 
L 120.715886 137.076622 
z
" style="fill:#ff97ff;fill-opacity:0.4;stroke:#000000;stroke-linejoin:miter;stroke-width:0.476836;"/>
   </g>
   <g id="patch_17">
    <path clip-path="url(#pb19e75ba7b)" d="M 125.48425 153.972 
L 130.252614 153.972 
L 130.252614 129.420903 
L 125.48425 129.420903 
z
" style="fill:#ff97ff;fill-opacity:0.4;stroke:#000000;stroke-linejoin:miter;stroke-width:0.476836;"/>
   </g>
   <g id="patch_18">
    <path clip-path="url(#pb19e75ba7b)" d="M 130.252614 153.972 
L 135.020977 153.972 
L 135.020977 117.673335 
L 130.252614 117.673335 
z
" style="fill:#ff97ff;fill-opacity:0.4;stroke:#000000;stroke-linejoin:miter;stroke-width:0.476836;"/>
   </g>
   <g id="patch_19">
    <path clip-path="url(#pb19e75ba7b)" d="M 135.020977 153.972 
L 139.789341 153.972 
L 139.789341 96.158127 
L 135.020977 96.158127 
z
" style="fill:#ff97ff;fill-opacity:0.4;stroke:#000000;stroke-linejoin:miter;stroke-width:0.476836;"/>
   </g>
   <g id="patch_20">
    <path clip-path="url(#pb19e75ba7b)" d="M 139.789341 153.972 
L 144.557705 153.972 
L 144.557705 53.919681 
L 139.789341 53.919681 
z
" style="fill:#ff97ff;fill-opacity:0.4;stroke:#000000;stroke-linejoin:miter;stroke-width:0.476836;"/>
   </g>
   <g id="patch_21">
    <path clip-path="url(#pb19e75ba7b)" d="M 144.557705 153.972 
L 149.326068 153.972 
L 149.326068 14.189143 
L 144.557705 14.189143 
z
" style="fill:#ff97ff;fill-opacity:0.4;stroke:#000000;stroke-linejoin:miter;stroke-width:0.476836;"/>
   </g>
   <g id="patch_22">
    <path clip-path="url(#pb19e75ba7b)" d="M 149.326068 153.972 
L 154.094432 153.972 
L 154.094432 32.668463 
L 149.326068 32.668463 
z
" style="fill:#ff97ff;fill-opacity:0.4;stroke:#000000;stroke-linejoin:miter;stroke-width:0.476836;"/>
   </g>
   <g id="patch_23">
    <path clip-path="url(#pb19e75ba7b)" d="M 154.094432 153.972 
L 158.862795 153.972 
L 158.862795 74.378928 
L 154.094432 74.378928 
z
" style="fill:#ff97ff;fill-opacity:0.4;stroke:#000000;stroke-linejoin:miter;stroke-width:0.476836;"/>
   </g>
   <g id="patch_24">
    <path clip-path="url(#pb19e75ba7b)" d="M 158.862795 153.972 
L 163.631159 153.972 
L 163.631159 104.473821 
L 158.862795 104.473821 
z
" style="fill:#ff97ff;fill-opacity:0.4;stroke:#000000;stroke-linejoin:miter;stroke-width:0.476836;"/>
   </g>
   <g id="patch_25">
    <path clip-path="url(#pb19e75ba7b)" d="M 163.631159 153.972 
L 168.399523 153.972 
L 168.399523 123.745112 
L 163.631159 123.745112 
z
" style="fill:#ff97ff;fill-opacity:0.4;stroke:#000000;stroke-linejoin:miter;stroke-width:0.476836;"/>
   </g>
   <g id="patch_26">
    <path clip-path="url(#pb19e75ba7b)" d="M 168.399523 153.972 
L 173.167886 153.972 
L 173.167886 134.568714 
L 168.399523 134.568714 
z
" style="fill:#ff97ff;fill-opacity:0.4;stroke:#000000;stroke-linejoin:miter;stroke-width:0.476836;"/>
   </g>
   <g id="patch_27">
    <path clip-path="url(#pb19e75ba7b)" d="M 173.167886 153.972 
L 177.93625 153.972 
L 177.93625 140.3765 
L 173.167886 140.3765 
z
" style="fill:#ff97ff;fill-opacity:0.4;stroke:#000000;stroke-linejoin:miter;stroke-width:0.476836;"/>
   </g>
   <g id="patch_28">
    <path clip-path="url(#pb19e75ba7b)" d="M 177.93625 153.972 
L 182.704614 153.972 
L 182.704614 146.844262 
L 177.93625 146.844262 
z
" style="fill:#ff97ff;fill-opacity:0.4;stroke:#000000;stroke-linejoin:miter;stroke-width:0.476836;"/>
   </g>
   <g id="patch_29">
    <path clip-path="url(#pb19e75ba7b)" d="M 182.704614 153.972 
L 187.472977 153.972 
L 187.472977 146.976257 
L 182.704614 146.976257 
z
" style="fill:#ff97ff;fill-opacity:0.4;stroke:#000000;stroke-linejoin:miter;stroke-width:0.476836;"/>
   </g>
   <g id="patch_30">
    <path clip-path="url(#pb19e75ba7b)" d="M 187.472977 153.972 
L 192.241341 153.972 
L 192.241341 150.012146 
L 187.472977 150.012146 
z
" style="fill:#ff97ff;fill-opacity:0.4;stroke:#000000;stroke-linejoin:miter;stroke-width:0.476836;"/>
   </g>
   <g id="patch_31">
    <path clip-path="url(#pb19e75ba7b)" d="M 192.241341 153.972 
L 197.009705 153.972 
L 197.009705 148.956185 
L 192.241341 148.956185 
z
" style="fill:#ff97ff;fill-opacity:0.4;stroke:#000000;stroke-linejoin:miter;stroke-width:0.476836;"/>
   </g>
   <g id="patch_32">
    <path clip-path="url(#pb19e75ba7b)" d="M 197.009705 153.972 
L 201.778068 153.972 
L 201.778068 151.068107 
L 197.009705 151.068107 
z
" style="fill:#ff97ff;fill-opacity:0.4;stroke:#000000;stroke-linejoin:miter;stroke-width:0.476836;"/>
   </g>
   <g id="patch_33">
    <path clip-path="url(#pb19e75ba7b)" d="M 201.778068 153.972 
L 206.546432 153.972 
L 206.546432 151.200102 
L 201.778068 151.200102 
z
" style="fill:#ff97ff;fill-opacity:0.4;stroke:#000000;stroke-linejoin:miter;stroke-width:0.476836;"/>
   </g>
   <g id="patch_34">
    <path clip-path="url(#pb19e75ba7b)" d="M 206.546432 153.972 
L 211.314795 153.972 
L 211.314795 151.728083 
L 206.546432 151.728083 
z
" style="fill:#ff97ff;fill-opacity:0.4;stroke:#000000;stroke-linejoin:miter;stroke-width:0.476836;"/>
   </g>
   <g id="patch_35">
    <path clip-path="url(#pb19e75ba7b)" d="M 211.314795 153.972 
L 216.083159 153.972 
L 216.083159 151.992073 
L 211.314795 151.992073 
z
" style="fill:#ff97ff;fill-opacity:0.4;stroke:#000000;stroke-linejoin:miter;stroke-width:0.476836;"/>
   </g>
   <g id="patch_36">
    <path clip-path="url(#pb19e75ba7b)" d="M 216.083159 153.972 
L 220.851523 153.972 
L 220.851523 152.124068 
L 216.083159 152.124068 
z
" style="fill:#ff97ff;fill-opacity:0.4;stroke:#000000;stroke-linejoin:miter;stroke-width:0.476836;"/>
   </g>
   <g id="patch_37">
    <path clip-path="url(#pb19e75ba7b)" d="M 220.851523 153.972 
L 225.619886 153.972 
L 225.619886 153.312024 
L 220.851523 153.312024 
z
" style="fill:#ff97ff;fill-opacity:0.4;stroke:#000000;stroke-linejoin:miter;stroke-width:0.476836;"/>
   </g>
   <g id="patch_38">
    <path clip-path="url(#pb19e75ba7b)" d="M 225.619886 153.972 
L 230.38825 153.972 
L 230.38825 152.520053 
L 225.619886 152.520053 
z
" style="fill:#ff97ff;fill-opacity:0.4;stroke:#000000;stroke-linejoin:miter;stroke-width:0.476836;"/>
   </g>
   <g id="patch_39">
    <path clip-path="url(#pb19e75ba7b)" d="M 230.38825 153.972 
L 235.156614 153.972 
L 235.156614 153.312024 
L 230.38825 153.312024 
z
" style="fill:#ff97ff;fill-opacity:0.4;stroke:#000000;stroke-linejoin:miter;stroke-width:0.476836;"/>
   </g>
   <g id="patch_40">
    <path clip-path="url(#pb19e75ba7b)" d="M 235.156614 153.972 
L 239.924977 153.972 
L 239.924977 152.784044 
L 235.156614 152.784044 
z
" style="fill:#ff97ff;fill-opacity:0.4;stroke:#000000;stroke-linejoin:miter;stroke-width:0.476836;"/>
   </g>
   <g id="patch_41">
    <path clip-path="url(#pb19e75ba7b)" d="M 239.924977 153.972 
L 244.693341 153.972 
L 244.693341 153.048034 
L 239.924977 153.048034 
z
" style="fill:#ff97ff;fill-opacity:0.4;stroke:#000000;stroke-linejoin:miter;stroke-width:0.476836;"/>
   </g>
   <g id="patch_42">
    <path clip-path="url(#pb19e75ba7b)" d="M 244.693341 153.972 
L 249.461705 153.972 
L 249.461705 153.70801 
L 244.693341 153.70801 
z
" style="fill:#ff97ff;fill-opacity:0.4;stroke:#000000;stroke-linejoin:miter;stroke-width:0.476836;"/>
   </g>
   <g id="patch_43">
    <path clip-path="url(#pb19e75ba7b)" d="M 249.461705 153.972 
L 254.230068 153.972 
L 254.230068 153.444019 
L 249.461705 153.444019 
z
" style="fill:#ff97ff;fill-opacity:0.4;stroke:#000000;stroke-linejoin:miter;stroke-width:0.476836;"/>
   </g>
   <g id="patch_44">
    <path clip-path="url(#pb19e75ba7b)" d="M 254.230068 153.972 
L 258.998432 153.972 
L 258.998432 153.312024 
L 254.230068 153.312024 
z
" style="fill:#ff97ff;fill-opacity:0.4;stroke:#000000;stroke-linejoin:miter;stroke-width:0.476836;"/>
   </g>
   <g id="patch_45">
    <path clip-path="url(#pb19e75ba7b)" d="M 258.998432 153.972 
L 263.766795 153.972 
L 263.766795 153.312024 
L 258.998432 153.312024 
z
" style="fill:#ff97ff;fill-opacity:0.4;stroke:#000000;stroke-linejoin:miter;stroke-width:0.476836;"/>
   </g>
   <g id="patch_46">
    <path clip-path="url(#pb19e75ba7b)" d="M 263.766795 153.972 
L 268.535159 153.972 
L 268.535159 153.70801 
L 263.766795 153.70801 
z
" style="fill:#ff97ff;fill-opacity:0.4;stroke:#000000;stroke-linejoin:miter;stroke-width:0.476836;"/>
   </g>
   <g id="patch_47">
    <path clip-path="url(#pb19e75ba7b)" d="M 268.535159 153.972 
L 273.303523 153.972 
L 273.303523 153.70801 
L 268.535159 153.70801 
z
" style="fill:#ff97ff;fill-opacity:0.4;stroke:#000000;stroke-linejoin:miter;stroke-width:0.476836;"/>
   </g>
   <g id="patch_48">
    <path clip-path="url(#pb19e75ba7b)" d="M 273.303523 153.972 
L 278.071886 153.972 
L 278.071886 153.972 
L 273.303523 153.972 
z
" style="fill:#ff97ff;fill-opacity:0.4;stroke:#000000;stroke-linejoin:miter;stroke-width:0.476836;"/>
   </g>
   <g id="patch_49">
    <path clip-path="url(#pb19e75ba7b)" d="M 278.071886 153.972 
L 282.84025 153.972 
L 282.84025 153.972 
L 278.071886 153.972 
z
" style="fill:#ff97ff;fill-opacity:0.4;stroke:#000000;stroke-linejoin:miter;stroke-width:0.476836;"/>
   </g>
   <g id="patch_50">
    <path clip-path="url(#pb19e75ba7b)" d="M 282.84025 153.972 
L 287.608614 153.972 
L 287.608614 153.840005 
L 282.84025 153.840005 
z
" style="fill:#ff97ff;fill-opacity:0.4;stroke:#000000;stroke-linejoin:miter;stroke-width:0.476836;"/>
   </g>
   <g id="patch_51">
    <path clip-path="url(#pb19e75ba7b)" d="M 287.608614 153.972 
L 292.376977 153.972 
L 292.376977 153.972 
L 287.608614 153.972 
z
" style="fill:#ff97ff;fill-opacity:0.4;stroke:#000000;stroke-linejoin:miter;stroke-width:0.476836;"/>
   </g>
   <g id="patch_52">
    <path clip-path="url(#pb19e75ba7b)" d="M 292.376977 153.972 
L 297.145341 153.972 
L 297.145341 153.972 
L 292.376977 153.972 
z
" style="fill:#ff97ff;fill-opacity:0.4;stroke:#000000;stroke-linejoin:miter;stroke-width:0.476836;"/>
   </g>
   <g id="patch_53">
    <path clip-path="url(#pb19e75ba7b)" d="M 58.727159 153.972 
L 63.495523 153.972 
L 63.495523 151.364906 
L 58.727159 151.364906 
z
" style="fill:#19d3f3;fill-opacity:0.4;stroke:#000000;stroke-linejoin:miter;stroke-width:0.476836;"/>
   </g>
   <g id="patch_54">
    <path clip-path="url(#pb19e75ba7b)" d="M 63.495523 153.972 
L 68.263886 153.972 
L 68.263886 150.351036 
L 63.495523 150.351036 
z
" style="fill:#19d3f3;fill-opacity:0.4;stroke:#000000;stroke-linejoin:miter;stroke-width:0.476836;"/>
   </g>
   <g id="patch_55">
    <path clip-path="url(#pb19e75ba7b)" d="M 68.263886 153.972 
L 73.03225 153.972 
L 73.03225 150.351036 
L 68.263886 150.351036 
z
" style="fill:#19d3f3;fill-opacity:0.4;stroke:#000000;stroke-linejoin:miter;stroke-width:0.476836;"/>
   </g>
   <g id="patch_56">
    <path clip-path="url(#pb19e75ba7b)" d="M 73.03225 153.972 
L 77.800614 153.972 
L 77.800614 150.351036 
L 73.03225 150.351036 
z
" style="fill:#19d3f3;fill-opacity:0.4;stroke:#000000;stroke-linejoin:miter;stroke-width:0.476836;"/>
   </g>
   <g id="patch_57">
    <path clip-path="url(#pb19e75ba7b)" d="M 77.800614 153.972 
L 82.568977 153.972 
L 82.568977 151.220067 
L 77.800614 151.220067 
z
" style="fill:#19d3f3;fill-opacity:0.4;stroke:#000000;stroke-linejoin:miter;stroke-width:0.476836;"/>
   </g>
   <g id="patch_58">
    <path clip-path="url(#pb19e75ba7b)" d="M 82.568977 153.972 
L 87.337341 153.972 
L 87.337341 147.599103 
L 82.568977 147.599103 
z
" style="fill:#19d3f3;fill-opacity:0.4;stroke:#000000;stroke-linejoin:miter;stroke-width:0.476836;"/>
   </g>
   <g id="patch_59">
    <path clip-path="url(#pb19e75ba7b)" d="M 87.337341 153.972 
L 92.105705 153.972 
L 92.105705 150.206197 
L 87.337341 150.206197 
z
" style="fill:#19d3f3;fill-opacity:0.4;stroke:#000000;stroke-linejoin:miter;stroke-width:0.476836;"/>
   </g>
   <g id="patch_60">
    <path clip-path="url(#pb19e75ba7b)" d="M 92.105705 153.972 
L 96.874068 153.972 
L 96.874068 145.136847 
L 92.105705 145.136847 
z
" style="fill:#19d3f3;fill-opacity:0.4;stroke:#000000;stroke-linejoin:miter;stroke-width:0.476836;"/>
   </g>
   <g id="patch_61">
    <path clip-path="url(#pb19e75ba7b)" d="M 96.874068 153.972 
L 101.642432 153.972 
L 101.642432 147.019748 
L 96.874068 147.019748 
z
" style="fill:#19d3f3;fill-opacity:0.4;stroke:#000000;stroke-linejoin:miter;stroke-width:0.476836;"/>
   </g>
   <g id="patch_62">
    <path clip-path="url(#pb19e75ba7b)" d="M 101.642432 153.972 
L 106.410795 153.972 
L 106.410795 146.585233 
L 101.642432 146.585233 
z
" style="fill:#19d3f3;fill-opacity:0.4;stroke:#000000;stroke-linejoin:miter;stroke-width:0.476836;"/>
   </g>
   <g id="patch_63">
    <path clip-path="url(#pb19e75ba7b)" d="M 106.410795 153.972 
L 111.179159 153.972 
L 111.179159 145.281685 
L 106.410795 145.281685 
z
" style="fill:#19d3f3;fill-opacity:0.4;stroke:#000000;stroke-linejoin:miter;stroke-width:0.476836;"/>
   </g>
   <g id="patch_64">
    <path clip-path="url(#pb19e75ba7b)" d="M 111.179159 153.972 
L 115.947523 153.972 
L 115.947523 143.8333 
L 111.179159 143.8333 
z
" style="fill:#19d3f3;fill-opacity:0.4;stroke:#000000;stroke-linejoin:miter;stroke-width:0.476836;"/>
   </g>
   <g id="patch_65">
    <path clip-path="url(#pb19e75ba7b)" d="M 115.947523 153.972 
L 120.715886 153.972 
L 120.715886 142.964268 
L 115.947523 142.964268 
z
" style="fill:#19d3f3;fill-opacity:0.4;stroke:#000000;stroke-linejoin:miter;stroke-width:0.476836;"/>
   </g>
   <g id="patch_66">
    <path clip-path="url(#pb19e75ba7b)" d="M 120.715886 153.972 
L 125.48425 153.972 
L 125.48425 141.515882 
L 120.715886 141.515882 
z
" style="fill:#19d3f3;fill-opacity:0.4;stroke:#000000;stroke-linejoin:miter;stroke-width:0.476836;"/>
   </g>
   <g id="patch_67">
    <path clip-path="url(#pb19e75ba7b)" d="M 125.48425 153.972 
L 130.252614 153.972 
L 130.252614 136.881048 
L 125.48425 136.881048 
z
" style="fill:#19d3f3;fill-opacity:0.4;stroke:#000000;stroke-linejoin:miter;stroke-width:0.476836;"/>
   </g>
   <g id="patch_68">
    <path clip-path="url(#pb19e75ba7b)" d="M 130.252614 153.972 
L 135.020977 153.972 
L 135.020977 133.694599 
L 130.252614 133.694599 
z
" style="fill:#19d3f3;fill-opacity:0.4;stroke:#000000;stroke-linejoin:miter;stroke-width:0.476836;"/>
   </g>
   <g id="patch_69">
    <path clip-path="url(#pb19e75ba7b)" d="M 135.020977 153.972 
L 139.789341 153.972 
L 139.789341 133.54976 
L 135.020977 133.54976 
z
" style="fill:#19d3f3;fill-opacity:0.4;stroke:#000000;stroke-linejoin:miter;stroke-width:0.476836;"/>
   </g>
   <g id="patch_70">
    <path clip-path="url(#pb19e75ba7b)" d="M 139.789341 153.972 
L 144.557705 153.972 
L 144.557705 130.073635 
L 139.789341 130.073635 
z
" style="fill:#19d3f3;fill-opacity:0.4;stroke:#000000;stroke-linejoin:miter;stroke-width:0.476836;"/>
   </g>
   <g id="patch_71">
    <path clip-path="url(#pb19e75ba7b)" d="M 144.557705 153.972 
L 149.326068 153.972 
L 149.326068 124.569769 
L 144.557705 124.569769 
z
" style="fill:#19d3f3;fill-opacity:0.4;stroke:#000000;stroke-linejoin:miter;stroke-width:0.476836;"/>
   </g>
   <g id="patch_72">
    <path clip-path="url(#pb19e75ba7b)" d="M 149.326068 153.972 
L 154.094432 153.972 
L 154.094432 120.224611 
L 149.326068 120.224611 
z
" style="fill:#19d3f3;fill-opacity:0.4;stroke:#000000;stroke-linejoin:miter;stroke-width:0.476836;"/>
   </g>
   <g id="patch_73">
    <path clip-path="url(#pb19e75ba7b)" d="M 154.094432 153.972 
L 158.862795 153.972 
L 158.862795 117.472678 
L 154.094432 117.472678 
z
" style="fill:#19d3f3;fill-opacity:0.4;stroke:#000000;stroke-linejoin:miter;stroke-width:0.476836;"/>
   </g>
   <g id="patch_74">
    <path clip-path="url(#pb19e75ba7b)" d="M 158.862795 153.972 
L 163.631159 153.972 
L 163.631159 118.631387 
L 158.862795 118.631387 
z
" style="fill:#19d3f3;fill-opacity:0.4;stroke:#000000;stroke-linejoin:miter;stroke-width:0.476836;"/>
   </g>
   <g id="patch_75">
    <path clip-path="url(#pb19e75ba7b)" d="M 163.631159 153.972 
L 168.399523 153.972 
L 168.399523 120.36945 
L 163.631159 120.36945 
z
" style="fill:#19d3f3;fill-opacity:0.4;stroke:#000000;stroke-linejoin:miter;stroke-width:0.476836;"/>
   </g>
   <g id="patch_76">
    <path clip-path="url(#pb19e75ba7b)" d="M 168.399523 153.972 
L 173.167886 153.972 
L 173.167886 113.851714 
L 168.399523 113.851714 
z
" style="fill:#19d3f3;fill-opacity:0.4;stroke:#000000;stroke-linejoin:miter;stroke-width:0.476836;"/>
   </g>
   <g id="patch_77">
    <path clip-path="url(#pb19e75ba7b)" d="M 173.167886 153.972 
L 177.93625 153.972 
L 177.93625 124.280091 
L 173.167886 124.280091 
z
" style="fill:#19d3f3;fill-opacity:0.4;stroke:#000000;stroke-linejoin:miter;stroke-width:0.476836;"/>
   </g>
   <g id="patch_78">
    <path clip-path="url(#pb19e75ba7b)" d="M 177.93625 153.972 
L 182.704614 153.972 
L 182.704614 123.41106 
L 177.93625 123.41106 
z
" style="fill:#19d3f3;fill-opacity:0.4;stroke:#000000;stroke-linejoin:miter;stroke-width:0.476836;"/>
   </g>
   <g id="patch_79">
    <path clip-path="url(#pb19e75ba7b)" d="M 182.704614 153.972 
L 187.472977 153.972 
L 187.472977 123.266221 
L 182.704614 123.266221 
z
" style="fill:#19d3f3;fill-opacity:0.4;stroke:#000000;stroke-linejoin:miter;stroke-width:0.476836;"/>
   </g>
   <g id="patch_80">
    <path clip-path="url(#pb19e75ba7b)" d="M 187.472977 153.972 
L 192.241341 153.972 
L 192.241341 123.266221 
L 187.472977 123.266221 
z
" style="fill:#19d3f3;fill-opacity:0.4;stroke:#000000;stroke-linejoin:miter;stroke-width:0.476836;"/>
   </g>
   <g id="patch_81">
    <path clip-path="url(#pb19e75ba7b)" d="M 192.241341 153.972 
L 197.009705 153.972 
L 197.009705 125.728477 
L 192.241341 125.728477 
z
" style="fill:#19d3f3;fill-opacity:0.4;stroke:#000000;stroke-linejoin:miter;stroke-width:0.476836;"/>
   </g>
   <g id="patch_82">
    <path clip-path="url(#pb19e75ba7b)" d="M 197.009705 153.972 
L 201.778068 153.972 
L 201.778068 126.742347 
L 197.009705 126.742347 
z
" style="fill:#19d3f3;fill-opacity:0.4;stroke:#000000;stroke-linejoin:miter;stroke-width:0.476836;"/>
   </g>
   <g id="patch_83">
    <path clip-path="url(#pb19e75ba7b)" d="M 201.778068 153.972 
L 206.546432 153.972 
L 206.546432 130.797828 
L 201.778068 130.797828 
z
" style="fill:#19d3f3;fill-opacity:0.4;stroke:#000000;stroke-linejoin:miter;stroke-width:0.476836;"/>
   </g>
   <g id="patch_84">
    <path clip-path="url(#pb19e75ba7b)" d="M 206.546432 153.972 
L 211.314795 153.972 
L 211.314795 132.246213 
L 206.546432 132.246213 
z
" style="fill:#19d3f3;fill-opacity:0.4;stroke:#000000;stroke-linejoin:miter;stroke-width:0.476836;"/>
   </g>
   <g id="patch_85">
    <path clip-path="url(#pb19e75ba7b)" d="M 211.314795 153.972 
L 216.083159 153.972 
L 216.083159 131.087505 
L 211.314795 131.087505 
z
" style="fill:#19d3f3;fill-opacity:0.4;stroke:#000000;stroke-linejoin:miter;stroke-width:0.476836;"/>
   </g>
   <g id="patch_86">
    <path clip-path="url(#pb19e75ba7b)" d="M 216.083159 153.972 
L 220.851523 153.972 
L 220.851523 134.708469 
L 216.083159 134.708469 
z
" style="fill:#19d3f3;fill-opacity:0.4;stroke:#000000;stroke-linejoin:miter;stroke-width:0.476836;"/>
   </g>
   <g id="patch_87">
    <path clip-path="url(#pb19e75ba7b)" d="M 220.851523 153.972 
L 225.619886 153.972 
L 225.619886 134.273953 
L 220.851523 134.273953 
z
" style="fill:#19d3f3;fill-opacity:0.4;stroke:#000000;stroke-linejoin:miter;stroke-width:0.476836;"/>
   </g>
   <g id="patch_88">
    <path clip-path="url(#pb19e75ba7b)" d="M 225.619886 153.972 
L 230.38825 153.972 
L 230.38825 138.184595 
L 225.619886 138.184595 
z
" style="fill:#19d3f3;fill-opacity:0.4;stroke:#000000;stroke-linejoin:miter;stroke-width:0.476836;"/>
   </g>
   <g id="patch_89">
    <path clip-path="url(#pb19e75ba7b)" d="M 230.38825 153.972 
L 235.156614 153.972 
L 235.156614 141.081367 
L 230.38825 141.081367 
z
" style="fill:#19d3f3;fill-opacity:0.4;stroke:#000000;stroke-linejoin:miter;stroke-width:0.476836;"/>
   </g>
   <g id="patch_90">
    <path clip-path="url(#pb19e75ba7b)" d="M 235.156614 153.972 
L 239.924977 153.972 
L 239.924977 141.515882 
L 235.156614 141.515882 
z
" style="fill:#19d3f3;fill-opacity:0.4;stroke:#000000;stroke-linejoin:miter;stroke-width:0.476836;"/>
   </g>
   <g id="patch_91">
    <path clip-path="url(#pb19e75ba7b)" d="M 239.924977 153.972 
L 244.693341 153.972 
L 244.693341 142.529752 
L 239.924977 142.529752 
z
" style="fill:#19d3f3;fill-opacity:0.4;stroke:#000000;stroke-linejoin:miter;stroke-width:0.476836;"/>
   </g>
   <g id="patch_92">
    <path clip-path="url(#pb19e75ba7b)" d="M 244.693341 153.972 
L 249.461705 153.972 
L 249.461705 143.253945 
L 244.693341 143.253945 
z
" style="fill:#19d3f3;fill-opacity:0.4;stroke:#000000;stroke-linejoin:miter;stroke-width:0.476836;"/>
   </g>
   <g id="patch_93">
    <path clip-path="url(#pb19e75ba7b)" d="M 249.461705 153.972 
L 254.230068 153.972 
L 254.230068 147.309425 
L 249.461705 147.309425 
z
" style="fill:#19d3f3;fill-opacity:0.4;stroke:#000000;stroke-linejoin:miter;stroke-width:0.476836;"/>
   </g>
   <g id="patch_94">
    <path clip-path="url(#pb19e75ba7b)" d="M 254.230068 153.972 
L 258.998432 153.972 
L 258.998432 145.86104 
L 254.230068 145.86104 
z
" style="fill:#19d3f3;fill-opacity:0.4;stroke:#000000;stroke-linejoin:miter;stroke-width:0.476836;"/>
   </g>
   <g id="patch_95">
    <path clip-path="url(#pb19e75ba7b)" d="M 258.998432 153.972 
L 263.766795 153.972 
L 263.766795 147.599103 
L 258.998432 147.599103 
z
" style="fill:#19d3f3;fill-opacity:0.4;stroke:#000000;stroke-linejoin:miter;stroke-width:0.476836;"/>
   </g>
   <g id="patch_96">
    <path clip-path="url(#pb19e75ba7b)" d="M 263.766795 153.972 
L 268.535159 153.972 
L 268.535159 148.178457 
L 263.766795 148.178457 
z
" style="fill:#19d3f3;fill-opacity:0.4;stroke:#000000;stroke-linejoin:miter;stroke-width:0.476836;"/>
   </g>
   <g id="patch_97">
    <path clip-path="url(#pb19e75ba7b)" d="M 268.535159 153.972 
L 273.303523 153.972 
L 273.303523 149.047488 
L 268.535159 149.047488 
z
" style="fill:#19d3f3;fill-opacity:0.4;stroke:#000000;stroke-linejoin:miter;stroke-width:0.476836;"/>
   </g>
   <g id="patch_98">
    <path clip-path="url(#pb19e75ba7b)" d="M 273.303523 153.972 
L 278.071886 153.972 
L 278.071886 150.351036 
L 273.303523 150.351036 
z
" style="fill:#19d3f3;fill-opacity:0.4;stroke:#000000;stroke-linejoin:miter;stroke-width:0.476836;"/>
   </g>
   <g id="patch_99">
    <path clip-path="url(#pb19e75ba7b)" d="M 278.071886 153.972 
L 282.84025 153.972 
L 282.84025 151.075228 
L 278.071886 151.075228 
z
" style="fill:#19d3f3;fill-opacity:0.4;stroke:#000000;stroke-linejoin:miter;stroke-width:0.476836;"/>
   </g>
   <g id="patch_100">
    <path clip-path="url(#pb19e75ba7b)" d="M 282.84025 153.972 
L 287.608614 153.972 
L 287.608614 150.785551 
L 282.84025 150.785551 
z
" style="fill:#19d3f3;fill-opacity:0.4;stroke:#000000;stroke-linejoin:miter;stroke-width:0.476836;"/>
   </g>
   <g id="patch_101">
    <path clip-path="url(#pb19e75ba7b)" d="M 287.608614 153.972 
L 292.376977 153.972 
L 292.376977 150.206197 
L 287.608614 150.206197 
z
" style="fill:#19d3f3;fill-opacity:0.4;stroke:#000000;stroke-linejoin:miter;stroke-width:0.476836;"/>
   </g>
   <g id="patch_102">
    <path clip-path="url(#pb19e75ba7b)" d="M 292.376977 153.972 
L 297.145341 153.972 
L 297.145341 150.206197 
L 292.376977 150.206197 
z
" style="fill:#19d3f3;fill-opacity:0.4;stroke:#000000;stroke-linejoin:miter;stroke-width:0.476836;"/>
   </g>
   <g id="matplotlib.axis_1">
    <g id="xtick_1">
     <g id="line2d_1">
      <defs>
       <path d="M 0 0 
L 0 3.5 
" id="m99523527fe" style="stroke:#000000;stroke-width:0.8;"/>
      </defs>
      <g>
       <use style="stroke:#000000;stroke-width:0.8;" x="88.529432" xlink:href="#m99523527fe" y="153.972"/>
      </g>
     </g>
     <g id="text_1">
      <!-- −0.1 -->
      <defs>
       <path d="M 52.828125 31.203125 
L 5.5625 31.203125 
L 5.5625 39.40625 
L 52.828125 39.40625 
z
" id="ArialMT-8722"/>
       <path d="M 4.15625 35.296875 
Q 4.15625 48 6.765625 55.734375 
Q 9.375 63.484375 14.515625 67.671875 
Q 19.671875 71.875 27.484375 71.875 
Q 33.25 71.875 37.59375 69.546875 
Q 41.9375 67.234375 44.765625 62.859375 
Q 47.609375 58.5 49.21875 52.21875 
Q 50.828125 45.953125 50.828125 35.296875 
Q 50.828125 22.703125 48.234375 14.96875 
Q 45.65625 7.234375 40.5 3 
Q 35.359375 -1.21875 27.484375 -1.21875 
Q 17.140625 -1.21875 11.234375 6.203125 
Q 4.15625 15.140625 4.15625 35.296875 
z
M 13.1875 35.296875 
Q 13.1875 17.671875 17.3125 11.828125 
Q 21.4375 6 27.484375 6 
Q 33.546875 6 37.671875 11.859375 
Q 41.796875 17.71875 41.796875 35.296875 
Q 41.796875 52.984375 37.671875 58.78125 
Q 33.546875 64.59375 27.390625 64.59375 
Q 21.34375 64.59375 17.71875 59.46875 
Q 13.1875 52.9375 13.1875 35.296875 
z
" id="ArialMT-48"/>
       <path d="M 9.078125 0 
L 9.078125 10.015625 
L 19.09375 10.015625 
L 19.09375 0 
z
" id="ArialMT-46"/>
       <path d="M 37.25 0 
L 28.46875 0 
L 28.46875 56 
Q 25.296875 52.984375 20.140625 49.953125 
Q 14.984375 46.921875 10.890625 45.40625 
L 10.890625 53.90625 
Q 18.265625 57.375 23.78125 62.296875 
Q 29.296875 67.234375 31.59375 71.875 
L 37.25 71.875 
z
" id="ArialMT-49"/>
      </defs>
      <g transform="translate(78.659119 168.129813)scale(0.1 -0.1)">
       <use xlink:href="#ArialMT-8722"/>
       <use x="58.398438" xlink:href="#ArialMT-48"/>
       <use x="114.013672" xlink:href="#ArialMT-46"/>
       <use x="141.796875" xlink:href="#ArialMT-49"/>
      </g>
     </g>
    </g>
    <g id="xtick_2">
     <g id="line2d_2">
      <g>
       <use style="stroke:#000000;stroke-width:0.8;" x="148.133977" xlink:href="#m99523527fe" y="153.972"/>
      </g>
     </g>
     <g id="text_2">
      <!-- 0.0 -->
      <g transform="translate(141.183977 168.129813)scale(0.1 -0.1)">
       <use xlink:href="#ArialMT-48"/>
       <use x="55.615234" xlink:href="#ArialMT-46"/>
       <use x="83.398438" xlink:href="#ArialMT-48"/>
      </g>
     </g>
    </g>
    <g id="xtick_3">
     <g id="line2d_3">
      <g>
       <use style="stroke:#000000;stroke-width:0.8;" x="207.738523" xlink:href="#m99523527fe" y="153.972"/>
      </g>
     </g>
     <g id="text_3">
      <!-- 0.1 -->
      <g transform="translate(200.788523 168.129813)scale(0.1 -0.1)">
       <use xlink:href="#ArialMT-48"/>
       <use x="55.615234" xlink:href="#ArialMT-46"/>
       <use x="83.398438" xlink:href="#ArialMT-49"/>
      </g>
     </g>
    </g>
    <g id="xtick_4">
     <g id="line2d_4">
      <g>
       <use style="stroke:#000000;stroke-width:0.8;" x="267.343068" xlink:href="#m99523527fe" y="153.972"/>
      </g>
     </g>
     <g id="text_4">
      <!-- 0.2 -->
      <defs>
       <path d="M 50.34375 8.453125 
L 50.34375 0 
L 3.03125 0 
Q 2.9375 3.171875 4.046875 6.109375 
Q 5.859375 10.9375 9.828125 15.625 
Q 13.8125 20.3125 21.34375 26.46875 
Q 33.015625 36.03125 37.109375 41.625 
Q 41.21875 47.21875 41.21875 52.203125 
Q 41.21875 57.421875 37.46875 61 
Q 33.734375 64.59375 27.734375 64.59375 
Q 21.390625 64.59375 17.578125 60.78125 
Q 13.765625 56.984375 13.71875 50.25 
L 4.6875 51.171875 
Q 5.609375 61.28125 11.65625 66.578125 
Q 17.71875 71.875 27.9375 71.875 
Q 38.234375 71.875 44.234375 66.15625 
Q 50.25 60.453125 50.25 52 
Q 50.25 47.703125 48.484375 43.546875 
Q 46.734375 39.40625 42.65625 34.8125 
Q 38.578125 30.21875 29.109375 22.21875 
Q 21.1875 15.578125 18.9375 13.203125 
Q 16.703125 10.84375 15.234375 8.453125 
z
" id="ArialMT-50"/>
      </defs>
      <g transform="translate(260.393068 168.129813)scale(0.1 -0.1)">
       <use xlink:href="#ArialMT-48"/>
       <use x="55.615234" xlink:href="#ArialMT-46"/>
       <use x="83.398438" xlink:href="#ArialMT-50"/>
      </g>
     </g>
    </g>
    <g id="text_5">
     <!-- Regression Coefficient -->
     <defs>
      <path d="M 4.6875 0 
L 19.671875 71.578125 
L 49.703125 71.578125 
Q 58.59375 71.578125 63.1875 70.09375 
Q 67.78125 68.609375 70.390625 64.5 
Q 73 60.40625 73 54.15625 
Q 73 45.40625 67.28125 39.640625 
Q 61.578125 33.890625 48.828125 32.171875 
Q 52.734375 29.296875 54.734375 26.515625 
Q 59.234375 20.21875 61.96875 13.484375 
L 67.4375 0 
L 56.734375 0 
L 51.609375 13.328125 
Q 48.828125 20.5625 45.265625 25.828125 
Q 42.828125 29.5 40.28125 30.640625 
Q 37.75 31.78125 32.03125 31.78125 
L 20.90625 31.78125 
L 14.265625 0 
z
M 22.515625 39.546875 
L 35.75 39.546875 
Q 44.921875 39.546875 47.703125 39.796875 
Q 53.125 40.328125 56.59375 42.234375 
Q 60.0625 44.140625 61.96875 47.359375 
Q 63.875 50.59375 63.875 54.296875 
Q 63.875 57.421875 62.453125 59.734375 
Q 61.03125 62.0625 58.734375 62.890625 
Q 56.453125 63.71875 50.921875 63.71875 
L 27.59375 63.71875 
z
" id="Arial-ItalicMT-82"/>
      <path d="M 41.40625 17.625 
L 50 16.75 
Q 48.140625 10.359375 41.46875 4.59375 
Q 34.8125 -1.171875 25.59375 -1.171875 
Q 19.828125 -1.171875 15.015625 1.484375 
Q 10.203125 4.15625 7.6875 9.234375 
Q 5.171875 14.3125 5.171875 20.796875 
Q 5.171875 29.296875 9.09375 37.28125 
Q 13.03125 45.265625 19.28125 49.140625 
Q 25.53125 53.03125 32.8125 53.03125 
Q 42.09375 53.03125 47.625 47.265625 
Q 53.171875 41.5 53.171875 31.546875 
Q 53.171875 27.734375 52.484375 23.734375 
L 14.3125 23.734375 
Q 14.109375 22.21875 14.109375 21 
Q 14.109375 13.71875 17.453125 9.890625 
Q 20.796875 6.0625 25.640625 6.0625 
Q 30.171875 6.0625 34.5625 9.03125 
Q 38.96875 12.015625 41.40625 17.625 
z
M 15.71875 30.46875 
L 44.828125 30.46875 
Q 44.875 31.84375 44.875 32.421875 
Q 44.875 39.0625 41.546875 42.59375 
Q 38.234375 46.140625 33.015625 46.140625 
Q 27.34375 46.140625 22.671875 42.234375 
Q 18.015625 38.328125 15.71875 30.46875 
z
" id="Arial-ItalicMT-101"/>
      <path d="M 2.828125 -4.6875 
L 11.765625 -5.515625 
Q 11.671875 -8.546875 12.5 -10.0625 
Q 13.328125 -11.578125 15.140625 -12.40625 
Q 17.53125 -13.484375 21.34375 -13.484375 
Q 29.34375 -13.484375 32.859375 -9.328125 
Q 35.15625 -6.546875 37.109375 2.78125 
L 37.984375 6.984375 
Q 31.109375 0 23.34375 0 
Q 15.484375 0 10.1875 5.78125 
Q 4.890625 11.578125 4.890625 22.171875 
Q 4.890625 30.90625 9.0625 38.234375 
Q 13.234375 45.5625 18.984375 49.296875 
Q 24.75 53.03125 30.859375 53.03125 
Q 41.0625 53.03125 46.578125 43.359375 
L 48.34375 51.859375 
L 56.453125 51.859375 
L 46 1.8125 
Q 44.28125 -6.453125 41.5 -11.0625 
Q 38.71875 -15.671875 33.765625 -18.203125 
Q 28.8125 -20.75 22.3125 -20.75 
Q 16.0625 -20.75 11.546875 -19.140625 
Q 7.03125 -17.53125 4.8125 -14.421875 
Q 2.59375 -11.328125 2.59375 -7.328125 
Q 2.59375 -6.109375 2.828125 -4.6875 
z
M 13.875 22.953125 
Q 13.875 17.625 14.890625 14.9375 
Q 16.359375 11.1875 19.0625 9.203125 
Q 21.78125 7.234375 25.09375 7.234375 
Q 29.4375 7.234375 33.734375 10.28125 
Q 38.03125 13.328125 40.6875 19.71875 
Q 43.359375 26.125 43.359375 31.9375 
Q 43.359375 38.328125 39.8125 42.109375 
Q 36.28125 45.90625 31.0625 45.90625 
Q 27.828125 45.90625 24.796875 44.171875 
Q 21.78125 42.4375 19.15625 38.890625 
Q 16.546875 35.359375 15.203125 30.421875 
Q 13.875 25.484375 13.875 22.953125 
z
" id="Arial-ItalicMT-103"/>
      <path d="M 3.328125 0 
L 14.15625 51.859375 
L 21.96875 51.859375 
L 19.78125 41.265625 
Q 23.78125 47.265625 27.609375 50.140625 
Q 31.453125 53.03125 35.453125 53.03125 
Q 38.09375 53.03125 41.9375 51.125 
L 38.328125 42.921875 
Q 36.03125 44.578125 33.296875 44.578125 
Q 28.65625 44.578125 23.765625 39.40625 
Q 18.890625 34.234375 16.109375 20.796875 
L 11.71875 0 
z
" id="Arial-ItalicMT-114"/>
      <path d="M 4.15625 17.71875 
L 12.984375 18.265625 
Q 12.984375 14.453125 14.15625 11.765625 
Q 15.328125 9.078125 18.46875 7.375 
Q 21.625 5.671875 25.828125 5.671875 
Q 31.6875 5.671875 34.609375 8.015625 
Q 37.546875 10.359375 37.546875 13.53125 
Q 37.546875 15.828125 35.796875 17.875 
Q 33.984375 19.921875 26.96875 22.921875 
Q 19.96875 25.921875 18.015625 27.15625 
Q 14.75 29.15625 13.078125 31.859375 
Q 11.421875 34.578125 11.421875 38.09375 
Q 11.421875 44.234375 16.296875 48.625 
Q 21.1875 53.03125 29.984375 53.03125 
Q 39.75 53.03125 44.84375 48.515625 
Q 49.953125 44 50.140625 36.625 
L 41.5 36.03125 
Q 41.3125 40.71875 38.1875 43.453125 
Q 35.0625 46.1875 29.34375 46.1875 
Q 24.75 46.1875 22.203125 44.09375 
Q 19.671875 42 19.671875 39.546875 
Q 19.671875 37.109375 21.875 35.25 
Q 23.34375 33.984375 29.4375 31.34375 
Q 39.59375 26.953125 42.234375 24.421875 
Q 46.4375 20.359375 46.4375 14.546875 
Q 46.4375 10.6875 44.0625 6.96875 
Q 41.703125 3.265625 36.84375 1.046875 
Q 31.984375 -1.171875 25.390625 -1.171875 
Q 16.40625 -1.171875 10.109375 3.265625 
Q 3.8125 7.71875 4.15625 17.71875 
z
" id="Arial-ItalicMT-115"/>
      <path d="M 15.875 61.578125 
L 17.96875 71.578125 
L 26.765625 71.578125 
L 24.65625 61.578125 
z
M 2.984375 0 
L 13.8125 51.859375 
L 22.65625 51.859375 
L 11.8125 0 
z
" id="Arial-ItalicMT-105"/>
      <path d="M 4.890625 19.671875 
Q 4.890625 34.859375 13.8125 44.828125 
Q 21.1875 53.03125 33.15625 53.03125 
Q 42.53125 53.03125 48.265625 47.171875 
Q 54 41.3125 54 31.34375 
Q 54 22.40625 50.390625 14.71875 
Q 46.78125 7.03125 40.109375 2.921875 
Q 33.453125 -1.171875 26.078125 -1.171875 
Q 20.015625 -1.171875 15.0625 1.40625 
Q 10.109375 4 7.5 8.734375 
Q 4.890625 13.484375 4.890625 19.671875 
z
M 13.71875 20.5625 
Q 13.71875 13.234375 17.234375 9.453125 
Q 20.75 5.671875 26.171875 5.671875 
Q 29 5.671875 31.78125 6.8125 
Q 34.578125 7.953125 36.96875 10.296875 
Q 39.359375 12.640625 41.03125 15.640625 
Q 42.71875 18.65625 43.75 22.125 
Q 45.265625 26.953125 45.265625 31.390625 
Q 45.265625 38.421875 41.71875 42.296875 
Q 38.1875 46.1875 32.8125 46.1875 
Q 28.65625 46.1875 25.234375 44.203125 
Q 21.828125 42.234375 19.0625 38.421875 
Q 16.3125 34.625 15.015625 29.5625 
Q 13.71875 24.515625 13.71875 20.5625 
z
" id="Arial-ItalicMT-111"/>
      <path d="M 3.328125 0 
L 14.15625 51.859375 
L 22.171875 51.859375 
L 20.265625 42.828125 
Q 25.484375 48.140625 30.03125 50.578125 
Q 34.578125 53.03125 39.3125 53.03125 
Q 45.609375 53.03125 49.1875 49.609375 
Q 52.78125 46.1875 52.78125 40.484375 
Q 52.78125 37.59375 51.515625 31.390625 
L 44.921875 0 
L 36.078125 0 
L 42.96875 32.859375 
Q 44 37.640625 44 39.9375 
Q 44 42.53125 42.21875 44.140625 
Q 40.4375 45.75 37.0625 45.75 
Q 30.28125 45.75 24.96875 40.859375 
Q 19.671875 35.984375 17.1875 24.125 
L 12.15625 0 
z
" id="Arial-ItalicMT-110"/>
      <path id="Arial-ItalicMT-32"/>
      <path d="M 60.296875 25.203125 
L 69.78125 23.875 
Q 65.28125 11.46875 56.6875 5.125 
Q 48.09375 -1.21875 37.40625 -1.21875 
Q 24.359375 -1.21875 16.71875 6.734375 
Q 9.078125 14.703125 9.078125 29.546875 
Q 9.078125 48.875 20.703125 61.53125 
Q 31.0625 72.796875 46.4375 72.796875 
Q 57.8125 72.796875 64.859375 66.6875 
Q 71.921875 60.59375 73.046875 50.296875 
L 64.109375 49.46875 
Q 62.703125 57.234375 58.28125 61.0625 
Q 53.859375 64.890625 46.875 64.890625 
Q 33.734375 64.890625 25.640625 53.21875 
Q 18.609375 43.171875 18.609375 29.34375 
Q 18.609375 18.3125 24.015625 12.5 
Q 29.4375 6.6875 38.140625 6.6875 
Q 45.5625 6.6875 51.5625 11.515625 
Q 57.5625 16.359375 60.296875 25.203125 
z
" id="Arial-ItalicMT-67"/>
      <path d="M 4.546875 0 
L 13.96875 45.015625 
L 6.0625 45.015625 
L 7.46875 51.859375 
L 15.375 51.859375 
L 16.890625 59.234375 
Q 18.0625 64.75 19.3125 67.1875 
Q 20.5625 69.625 23.359375 71.203125 
Q 26.171875 72.796875 31 72.796875 
Q 34.375 72.796875 40.765625 71.390625 
L 39.15625 63.671875 
Q 34.671875 64.84375 31.640625 64.84375 
Q 29.046875 64.84375 27.703125 63.546875 
Q 26.375 62.25 25.390625 57.421875 
L 24.21875 51.859375 
L 34.078125 51.859375 
L 32.671875 45.015625 
L 22.796875 45.015625 
L 13.375 0 
z
" id="Arial-ItalicMT-102"/>
      <path d="M 39.109375 18.890625 
L 47.953125 17.96875 
Q 44.625 8.25 38.5 3.53125 
Q 32.375 -1.171875 24.5625 -1.171875 
Q 16.109375 -1.171875 10.859375 4.296875 
Q 5.609375 9.765625 5.609375 19.578125 
Q 5.609375 28.078125 8.984375 36.28125 
Q 12.359375 44.484375 18.625 48.75 
Q 24.90625 53.03125 32.953125 53.03125 
Q 41.3125 53.03125 46.1875 48.3125 
Q 51.078125 43.609375 51.078125 35.84375 
L 42.390625 35.25 
Q 42.328125 40.1875 39.515625 42.96875 
Q 36.71875 45.75 32.125 45.75 
Q 26.8125 45.75 22.90625 42.375 
Q 19 39.015625 16.765625 32.15625 
Q 14.546875 25.296875 14.546875 18.953125 
Q 14.546875 12.3125 17.46875 8.984375 
Q 20.40625 5.671875 24.703125 5.671875 
Q 29 5.671875 32.921875 8.9375 
Q 36.859375 12.203125 39.109375 18.890625 
z
" id="Arial-ItalicMT-99"/>
      <path d="M 23.96875 7.171875 
L 22.515625 -0.046875 
Q 19.34375 -0.875 16.359375 -0.875 
Q 11.078125 -0.875 7.953125 1.703125 
Q 5.609375 3.65625 5.609375 7.03125 
Q 5.609375 8.734375 6.890625 14.890625 
L 13.1875 45.015625 
L 6.203125 45.015625 
L 7.625 51.859375 
L 14.59375 51.859375 
L 17.28125 64.59375 
L 27.390625 70.703125 
L 23.4375 51.859375 
L 32.125 51.859375 
L 30.671875 45.015625 
L 22.015625 45.015625 
L 16.015625 16.359375 
Q 14.890625 10.890625 14.890625 9.8125 
Q 14.890625 8.25 15.796875 7.421875 
Q 16.703125 6.59375 18.75 6.59375 
Q 21.6875 6.59375 23.96875 7.171875 
z
" id="Arial-ItalicMT-116"/>
     </defs>
     <g transform="translate(127.63625 181.397)scale(0.1 -0.1)">
      <use xlink:href="#Arial-ItalicMT-82"/>
      <use x="72.216797" xlink:href="#Arial-ItalicMT-101"/>
      <use x="127.832031" xlink:href="#Arial-ItalicMT-103"/>
      <use x="183.447266" xlink:href="#Arial-ItalicMT-114"/>
      <use x="216.748047" xlink:href="#Arial-ItalicMT-101"/>
      <use x="272.363281" xlink:href="#Arial-ItalicMT-115"/>
      <use x="322.363281" xlink:href="#Arial-ItalicMT-115"/>
      <use x="372.363281" xlink:href="#Arial-ItalicMT-105"/>
      <use x="394.580078" xlink:href="#Arial-ItalicMT-111"/>
      <use x="450.195312" xlink:href="#Arial-ItalicMT-110"/>
      <use x="505.810547" xlink:href="#Arial-ItalicMT-32"/>
      <use x="533.59375" xlink:href="#Arial-ItalicMT-67"/>
      <use x="605.810547" xlink:href="#Arial-ItalicMT-111"/>
      <use x="661.425781" xlink:href="#Arial-ItalicMT-101"/>
      <use x="717.041016" xlink:href="#Arial-ItalicMT-102"/>
      <use x="744.824219" xlink:href="#Arial-ItalicMT-102"/>
      <use x="772.607422" xlink:href="#Arial-ItalicMT-105"/>
      <use x="794.824219" xlink:href="#Arial-ItalicMT-99"/>
      <use x="844.824219" xlink:href="#Arial-ItalicMT-105"/>
      <use x="867.041016" xlink:href="#Arial-ItalicMT-101"/>
      <use x="922.65625" xlink:href="#Arial-ItalicMT-110"/>
      <use x="978.271484" xlink:href="#Arial-ItalicMT-116"/>
     </g>
    </g>
   </g>
   <g id="matplotlib.axis_2">
    <g id="ytick_1">
     <g id="line2d_5">
      <defs>
       <path d="M 0 0 
L -3.5 0 
" id="md3942da6ad" style="stroke:#000000;stroke-width:0.8;"/>
      </defs>
      <g>
       <use style="stroke:#000000;stroke-width:0.8;" x="46.80625" xlink:href="#md3942da6ad" y="153.972"/>
      </g>
     </g>
     <g id="text_6">
      <!-- 0.00 -->
      <g transform="translate(20.345313 157.550906)scale(0.1 -0.1)">
       <use xlink:href="#ArialMT-48"/>
       <use x="55.615234" xlink:href="#ArialMT-46"/>
       <use x="83.398438" xlink:href="#ArialMT-48"/>
       <use x="139.013672" xlink:href="#ArialMT-48"/>
      </g>
     </g>
    </g>
    <g id="ytick_2">
     <g id="line2d_6">
      <g>
       <use style="stroke:#000000;stroke-width:0.8;" x="46.80625" xlink:href="#md3942da6ad" y="122.831706"/>
      </g>
     </g>
     <g id="text_7">
      <!-- 0.02 -->
      <g transform="translate(20.345313 126.410612)scale(0.1 -0.1)">
       <use xlink:href="#ArialMT-48"/>
       <use x="55.615234" xlink:href="#ArialMT-46"/>
       <use x="83.398438" xlink:href="#ArialMT-48"/>
       <use x="139.013672" xlink:href="#ArialMT-50"/>
      </g>
     </g>
    </g>
    <g id="ytick_3">
     <g id="line2d_7">
      <g>
       <use style="stroke:#000000;stroke-width:0.8;" x="46.80625" xlink:href="#md3942da6ad" y="91.691411"/>
      </g>
     </g>
     <g id="text_8">
      <!-- 0.04 -->
      <defs>
       <path d="M 32.328125 0 
L 32.328125 17.140625 
L 1.265625 17.140625 
L 1.265625 25.203125 
L 33.9375 71.578125 
L 41.109375 71.578125 
L 41.109375 25.203125 
L 50.78125 25.203125 
L 50.78125 17.140625 
L 41.109375 17.140625 
L 41.109375 0 
z
M 32.328125 25.203125 
L 32.328125 57.46875 
L 9.90625 25.203125 
z
" id="ArialMT-52"/>
      </defs>
      <g transform="translate(20.345313 95.270318)scale(0.1 -0.1)">
       <use xlink:href="#ArialMT-48"/>
       <use x="55.615234" xlink:href="#ArialMT-46"/>
       <use x="83.398438" xlink:href="#ArialMT-48"/>
       <use x="139.013672" xlink:href="#ArialMT-52"/>
      </g>
     </g>
    </g>
    <g id="ytick_4">
     <g id="line2d_8">
      <g>
       <use style="stroke:#000000;stroke-width:0.8;" x="46.80625" xlink:href="#md3942da6ad" y="60.551117"/>
      </g>
     </g>
     <g id="text_9">
      <!-- 0.06 -->
      <defs>
       <path d="M 49.75 54.046875 
L 41.015625 53.375 
Q 39.84375 58.546875 37.703125 60.890625 
Q 34.125 64.65625 28.90625 64.65625 
Q 24.703125 64.65625 21.53125 62.3125 
Q 17.390625 59.28125 14.984375 53.46875 
Q 12.59375 47.65625 12.5 36.921875 
Q 15.671875 41.75 20.265625 44.09375 
Q 24.859375 46.4375 29.890625 46.4375 
Q 38.671875 46.4375 44.84375 39.96875 
Q 51.03125 33.5 51.03125 23.25 
Q 51.03125 16.5 48.125 10.71875 
Q 45.21875 4.9375 40.140625 1.859375 
Q 35.0625 -1.21875 28.609375 -1.21875 
Q 17.625 -1.21875 10.6875 6.859375 
Q 3.765625 14.9375 3.765625 33.5 
Q 3.765625 54.25 11.421875 63.671875 
Q 18.109375 71.875 29.4375 71.875 
Q 37.890625 71.875 43.28125 67.140625 
Q 48.6875 62.40625 49.75 54.046875 
z
M 13.875 23.1875 
Q 13.875 18.65625 15.796875 14.5 
Q 17.71875 10.359375 21.1875 8.171875 
Q 24.65625 6 28.46875 6 
Q 34.03125 6 38.03125 10.484375 
Q 42.046875 14.984375 42.046875 22.703125 
Q 42.046875 30.125 38.078125 34.390625 
Q 34.125 38.671875 28.125 38.671875 
Q 22.171875 38.671875 18.015625 34.390625 
Q 13.875 30.125 13.875 23.1875 
z
" id="ArialMT-54"/>
      </defs>
      <g transform="translate(20.345313 64.130023)scale(0.1 -0.1)">
       <use xlink:href="#ArialMT-48"/>
       <use x="55.615234" xlink:href="#ArialMT-46"/>
       <use x="83.398438" xlink:href="#ArialMT-48"/>
       <use x="139.013672" xlink:href="#ArialMT-54"/>
      </g>
     </g>
    </g>
    <g id="ytick_5">
     <g id="line2d_9">
      <g>
       <use style="stroke:#000000;stroke-width:0.8;" x="46.80625" xlink:href="#md3942da6ad" y="29.410823"/>
      </g>
     </g>
     <g id="text_10">
      <!-- 0.08 -->
      <defs>
       <path d="M 17.671875 38.8125 
Q 12.203125 40.828125 9.5625 44.53125 
Q 6.9375 48.25 6.9375 53.421875 
Q 6.9375 61.234375 12.546875 66.546875 
Q 18.171875 71.875 27.484375 71.875 
Q 36.859375 71.875 42.578125 66.421875 
Q 48.296875 60.984375 48.296875 53.171875 
Q 48.296875 48.1875 45.671875 44.5 
Q 43.0625 40.828125 37.75 38.8125 
Q 44.34375 36.671875 47.78125 31.875 
Q 51.21875 27.09375 51.21875 20.453125 
Q 51.21875 11.28125 44.71875 5.03125 
Q 38.234375 -1.21875 27.640625 -1.21875 
Q 17.046875 -1.21875 10.546875 5.046875 
Q 4.046875 11.328125 4.046875 20.703125 
Q 4.046875 27.6875 7.59375 32.390625 
Q 11.140625 37.109375 17.671875 38.8125 
z
M 15.921875 53.71875 
Q 15.921875 48.640625 19.1875 45.40625 
Q 22.46875 42.1875 27.6875 42.1875 
Q 32.765625 42.1875 36.015625 45.375 
Q 39.265625 48.578125 39.265625 53.21875 
Q 39.265625 58.0625 35.90625 61.359375 
Q 32.5625 64.65625 27.59375 64.65625 
Q 22.5625 64.65625 19.234375 61.421875 
Q 15.921875 58.203125 15.921875 53.71875 
z
M 13.09375 20.65625 
Q 13.09375 16.890625 14.875 13.375 
Q 16.65625 9.859375 20.171875 7.921875 
Q 23.6875 6 27.734375 6 
Q 34.03125 6 38.125 10.046875 
Q 42.234375 14.109375 42.234375 20.359375 
Q 42.234375 26.703125 38.015625 30.859375 
Q 33.796875 35.015625 27.4375 35.015625 
Q 21.234375 35.015625 17.15625 30.90625 
Q 13.09375 26.8125 13.09375 20.65625 
z
" id="ArialMT-56"/>
      </defs>
      <g transform="translate(20.345313 32.989729)scale(0.1 -0.1)">
       <use xlink:href="#ArialMT-48"/>
       <use x="55.615234" xlink:href="#ArialMT-46"/>
       <use x="83.398438" xlink:href="#ArialMT-48"/>
       <use x="139.013672" xlink:href="#ArialMT-56"/>
      </g>
     </g>
    </g>
    <g id="text_11">
     <!-- Proportion -->
     <defs>
      <path d="M 4.296875 0 
L 19.28125 71.578125 
L 49.171875 71.578125 
Q 56.9375 71.578125 60.8125 69.796875 
Q 64.703125 68.015625 67.234375 63.6875 
Q 69.78125 59.375 69.78125 54 
Q 69.78125 49.5625 67.96875 44.96875 
Q 66.15625 40.375 63.390625 37.390625 
Q 60.640625 34.421875 57.8125 32.90625 
Q 54.984375 31.390625 51.765625 30.671875 
Q 44.875 29.046875 37.84375 29.046875 
L 19.921875 29.046875 
L 13.875 0 
z
M 21.625 37.15625 
L 37.40625 37.15625 
Q 46.578125 37.15625 50.875 39.125 
Q 55.171875 41.109375 57.765625 45.15625 
Q 60.359375 49.21875 60.359375 53.765625 
Q 60.359375 57.28125 58.984375 59.5 
Q 57.625 61.71875 55.125 62.765625 
Q 52.640625 63.8125 45.5625 63.8125 
L 27.203125 63.8125 
z
" id="Arial-ItalicMT-80"/>
      <path d="M -1.03125 -19.875 
L 13.96875 51.859375 
L 22.125 51.859375 
L 20.609375 44.625 
Q 25.140625 49.359375 28.734375 51.1875 
Q 32.328125 53.03125 36.328125 53.03125 
Q 43.75 53.03125 48.625 47.625 
Q 53.515625 42.234375 53.515625 32.171875 
Q 53.515625 24.078125 50.828125 17.40625 
Q 48.140625 10.75 44.234375 6.6875 
Q 40.328125 2.640625 36.328125 0.734375 
Q 32.328125 -1.171875 28.125 -1.171875 
Q 18.796875 -1.171875 13.671875 8.296875 
L 7.8125 -19.875 
z
M 16.453125 21.1875 
Q 16.453125 15.375 17.28125 13.140625 
Q 18.5 9.96875 21.28125 8.015625 
Q 24.078125 6.0625 27.734375 6.0625 
Q 35.359375 6.0625 40.046875 14.625 
Q 44.734375 23.1875 44.734375 32.125 
Q 44.734375 38.71875 41.578125 42.3125 
Q 38.421875 45.90625 33.734375 45.90625 
Q 30.375 45.90625 27.484375 44.109375 
Q 24.609375 42.328125 22.140625 38.78125 
Q 19.671875 35.25 18.0625 30.125 
Q 16.453125 25 16.453125 21.1875 
z
" id="Arial-ItalicMT-112"/>
     </defs>
     <g transform="translate(14.357813 103.653188)rotate(-90)scale(0.1 -0.1)">
      <use xlink:href="#Arial-ItalicMT-80"/>
      <use x="66.699219" xlink:href="#Arial-ItalicMT-114"/>
      <use x="100" xlink:href="#Arial-ItalicMT-111"/>
      <use x="155.615234" xlink:href="#Arial-ItalicMT-112"/>
      <use x="211.230469" xlink:href="#Arial-ItalicMT-111"/>
      <use x="266.845703" xlink:href="#Arial-ItalicMT-114"/>
      <use x="300.146484" xlink:href="#Arial-ItalicMT-116"/>
      <use x="327.929688" xlink:href="#Arial-ItalicMT-105"/>
      <use x="350.146484" xlink:href="#Arial-ItalicMT-111"/>
      <use x="405.761719" xlink:href="#Arial-ItalicMT-110"/>
     </g>
    </g>
   </g>
   <g id="line2d_10">
    <path clip-path="url(#pb19e75ba7b)" d="M 192.648433 153.972 
L 192.648433 7.2 
" style="fill:none;stroke:#696969;stroke-dasharray:4.5,3;stroke-dashoffset:0;stroke-width:1.5;"/>
   </g>
   <g id="line2d_11">
    <path clip-path="url(#pb19e75ba7b)" d="M 58.727159 153.340081 
L 64.717566 153.010715 
L 73.104135 152.489486 
L 89.877273 151.794784 
L 94.669599 151.240593 
L 98.263843 150.620359 
L 101.858086 149.796585 
L 105.45233 148.728878 
L 107.848493 147.829081 
L 110.244656 146.719298 
L 112.640818 145.346141 
L 115.036981 143.668447 
L 117.433144 141.654098 
L 119.829306 139.250564 
L 122.225469 136.33785 
L 123.42355 134.625408 
L 124.621631 132.694244 
L 125.819713 130.501497 
L 127.017794 128.000517 
L 128.215875 125.142581 
L 129.413957 121.878944 
L 130.612038 118.163546 
L 131.810119 113.956865 
L 133.008201 109.231326 
L 134.206282 103.978393 
L 136.602445 92.001875 
L 142.592851 59.194926 
L 143.790933 53.860263 
L 144.989014 49.539487 
L 146.187095 46.452636 
L 147.385176 44.759471 
L 148.583258 44.543139 
L 149.781339 45.802178 
L 150.97942 48.452173 
L 152.177502 52.336665 
L 153.375583 57.245299 
L 155.771746 69.158002 
L 160.564071 94.999186 
L 162.960234 106.395496 
L 165.356396 116.009705 
L 166.554478 120.120056 
L 167.752559 123.785787 
L 168.95064 127.036636 
L 170.148721 129.909709 
L 171.346803 132.445825 
L 172.544884 134.68605 
L 173.742965 136.668734 
L 176.139128 139.989608 
L 178.535291 142.607251 
L 180.931453 144.647227 
L 183.327616 146.203652 
L 185.723779 147.368649 
L 188.119941 148.237772 
L 191.714185 149.188365 
L 196.50651 150.157271 
L 201.298836 150.921128 
L 206.091161 151.423897 
L 224.062381 152.738968 
L 231.250869 152.922613 
L 240.835519 153.193693 
L 249.222088 153.433298 
L 268.391389 153.670847 
L 279.174121 153.905977 
L 297.145341 153.9326 
L 297.145341 153.9326 
" style="fill:none;stroke:#ff97ff;stroke-linecap:square;stroke-width:2;"/>
   </g>
   <g id="line2d_12">
    <path clip-path="url(#pb19e75ba7b)" d="M 58.727159 151.020653 
L 69.509891 150.17378 
L 77.89646 149.30537 
L 85.084948 148.367866 
L 92.273436 147.210299 
L 99.461924 145.795072 
L 105.45233 144.399019 
L 111.442737 142.801346 
L 118.631225 140.637915 
L 127.017794 137.860802 
L 141.39477 133.027738 
L 147.385176 131.252954 
L 152.177502 130.036012 
L 156.969827 129.045865 
L 161.762152 128.313926 
L 166.554478 127.858622 
L 171.346803 127.684857 
L 176.139128 127.784927 
L 180.931453 128.140605 
L 185.723779 128.72594 
L 190.516104 129.510255 
L 196.50651 130.720692 
L 203.694998 132.427883 
L 213.279649 134.97477 
L 239.637438 142.159177 
L 248.024007 144.163466 
L 256.410576 145.924435 
L 263.599064 147.21849 
L 270.787552 148.310776 
L 279.174121 149.345277 
L 287.56069 150.155034 
L 297.145341 150.86223 
L 297.145341 150.86223 
" style="fill:none;stroke:#19d3f3;stroke-linecap:square;stroke-width:2;"/>
   </g>
   <g id="patch_103">
    <path d="M 46.80625 153.972 
L 46.80625 7.2 
" style="fill:none;stroke:#000000;stroke-linecap:square;stroke-linejoin:miter;stroke-width:0.8;"/>
   </g>
   <g id="patch_104">
    <path d="M 309.06625 153.972 
L 309.06625 7.2 
" style="fill:none;stroke:#000000;stroke-linecap:square;stroke-linejoin:miter;stroke-width:0.8;"/>
   </g>
   <g id="patch_105">
    <path d="M 46.80625 153.972 
L 309.06625 153.972 
" style="fill:none;stroke:#000000;stroke-linecap:square;stroke-linejoin:miter;stroke-width:0.8;"/>
   </g>
   <g id="patch_106">
    <path d="M 46.80625 7.2 
L 309.06625 7.2 
" style="fill:none;stroke:#000000;stroke-linecap:square;stroke-linejoin:miter;stroke-width:0.8;"/>
   </g>
   <g id="text_12">
    <!-- Exptected -->
    <defs>
     <path d="M 7.90625 0 
L 7.90625 71.578125 
L 59.671875 71.578125 
L 59.671875 63.140625 
L 17.390625 63.140625 
L 17.390625 41.21875 
L 56.984375 41.21875 
L 56.984375 32.8125 
L 17.390625 32.8125 
L 17.390625 8.453125 
L 61.328125 8.453125 
L 61.328125 0 
z
" id="ArialMT-69"/>
     <path d="M 0.734375 0 
L 19.671875 26.953125 
L 2.15625 51.859375 
L 13.140625 51.859375 
L 21.09375 39.703125 
Q 23.34375 36.234375 24.703125 33.890625 
Q 26.859375 37.109375 28.65625 39.59375 
L 37.40625 51.859375 
L 47.90625 51.859375 
L 29.984375 27.4375 
L 49.265625 0 
L 38.484375 0 
L 27.828125 16.109375 
L 25 20.453125 
L 11.375 0 
z
" id="ArialMT-120"/>
     <path d="M 6.59375 -19.875 
L 6.59375 51.859375 
L 14.59375 51.859375 
L 14.59375 45.125 
Q 17.4375 49.078125 21 51.046875 
Q 24.5625 53.03125 29.640625 53.03125 
Q 36.28125 53.03125 41.359375 49.609375 
Q 46.4375 46.1875 49.015625 39.953125 
Q 51.609375 33.734375 51.609375 26.3125 
Q 51.609375 18.359375 48.75 11.984375 
Q 45.90625 5.609375 40.453125 2.21875 
Q 35.015625 -1.171875 29 -1.171875 
Q 24.609375 -1.171875 21.109375 0.6875 
Q 17.625 2.546875 15.375 5.375 
L 15.375 -19.875 
z
M 14.546875 25.640625 
Q 14.546875 15.625 18.59375 10.84375 
Q 22.65625 6.0625 28.421875 6.0625 
Q 34.28125 6.0625 38.453125 11.015625 
Q 42.625 15.96875 42.625 26.375 
Q 42.625 36.28125 38.546875 41.203125 
Q 34.46875 46.140625 28.8125 46.140625 
Q 23.1875 46.140625 18.859375 40.890625 
Q 14.546875 35.640625 14.546875 25.640625 
z
" id="ArialMT-112"/>
     <path d="M 25.78125 7.859375 
L 27.046875 0.09375 
Q 23.34375 -0.6875 20.40625 -0.6875 
Q 15.625 -0.6875 12.984375 0.828125 
Q 10.359375 2.34375 9.28125 4.8125 
Q 8.203125 7.28125 8.203125 15.1875 
L 8.203125 45.015625 
L 1.765625 45.015625 
L 1.765625 51.859375 
L 8.203125 51.859375 
L 8.203125 64.703125 
L 16.9375 69.96875 
L 16.9375 51.859375 
L 25.78125 51.859375 
L 25.78125 45.015625 
L 16.9375 45.015625 
L 16.9375 14.703125 
Q 16.9375 10.9375 17.40625 9.859375 
Q 17.875 8.796875 18.921875 8.15625 
Q 19.96875 7.515625 21.921875 7.515625 
Q 23.390625 7.515625 25.78125 7.859375 
z
" id="ArialMT-116"/>
     <path d="M 42.09375 16.703125 
L 51.171875 15.578125 
Q 49.03125 7.625 43.21875 3.21875 
Q 37.40625 -1.171875 28.375 -1.171875 
Q 17 -1.171875 10.328125 5.828125 
Q 3.65625 12.84375 3.65625 25.484375 
Q 3.65625 38.578125 10.390625 45.796875 
Q 17.140625 53.03125 27.875 53.03125 
Q 38.28125 53.03125 44.875 45.953125 
Q 51.46875 38.875 51.46875 26.03125 
Q 51.46875 25.25 51.421875 23.6875 
L 12.75 23.6875 
Q 13.234375 15.140625 17.578125 10.59375 
Q 21.921875 6.0625 28.421875 6.0625 
Q 33.25 6.0625 36.671875 8.59375 
Q 40.09375 11.140625 42.09375 16.703125 
z
M 13.234375 30.90625 
L 42.1875 30.90625 
Q 41.609375 37.453125 38.875 40.71875 
Q 34.671875 45.796875 27.984375 45.796875 
Q 21.921875 45.796875 17.796875 41.75 
Q 13.671875 37.703125 13.234375 30.90625 
z
" id="ArialMT-101"/>
     <path d="M 40.4375 19 
L 49.078125 17.875 
Q 47.65625 8.9375 41.8125 3.875 
Q 35.984375 -1.171875 27.484375 -1.171875 
Q 16.84375 -1.171875 10.375 5.78125 
Q 3.90625 12.75 3.90625 25.734375 
Q 3.90625 34.125 6.6875 40.421875 
Q 9.46875 46.734375 15.15625 49.875 
Q 20.84375 53.03125 27.546875 53.03125 
Q 35.984375 53.03125 41.359375 48.75 
Q 46.734375 44.484375 48.25 36.625 
L 39.703125 35.296875 
Q 38.484375 40.53125 35.375 43.15625 
Q 32.28125 45.796875 27.875 45.796875 
Q 21.234375 45.796875 17.078125 41.03125 
Q 12.9375 36.28125 12.9375 25.984375 
Q 12.9375 15.53125 16.9375 10.796875 
Q 20.953125 6.0625 27.390625 6.0625 
Q 32.5625 6.0625 36.03125 9.234375 
Q 39.5 12.40625 40.4375 19 
z
" id="ArialMT-99"/>
     <path d="M 40.234375 0 
L 40.234375 6.546875 
Q 35.296875 -1.171875 25.734375 -1.171875 
Q 19.53125 -1.171875 14.328125 2.25 
Q 9.125 5.671875 6.265625 11.796875 
Q 3.421875 17.921875 3.421875 25.875 
Q 3.421875 33.640625 6 39.96875 
Q 8.59375 46.296875 13.765625 49.65625 
Q 18.953125 53.03125 25.34375 53.03125 
Q 30.03125 53.03125 33.6875 51.046875 
Q 37.359375 49.078125 39.65625 45.90625 
L 39.65625 71.578125 
L 48.390625 71.578125 
L 48.390625 0 
z
M 12.453125 25.875 
Q 12.453125 15.921875 16.640625 10.984375 
Q 20.84375 6.0625 26.5625 6.0625 
Q 32.328125 6.0625 36.34375 10.765625 
Q 40.375 15.484375 40.375 25.140625 
Q 40.375 35.796875 36.265625 40.765625 
Q 32.171875 45.75 26.171875 45.75 
Q 20.3125 45.75 16.375 40.96875 
Q 12.453125 36.1875 12.453125 25.875 
z
" id="ArialMT-100"/>
    </defs>
    <g style="fill:#696969;" transform="translate(197.648433 30.07785)scale(0.1 -0.1)">
     <use xlink:href="#ArialMT-69"/>
     <use x="66.699219" xlink:href="#ArialMT-120"/>
     <use x="116.699219" xlink:href="#ArialMT-112"/>
     <use x="172.314453" xlink:href="#ArialMT-116"/>
     <use x="200.097656" xlink:href="#ArialMT-101"/>
     <use x="255.712891" xlink:href="#ArialMT-99"/>
     <use x="305.712891" xlink:href="#ArialMT-116"/>
     <use x="333.496094" xlink:href="#ArialMT-101"/>
     <use x="389.111328" xlink:href="#ArialMT-100"/>
    </g>
    <!-- Crosstalk -->
    <defs>
     <path d="M 58.796875 25.09375 
L 68.265625 22.703125 
Q 65.28125 11.03125 57.546875 4.90625 
Q 49.8125 -1.21875 38.625 -1.21875 
Q 27.046875 -1.21875 19.796875 3.484375 
Q 12.546875 8.203125 8.765625 17.140625 
Q 4.984375 26.078125 4.984375 36.328125 
Q 4.984375 47.515625 9.25 55.828125 
Q 13.53125 64.15625 21.40625 68.46875 
Q 29.296875 72.796875 38.765625 72.796875 
Q 49.515625 72.796875 56.828125 67.328125 
Q 64.15625 61.859375 67.046875 51.953125 
L 57.71875 49.75 
Q 55.21875 57.5625 50.484375 61.125 
Q 45.75 64.703125 38.578125 64.703125 
Q 30.328125 64.703125 24.78125 60.734375 
Q 19.234375 56.78125 16.984375 50.109375 
Q 14.75 43.453125 14.75 36.375 
Q 14.75 27.25 17.40625 20.4375 
Q 20.0625 13.625 25.671875 10.25 
Q 31.296875 6.890625 37.84375 6.890625 
Q 45.796875 6.890625 51.3125 11.46875 
Q 56.84375 16.0625 58.796875 25.09375 
z
" id="ArialMT-67"/>
     <path d="M 6.5 0 
L 6.5 51.859375 
L 14.40625 51.859375 
L 14.40625 44 
Q 17.4375 49.515625 20 51.265625 
Q 22.5625 53.03125 25.640625 53.03125 
Q 30.078125 53.03125 34.671875 50.203125 
L 31.640625 42.046875 
Q 28.421875 43.953125 25.203125 43.953125 
Q 22.3125 43.953125 20.015625 42.21875 
Q 17.71875 40.484375 16.75 37.40625 
Q 15.28125 32.71875 15.28125 27.15625 
L 15.28125 0 
z
" id="ArialMT-114"/>
     <path d="M 3.328125 25.921875 
Q 3.328125 40.328125 11.328125 47.265625 
Q 18.015625 53.03125 27.640625 53.03125 
Q 38.328125 53.03125 45.109375 46.015625 
Q 51.90625 39.015625 51.90625 26.65625 
Q 51.90625 16.65625 48.90625 10.90625 
Q 45.90625 5.171875 40.15625 2 
Q 34.421875 -1.171875 27.640625 -1.171875 
Q 16.75 -1.171875 10.03125 5.8125 
Q 3.328125 12.796875 3.328125 25.921875 
z
M 12.359375 25.921875 
Q 12.359375 15.96875 16.703125 11.015625 
Q 21.046875 6.0625 27.640625 6.0625 
Q 34.1875 6.0625 38.53125 11.03125 
Q 42.875 16.015625 42.875 26.21875 
Q 42.875 35.84375 38.5 40.796875 
Q 34.125 45.75 27.640625 45.75 
Q 21.046875 45.75 16.703125 40.8125 
Q 12.359375 35.890625 12.359375 25.921875 
z
" id="ArialMT-111"/>
     <path d="M 3.078125 15.484375 
L 11.765625 16.84375 
Q 12.5 11.625 15.84375 8.84375 
Q 19.1875 6.0625 25.203125 6.0625 
Q 31.25 6.0625 34.171875 8.515625 
Q 37.109375 10.984375 37.109375 14.3125 
Q 37.109375 17.28125 34.515625 19 
Q 32.71875 20.171875 25.53125 21.96875 
Q 15.875 24.421875 12.140625 26.203125 
Q 8.40625 27.984375 6.46875 31.125 
Q 4.546875 34.28125 4.546875 38.09375 
Q 4.546875 41.546875 6.125 44.5 
Q 7.71875 47.46875 10.453125 49.421875 
Q 12.5 50.921875 16.03125 51.96875 
Q 19.578125 53.03125 23.640625 53.03125 
Q 29.734375 53.03125 34.34375 51.265625 
Q 38.96875 49.515625 41.15625 46.5 
Q 43.359375 43.5 44.1875 38.484375 
L 35.59375 37.3125 
Q 35.015625 41.3125 32.203125 43.546875 
Q 29.390625 45.796875 24.265625 45.796875 
Q 18.21875 45.796875 15.625 43.796875 
Q 13.03125 41.796875 13.03125 39.109375 
Q 13.03125 37.40625 14.109375 36.03125 
Q 15.1875 34.625 17.484375 33.6875 
Q 18.796875 33.203125 25.25 31.453125 
Q 34.578125 28.953125 38.25 27.359375 
Q 41.9375 25.78125 44.03125 22.75 
Q 46.140625 19.734375 46.140625 15.234375 
Q 46.140625 10.84375 43.578125 6.953125 
Q 41.015625 3.078125 36.171875 0.953125 
Q 31.34375 -1.171875 25.25 -1.171875 
Q 15.140625 -1.171875 9.84375 3.03125 
Q 4.546875 7.234375 3.078125 15.484375 
z
" id="ArialMT-115"/>
     <path d="M 40.4375 6.390625 
Q 35.546875 2.25 31.03125 0.53125 
Q 26.515625 -1.171875 21.34375 -1.171875 
Q 12.796875 -1.171875 8.203125 3 
Q 3.609375 7.171875 3.609375 13.671875 
Q 3.609375 17.484375 5.34375 20.625 
Q 7.078125 23.78125 9.890625 25.6875 
Q 12.703125 27.59375 16.21875 28.5625 
Q 18.796875 29.25 24.03125 29.890625 
Q 34.671875 31.15625 39.703125 32.90625 
Q 39.75 34.71875 39.75 35.203125 
Q 39.75 40.578125 37.25 42.78125 
Q 33.890625 45.75 27.25 45.75 
Q 21.046875 45.75 18.09375 43.578125 
Q 15.140625 41.40625 13.71875 35.890625 
L 5.125 37.0625 
Q 6.296875 42.578125 8.984375 45.96875 
Q 11.671875 49.359375 16.75 51.1875 
Q 21.828125 53.03125 28.515625 53.03125 
Q 35.15625 53.03125 39.296875 51.46875 
Q 43.453125 49.90625 45.40625 47.53125 
Q 47.359375 45.171875 48.140625 41.546875 
Q 48.578125 39.3125 48.578125 33.453125 
L 48.578125 21.734375 
Q 48.578125 9.46875 49.140625 6.21875 
Q 49.703125 2.984375 51.375 0 
L 42.1875 0 
Q 40.828125 2.734375 40.4375 6.390625 
z
M 39.703125 26.03125 
Q 34.90625 24.078125 25.34375 22.703125 
Q 19.921875 21.921875 17.671875 20.9375 
Q 15.4375 19.96875 14.203125 18.09375 
Q 12.984375 16.21875 12.984375 13.921875 
Q 12.984375 10.40625 15.640625 8.0625 
Q 18.3125 5.71875 23.4375 5.71875 
Q 28.515625 5.71875 32.46875 7.9375 
Q 36.421875 10.15625 38.28125 14.015625 
Q 39.703125 17 39.703125 22.796875 
z
" id="ArialMT-97"/>
     <path d="M 6.390625 0 
L 6.390625 71.578125 
L 15.1875 71.578125 
L 15.1875 0 
z
" id="ArialMT-108"/>
     <path d="M 6.640625 0 
L 6.640625 71.578125 
L 15.4375 71.578125 
L 15.4375 30.765625 
L 36.234375 51.859375 
L 47.609375 51.859375 
L 27.78125 32.625 
L 49.609375 0 
L 38.765625 0 
L 21.625 26.515625 
L 15.4375 20.5625 
L 15.4375 0 
z
" id="ArialMT-107"/>
    </defs>
    <g style="fill:#696969;" transform="translate(197.648433 40.654725)scale(0.1 -0.1)">
     <use xlink:href="#ArialMT-67"/>
     <use x="72.216797" xlink:href="#ArialMT-114"/>
     <use x="105.517578" xlink:href="#ArialMT-111"/>
     <use x="161.132812" xlink:href="#ArialMT-115"/>
     <use x="211.132812" xlink:href="#ArialMT-115"/>
     <use x="261.132812" xlink:href="#ArialMT-116"/>
     <use x="288.916016" xlink:href="#ArialMT-97"/>
     <use x="344.53125" xlink:href="#ArialMT-108"/>
     <use x="366.748047" xlink:href="#ArialMT-107"/>
    </g>
    <!-- Ratio -->
    <defs>
     <path d="M 7.859375 0 
L 7.859375 71.578125 
L 39.59375 71.578125 
Q 49.171875 71.578125 54.140625 69.640625 
Q 59.125 67.71875 62.109375 62.828125 
Q 65.09375 57.953125 65.09375 52.046875 
Q 65.09375 44.4375 60.15625 39.203125 
Q 55.21875 33.984375 44.921875 32.5625 
Q 48.6875 30.765625 50.640625 29 
Q 54.78125 25.203125 58.5 19.484375 
L 70.953125 0 
L 59.03125 0 
L 49.5625 14.890625 
Q 45.40625 21.34375 42.71875 24.75 
Q 40.046875 28.171875 37.921875 29.53125 
Q 35.796875 30.90625 33.59375 31.453125 
Q 31.984375 31.78125 28.328125 31.78125 
L 17.328125 31.78125 
L 17.328125 0 
z
M 17.328125 39.984375 
L 37.703125 39.984375 
Q 44.1875 39.984375 47.84375 41.328125 
Q 51.515625 42.671875 53.421875 45.625 
Q 55.328125 48.578125 55.328125 52.046875 
Q 55.328125 57.125 51.640625 60.390625 
Q 47.953125 63.671875 39.984375 63.671875 
L 17.328125 63.671875 
z
" id="ArialMT-82"/>
     <path d="M 6.640625 61.46875 
L 6.640625 71.578125 
L 15.4375 71.578125 
L 15.4375 61.46875 
z
M 6.640625 0 
L 6.640625 51.859375 
L 15.4375 51.859375 
L 15.4375 0 
z
" id="ArialMT-105"/>
    </defs>
    <g style="fill:#696969;" transform="translate(197.648433 51.2316)scale(0.1 -0.1)">
     <use xlink:href="#ArialMT-82"/>
     <use x="72.216797" xlink:href="#ArialMT-97"/>
     <use x="127.832031" xlink:href="#ArialMT-116"/>
     <use x="155.615234" xlink:href="#ArialMT-105"/>
     <use x="177.832031" xlink:href="#ArialMT-111"/>
    </g>
   </g>
   <g id="legend_1">
    <g id="patch_107">
     <path d="M 53.80625 43.490625 
L 129.157813 43.490625 
Q 131.157813 43.490625 131.157813 41.490625 
L 131.157813 14.2 
Q 131.157813 12.2 129.157813 12.2 
L 53.80625 12.2 
Q 51.80625 12.2 51.80625 14.2 
L 51.80625 41.490625 
Q 51.80625 43.490625 53.80625 43.490625 
z
" style="fill:#ffffff;opacity:0.8;stroke:#cccccc;stroke-linejoin:miter;"/>
    </g>
    <g id="patch_108">
     <path d="M 55.80625 23.357813 
L 75.80625 23.357813 
L 75.80625 16.357813 
L 55.80625 16.357813 
z
" style="fill:#19d3f3;fill-opacity:0.4;stroke:#000000;stroke-linejoin:miter;"/>
    </g>
    <g id="text_13">
     <!-- Observed -->
     <defs>
      <path d="M 4.828125 34.859375 
Q 4.828125 52.6875 14.390625 62.765625 
Q 23.96875 72.859375 39.109375 72.859375 
Q 49.03125 72.859375 56.984375 68.109375 
Q 64.9375 63.375 69.109375 54.90625 
Q 73.296875 46.4375 73.296875 35.6875 
Q 73.296875 24.8125 68.890625 16.21875 
Q 64.5 7.625 56.4375 3.203125 
Q 48.390625 -1.21875 39.0625 -1.21875 
Q 28.953125 -1.21875 20.984375 3.65625 
Q 13.03125 8.546875 8.921875 16.984375 
Q 4.828125 25.4375 4.828125 34.859375 
z
M 14.59375 34.71875 
Q 14.59375 21.78125 21.546875 14.328125 
Q 28.515625 6.890625 39.015625 6.890625 
Q 49.703125 6.890625 56.609375 14.40625 
Q 63.53125 21.921875 63.53125 35.75 
Q 63.53125 44.484375 60.578125 51 
Q 57.625 57.515625 51.921875 61.109375 
Q 46.234375 64.703125 39.15625 64.703125 
Q 29.109375 64.703125 21.84375 57.78125 
Q 14.59375 50.875 14.59375 34.71875 
z
" id="ArialMT-79"/>
      <path d="M 14.703125 0 
L 6.546875 0 
L 6.546875 71.578125 
L 15.328125 71.578125 
L 15.328125 46.046875 
Q 20.90625 53.03125 29.546875 53.03125 
Q 34.328125 53.03125 38.59375 51.09375 
Q 42.875 49.171875 45.625 45.671875 
Q 48.390625 42.1875 49.953125 37.25 
Q 51.515625 32.328125 51.515625 26.703125 
Q 51.515625 13.375 44.921875 6.09375 
Q 38.328125 -1.171875 29.109375 -1.171875 
Q 19.921875 -1.171875 14.703125 6.5 
z
M 14.59375 26.3125 
Q 14.59375 17 17.140625 12.84375 
Q 21.296875 6.0625 28.375 6.0625 
Q 34.125 6.0625 38.328125 11.0625 
Q 42.53125 16.0625 42.53125 25.984375 
Q 42.53125 36.140625 38.5 40.96875 
Q 34.46875 45.796875 28.765625 45.796875 
Q 23 45.796875 18.796875 40.796875 
Q 14.59375 35.796875 14.59375 26.3125 
z
" id="ArialMT-98"/>
      <path d="M 21 0 
L 1.265625 51.859375 
L 10.546875 51.859375 
L 21.6875 20.796875 
Q 23.484375 15.765625 25 10.359375 
Q 26.171875 14.453125 28.265625 20.21875 
L 39.796875 51.859375 
L 48.828125 51.859375 
L 29.203125 0 
z
" id="ArialMT-118"/>
     </defs>
     <g transform="translate(83.80625 23.357813)scale(0.1 -0.1)">
      <use xlink:href="#ArialMT-79"/>
      <use x="77.783203" xlink:href="#ArialMT-98"/>
      <use x="133.398438" xlink:href="#ArialMT-115"/>
      <use x="183.398438" xlink:href="#ArialMT-101"/>
      <use x="239.013672" xlink:href="#ArialMT-114"/>
      <use x="272.314453" xlink:href="#ArialMT-118"/>
      <use x="322.314453" xlink:href="#ArialMT-101"/>
      <use x="377.929688" xlink:href="#ArialMT-100"/>
     </g>
    </g>
    <g id="patch_109">
     <path d="M 55.80625 37.503125 
L 75.80625 37.503125 
L 75.80625 30.503125 
L 55.80625 30.503125 
z
" style="fill:#ff97ff;fill-opacity:0.4;stroke:#000000;stroke-linejoin:miter;"/>
    </g>
    <g id="text_14">
     <!-- Shuffled -->
     <defs>
      <path d="M 4.5 23 
L 13.421875 23.78125 
Q 14.0625 18.40625 16.375 14.96875 
Q 18.703125 11.53125 23.578125 9.40625 
Q 28.46875 7.28125 34.578125 7.28125 
Q 39.984375 7.28125 44.140625 8.890625 
Q 48.296875 10.5 50.3125 13.296875 
Q 52.34375 16.109375 52.34375 19.4375 
Q 52.34375 22.796875 50.390625 25.3125 
Q 48.4375 27.828125 43.953125 29.546875 
Q 41.0625 30.671875 31.203125 33.03125 
Q 21.34375 35.40625 17.390625 37.5 
Q 12.25 40.1875 9.734375 44.15625 
Q 7.234375 48.140625 7.234375 53.078125 
Q 7.234375 58.5 10.296875 63.203125 
Q 13.375 67.921875 19.28125 70.359375 
Q 25.203125 72.796875 32.421875 72.796875 
Q 40.375 72.796875 46.453125 70.234375 
Q 52.546875 67.671875 55.8125 62.6875 
Q 59.078125 57.71875 59.328125 51.421875 
L 50.25 50.734375 
Q 49.515625 57.515625 45.28125 60.984375 
Q 41.0625 64.453125 32.8125 64.453125 
Q 24.21875 64.453125 20.28125 61.296875 
Q 16.359375 58.15625 16.359375 53.71875 
Q 16.359375 49.859375 19.140625 47.359375 
Q 21.875 44.875 33.421875 42.265625 
Q 44.96875 39.65625 49.265625 37.703125 
Q 55.515625 34.8125 58.484375 30.390625 
Q 61.46875 25.984375 61.46875 20.21875 
Q 61.46875 14.5 58.203125 9.4375 
Q 54.9375 4.390625 48.796875 1.578125 
Q 42.671875 -1.21875 35.015625 -1.21875 
Q 25.296875 -1.21875 18.71875 1.609375 
Q 12.15625 4.4375 8.421875 10.125 
Q 4.6875 15.828125 4.5 23 
z
" id="ArialMT-83"/>
      <path d="M 6.59375 0 
L 6.59375 71.578125 
L 15.375 71.578125 
L 15.375 45.90625 
Q 21.53125 53.03125 30.90625 53.03125 
Q 36.671875 53.03125 40.921875 50.75 
Q 45.171875 48.484375 47 44.484375 
Q 48.828125 40.484375 48.828125 32.859375 
L 48.828125 0 
L 40.046875 0 
L 40.046875 32.859375 
Q 40.046875 39.453125 37.1875 42.453125 
Q 34.328125 45.453125 29.109375 45.453125 
Q 25.203125 45.453125 21.75 43.421875 
Q 18.3125 41.40625 16.84375 37.9375 
Q 15.375 34.46875 15.375 28.375 
L 15.375 0 
z
" id="ArialMT-104"/>
      <path d="M 40.578125 0 
L 40.578125 7.625 
Q 34.515625 -1.171875 24.125 -1.171875 
Q 19.53125 -1.171875 15.546875 0.578125 
Q 11.578125 2.34375 9.640625 5 
Q 7.71875 7.671875 6.9375 11.53125 
Q 6.390625 14.109375 6.390625 19.734375 
L 6.390625 51.859375 
L 15.1875 51.859375 
L 15.1875 23.09375 
Q 15.1875 16.21875 15.71875 13.8125 
Q 16.546875 10.359375 19.234375 8.375 
Q 21.921875 6.390625 25.875 6.390625 
Q 29.828125 6.390625 33.296875 8.421875 
Q 36.765625 10.453125 38.203125 13.9375 
Q 39.65625 17.4375 39.65625 24.078125 
L 39.65625 51.859375 
L 48.4375 51.859375 
L 48.4375 0 
z
" id="ArialMT-117"/>
      <path d="M 8.6875 0 
L 8.6875 45.015625 
L 0.921875 45.015625 
L 0.921875 51.859375 
L 8.6875 51.859375 
L 8.6875 57.375 
Q 8.6875 62.59375 9.625 65.140625 
Q 10.890625 68.5625 14.078125 70.671875 
Q 17.28125 72.796875 23.046875 72.796875 
Q 26.765625 72.796875 31.25 71.921875 
L 29.9375 64.265625 
Q 27.203125 64.75 24.75 64.75 
Q 20.75 64.75 19.09375 63.03125 
Q 17.4375 61.328125 17.4375 56.640625 
L 17.4375 51.859375 
L 27.546875 51.859375 
L 27.546875 45.015625 
L 17.4375 45.015625 
L 17.4375 0 
z
" id="ArialMT-102"/>
     </defs>
     <g transform="translate(83.80625 37.503125)scale(0.1 -0.1)">
      <use xlink:href="#ArialMT-83"/>
      <use x="66.699219" xlink:href="#ArialMT-104"/>
      <use x="122.314453" xlink:href="#ArialMT-117"/>
      <use x="177.929688" xlink:href="#ArialMT-102"/>
      <use x="203.962891" xlink:href="#ArialMT-102"/>
      <use x="231.746094" xlink:href="#ArialMT-108"/>
      <use x="253.962891" xlink:href="#ArialMT-101"/>
      <use x="309.578125" xlink:href="#ArialMT-100"/>
     </g>
    </g>
   </g>
  </g>
 </g>
 <defs>
  <clipPath id="pb19e75ba7b">
   <rect height="146.772" width="262.26" x="46.80625" y="7.2"/>
  </clipPath>
 </defs>
</svg>
