<?xml version="1.0" encoding="utf-8" standalone="no"?>
<!DOCTYPE svg PUBLIC "-//W3C//DTD SVG 1.1//EN"
  "http://www.w3.org/Graphics/SVG/1.1/DTD/svg11.dtd">
<!-- Created with matplotlib (https://matplotlib.org/) -->
<svg height="230.4pt" version="1.1" viewBox="0 0 345.6 230.4" width="345.6pt" xmlns="http://www.w3.org/2000/svg" xmlns:xlink="http://www.w3.org/1999/xlink">
 <defs>
  <style type="text/css">
*{stroke-linecap:butt;stroke-linejoin:round;}
  </style>
 </defs>
 <g id="figure_1">
  <g id="patch_1">
   <path d="M 0 230.4 
L 345.6 230.4 
L 345.6 0 
L 0 0 
z
" style="fill:#ffffff;"/>
  </g>
  <g id="axes_1">
   <g id="patch_2">
    <path d="M 43.2 201.6 
L 311.04 201.6 
L 311.04 27.648 
L 43.2 27.648 
z
" style="fill:#ffffff;"/>
   </g>
   <g id="PolyCollection_1"/>
   <g id="PolyCollection_2"/>
   <g id="PolyCollection_3"/>
   <g id="PolyCollection_4"/>
   <g id="PolyCollection_5">
    <defs>
     <path d="M 219.122182 -36.707795 
L 219.122182 -36.706909 
L 219.730909 -36.706909 
L 220.339636 -36.706909 
L 220.948364 -36.706909 
L 221.557091 -36.706909 
L 222.165818 -36.706909 
L 222.774545 -36.706909 
L 223.383273 -36.706909 
L 223.992 -36.706909 
L 224.600727 -36.706909 
L 225.209455 -36.706909 
L 225.818182 -36.706909 
L 226.426909 -36.706909 
L 227.035636 -36.706909 
L 227.644364 -36.706909 
L 228.253091 -36.706909 
L 228.861818 -36.706909 
L 229.470545 -36.706909 
L 230.079273 -36.706909 
L 230.688 -36.706909 
L 231.296727 -36.706909 
L 231.905455 -36.706909 
L 232.514182 -36.706909 
L 233.122909 -36.706909 
L 233.731636 -36.706909 
L 234.340364 -36.706909 
L 234.949091 -36.706909 
L 235.557818 -36.706909 
L 236.166545 -36.706909 
L 236.775273 -36.706909 
L 237.384 -36.706909 
L 237.992727 -36.706909 
L 238.601455 -36.706909 
L 239.210182 -36.706909 
L 239.818909 -36.706909 
L 240.427636 -36.706909 
L 241.036364 -36.706909 
L 241.645091 -36.706909 
L 242.253818 -36.706909 
L 242.862545 -36.706909 
L 243.471273 -36.706909 
L 244.08 -36.706909 
L 244.688727 -36.706909 
L 245.297455 -36.706909 
L 245.906182 -36.706909 
L 246.514909 -36.706909 
L 247.123636 -36.706909 
L 247.732364 -36.706909 
L 248.341091 -36.706909 
L 248.949818 -36.706909 
L 249.558545 -36.706909 
L 250.167273 -36.706909 
L 250.776 -36.706909 
L 251.384727 -36.706909 
L 251.993455 -36.706909 
L 252.602182 -36.706909 
L 253.210909 -36.706909 
L 253.819636 -36.706909 
L 254.428364 -36.706909 
L 255.037091 -36.706909 
L 255.645818 -36.706909 
L 256.254545 -36.706909 
L 256.863273 -36.706909 
L 256.863273 -36.708482 
L 256.863273 -36.708482 
L 256.254545 -36.712713 
L 255.645818 -36.731147 
L 255.037091 -36.827092 
L 254.428364 -37.453071 
L 253.819636 -39.110609 
L 253.210909 -39.126423 
L 252.602182 -39.158051 
L 251.993455 -39.4427 
L 251.384727 -39.395258 
L 250.776 -39.521769 
L 250.167273 -39.537583 
L 249.558545 -39.711535 
L 248.949818 -39.853859 
L 248.341091 -39.996183 
L 247.732364 -40.233391 
L 247.123636 -40.185949 
L 246.514909 -40.217577 
L 245.906182 -40.533853 
L 245.297455 -40.691991 
L 244.688727 -40.755247 
L 244.08 -40.992454 
L 243.471273 -41.118964 
L 242.862545 -41.229661 
L 242.253818 -41.387799 
L 241.645091 -41.8464 
L 241.036364 -41.830586 
L 240.427636 -42.020352 
L 239.818909 -42.336628 
L 239.210182 -42.415697 
L 238.601455 -42.558022 
L 237.992727 -42.842671 
L 237.384 -43.143133 
L 236.775273 -43.301271 
L 236.166545 -43.680803 
L 235.557818 -43.997079 
L 234.949091 -44.171031 
L 234.340364 -44.487308 
L 233.731636 -44.629632 
L 233.122909 -45.088233 
L 232.514182 -45.309626 
L 231.905455 -45.53102 
L 231.296727 -46.052876 
L 230.688 -46.100317 
L 230.079273 -46.717056 
L 229.470545 -46.906822 
L 228.861818 -47.033332 
L 228.253091 -47.571002 
L 227.644364 -47.966348 
L 227.035636 -48.361693 
L 226.426909 -48.709597 
L 225.818182 -49.152384 
L 225.209455 -49.563543 
L 224.600727 -50.037958 
L 223.992 -50.670511 
L 223.383273 -51.255622 
L 222.774545 -51.872361 
L 222.165818 -52.030499 
L 221.557091 -38.876059 
L 220.948364 -36.914639 
L 220.339636 -36.734525 
L 219.730909 -36.711472 
L 219.122182 -36.707795 
z
" id="mdbfd2c0206" style="stroke:#ef553b;stroke-opacity:0.4;"/>
    </defs>
    <g clip-path="url(#p3d386d7ce1)">
     <use style="fill:#ef553b;fill-opacity:0.4;stroke:#ef553b;stroke-opacity:0.4;" x="0" xlink:href="#mdbfd2c0206" y="230.4"/>
    </g>
   </g>
   <g id="PolyCollection_6">
    <defs>
     <path d="M 175.293818 -36.710305 
L 175.293818 -36.706909 
L 175.902545 -36.706909 
L 176.511273 -36.706909 
L 177.12 -36.706909 
L 177.728727 -36.706909 
L 178.337455 -36.706909 
L 178.946182 -36.706909 
L 179.554909 -36.706909 
L 180.163636 -36.706909 
L 180.772364 -36.706909 
L 181.381091 -36.706909 
L 181.989818 -36.706909 
L 182.598545 -36.706909 
L 183.207273 -36.706909 
L 183.816 -36.706909 
L 184.424727 -36.706909 
L 185.033455 -36.706909 
L 185.642182 -36.706909 
L 186.250909 -36.706909 
L 186.859636 -36.706909 
L 187.468364 -36.706909 
L 188.077091 -36.706909 
L 188.685818 -36.706909 
L 189.294545 -36.706909 
L 189.903273 -36.706909 
L 190.512 -36.706909 
L 191.120727 -36.706909 
L 191.729455 -36.706909 
L 192.338182 -36.706909 
L 192.946909 -36.706909 
L 193.555636 -36.706909 
L 194.164364 -36.706909 
L 194.773091 -36.706909 
L 195.381818 -36.706909 
L 195.990545 -36.706909 
L 196.599273 -36.706909 
L 197.208 -36.706909 
L 197.816727 -36.706909 
L 198.425455 -36.706909 
L 199.034182 -36.706909 
L 199.642909 -36.706909 
L 200.251636 -36.706909 
L 200.860364 -36.706909 
L 201.469091 -36.706909 
L 202.077818 -36.706909 
L 202.686545 -36.706909 
L 203.295273 -36.706909 
L 203.904 -36.706909 
L 204.512727 -36.706909 
L 205.121455 -36.706909 
L 205.730182 -36.706909 
L 206.338909 -36.706909 
L 206.947636 -36.706909 
L 207.556364 -36.706909 
L 208.165091 -36.706909 
L 208.773818 -36.706909 
L 209.382545 -36.706909 
L 209.382545 -36.707886 
L 209.382545 -36.707886 
L 208.773818 -36.712577 
L 208.165091 -36.746613 
L 207.556364 -37.115342 
L 206.947636 -42.200961 
L 206.338909 -86.046022 
L 205.730182 -87.674845 
L 205.121455 -88.81344 
L 204.512727 -90.363194 
L 203.904 -91.675741 
L 203.295273 -93.36782 
L 202.686545 -93.968745 
L 202.077818 -95.10734 
L 201.469091 -96.957556 
L 200.860364 -97.858944 
L 200.251636 -99.04498 
L 199.642909 -100.183575 
L 199.034182 -101.622633 
L 198.425455 -103.457036 
L 197.816727 -104.643072 
L 197.208 -106.177012 
L 196.599273 -107.932346 
L 195.990545 -110.01977 
L 195.381818 -111.553711 
L 194.773091 -114.194618 
L 194.164364 -117.104361 
L 193.555636 -120.1248 
L 192.946909 -123.208495 
L 192.338182 -126.814045 
L 191.729455 -131.052148 
L 191.120727 -134.879092 
L 190.512 -139.559983 
L 189.903273 -144.2725 
L 189.294545 -149.759895 
L 188.685818 -155.45287 
L 188.077091 -162.173743 
L 187.468364 -168.673222 
L 186.859636 -174.461079 
L 186.250909 -179.980102 
L 185.642182 -185.451683 
L 185.033455 -190.03769 
L 184.424727 -191.712851 
L 183.816 -190.7316 
L 183.207273 -190.686215 
L 182.598545 -191.410962 
L 181.989818 -191.195263 
L 181.381091 -189.531648 
L 180.772364 -184.645178 
L 180.163636 -179.458246 
L 179.554909 -173.053649 
L 178.946182 -165.763479 
L 178.337455 -157.935639 
L 177.728727 -150.281751 
L 177.12 -70.157087 
L 176.511273 -37.918422 
L 175.902545 -36.755618 
L 175.293818 -36.710305 
z
" id="m16338cf64e" style="stroke:#00cc96;stroke-opacity:0.4;"/>
    </defs>
    <g clip-path="url(#p3d386d7ce1)">
     <use style="fill:#00cc96;fill-opacity:0.4;stroke:#00cc96;stroke-opacity:0.4;" x="0" xlink:href="#m16338cf64e" y="230.4"/>
    </g>
   </g>
   <g id="matplotlib.axis_1">
    <g id="xtick_1">
     <g id="line2d_1">
      <defs>
       <path d="M 0 0 
L 0 3.5 
" id="m55c74c9f1c" style="stroke:#000000;stroke-width:0.8;"/>
      </defs>
      <g>
       <use style="stroke:#000000;stroke-width:0.8;" x="55.374545" xlink:href="#m55c74c9f1c" y="201.6"/>
      </g>
     </g>
     <g id="text_1">
      <!-- 300 -->
      <defs>
       <path d="M 4.203125 18.890625 
L 12.984375 20.0625 
Q 14.5 12.59375 18.140625 9.296875 
Q 21.78125 6 27 6 
Q 33.203125 6 37.46875 10.296875 
Q 41.75 14.59375 41.75 20.953125 
Q 41.75 27 37.796875 30.921875 
Q 33.84375 34.859375 27.734375 34.859375 
Q 25.25 34.859375 21.53125 33.890625 
L 22.515625 41.609375 
Q 23.390625 41.5 23.921875 41.5 
Q 29.546875 41.5 34.03125 44.421875 
Q 38.53125 47.359375 38.53125 53.46875 
Q 38.53125 58.296875 35.25 61.46875 
Q 31.984375 64.65625 26.8125 64.65625 
Q 21.6875 64.65625 18.265625 61.421875 
Q 14.84375 58.203125 13.875 51.765625 
L 5.078125 53.328125 
Q 6.6875 62.15625 12.390625 67.015625 
Q 18.109375 71.875 26.609375 71.875 
Q 32.46875 71.875 37.390625 69.359375 
Q 42.328125 66.84375 44.9375 62.5 
Q 47.5625 58.15625 47.5625 53.265625 
Q 47.5625 48.640625 45.0625 44.828125 
Q 42.578125 41.015625 37.703125 38.765625 
Q 44.046875 37.3125 47.5625 32.6875 
Q 51.078125 28.078125 51.078125 21.140625 
Q 51.078125 11.765625 44.234375 5.25 
Q 37.40625 -1.265625 26.953125 -1.265625 
Q 17.53125 -1.265625 11.296875 4.34375 
Q 5.078125 9.96875 4.203125 18.890625 
z
" id="ArialMT-51"/>
       <path d="M 4.15625 35.296875 
Q 4.15625 48 6.765625 55.734375 
Q 9.375 63.484375 14.515625 67.671875 
Q 19.671875 71.875 27.484375 71.875 
Q 33.25 71.875 37.59375 69.546875 
Q 41.9375 67.234375 44.765625 62.859375 
Q 47.609375 58.5 49.21875 52.21875 
Q 50.828125 45.953125 50.828125 35.296875 
Q 50.828125 22.703125 48.234375 14.96875 
Q 45.65625 7.234375 40.5 3 
Q 35.359375 -1.21875 27.484375 -1.21875 
Q 17.140625 -1.21875 11.234375 6.203125 
Q 4.15625 15.140625 4.15625 35.296875 
z
M 13.1875 35.296875 
Q 13.1875 17.671875 17.3125 11.828125 
Q 21.4375 6 27.484375 6 
Q 33.546875 6 37.671875 11.859375 
Q 41.796875 17.71875 41.796875 35.296875 
Q 41.796875 52.984375 37.671875 58.78125 
Q 33.546875 64.59375 27.390625 64.59375 
Q 21.34375 64.59375 17.71875 59.46875 
Q 13.1875 52.9375 13.1875 35.296875 
z
" id="ArialMT-48"/>
      </defs>
      <g transform="translate(47.033139 215.757812)scale(0.1 -0.1)">
       <use xlink:href="#ArialMT-51"/>
       <use x="55.615234" xlink:href="#ArialMT-48"/>
       <use x="111.230469" xlink:href="#ArialMT-48"/>
      </g>
     </g>
    </g>
    <g id="xtick_2">
     <g id="line2d_2">
      <g>
       <use style="stroke:#000000;stroke-width:0.8;" x="116.247273" xlink:href="#m55c74c9f1c" y="201.6"/>
      </g>
     </g>
     <g id="text_2">
      <!-- 400 -->
      <defs>
       <path d="M 32.328125 0 
L 32.328125 17.140625 
L 1.265625 17.140625 
L 1.265625 25.203125 
L 33.9375 71.578125 
L 41.109375 71.578125 
L 41.109375 25.203125 
L 50.78125 25.203125 
L 50.78125 17.140625 
L 41.109375 17.140625 
L 41.109375 0 
z
M 32.328125 25.203125 
L 32.328125 57.46875 
L 9.90625 25.203125 
z
" id="ArialMT-52"/>
      </defs>
      <g transform="translate(107.905866 215.757812)scale(0.1 -0.1)">
       <use xlink:href="#ArialMT-52"/>
       <use x="55.615234" xlink:href="#ArialMT-48"/>
       <use x="111.230469" xlink:href="#ArialMT-48"/>
      </g>
     </g>
    </g>
    <g id="xtick_3">
     <g id="line2d_3">
      <g>
       <use style="stroke:#000000;stroke-width:0.8;" x="177.12" xlink:href="#m55c74c9f1c" y="201.6"/>
      </g>
     </g>
     <g id="text_3">
      <!-- 500 -->
      <defs>
       <path d="M 4.15625 18.75 
L 13.375 19.53125 
Q 14.40625 12.796875 18.140625 9.390625 
Q 21.875 6 27.15625 6 
Q 33.5 6 37.890625 10.78125 
Q 42.28125 15.578125 42.28125 23.484375 
Q 42.28125 31 38.0625 35.34375 
Q 33.84375 39.703125 27 39.703125 
Q 22.75 39.703125 19.328125 37.765625 
Q 15.921875 35.84375 13.96875 32.765625 
L 5.71875 33.84375 
L 12.640625 70.609375 
L 48.25 70.609375 
L 48.25 62.203125 
L 19.671875 62.203125 
L 15.828125 42.96875 
Q 22.265625 47.46875 29.34375 47.46875 
Q 38.71875 47.46875 45.15625 40.96875 
Q 51.609375 34.46875 51.609375 24.265625 
Q 51.609375 14.546875 45.953125 7.46875 
Q 39.0625 -1.21875 27.15625 -1.21875 
Q 17.390625 -1.21875 11.203125 4.25 
Q 5.03125 9.71875 4.15625 18.75 
z
" id="ArialMT-53"/>
      </defs>
      <g transform="translate(168.778594 215.757812)scale(0.1 -0.1)">
       <use xlink:href="#ArialMT-53"/>
       <use x="55.615234" xlink:href="#ArialMT-48"/>
       <use x="111.230469" xlink:href="#ArialMT-48"/>
      </g>
     </g>
    </g>
    <g id="xtick_4">
     <g id="line2d_4">
      <g>
       <use style="stroke:#000000;stroke-width:0.8;" x="237.992727" xlink:href="#m55c74c9f1c" y="201.6"/>
      </g>
     </g>
     <g id="text_4">
      <!-- 600 -->
      <defs>
       <path d="M 49.75 54.046875 
L 41.015625 53.375 
Q 39.84375 58.546875 37.703125 60.890625 
Q 34.125 64.65625 28.90625 64.65625 
Q 24.703125 64.65625 21.53125 62.3125 
Q 17.390625 59.28125 14.984375 53.46875 
Q 12.59375 47.65625 12.5 36.921875 
Q 15.671875 41.75 20.265625 44.09375 
Q 24.859375 46.4375 29.890625 46.4375 
Q 38.671875 46.4375 44.84375 39.96875 
Q 51.03125 33.5 51.03125 23.25 
Q 51.03125 16.5 48.125 10.71875 
Q 45.21875 4.9375 40.140625 1.859375 
Q 35.0625 -1.21875 28.609375 -1.21875 
Q 17.625 -1.21875 10.6875 6.859375 
Q 3.765625 14.9375 3.765625 33.5 
Q 3.765625 54.25 11.421875 63.671875 
Q 18.109375 71.875 29.4375 71.875 
Q 37.890625 71.875 43.28125 67.140625 
Q 48.6875 62.40625 49.75 54.046875 
z
M 13.875 23.1875 
Q 13.875 18.65625 15.796875 14.5 
Q 17.71875 10.359375 21.1875 8.171875 
Q 24.65625 6 28.46875 6 
Q 34.03125 6 38.03125 10.484375 
Q 42.046875 14.984375 42.046875 22.703125 
Q 42.046875 30.125 38.078125 34.390625 
Q 34.125 38.671875 28.125 38.671875 
Q 22.171875 38.671875 18.015625 34.390625 
Q 13.875 30.125 13.875 23.1875 
z
" id="ArialMT-54"/>
      </defs>
      <g transform="translate(229.651321 215.757812)scale(0.1 -0.1)">
       <use xlink:href="#ArialMT-54"/>
       <use x="55.615234" xlink:href="#ArialMT-48"/>
       <use x="111.230469" xlink:href="#ArialMT-48"/>
      </g>
     </g>
    </g>
    <g id="xtick_5">
     <g id="line2d_5">
      <g>
       <use style="stroke:#000000;stroke-width:0.8;" x="298.865455" xlink:href="#m55c74c9f1c" y="201.6"/>
      </g>
     </g>
     <g id="text_5">
      <!-- 700 -->
      <defs>
       <path d="M 4.734375 62.203125 
L 4.734375 70.65625 
L 51.078125 70.65625 
L 51.078125 63.8125 
Q 44.234375 56.546875 37.515625 44.484375 
Q 30.8125 32.421875 27.15625 19.671875 
Q 24.515625 10.6875 23.78125 0 
L 14.75 0 
Q 14.890625 8.453125 18.0625 20.40625 
Q 21.234375 32.375 27.171875 43.484375 
Q 33.109375 54.59375 39.796875 62.203125 
z
" id="ArialMT-55"/>
      </defs>
      <g transform="translate(290.524048 215.757812)scale(0.1 -0.1)">
       <use xlink:href="#ArialMT-55"/>
       <use x="55.615234" xlink:href="#ArialMT-48"/>
       <use x="111.230469" xlink:href="#ArialMT-48"/>
      </g>
     </g>
    </g>
    <g id="text_6">
     <!-- Wavelength (nm) -->
     <defs>
      <path d="M 16.890625 0 
L 12.5 71.578125 
L 22.21875 71.578125 
L 23.875 36.1875 
Q 24.03125 33.640625 24.359375 22.40625 
Q 24.46875 19.28125 24.46875 18.015625 
Q 24.46875 17.1875 24.421875 13.1875 
Q 30.375 25.390625 33.015625 30.375 
L 54.78125 71.578125 
L 64.65625 71.578125 
L 67.046875 29.734375 
Q 67.4375 22.5625 67.578125 12.453125 
Q 68.453125 14.9375 70.703125 19.875 
Q 74.265625 27.828125 75.984375 31.25 
L 96.390625 71.578125 
L 106.15625 71.578125 
L 69.734375 0 
L 59.46875 0 
L 57.078125 43.359375 
Q 56.734375 48.921875 56.546875 57.03125 
Q 53.5625 50.25 51.5625 46.484375 
L 26.765625 0 
z
" id="Arial-ItalicMT-87"/>
      <path d="M 38.28125 6.453125 
Q 33.6875 2.484375 29.4375 0.65625 
Q 25.203125 -1.171875 20.359375 -1.171875 
Q 13.1875 -1.171875 8.78125 3.046875 
Q 4.390625 7.28125 4.390625 13.875 
Q 4.390625 18.21875 6.359375 21.5625 
Q 8.34375 24.90625 11.609375 26.921875 
Q 14.890625 28.953125 19.625 29.828125 
Q 22.609375 30.421875 30.9375 30.765625 
Q 39.265625 31.109375 42.875 32.515625 
Q 43.890625 36.140625 43.890625 38.53125 
Q 43.890625 41.609375 41.65625 43.359375 
Q 38.578125 45.796875 32.671875 45.796875 
Q 27.09375 45.796875 23.546875 43.328125 
Q 20.015625 40.875 18.40625 36.328125 
L 9.46875 37.109375 
Q 12.203125 44.828125 18.140625 48.921875 
Q 24.078125 53.03125 33.109375 53.03125 
Q 42.71875 53.03125 48.34375 48.4375 
Q 52.640625 45.015625 52.640625 39.546875 
Q 52.640625 35.40625 51.421875 29.9375 
L 48.53125 17.046875 
Q 47.171875 10.890625 47.171875 7.03125 
Q 47.171875 4.59375 48.25 0 
L 39.3125 0 
Q 38.578125 2.546875 38.28125 6.453125 
z
M 41.546875 26.265625 
Q 39.703125 25.53125 37.578125 25.140625 
Q 35.453125 24.75 30.46875 24.3125 
Q 22.75 23.640625 19.578125 22.578125 
Q 16.40625 21.53125 14.796875 19.234375 
Q 13.1875 16.9375 13.1875 14.15625 
Q 13.1875 10.453125 15.75 8.0625 
Q 18.3125 5.671875 23.046875 5.671875 
Q 27.4375 5.671875 31.484375 7.984375 
Q 35.546875 10.296875 37.890625 14.453125 
Q 40.234375 18.609375 41.546875 26.265625 
z
" id="Arial-ItalicMT-97"/>
      <path d="M 16.40625 0 
L 7.90625 51.859375 
L 16.5 51.859375 
L 20.953125 23.296875 
Q 21.6875 18.609375 22.75 8.015625 
Q 25.296875 13.53125 29.25 20.65625 
L 46.578125 51.859375 
L 55.90625 51.859375 
L 26.21875 0 
z
" id="Arial-ItalicMT-118"/>
      <path d="M 41.40625 17.625 
L 50 16.75 
Q 48.140625 10.359375 41.46875 4.59375 
Q 34.8125 -1.171875 25.59375 -1.171875 
Q 19.828125 -1.171875 15.015625 1.484375 
Q 10.203125 4.15625 7.6875 9.234375 
Q 5.171875 14.3125 5.171875 20.796875 
Q 5.171875 29.296875 9.09375 37.28125 
Q 13.03125 45.265625 19.28125 49.140625 
Q 25.53125 53.03125 32.8125 53.03125 
Q 42.09375 53.03125 47.625 47.265625 
Q 53.171875 41.5 53.171875 31.546875 
Q 53.171875 27.734375 52.484375 23.734375 
L 14.3125 23.734375 
Q 14.109375 22.21875 14.109375 21 
Q 14.109375 13.71875 17.453125 9.890625 
Q 20.796875 6.0625 25.640625 6.0625 
Q 30.171875 6.0625 34.5625 9.03125 
Q 38.96875 12.015625 41.40625 17.625 
z
M 15.71875 30.46875 
L 44.828125 30.46875 
Q 44.875 31.84375 44.875 32.421875 
Q 44.875 39.0625 41.546875 42.59375 
Q 38.234375 46.140625 33.015625 46.140625 
Q 27.34375 46.140625 22.671875 42.234375 
Q 18.015625 38.328125 15.71875 30.46875 
z
" id="Arial-ItalicMT-101"/>
      <path d="M 2.640625 0 
L 17.578125 71.578125 
L 26.421875 71.578125 
L 11.46875 0 
z
" id="Arial-ItalicMT-108"/>
      <path d="M 3.328125 0 
L 14.15625 51.859375 
L 22.171875 51.859375 
L 20.265625 42.828125 
Q 25.484375 48.140625 30.03125 50.578125 
Q 34.578125 53.03125 39.3125 53.03125 
Q 45.609375 53.03125 49.1875 49.609375 
Q 52.78125 46.1875 52.78125 40.484375 
Q 52.78125 37.59375 51.515625 31.390625 
L 44.921875 0 
L 36.078125 0 
L 42.96875 32.859375 
Q 44 37.640625 44 39.9375 
Q 44 42.53125 42.21875 44.140625 
Q 40.4375 45.75 37.0625 45.75 
Q 30.28125 45.75 24.96875 40.859375 
Q 19.671875 35.984375 17.1875 24.125 
L 12.15625 0 
z
" id="Arial-ItalicMT-110"/>
      <path d="M 2.828125 -4.6875 
L 11.765625 -5.515625 
Q 11.671875 -8.546875 12.5 -10.0625 
Q 13.328125 -11.578125 15.140625 -12.40625 
Q 17.53125 -13.484375 21.34375 -13.484375 
Q 29.34375 -13.484375 32.859375 -9.328125 
Q 35.15625 -6.546875 37.109375 2.78125 
L 37.984375 6.984375 
Q 31.109375 0 23.34375 0 
Q 15.484375 0 10.1875 5.78125 
Q 4.890625 11.578125 4.890625 22.171875 
Q 4.890625 30.90625 9.0625 38.234375 
Q 13.234375 45.5625 18.984375 49.296875 
Q 24.75 53.03125 30.859375 53.03125 
Q 41.0625 53.03125 46.578125 43.359375 
L 48.34375 51.859375 
L 56.453125 51.859375 
L 46 1.8125 
Q 44.28125 -6.453125 41.5 -11.0625 
Q 38.71875 -15.671875 33.765625 -18.203125 
Q 28.8125 -20.75 22.3125 -20.75 
Q 16.0625 -20.75 11.546875 -19.140625 
Q 7.03125 -17.53125 4.8125 -14.421875 
Q 2.59375 -11.328125 2.59375 -7.328125 
Q 2.59375 -6.109375 2.828125 -4.6875 
z
M 13.875 22.953125 
Q 13.875 17.625 14.890625 14.9375 
Q 16.359375 11.1875 19.0625 9.203125 
Q 21.78125 7.234375 25.09375 7.234375 
Q 29.4375 7.234375 33.734375 10.28125 
Q 38.03125 13.328125 40.6875 19.71875 
Q 43.359375 26.125 43.359375 31.9375 
Q 43.359375 38.328125 39.8125 42.109375 
Q 36.28125 45.90625 31.0625 45.90625 
Q 27.828125 45.90625 24.796875 44.171875 
Q 21.78125 42.4375 19.15625 38.890625 
Q 16.546875 35.359375 15.203125 30.421875 
Q 13.875 25.484375 13.875 22.953125 
z
" id="Arial-ItalicMT-103"/>
      <path d="M 23.96875 7.171875 
L 22.515625 -0.046875 
Q 19.34375 -0.875 16.359375 -0.875 
Q 11.078125 -0.875 7.953125 1.703125 
Q 5.609375 3.65625 5.609375 7.03125 
Q 5.609375 8.734375 6.890625 14.890625 
L 13.1875 45.015625 
L 6.203125 45.015625 
L 7.625 51.859375 
L 14.59375 51.859375 
L 17.28125 64.59375 
L 27.390625 70.703125 
L 23.4375 51.859375 
L 32.125 51.859375 
L 30.671875 45.015625 
L 22.015625 45.015625 
L 16.015625 16.359375 
Q 14.890625 10.890625 14.890625 9.8125 
Q 14.890625 8.25 15.796875 7.421875 
Q 16.703125 6.59375 18.75 6.59375 
Q 21.6875 6.59375 23.96875 7.171875 
z
" id="Arial-ItalicMT-116"/>
      <path d="M 3.328125 0 
L 18.265625 71.578125 
L 27.09375 71.578125 
L 21.390625 44.09375 
Q 26.3125 48.875 30.5625 50.953125 
Q 34.8125 53.03125 39.3125 53.03125 
Q 45.75 53.03125 49.3125 49.625 
Q 52.875 46.234375 52.875 40.671875 
Q 52.875 37.9375 51.3125 30.609375 
L 44.921875 0 
L 36.078125 0 
L 42.671875 31.390625 
Q 44.09375 38.234375 44.09375 39.984375 
Q 44.09375 42.53125 42.328125 44.140625 
Q 40.578125 45.75 37.25 45.75 
Q 32.46875 45.75 28.125 43.234375 
Q 23.78125 40.71875 21.3125 36.34375 
Q 18.84375 31.984375 16.796875 22.265625 
L 12.15625 0 
z
" id="Arial-ItalicMT-104"/>
      <path id="Arial-ItalicMT-32"/>
      <path d="M 16.109375 -21.046875 
Q 8.453125 -4.25 8.453125 13.484375 
Q 8.453125 25.296875 11.546875 35.46875 
Q 14.65625 45.65625 21 55.609375 
Q 25.203125 62.25 34.421875 72.796875 
L 41.3125 72.796875 
Q 35.59375 66.703125 29.21875 55.609375 
Q 22.859375 44.53125 19.96875 33.828125 
Q 17.09375 23.140625 17.09375 12.359375 
Q 17.09375 -3.765625 22.703125 -21.046875 
z
" id="Arial-ItalicMT-40"/>
      <path d="M 3.265625 0 
L 14.109375 51.859375 
L 22.953125 51.859375 
L 21.140625 43.3125 
Q 26.078125 48.828125 29.953125 50.921875 
Q 33.84375 53.03125 38.375 53.03125 
Q 43.21875 53.03125 46.453125 50.46875 
Q 49.703125 47.90625 50.734375 43.3125 
Q 54.6875 48.1875 59.046875 50.609375 
Q 63.421875 53.03125 68.265625 53.03125 
Q 74.75 53.03125 78 49.953125 
Q 81.25 46.875 81.25 41.3125 
Q 81.25 38.921875 80.125 33.40625 
L 73.140625 0 
L 64.3125 0 
L 71.4375 34.28125 
Q 72.359375 38.484375 72.359375 40.28125 
Q 72.359375 42.828125 70.75 44.28125 
Q 69.140625 45.75 66.21875 45.75 
Q 62.25 45.75 58.140625 43.359375 
Q 54.046875 40.96875 51.78125 37.078125 
Q 49.515625 33.203125 47.796875 25.140625 
L 42.53125 0 
L 33.6875 0 
L 41.015625 35.015625 
Q 41.796875 38.578125 41.796875 40.09375 
Q 41.796875 42.625 40.203125 44.1875 
Q 38.625 45.75 36.078125 45.75 
Q 32.328125 45.75 28.203125 43.359375 
Q 24.078125 40.96875 21.484375 36.6875 
Q 18.890625 32.421875 17.234375 24.515625 
L 12.109375 0 
z
" id="Arial-ItalicMT-109"/>
      <path d="M 19.828125 72.796875 
Q 27.546875 56 27.546875 38.328125 
Q 27.546875 26.46875 24.4375 16.3125 
Q 21.34375 6.15625 14.984375 -3.859375 
Q 10.75 -10.5 1.5625 -21.046875 
L -5.328125 -21.046875 
Q 0.34375 -14.890625 6.734375 -3.796875 
Q 13.140625 7.28125 15.984375 17.9375 
Q 18.84375 28.609375 18.84375 39.453125 
Q 18.84375 55.5625 13.234375 72.796875 
z
" id="Arial-ItalicMT-41"/>
     </defs>
     <g transform="translate(139.141094 229.025)scale(0.1 -0.1)">
      <use xlink:href="#Arial-ItalicMT-87"/>
      <use x="92.634766" xlink:href="#Arial-ItalicMT-97"/>
      <use x="148.25" xlink:href="#Arial-ItalicMT-118"/>
      <use x="198.25" xlink:href="#Arial-ItalicMT-101"/>
      <use x="253.865234" xlink:href="#Arial-ItalicMT-108"/>
      <use x="276.082031" xlink:href="#Arial-ItalicMT-101"/>
      <use x="331.697266" xlink:href="#Arial-ItalicMT-110"/>
      <use x="387.3125" xlink:href="#Arial-ItalicMT-103"/>
      <use x="442.927734" xlink:href="#Arial-ItalicMT-116"/>
      <use x="470.710938" xlink:href="#Arial-ItalicMT-104"/>
      <use x="526.326172" xlink:href="#Arial-ItalicMT-32"/>
      <use x="554.109375" xlink:href="#Arial-ItalicMT-40"/>
      <use x="587.410156" xlink:href="#Arial-ItalicMT-110"/>
      <use x="643.025391" xlink:href="#Arial-ItalicMT-109"/>
      <use x="726.326172" xlink:href="#Arial-ItalicMT-41"/>
     </g>
    </g>
   </g>
   <g id="matplotlib.axis_2">
    <g id="ytick_1">
     <g id="line2d_6">
      <defs>
       <path d="M 0 0 
L -3.5 0 
" id="m7f04527d02" style="stroke:#000000;stroke-width:0.8;"/>
      </defs>
      <g>
       <use style="stroke:#000000;stroke-width:0.8;" x="43.2" xlink:href="#m7f04527d02" y="193.693091"/>
      </g>
     </g>
     <g id="text_7">
      <!-- 0.0 -->
      <defs>
       <path d="M 9.078125 0 
L 9.078125 10.015625 
L 19.09375 10.015625 
L 19.09375 0 
z
" id="ArialMT-46"/>
      </defs>
      <g transform="translate(22.3 197.271997)scale(0.1 -0.1)">
       <use xlink:href="#ArialMT-48"/>
       <use x="55.615234" xlink:href="#ArialMT-46"/>
       <use x="83.398438" xlink:href="#ArialMT-48"/>
      </g>
     </g>
    </g>
    <g id="ytick_2">
     <g id="line2d_7">
      <g>
       <use style="stroke:#000000;stroke-width:0.8;" x="43.2" xlink:href="#m7f04527d02" y="162.065455"/>
      </g>
     </g>
     <g id="text_8">
      <!-- 0.2 -->
      <defs>
       <path d="M 50.34375 8.453125 
L 50.34375 0 
L 3.03125 0 
Q 2.9375 3.171875 4.046875 6.109375 
Q 5.859375 10.9375 9.828125 15.625 
Q 13.8125 20.3125 21.34375 26.46875 
Q 33.015625 36.03125 37.109375 41.625 
Q 41.21875 47.21875 41.21875 52.203125 
Q 41.21875 57.421875 37.46875 61 
Q 33.734375 64.59375 27.734375 64.59375 
Q 21.390625 64.59375 17.578125 60.78125 
Q 13.765625 56.984375 13.71875 50.25 
L 4.6875 51.171875 
Q 5.609375 61.28125 11.65625 66.578125 
Q 17.71875 71.875 27.9375 71.875 
Q 38.234375 71.875 44.234375 66.15625 
Q 50.25 60.453125 50.25 52 
Q 50.25 47.703125 48.484375 43.546875 
Q 46.734375 39.40625 42.65625 34.8125 
Q 38.578125 30.21875 29.109375 22.21875 
Q 21.1875 15.578125 18.9375 13.203125 
Q 16.703125 10.84375 15.234375 8.453125 
z
" id="ArialMT-50"/>
      </defs>
      <g transform="translate(22.3 165.644361)scale(0.1 -0.1)">
       <use xlink:href="#ArialMT-48"/>
       <use x="55.615234" xlink:href="#ArialMT-46"/>
       <use x="83.398438" xlink:href="#ArialMT-50"/>
      </g>
     </g>
    </g>
    <g id="ytick_3">
     <g id="line2d_8">
      <g>
       <use style="stroke:#000000;stroke-width:0.8;" x="43.2" xlink:href="#m7f04527d02" y="130.437818"/>
      </g>
     </g>
     <g id="text_9">
      <!-- 0.4 -->
      <g transform="translate(22.3 134.016724)scale(0.1 -0.1)">
       <use xlink:href="#ArialMT-48"/>
       <use x="55.615234" xlink:href="#ArialMT-46"/>
       <use x="83.398438" xlink:href="#ArialMT-52"/>
      </g>
     </g>
    </g>
    <g id="ytick_4">
     <g id="line2d_9">
      <g>
       <use style="stroke:#000000;stroke-width:0.8;" x="43.2" xlink:href="#m7f04527d02" y="98.810182"/>
      </g>
     </g>
     <g id="text_10">
      <!-- 0.6 -->
      <g transform="translate(22.3 102.389088)scale(0.1 -0.1)">
       <use xlink:href="#ArialMT-48"/>
       <use x="55.615234" xlink:href="#ArialMT-46"/>
       <use x="83.398438" xlink:href="#ArialMT-54"/>
      </g>
     </g>
    </g>
    <g id="ytick_5">
     <g id="line2d_10">
      <g>
       <use style="stroke:#000000;stroke-width:0.8;" x="43.2" xlink:href="#m7f04527d02" y="67.182545"/>
      </g>
     </g>
     <g id="text_11">
      <!-- 0.8 -->
      <defs>
       <path d="M 17.671875 38.8125 
Q 12.203125 40.828125 9.5625 44.53125 
Q 6.9375 48.25 6.9375 53.421875 
Q 6.9375 61.234375 12.546875 66.546875 
Q 18.171875 71.875 27.484375 71.875 
Q 36.859375 71.875 42.578125 66.421875 
Q 48.296875 60.984375 48.296875 53.171875 
Q 48.296875 48.1875 45.671875 44.5 
Q 43.0625 40.828125 37.75 38.8125 
Q 44.34375 36.671875 47.78125 31.875 
Q 51.21875 27.09375 51.21875 20.453125 
Q 51.21875 11.28125 44.71875 5.03125 
Q 38.234375 -1.21875 27.640625 -1.21875 
Q 17.046875 -1.21875 10.546875 5.046875 
Q 4.046875 11.328125 4.046875 20.703125 
Q 4.046875 27.6875 7.59375 32.390625 
Q 11.140625 37.109375 17.671875 38.8125 
z
M 15.921875 53.71875 
Q 15.921875 48.640625 19.1875 45.40625 
Q 22.46875 42.1875 27.6875 42.1875 
Q 32.765625 42.1875 36.015625 45.375 
Q 39.265625 48.578125 39.265625 53.21875 
Q 39.265625 58.0625 35.90625 61.359375 
Q 32.5625 64.65625 27.59375 64.65625 
Q 22.5625 64.65625 19.234375 61.421875 
Q 15.921875 58.203125 15.921875 53.71875 
z
M 13.09375 20.65625 
Q 13.09375 16.890625 14.875 13.375 
Q 16.65625 9.859375 20.171875 7.921875 
Q 23.6875 6 27.734375 6 
Q 34.03125 6 38.125 10.046875 
Q 42.234375 14.109375 42.234375 20.359375 
Q 42.234375 26.703125 38.015625 30.859375 
Q 33.796875 35.015625 27.4375 35.015625 
Q 21.234375 35.015625 17.15625 30.90625 
Q 13.09375 26.8125 13.09375 20.65625 
z
" id="ArialMT-56"/>
      </defs>
      <g transform="translate(22.3 70.761452)scale(0.1 -0.1)">
       <use xlink:href="#ArialMT-48"/>
       <use x="55.615234" xlink:href="#ArialMT-46"/>
       <use x="83.398438" xlink:href="#ArialMT-56"/>
      </g>
     </g>
    </g>
    <g id="ytick_6">
     <g id="line2d_11">
      <g>
       <use style="stroke:#000000;stroke-width:0.8;" x="43.2" xlink:href="#m7f04527d02" y="35.554909"/>
      </g>
     </g>
     <g id="text_12">
      <!-- 1.0 -->
      <defs>
       <path d="M 37.25 0 
L 28.46875 0 
L 28.46875 56 
Q 25.296875 52.984375 20.140625 49.953125 
Q 14.984375 46.921875 10.890625 45.40625 
L 10.890625 53.90625 
Q 18.265625 57.375 23.78125 62.296875 
Q 29.296875 67.234375 31.59375 71.875 
L 37.25 71.875 
z
" id="ArialMT-49"/>
      </defs>
      <g transform="translate(22.3 39.133815)scale(0.1 -0.1)">
       <use xlink:href="#ArialMT-49"/>
       <use x="55.615234" xlink:href="#ArialMT-46"/>
       <use x="83.398438" xlink:href="#ArialMT-48"/>
      </g>
     </g>
    </g>
    <g id="text_13">
     <!-- Relative Transmission/Power (AU) -->
     <defs>
      <path d="M 4.6875 0 
L 19.671875 71.578125 
L 49.703125 71.578125 
Q 58.59375 71.578125 63.1875 70.09375 
Q 67.78125 68.609375 70.390625 64.5 
Q 73 60.40625 73 54.15625 
Q 73 45.40625 67.28125 39.640625 
Q 61.578125 33.890625 48.828125 32.171875 
Q 52.734375 29.296875 54.734375 26.515625 
Q 59.234375 20.21875 61.96875 13.484375 
L 67.4375 0 
L 56.734375 0 
L 51.609375 13.328125 
Q 48.828125 20.5625 45.265625 25.828125 
Q 42.828125 29.5 40.28125 30.640625 
Q 37.75 31.78125 32.03125 31.78125 
L 20.90625 31.78125 
L 14.265625 0 
z
M 22.515625 39.546875 
L 35.75 39.546875 
Q 44.921875 39.546875 47.703125 39.796875 
Q 53.125 40.328125 56.59375 42.234375 
Q 60.0625 44.140625 61.96875 47.359375 
Q 63.875 50.59375 63.875 54.296875 
Q 63.875 57.421875 62.453125 59.734375 
Q 61.03125 62.0625 58.734375 62.890625 
Q 56.453125 63.71875 50.921875 63.71875 
L 27.59375 63.71875 
z
" id="Arial-ItalicMT-82"/>
      <path d="M 15.875 61.578125 
L 17.96875 71.578125 
L 26.765625 71.578125 
L 24.65625 61.578125 
z
M 2.984375 0 
L 13.8125 51.859375 
L 22.65625 51.859375 
L 11.8125 0 
z
" id="Arial-ItalicMT-105"/>
      <path d="M 22.703125 0 
L 35.9375 63.421875 
L 12.453125 63.421875 
L 14.15625 71.578125 
L 70.515625 71.578125 
L 68.796875 63.421875 
L 45.515625 63.421875 
L 32.28125 0 
z
" id="Arial-ItalicMT-84"/>
      <path d="M 3.328125 0 
L 14.15625 51.859375 
L 21.96875 51.859375 
L 19.78125 41.265625 
Q 23.78125 47.265625 27.609375 50.140625 
Q 31.453125 53.03125 35.453125 53.03125 
Q 38.09375 53.03125 41.9375 51.125 
L 38.328125 42.921875 
Q 36.03125 44.578125 33.296875 44.578125 
Q 28.65625 44.578125 23.765625 39.40625 
Q 18.890625 34.234375 16.109375 20.796875 
L 11.71875 0 
z
" id="Arial-ItalicMT-114"/>
      <path d="M 4.15625 17.71875 
L 12.984375 18.265625 
Q 12.984375 14.453125 14.15625 11.765625 
Q 15.328125 9.078125 18.46875 7.375 
Q 21.625 5.671875 25.828125 5.671875 
Q 31.6875 5.671875 34.609375 8.015625 
Q 37.546875 10.359375 37.546875 13.53125 
Q 37.546875 15.828125 35.796875 17.875 
Q 33.984375 19.921875 26.96875 22.921875 
Q 19.96875 25.921875 18.015625 27.15625 
Q 14.75 29.15625 13.078125 31.859375 
Q 11.421875 34.578125 11.421875 38.09375 
Q 11.421875 44.234375 16.296875 48.625 
Q 21.1875 53.03125 29.984375 53.03125 
Q 39.75 53.03125 44.84375 48.515625 
Q 49.953125 44 50.140625 36.625 
L 41.5 36.03125 
Q 41.3125 40.71875 38.1875 43.453125 
Q 35.0625 46.1875 29.34375 46.1875 
Q 24.75 46.1875 22.203125 44.09375 
Q 19.671875 42 19.671875 39.546875 
Q 19.671875 37.109375 21.875 35.25 
Q 23.34375 33.984375 29.4375 31.34375 
Q 39.59375 26.953125 42.234375 24.421875 
Q 46.4375 20.359375 46.4375 14.546875 
Q 46.4375 10.6875 44.0625 6.96875 
Q 41.703125 3.265625 36.84375 1.046875 
Q 31.984375 -1.171875 25.390625 -1.171875 
Q 16.40625 -1.171875 10.109375 3.265625 
Q 3.8125 7.71875 4.15625 17.71875 
z
" id="Arial-ItalicMT-115"/>
      <path d="M 4.890625 19.671875 
Q 4.890625 34.859375 13.8125 44.828125 
Q 21.1875 53.03125 33.15625 53.03125 
Q 42.53125 53.03125 48.265625 47.171875 
Q 54 41.3125 54 31.34375 
Q 54 22.40625 50.390625 14.71875 
Q 46.78125 7.03125 40.109375 2.921875 
Q 33.453125 -1.171875 26.078125 -1.171875 
Q 20.015625 -1.171875 15.0625 1.40625 
Q 10.109375 4 7.5 8.734375 
Q 4.890625 13.484375 4.890625 19.671875 
z
M 13.71875 20.5625 
Q 13.71875 13.234375 17.234375 9.453125 
Q 20.75 5.671875 26.171875 5.671875 
Q 29 5.671875 31.78125 6.8125 
Q 34.578125 7.953125 36.96875 10.296875 
Q 39.359375 12.640625 41.03125 15.640625 
Q 42.71875 18.65625 43.75 22.125 
Q 45.265625 26.953125 45.265625 31.390625 
Q 45.265625 38.421875 41.71875 42.296875 
Q 38.1875 46.1875 32.8125 46.1875 
Q 28.65625 46.1875 25.234375 44.203125 
Q 21.828125 42.234375 19.0625 38.421875 
Q 16.3125 34.625 15.015625 29.5625 
Q 13.71875 24.515625 13.71875 20.5625 
z
" id="Arial-ItalicMT-111"/>
      <path d="M -5.078125 -1.171875 
L 33.40625 72.796875 
L 41.0625 72.796875 
L 2.59375 -1.171875 
z
" id="Arial-ItalicMT-47"/>
      <path d="M 4.296875 0 
L 19.28125 71.578125 
L 49.171875 71.578125 
Q 56.9375 71.578125 60.8125 69.796875 
Q 64.703125 68.015625 67.234375 63.6875 
Q 69.78125 59.375 69.78125 54 
Q 69.78125 49.5625 67.96875 44.96875 
Q 66.15625 40.375 63.390625 37.390625 
Q 60.640625 34.421875 57.8125 32.90625 
Q 54.984375 31.390625 51.765625 30.671875 
Q 44.875 29.046875 37.84375 29.046875 
L 19.921875 29.046875 
L 13.875 0 
z
M 21.625 37.15625 
L 37.40625 37.15625 
Q 46.578125 37.15625 50.875 39.125 
Q 55.171875 41.109375 57.765625 45.15625 
Q 60.359375 49.21875 60.359375 53.765625 
Q 60.359375 57.28125 58.984375 59.5 
Q 57.625 61.71875 55.125 62.765625 
Q 52.640625 63.8125 45.5625 63.8125 
L 27.203125 63.8125 
z
" id="Arial-ItalicMT-80"/>
      <path d="M 13.1875 0 
L 7.765625 51.859375 
L 16.265625 51.859375 
L 18.609375 28.5625 
L 19.53125 15.484375 
Q 19.625 14.015625 19.828125 9.578125 
Q 21.296875 14.546875 22.3125 17.203125 
Q 23.34375 19.875 25.59375 24.8125 
L 37.9375 51.859375 
L 47.5625 51.859375 
L 49.265625 25.921875 
Q 49.65625 20.015625 49.75 10.15625 
Q 52.203125 16.703125 57.71875 28.328125 
L 68.84375 51.859375 
L 77.6875 51.859375 
L 52.34375 0 
L 43.171875 0 
L 41.21875 30.421875 
Q 41.015625 33.25 40.921875 41.453125 
Q 38.921875 36.234375 36.1875 30.171875 
L 22.46875 0 
z
" id="Arial-ItalicMT-119"/>
      <path d="M -2 0 
L 38.578125 71.578125 
L 49.859375 71.578125 
L 61.671875 0 
L 52.390625 0 
L 48.921875 20.609375 
L 19.96875 20.609375 
L 8.5 0 
z
M 24.078125 27.984375 
L 47.75 27.984375 
L 44.96875 45.953125 
Q 43.359375 56.640625 42.96875 63.765625 
Q 40.53125 57.625 35.84375 49.171875 
z
" id="Arial-ItalicMT-65"/>
      <path d="M 19.828125 71.578125 
L 29.390625 71.578125 
L 20.21875 27.59375 
Q 19.09375 22.125 19.09375 19.484375 
Q 19.09375 13.71875 23.625 10.203125 
Q 28.171875 6.6875 35.0625 6.6875 
Q 40.53125 6.6875 45.234375 9.203125 
Q 49.953125 11.71875 52.6875 16.59375 
Q 55.421875 21.484375 57.625 32.171875 
L 65.875 71.578125 
L 75.4375 71.578125 
L 66.703125 29.59375 
Q 64.453125 18.84375 60.78125 12.5625 
Q 57.125 6.296875 50.625 2.515625 
Q 44.140625 -1.265625 35.546875 -1.265625 
Q 27.4375 -1.265625 21.5 1.421875 
Q 15.578125 4.109375 12.625 8.84375 
Q 9.671875 13.578125 9.671875 19.578125 
Q 9.671875 23.34375 11.671875 32.515625 
z
" id="Arial-ItalicMT-85"/>
     </defs>
     <g transform="translate(16.195312 190.660719)rotate(-90)scale(0.1 -0.1)">
      <use xlink:href="#Arial-ItalicMT-82"/>
      <use x="72.216797" xlink:href="#Arial-ItalicMT-101"/>
      <use x="127.832031" xlink:href="#Arial-ItalicMT-108"/>
      <use x="150.048828" xlink:href="#Arial-ItalicMT-97"/>
      <use x="205.664062" xlink:href="#Arial-ItalicMT-116"/>
      <use x="233.447266" xlink:href="#Arial-ItalicMT-105"/>
      <use x="255.664062" xlink:href="#Arial-ItalicMT-118"/>
      <use x="305.664062" xlink:href="#Arial-ItalicMT-101"/>
      <use x="361.279297" xlink:href="#Arial-ItalicMT-32"/>
      <use x="389.0625" xlink:href="#Arial-ItalicMT-84"/>
      <use x="442.771484" xlink:href="#Arial-ItalicMT-114"/>
      <use x="476.072266" xlink:href="#Arial-ItalicMT-97"/>
      <use x="531.6875" xlink:href="#Arial-ItalicMT-110"/>
      <use x="587.302734" xlink:href="#Arial-ItalicMT-115"/>
      <use x="637.302734" xlink:href="#Arial-ItalicMT-109"/>
      <use x="720.603516" xlink:href="#Arial-ItalicMT-105"/>
      <use x="742.820312" xlink:href="#Arial-ItalicMT-115"/>
      <use x="792.820312" xlink:href="#Arial-ItalicMT-115"/>
      <use x="842.820312" xlink:href="#Arial-ItalicMT-105"/>
      <use x="865.037109" xlink:href="#Arial-ItalicMT-111"/>
      <use x="920.652344" xlink:href="#Arial-ItalicMT-110"/>
      <use x="976.267578" xlink:href="#Arial-ItalicMT-47"/>
      <use x="1004.050781" xlink:href="#Arial-ItalicMT-80"/>
      <use x="1070.75" xlink:href="#Arial-ItalicMT-111"/>
      <use x="1126.365234" xlink:href="#Arial-ItalicMT-119"/>
      <use x="1198.582031" xlink:href="#Arial-ItalicMT-101"/>
      <use x="1254.197266" xlink:href="#Arial-ItalicMT-114"/>
      <use x="1287.498047" xlink:href="#Arial-ItalicMT-32"/>
      <use x="1315.28125" xlink:href="#Arial-ItalicMT-40"/>
      <use x="1348.582031" xlink:href="#Arial-ItalicMT-65"/>
      <use x="1415.28125" xlink:href="#Arial-ItalicMT-85"/>
      <use x="1487.498047" xlink:href="#Arial-ItalicMT-41"/>
     </g>
    </g>
   </g>
   <g id="line2d_12">
    <path clip-path="url(#p3d386d7ce1)" d="M 55.374545 193.693091 
L 298.865455 193.693091 
L 298.865455 193.693091 
" style="fill:none;stroke:#808080;stroke-linecap:square;stroke-width:1.5;"/>
   </g>
   <g id="line2d_13">
    <path clip-path="url(#p3d386d7ce1)" d="M 219.122182 193.692205 
L 219.730909 193.688528 
L 220.339636 193.665475 
L 220.948364 193.485361 
L 221.557091 191.523941 
L 222.165818 166.067615 
L 222.774545 78.340299 
L 223.383273 41.063018 
L 223.992 39.912725 
L 224.600727 38.584682 
L 225.209455 37.49526 
L 225.818182 37.746071 
L 226.426909 38.055387 
L 227.035636 38.333871 
L 227.644364 37.989444 
L 228.253091 37.40007 
L 228.861818 37.53828 
L 229.470545 38.62722 
L 230.079273 39.548052 
L 230.688 39.825433 
L 231.296727 39.782735 
L 231.905455 39.078705 
L 232.514182 38.098877 
L 233.122909 37.963514 
L 233.731636 38.823625 
L 234.340364 39.969337 
L 234.949091 40.111185 
L 235.557818 39.483382 
L 236.166545 38.205304 
L 236.775273 37.083948 
L 237.384 37.257901 
L 237.992727 37.764413 
L 238.601455 37.636958 
L 239.210182 37.510766 
L 239.818909 37.408289 
L 240.427636 37.582713 
L 241.036364 38.000359 
L 241.645091 38.202778 
L 242.253818 38.154857 
L 242.862545 38.288015 
L 243.471273 39.143696 
L 244.08 40.079241 
L 244.688727 40.413385 
L 245.297455 39.575726 
L 245.906182 38.459752 
L 246.514909 37.831148 
L 247.123636 38.76986 
L 247.732364 40.01804 
L 248.341091 39.595181 
L 248.949818 38.912029 
L 249.558545 38.135562 
L 250.167273 37.65498 
L 250.776 37.453674 
L 251.384727 37.728831 
L 251.993455 38.663594 
L 252.602182 101.698413 
L 253.210909 149.583451 
L 253.819636 188.522399 
L 254.428364 192.946929 
L 255.037091 193.572908 
L 255.645818 193.668853 
L 256.254545 193.687287 
L 256.863273 193.691518 
" style="fill:none;stroke:#ef553b;stroke-linecap:square;stroke-width:1.5;"/>
   </g>
   <g id="line2d_14">
    <path clip-path="url(#p3d386d7ce1)" d="M 175.293818 193.689695 
L 175.902545 193.644382 
L 176.511273 192.481578 
L 177.12 160.242913 
L 177.728727 62.571551 
L 178.337455 41.106188 
L 178.946182 39.58617 
L 179.554909 38.239783 
L 180.163636 38.155177 
L 180.772364 38.805282 
L 181.381091 39.700344 
L 181.989818 39.204737 
L 182.598545 38.989038 
L 183.207273 39.713785 
L 183.816 39.6684 
L 184.424727 38.687149 
L 185.033455 39.467565 
L 185.642182 40.274863 
L 186.250909 39.536986 
L 186.859636 38.016176 
L 187.468364 37.939629 
L 188.077091 38.646665 
L 188.685818 39.304207 
L 189.294545 39.134685 
L 189.903273 39.088036 
L 190.512 39.054349 
L 191.120727 38.564755 
L 191.729455 38.278203 
L 192.338182 38.633224 
L 192.946909 39.119339 
L 193.555636 39.344531 
L 194.164364 38.938431 
L 194.773091 37.911323 
L 195.381818 38.3723 
L 195.990545 38.902377 
L 196.599273 39.109857 
L 197.208 38.59243 
L 197.816727 38.400926 
L 198.425455 38.336086 
L 199.034182 38.506872 
L 199.642909 38.900483 
L 200.251636 39.231619 
L 200.860364 39.617633 
L 201.469091 39.15429 
L 202.077818 38.559854 
L 202.686545 38.301607 
L 203.295273 38.482205 
L 203.904 38.904432 
L 204.512727 40.723653 
L 205.121455 49.792092 
L 205.730182 53.979273 
L 206.338909 134.534229 
L 206.947636 188.199039 
L 207.556364 193.284658 
L 208.165091 193.653387 
L 208.773818 193.687423 
L 209.382545 193.692114 
" style="fill:none;stroke:#00cc96;stroke-linecap:square;stroke-width:1.5;"/>
   </g>
   <g id="line2d_15">
    <path clip-path="url(#p3d386d7ce1)" d="M 55.374545 193.693091 
L 153.988364 193.693091 
L 154.597091 193.266118 
L 157.640727 192.886586 
L 159.466909 192.333103 
L 160.684364 191.763805 
L 161.901818 190.862417 
L 163.119273 189.486615 
L 163.728 188.664297 
L 164.945455 186.402921 
L 166.162909 183.398295 
L 167.380364 179.144378 
L 168.597818 173.672797 
L 169.815273 166.556579 
L 171.032727 157.843165 
L 172.250182 147.121396 
L 173.467636 134.96057 
L 175.293818 113.232384 
L 179.554909 57.346351 
L 180.163636 50.941754 
L 181.381091 40.868352 
L 181.989818 37.500009 
L 182.598545 35.649792 
L 183.816 35.554909 
L 184.424727 37.310243 
L 185.033455 40.36231 
L 185.642182 44.948317 
L 187.468364 61.726778 
L 189.294545 80.640105 
L 190.512 90.840017 
L 191.729455 99.347852 
L 192.946909 107.191505 
L 194.773091 116.205382 
L 195.381818 118.846289 
L 195.990545 120.38023 
L 197.208 124.222988 
L 197.816727 125.756928 
L 198.425455 126.942964 
L 199.034182 128.777367 
L 199.642909 130.216425 
L 201.469091 133.442444 
L 202.077818 135.29266 
L 202.686545 136.431255 
L 203.295273 137.03218 
L 203.904 138.724259 
L 205.730182 142.725155 
L 208.165091 149.477655 
L 209.991273 154.933423 
L 211.208727 158.222697 
L 212.426182 160.990115 
L 213.643636 164.20032 
L 214.252364 165.133335 
L 215.469818 168.122147 
L 218.513455 173.403962 
L 219.730909 175.143482 
L 220.339636 175.617897 
L 220.948364 176.614167 
L 221.557091 177.230906 
L 222.165818 178.369501 
L 222.774545 178.527639 
L 225.209455 180.836457 
L 228.861818 183.366668 
L 230.079273 183.682944 
L 230.688 184.299683 
L 231.296727 184.347124 
L 231.905455 184.86898 
L 233.122909 185.311767 
L 233.731636 185.770368 
L 234.340364 185.912692 
L 234.949091 186.228969 
L 235.557818 186.402921 
L 237.992727 187.557329 
L 238.601455 187.841978 
L 240.427636 188.379648 
L 241.036364 188.569414 
L 241.645091 188.5536 
L 242.253818 189.012201 
L 247.123636 190.214051 
L 247.732364 190.166609 
L 248.949818 190.546141 
L 251.384727 191.004742 
L 251.993455 190.9573 
L 252.602182 191.241949 
L 255.645818 191.447529 
L 256.254545 191.574039 
L 256.863273 191.542412 
L 257.472 191.716364 
L 259.906909 191.811247 
L 261.124364 191.937757 
L 272.690182 192.491241 
L 273.907636 192.427985 
L 274.516364 192.57031 
L 275.125091 192.459613 
L 278.168727 192.586124 
L 290.343273 192.617751 
L 290.952 192.728448 
L 291.560727 192.601937 
L 292.169455 192.728448 
L 292.778182 192.665193 
L 293.386909 192.744262 
L 293.995636 192.617751 
L 298.865455 192.681007 
L 298.865455 192.681007 
" style="fill:none;stroke:#000000;stroke-linecap:square;stroke-width:1.5;"/>
   </g>
   <g id="patch_3">
    <path d="M 43.2 201.6 
L 43.2 27.648 
" style="fill:none;stroke:#000000;stroke-linecap:square;stroke-linejoin:miter;stroke-width:0.8;"/>
   </g>
   <g id="patch_4">
    <path d="M 311.04 201.6 
L 311.04 27.648 
" style="fill:none;stroke:#000000;stroke-linecap:square;stroke-linejoin:miter;stroke-width:0.8;"/>
   </g>
   <g id="patch_5">
    <path d="M 43.2 201.6 
L 311.04 201.6 
" style="fill:none;stroke:#000000;stroke-linecap:square;stroke-linejoin:miter;stroke-width:0.8;"/>
   </g>
   <g id="patch_6">
    <path d="M 43.2 27.648 
L 311.04 27.648 
" style="fill:none;stroke:#000000;stroke-linecap:square;stroke-linejoin:miter;stroke-width:0.8;"/>
   </g>
   <g id="legend_1">
    <g id="patch_7">
     <path d="M 50.2 99.237688 
L 163.351562 99.237688 
Q 165.351562 99.237688 165.351562 97.237688 
L 165.351562 34.648 
Q 165.351562 32.648 163.351562 32.648 
L 50.2 32.648 
Q 48.2 32.648 48.2 34.648 
L 48.2 97.237688 
Q 48.2 99.237688 50.2 99.237688 
z
" style="fill:#ffffff;opacity:0.8;stroke:#cccccc;stroke-linejoin:miter;"/>
    </g>
    <g id="line2d_16">
     <path d="M 52.2 46.588 
L 72.2 46.588 
" style="fill:none;stroke:#ef553b;stroke-linecap:square;stroke-width:1.5;"/>
    </g>
    <g id="line2d_17"/>
    <g id="text_14">
     <!-- tdTomato Channel -->
     <defs>
      <path d="M 25.78125 7.859375 
L 27.046875 0.09375 
Q 23.34375 -0.6875 20.40625 -0.6875 
Q 15.625 -0.6875 12.984375 0.828125 
Q 10.359375 2.34375 9.28125 4.8125 
Q 8.203125 7.28125 8.203125 15.1875 
L 8.203125 45.015625 
L 1.765625 45.015625 
L 1.765625 51.859375 
L 8.203125 51.859375 
L 8.203125 64.703125 
L 16.9375 69.96875 
L 16.9375 51.859375 
L 25.78125 51.859375 
L 25.78125 45.015625 
L 16.9375 45.015625 
L 16.9375 14.703125 
Q 16.9375 10.9375 17.40625 9.859375 
Q 17.875 8.796875 18.921875 8.15625 
Q 19.96875 7.515625 21.921875 7.515625 
Q 23.390625 7.515625 25.78125 7.859375 
z
" id="ArialMT-116"/>
      <path d="M 40.234375 0 
L 40.234375 6.546875 
Q 35.296875 -1.171875 25.734375 -1.171875 
Q 19.53125 -1.171875 14.328125 2.25 
Q 9.125 5.671875 6.265625 11.796875 
Q 3.421875 17.921875 3.421875 25.875 
Q 3.421875 33.640625 6 39.96875 
Q 8.59375 46.296875 13.765625 49.65625 
Q 18.953125 53.03125 25.34375 53.03125 
Q 30.03125 53.03125 33.6875 51.046875 
Q 37.359375 49.078125 39.65625 45.90625 
L 39.65625 71.578125 
L 48.390625 71.578125 
L 48.390625 0 
z
M 12.453125 25.875 
Q 12.453125 15.921875 16.640625 10.984375 
Q 20.84375 6.0625 26.5625 6.0625 
Q 32.328125 6.0625 36.34375 10.765625 
Q 40.375 15.484375 40.375 25.140625 
Q 40.375 35.796875 36.265625 40.765625 
Q 32.171875 45.75 26.171875 45.75 
Q 20.3125 45.75 16.375 40.96875 
Q 12.453125 36.1875 12.453125 25.875 
z
" id="ArialMT-100"/>
      <path d="M 25.921875 0 
L 25.921875 63.140625 
L 2.34375 63.140625 
L 2.34375 71.578125 
L 59.078125 71.578125 
L 59.078125 63.140625 
L 35.40625 63.140625 
L 35.40625 0 
z
" id="ArialMT-84"/>
      <path d="M 3.328125 25.921875 
Q 3.328125 40.328125 11.328125 47.265625 
Q 18.015625 53.03125 27.640625 53.03125 
Q 38.328125 53.03125 45.109375 46.015625 
Q 51.90625 39.015625 51.90625 26.65625 
Q 51.90625 16.65625 48.90625 10.90625 
Q 45.90625 5.171875 40.15625 2 
Q 34.421875 -1.171875 27.640625 -1.171875 
Q 16.75 -1.171875 10.03125 5.8125 
Q 3.328125 12.796875 3.328125 25.921875 
z
M 12.359375 25.921875 
Q 12.359375 15.96875 16.703125 11.015625 
Q 21.046875 6.0625 27.640625 6.0625 
Q 34.1875 6.0625 38.53125 11.03125 
Q 42.875 16.015625 42.875 26.21875 
Q 42.875 35.84375 38.5 40.796875 
Q 34.125 45.75 27.640625 45.75 
Q 21.046875 45.75 16.703125 40.8125 
Q 12.359375 35.890625 12.359375 25.921875 
z
" id="ArialMT-111"/>
      <path d="M 6.59375 0 
L 6.59375 51.859375 
L 14.453125 51.859375 
L 14.453125 44.578125 
Q 16.890625 48.390625 20.9375 50.703125 
Q 25 53.03125 30.171875 53.03125 
Q 35.9375 53.03125 39.625 50.640625 
Q 43.3125 48.25 44.828125 43.953125 
Q 50.984375 53.03125 60.84375 53.03125 
Q 68.5625 53.03125 72.703125 48.75 
Q 76.859375 44.484375 76.859375 35.59375 
L 76.859375 0 
L 68.109375 0 
L 68.109375 32.671875 
Q 68.109375 37.9375 67.25 40.25 
Q 66.40625 42.578125 64.15625 43.984375 
Q 61.921875 45.40625 58.890625 45.40625 
Q 53.421875 45.40625 49.796875 41.765625 
Q 46.1875 38.140625 46.1875 30.125 
L 46.1875 0 
L 37.40625 0 
L 37.40625 33.6875 
Q 37.40625 39.546875 35.25 42.46875 
Q 33.109375 45.40625 28.21875 45.40625 
Q 24.515625 45.40625 21.359375 43.453125 
Q 18.21875 41.5 16.796875 37.734375 
Q 15.375 33.984375 15.375 26.90625 
L 15.375 0 
z
" id="ArialMT-109"/>
      <path d="M 40.4375 6.390625 
Q 35.546875 2.25 31.03125 0.53125 
Q 26.515625 -1.171875 21.34375 -1.171875 
Q 12.796875 -1.171875 8.203125 3 
Q 3.609375 7.171875 3.609375 13.671875 
Q 3.609375 17.484375 5.34375 20.625 
Q 7.078125 23.78125 9.890625 25.6875 
Q 12.703125 27.59375 16.21875 28.5625 
Q 18.796875 29.25 24.03125 29.890625 
Q 34.671875 31.15625 39.703125 32.90625 
Q 39.75 34.71875 39.75 35.203125 
Q 39.75 40.578125 37.25 42.78125 
Q 33.890625 45.75 27.25 45.75 
Q 21.046875 45.75 18.09375 43.578125 
Q 15.140625 41.40625 13.71875 35.890625 
L 5.125 37.0625 
Q 6.296875 42.578125 8.984375 45.96875 
Q 11.671875 49.359375 16.75 51.1875 
Q 21.828125 53.03125 28.515625 53.03125 
Q 35.15625 53.03125 39.296875 51.46875 
Q 43.453125 49.90625 45.40625 47.53125 
Q 47.359375 45.171875 48.140625 41.546875 
Q 48.578125 39.3125 48.578125 33.453125 
L 48.578125 21.734375 
Q 48.578125 9.46875 49.140625 6.21875 
Q 49.703125 2.984375 51.375 0 
L 42.1875 0 
Q 40.828125 2.734375 40.4375 6.390625 
z
M 39.703125 26.03125 
Q 34.90625 24.078125 25.34375 22.703125 
Q 19.921875 21.921875 17.671875 20.9375 
Q 15.4375 19.96875 14.203125 18.09375 
Q 12.984375 16.21875 12.984375 13.921875 
Q 12.984375 10.40625 15.640625 8.0625 
Q 18.3125 5.71875 23.4375 5.71875 
Q 28.515625 5.71875 32.46875 7.9375 
Q 36.421875 10.15625 38.28125 14.015625 
Q 39.703125 17 39.703125 22.796875 
z
" id="ArialMT-97"/>
      <path id="ArialMT-32"/>
      <path d="M 58.796875 25.09375 
L 68.265625 22.703125 
Q 65.28125 11.03125 57.546875 4.90625 
Q 49.8125 -1.21875 38.625 -1.21875 
Q 27.046875 -1.21875 19.796875 3.484375 
Q 12.546875 8.203125 8.765625 17.140625 
Q 4.984375 26.078125 4.984375 36.328125 
Q 4.984375 47.515625 9.25 55.828125 
Q 13.53125 64.15625 21.40625 68.46875 
Q 29.296875 72.796875 38.765625 72.796875 
Q 49.515625 72.796875 56.828125 67.328125 
Q 64.15625 61.859375 67.046875 51.953125 
L 57.71875 49.75 
Q 55.21875 57.5625 50.484375 61.125 
Q 45.75 64.703125 38.578125 64.703125 
Q 30.328125 64.703125 24.78125 60.734375 
Q 19.234375 56.78125 16.984375 50.109375 
Q 14.75 43.453125 14.75 36.375 
Q 14.75 27.25 17.40625 20.4375 
Q 20.0625 13.625 25.671875 10.25 
Q 31.296875 6.890625 37.84375 6.890625 
Q 45.796875 6.890625 51.3125 11.46875 
Q 56.84375 16.0625 58.796875 25.09375 
z
" id="ArialMT-67"/>
      <path d="M 6.59375 0 
L 6.59375 71.578125 
L 15.375 71.578125 
L 15.375 45.90625 
Q 21.53125 53.03125 30.90625 53.03125 
Q 36.671875 53.03125 40.921875 50.75 
Q 45.171875 48.484375 47 44.484375 
Q 48.828125 40.484375 48.828125 32.859375 
L 48.828125 0 
L 40.046875 0 
L 40.046875 32.859375 
Q 40.046875 39.453125 37.1875 42.453125 
Q 34.328125 45.453125 29.109375 45.453125 
Q 25.203125 45.453125 21.75 43.421875 
Q 18.3125 41.40625 16.84375 37.9375 
Q 15.375 34.46875 15.375 28.375 
L 15.375 0 
z
" id="ArialMT-104"/>
      <path d="M 6.59375 0 
L 6.59375 51.859375 
L 14.5 51.859375 
L 14.5 44.484375 
Q 20.21875 53.03125 31 53.03125 
Q 35.6875 53.03125 39.625 51.34375 
Q 43.5625 49.65625 45.515625 46.921875 
Q 47.46875 44.1875 48.25 40.4375 
Q 48.734375 37.984375 48.734375 31.890625 
L 48.734375 0 
L 39.9375 0 
L 39.9375 31.546875 
Q 39.9375 36.921875 38.90625 39.578125 
Q 37.890625 42.234375 35.28125 43.8125 
Q 32.671875 45.40625 29.15625 45.40625 
Q 23.53125 45.40625 19.453125 41.84375 
Q 15.375 38.28125 15.375 28.328125 
L 15.375 0 
z
" id="ArialMT-110"/>
      <path d="M 42.09375 16.703125 
L 51.171875 15.578125 
Q 49.03125 7.625 43.21875 3.21875 
Q 37.40625 -1.171875 28.375 -1.171875 
Q 17 -1.171875 10.328125 5.828125 
Q 3.65625 12.84375 3.65625 25.484375 
Q 3.65625 38.578125 10.390625 45.796875 
Q 17.140625 53.03125 27.875 53.03125 
Q 38.28125 53.03125 44.875 45.953125 
Q 51.46875 38.875 51.46875 26.03125 
Q 51.46875 25.25 51.421875 23.6875 
L 12.75 23.6875 
Q 13.234375 15.140625 17.578125 10.59375 
Q 21.921875 6.0625 28.421875 6.0625 
Q 33.25 6.0625 36.671875 8.59375 
Q 40.09375 11.140625 42.09375 16.703125 
z
M 13.234375 30.90625 
L 42.1875 30.90625 
Q 41.609375 37.453125 38.875 40.71875 
Q 34.671875 45.796875 27.984375 45.796875 
Q 21.921875 45.796875 17.796875 41.75 
Q 13.671875 37.703125 13.234375 30.90625 
z
" id="ArialMT-101"/>
      <path d="M 6.390625 0 
L 6.390625 71.578125 
L 15.1875 71.578125 
L 15.1875 0 
z
" id="ArialMT-108"/>
     </defs>
     <g transform="translate(80.2 43.805813)scale(0.1 -0.1)">
      <use xlink:href="#ArialMT-116"/>
      <use x="27.783203" xlink:href="#ArialMT-100"/>
      <use x="83.398438" xlink:href="#ArialMT-84"/>
      <use x="133.357422" xlink:href="#ArialMT-111"/>
      <use x="188.972656" xlink:href="#ArialMT-109"/>
      <use x="272.273438" xlink:href="#ArialMT-97"/>
      <use x="327.888672" xlink:href="#ArialMT-116"/>
      <use x="355.671875" xlink:href="#ArialMT-111"/>
      <use x="411.287109" xlink:href="#ArialMT-32"/>
      <use x="439.070312" xlink:href="#ArialMT-67"/>
      <use x="511.287109" xlink:href="#ArialMT-104"/>
      <use x="566.902344" xlink:href="#ArialMT-97"/>
      <use x="622.517578" xlink:href="#ArialMT-110"/>
      <use x="678.132812" xlink:href="#ArialMT-110"/>
      <use x="733.748047" xlink:href="#ArialMT-101"/>
      <use x="789.363281" xlink:href="#ArialMT-108"/>
     </g>
     <!-- Emission Filter -->
     <defs>
      <path d="M 7.90625 0 
L 7.90625 71.578125 
L 59.671875 71.578125 
L 59.671875 63.140625 
L 17.390625 63.140625 
L 17.390625 41.21875 
L 56.984375 41.21875 
L 56.984375 32.8125 
L 17.390625 32.8125 
L 17.390625 8.453125 
L 61.328125 8.453125 
L 61.328125 0 
z
" id="ArialMT-69"/>
      <path d="M 6.640625 61.46875 
L 6.640625 71.578125 
L 15.4375 71.578125 
L 15.4375 61.46875 
z
M 6.640625 0 
L 6.640625 51.859375 
L 15.4375 51.859375 
L 15.4375 0 
z
" id="ArialMT-105"/>
      <path d="M 3.078125 15.484375 
L 11.765625 16.84375 
Q 12.5 11.625 15.84375 8.84375 
Q 19.1875 6.0625 25.203125 6.0625 
Q 31.25 6.0625 34.171875 8.515625 
Q 37.109375 10.984375 37.109375 14.3125 
Q 37.109375 17.28125 34.515625 19 
Q 32.71875 20.171875 25.53125 21.96875 
Q 15.875 24.421875 12.140625 26.203125 
Q 8.40625 27.984375 6.46875 31.125 
Q 4.546875 34.28125 4.546875 38.09375 
Q 4.546875 41.546875 6.125 44.5 
Q 7.71875 47.46875 10.453125 49.421875 
Q 12.5 50.921875 16.03125 51.96875 
Q 19.578125 53.03125 23.640625 53.03125 
Q 29.734375 53.03125 34.34375 51.265625 
Q 38.96875 49.515625 41.15625 46.5 
Q 43.359375 43.5 44.1875 38.484375 
L 35.59375 37.3125 
Q 35.015625 41.3125 32.203125 43.546875 
Q 29.390625 45.796875 24.265625 45.796875 
Q 18.21875 45.796875 15.625 43.796875 
Q 13.03125 41.796875 13.03125 39.109375 
Q 13.03125 37.40625 14.109375 36.03125 
Q 15.1875 34.625 17.484375 33.6875 
Q 18.796875 33.203125 25.25 31.453125 
Q 34.578125 28.953125 38.25 27.359375 
Q 41.9375 25.78125 44.03125 22.75 
Q 46.140625 19.734375 46.140625 15.234375 
Q 46.140625 10.84375 43.578125 6.953125 
Q 41.015625 3.078125 36.171875 0.953125 
Q 31.34375 -1.171875 25.25 -1.171875 
Q 15.140625 -1.171875 9.84375 3.03125 
Q 4.546875 7.234375 3.078125 15.484375 
z
" id="ArialMT-115"/>
      <path d="M 8.203125 0 
L 8.203125 71.578125 
L 56.5 71.578125 
L 56.5 63.140625 
L 17.671875 63.140625 
L 17.671875 40.96875 
L 51.265625 40.96875 
L 51.265625 32.515625 
L 17.671875 32.515625 
L 17.671875 0 
z
" id="ArialMT-70"/>
      <path d="M 6.5 0 
L 6.5 51.859375 
L 14.40625 51.859375 
L 14.40625 44 
Q 17.4375 49.515625 20 51.265625 
Q 22.5625 53.03125 25.640625 53.03125 
Q 30.078125 53.03125 34.671875 50.203125 
L 31.640625 42.046875 
Q 28.421875 43.953125 25.203125 43.953125 
Q 22.3125 43.953125 20.015625 42.21875 
Q 17.71875 40.484375 16.75 37.40625 
Q 15.28125 32.71875 15.28125 27.15625 
L 15.28125 0 
z
" id="ArialMT-114"/>
     </defs>
     <g transform="translate(80.2 54.382688)scale(0.1 -0.1)">
      <use xlink:href="#ArialMT-69"/>
      <use x="66.699219" xlink:href="#ArialMT-109"/>
      <use x="150" xlink:href="#ArialMT-105"/>
      <use x="172.216797" xlink:href="#ArialMT-115"/>
      <use x="222.216797" xlink:href="#ArialMT-115"/>
      <use x="272.216797" xlink:href="#ArialMT-105"/>
      <use x="294.433594" xlink:href="#ArialMT-111"/>
      <use x="350.048828" xlink:href="#ArialMT-110"/>
      <use x="405.664062" xlink:href="#ArialMT-32"/>
      <use x="433.447266" xlink:href="#ArialMT-70"/>
      <use x="494.53125" xlink:href="#ArialMT-105"/>
      <use x="516.748047" xlink:href="#ArialMT-108"/>
      <use x="538.964844" xlink:href="#ArialMT-116"/>
      <use x="566.748047" xlink:href="#ArialMT-101"/>
      <use x="622.363281" xlink:href="#ArialMT-114"/>
     </g>
    </g>
    <g id="line2d_18">
     <path d="M 52.2 71.310188 
L 72.2 71.310188 
" style="fill:none;stroke:#00cc96;stroke-linecap:square;stroke-width:1.5;"/>
    </g>
    <g id="line2d_19"/>
    <g id="text_15">
     <!-- GCaMP Channel -->
     <defs>
      <path d="M 41.21875 28.078125 
L 41.21875 36.46875 
L 71.53125 36.53125 
L 71.53125 9.96875 
Q 64.546875 4.390625 57.125 1.578125 
Q 49.703125 -1.21875 41.890625 -1.21875 
Q 31.34375 -1.21875 22.71875 3.296875 
Q 14.109375 7.8125 9.71875 16.359375 
Q 5.328125 24.90625 5.328125 35.453125 
Q 5.328125 45.90625 9.6875 54.953125 
Q 14.0625 64.015625 22.265625 68.40625 
Q 30.46875 72.796875 41.15625 72.796875 
Q 48.921875 72.796875 55.1875 70.28125 
Q 61.46875 67.78125 65.03125 63.28125 
Q 68.609375 58.796875 70.453125 51.5625 
L 61.921875 49.21875 
Q 60.296875 54.6875 57.90625 57.8125 
Q 55.515625 60.9375 51.0625 62.8125 
Q 46.625 64.703125 41.21875 64.703125 
Q 34.71875 64.703125 29.984375 62.71875 
Q 25.25 60.75 22.34375 57.515625 
Q 19.4375 54.296875 17.828125 50.4375 
Q 15.09375 43.796875 15.09375 36.03125 
Q 15.09375 26.46875 18.390625 20.015625 
Q 21.6875 13.578125 27.984375 10.453125 
Q 34.28125 7.328125 41.359375 7.328125 
Q 47.515625 7.328125 53.375 9.6875 
Q 59.234375 12.0625 62.25 14.75 
L 62.25 28.078125 
z
" id="ArialMT-71"/>
      <path d="M 7.421875 0 
L 7.421875 71.578125 
L 21.6875 71.578125 
L 38.625 20.90625 
Q 40.96875 13.8125 42.046875 10.296875 
Q 43.265625 14.203125 45.84375 21.78125 
L 62.984375 71.578125 
L 75.734375 71.578125 
L 75.734375 0 
L 66.609375 0 
L 66.609375 59.90625 
L 45.796875 0 
L 37.25 0 
L 16.546875 60.9375 
L 16.546875 0 
z
" id="ArialMT-77"/>
      <path d="M 7.71875 0 
L 7.71875 71.578125 
L 34.71875 71.578125 
Q 41.84375 71.578125 45.609375 70.90625 
Q 50.875 70.015625 54.4375 67.546875 
Q 58.015625 65.09375 60.1875 60.640625 
Q 62.359375 56.203125 62.359375 50.875 
Q 62.359375 41.75 56.546875 35.421875 
Q 50.734375 29.109375 35.546875 29.109375 
L 17.1875 29.109375 
L 17.1875 0 
z
M 17.1875 37.546875 
L 35.6875 37.546875 
Q 44.875 37.546875 48.734375 40.96875 
Q 52.59375 44.390625 52.59375 50.59375 
Q 52.59375 55.078125 50.3125 58.265625 
Q 48.046875 61.46875 44.34375 62.5 
Q 41.9375 63.140625 35.5 63.140625 
L 17.1875 63.140625 
z
" id="ArialMT-80"/>
     </defs>
     <g transform="translate(80.2 68.528)scale(0.1 -0.1)">
      <use xlink:href="#ArialMT-71"/>
      <use x="77.783203" xlink:href="#ArialMT-67"/>
      <use x="150" xlink:href="#ArialMT-97"/>
      <use x="205.615234" xlink:href="#ArialMT-77"/>
      <use x="288.916016" xlink:href="#ArialMT-80"/>
      <use x="353.865234" xlink:href="#ArialMT-32"/>
      <use x="381.648438" xlink:href="#ArialMT-67"/>
      <use x="453.865234" xlink:href="#ArialMT-104"/>
      <use x="509.480469" xlink:href="#ArialMT-97"/>
      <use x="565.095703" xlink:href="#ArialMT-110"/>
      <use x="620.710938" xlink:href="#ArialMT-110"/>
      <use x="676.326172" xlink:href="#ArialMT-101"/>
      <use x="731.941406" xlink:href="#ArialMT-108"/>
     </g>
     <!-- Emission Filter -->
     <g transform="translate(80.2 79.104875)scale(0.1 -0.1)">
      <use xlink:href="#ArialMT-69"/>
      <use x="66.699219" xlink:href="#ArialMT-109"/>
      <use x="150" xlink:href="#ArialMT-105"/>
      <use x="172.216797" xlink:href="#ArialMT-115"/>
      <use x="222.216797" xlink:href="#ArialMT-115"/>
      <use x="272.216797" xlink:href="#ArialMT-105"/>
      <use x="294.433594" xlink:href="#ArialMT-111"/>
      <use x="350.048828" xlink:href="#ArialMT-110"/>
      <use x="405.664062" xlink:href="#ArialMT-32"/>
      <use x="433.447266" xlink:href="#ArialMT-70"/>
      <use x="494.53125" xlink:href="#ArialMT-105"/>
      <use x="516.748047" xlink:href="#ArialMT-108"/>
      <use x="538.964844" xlink:href="#ArialMT-116"/>
      <use x="566.748047" xlink:href="#ArialMT-101"/>
      <use x="622.363281" xlink:href="#ArialMT-114"/>
     </g>
    </g>
    <g id="line2d_20">
     <path d="M 52.2 89.750188 
L 72.2 89.750188 
" style="fill:none;stroke:#000000;stroke-linecap:square;stroke-width:1.5;"/>
    </g>
    <g id="line2d_21"/>
    <g id="text_16">
     <!-- GCaMP Emission -->
     <g transform="translate(80.2 93.250188)scale(0.1 -0.1)">
      <use xlink:href="#ArialMT-71"/>
      <use x="77.783203" xlink:href="#ArialMT-67"/>
      <use x="150" xlink:href="#ArialMT-97"/>
      <use x="205.615234" xlink:href="#ArialMT-77"/>
      <use x="288.916016" xlink:href="#ArialMT-80"/>
      <use x="353.865234" xlink:href="#ArialMT-32"/>
      <use x="381.648438" xlink:href="#ArialMT-69"/>
      <use x="448.347656" xlink:href="#ArialMT-109"/>
      <use x="531.648438" xlink:href="#ArialMT-105"/>
      <use x="553.865234" xlink:href="#ArialMT-115"/>
      <use x="603.865234" xlink:href="#ArialMT-115"/>
      <use x="653.865234" xlink:href="#ArialMT-105"/>
      <use x="676.082031" xlink:href="#ArialMT-111"/>
      <use x="731.697266" xlink:href="#ArialMT-110"/>
     </g>
    </g>
   </g>
  </g>
 </g>
 <defs>
  <clipPath id="p3d386d7ce1">
   <rect height="173.952" width="267.84" x="43.2" y="27.648"/>
  </clipPath>
 </defs>
</svg>
