<!DOCTYPE svg PUBLIC "-//W3C//DTD SVG 1.1//EN" "http://www.w3.org/Graphics/SVG/1.1/DTD/svg11.dtd">
<!-- Created with matplotlib (https://matplotlib.org/) -->
<svg xmlns="http://www.w3.org/2000/svg" xmlns:xlink="http://www.w3.org/1999/xlink" height="209.092187pt" version="1.1" viewBox="0 0 508.404479 209.092187" width="508.404479pt">
 <defs>
  <style type="text/css">
*{stroke-linecap:butt;stroke-linejoin:round;}
  </style>
 </defs>
 <g id="figure_1">
  <g id="patch_1">
   <path d="M 0 209.092187  L 508.404479 209.092187  L 508.404479 0  L 0 0  z " style="fill:#ffffff;"/>
  </g>
  <g id="axes_1">
   <g id="patch_2">
    <path d="M 41.454688 185.6  L 384.354687 185.6  L 384.354687 7.2  L 41.454688 7.2  z " style="fill:#ffffff;"/>
   </g>
   <g id="patch_3">
    <path clip-path="url(#p448779f557)" d="M 46.353259 185.6  L 65.947545 185.6  L 65.947545 72.870479  L 46.353259 72.870479  z " style="fill:#dd624d;"/>
   </g>
   <g id="patch_4">
    <path clip-path="url(#p448779f557)" d="M 95.338973 185.6  L 114.933259 185.6  L 114.933259 70.174115  L 95.338973 70.174115  z " style="fill:#dd624d;"/>
   </g>
   <g id="patch_5">
    <path clip-path="url(#p448779f557)" d="M 144.324687 185.6  L 163.918973 185.6  L 163.918973 73.17321  L 144.324687 73.17321  z " style="fill:#dd624d;"/>
   </g>
   <g id="patch_6">
    <path clip-path="url(#p448779f557)" d="M 193.310402 185.6  L 212.904687 185.6  L 212.904687 71.627278  L 193.310402 71.627278  z " style="fill:#dd624d;"/>
   </g>
   <g id="patch_7">
    <path clip-path="url(#p448779f557)" d="M 242.296116 185.6  L 261.890402 185.6  L 261.890402 62.325014  L 242.296116 62.325014  z " style="fill:#dd624d;"/>
   </g>
   <g id="patch_8">
    <path clip-path="url(#p448779f557)" d="M 291.28183 185.6  L 310.876116 185.6  L 310.876116 71.304125  L 291.28183 71.304125  z " style="fill:#dd624d;"/>
   </g>
   <g id="patch_9">
    <path clip-path="url(#p448779f557)" d="M 340.267545 185.6  L 359.86183 185.6  L 359.86183 60.794047  L 340.267545 60.794047  z " style="fill:#dd624d;"/>
   </g>
   <g id="patch_10">
    <path clip-path="url(#p448779f557)" d="M 65.947545 185.6  L 85.54183 185.6  L 85.54183 47.962153  L 65.947545 47.962153  z " style="fill:#14b88c;"/>
   </g>
   <g id="patch_11">
    <path clip-path="url(#p448779f557)" d="M 114.933259 185.6  L 134.527545 185.6  L 134.527545 49.268806  L 114.933259 49.268806  z " style="fill:#14b88c;"/>
   </g>
   <g id="patch_12">
    <path clip-path="url(#p448779f557)" d="M 163.918973 185.6  L 183.513259 185.6  L 183.513259 46.993148  L 163.918973 46.993148  z " style="fill:#14b88c;"/>
   </g>
   <g id="patch_13">
    <path clip-path="url(#p448779f557)" d="M 212.904687 185.6  L 232.498973 185.6  L 232.498973 47.987346  L 212.904687 47.987346  z " style="fill:#14b88c;"/>
   </g>
   <g id="patch_14">
    <path clip-path="url(#p448779f557)" d="M 261.890402 185.6  L 281.484688 185.6  L 281.484688 46.85865  L 261.890402 46.85865  z " style="fill:#14b88c;"/>
   </g>
   <g id="patch_15">
    <path clip-path="url(#p448779f557)" d="M 310.876116 185.6  L 330.470402 185.6  L 330.470402 38.814422  L 310.876116 38.814422  z " style="fill:#14b88c;"/>
   </g>
   <g id="patch_16">
    <path clip-path="url(#p448779f557)" d="M 359.86183 185.6  L 379.456116 185.6  L 379.456116 46.969675  L 359.86183 46.969675  z " style="fill:#14b88c;"/>
   </g>
   <g id="matplotlib.axis_1">
    <g id="xtick_1">
     <g id="line2d_1">
      <defs>
       <path d="M 0 0  L 0 3.5  " id="269c4092" style="stroke:#000000;stroke-width:0.8;"/>
      </defs>
      <g>
       <use style="stroke:#000000;stroke-width:0.8;" x="65.947545" xlink:href="#269c4092" y="185.6"/>
      </g>
     </g>
     <g id="text_1">
      <!-- Day 1 -->
      <defs>
       <path d="M 7.71875 0  L 7.71875 71.578125  L 32.375 71.578125  Q 40.71875 71.578125 45.125 70.5625  Q 51.265625 69.140625 55.609375 65.4375  Q 61.28125 60.640625 64.078125 53.1875  Q 66.890625 45.75 66.890625 36.1875  Q 66.890625 28.03125 64.984375 21.734375  Q 63.09375 15.4375 60.109375 11.296875  Q 57.125 7.171875 53.578125 4.796875  Q 50.046875 2.4375 45.046875 1.21875  Q 40.046875 0 33.546875 0  z M 17.1875 8.453125  L 32.46875 8.453125  Q 39.546875 8.453125 43.578125 9.765625  Q 47.609375 11.078125 50 13.484375  Q 53.375 16.84375 55.25 22.53125  Q 57.125 28.21875 57.125 36.328125  Q 57.125 47.5625 53.4375 53.59375  Q 49.75 59.625 44.484375 61.671875  Q 40.671875 63.140625 32.234375 63.140625  L 17.1875 63.140625  z " id="8fe097c1"/>
       <path d="M 40.4375 6.390625  Q 35.546875 2.25 31.03125 0.53125  Q 26.515625 -1.171875 21.34375 -1.171875  Q 12.796875 -1.171875 8.203125 3  Q 3.609375 7.171875 3.609375 13.671875  Q 3.609375 17.484375 5.34375 20.625  Q 7.078125 23.78125 9.890625 25.6875  Q 12.703125 27.59375 16.21875 28.5625  Q 18.796875 29.25 24.03125 29.890625  Q 34.671875 31.15625 39.703125 32.90625  Q 39.75 34.71875 39.75 35.203125  Q 39.75 40.578125 37.25 42.78125  Q 33.890625 45.75 27.25 45.75  Q 21.046875 45.75 18.09375 43.578125  Q 15.140625 41.40625 13.71875 35.890625  L 5.125 37.0625  Q 6.296875 42.578125 8.984375 45.96875  Q 11.671875 49.359375 16.75 51.1875  Q 21.828125 53.03125 28.515625 53.03125  Q 35.15625 53.03125 39.296875 51.46875  Q 43.453125 49.90625 45.40625 47.53125  Q 47.359375 45.171875 48.140625 41.546875  Q 48.578125 39.3125 48.578125 33.453125  L 48.578125 21.734375  Q 48.578125 9.46875 49.140625 6.21875  Q 49.703125 2.984375 51.375 0  L 42.1875 0  Q 40.828125 2.734375 40.4375 6.390625  z M 39.703125 26.03125  Q 34.90625 24.078125 25.34375 22.703125  Q 19.921875 21.921875 17.671875 20.9375  Q 15.4375 19.96875 14.203125 18.09375  Q 12.984375 16.21875 12.984375 13.921875  Q 12.984375 10.40625 15.640625 8.0625  Q 18.3125 5.71875 23.4375 5.71875  Q 28.515625 5.71875 32.46875 7.9375  Q 36.421875 10.15625 38.28125 14.015625  Q 39.703125 17 39.703125 22.796875  z " id="7dbf9739"/>
       <path d="M 6.203125 -19.96875  L 5.21875 -11.71875  Q 8.109375 -12.5 10.25 -12.5  Q 13.1875 -12.5 14.9375 -11.515625  Q 16.703125 -10.546875 17.828125 -8.796875  Q 18.65625 -7.46875 20.515625 -2.25  Q 20.75 -1.515625 21.296875 -0.09375  L 1.609375 51.859375  L 11.078125 51.859375  L 21.875 21.828125  Q 23.96875 16.109375 25.640625 9.8125  Q 27.15625 15.875 29.25 21.625  L 40.328125 51.859375  L 49.125 51.859375  L 29.390625 -0.875  Q 26.21875 -9.421875 24.46875 -12.640625  Q 22.125 -17 19.09375 -19.015625  Q 16.0625 -21.046875 11.859375 -21.046875  Q 9.328125 -21.046875 6.203125 -19.96875  z " id="e48faa1a"/>
       <path id="0015e1f1"/>
       <path d="M 37.25 0  L 28.46875 0  L 28.46875 56  Q 25.296875 52.984375 20.140625 49.953125  Q 14.984375 46.921875 10.890625 45.40625  L 10.890625 53.90625  Q 18.265625 57.375 23.78125 62.296875  Q 29.296875 67.234375 31.59375 71.875  L 37.25 71.875  z " id="4308e1e5"/>
      </defs>
      <g transform="translate(52.886607 199.7875)scale(0.1 -0.1)">
       <use xlink:href="#8fe097c1"/>
       <use x="72.216797" xlink:href="#7dbf9739"/>
       <use x="127.832031" xlink:href="#e48faa1a"/>
       <use x="177.832031" xlink:href="#0015e1f1"/>
       <use x="205.615234" xlink:href="#4308e1e5"/>
      </g>
     </g>
    </g>
    <g id="xtick_2">
     <g id="line2d_2">
      <g>
       <use style="stroke:#000000;stroke-width:0.8;" x="114.933259" xlink:href="#269c4092" y="185.6"/>
      </g>
     </g>
     <g id="text_2">
      <!-- Day 3 -->
      <defs>
       <path d="M 4.203125 18.890625  L 12.984375 20.0625  Q 14.5 12.59375 18.140625 9.296875  Q 21.78125 6 27 6  Q 33.203125 6 37.46875 10.296875  Q 41.75 14.59375 41.75 20.953125  Q 41.75 27 37.796875 30.921875  Q 33.84375 34.859375 27.734375 34.859375  Q 25.25 34.859375 21.53125 33.890625  L 22.515625 41.609375  Q 23.390625 41.5 23.921875 41.5  Q 29.546875 41.5 34.03125 44.421875  Q 38.53125 47.359375 38.53125 53.46875  Q 38.53125 58.296875 35.25 61.46875  Q 31.984375 64.65625 26.8125 64.65625  Q 21.6875 64.65625 18.265625 61.421875  Q 14.84375 58.203125 13.875 51.765625  L 5.078125 53.328125  Q 6.6875 62.15625 12.390625 67.015625  Q 18.109375 71.875 26.609375 71.875  Q 32.46875 71.875 37.390625 69.359375  Q 42.328125 66.84375 44.9375 62.5  Q 47.5625 58.15625 47.5625 53.265625  Q 47.5625 48.640625 45.0625 44.828125  Q 42.578125 41.015625 37.703125 38.765625  Q 44.046875 37.3125 47.5625 32.6875  Q 51.078125 28.078125 51.078125 21.140625  Q 51.078125 11.765625 44.234375 5.25  Q 37.40625 -1.265625 26.953125 -1.265625  Q 17.53125 -1.265625 11.296875 4.34375  Q 5.078125 9.96875 4.203125 18.890625  z " id="d105ef00"/>
      </defs>
      <g transform="translate(101.872321 199.7875)scale(0.1 -0.1)">
       <use xlink:href="#8fe097c1"/>
       <use x="72.216797" xlink:href="#7dbf9739"/>
       <use x="127.832031" xlink:href="#e48faa1a"/>
       <use x="177.832031" xlink:href="#0015e1f1"/>
       <use x="205.615234" xlink:href="#d105ef00"/>
      </g>
     </g>
    </g>
    <g id="xtick_3">
     <g id="line2d_3">
      <g>
       <use style="stroke:#000000;stroke-width:0.8;" x="163.918973" xlink:href="#269c4092" y="185.6"/>
      </g>
     </g>
     <g id="text_3">
      <!-- Day 5 -->
      <defs>
       <path d="M 4.15625 18.75  L 13.375 19.53125  Q 14.40625 12.796875 18.140625 9.390625  Q 21.875 6 27.15625 6  Q 33.5 6 37.890625 10.78125  Q 42.28125 15.578125 42.28125 23.484375  Q 42.28125 31 38.0625 35.34375  Q 33.84375 39.703125 27 39.703125  Q 22.75 39.703125 19.328125 37.765625  Q 15.921875 35.84375 13.96875 32.765625  L 5.71875 33.84375  L 12.640625 70.609375  L 48.25 70.609375  L 48.25 62.203125  L 19.671875 62.203125  L 15.828125 42.96875  Q 22.265625 47.46875 29.34375 47.46875  Q 38.71875 47.46875 45.15625 40.96875  Q 51.609375 34.46875 51.609375 24.265625  Q 51.609375 14.546875 45.953125 7.46875  Q 39.0625 -1.21875 27.15625 -1.21875  Q 17.390625 -1.21875 11.203125 4.25  Q 5.03125 9.71875 4.15625 18.75  z " id="a3e0c996"/>
      </defs>
      <g transform="translate(150.858036 199.757812)scale(0.1 -0.1)">
       <use xlink:href="#8fe097c1"/>
       <use x="72.216797" xlink:href="#7dbf9739"/>
       <use x="127.832031" xlink:href="#e48faa1a"/>
       <use x="177.832031" xlink:href="#0015e1f1"/>
       <use x="205.615234" xlink:href="#a3e0c996"/>
      </g>
     </g>
    </g>
    <g id="xtick_4">
     <g id="line2d_4">
      <g>
       <use style="stroke:#000000;stroke-width:0.8;" x="212.904687" xlink:href="#269c4092" y="185.6"/>
      </g>
     </g>
     <g id="text_4">
      <!-- Day 7 -->
      <defs>
       <path d="M 4.734375 62.203125  L 4.734375 70.65625  L 51.078125 70.65625  L 51.078125 63.8125  Q 44.234375 56.546875 37.515625 44.484375  Q 30.8125 32.421875 27.15625 19.671875  Q 24.515625 10.6875 23.78125 0  L 14.75 0  Q 14.890625 8.453125 18.0625 20.40625  Q 21.234375 32.375 27.171875 43.484375  Q 33.109375 54.59375 39.796875 62.203125  z " id="42e57aca"/>
      </defs>
      <g transform="translate(199.84375 199.757812)scale(0.1 -0.1)">
       <use xlink:href="#8fe097c1"/>
       <use x="72.216797" xlink:href="#7dbf9739"/>
       <use x="127.832031" xlink:href="#e48faa1a"/>
       <use x="177.832031" xlink:href="#0015e1f1"/>
       <use x="205.615234" xlink:href="#42e57aca"/>
      </g>
     </g>
    </g>
    <g id="xtick_5">
     <g id="line2d_5">
      <g>
       <use style="stroke:#000000;stroke-width:0.8;" x="261.890402" xlink:href="#269c4092" y="185.6"/>
      </g>
     </g>
     <g id="text_5">
      <!-- Day 9 -->
      <defs>
       <path d="M 5.46875 16.546875  L 13.921875 17.328125  Q 14.984375 11.375 18.015625 8.6875  Q 21.046875 6 25.78125 6  Q 29.828125 6 32.875 7.859375  Q 35.9375 9.71875 37.890625 12.8125  Q 39.84375 15.921875 41.15625 21.1875  Q 42.484375 26.46875 42.484375 31.9375  Q 42.484375 32.515625 42.4375 33.6875  Q 39.796875 29.5 35.234375 26.875  Q 30.671875 24.265625 25.34375 24.265625  Q 16.453125 24.265625 10.296875 30.703125  Q 4.15625 37.15625 4.15625 47.703125  Q 4.15625 58.59375 10.578125 65.234375  Q 17 71.875 26.65625 71.875  Q 33.640625 71.875 39.421875 68.109375  Q 45.21875 64.359375 48.21875 57.390625  Q 51.21875 50.4375 51.21875 37.25  Q 51.21875 23.53125 48.234375 15.40625  Q 45.265625 7.28125 39.375 3.03125  Q 33.5 -1.21875 25.59375 -1.21875  Q 17.1875 -1.21875 11.859375 3.4375  Q 6.546875 8.109375 5.46875 16.546875  z M 41.453125 48.140625  Q 41.453125 55.71875 37.421875 60.15625  Q 33.40625 64.59375 27.734375 64.59375  Q 21.875 64.59375 17.53125 59.8125  Q 13.1875 55.03125 13.1875 47.40625  Q 13.1875 40.578125 17.3125 36.296875  Q 21.4375 32.03125 27.484375 32.03125  Q 33.59375 32.03125 37.515625 36.296875  Q 41.453125 40.578125 41.453125 48.140625  z " id="9163fcbb"/>
      </defs>
      <g transform="translate(248.829464 199.7875)scale(0.1 -0.1)">
       <use xlink:href="#8fe097c1"/>
       <use x="72.216797" xlink:href="#7dbf9739"/>
       <use x="127.832031" xlink:href="#e48faa1a"/>
       <use x="177.832031" xlink:href="#0015e1f1"/>
       <use x="205.615234" xlink:href="#9163fcbb"/>
      </g>
     </g>
    </g>
    <g id="xtick_6">
     <g id="line2d_6">
      <g>
       <use style="stroke:#000000;stroke-width:0.8;" x="310.876116" xlink:href="#269c4092" y="185.6"/>
      </g>
     </g>
     <g id="text_6">
      <!-- Day 11 -->
      <g transform="translate(295.40346 199.7875)scale(0.1 -0.1)">
       <use xlink:href="#8fe097c1"/>
       <use x="72.216797" xlink:href="#7dbf9739"/>
       <use x="127.832031" xlink:href="#e48faa1a"/>
       <use x="177.832031" xlink:href="#0015e1f1"/>
       <use x="205.615234" xlink:href="#4308e1e5"/>
       <use x="253.855469" xlink:href="#4308e1e5"/>
      </g>
     </g>
    </g>
    <g id="xtick_7">
     <g id="line2d_7">
      <g>
       <use style="stroke:#000000;stroke-width:0.8;" x="359.86183" xlink:href="#269c4092" y="185.6"/>
      </g>
     </g>
     <g id="text_7">
      <!-- Day 13 -->
      <g transform="translate(344.020424 199.7875)scale(0.1 -0.1)">
       <use xlink:href="#8fe097c1"/>
       <use x="72.216797" xlink:href="#7dbf9739"/>
       <use x="127.832031" xlink:href="#e48faa1a"/>
       <use x="177.832031" xlink:href="#0015e1f1"/>
       <use x="205.615234" xlink:href="#4308e1e5"/>
       <use x="261.230469" xlink:href="#d105ef00"/>
      </g>
     </g>
    </g>
   </g>
   <g id="matplotlib.axis_2">
    <g id="ytick_1">
     <g id="line2d_8">
      <defs>
       <path d="M 0 0  L -3.5 0  " id="e6fa45b1" style="stroke:#000000;stroke-width:0.8;"/>
      </defs>
      <g>
       <use style="stroke:#000000;stroke-width:0.8;" x="41.454688" xlink:href="#e6fa45b1" y="185.6"/>
      </g>
     </g>
     <g id="text_8">
      <!-- 0.0 -->
      <defs>
       <path d="M 4.15625 35.296875  Q 4.15625 48 6.765625 55.734375  Q 9.375 63.484375 14.515625 67.671875  Q 19.671875 71.875 27.484375 71.875  Q 33.25 71.875 37.59375 69.546875  Q 41.9375 67.234375 44.765625 62.859375  Q 47.609375 58.5 49.21875 52.21875  Q 50.828125 45.953125 50.828125 35.296875  Q 50.828125 22.703125 48.234375 14.96875  Q 45.65625 7.234375 40.5 3  Q 35.359375 -1.21875 27.484375 -1.21875  Q 17.140625 -1.21875 11.234375 6.203125  Q 4.15625 15.140625 4.15625 35.296875  z M 13.1875 35.296875  Q 13.1875 17.671875 17.3125 11.828125  Q 21.4375 6 27.484375 6  Q 33.546875 6 37.671875 11.859375  Q 41.796875 17.71875 41.796875 35.296875  Q 41.796875 52.984375 37.671875 58.78125  Q 33.546875 64.59375 27.390625 64.59375  Q 21.34375 64.59375 17.71875 59.46875  Q 13.1875 52.9375 13.1875 35.296875  z " id="87bed3ab"/>
       <path d="M 9.078125 0  L 9.078125 10.015625  L 19.09375 10.015625  L 19.09375 0  z " id="57572129"/>
      </defs>
      <g transform="translate(20.554688 189.178906)scale(0.1 -0.1)">
       <use xlink:href="#87bed3ab"/>
       <use x="55.615234" xlink:href="#57572129"/>
       <use x="83.398438" xlink:href="#87bed3ab"/>
      </g>
     </g>
    </g>
    <g id="ytick_2">
     <g id="line2d_9">
      <g>
       <use style="stroke:#000000;stroke-width:0.8;" x="41.454688" xlink:href="#e6fa45b1" y="161.530159"/>
      </g>
     </g>
     <g id="text_9">
      <!-- 0.1 -->
      <g transform="translate(20.554688 165.109065)scale(0.1 -0.1)">
       <use xlink:href="#87bed3ab"/>
       <use x="55.615234" xlink:href="#57572129"/>
       <use x="83.398438" xlink:href="#4308e1e5"/>
      </g>
     </g>
    </g>
    <g id="ytick_3">
     <g id="line2d_10">
      <g>
       <use style="stroke:#000000;stroke-width:0.8;" x="41.454688" xlink:href="#e6fa45b1" y="137.460317"/>
      </g>
     </g>
     <g id="text_10">
      <!-- 0.2 -->
      <defs>
       <path d="M 50.34375 8.453125  L 50.34375 0  L 3.03125 0  Q 2.9375 3.171875 4.046875 6.109375  Q 5.859375 10.9375 9.828125 15.625  Q 13.8125 20.3125 21.34375 26.46875  Q 33.015625 36.03125 37.109375 41.625  Q 41.21875 47.21875 41.21875 52.203125  Q 41.21875 57.421875 37.46875 61  Q 33.734375 64.59375 27.734375 64.59375  Q 21.390625 64.59375 17.578125 60.78125  Q 13.765625 56.984375 13.71875 50.25  L 4.6875 51.171875  Q 5.609375 61.28125 11.65625 66.578125  Q 17.71875 71.875 27.9375 71.875  Q 38.234375 71.875 44.234375 66.15625  Q 50.25 60.453125 50.25 52  Q 50.25 47.703125 48.484375 43.546875  Q 46.734375 39.40625 42.65625 34.8125  Q 38.578125 30.21875 29.109375 22.21875  Q 21.1875 15.578125 18.9375 13.203125  Q 16.703125 10.84375 15.234375 8.453125  z " id="dc237dfe"/>
      </defs>
      <g transform="translate(20.554688 141.039224)scale(0.1 -0.1)">
       <use xlink:href="#87bed3ab"/>
       <use x="55.615234" xlink:href="#57572129"/>
       <use x="83.398438" xlink:href="#dc237dfe"/>
      </g>
     </g>
    </g>
    <g id="ytick_4">
     <g id="line2d_11">
      <g>
       <use style="stroke:#000000;stroke-width:0.8;" x="41.454688" xlink:href="#e6fa45b1" y="113.390476"/>
      </g>
     </g>
     <g id="text_11">
      <!-- 0.3 -->
      <g transform="translate(20.554688 116.969382)scale(0.1 -0.1)">
       <use xlink:href="#87bed3ab"/>
       <use x="55.615234" xlink:href="#57572129"/>
       <use x="83.398438" xlink:href="#d105ef00"/>
      </g>
     </g>
    </g>
    <g id="ytick_5">
     <g id="line2d_12">
      <g>
       <use style="stroke:#000000;stroke-width:0.8;" x="41.454688" xlink:href="#e6fa45b1" y="89.320635"/>
      </g>
     </g>
     <g id="text_12">
      <!-- 0.4 -->
      <defs>
       <path d="M 32.328125 0  L 32.328125 17.140625  L 1.265625 17.140625  L 1.265625 25.203125  L 33.9375 71.578125  L 41.109375 71.578125  L 41.109375 25.203125  L 50.78125 25.203125  L 50.78125 17.140625  L 41.109375 17.140625  L 41.109375 0  z M 32.328125 25.203125  L 32.328125 57.46875  L 9.90625 25.203125  z " id="7bd6d9d4"/>
      </defs>
      <g transform="translate(20.554688 92.899541)scale(0.1 -0.1)">
       <use xlink:href="#87bed3ab"/>
       <use x="55.615234" xlink:href="#57572129"/>
       <use x="83.398438" xlink:href="#7bd6d9d4"/>
      </g>
     </g>
    </g>
    <g id="ytick_6">
     <g id="line2d_13">
      <g>
       <use style="stroke:#000000;stroke-width:0.8;" x="41.454688" xlink:href="#e6fa45b1" y="65.250794"/>
      </g>
     </g>
     <g id="text_13">
      <!-- 0.5 -->
      <g transform="translate(20.554688 68.8297)scale(0.1 -0.1)">
       <use xlink:href="#87bed3ab"/>
       <use x="55.615234" xlink:href="#57572129"/>
       <use x="83.398438" xlink:href="#a3e0c996"/>
      </g>
     </g>
    </g>
    <g id="ytick_7">
     <g id="line2d_14">
      <g>
       <use style="stroke:#000000;stroke-width:0.8;" x="41.454688" xlink:href="#e6fa45b1" y="41.180952"/>
      </g>
     </g>
     <g id="text_14">
      <!-- 0.6 -->
      <defs>
       <path d="M 49.75 54.046875  L 41.015625 53.375  Q 39.84375 58.546875 37.703125 60.890625  Q 34.125 64.65625 28.90625 64.65625  Q 24.703125 64.65625 21.53125 62.3125  Q 17.390625 59.28125 14.984375 53.46875  Q 12.59375 47.65625 12.5 36.921875  Q 15.671875 41.75 20.265625 44.09375  Q 24.859375 46.4375 29.890625 46.4375  Q 38.671875 46.4375 44.84375 39.96875  Q 51.03125 33.5 51.03125 23.25  Q 51.03125 16.5 48.125 10.71875  Q 45.21875 4.9375 40.140625 1.859375  Q 35.0625 -1.21875 28.609375 -1.21875  Q 17.625 -1.21875 10.6875 6.859375  Q 3.765625 14.9375 3.765625 33.5  Q 3.765625 54.25 11.421875 63.671875  Q 18.109375 71.875 29.4375 71.875  Q 37.890625 71.875 43.28125 67.140625  Q 48.6875 62.40625 49.75 54.046875  z M 13.875 23.1875  Q 13.875 18.65625 15.796875 14.5  Q 17.71875 10.359375 21.1875 8.171875  Q 24.65625 6 28.46875 6  Q 34.03125 6 38.03125 10.484375  Q 42.046875 14.984375 42.046875 22.703125  Q 42.046875 30.125 38.078125 34.390625  Q 34.125 38.671875 28.125 38.671875  Q 22.171875 38.671875 18.015625 34.390625  Q 13.875 30.125 13.875 23.1875  z " id="6d111684"/>
      </defs>
      <g transform="translate(20.554688 44.759859)scale(0.1 -0.1)">
       <use xlink:href="#87bed3ab"/>
       <use x="55.615234" xlink:href="#57572129"/>
       <use x="83.398438" xlink:href="#6d111684"/>
      </g>
     </g>
    </g>
    <g id="ytick_8">
     <g id="line2d_15">
      <g>
       <use style="stroke:#000000;stroke-width:0.8;" x="41.454688" xlink:href="#e6fa45b1" y="17.111111"/>
      </g>
     </g>
     <g id="text_15">
      <!-- 0.7 -->
      <g transform="translate(20.554688 20.690017)scale(0.1 -0.1)">
       <use xlink:href="#87bed3ab"/>
       <use x="55.615234" xlink:href="#57572129"/>
       <use x="83.398438" xlink:href="#42e57aca"/>
      </g>
     </g>
    </g>
    <g id="text_16">
     <!-- Proportion of registered cells -->
     <defs>
      <path d="M 4.296875 0  L 19.28125 71.578125  L 49.171875 71.578125  Q 56.9375 71.578125 60.8125 69.796875  Q 64.703125 68.015625 67.234375 63.6875  Q 69.78125 59.375 69.78125 54  Q 69.78125 49.5625 67.96875 44.96875  Q 66.15625 40.375 63.390625 37.390625  Q 60.640625 34.421875 57.8125 32.90625  Q 54.984375 31.390625 51.765625 30.671875  Q 44.875 29.046875 37.84375 29.046875  L 19.921875 29.046875  L 13.875 0  z M 21.625 37.15625  L 37.40625 37.15625  Q 46.578125 37.15625 50.875 39.125  Q 55.171875 41.109375 57.765625 45.15625  Q 60.359375 49.21875 60.359375 53.765625  Q 60.359375 57.28125 58.984375 59.5  Q 57.625 61.71875 55.125 62.765625  Q 52.640625 63.8125 45.5625 63.8125  L 27.203125 63.8125  z " id="8abdf01a"/>
      <path d="M 3.328125 0  L 14.15625 51.859375  L 21.96875 51.859375  L 19.78125 41.265625  Q 23.78125 47.265625 27.609375 50.140625  Q 31.453125 53.03125 35.453125 53.03125  Q 38.09375 53.03125 41.9375 51.125  L 38.328125 42.921875  Q 36.03125 44.578125 33.296875 44.578125  Q 28.65625 44.578125 23.765625 39.40625  Q 18.890625 34.234375 16.109375 20.796875  L 11.71875 0  z " id="e45148b1"/>
      <path d="M 4.890625 19.671875  Q 4.890625 34.859375 13.8125 44.828125  Q 21.1875 53.03125 33.15625 53.03125  Q 42.53125 53.03125 48.265625 47.171875  Q 54 41.3125 54 31.34375  Q 54 22.40625 50.390625 14.71875  Q 46.78125 7.03125 40.109375 2.921875  Q 33.453125 -1.171875 26.078125 -1.171875  Q 20.015625 -1.171875 15.0625 1.40625  Q 10.109375 4 7.5 8.734375  Q 4.890625 13.484375 4.890625 19.671875  z M 13.71875 20.5625  Q 13.71875 13.234375 17.234375 9.453125  Q 20.75 5.671875 26.171875 5.671875  Q 29 5.671875 31.78125 6.8125  Q 34.578125 7.953125 36.96875 10.296875  Q 39.359375 12.640625 41.03125 15.640625  Q 42.71875 18.65625 43.75 22.125  Q 45.265625 26.953125 45.265625 31.390625  Q 45.265625 38.421875 41.71875 42.296875  Q 38.1875 46.1875 32.8125 46.1875  Q 28.65625 46.1875 25.234375 44.203125  Q 21.828125 42.234375 19.0625 38.421875  Q 16.3125 34.625 15.015625 29.5625  Q 13.71875 24.515625 13.71875 20.5625  z " id="48e753de"/>
      <path d="M -1.03125 -19.875  L 13.96875 51.859375  L 22.125 51.859375  L 20.609375 44.625  Q 25.140625 49.359375 28.734375 51.1875  Q 32.328125 53.03125 36.328125 53.03125  Q 43.75 53.03125 48.625 47.625  Q 53.515625 42.234375 53.515625 32.171875  Q 53.515625 24.078125 50.828125 17.40625  Q 48.140625 10.75 44.234375 6.6875  Q 40.328125 2.640625 36.328125 0.734375  Q 32.328125 -1.171875 28.125 -1.171875  Q 18.796875 -1.171875 13.671875 8.296875  L 7.8125 -19.875  z M 16.453125 21.1875  Q 16.453125 15.375 17.28125 13.140625  Q 18.5 9.96875 21.28125 8.015625  Q 24.078125 6.0625 27.734375 6.0625  Q 35.359375 6.0625 40.046875 14.625  Q 44.734375 23.1875 44.734375 32.125  Q 44.734375 38.71875 41.578125 42.3125  Q 38.421875 45.90625 33.734375 45.90625  Q 30.375 45.90625 27.484375 44.109375  Q 24.609375 42.328125 22.140625 38.78125  Q 19.671875 35.25 18.0625 30.125  Q 16.453125 25 16.453125 21.1875  z " id="9d749c5e"/>
      <path d="M 23.96875 7.171875  L 22.515625 -0.046875  Q 19.34375 -0.875 16.359375 -0.875  Q 11.078125 -0.875 7.953125 1.703125  Q 5.609375 3.65625 5.609375 7.03125  Q 5.609375 8.734375 6.890625 14.890625  L 13.1875 45.015625  L 6.203125 45.015625  L 7.625 51.859375  L 14.59375 51.859375  L 17.28125 64.59375  L 27.390625 70.703125  L 23.4375 51.859375  L 32.125 51.859375  L 30.671875 45.015625  L 22.015625 45.015625  L 16.015625 16.359375  Q 14.890625 10.890625 14.890625 9.8125  Q 14.890625 8.25 15.796875 7.421875  Q 16.703125 6.59375 18.75 6.59375  Q 21.6875 6.59375 23.96875 7.171875  z " id="e231a247"/>
      <path d="M 15.875 61.578125  L 17.96875 71.578125  L 26.765625 71.578125  L 24.65625 61.578125  z M 2.984375 0  L 13.8125 51.859375  L 22.65625 51.859375  L 11.8125 0  z " id="6b2401e4"/>
      <path d="M 3.328125 0  L 14.15625 51.859375  L 22.171875 51.859375  L 20.265625 42.828125  Q 25.484375 48.140625 30.03125 50.578125  Q 34.578125 53.03125 39.3125 53.03125  Q 45.609375 53.03125 49.1875 49.609375  Q 52.78125 46.1875 52.78125 40.484375  Q 52.78125 37.59375 51.515625 31.390625  L 44.921875 0  L 36.078125 0  L 42.96875 32.859375  Q 44 37.640625 44 39.9375  Q 44 42.53125 42.21875 44.140625  Q 40.4375 45.75 37.0625 45.75  Q 30.28125 45.75 24.96875 40.859375  Q 19.671875 35.984375 17.1875 24.125  L 12.15625 0  z " id="2c346e7c"/>
      <path id="640600b4"/>
      <path d="M 4.546875 0  L 13.96875 45.015625  L 6.0625 45.015625  L 7.46875 51.859375  L 15.375 51.859375  L 16.890625 59.234375  Q 18.0625 64.75 19.3125 67.1875  Q 20.5625 69.625 23.359375 71.203125  Q 26.171875 72.796875 31 72.796875  Q 34.375 72.796875 40.765625 71.390625  L 39.15625 63.671875  Q 34.671875 64.84375 31.640625 64.84375  Q 29.046875 64.84375 27.703125 63.546875  Q 26.375 62.25 25.390625 57.421875  L 24.21875 51.859375  L 34.078125 51.859375  L 32.671875 45.015625  L 22.796875 45.015625  L 13.375 0  z " id="1c23c1a5"/>
      <path d="M 41.40625 17.625  L 50 16.75  Q 48.140625 10.359375 41.46875 4.59375  Q 34.8125 -1.171875 25.59375 -1.171875  Q 19.828125 -1.171875 15.015625 1.484375  Q 10.203125 4.15625 7.6875 9.234375  Q 5.171875 14.3125 5.171875 20.796875  Q 5.171875 29.296875 9.09375 37.28125  Q 13.03125 45.265625 19.28125 49.140625  Q 25.53125 53.03125 32.8125 53.03125  Q 42.09375 53.03125 47.625 47.265625  Q 53.171875 41.5 53.171875 31.546875  Q 53.171875 27.734375 52.484375 23.734375  L 14.3125 23.734375  Q 14.109375 22.21875 14.109375 21  Q 14.109375 13.71875 17.453125 9.890625  Q 20.796875 6.0625 25.640625 6.0625  Q 30.171875 6.0625 34.5625 9.03125  Q 38.96875 12.015625 41.40625 17.625  z M 15.71875 30.46875  L 44.828125 30.46875  Q 44.875 31.84375 44.875 32.421875  Q 44.875 39.0625 41.546875 42.59375  Q 38.234375 46.140625 33.015625 46.140625  Q 27.34375 46.140625 22.671875 42.234375  Q 18.015625 38.328125 15.71875 30.46875  z " id="6e8d89cd"/>
      <path d="M 2.828125 -4.6875  L 11.765625 -5.515625  Q 11.671875 -8.546875 12.5 -10.0625  Q 13.328125 -11.578125 15.140625 -12.40625  Q 17.53125 -13.484375 21.34375 -13.484375  Q 29.34375 -13.484375 32.859375 -9.328125  Q 35.15625 -6.546875 37.109375 2.78125  L 37.984375 6.984375  Q 31.109375 0 23.34375 0  Q 15.484375 0 10.1875 5.78125  Q 4.890625 11.578125 4.890625 22.171875  Q 4.890625 30.90625 9.0625 38.234375  Q 13.234375 45.5625 18.984375 49.296875  Q 24.75 53.03125 30.859375 53.03125  Q 41.0625 53.03125 46.578125 43.359375  L 48.34375 51.859375  L 56.453125 51.859375  L 46 1.8125  Q 44.28125 -6.453125 41.5 -11.0625  Q 38.71875 -15.671875 33.765625 -18.203125  Q 28.8125 -20.75 22.3125 -20.75  Q 16.0625 -20.75 11.546875 -19.140625  Q 7.03125 -17.53125 4.8125 -14.421875  Q 2.59375 -11.328125 2.59375 -7.328125  Q 2.59375 -6.109375 2.828125 -4.6875  z M 13.875 22.953125  Q 13.875 17.625 14.890625 14.9375  Q 16.359375 11.1875 19.0625 9.203125  Q 21.78125 7.234375 25.09375 7.234375  Q 29.4375 7.234375 33.734375 10.28125  Q 38.03125 13.328125 40.6875 19.71875  Q 43.359375 26.125 43.359375 31.9375  Q 43.359375 38.328125 39.8125 42.109375  Q 36.28125 45.90625 31.0625 45.90625  Q 27.828125 45.90625 24.796875 44.171875  Q 21.78125 42.4375 19.15625 38.890625  Q 16.546875 35.359375 15.203125 30.421875  Q 13.875 25.484375 13.875 22.953125  z " id="304f6f28"/>
      <path d="M 4.15625 17.71875  L 12.984375 18.265625  Q 12.984375 14.453125 14.15625 11.765625  Q 15.328125 9.078125 18.46875 7.375  Q 21.625 5.671875 25.828125 5.671875  Q 31.6875 5.671875 34.609375 8.015625  Q 37.546875 10.359375 37.546875 13.53125  Q 37.546875 15.828125 35.796875 17.875  Q 33.984375 19.921875 26.96875 22.921875  Q 19.96875 25.921875 18.015625 27.15625  Q 14.75 29.15625 13.078125 31.859375  Q 11.421875 34.578125 11.421875 38.09375  Q 11.421875 44.234375 16.296875 48.625  Q 21.1875 53.03125 29.984375 53.03125  Q 39.75 53.03125 44.84375 48.515625  Q 49.953125 44 50.140625 36.625  L 41.5 36.03125  Q 41.3125 40.71875 38.1875 43.453125  Q 35.0625 46.1875 29.34375 46.1875  Q 24.75 46.1875 22.203125 44.09375  Q 19.671875 42 19.671875 39.546875  Q 19.671875 37.109375 21.875 35.25  Q 23.34375 33.984375 29.4375 31.34375  Q 39.59375 26.953125 42.234375 24.421875  Q 46.4375 20.359375 46.4375 14.546875  Q 46.4375 10.6875 44.0625 6.96875  Q 41.703125 3.265625 36.84375 1.046875  Q 31.984375 -1.171875 25.390625 -1.171875  Q 16.40625 -1.171875 10.109375 3.265625  Q 3.8125 7.71875 4.15625 17.71875  z " id="8c43032a"/>
      <path d="M 38.28125 7.515625  Q 30.71875 -1.171875 22.46875 -1.171875  Q 15.09375 -1.171875 10.1875 4.265625  Q 5.28125 9.71875 5.28125 20.0625  Q 5.28125 29.546875 9.15625 37.375  Q 13.03125 45.21875 18.859375 49.125  Q 24.703125 53.03125 30.5625 53.03125  Q 40.234375 53.03125 45.171875 43.703125  L 51.03125 71.578125  L 59.8125 71.578125  L 44.875 0  L 36.71875 0  z M 14.0625 21.734375  Q 14.0625 16.3125 15.140625 13.1875  Q 16.21875 10.0625 18.796875 7.984375  Q 21.390625 5.90625 25 5.90625  Q 31 5.90625 35.890625 12.15625  Q 42.4375 20.453125 42.4375 32.671875  Q 42.4375 38.8125 39.203125 42.28125  Q 35.984375 45.75 31.109375 45.75  Q 27.9375 45.75 25.3125 44.328125  Q 22.703125 42.921875 20.140625 39.53125  Q 17.578125 36.140625 15.8125 30.90625  Q 14.0625 25.6875 14.0625 21.734375  z " id="940920d5"/>
      <path d="M 39.109375 18.890625  L 47.953125 17.96875  Q 44.625 8.25 38.5 3.53125  Q 32.375 -1.171875 24.5625 -1.171875  Q 16.109375 -1.171875 10.859375 4.296875  Q 5.609375 9.765625 5.609375 19.578125  Q 5.609375 28.078125 8.984375 36.28125  Q 12.359375 44.484375 18.625 48.75  Q 24.90625 53.03125 32.953125 53.03125  Q 41.3125 53.03125 46.1875 48.3125  Q 51.078125 43.609375 51.078125 35.84375  L 42.390625 35.25  Q 42.328125 40.1875 39.515625 42.96875  Q 36.71875 45.75 32.125 45.75  Q 26.8125 45.75 22.90625 42.375  Q 19 39.015625 16.765625 32.15625  Q 14.546875 25.296875 14.546875 18.953125  Q 14.546875 12.3125 17.46875 8.984375  Q 20.40625 5.671875 24.703125 5.671875  Q 29 5.671875 32.921875 8.9375  Q 36.859375 12.203125 39.109375 18.890625  z " id="d008f3e9"/>
      <path d="M 2.640625 0  L 17.578125 71.578125  L 26.421875 71.578125  L 11.46875 0  z " id="89ab3d00"/>
     </defs>
     <g transform="translate(14.479688 160.038281)rotate(-90)scale(0.1 -0.1)">
      <use xlink:href="#8abdf01a"/>
      <use x="66.699219" xlink:href="#e45148b1"/>
      <use x="100" xlink:href="#48e753de"/>
      <use x="155.615234" xlink:href="#9d749c5e"/>
      <use x="211.230469" xlink:href="#48e753de"/>
      <use x="266.845703" xlink:href="#e45148b1"/>
      <use x="300.146484" xlink:href="#e231a247"/>
      <use x="327.929688" xlink:href="#6b2401e4"/>
      <use x="350.146484" xlink:href="#48e753de"/>
      <use x="405.761719" xlink:href="#2c346e7c"/>
      <use x="461.376953" xlink:href="#640600b4"/>
      <use x="489.160156" xlink:href="#48e753de"/>
      <use x="544.775391" xlink:href="#1c23c1a5"/>
      <use x="572.558594" xlink:href="#640600b4"/>
      <use x="600.341797" xlink:href="#e45148b1"/>
      <use x="633.642578" xlink:href="#6e8d89cd"/>
      <use x="689.257812" xlink:href="#304f6f28"/>
      <use x="744.873047" xlink:href="#6b2401e4"/>
      <use x="767.089844" xlink:href="#8c43032a"/>
      <use x="817.089844" xlink:href="#e231a247"/>
      <use x="844.873047" xlink:href="#6e8d89cd"/>
      <use x="900.488281" xlink:href="#e45148b1"/>
      <use x="933.789062" xlink:href="#6e8d89cd"/>
      <use x="989.404297" xlink:href="#940920d5"/>
      <use x="1045.019531" xlink:href="#640600b4"/>
      <use x="1072.802734" xlink:href="#d008f3e9"/>
      <use x="1122.802734" xlink:href="#6e8d89cd"/>
      <use x="1178.417969" xlink:href="#89ab3d00"/>
      <use x="1200.634766" xlink:href="#89ab3d00"/>
      <use x="1222.851562" xlink:href="#8c43032a"/>
     </g>
    </g>
   </g>
   <g id="line2d_16">
    <path clip-path="url(#p448779f557)" d="M 56.150402 79.646463  L 56.150402 66.094495  " style="fill:none;stroke:#424242;stroke-linecap:square;stroke-width:1.5;"/>
   </g>
   <g id="line2d_17">
    <path clip-path="url(#p448779f557)" d="M 53.701116 79.646463  L 58.599687 79.646463  " style="fill:none;stroke:#424242;stroke-linecap:square;stroke-width:1.5;"/>
   </g>
   <g id="line2d_18">
    <path clip-path="url(#p448779f557)" d="M 53.701116 66.094495  L 58.599687 66.094495  " style="fill:none;stroke:#424242;stroke-linecap:square;stroke-width:1.5;"/>
   </g>
   <g id="line2d_19">
    <path clip-path="url(#p448779f557)" d="M 105.136116 76.914738  L 105.136116 63.433492  " style="fill:none;stroke:#424242;stroke-linecap:square;stroke-width:1.5;"/>
   </g>
   <g id="line2d_20">
    <path clip-path="url(#p448779f557)" d="M 102.68683 76.914738  L 107.585402 76.914738  " style="fill:none;stroke:#424242;stroke-linecap:square;stroke-width:1.5;"/>
   </g>
   <g id="line2d_21">
    <path clip-path="url(#p448779f557)" d="M 102.68683 63.433492  L 107.585402 63.433492  " style="fill:none;stroke:#424242;stroke-linecap:square;stroke-width:1.5;"/>
   </g>
   <g id="line2d_22">
    <path clip-path="url(#p448779f557)" d="M 154.12183 78.60717  L 154.12183 67.73925  " style="fill:none;stroke:#424242;stroke-linecap:square;stroke-width:1.5;"/>
   </g>
   <g id="line2d_23">
    <path clip-path="url(#p448779f557)" d="M 151.672545 78.60717  L 156.571116 78.60717  " style="fill:none;stroke:#424242;stroke-linecap:square;stroke-width:1.5;"/>
   </g>
   <g id="line2d_24">
    <path clip-path="url(#p448779f557)" d="M 151.672545 67.73925  L 156.571116 67.73925  " style="fill:none;stroke:#424242;stroke-linecap:square;stroke-width:1.5;"/>
   </g>
   <g id="line2d_25">
    <path clip-path="url(#p448779f557)" d="M 203.107545 75.232061  L 203.107545 68.022495  " style="fill:none;stroke:#424242;stroke-linecap:square;stroke-width:1.5;"/>
   </g>
   <g id="line2d_26">
    <path clip-path="url(#p448779f557)" d="M 200.658259 75.232061  L 205.55683 75.232061  " style="fill:none;stroke:#424242;stroke-linecap:square;stroke-width:1.5;"/>
   </g>
   <g id="line2d_27">
    <path clip-path="url(#p448779f557)" d="M 200.658259 68.022495  L 205.55683 68.022495  " style="fill:none;stroke:#424242;stroke-linecap:square;stroke-width:1.5;"/>
   </g>
   <g id="line2d_28">
    <path clip-path="url(#p448779f557)" d="M 252.093259 68.186117  L 252.093259 56.463911  " style="fill:none;stroke:#424242;stroke-linecap:square;stroke-width:1.5;"/>
   </g>
   <g id="line2d_29">
    <path clip-path="url(#p448779f557)" d="M 249.643973 68.186117  L 254.542545 68.186117  " style="fill:none;stroke:#424242;stroke-linecap:square;stroke-width:1.5;"/>
   </g>
   <g id="line2d_30">
    <path clip-path="url(#p448779f557)" d="M 249.643973 56.463911  L 254.542545 56.463911  " style="fill:none;stroke:#424242;stroke-linecap:square;stroke-width:1.5;"/>
   </g>
   <g id="line2d_31">
    <path clip-path="url(#p448779f557)" d="M 301.078973 75.018351  L 301.078973 67.589899  " style="fill:none;stroke:#424242;stroke-linecap:square;stroke-width:1.5;"/>
   </g>
   <g id="line2d_32">
    <path clip-path="url(#p448779f557)" d="M 298.629687 75.018351  L 303.528259 75.018351  " style="fill:none;stroke:#424242;stroke-linecap:square;stroke-width:1.5;"/>
   </g>
   <g id="line2d_33">
    <path clip-path="url(#p448779f557)" d="M 298.629687 67.589899  L 303.528259 67.589899  " style="fill:none;stroke:#424242;stroke-linecap:square;stroke-width:1.5;"/>
   </g>
   <g id="line2d_34">
    <path clip-path="url(#p448779f557)" d="M 350.064687 68.788335  L 350.064687 52.799759  " style="fill:none;stroke:#424242;stroke-linecap:square;stroke-width:1.5;"/>
   </g>
   <g id="line2d_35">
    <path clip-path="url(#p448779f557)" d="M 347.615402 68.788335  L 352.513973 68.788335  " style="fill:none;stroke:#424242;stroke-linecap:square;stroke-width:1.5;"/>
   </g>
   <g id="line2d_36">
    <path clip-path="url(#p448779f557)" d="M 347.615402 52.799759  L 352.513973 52.799759  " style="fill:none;stroke:#424242;stroke-linecap:square;stroke-width:1.5;"/>
   </g>
   <g id="line2d_37">
    <path clip-path="url(#p448779f557)" d="M 75.744687 52.400439  L 75.744687 43.523868  " style="fill:none;stroke:#424242;stroke-linecap:square;stroke-width:1.5;"/>
   </g>
   <g id="line2d_38">
    <path clip-path="url(#p448779f557)" d="M 73.295402 52.400439  L 78.193973 52.400439  " style="fill:none;stroke:#424242;stroke-linecap:square;stroke-width:1.5;"/>
   </g>
   <g id="line2d_39">
    <path clip-path="url(#p448779f557)" d="M 73.295402 43.523868  L 78.193973 43.523868  " style="fill:none;stroke:#424242;stroke-linecap:square;stroke-width:1.5;"/>
   </g>
   <g id="line2d_40">
    <path clip-path="url(#p448779f557)" d="M 124.730402 54.550529  L 124.730402 43.987083  " style="fill:none;stroke:#424242;stroke-linecap:square;stroke-width:1.5;"/>
   </g>
   <g id="line2d_41">
    <path clip-path="url(#p448779f557)" d="M 122.281116 54.550529  L 127.179687 54.550529  " style="fill:none;stroke:#424242;stroke-linecap:square;stroke-width:1.5;"/>
   </g>
   <g id="line2d_42">
    <path clip-path="url(#p448779f557)" d="M 122.281116 43.987083  L 127.179687 43.987083  " style="fill:none;stroke:#424242;stroke-linecap:square;stroke-width:1.5;"/>
   </g>
   <g id="line2d_43">
    <path clip-path="url(#p448779f557)" d="M 173.716116 50.852289  L 173.716116 43.134007  " style="fill:none;stroke:#424242;stroke-linecap:square;stroke-width:1.5;"/>
   </g>
   <g id="line2d_44">
    <path clip-path="url(#p448779f557)" d="M 171.26683 50.852289  L 176.165402 50.852289  " style="fill:none;stroke:#424242;stroke-linecap:square;stroke-width:1.5;"/>
   </g>
   <g id="line2d_45">
    <path clip-path="url(#p448779f557)" d="M 171.26683 43.134007  L 176.165402 43.134007  " style="fill:none;stroke:#424242;stroke-linecap:square;stroke-width:1.5;"/>
   </g>
   <g id="line2d_46">
    <path clip-path="url(#p448779f557)" d="M 222.70183 53.906041  L 222.70183 42.068652  " style="fill:none;stroke:#424242;stroke-linecap:square;stroke-width:1.5;"/>
   </g>
   <g id="line2d_47">
    <path clip-path="url(#p448779f557)" d="M 220.252545 53.906041  L 225.151116 53.906041  " style="fill:none;stroke:#424242;stroke-linecap:square;stroke-width:1.5;"/>
   </g>
   <g id="line2d_48">
    <path clip-path="url(#p448779f557)" d="M 220.252545 42.068652  L 225.151116 42.068652  " style="fill:none;stroke:#424242;stroke-linecap:square;stroke-width:1.5;"/>
   </g>
   <g id="line2d_49">
    <path clip-path="url(#p448779f557)" d="M 271.687545 53.235289  L 271.687545 40.482011  " style="fill:none;stroke:#424242;stroke-linecap:square;stroke-width:1.5;"/>
   </g>
   <g id="line2d_50">
    <path clip-path="url(#p448779f557)" d="M 269.238259 53.235289  L 274.13683 53.235289  " style="fill:none;stroke:#424242;stroke-linecap:square;stroke-width:1.5;"/>
   </g>
   <g id="line2d_51">
    <path clip-path="url(#p448779f557)" d="M 269.238259 40.482011  L 274.13683 40.482011  " style="fill:none;stroke:#424242;stroke-linecap:square;stroke-width:1.5;"/>
   </g>
   <g id="line2d_52">
    <path clip-path="url(#p448779f557)" d="M 320.673259 44.026242  L 320.673259 33.602602  " style="fill:none;stroke:#424242;stroke-linecap:square;stroke-width:1.5;"/>
   </g>
   <g id="line2d_53">
    <path clip-path="url(#p448779f557)" d="M 318.223973 44.026242  L 323.122545 44.026242  " style="fill:none;stroke:#424242;stroke-linecap:square;stroke-width:1.5;"/>
   </g>
   <g id="line2d_54">
    <path clip-path="url(#p448779f557)" d="M 318.223973 33.602602  L 323.122545 33.602602  " style="fill:none;stroke:#424242;stroke-linecap:square;stroke-width:1.5;"/>
   </g>
   <g id="line2d_55">
    <path clip-path="url(#p448779f557)" d="M 369.658973 51.95226  L 369.658973 41.987091  " style="fill:none;stroke:#424242;stroke-linecap:square;stroke-width:1.5;"/>
   </g>
   <g id="line2d_56">
    <path clip-path="url(#p448779f557)" d="M 367.209687 51.95226  L 372.108259 51.95226  " style="fill:none;stroke:#424242;stroke-linecap:square;stroke-width:1.5;"/>
   </g>
   <g id="line2d_57">
    <path clip-path="url(#p448779f557)" d="M 367.209687 41.987091  L 372.108259 41.987091  " style="fill:none;stroke:#424242;stroke-linecap:square;stroke-width:1.5;"/>
   </g>
   <g id="patch_17">
    <path d="M 41.454688 185.6  L 41.454688 7.2  " style="fill:none;stroke:#000000;stroke-linecap:square;stroke-linejoin:miter;stroke-width:0.8;"/>
   </g>
   <g id="patch_18">
    <path d="M 41.454687 185.6  L 384.354687 185.6  " style="fill:none;stroke:#000000;stroke-linecap:square;stroke-linejoin:miter;stroke-width:0.8;"/>
   </g>
   <g id="PathCollection_1">
    <defs>
     <path d="M 0 1.25  C 0.331504 1.25 0.649475 1.118292 0.883883 0.883883  C 1.118292 0.649475 1.25 0.331504 1.25 0  C 1.25 -0.331504 1.118292 -0.649475 0.883883 -0.883883  C 0.649475 -1.118292 0.331504 -1.25 0 -1.25  C -0.331504 -1.25 -0.649475 -1.118292 -0.883883 -0.883883  C -1.118292 -0.649475 -1.25 -0.331504 -1.25 0  C -1.25 0.331504 -1.118292 0.649475 -0.883883 0.883883  C -0.649475 1.118292 -0.331504 1.25 0 1.25  z " id="274e0eef"/>
    </defs>
    <g clip-path="url(#p448779f557)">
     <use style="fill:#ef553b;stroke:#595959;stroke-width:0.8;" x="56.150402" xlink:href="#274e0eef" y="71.454361"/>
    </g>
    <g clip-path="url(#p448779f557)">
     <use style="fill:#ef553b;stroke:#595959;stroke-width:0.8;" x="56.150402" xlink:href="#274e0eef" y="46.129892"/>
    </g>
    <g clip-path="url(#p448779f557)">
     <use style="fill:#ef553b;stroke:#595959;stroke-width:0.8;" x="53.249832" xlink:href="#274e0eef" y="54.505329"/>
    </g>
    <g clip-path="url(#p448779f557)">
     <use style="fill:#ef553b;stroke:#595959;stroke-width:0.8;" x="56.150402" xlink:href="#274e0eef" y="63.631746"/>
    </g>
    <g clip-path="url(#p448779f557)">
     <use style="fill:#ef553b;stroke:#595959;stroke-width:0.8;" x="56.150402" xlink:href="#274e0eef" y="75.625725"/>
    </g>
    <g clip-path="url(#p448779f557)">
     <use style="fill:#ef553b;stroke:#595959;stroke-width:0.8;" x="56.150402" xlink:href="#274e0eef" y="109.407697"/>
    </g>
    <g clip-path="url(#p448779f557)">
     <use style="fill:#ef553b;stroke:#595959;stroke-width:0.8;" x="54.299644" xlink:href="#274e0eef" y="87.989584"/>
    </g>
    <g clip-path="url(#p448779f557)">
     <use style="fill:#ef553b;stroke:#595959;stroke-width:0.8;" x="56.150402" xlink:href="#274e0eef" y="90.779413"/>
    </g>
    <g clip-path="url(#p448779f557)">
     <use style="fill:#ef553b;stroke:#595959;stroke-width:0.8;" x="56.150402" xlink:href="#274e0eef" y="56.310567"/>
    </g>
   </g>
   <g id="PathCollection_2">
    <defs>
     <path d="M 0 1.25  C 0.331504 1.25 0.649475 1.118292 0.883883 0.883883  C 1.118292 0.649475 1.25 0.331504 1.25 0  C 1.25 -0.331504 1.118292 -0.649475 0.883883 -0.883883  C 0.649475 -1.118292 0.331504 -1.25 0 -1.25  C -0.331504 -1.25 -0.649475 -1.118292 -0.883883 -0.883883  C -1.118292 -0.649475 -1.25 -0.331504 -1.25 0  C -1.25 0.331504 -1.118292 0.649475 -0.883883 0.883883  C -0.649475 1.118292 -0.331504 1.25 0 1.25  z " id="b1bf7383"/>
    </defs>
    <g clip-path="url(#p448779f557)">
     <use style="fill:#00cc96;stroke:#3d3d3d;stroke-width:0.8;" x="72.823438" xlink:href="#b1bf7383" y="32.52912"/>
    </g>
    <g clip-path="url(#p448779f557)">
     <use style="fill:#00cc96;stroke:#3d3d3d;stroke-width:0.8;" x="73.115197" xlink:href="#b1bf7383" y="52.356236"/>
    </g>
    <g clip-path="url(#p448779f557)">
     <use style="fill:#00cc96;stroke:#3d3d3d;stroke-width:0.8;" x="75.744687" xlink:href="#b1bf7383" y="54.505329"/>
    </g>
    <g clip-path="url(#p448779f557)">
     <use style="fill:#00cc96;stroke:#3d3d3d;stroke-width:0.8;" x="75.744687" xlink:href="#b1bf7383" y="40.151227"/>
    </g>
    <g clip-path="url(#p448779f557)">
     <use style="fill:#00cc96;stroke:#3d3d3d;stroke-width:0.8;" x="75.744687" xlink:href="#b1bf7383" y="60.531217"/>
    </g>
    <g clip-path="url(#p448779f557)">
     <use style="fill:#00cc96;stroke:#3d3d3d;stroke-width:0.8;" x="75.744687" xlink:href="#b1bf7383" y="34.303855"/>
    </g>
    <g clip-path="url(#p448779f557)">
     <use style="fill:#00cc96;stroke:#3d3d3d;stroke-width:0.8;" x="72.740704" xlink:href="#b1bf7383" y="38.506526"/>
    </g>
    <g clip-path="url(#p448779f557)">
     <use style="fill:#00cc96;stroke:#3d3d3d;stroke-width:0.8;" x="75.744687" xlink:href="#b1bf7383" y="72.840383"/>
    </g>
    <g clip-path="url(#p448779f557)">
     <use style="fill:#00cc96;stroke:#3d3d3d;stroke-width:0.8;" x="75.744687" xlink:href="#b1bf7383" y="45.935489"/>
    </g>
   </g>
   <g id="PathCollection_3">
    <defs>
     <path d="M 0 1.25  C 0.331504 1.25 0.649475 1.118292 0.883883 0.883883  C 1.118292 0.649475 1.25 0.331504 1.25 0  C 1.25 -0.331504 1.118292 -0.649475 0.883883 -0.883883  C 0.649475 -1.118292 0.331504 -1.25 0 -1.25  C -0.331504 -1.25 -0.649475 -1.118292 -0.883883 -0.883883  C -1.118292 -0.649475 -1.25 -0.331504 -1.25 0  C -1.25 0.331504 -1.118292 0.649475 -0.883883 0.883883  C -0.649475 1.118292 -0.331504 1.25 0 1.25  z " id="60e2fedc"/>
    </defs>
    <g clip-path="url(#p448779f557)">
     <use style="fill:#ef553b;stroke:#595959;stroke-width:0.8;" x="105.136116" xlink:href="#60e2fedc" y="64.397253"/>
    </g>
    <g clip-path="url(#p448779f557)">
     <use style="fill:#ef553b;stroke:#595959;stroke-width:0.8;" x="105.136116" xlink:href="#60e2fedc" y="34.049148"/>
    </g>
    <g clip-path="url(#p448779f557)">
     <use style="fill:#ef553b;stroke:#595959;stroke-width:0.8;" x="105.136116" xlink:href="#60e2fedc" y="47.494353"/>
    </g>
    <g clip-path="url(#p448779f557)">
     <use style="fill:#ef553b;stroke:#595959;stroke-width:0.8;" x="104.0265" xlink:href="#60e2fedc" y="79.95409"/>
    </g>
    <g clip-path="url(#p448779f557)">
     <use style="fill:#ef553b;stroke:#595959;stroke-width:0.8;" x="105.136116" xlink:href="#60e2fedc" y="83.080306"/>
    </g>
    <g clip-path="url(#p448779f557)">
     <use style="fill:#ef553b;stroke:#595959;stroke-width:0.8;" x="101.722526" xlink:href="#60e2fedc" y="93.568254"/>
    </g>
    <g clip-path="url(#p448779f557)">
     <use style="fill:#ef553b;stroke:#595959;stroke-width:0.8;" x="105.136116" xlink:href="#60e2fedc" y="94.134603"/>
    </g>
    <g clip-path="url(#p448779f557)">
     <use style="fill:#ef553b;stroke:#595959;stroke-width:0.8;" x="101.673599" xlink:href="#60e2fedc" y="64.272345"/>
    </g>
    <g clip-path="url(#p448779f557)">
     <use style="fill:#ef553b;stroke:#595959;stroke-width:0.8;" x="105.136116" xlink:href="#60e2fedc" y="70.616682"/>
    </g>
   </g>
   <g id="PathCollection_4">
    <defs>
     <path d="M 0 1.25  C 0.331504 1.25 0.649475 1.118292 0.883883 0.883883  C 1.118292 0.649475 1.25 0.331504 1.25 0  C 1.25 -0.331504 1.118292 -0.649475 0.883883 -0.883883  C 0.649475 -1.118292 0.331504 -1.25 0 -1.25  C -0.331504 -1.25 -0.649475 -1.118292 -0.883883 -0.883883  C -1.118292 -0.649475 -1.25 -0.331504 -1.25 0  C -1.25 0.331504 -1.118292 0.649475 -0.883883 0.883883  C -0.649475 1.118292 -0.331504 1.25 0 1.25  z " id="f873838f"/>
    </defs>
    <g clip-path="url(#p448779f557)">
     <use style="fill:#00cc96;stroke:#3d3d3d;stroke-width:0.8;" x="124.730402" xlink:href="#f873838f" y="33.014399"/>
    </g>
    <g clip-path="url(#p448779f557)">
     <use style="fill:#00cc96;stroke:#3d3d3d;stroke-width:0.8;" x="124.730402" xlink:href="#f873838f" y="65.250794"/>
    </g>
    <g clip-path="url(#p448779f557)">
     <use style="fill:#00cc96;stroke:#3d3d3d;stroke-width:0.8;" x="124.730402" xlink:href="#f873838f" y="59.862023"/>
    </g>
    <g clip-path="url(#p448779f557)">
     <use style="fill:#00cc96;stroke:#3d3d3d;stroke-width:0.8;" x="124.730402" xlink:href="#f873838f" y="37.829455"/>
    </g>
    <g clip-path="url(#p448779f557)">
     <use style="fill:#00cc96;stroke:#3d3d3d;stroke-width:0.8;" x="122.700493" xlink:href="#f873838f" y="62.576367"/>
    </g>
    <g clip-path="url(#p448779f557)">
     <use style="fill:#00cc96;stroke:#3d3d3d;stroke-width:0.8;" x="121.273176" xlink:href="#f873838f" y="45.908957"/>
    </g>
    <g clip-path="url(#p448779f557)">
     <use style="fill:#00cc96;stroke:#3d3d3d;stroke-width:0.8;" x="124.730402" xlink:href="#f873838f" y="23.714342"/>
    </g>
    <g clip-path="url(#p448779f557)">
     <use style="fill:#00cc96;stroke:#3d3d3d;stroke-width:0.8;" x="124.730402" xlink:href="#f873838f" y="46.129892"/>
    </g>
    <g clip-path="url(#p448779f557)">
     <use style="fill:#00cc96;stroke:#3d3d3d;stroke-width:0.8;" x="124.730402" xlink:href="#f873838f" y="69.133026"/>
    </g>
   </g>
   <g id="PathCollection_5">
    <defs>
     <path d="M 0 1.25  C 0.331504 1.25 0.649475 1.118292 0.883883 0.883883  C 1.118292 0.649475 1.25 0.331504 1.25 0  C 1.25 -0.331504 1.118292 -0.649475 0.883883 -0.883883  C 0.649475 -1.118292 0.331504 -1.25 0 -1.25  C -0.331504 -1.25 -0.649475 -1.118292 -0.883883 -0.883883  C -1.118292 -0.649475 -1.25 -0.331504 -1.25 0  C -1.25 0.331504 -1.118292 0.649475 -0.883883 0.883883  C -0.649475 1.118292 -0.331504 1.25 0 1.25  z " id="83b49770"/>
    </defs>
    <g clip-path="url(#p448779f557)">
     <use style="fill:#ef553b;stroke:#595959;stroke-width:0.8;" x="156.495538" xlink:href="#83b49770" y="81.161367"/>
    </g>
    <g clip-path="url(#p448779f557)">
     <use style="fill:#ef553b;stroke:#595959;stroke-width:0.8;" x="154.12183" xlink:href="#83b49770" y="57.071721"/>
    </g>
    <g clip-path="url(#p448779f557)">
     <use style="fill:#ef553b;stroke:#595959;stroke-width:0.8;" x="154.12183" xlink:href="#83b49770" y="68.336671"/>
    </g>
    <g clip-path="url(#p448779f557)">
     <use style="fill:#ef553b;stroke:#595959;stroke-width:0.8;" x="154.12183" xlink:href="#83b49770" y="37.854226"/>
    </g>
    <g clip-path="url(#p448779f557)">
     <use style="fill:#ef553b;stroke:#595959;stroke-width:0.8;" x="154.12183" xlink:href="#83b49770" y="88.96925"/>
    </g>
    <g clip-path="url(#p448779f557)">
     <use style="fill:#ef553b;stroke:#595959;stroke-width:0.8;" x="153.060516" xlink:href="#83b49770" y="81.594513"/>
    </g>
    <g clip-path="url(#p448779f557)">
     <use style="fill:#ef553b;stroke:#595959;stroke-width:0.8;" x="154.12183" xlink:href="#83b49770" y="84.735903"/>
    </g>
    <g clip-path="url(#p448779f557)">
     <use style="fill:#ef553b;stroke:#595959;stroke-width:0.8;" x="150.413285" xlink:href="#83b49770" y="79.465267"/>
    </g>
    <g clip-path="url(#p448779f557)">
     <use style="fill:#ef553b;stroke:#595959;stroke-width:0.8;" x="159.405557" xlink:href="#83b49770" y="79.369974"/>
    </g>
   </g>
   <g id="PathCollection_6">
    <defs>
     <path d="M 0 1.25  C 0.331504 1.25 0.649475 1.118292 0.883883 0.883883  C 1.118292 0.649475 1.25 0.331504 1.25 0  C 1.25 -0.331504 1.118292 -0.649475 0.883883 -0.883883  C 0.649475 -1.118292 0.331504 -1.25 0 -1.25  C -0.331504 -1.25 -0.649475 -1.118292 -0.883883 -0.883883  C -1.118292 -0.649475 -1.25 -0.331504 -1.25 0  C -1.25 0.331504 -1.118292 0.649475 -0.883883 0.883883  C -0.649475 1.118292 -0.331504 1.25 0 1.25  z " id="df1c1426"/>
    </defs>
    <g clip-path="url(#p448779f557)">
     <use style="fill:#00cc96;stroke:#3d3d3d;stroke-width:0.8;" x="173.716116" xlink:href="#df1c1426" y="25.134392"/>
    </g>
    <g clip-path="url(#p448779f557)">
     <use style="fill:#00cc96;stroke:#3d3d3d;stroke-width:0.8;" x="173.716116" xlink:href="#df1c1426" y="60.709314"/>
    </g>
    <g clip-path="url(#p448779f557)">
     <use style="fill:#00cc96;stroke:#3d3d3d;stroke-width:0.8;" x="174.50828" xlink:href="#df1c1426" y="51.092063"/>
    </g>
    <g clip-path="url(#p448779f557)">
     <use style="fill:#00cc96;stroke:#3d3d3d;stroke-width:0.8;" x="172.71121" xlink:href="#df1c1426" y="53.91355"/>
    </g>
    <g clip-path="url(#p448779f557)">
     <use style="fill:#00cc96;stroke:#3d3d3d;stroke-width:0.8;" x="173.716116" xlink:href="#df1c1426" y="57.071721"/>
    </g>
    <g clip-path="url(#p448779f557)">
     <use style="fill:#00cc96;stroke:#3d3d3d;stroke-width:0.8;" x="171.056061" xlink:href="#df1c1426" y="50.808889"/>
    </g>
    <g clip-path="url(#p448779f557)">
     <use style="fill:#00cc96;stroke:#3d3d3d;stroke-width:0.8;" x="173.716116" xlink:href="#df1c1426" y="33.215393"/>
    </g>
    <g clip-path="url(#p448779f557)">
     <use style="fill:#00cc96;stroke:#3d3d3d;stroke-width:0.8;" x="177.512264" xlink:href="#df1c1426" y="49.447363"/>
    </g>
    <g clip-path="url(#p448779f557)">
     <use style="fill:#00cc96;stroke:#3d3d3d;stroke-width:0.8;" x="173.716116" xlink:href="#df1c1426" y="41.545647"/>
    </g>
   </g>
   <g id="PathCollection_7">
    <defs>
     <path d="M 0 1.25  C 0.331504 1.25 0.649475 1.118292 0.883883 0.883883  C 1.118292 0.649475 1.25 0.331504 1.25 0  C 1.25 -0.331504 1.118292 -0.649475 0.883883 -0.883883  C 0.649475 -1.118292 0.331504 -1.25 0 -1.25  C -0.331504 -1.25 -0.649475 -1.118292 -0.883883 -0.883883  C -1.118292 -0.649475 -1.25 -0.331504 -1.25 0  C -1.25 0.331504 -1.118292 0.649475 -0.883883 0.883883  C -0.649475 1.118292 -0.331504 1.25 0 1.25  z " id="16ded391"/>
    </defs>
    <g clip-path="url(#p448779f557)">
     <use style="fill:#ef553b;stroke:#595959;stroke-width:0.8;" x="203.107545" xlink:href="#16ded391" y="58.733689"/>
    </g>
    <g clip-path="url(#p448779f557)">
     <use style="fill:#ef553b;stroke:#595959;stroke-width:0.8;" x="203.107545" xlink:href="#16ded391" y="63.175807"/>
    </g>
    <g clip-path="url(#p448779f557)">
     <use style="fill:#ef553b;stroke:#595959;stroke-width:0.8;" x="203.107545" xlink:href="#16ded391" y="54.1342"/>
    </g>
    <g clip-path="url(#p448779f557)">
     <use style="fill:#ef553b;stroke:#595959;stroke-width:0.8;" x="199.907163" xlink:href="#16ded391" y="74.360893"/>
    </g>
    <g clip-path="url(#p448779f557)">
     <use style="fill:#ef553b;stroke:#595959;stroke-width:0.8;" x="205.474738" xlink:href="#16ded391" y="81.451648"/>
    </g>
    <g clip-path="url(#p448779f557)">
     <use style="fill:#ef553b;stroke:#595959;stroke-width:0.8;" x="199.887697" xlink:href="#16ded391" y="82.642297"/>
    </g>
    <g clip-path="url(#p448779f557)">
     <use style="fill:#ef553b;stroke:#595959;stroke-width:0.8;" x="203.107545" xlink:href="#16ded391" y="83.861496"/>
    </g>
    <g clip-path="url(#p448779f557)">
     <use style="fill:#ef553b;stroke:#595959;stroke-width:0.8;" x="203.107545" xlink:href="#16ded391" y="75.625725"/>
    </g>
    <g clip-path="url(#p448779f557)">
     <use style="fill:#ef553b;stroke:#595959;stroke-width:0.8;" x="203.107545" xlink:href="#16ded391" y="70.659747"/>
    </g>
   </g>
   <g id="PathCollection_8">
    <defs>
     <path d="M 0 1.25  C 0.331504 1.25 0.649475 1.118292 0.883883 0.883883  C 1.118292 0.649475 1.25 0.331504 1.25 0  C 1.25 -0.331504 1.118292 -0.649475 0.883883 -0.883883  C 0.649475 -1.118292 0.331504 -1.25 0 -1.25  C -0.331504 -1.25 -0.649475 -1.118292 -0.883883 -0.883883  C -1.118292 -0.649475 -1.25 -0.331504 -1.25 0  C -1.25 0.331504 -1.118292 0.649475 -0.883883 0.883883  C -0.649475 1.118292 -0.331504 1.25 0 1.25  z " id="970a8e58"/>
    </defs>
    <g clip-path="url(#p448779f557)">
     <use style="fill:#00cc96;stroke:#3d3d3d;stroke-width:0.8;" x="219.690951" xlink:href="#970a8e58" y="32.141623"/>
    </g>
    <g clip-path="url(#p448779f557)">
     <use style="fill:#00cc96;stroke:#3d3d3d;stroke-width:0.8;" x="222.70183" xlink:href="#970a8e58" y="47.72421"/>
    </g>
    <g clip-path="url(#p448779f557)">
     <use style="fill:#00cc96;stroke:#3d3d3d;stroke-width:0.8;" x="222.70183" xlink:href="#970a8e58" y="56.212711"/>
    </g>
    <g clip-path="url(#p448779f557)">
     <use style="fill:#00cc96;stroke:#3d3d3d;stroke-width:0.8;" x="222.70183" xlink:href="#970a8e58" y="27.854148"/>
    </g>
    <g clip-path="url(#p448779f557)">
     <use style="fill:#00cc96;stroke:#3d3d3d;stroke-width:0.8;" x="222.70183" xlink:href="#970a8e58" y="84.371696"/>
    </g>
    <g clip-path="url(#p448779f557)">
     <use style="fill:#00cc96;stroke:#3d3d3d;stroke-width:0.8;" x="220.294684" xlink:href="#970a8e58" y="45.350531"/>
    </g>
    <g clip-path="url(#p448779f557)">
     <use style="fill:#00cc96;stroke:#3d3d3d;stroke-width:0.8;" x="222.70183" xlink:href="#970a8e58" y="33.774847"/>
    </g>
    <g clip-path="url(#p448779f557)">
     <use style="fill:#00cc96;stroke:#3d3d3d;stroke-width:0.8;" x="222.70183" xlink:href="#970a8e58" y="62.936386"/>
    </g>
    <g clip-path="url(#p448779f557)">
     <use style="fill:#00cc96;stroke:#3d3d3d;stroke-width:0.8;" x="222.70183" xlink:href="#970a8e58" y="41.519964"/>
    </g>
   </g>
   <g id="PathCollection_9">
    <defs>
     <path d="M 0 1.25  C 0.331504 1.25 0.649475 1.118292 0.883883 0.883883  C 1.118292 0.649475 1.25 0.331504 1.25 0  C 1.25 -0.331504 1.118292 -0.649475 0.883883 -0.883883  C 0.649475 -1.118292 0.331504 -1.25 0 -1.25  C -0.331504 -1.25 -0.649475 -1.118292 -0.883883 -0.883883  C -1.118292 -0.649475 -1.25 -0.331504 -1.25 0  C -1.25 0.331504 -1.118292 0.649475 -0.883883 0.883883  C -0.649475 1.118292 -0.331504 1.25 0 1.25  z " id="ce712162"/>
    </defs>
    <g clip-path="url(#p448779f557)">
     <use style="fill:#ef553b;stroke:#595959;stroke-width:0.8;" x="253.294289" xlink:href="#ce712162" y="54.154768"/>
    </g>
    <g clip-path="url(#p448779f557)">
     <use style="fill:#ef553b;stroke:#595959;stroke-width:0.8;" x="249.160887" xlink:href="#ce712162" y="73.429866"/>
    </g>
    <g clip-path="url(#p448779f557)">
     <use style="fill:#ef553b;stroke:#595959;stroke-width:0.8;" x="252.093259" xlink:href="#ce712162" y="33.422904"/>
    </g>
    <g clip-path="url(#p448779f557)">
     <use style="fill:#ef553b;stroke:#595959;stroke-width:0.8;" x="252.093259" xlink:href="#ce712162" y="47.510074"/>
    </g>
    <g clip-path="url(#p448779f557)">
     <use style="fill:#ef553b;stroke:#595959;stroke-width:0.8;" x="252.093259" xlink:href="#ce712162" y="70.560317"/>
    </g>
    <g clip-path="url(#p448779f557)">
     <use style="fill:#ef553b;stroke:#595959;stroke-width:0.8;" x="250.146032" xlink:href="#ce712162" y="55.533156"/>
    </g>
    <g clip-path="url(#p448779f557)">
     <use style="fill:#ef553b;stroke:#595959;stroke-width:0.8;" x="252.093259" xlink:href="#ce712162" y="92.863382"/>
    </g>
    <g clip-path="url(#p448779f557)">
     <use style="fill:#ef553b;stroke:#595959;stroke-width:0.8;" x="252.093259" xlink:href="#ce712162" y="75.187884"/>
    </g>
    <g clip-path="url(#p448779f557)">
     <use style="fill:#ef553b;stroke:#595959;stroke-width:0.8;" x="252.093259" xlink:href="#ce712162" y="58.262775"/>
    </g>
   </g>
   <g id="PathCollection_10">
    <defs>
     <path d="M 0 1.25  C 0.331504 1.25 0.649475 1.118292 0.883883 0.883883  C 1.118292 0.649475 1.25 0.331504 1.25 0  C 1.25 -0.331504 1.118292 -0.649475 0.883883 -0.883883  C 0.649475 -1.118292 0.331504 -1.25 0 -1.25  C -0.331504 -1.25 -0.649475 -1.118292 -0.883883 -0.883883  C -1.118292 -0.649475 -1.25 -0.331504 -1.25 0  C -1.25 0.331504 -1.118292 0.649475 -0.883883 0.883883  C -0.649475 1.118292 -0.331504 1.25 0 1.25  z " id="207ef8ee"/>
    </defs>
    <g clip-path="url(#p448779f557)">
     <use style="fill:#00cc96;stroke:#3d3d3d;stroke-width:0.8;" x="271.687545" xlink:href="#207ef8ee" y="36.734315"/>
    </g>
    <g clip-path="url(#p448779f557)">
     <use style="fill:#00cc96;stroke:#3d3d3d;stroke-width:0.8;" x="271.687545" xlink:href="#207ef8ee" y="73.429866"/>
    </g>
    <g clip-path="url(#p448779f557)">
     <use style="fill:#00cc96;stroke:#3d3d3d;stroke-width:0.8;" x="271.687545" xlink:href="#207ef8ee" y="65.250794"/>
    </g>
    <g clip-path="url(#p448779f557)">
     <use style="fill:#00cc96;stroke:#3d3d3d;stroke-width:0.8;" x="271.687545" xlink:href="#207ef8ee" y="47.510074"/>
    </g>
    <g clip-path="url(#p448779f557)">
     <use style="fill:#00cc96;stroke:#3d3d3d;stroke-width:0.8;" x="268.632796" xlink:href="#207ef8ee" y="57.359042"/>
    </g>
    <g clip-path="url(#p448779f557)">
     <use style="fill:#00cc96;stroke:#3d3d3d;stroke-width:0.8;" x="271.687545" xlink:href="#207ef8ee" y="22.000298"/>
    </g>
    <g clip-path="url(#p448779f557)">
     <use style="fill:#00cc96;stroke:#3d3d3d;stroke-width:0.8;" x="271.687545" xlink:href="#207ef8ee" y="16.921585"/>
    </g>
    <g clip-path="url(#p448779f557)">
     <use style="fill:#00cc96;stroke:#3d3d3d;stroke-width:0.8;" x="271.687545" xlink:href="#207ef8ee" y="58.916625"/>
    </g>
    <g clip-path="url(#p448779f557)">
     <use style="fill:#00cc96;stroke:#3d3d3d;stroke-width:0.8;" x="271.687545" xlink:href="#207ef8ee" y="43.605253"/>
    </g>
   </g>
   <g id="PathCollection_11">
    <defs>
     <path d="M 0 1.25  C 0.331504 1.25 0.649475 1.118292 0.883883 0.883883  C 1.118292 0.649475 1.25 0.331504 1.25 0  C 1.25 -0.331504 1.118292 -0.649475 0.883883 -0.883883  C 0.649475 -1.118292 0.331504 -1.25 0 -1.25  C -0.331504 -1.25 -0.649475 -1.118292 -0.883883 -0.883883  C -1.118292 -0.649475 -1.25 -0.331504 -1.25 0  C -1.25 0.331504 -1.118292 0.649475 -0.883883 0.883883  C -0.649475 1.118292 -0.331504 1.25 0 1.25  z " id="e647f78b"/>
    </defs>
    <g clip-path="url(#p448779f557)">
     <use style="fill:#ef553b;stroke:#595959;stroke-width:0.8;" x="297.649017" xlink:href="#e647f78b" y="54.80247"/>
    </g>
    <g clip-path="url(#p448779f557)">
     <use style="fill:#ef553b;stroke:#595959;stroke-width:0.8;" x="301.078973" xlink:href="#e647f78b" y="78.622928"/>
    </g>
    <g clip-path="url(#p448779f557)">
     <use style="fill:#ef553b;stroke:#595959;stroke-width:0.8;" x="301.078973" xlink:href="#e647f78b" y="55.270616"/>
    </g>
    <g clip-path="url(#p448779f557)">
     <use style="fill:#ef553b;stroke:#595959;stroke-width:0.8;" x="301.078973" xlink:href="#e647f78b" y="72.953143"/>
    </g>
    <g clip-path="url(#p448779f557)">
     <use style="fill:#ef553b;stroke:#595959;stroke-width:0.8;" x="297.87495" xlink:href="#e647f78b" y="77.366486"/>
    </g>
    <g clip-path="url(#p448779f557)">
     <use style="fill:#ef553b;stroke:#595959;stroke-width:0.8;" x="297.62166" xlink:href="#e647f78b" y="84.033618"/>
    </g>
    <g clip-path="url(#p448779f557)">
     <use style="fill:#ef553b;stroke:#595959;stroke-width:0.8;" x="301.078973" xlink:href="#e647f78b" y="84.2533"/>
    </g>
    <g clip-path="url(#p448779f557)">
     <use style="fill:#ef553b;stroke:#595959;stroke-width:0.8;" x="301.078973" xlink:href="#e647f78b" y="65.250794"/>
    </g>
    <g clip-path="url(#p448779f557)">
     <use style="fill:#ef553b;stroke:#595959;stroke-width:0.8;" x="301.078973" xlink:href="#e647f78b" y="69.183774"/>
    </g>
   </g>
   <g id="PathCollection_12">
    <defs>
     <path d="M 0 1.25  C 0.331504 1.25 0.649475 1.118292 0.883883 0.883883  C 1.118292 0.649475 1.25 0.331504 1.25 0  C 1.25 -0.331504 1.118292 -0.649475 0.883883 -0.883883  C 0.649475 -1.118292 0.331504 -1.25 0 -1.25  C -0.331504 -1.25 -0.649475 -1.118292 -0.883883 -0.883883  C -1.118292 -0.649475 -1.25 -0.331504 -1.25 0  C -1.25 0.331504 -1.118292 0.649475 -0.883883 0.883883  C -0.649475 1.118292 -0.331504 1.25 0 1.25  z " id="67274da2"/>
    </defs>
    <g clip-path="url(#p448779f557)">
     <use style="fill:#00cc96;stroke:#3d3d3d;stroke-width:0.8;" x="320.673259" xlink:href="#67274da2" y="32.097993"/>
    </g>
    <g clip-path="url(#p448779f557)">
     <use style="fill:#00cc96;stroke:#3d3d3d;stroke-width:0.8;" x="320.673259" xlink:href="#67274da2" y="42.963904"/>
    </g>
    <g clip-path="url(#p448779f557)">
     <use style="fill:#00cc96;stroke:#3d3d3d;stroke-width:0.8;" x="320.673259" xlink:href="#67274da2" y="58.373696"/>
    </g>
    <g clip-path="url(#p448779f557)">
     <use style="fill:#00cc96;stroke:#3d3d3d;stroke-width:0.8;" x="320.673259" xlink:href="#67274da2" y="18.962637"/>
    </g>
    <g clip-path="url(#p448779f557)">
     <use style="fill:#00cc96;stroke:#3d3d3d;stroke-width:0.8;" x="320.673259" xlink:href="#67274da2" y="50.080726"/>
    </g>
    <g clip-path="url(#p448779f557)">
     <use style="fill:#00cc96;stroke:#3d3d3d;stroke-width:0.8;" x="320.673259" xlink:href="#67274da2" y="28.716213"/>
    </g>
    <g clip-path="url(#p448779f557)">
     <use style="fill:#00cc96;stroke:#3d3d3d;stroke-width:0.8;" x="320.187412" xlink:href="#67274da2" y="15.695238"/>
    </g>
    <g clip-path="url(#p448779f557)">
     <use style="fill:#00cc96;stroke:#3d3d3d;stroke-width:0.8;" x="318.273588" xlink:href="#67274da2" y="55.993162"/>
    </g>
    <g clip-path="url(#p448779f557)">
     <use style="fill:#00cc96;stroke:#3d3d3d;stroke-width:0.8;" x="320.673259" xlink:href="#67274da2" y="46.44623"/>
    </g>
   </g>
   <g id="PathCollection_13">
    <defs>
     <path d="M 0 1.25  C 0.331504 1.25 0.649475 1.118292 0.883883 0.883883  C 1.118292 0.649475 1.25 0.331504 1.25 0  C 1.25 -0.331504 1.118292 -0.649475 0.883883 -0.883883  C 0.649475 -1.118292 0.331504 -1.25 0 -1.25  C -0.331504 -1.25 -0.649475 -1.118292 -0.883883 -0.883883  C -1.118292 -0.649475 -1.25 -0.331504 -1.25 0  C -1.25 0.331504 -1.118292 0.649475 -0.883883 0.883883  C -0.649475 1.118292 -0.331504 1.25 0 1.25  z " id="6951c600"/>
    </defs>
    <g clip-path="url(#p448779f557)">
     <use style="fill:#ef553b;stroke:#595959;stroke-width:0.8;" x="353.497574" xlink:href="#6951c600" y="47.931166"/>
    </g>
    <g clip-path="url(#p448779f557)">
     <use style="fill:#ef553b;stroke:#595959;stroke-width:0.8;" x="347.098124" xlink:href="#6951c600" y="50.514156"/>
    </g>
    <g clip-path="url(#p448779f557)">
     <use style="fill:#ef553b;stroke:#595959;stroke-width:0.8;" x="350.064687" xlink:href="#6951c600" y="31.419911"/>
    </g>
    <g clip-path="url(#p448779f557)">
     <use style="fill:#ef553b;stroke:#595959;stroke-width:0.8;" x="350.064687" xlink:href="#6951c600" y="43.724919"/>
    </g>
    <g clip-path="url(#p448779f557)">
     <use style="fill:#ef553b;stroke:#595959;stroke-width:0.8;" x="346.916087" xlink:href="#6951c600" y="84.340668"/>
    </g>
    <g clip-path="url(#p448779f557)">
     <use style="fill:#ef553b;stroke:#595959;stroke-width:0.8;" x="350.064687" xlink:href="#6951c600" y="52.219351"/>
    </g>
    <g clip-path="url(#p448779f557)">
     <use style="fill:#ef553b;stroke:#595959;stroke-width:0.8;" x="350.064687" xlink:href="#6951c600" y="102.898494"/>
    </g>
    <g clip-path="url(#p448779f557)">
     <use style="fill:#ef553b;stroke:#595959;stroke-width:0.8;" x="350.064687" xlink:href="#6951c600" y="48.37941"/>
    </g>
    <g clip-path="url(#p448779f557)">
     <use style="fill:#ef553b;stroke:#595959;stroke-width:0.8;" x="350.064687" xlink:href="#6951c600" y="85.718346"/>
    </g>
   </g>
   <g id="PathCollection_14">
    <defs>
     <path d="M 0 1.25  C 0.331504 1.25 0.649475 1.118292 0.883883 0.883883  C 1.118292 0.649475 1.25 0.331504 1.25 0  C 1.25 -0.331504 1.118292 -0.649475 0.883883 -0.883883  C 0.649475 -1.118292 0.331504 -1.25 0 -1.25  C -0.331504 -1.25 -0.649475 -1.118292 -0.883883 -0.883883  C -1.118292 -0.649475 -1.25 -0.331504 -1.25 0  C -1.25 0.331504 -1.118292 0.649475 -0.883883 0.883883  C -0.649475 1.118292 -0.331504 1.25 0 1.25  z " id="60e1caae"/>
    </defs>
    <g clip-path="url(#p448779f557)">
     <use style="fill:#00cc96;stroke:#3d3d3d;stroke-width:0.8;" x="367.631815" xlink:href="#60e1caae" y="37.551373"/>
    </g>
    <g clip-path="url(#p448779f557)">
     <use style="fill:#00cc96;stroke:#3d3d3d;stroke-width:0.8;" x="369.658973" xlink:href="#60e1caae" y="54.526607"/>
    </g>
    <g clip-path="url(#p448779f557)">
     <use style="fill:#00cc96;stroke:#3d3d3d;stroke-width:0.8;" x="369.658973" xlink:href="#60e1caae" y="67.377105"/>
    </g>
    <g clip-path="url(#p448779f557)">
     <use style="fill:#00cc96;stroke:#3d3d3d;stroke-width:0.8;" x="367.01914" xlink:href="#60e1caae" y="52.389046"/>
    </g>
    <g clip-path="url(#p448779f557)">
     <use style="fill:#00cc96;stroke:#3d3d3d;stroke-width:0.8;" x="366.410345" xlink:href="#60e1caae" y="66.229242"/>
    </g>
    <g clip-path="url(#p448779f557)">
     <use style="fill:#00cc96;stroke:#3d3d3d;stroke-width:0.8;" x="369.300901" xlink:href="#60e1caae" y="25.746856"/>
    </g>
    <g clip-path="url(#p448779f557)">
     <use style="fill:#00cc96;stroke:#3d3d3d;stroke-width:0.8;" x="369.658973" xlink:href="#60e1caae" y="29.029188"/>
    </g>
    <g clip-path="url(#p448779f557)">
     <use style="fill:#00cc96;stroke:#3d3d3d;stroke-width:0.8;" x="369.658973" xlink:href="#60e1caae" y="49.649971"/>
    </g>
    <g clip-path="url(#p448779f557)">
     <use style="fill:#00cc96;stroke:#3d3d3d;stroke-width:0.8;" x="369.658973" xlink:href="#60e1caae" y="40.227691"/>
    </g>
   </g>
   <g id="legend_1">
    <g id="patch_19">
     <path d="M 391.354687 152.38  L 498.054687 152.38  Q 500.054687 152.38 500.054687 150.38  L 500.054687 113.78  Q 500.054687 111.78 498.054687 111.78  L 391.354687 111.78  Q 389.354687 111.78 389.354687 113.78  L 389.354687 150.38  Q 389.354687 152.38 391.354687 152.38  z " style="fill:#ffffff;opacity:0.8;stroke:#cccccc;stroke-linejoin:miter;"/>
    </g>
    <g id="patch_20">
     <path d="M 393.354687 125.48  L 413.354687 125.48  L 413.354687 118.48  L 393.354687 118.48  z " style="fill:#dd624d;"/>
    </g>
    <g id="text_17">
     <!-- tdTomato$ = \frac{O}{A + O}$ -->
     <defs>
      <path d="M 25.78125 7.859375  L 27.046875 0.09375  Q 23.34375 -0.6875 20.40625 -0.6875  Q 15.625 -0.6875 12.984375 0.828125  Q 10.359375 2.34375 9.28125 4.8125  Q 8.203125 7.28125 8.203125 15.1875  L 8.203125 45.015625  L 1.765625 45.015625  L 1.765625 51.859375  L 8.203125 51.859375  L 8.203125 64.703125  L 16.9375 69.96875  L 16.9375 51.859375  L 25.78125 51.859375  L 25.78125 45.015625  L 16.9375 45.015625  L 16.9375 14.703125  Q 16.9375 10.9375 17.40625 9.859375  Q 17.875 8.796875 18.921875 8.15625  Q 19.96875 7.515625 21.921875 7.515625  Q 23.390625 7.515625 25.78125 7.859375  z " id="524bd391"/>
      <path d="M 40.234375 0  L 40.234375 6.546875  Q 35.296875 -1.171875 25.734375 -1.171875  Q 19.53125 -1.171875 14.328125 2.25  Q 9.125 5.671875 6.265625 11.796875  Q 3.421875 17.921875 3.421875 25.875  Q 3.421875 33.640625 6 39.96875  Q 8.59375 46.296875 13.765625 49.65625  Q 18.953125 53.03125 25.34375 53.03125  Q 30.03125 53.03125 33.6875 51.046875  Q 37.359375 49.078125 39.65625 45.90625  L 39.65625 71.578125  L 48.390625 71.578125  L 48.390625 0  z M 12.453125 25.875  Q 12.453125 15.921875 16.640625 10.984375  Q 20.84375 6.0625 26.5625 6.0625  Q 32.328125 6.0625 36.34375 10.765625  Q 40.375 15.484375 40.375 25.140625  Q 40.375 35.796875 36.265625 40.765625  Q 32.171875 45.75 26.171875 45.75  Q 20.3125 45.75 16.375 40.96875  Q 12.453125 36.1875 12.453125 25.875  z " id="ba3099ee"/>
      <path d="M 25.921875 0  L 25.921875 63.140625  L 2.34375 63.140625  L 2.34375 71.578125  L 59.078125 71.578125  L 59.078125 63.140625  L 35.40625 63.140625  L 35.40625 0  z " id="c772ed09"/>
      <path d="M 3.328125 25.921875  Q 3.328125 40.328125 11.328125 47.265625  Q 18.015625 53.03125 27.640625 53.03125  Q 38.328125 53.03125 45.109375 46.015625  Q 51.90625 39.015625 51.90625 26.65625  Q 51.90625 16.65625 48.90625 10.90625  Q 45.90625 5.171875 40.15625 2  Q 34.421875 -1.171875 27.640625 -1.171875  Q 16.75 -1.171875 10.03125 5.8125  Q 3.328125 12.796875 3.328125 25.921875  z M 12.359375 25.921875  Q 12.359375 15.96875 16.703125 11.015625  Q 21.046875 6.0625 27.640625 6.0625  Q 34.1875 6.0625 38.53125 11.03125  Q 42.875 16.015625 42.875 26.21875  Q 42.875 35.84375 38.5 40.796875  Q 34.125 45.75 27.640625 45.75  Q 21.046875 45.75 16.703125 40.8125  Q 12.359375 35.890625 12.359375 25.921875  z " id="05a99727"/>
      <path d="M 6.59375 0  L 6.59375 51.859375  L 14.453125 51.859375  L 14.453125 44.578125  Q 16.890625 48.390625 20.9375 50.703125  Q 25 53.03125 30.171875 53.03125  Q 35.9375 53.03125 39.625 50.640625  Q 43.3125 48.25 44.828125 43.953125  Q 50.984375 53.03125 60.84375 53.03125  Q 68.5625 53.03125 72.703125 48.75  Q 76.859375 44.484375 76.859375 35.59375  L 76.859375 0  L 68.109375 0  L 68.109375 32.671875  Q 68.109375 37.9375 67.25 40.25  Q 66.40625 42.578125 64.15625 43.984375  Q 61.921875 45.40625 58.890625 45.40625  Q 53.421875 45.40625 49.796875 41.765625  Q 46.1875 38.140625 46.1875 30.125  L 46.1875 0  L 37.40625 0  L 37.40625 33.6875  Q 37.40625 39.546875 35.25 42.46875  Q 33.109375 45.40625 28.21875 45.40625  Q 24.515625 45.40625 21.359375 43.453125  Q 18.21875 41.5 16.796875 37.734375  Q 15.375 33.984375 15.375 26.90625  L 15.375 0  z " id="dc832687"/>
      <path d="M 10.59375 45.40625  L 73.1875 45.40625  L 73.1875 37.203125  L 10.59375 37.203125  z M 10.59375 25.484375  L 73.1875 25.484375  L 73.1875 17.1875  L 10.59375 17.1875  z " id="b33c857a"/>
      <path d="M 45.609375 66.21875  Q 37.5 66.21875 31.296875 62.28125  Q 25.09375 58.34375 20.515625 50.296875  Q 17.578125 45.171875 16.03125 39.40625  Q 14.5 33.640625 14.5 27.78125  Q 14.5 17.625 19.359375 12.109375  Q 24.21875 6.59375 33.109375 6.59375  Q 41.109375 6.59375 47.375 10.5625  Q 53.65625 14.546875 58.109375 22.40625  Q 61.078125 27.6875 62.640625 33.46875  Q 64.203125 39.265625 64.203125 45.015625  Q 64.203125 55.125 59.3125 60.671875  Q 54.4375 66.21875 45.609375 66.21875  z M 32.8125 -1.421875  Q 19.390625 -1.421875 11.6875 6.53125  Q 4 14.5 4 28.328125  Q 4 36.234375 7 44.484375  Q 10.015625 52.734375 15.28125 59.1875  Q 21.484375 66.75 29.09375 70.484375  Q 36.71875 74.21875 45.90625 74.21875  Q 59.28125 74.21875 66.984375 66.328125  Q 74.703125 58.453125 74.703125 44.828125  Q 74.703125 36.421875 71.765625 28.3125  Q 68.84375 20.21875 63.375 13.625  Q 57.125 6 49.578125 2.28125  Q 42.046875 -1.421875 32.8125 -1.421875  z " id="eeb4a1f2"/>
      <path d="M 36.8125 72.90625  L 48 72.90625  L 61.53125 0  L 51.21875 0  L 48.1875 18.703125  L 15.375 18.703125  L 5.078125 0  L -5.328125 0  z M 40.375 63.1875  L 19.921875 26.90625  L 46.6875 26.90625  z " id="98a38ec4"/>
      <path d="M 46 62.703125  L 46 35.5  L 73.1875 35.5  L 73.1875 27.203125  L 46 27.203125  L 46 0  L 37.796875 0  L 37.796875 27.203125  L 10.59375 27.203125  L 10.59375 35.5  L 37.796875 35.5  L 37.796875 62.703125  z " id="7b0a72a7"/>
     </defs>
     <g transform="translate(421.354687 125.48)scale(0.1 -0.1)">
      <use transform="translate(0 0.254687)" xlink:href="#524bd391"/>
      <use transform="translate(27.783203 0.254687)" xlink:href="#ba3099ee"/>
      <use transform="translate(83.398438 0.254687)" xlink:href="#c772ed09"/>
      <use transform="translate(144.482422 0.254687)" xlink:href="#05a99727"/>
      <use transform="translate(200.097656 0.254687)" xlink:href="#dc832687"/>
      <use transform="translate(283.398438 0.254687)" xlink:href="#7dbf9739"/>
      <use transform="translate(339.013672 0.254687)" xlink:href="#524bd391"/>
      <use transform="translate(366.796875 0.254687)" xlink:href="#05a99727"/>
      <use transform="translate(441.894531 0.254687)" xlink:href="#b33c857a"/>
      <use transform="translate(612.166016 45.046875)scale(0.7)" xlink:href="#eeb4a1f2"/>
      <use transform="translate(545.166016 -39.151563)scale(0.7)" xlink:href="#98a38ec4"/>
      <use transform="translate(606.689453 -39.151563)scale(0.7)" xlink:href="#7b0a72a7"/>
      <use transform="translate(678.979492 -39.151563)scale(0.7)" xlink:href="#eeb4a1f2"/>
      <path d="M 545.166016 19.051563  L 545.166016 25.301563  L 734.077148 25.301563  L 734.077148 19.051563  L 545.166016 19.051563  z "/>
     </g>
    </g>
    <g id="patch_21">
     <path d="M 393.354687 144.28  L 413.354687 144.28  L 413.354687 137.28  L 393.354687 137.28  z " style="fill:#14b88c;"/>
    </g>
    <g id="text_18">
     <!-- GCaMP$ = \frac{O}{B + O}$ -->
     <defs>
      <path d="M 41.21875 28.078125  L 41.21875 36.46875  L 71.53125 36.53125  L 71.53125 9.96875  Q 64.546875 4.390625 57.125 1.578125  Q 49.703125 -1.21875 41.890625 -1.21875  Q 31.34375 -1.21875 22.71875 3.296875  Q 14.109375 7.8125 9.71875 16.359375  Q 5.328125 24.90625 5.328125 35.453125  Q 5.328125 45.90625 9.6875 54.953125  Q 14.0625 64.015625 22.265625 68.40625  Q 30.46875 72.796875 41.15625 72.796875  Q 48.921875 72.796875 55.1875 70.28125  Q 61.46875 67.78125 65.03125 63.28125  Q 68.609375 58.796875 70.453125 51.5625  L 61.921875 49.21875  Q 60.296875 54.6875 57.90625 57.8125  Q 55.515625 60.9375 51.0625 62.8125  Q 46.625 64.703125 41.21875 64.703125  Q 34.71875 64.703125 29.984375 62.71875  Q 25.25 60.75 22.34375 57.515625  Q 19.4375 54.296875 17.828125 50.4375  Q 15.09375 43.796875 15.09375 36.03125  Q 15.09375 26.46875 18.390625 20.015625  Q 21.6875 13.578125 27.984375 10.453125  Q 34.28125 7.328125 41.359375 7.328125  Q 47.515625 7.328125 53.375 9.6875  Q 59.234375 12.0625 62.25 14.75  L 62.25 28.078125  z " id="c263fba1"/>
      <path d="M 58.796875 25.09375  L 68.265625 22.703125  Q 65.28125 11.03125 57.546875 4.90625  Q 49.8125 -1.21875 38.625 -1.21875  Q 27.046875 -1.21875 19.796875 3.484375  Q 12.546875 8.203125 8.765625 17.140625  Q 4.984375 26.078125 4.984375 36.328125  Q 4.984375 47.515625 9.25 55.828125  Q 13.53125 64.15625 21.40625 68.46875  Q 29.296875 72.796875 38.765625 72.796875  Q 49.515625 72.796875 56.828125 67.328125  Q 64.15625 61.859375 67.046875 51.953125  L 57.71875 49.75  Q 55.21875 57.5625 50.484375 61.125  Q 45.75 64.703125 38.578125 64.703125  Q 30.328125 64.703125 24.78125 60.734375  Q 19.234375 56.78125 16.984375 50.109375  Q 14.75 43.453125 14.75 36.375  Q 14.75 27.25 17.40625 20.4375  Q 20.0625 13.625 25.671875 10.25  Q 31.296875 6.890625 37.84375 6.890625  Q 45.796875 6.890625 51.3125 11.46875  Q 56.84375 16.0625 58.796875 25.09375  z " id="0a939edf"/>
      <path d="M 7.421875 0  L 7.421875 71.578125  L 21.6875 71.578125  L 38.625 20.90625  Q 40.96875 13.8125 42.046875 10.296875  Q 43.265625 14.203125 45.84375 21.78125  L 62.984375 71.578125  L 75.734375 71.578125  L 75.734375 0  L 66.609375 0  L 66.609375 59.90625  L 45.796875 0  L 37.25 0  L 16.546875 60.9375  L 16.546875 0  z " id="86e4cd15"/>
      <path d="M 7.71875 0  L 7.71875 71.578125  L 34.71875 71.578125  Q 41.84375 71.578125 45.609375 70.90625  Q 50.875 70.015625 54.4375 67.546875  Q 58.015625 65.09375 60.1875 60.640625  Q 62.359375 56.203125 62.359375 50.875  Q 62.359375 41.75 56.546875 35.421875  Q 50.734375 29.109375 35.546875 29.109375  L 17.1875 29.109375  L 17.1875 0  z M 17.1875 37.546875  L 35.6875 37.546875  Q 44.875 37.546875 48.734375 40.96875  Q 52.59375 44.390625 52.59375 50.59375  Q 52.59375 55.078125 50.3125 58.265625  Q 48.046875 61.46875 44.34375 62.5  Q 41.9375 63.140625 35.5 63.140625  L 17.1875 63.140625  z " id="a4af067c"/>
      <path d="M 16.890625 72.90625  L 42.09375 72.90625  Q 52.34375 72.90625 57.421875 69.09375  Q 62.5 65.28125 62.5 57.625  Q 62.5 50.59375 58.125 45.484375  Q 53.765625 40.375 46.6875 39.3125  Q 52.734375 37.9375 55.765625 34.078125  Q 58.796875 30.21875 58.796875 23.78125  Q 58.796875 12.796875 50.65625 6.390625  Q 42.53125 0 28.421875 0  L 2.6875 0  z M 19.28125 34.8125  L 14.109375 8.109375  L 29.984375 8.109375  Q 38.921875 8.109375 43.75 12.203125  Q 48.578125 16.3125 48.578125 23.78125  Q 48.578125 29.546875 45.375 32.171875  Q 42.1875 34.8125 35.109375 34.8125  z M 25.09375 64.796875  L 20.796875 42.828125  L 35.5 42.828125  Q 43.359375 42.828125 47.78125 46.234375  Q 52.203125 49.65625 52.203125 55.71875  Q 52.203125 60.453125 49.21875 62.625  Q 46.234375 64.796875 39.703125 64.796875  z " id="40bb310a"/>
     </defs>
     <g transform="translate(421.354687 144.28)scale(0.1 -0.1)">
      <use transform="translate(0 0.254687)" xlink:href="#c263fba1"/>
      <use transform="translate(77.783203 0.254687)" xlink:href="#0a939edf"/>
      <use transform="translate(150 0.254687)" xlink:href="#7dbf9739"/>
      <use transform="translate(205.615234 0.254687)" xlink:href="#86e4cd15"/>
      <use transform="translate(288.916016 0.254687)" xlink:href="#a4af067c"/>
      <use transform="translate(375.097656 0.254687)" xlink:href="#b33c857a"/>
      <use transform="translate(545.369141 45.046875)scale(0.7)" xlink:href="#eeb4a1f2"/>
      <use transform="translate(478.369141 -39.151563)scale(0.7)" xlink:href="#40bb310a"/>
      <use transform="translate(540.029297 -39.151563)scale(0.7)" xlink:href="#7b0a72a7"/>
      <use transform="translate(612.319336 -39.151563)scale(0.7)" xlink:href="#eeb4a1f2"/>
      <path d="M 478.369141 19.051563  L 478.369141 25.301563  L 667.416992 25.301563  L 667.416992 19.051563  L 478.369141 19.051563  z "/>
     </g>
    </g>
   </g>
  </g>
  <g id="axes_2">
   <g id="patch_22">
    <path clip-path="url(#p73dd6b1b8a)" d="M 449.649187 67.993111  C 445.75092 66.271594 442.435953 63.45332 440.109591 59.882865  C 437.783229 56.312409 436.54431 52.141468 436.54431 47.88  C 436.54431 43.618532 437.783229 39.447591 440.109591 35.877135  C 442.435953 32.30668 445.75092 29.488406 449.649187 27.766889  C 446.302358 26.288893 442.638952 25.669378 438.992238 25.964703  C 435.345524 26.260027 431.829545 27.460956 428.764156 29.458237  C 425.698768 31.455518 423.179833 34.186692 421.436506 37.403297  C 419.693178 40.619902 418.779977 44.221347 418.779977 47.88  C 418.779977 51.538653 419.693178 55.140098 421.436506 58.356703  C 423.179833 61.573308 425.698768 64.304482 428.764156 66.301763  C 431.829545 68.299044 435.345524 69.499973 438.992238 69.795297  C 442.638952 70.090622 446.302358 69.471107 449.649187 67.993111  " style="fill:#ff0000;opacity:0.4;"/>
   </g>
   <g id="patch_23">
    <path clip-path="url(#p73dd6b1b8a)" d="M 449.649187 27.766889  C 453.547455 29.488406 456.862422 32.30668 459.188784 35.877135  C 461.515146 39.447591 462.754065 43.618532 462.754065 47.88  C 462.754065 52.141468 461.515146 56.312409 459.188784 59.882865  C 456.862422 63.45332 453.547455 66.271594 449.649187 67.993111  C 452.996017 69.471107 456.659423 70.090622 460.306137 69.795297  C 463.952851 69.499973 467.46883 68.299044 470.534219 66.301763  C 473.599607 64.304482 476.118542 61.573308 477.861869 58.356703  C 479.605197 55.140098 480.518398 51.538653 480.518398 47.88  C 480.518398 44.221347 479.605197 40.619902 477.861869 37.403297  C 476.118542 34.186692 473.599607 31.455518 470.534219 29.458237  C 467.46883 27.460956 463.952851 26.260027 460.306137 25.964703  C 456.659423 25.669378 452.996017 26.288893 449.649187 27.766889  " style="fill:#008000;opacity:0.4;"/>
   </g>
   <g id="patch_24">
    <path clip-path="url(#p73dd6b1b8a)" d="M 449.649187 67.993111  C 453.547455 66.271594 456.862422 63.45332 459.188784 59.882865  C 461.515146 56.312409 462.754065 52.141468 462.754065 47.88  C 462.754065 43.618532 461.515146 39.447591 459.188784 35.877135  C 456.862422 32.30668 453.547455 29.488406 449.649187 27.766889  C 445.75092 29.488406 442.435953 32.30668 440.109591 35.877135  C 437.783229 39.447591 436.54431 43.618532 436.54431 47.88  C 436.54431 52.141468 437.783229 56.312409 440.109591 59.882865  C 442.435953 63.45332 445.75092 66.271594 449.649187 67.993111  " style="fill:#b25900;opacity:0.4;"/>
   </g>
   <g id="text_19">
    <!-- A -->
    <defs>
     <path d="M -0.140625 0  L 27.34375 71.578125  L 37.546875 71.578125  L 66.84375 0  L 56.0625 0  L 47.703125 21.6875  L 17.78125 21.6875  L 9.90625 0  z M 20.515625 29.390625  L 44.78125 29.390625  L 37.3125 49.21875  Q 33.890625 58.25 32.234375 64.0625  Q 30.859375 57.171875 28.375 50.390625  z " id="fa757255"/>
    </defs>
    <g transform="translate(424.326987 50.465156)scale(0.1 -0.1)">
     <use xlink:href="#fa757255"/>
    </g>
   </g>
   <g id="text_20">
    <!-- B -->
    <defs>
     <path d="M 7.328125 0  L 7.328125 71.578125  L 34.1875 71.578125  Q 42.390625 71.578125 47.34375 69.40625  Q 52.296875 67.234375 55.09375 62.71875  Q 57.90625 58.203125 57.90625 53.265625  Q 57.90625 48.6875 55.421875 44.625  Q 52.9375 40.578125 47.90625 38.09375  Q 54.390625 36.1875 57.875 31.59375  Q 61.375 27 61.375 20.75  Q 61.375 15.71875 59.25 11.390625  Q 57.125 7.078125 54 4.734375  Q 50.875 2.390625 46.15625 1.1875  Q 41.453125 0 34.625 0  z M 16.796875 41.5  L 32.28125 41.5  Q 38.578125 41.5 41.3125 42.328125  Q 44.921875 43.40625 46.75 45.890625  Q 48.578125 48.390625 48.578125 52.15625  Q 48.578125 55.71875 46.875 58.421875  Q 45.171875 61.140625 41.984375 62.140625  Q 38.8125 63.140625 31.109375 63.140625  L 16.796875 63.140625  z M 16.796875 8.453125  L 34.625 8.453125  Q 39.203125 8.453125 41.0625 8.796875  Q 44.34375 9.375 46.53125 10.734375  Q 48.734375 12.109375 50.140625 14.71875  Q 51.5625 17.328125 51.5625 20.75  Q 51.5625 24.75 49.515625 27.703125  Q 47.46875 30.671875 43.828125 31.859375  Q 40.1875 33.0625 33.34375 33.0625  L 16.796875 33.0625  z " id="bfed7973"/>
    </defs>
    <g transform="translate(468.301075 50.465156)scale(0.1 -0.1)">
     <use xlink:href="#bfed7973"/>
    </g>
   </g>
   <g id="text_21">
    <!-- O -->
    <defs>
     <path d="M 4.828125 34.859375  Q 4.828125 52.6875 14.390625 62.765625  Q 23.96875 72.859375 39.109375 72.859375  Q 49.03125 72.859375 56.984375 68.109375  Q 64.9375 63.375 69.109375 54.90625  Q 73.296875 46.4375 73.296875 35.6875  Q 73.296875 24.8125 68.890625 16.21875  Q 64.5 7.625 56.4375 3.203125  Q 48.390625 -1.21875 39.0625 -1.21875  Q 28.953125 -1.21875 20.984375 3.65625  Q 13.03125 8.546875 8.921875 16.984375  Q 4.828125 25.4375 4.828125 34.859375  z M 14.59375 34.71875  Q 14.59375 21.78125 21.546875 14.328125  Q 28.515625 6.890625 39.015625 6.890625  Q 49.703125 6.890625 56.609375 14.40625  Q 63.53125 21.921875 63.53125 35.75  Q 63.53125 44.484375 60.578125 51  Q 57.625 57.515625 51.921875 61.109375  Q 46.234375 64.703125 39.15625 64.703125  Q 29.109375 64.703125 21.84375 57.78125  Q 14.59375 50.875 14.59375 34.71875  z " id="c0d30a15"/>
    </defs>
    <g transform="translate(445.760125 50.465156)scale(0.1 -0.1)">
     <use xlink:href="#c0d30a15"/>
    </g>
   </g>
   <g id="text_22">
    <!-- tdTomato -->
    <g transform="translate(391.417021 80.655124)scale(0.12 -0.12)">
     <use xlink:href="#524bd391"/>
     <use x="27.783203" xlink:href="#ba3099ee"/>
     <use x="83.398438" xlink:href="#c772ed09"/>
     <use x="133.357422" xlink:href="#05a99727"/>
     <use x="188.972656" xlink:href="#dc832687"/>
     <use x="272.273438" xlink:href="#7dbf9739"/>
     <use x="327.888672" xlink:href="#524bd391"/>
     <use x="355.671875" xlink:href="#05a99727"/>
    </g>
    <!-- cells -->
    <defs>
     <path d="M 40.4375 19  L 49.078125 17.875  Q 47.65625 8.9375 41.8125 3.875  Q 35.984375 -1.171875 27.484375 -1.171875  Q 16.84375 -1.171875 10.375 5.78125  Q 3.90625 12.75 3.90625 25.734375  Q 3.90625 34.125 6.6875 40.421875  Q 9.46875 46.734375 15.15625 49.875  Q 20.84375 53.03125 27.546875 53.03125  Q 35.984375 53.03125 41.359375 48.75  Q 46.734375 44.484375 48.25 36.625  L 39.703125 35.296875  Q 38.484375 40.53125 35.375 43.15625  Q 32.28125 45.796875 27.875 45.796875  Q 21.234375 45.796875 17.078125 41.03125  Q 12.9375 36.28125 12.9375 25.984375  Q 12.9375 15.53125 16.9375 10.796875  Q 20.953125 6.0625 27.390625 6.0625  Q 32.5625 6.0625 36.03125 9.234375  Q 39.5 12.40625 40.4375 19  z " id="b4ea0aba"/>
     <path d="M 42.09375 16.703125  L 51.171875 15.578125  Q 49.03125 7.625 43.21875 3.21875  Q 37.40625 -1.171875 28.375 -1.171875  Q 17 -1.171875 10.328125 5.828125  Q 3.65625 12.84375 3.65625 25.484375  Q 3.65625 38.578125 10.390625 45.796875  Q 17.140625 53.03125 27.875 53.03125  Q 38.28125 53.03125 44.875 45.953125  Q 51.46875 38.875 51.46875 26.03125  Q 51.46875 25.25 51.421875 23.6875  L 12.75 23.6875  Q 13.234375 15.140625 17.578125 10.59375  Q 21.921875 6.0625 28.421875 6.0625  Q 33.25 6.0625 36.671875 8.59375  Q 40.09375 11.140625 42.09375 16.703125  z M 13.234375 30.90625  L 42.1875 30.90625  Q 41.609375 37.453125 38.875 40.71875  Q 34.671875 45.796875 27.984375 45.796875  Q 21.921875 45.796875 17.796875 41.75  Q 13.671875 37.703125 13.234375 30.90625  z " id="de6c9b8e"/>
     <path d="M 6.390625 0  L 6.390625 71.578125  L 15.1875 71.578125  L 15.1875 0  z " id="f6d0b0af"/>
     <path d="M 3.078125 15.484375  L 11.765625 16.84375  Q 12.5 11.625 15.84375 8.84375  Q 19.1875 6.0625 25.203125 6.0625  Q 31.25 6.0625 34.171875 8.515625  Q 37.109375 10.984375 37.109375 14.3125  Q 37.109375 17.28125 34.515625 19  Q 32.71875 20.171875 25.53125 21.96875  Q 15.875 24.421875 12.140625 26.203125  Q 8.40625 27.984375 6.46875 31.125  Q 4.546875 34.28125 4.546875 38.09375  Q 4.546875 41.546875 6.125 44.5  Q 7.71875 47.46875 10.453125 49.421875  Q 12.5 50.921875 16.03125 51.96875  Q 19.578125 53.03125 23.640625 53.03125  Q 29.734375 53.03125 34.34375 51.265625  Q 38.96875 49.515625 41.15625 46.5  Q 43.359375 43.5 44.1875 38.484375  L 35.59375 37.3125  Q 35.015625 41.3125 32.203125 43.546875  Q 29.390625 45.796875 24.265625 45.796875  Q 18.21875 45.796875 15.625 43.796875  Q 13.03125 41.796875 13.03125 39.109375  Q 13.03125 37.40625 14.109375 36.03125  Q 15.1875 34.625 17.484375 33.6875  Q 18.796875 33.203125 25.25 31.453125  Q 34.578125 28.953125 38.25 27.359375  Q 41.9375 25.78125 44.03125 22.75  Q 46.140625 19.734375 46.140625 15.234375  Q 46.140625 10.84375 43.578125 6.953125  Q 41.015625 3.078125 36.171875 0.953125  Q 31.34375 -1.171875 25.25 -1.171875  Q 15.140625 -1.171875 9.84375 3.03125  Q 4.546875 7.234375 3.078125 15.484375  z " id="2dc678e7"/>
    </defs>
    <g transform="translate(416.761396 93.347374)scale(0.12 -0.12)">
     <use xlink:href="#b4ea0aba"/>
     <use x="50" xlink:href="#de6c9b8e"/>
     <use x="105.615234" xlink:href="#f6d0b0af"/>
     <use x="127.832031" xlink:href="#f6d0b0af"/>
     <use x="150.048828" xlink:href="#2dc678e7"/>
    </g>
   </g>
   <g id="text_23">
    <!-- GCaMP -->
    <g transform="translate(458.531354 80.655124)scale(0.12 -0.12)">
     <use xlink:href="#c263fba1"/>
     <use x="77.783203" xlink:href="#0a939edf"/>
     <use x="150" xlink:href="#7dbf9739"/>
     <use x="205.615234" xlink:href="#86e4cd15"/>
     <use x="288.916016" xlink:href="#a4af067c"/>
    </g>
    <!-- cells -->
    <g transform="translate(458.531354 93.347374)scale(0.12 -0.12)">
     <use xlink:href="#b4ea0aba"/>
     <use x="50" xlink:href="#de6c9b8e"/>
     <use x="105.615234" xlink:href="#f6d0b0af"/>
     <use x="127.832031" xlink:href="#f6d0b0af"/>
     <use x="150.048828" xlink:href="#2dc678e7"/>
    </g>
   </g>
  </g>
 </g>
 <defs>
  <clipPath id="p448779f557">
   <rect height="178.4" width="342.9" x="41.454688" y="7.2"/>
  </clipPath>
  <clipPath id="p73dd6b1b8a">
   <rect height="53.52" width="71.284334" x="414.007021" y="21.12"/>
  </clipPath>
 </defs>
</svg>
