<!DOCTYPE svg PUBLIC "-//W3C//DTD SVG 1.1//EN" "http://www.w3.org/Graphics/SVG/1.1/DTD/svg11.dtd">
<!-- Created with matplotlib (https://matplotlib.org/) -->
<svg xmlns="http://www.w3.org/2000/svg" xmlns:xlink="http://www.w3.org/1999/xlink" height="209.092187pt" version="1.1" viewBox="0 0 496.160937 209.092187" width="496.160937pt">
 <defs>
  <style type="text/css">
*{stroke-linecap:butt;stroke-linejoin:round;}
  </style>
 </defs>
 <g id="figure_1">
  <g id="patch_1">
   <path d="M 0 209.092187  L 496.160937 209.092187  L 496.160937 0  L 0 0  z " style="fill:#ffffff;"/>
  </g>
  <g id="axes_1">
   <g id="patch_2">
    <path d="M 44.028125 185.6  L 384.053125 185.6  L 384.053125 7.2  L 44.028125 7.2  z " style="fill:#ffffff;"/>
   </g>
   <g id="patch_3">
    <path clip-path="url(#p9dcf599ca1)" d="M 48.885625 185.6  L 68.315625 185.6  L 68.315625 87.020031  L 48.885625 87.020031  z " style="fill:#dd624d;"/>
   </g>
   <g id="patch_4">
    <path clip-path="url(#p9dcf599ca1)" d="M 97.460625 185.6  L 116.890625 185.6  L 116.890625 89.326705  L 97.460625 89.326705  z " style="fill:#dd624d;"/>
   </g>
   <g id="patch_5">
    <path clip-path="url(#p9dcf599ca1)" d="M 146.035625 185.6  L 165.465625 185.6  L 165.465625 82.831596  L 146.035625 82.831596  z " style="fill:#dd624d;"/>
   </g>
   <g id="patch_6">
    <path clip-path="url(#p9dcf599ca1)" d="M 194.610625 185.6  L 214.040625 185.6  L 214.040625 84.956165  L 194.610625 84.956165  z " style="fill:#dd624d;"/>
   </g>
   <g id="patch_7">
    <path clip-path="url(#p9dcf599ca1)" d="M 243.185625 185.6  L 262.615625 185.6  L 262.615625 84.227741  L 243.185625 84.227741  z " style="fill:#dd624d;"/>
   </g>
   <g id="patch_8">
    <path clip-path="url(#p9dcf599ca1)" d="M 291.760625 185.6  L 311.190625 185.6  L 311.190625 83.074404  L 291.760625 83.074404  z " style="fill:#dd624d;"/>
   </g>
   <g id="patch_9">
    <path clip-path="url(#p9dcf599ca1)" d="M 340.335625 185.6  L 359.765625 185.6  L 359.765625 89.508811  L 340.335625 89.508811  z " style="fill:#dd624d;"/>
   </g>
   <g id="patch_10">
    <path clip-path="url(#p9dcf599ca1)" d="M 68.315625 185.6  L 87.745625 185.6  L 87.745625 104.927107  L 68.315625 104.927107  z " style="fill:#14b88c;"/>
   </g>
   <g id="patch_11">
    <path clip-path="url(#p9dcf599ca1)" d="M 116.890625 185.6  L 136.320625 185.6  L 136.320625 104.927107  L 116.890625 104.927107  z " style="fill:#14b88c;"/>
   </g>
   <g id="patch_12">
    <path clip-path="url(#p9dcf599ca1)" d="M 165.465625 185.6  L 184.895625 185.6  L 184.895625 102.074115  L 165.465625 102.074115  z " style="fill:#14b88c;"/>
   </g>
   <g id="patch_13">
    <path clip-path="url(#p9dcf599ca1)" d="M 214.040625 185.6  L 233.470625 185.6  L 233.470625 102.316923  L 214.040625 102.316923  z " style="fill:#14b88c;"/>
   </g>
   <g id="patch_14">
    <path clip-path="url(#p9dcf599ca1)" d="M 262.615625 185.6  L 282.045625 185.6  L 282.045625 93.333034  L 262.615625 93.333034  z " style="fill:#14b88c;"/>
   </g>
   <g id="patch_15">
    <path clip-path="url(#p9dcf599ca1)" d="M 311.190625 185.6  L 330.620625 185.6  L 330.620625 105.230616  L 311.190625 105.230616  z " style="fill:#14b88c;"/>
   </g>
   <g id="patch_16">
    <path clip-path="url(#p9dcf599ca1)" d="M 359.765625 185.6  L 379.195625 185.6  L 379.195625 96.732343  L 359.765625 96.732343  z " style="fill:#14b88c;"/>
   </g>
   <g id="matplotlib.axis_1">
    <g id="xtick_1">
     <g id="line2d_1">
      <defs>
       <path d="M 0 0  L 0 3.5  " id="bd05fcf7" style="stroke:#000000;stroke-width:0.8;"/>
      </defs>
      <g>
       <use style="stroke:#000000;stroke-width:0.8;" x="68.315625" xlink:href="#bd05fcf7" y="185.6"/>
      </g>
     </g>
     <g id="text_1">
      <!-- Day 1 -->
      <defs>
       <path d="M 7.71875 0  L 7.71875 71.578125  L 32.375 71.578125  Q 40.71875 71.578125 45.125 70.5625  Q 51.265625 69.140625 55.609375 65.4375  Q 61.28125 60.640625 64.078125 53.1875  Q 66.890625 45.75 66.890625 36.1875  Q 66.890625 28.03125 64.984375 21.734375  Q 63.09375 15.4375 60.109375 11.296875  Q 57.125 7.171875 53.578125 4.796875  Q 50.046875 2.4375 45.046875 1.21875  Q 40.046875 0 33.546875 0  z M 17.1875 8.453125  L 32.46875 8.453125  Q 39.546875 8.453125 43.578125 9.765625  Q 47.609375 11.078125 50 13.484375  Q 53.375 16.84375 55.25 22.53125  Q 57.125 28.21875 57.125 36.328125  Q 57.125 47.5625 53.4375 53.59375  Q 49.75 59.625 44.484375 61.671875  Q 40.671875 63.140625 32.234375 63.140625  L 17.1875 63.140625  z " id="f11221ce"/>
       <path d="M 40.4375 6.390625  Q 35.546875 2.25 31.03125 0.53125  Q 26.515625 -1.171875 21.34375 -1.171875  Q 12.796875 -1.171875 8.203125 3  Q 3.609375 7.171875 3.609375 13.671875  Q 3.609375 17.484375 5.34375 20.625  Q 7.078125 23.78125 9.890625 25.6875  Q 12.703125 27.59375 16.21875 28.5625  Q 18.796875 29.25 24.03125 29.890625  Q 34.671875 31.15625 39.703125 32.90625  Q 39.75 34.71875 39.75 35.203125  Q 39.75 40.578125 37.25 42.78125  Q 33.890625 45.75 27.25 45.75  Q 21.046875 45.75 18.09375 43.578125  Q 15.140625 41.40625 13.71875 35.890625  L 5.125 37.0625  Q 6.296875 42.578125 8.984375 45.96875  Q 11.671875 49.359375 16.75 51.1875  Q 21.828125 53.03125 28.515625 53.03125  Q 35.15625 53.03125 39.296875 51.46875  Q 43.453125 49.90625 45.40625 47.53125  Q 47.359375 45.171875 48.140625 41.546875  Q 48.578125 39.3125 48.578125 33.453125  L 48.578125 21.734375  Q 48.578125 9.46875 49.140625 6.21875  Q 49.703125 2.984375 51.375 0  L 42.1875 0  Q 40.828125 2.734375 40.4375 6.390625  z M 39.703125 26.03125  Q 34.90625 24.078125 25.34375 22.703125  Q 19.921875 21.921875 17.671875 20.9375  Q 15.4375 19.96875 14.203125 18.09375  Q 12.984375 16.21875 12.984375 13.921875  Q 12.984375 10.40625 15.640625 8.0625  Q 18.3125 5.71875 23.4375 5.71875  Q 28.515625 5.71875 32.46875 7.9375  Q 36.421875 10.15625 38.28125 14.015625  Q 39.703125 17 39.703125 22.796875  z " id="70bf6d72"/>
       <path d="M 6.203125 -19.96875  L 5.21875 -11.71875  Q 8.109375 -12.5 10.25 -12.5  Q 13.1875 -12.5 14.9375 -11.515625  Q 16.703125 -10.546875 17.828125 -8.796875  Q 18.65625 -7.46875 20.515625 -2.25  Q 20.75 -1.515625 21.296875 -0.09375  L 1.609375 51.859375  L 11.078125 51.859375  L 21.875 21.828125  Q 23.96875 16.109375 25.640625 9.8125  Q 27.15625 15.875 29.25 21.625  L 40.328125 51.859375  L 49.125 51.859375  L 29.390625 -0.875  Q 26.21875 -9.421875 24.46875 -12.640625  Q 22.125 -17 19.09375 -19.015625  Q 16.0625 -21.046875 11.859375 -21.046875  Q 9.328125 -21.046875 6.203125 -19.96875  z " id="349bedda"/>
       <path id="62c868cf"/>
       <path d="M 37.25 0  L 28.46875 0  L 28.46875 56  Q 25.296875 52.984375 20.140625 49.953125  Q 14.984375 46.921875 10.890625 45.40625  L 10.890625 53.90625  Q 18.265625 57.375 23.78125 62.296875  Q 29.296875 67.234375 31.59375 71.875  L 37.25 71.875  z " id="4feb2684"/>
      </defs>
      <g transform="translate(55.254687 199.7875)scale(0.1 -0.1)">
       <use xlink:href="#f11221ce"/>
       <use x="72.216797" xlink:href="#70bf6d72"/>
       <use x="127.832031" xlink:href="#349bedda"/>
       <use x="177.832031" xlink:href="#62c868cf"/>
       <use x="205.615234" xlink:href="#4feb2684"/>
      </g>
     </g>
    </g>
    <g id="xtick_2">
     <g id="line2d_2">
      <g>
       <use style="stroke:#000000;stroke-width:0.8;" x="116.890625" xlink:href="#bd05fcf7" y="185.6"/>
      </g>
     </g>
     <g id="text_2">
      <!-- Day 3 -->
      <defs>
       <path d="M 4.203125 18.890625  L 12.984375 20.0625  Q 14.5 12.59375 18.140625 9.296875  Q 21.78125 6 27 6  Q 33.203125 6 37.46875 10.296875  Q 41.75 14.59375 41.75 20.953125  Q 41.75 27 37.796875 30.921875  Q 33.84375 34.859375 27.734375 34.859375  Q 25.25 34.859375 21.53125 33.890625  L 22.515625 41.609375  Q 23.390625 41.5 23.921875 41.5  Q 29.546875 41.5 34.03125 44.421875  Q 38.53125 47.359375 38.53125 53.46875  Q 38.53125 58.296875 35.25 61.46875  Q 31.984375 64.65625 26.8125 64.65625  Q 21.6875 64.65625 18.265625 61.421875  Q 14.84375 58.203125 13.875 51.765625  L 5.078125 53.328125  Q 6.6875 62.15625 12.390625 67.015625  Q 18.109375 71.875 26.609375 71.875  Q 32.46875 71.875 37.390625 69.359375  Q 42.328125 66.84375 44.9375 62.5  Q 47.5625 58.15625 47.5625 53.265625  Q 47.5625 48.640625 45.0625 44.828125  Q 42.578125 41.015625 37.703125 38.765625  Q 44.046875 37.3125 47.5625 32.6875  Q 51.078125 28.078125 51.078125 21.140625  Q 51.078125 11.765625 44.234375 5.25  Q 37.40625 -1.265625 26.953125 -1.265625  Q 17.53125 -1.265625 11.296875 4.34375  Q 5.078125 9.96875 4.203125 18.890625  z " id="ced2f682"/>
      </defs>
      <g transform="translate(103.829688 199.7875)scale(0.1 -0.1)">
       <use xlink:href="#f11221ce"/>
       <use x="72.216797" xlink:href="#70bf6d72"/>
       <use x="127.832031" xlink:href="#349bedda"/>
       <use x="177.832031" xlink:href="#62c868cf"/>
       <use x="205.615234" xlink:href="#ced2f682"/>
      </g>
     </g>
    </g>
    <g id="xtick_3">
     <g id="line2d_3">
      <g>
       <use style="stroke:#000000;stroke-width:0.8;" x="165.465625" xlink:href="#bd05fcf7" y="185.6"/>
      </g>
     </g>
     <g id="text_3">
      <!-- Day 5 -->
      <defs>
       <path d="M 4.15625 18.75  L 13.375 19.53125  Q 14.40625 12.796875 18.140625 9.390625  Q 21.875 6 27.15625 6  Q 33.5 6 37.890625 10.78125  Q 42.28125 15.578125 42.28125 23.484375  Q 42.28125 31 38.0625 35.34375  Q 33.84375 39.703125 27 39.703125  Q 22.75 39.703125 19.328125 37.765625  Q 15.921875 35.84375 13.96875 32.765625  L 5.71875 33.84375  L 12.640625 70.609375  L 48.25 70.609375  L 48.25 62.203125  L 19.671875 62.203125  L 15.828125 42.96875  Q 22.265625 47.46875 29.34375 47.46875  Q 38.71875 47.46875 45.15625 40.96875  Q 51.609375 34.46875 51.609375 24.265625  Q 51.609375 14.546875 45.953125 7.46875  Q 39.0625 -1.21875 27.15625 -1.21875  Q 17.390625 -1.21875 11.203125 4.25  Q 5.03125 9.71875 4.15625 18.75  z " id="48fb18a4"/>
      </defs>
      <g transform="translate(152.404687 199.757812)scale(0.1 -0.1)">
       <use xlink:href="#f11221ce"/>
       <use x="72.216797" xlink:href="#70bf6d72"/>
       <use x="127.832031" xlink:href="#349bedda"/>
       <use x="177.832031" xlink:href="#62c868cf"/>
       <use x="205.615234" xlink:href="#48fb18a4"/>
      </g>
     </g>
    </g>
    <g id="xtick_4">
     <g id="line2d_4">
      <g>
       <use style="stroke:#000000;stroke-width:0.8;" x="214.040625" xlink:href="#bd05fcf7" y="185.6"/>
      </g>
     </g>
     <g id="text_4">
      <!-- Day 7 -->
      <defs>
       <path d="M 4.734375 62.203125  L 4.734375 70.65625  L 51.078125 70.65625  L 51.078125 63.8125  Q 44.234375 56.546875 37.515625 44.484375  Q 30.8125 32.421875 27.15625 19.671875  Q 24.515625 10.6875 23.78125 0  L 14.75 0  Q 14.890625 8.453125 18.0625 20.40625  Q 21.234375 32.375 27.171875 43.484375  Q 33.109375 54.59375 39.796875 62.203125  z " id="5198ea15"/>
      </defs>
      <g transform="translate(200.979687 199.757812)scale(0.1 -0.1)">
       <use xlink:href="#f11221ce"/>
       <use x="72.216797" xlink:href="#70bf6d72"/>
       <use x="127.832031" xlink:href="#349bedda"/>
       <use x="177.832031" xlink:href="#62c868cf"/>
       <use x="205.615234" xlink:href="#5198ea15"/>
      </g>
     </g>
    </g>
    <g id="xtick_5">
     <g id="line2d_5">
      <g>
       <use style="stroke:#000000;stroke-width:0.8;" x="262.615625" xlink:href="#bd05fcf7" y="185.6"/>
      </g>
     </g>
     <g id="text_5">
      <!-- Day 9 -->
      <defs>
       <path d="M 5.46875 16.546875  L 13.921875 17.328125  Q 14.984375 11.375 18.015625 8.6875  Q 21.046875 6 25.78125 6  Q 29.828125 6 32.875 7.859375  Q 35.9375 9.71875 37.890625 12.8125  Q 39.84375 15.921875 41.15625 21.1875  Q 42.484375 26.46875 42.484375 31.9375  Q 42.484375 32.515625 42.4375 33.6875  Q 39.796875 29.5 35.234375 26.875  Q 30.671875 24.265625 25.34375 24.265625  Q 16.453125 24.265625 10.296875 30.703125  Q 4.15625 37.15625 4.15625 47.703125  Q 4.15625 58.59375 10.578125 65.234375  Q 17 71.875 26.65625 71.875  Q 33.640625 71.875 39.421875 68.109375  Q 45.21875 64.359375 48.21875 57.390625  Q 51.21875 50.4375 51.21875 37.25  Q 51.21875 23.53125 48.234375 15.40625  Q 45.265625 7.28125 39.375 3.03125  Q 33.5 -1.21875 25.59375 -1.21875  Q 17.1875 -1.21875 11.859375 3.4375  Q 6.546875 8.109375 5.46875 16.546875  z M 41.453125 48.140625  Q 41.453125 55.71875 37.421875 60.15625  Q 33.40625 64.59375 27.734375 64.59375  Q 21.875 64.59375 17.53125 59.8125  Q 13.1875 55.03125 13.1875 47.40625  Q 13.1875 40.578125 17.3125 36.296875  Q 21.4375 32.03125 27.484375 32.03125  Q 33.59375 32.03125 37.515625 36.296875  Q 41.453125 40.578125 41.453125 48.140625  z " id="6aaf0e40"/>
      </defs>
      <g transform="translate(249.554687 199.7875)scale(0.1 -0.1)">
       <use xlink:href="#f11221ce"/>
       <use x="72.216797" xlink:href="#70bf6d72"/>
       <use x="127.832031" xlink:href="#349bedda"/>
       <use x="177.832031" xlink:href="#62c868cf"/>
       <use x="205.615234" xlink:href="#6aaf0e40"/>
      </g>
     </g>
    </g>
    <g id="xtick_6">
     <g id="line2d_6">
      <g>
       <use style="stroke:#000000;stroke-width:0.8;" x="311.190625" xlink:href="#bd05fcf7" y="185.6"/>
      </g>
     </g>
     <g id="text_6">
      <!-- Day 11 -->
      <g transform="translate(295.717969 199.7875)scale(0.1 -0.1)">
       <use xlink:href="#f11221ce"/>
       <use x="72.216797" xlink:href="#70bf6d72"/>
       <use x="127.832031" xlink:href="#349bedda"/>
       <use x="177.832031" xlink:href="#62c868cf"/>
       <use x="205.615234" xlink:href="#4feb2684"/>
       <use x="253.855469" xlink:href="#4feb2684"/>
      </g>
     </g>
    </g>
    <g id="xtick_7">
     <g id="line2d_7">
      <g>
       <use style="stroke:#000000;stroke-width:0.8;" x="359.765625" xlink:href="#bd05fcf7" y="185.6"/>
      </g>
     </g>
     <g id="text_7">
      <!-- Day 13 -->
      <g transform="translate(343.924219 199.7875)scale(0.1 -0.1)">
       <use xlink:href="#f11221ce"/>
       <use x="72.216797" xlink:href="#70bf6d72"/>
       <use x="127.832031" xlink:href="#349bedda"/>
       <use x="177.832031" xlink:href="#62c868cf"/>
       <use x="205.615234" xlink:href="#4feb2684"/>
       <use x="261.230469" xlink:href="#ced2f682"/>
      </g>
     </g>
    </g>
   </g>
   <g id="matplotlib.axis_2">
    <g id="ytick_1">
     <g id="line2d_8">
      <defs>
       <path d="M 0 0  L -3.5 0  " id="8276a845" style="stroke:#000000;stroke-width:0.8;"/>
      </defs>
      <g>
       <use style="stroke:#000000;stroke-width:0.8;" x="44.028125" xlink:href="#8276a845" y="185.6"/>
      </g>
     </g>
     <g id="text_8">
      <!-- 0 -->
      <defs>
       <path d="M 4.15625 35.296875  Q 4.15625 48 6.765625 55.734375  Q 9.375 63.484375 14.515625 67.671875  Q 19.671875 71.875 27.484375 71.875  Q 33.25 71.875 37.59375 69.546875  Q 41.9375 67.234375 44.765625 62.859375  Q 47.609375 58.5 49.21875 52.21875  Q 50.828125 45.953125 50.828125 35.296875  Q 50.828125 22.703125 48.234375 14.96875  Q 45.65625 7.234375 40.5 3  Q 35.359375 -1.21875 27.484375 -1.21875  Q 17.140625 -1.21875 11.234375 6.203125  Q 4.15625 15.140625 4.15625 35.296875  z M 13.1875 35.296875  Q 13.1875 17.671875 17.3125 11.828125  Q 21.4375 6 27.484375 6  Q 33.546875 6 37.671875 11.859375  Q 41.796875 17.71875 41.796875 35.296875  Q 41.796875 52.984375 37.671875 58.78125  Q 33.546875 64.59375 27.390625 64.59375  Q 21.34375 64.59375 17.71875 59.46875  Q 13.1875 52.9375 13.1875 35.296875  z " id="5409aef9"/>
      </defs>
      <g transform="translate(31.467188 189.178906)scale(0.1 -0.1)">
       <use xlink:href="#5409aef9"/>
      </g>
     </g>
    </g>
    <g id="ytick_2">
     <g id="line2d_9">
      <g>
       <use style="stroke:#000000;stroke-width:0.8;" x="44.028125" xlink:href="#8276a845" y="158.284122"/>
      </g>
     </g>
     <g id="text_9">
      <!-- 50 -->
      <g transform="translate(25.90625 161.863028)scale(0.1 -0.1)">
       <use xlink:href="#48fb18a4"/>
       <use x="55.615234" xlink:href="#5409aef9"/>
      </g>
     </g>
    </g>
    <g id="ytick_3">
     <g id="line2d_10">
      <g>
       <use style="stroke:#000000;stroke-width:0.8;" x="44.028125" xlink:href="#8276a845" y="130.968244"/>
      </g>
     </g>
     <g id="text_10">
      <!-- 100 -->
      <g transform="translate(20.345313 134.54715)scale(0.1 -0.1)">
       <use xlink:href="#4feb2684"/>
       <use x="55.615234" xlink:href="#5409aef9"/>
       <use x="111.230469" xlink:href="#5409aef9"/>
      </g>
     </g>
    </g>
    <g id="ytick_4">
     <g id="line2d_11">
      <g>
       <use style="stroke:#000000;stroke-width:0.8;" x="44.028125" xlink:href="#8276a845" y="103.652366"/>
      </g>
     </g>
     <g id="text_11">
      <!-- 150 -->
      <g transform="translate(20.345313 107.231272)scale(0.1 -0.1)">
       <use xlink:href="#4feb2684"/>
       <use x="55.615234" xlink:href="#48fb18a4"/>
       <use x="111.230469" xlink:href="#5409aef9"/>
      </g>
     </g>
    </g>
    <g id="ytick_5">
     <g id="line2d_12">
      <g>
       <use style="stroke:#000000;stroke-width:0.8;" x="44.028125" xlink:href="#8276a845" y="76.336488"/>
      </g>
     </g>
     <g id="text_12">
      <!-- 200 -->
      <defs>
       <path d="M 50.34375 8.453125  L 50.34375 0  L 3.03125 0  Q 2.9375 3.171875 4.046875 6.109375  Q 5.859375 10.9375 9.828125 15.625  Q 13.8125 20.3125 21.34375 26.46875  Q 33.015625 36.03125 37.109375 41.625  Q 41.21875 47.21875 41.21875 52.203125  Q 41.21875 57.421875 37.46875 61  Q 33.734375 64.59375 27.734375 64.59375  Q 21.390625 64.59375 17.578125 60.78125  Q 13.765625 56.984375 13.71875 50.25  L 4.6875 51.171875  Q 5.609375 61.28125 11.65625 66.578125  Q 17.71875 71.875 27.9375 71.875  Q 38.234375 71.875 44.234375 66.15625  Q 50.25 60.453125 50.25 52  Q 50.25 47.703125 48.484375 43.546875  Q 46.734375 39.40625 42.65625 34.8125  Q 38.578125 30.21875 29.109375 22.21875  Q 21.1875 15.578125 18.9375 13.203125  Q 16.703125 10.84375 15.234375 8.453125  z " id="c06b7fb4"/>
      </defs>
      <g transform="translate(20.345313 79.915394)scale(0.1 -0.1)">
       <use xlink:href="#c06b7fb4"/>
       <use x="55.615234" xlink:href="#5409aef9"/>
       <use x="111.230469" xlink:href="#5409aef9"/>
      </g>
     </g>
    </g>
    <g id="ytick_6">
     <g id="line2d_13">
      <g>
       <use style="stroke:#000000;stroke-width:0.8;" x="44.028125" xlink:href="#8276a845" y="49.020609"/>
      </g>
     </g>
     <g id="text_13">
      <!-- 250 -->
      <g transform="translate(20.345313 52.599516)scale(0.1 -0.1)">
       <use xlink:href="#c06b7fb4"/>
       <use x="55.615234" xlink:href="#48fb18a4"/>
       <use x="111.230469" xlink:href="#5409aef9"/>
      </g>
     </g>
    </g>
    <g id="ytick_7">
     <g id="line2d_14">
      <g>
       <use style="stroke:#000000;stroke-width:0.8;" x="44.028125" xlink:href="#8276a845" y="21.704731"/>
      </g>
     </g>
     <g id="text_14">
      <!-- 300 -->
      <g transform="translate(20.345313 25.283638)scale(0.1 -0.1)">
       <use xlink:href="#ced2f682"/>
       <use x="55.615234" xlink:href="#5409aef9"/>
       <use x="111.230469" xlink:href="#5409aef9"/>
      </g>
     </g>
    </g>
    <g id="text_15">
     <!-- Number of cells -->
     <defs>
      <path d="M 4.890625 0  L 19.875 71.578125  L 29.15625 71.578125  L 41.21875 44.734375  Q 46.734375 32.421875 49.953125 24.03125  Q 51.8125 19.140625 54.25 10.84375  Q 55.5625 19.875 57.5625 29.5  L 66.359375 71.578125  L 75.6875 71.578125  L 60.75 0  L 51.265625 0  L 33.5 41.359375  Q 28.765625 52.296875 26.125 60.640625  Q 25.390625 53.65625 23.296875 43.5  L 14.203125 0  z " id="670e4a39"/>
      <path d="M 38.71875 9.375  Q 29.390625 -1.171875 19.625 -1.171875  Q 13.625 -1.171875 9.9375 2.265625  Q 6.25 5.71875 6.25 10.6875  Q 6.25 13.96875 7.90625 21.921875  L 14.15625 51.859375  L 23 51.859375  L 16.0625 18.703125  Q 15.1875 14.546875 15.1875 12.25  Q 15.1875 9.328125 16.96875 7.6875  Q 18.75 6.0625 22.21875 6.0625  Q 25.921875 6.0625 29.46875 7.859375  Q 33.015625 9.671875 35.578125 12.75  Q 38.140625 15.828125 39.75 20.015625  Q 40.828125 22.703125 42.234375 29.4375  L 46.921875 51.859375  L 55.765625 51.859375  L 44.921875 0  L 36.765625 0  z " id="6fb6a258"/>
      <path d="M 3.265625 0  L 14.109375 51.859375  L 22.953125 51.859375  L 21.140625 43.3125  Q 26.078125 48.828125 29.953125 50.921875  Q 33.84375 53.03125 38.375 53.03125  Q 43.21875 53.03125 46.453125 50.46875  Q 49.703125 47.90625 50.734375 43.3125  Q 54.6875 48.1875 59.046875 50.609375  Q 63.421875 53.03125 68.265625 53.03125  Q 74.75 53.03125 78 49.953125  Q 81.25 46.875 81.25 41.3125  Q 81.25 38.921875 80.125 33.40625  L 73.140625 0  L 64.3125 0  L 71.4375 34.28125  Q 72.359375 38.484375 72.359375 40.28125  Q 72.359375 42.828125 70.75 44.28125  Q 69.140625 45.75 66.21875 45.75  Q 62.25 45.75 58.140625 43.359375  Q 54.046875 40.96875 51.78125 37.078125  Q 49.515625 33.203125 47.796875 25.140625  L 42.53125 0  L 33.6875 0  L 41.015625 35.015625  Q 41.796875 38.578125 41.796875 40.09375  Q 41.796875 42.625 40.203125 44.1875  Q 38.625 45.75 36.078125 45.75  Q 32.328125 45.75 28.203125 43.359375  Q 24.078125 40.96875 21.484375 36.6875  Q 18.890625 32.421875 17.234375 24.515625  L 12.109375 0  z " id="5d9cc7f1"/>
      <path d="M 3.328125 0  L 18.265625 71.578125  L 27.09375 71.578125  L 21.78125 46  Q 25.984375 49.859375 29.390625 51.4375  Q 32.8125 53.03125 36.53125 53.03125  Q 43.796875 53.03125 48.65625 47.609375  Q 53.515625 42.1875 53.515625 31.84375  Q 53.515625 24.953125 51.5625 19.234375  Q 49.609375 13.53125 46.71875 9.640625  Q 43.84375 5.765625 40.765625 3.4375  Q 37.703125 1.125 34.46875 -0.015625  Q 31.25 -1.171875 28.265625 -1.171875  Q 23.140625 -1.171875 19.234375 1.53125  Q 15.328125 4.25 13.140625 9.8125  L 11.078125 0  z M 16.40625 21.296875  L 16.359375 19.625  Q 16.359375 12.984375 19.53125 9.515625  Q 22.703125 6.0625 27.4375 6.0625  Q 32.078125 6.0625 35.953125 9.296875  Q 39.84375 12.546875 42.328125 19.421875  Q 44.828125 26.3125 44.828125 32.125  Q 44.828125 38.671875 41.671875 42.28125  Q 38.53125 45.90625 33.890625 45.90625  Q 29.109375 45.90625 25.09375 42.21875  Q 21.09375 38.53125 18.40625 30.859375  Q 16.40625 25.140625 16.40625 21.296875  z " id="8bb38d88"/>
      <path d="M 41.40625 17.625  L 50 16.75  Q 48.140625 10.359375 41.46875 4.59375  Q 34.8125 -1.171875 25.59375 -1.171875  Q 19.828125 -1.171875 15.015625 1.484375  Q 10.203125 4.15625 7.6875 9.234375  Q 5.171875 14.3125 5.171875 20.796875  Q 5.171875 29.296875 9.09375 37.28125  Q 13.03125 45.265625 19.28125 49.140625  Q 25.53125 53.03125 32.8125 53.03125  Q 42.09375 53.03125 47.625 47.265625  Q 53.171875 41.5 53.171875 31.546875  Q 53.171875 27.734375 52.484375 23.734375  L 14.3125 23.734375  Q 14.109375 22.21875 14.109375 21  Q 14.109375 13.71875 17.453125 9.890625  Q 20.796875 6.0625 25.640625 6.0625  Q 30.171875 6.0625 34.5625 9.03125  Q 38.96875 12.015625 41.40625 17.625  z M 15.71875 30.46875  L 44.828125 30.46875  Q 44.875 31.84375 44.875 32.421875  Q 44.875 39.0625 41.546875 42.59375  Q 38.234375 46.140625 33.015625 46.140625  Q 27.34375 46.140625 22.671875 42.234375  Q 18.015625 38.328125 15.71875 30.46875  z " id="029e25b7"/>
      <path d="M 3.328125 0  L 14.15625 51.859375  L 21.96875 51.859375  L 19.78125 41.265625  Q 23.78125 47.265625 27.609375 50.140625  Q 31.453125 53.03125 35.453125 53.03125  Q 38.09375 53.03125 41.9375 51.125  L 38.328125 42.921875  Q 36.03125 44.578125 33.296875 44.578125  Q 28.65625 44.578125 23.765625 39.40625  Q 18.890625 34.234375 16.109375 20.796875  L 11.71875 0  z " id="64e8bd60"/>
      <path id="3adf39c0"/>
      <path d="M 4.890625 19.671875  Q 4.890625 34.859375 13.8125 44.828125  Q 21.1875 53.03125 33.15625 53.03125  Q 42.53125 53.03125 48.265625 47.171875  Q 54 41.3125 54 31.34375  Q 54 22.40625 50.390625 14.71875  Q 46.78125 7.03125 40.109375 2.921875  Q 33.453125 -1.171875 26.078125 -1.171875  Q 20.015625 -1.171875 15.0625 1.40625  Q 10.109375 4 7.5 8.734375  Q 4.890625 13.484375 4.890625 19.671875  z M 13.71875 20.5625  Q 13.71875 13.234375 17.234375 9.453125  Q 20.75 5.671875 26.171875 5.671875  Q 29 5.671875 31.78125 6.8125  Q 34.578125 7.953125 36.96875 10.296875  Q 39.359375 12.640625 41.03125 15.640625  Q 42.71875 18.65625 43.75 22.125  Q 45.265625 26.953125 45.265625 31.390625  Q 45.265625 38.421875 41.71875 42.296875  Q 38.1875 46.1875 32.8125 46.1875  Q 28.65625 46.1875 25.234375 44.203125  Q 21.828125 42.234375 19.0625 38.421875  Q 16.3125 34.625 15.015625 29.5625  Q 13.71875 24.515625 13.71875 20.5625  z " id="9e5bebda"/>
      <path d="M 4.546875 0  L 13.96875 45.015625  L 6.0625 45.015625  L 7.46875 51.859375  L 15.375 51.859375  L 16.890625 59.234375  Q 18.0625 64.75 19.3125 67.1875  Q 20.5625 69.625 23.359375 71.203125  Q 26.171875 72.796875 31 72.796875  Q 34.375 72.796875 40.765625 71.390625  L 39.15625 63.671875  Q 34.671875 64.84375 31.640625 64.84375  Q 29.046875 64.84375 27.703125 63.546875  Q 26.375 62.25 25.390625 57.421875  L 24.21875 51.859375  L 34.078125 51.859375  L 32.671875 45.015625  L 22.796875 45.015625  L 13.375 0  z " id="dd091180"/>
      <path d="M 39.109375 18.890625  L 47.953125 17.96875  Q 44.625 8.25 38.5 3.53125  Q 32.375 -1.171875 24.5625 -1.171875  Q 16.109375 -1.171875 10.859375 4.296875  Q 5.609375 9.765625 5.609375 19.578125  Q 5.609375 28.078125 8.984375 36.28125  Q 12.359375 44.484375 18.625 48.75  Q 24.90625 53.03125 32.953125 53.03125  Q 41.3125 53.03125 46.1875 48.3125  Q 51.078125 43.609375 51.078125 35.84375  L 42.390625 35.25  Q 42.328125 40.1875 39.515625 42.96875  Q 36.71875 45.75 32.125 45.75  Q 26.8125 45.75 22.90625 42.375  Q 19 39.015625 16.765625 32.15625  Q 14.546875 25.296875 14.546875 18.953125  Q 14.546875 12.3125 17.46875 8.984375  Q 20.40625 5.671875 24.703125 5.671875  Q 29 5.671875 32.921875 8.9375  Q 36.859375 12.203125 39.109375 18.890625  z " id="3730ca28"/>
      <path d="M 2.640625 0  L 17.578125 71.578125  L 26.421875 71.578125  L 11.46875 0  z " id="5897353c"/>
      <path d="M 4.15625 17.71875  L 12.984375 18.265625  Q 12.984375 14.453125 14.15625 11.765625  Q 15.328125 9.078125 18.46875 7.375  Q 21.625 5.671875 25.828125 5.671875  Q 31.6875 5.671875 34.609375 8.015625  Q 37.546875 10.359375 37.546875 13.53125  Q 37.546875 15.828125 35.796875 17.875  Q 33.984375 19.921875 26.96875 22.921875  Q 19.96875 25.921875 18.015625 27.15625  Q 14.75 29.15625 13.078125 31.859375  Q 11.421875 34.578125 11.421875 38.09375  Q 11.421875 44.234375 16.296875 48.625  Q 21.1875 53.03125 29.984375 53.03125  Q 39.75 53.03125 44.84375 48.515625  Q 49.953125 44 50.140625 36.625  L 41.5 36.03125  Q 41.3125 40.71875 38.1875 43.453125  Q 35.0625 46.1875 29.34375 46.1875  Q 24.75 46.1875 22.203125 44.09375  Q 19.671875 42 19.671875 39.546875  Q 19.671875 37.109375 21.875 35.25  Q 23.34375 33.984375 29.4375 31.34375  Q 39.59375 26.953125 42.234375 24.421875  Q 46.4375 20.359375 46.4375 14.546875  Q 46.4375 10.6875 44.0625 6.96875  Q 41.703125 3.265625 36.84375 1.046875  Q 31.984375 -1.171875 25.390625 -1.171875  Q 16.40625 -1.171875 10.109375 3.265625  Q 3.8125 7.71875 4.15625 17.71875  z " id="35b925d0"/>
     </defs>
     <g transform="translate(14.357813 131.132031)rotate(-90)scale(0.1 -0.1)">
      <use xlink:href="#670e4a39"/>
      <use x="72.216797" xlink:href="#6fb6a258"/>
      <use x="127.832031" xlink:href="#5d9cc7f1"/>
      <use x="211.132812" xlink:href="#8bb38d88"/>
      <use x="266.748047" xlink:href="#029e25b7"/>
      <use x="322.363281" xlink:href="#64e8bd60"/>
      <use x="355.664062" xlink:href="#3adf39c0"/>
      <use x="383.447266" xlink:href="#9e5bebda"/>
      <use x="439.0625" xlink:href="#dd091180"/>
      <use x="466.845703" xlink:href="#3adf39c0"/>
      <use x="494.628906" xlink:href="#3730ca28"/>
      <use x="544.628906" xlink:href="#029e25b7"/>
      <use x="600.244141" xlink:href="#5897353c"/>
      <use x="622.460938" xlink:href="#5897353c"/>
      <use x="644.677734" xlink:href="#35b925d0"/>
     </g>
    </g>
   </g>
   <g id="line2d_15">
    <path clip-path="url(#p9dcf599ca1)" d="M 58.600625 98.339236  L 58.600625 75.700826  " style="fill:none;stroke:#424242;stroke-linecap:square;stroke-width:1.5;"/>
   </g>
   <g id="line2d_16">
    <path clip-path="url(#p9dcf599ca1)" d="M 56.171875 98.339236  L 61.029375 98.339236  " style="fill:none;stroke:#424242;stroke-linecap:square;stroke-width:1.5;"/>
   </g>
   <g id="line2d_17">
    <path clip-path="url(#p9dcf599ca1)" d="M 56.171875 75.700826  L 61.029375 75.700826  " style="fill:none;stroke:#424242;stroke-linecap:square;stroke-width:1.5;"/>
   </g>
   <g id="line2d_18">
    <path clip-path="url(#p9dcf599ca1)" d="M 107.175625 101.426052  L 107.175625 77.227358  " style="fill:none;stroke:#424242;stroke-linecap:square;stroke-width:1.5;"/>
   </g>
   <g id="line2d_19">
    <path clip-path="url(#p9dcf599ca1)" d="M 104.746875 101.426052  L 109.604375 101.426052  " style="fill:none;stroke:#424242;stroke-linecap:square;stroke-width:1.5;"/>
   </g>
   <g id="line2d_20">
    <path clip-path="url(#p9dcf599ca1)" d="M 104.746875 77.227358  L 109.604375 77.227358  " style="fill:none;stroke:#424242;stroke-linecap:square;stroke-width:1.5;"/>
   </g>
   <g id="line2d_21">
    <path clip-path="url(#p9dcf599ca1)" d="M 155.750625 94.29792  L 155.750625 71.365272  " style="fill:none;stroke:#424242;stroke-linecap:square;stroke-width:1.5;"/>
   </g>
   <g id="line2d_22">
    <path clip-path="url(#p9dcf599ca1)" d="M 153.321875 94.29792  L 158.179375 94.29792  " style="fill:none;stroke:#424242;stroke-linecap:square;stroke-width:1.5;"/>
   </g>
   <g id="line2d_23">
    <path clip-path="url(#p9dcf599ca1)" d="M 153.321875 71.365272  L 158.179375 71.365272  " style="fill:none;stroke:#424242;stroke-linecap:square;stroke-width:1.5;"/>
   </g>
   <g id="line2d_24">
    <path clip-path="url(#p9dcf599ca1)" d="M 204.325625 96.699443  L 204.325625 73.212886  " style="fill:none;stroke:#424242;stroke-linecap:square;stroke-width:1.5;"/>
   </g>
   <g id="line2d_25">
    <path clip-path="url(#p9dcf599ca1)" d="M 201.896875 96.699443  L 206.754375 96.699443  " style="fill:none;stroke:#424242;stroke-linecap:square;stroke-width:1.5;"/>
   </g>
   <g id="line2d_26">
    <path clip-path="url(#p9dcf599ca1)" d="M 201.896875 73.212886  L 206.754375 73.212886  " style="fill:none;stroke:#424242;stroke-linecap:square;stroke-width:1.5;"/>
   </g>
   <g id="line2d_27">
    <path clip-path="url(#p9dcf599ca1)" d="M 252.900625 96.359364  L 252.900625 72.096118  " style="fill:none;stroke:#424242;stroke-linecap:square;stroke-width:1.5;"/>
   </g>
   <g id="line2d_28">
    <path clip-path="url(#p9dcf599ca1)" d="M 250.471875 96.359364  L 255.329375 96.359364  " style="fill:none;stroke:#424242;stroke-linecap:square;stroke-width:1.5;"/>
   </g>
   <g id="line2d_29">
    <path clip-path="url(#p9dcf599ca1)" d="M 250.471875 72.096118  L 255.329375 72.096118  " style="fill:none;stroke:#424242;stroke-linecap:square;stroke-width:1.5;"/>
   </g>
   <g id="line2d_30">
    <path clip-path="url(#p9dcf599ca1)" d="M 301.475625 95.291793  L 301.475625 70.857015  " style="fill:none;stroke:#424242;stroke-linecap:square;stroke-width:1.5;"/>
   </g>
   <g id="line2d_31">
    <path clip-path="url(#p9dcf599ca1)" d="M 299.046875 95.291793  L 303.904375 95.291793  " style="fill:none;stroke:#424242;stroke-linecap:square;stroke-width:1.5;"/>
   </g>
   <g id="line2d_32">
    <path clip-path="url(#p9dcf599ca1)" d="M 299.046875 70.857015  L 303.904375 70.857015  " style="fill:none;stroke:#424242;stroke-linecap:square;stroke-width:1.5;"/>
   </g>
   <g id="line2d_33">
    <path clip-path="url(#p9dcf599ca1)" d="M 350.050625 100.468287  L 350.050625 78.549335  " style="fill:none;stroke:#424242;stroke-linecap:square;stroke-width:1.5;"/>
   </g>
   <g id="line2d_34">
    <path clip-path="url(#p9dcf599ca1)" d="M 347.621875 100.468287  L 352.479375 100.468287  " style="fill:none;stroke:#424242;stroke-linecap:square;stroke-width:1.5;"/>
   </g>
   <g id="line2d_35">
    <path clip-path="url(#p9dcf599ca1)" d="M 347.621875 78.549335  L 352.479375 78.549335  " style="fill:none;stroke:#424242;stroke-linecap:square;stroke-width:1.5;"/>
   </g>
   <g id="line2d_36">
    <path clip-path="url(#p9dcf599ca1)" d="M 78.030625 114.719848  L 78.030625 95.134365  " style="fill:none;stroke:#424242;stroke-linecap:square;stroke-width:1.5;"/>
   </g>
   <g id="line2d_37">
    <path clip-path="url(#p9dcf599ca1)" d="M 75.601875 114.719848  L 80.459375 114.719848  " style="fill:none;stroke:#424242;stroke-linecap:square;stroke-width:1.5;"/>
   </g>
   <g id="line2d_38">
    <path clip-path="url(#p9dcf599ca1)" d="M 75.601875 95.134365  L 80.459375 95.134365  " style="fill:none;stroke:#424242;stroke-linecap:square;stroke-width:1.5;"/>
   </g>
   <g id="line2d_39">
    <path clip-path="url(#p9dcf599ca1)" d="M 126.605625 116.079882  L 126.605625 93.774331  " style="fill:none;stroke:#424242;stroke-linecap:square;stroke-width:1.5;"/>
   </g>
   <g id="line2d_40">
    <path clip-path="url(#p9dcf599ca1)" d="M 124.176875 116.079882  L 129.034375 116.079882  " style="fill:none;stroke:#424242;stroke-linecap:square;stroke-width:1.5;"/>
   </g>
   <g id="line2d_41">
    <path clip-path="url(#p9dcf599ca1)" d="M 124.176875 93.774331  L 129.034375 93.774331  " style="fill:none;stroke:#424242;stroke-linecap:square;stroke-width:1.5;"/>
   </g>
   <g id="line2d_42">
    <path clip-path="url(#p9dcf599ca1)" d="M 175.180625 112.904609  L 175.180625 91.243621  " style="fill:none;stroke:#424242;stroke-linecap:square;stroke-width:1.5;"/>
   </g>
   <g id="line2d_43">
    <path clip-path="url(#p9dcf599ca1)" d="M 172.751875 112.904609  L 177.609375 112.904609  " style="fill:none;stroke:#424242;stroke-linecap:square;stroke-width:1.5;"/>
   </g>
   <g id="line2d_44">
    <path clip-path="url(#p9dcf599ca1)" d="M 172.751875 91.243621  L 177.609375 91.243621  " style="fill:none;stroke:#424242;stroke-linecap:square;stroke-width:1.5;"/>
   </g>
   <g id="line2d_45">
    <path clip-path="url(#p9dcf599ca1)" d="M 223.755625 112.434092  L 223.755625 92.199754  " style="fill:none;stroke:#424242;stroke-linecap:square;stroke-width:1.5;"/>
   </g>
   <g id="line2d_46">
    <path clip-path="url(#p9dcf599ca1)" d="M 221.326875 112.434092  L 226.184375 112.434092  " style="fill:none;stroke:#424242;stroke-linecap:square;stroke-width:1.5;"/>
   </g>
   <g id="line2d_47">
    <path clip-path="url(#p9dcf599ca1)" d="M 221.326875 92.199754  L 226.184375 92.199754  " style="fill:none;stroke:#424242;stroke-linecap:square;stroke-width:1.5;"/>
   </g>
   <g id="line2d_48">
    <path clip-path="url(#p9dcf599ca1)" d="M 272.330625 107.479812  L 272.330625 79.186256  " style="fill:none;stroke:#424242;stroke-linecap:square;stroke-width:1.5;"/>
   </g>
   <g id="line2d_49">
    <path clip-path="url(#p9dcf599ca1)" d="M 269.901875 107.479812  L 274.759375 107.479812  " style="fill:none;stroke:#424242;stroke-linecap:square;stroke-width:1.5;"/>
   </g>
   <g id="line2d_50">
    <path clip-path="url(#p9dcf599ca1)" d="M 269.901875 79.186256  L 274.759375 79.186256  " style="fill:none;stroke:#424242;stroke-linecap:square;stroke-width:1.5;"/>
   </g>
   <g id="line2d_51">
    <path clip-path="url(#p9dcf599ca1)" d="M 320.905625 115.824281  L 320.905625 94.636952  " style="fill:none;stroke:#424242;stroke-linecap:square;stroke-width:1.5;"/>
   </g>
   <g id="line2d_52">
    <path clip-path="url(#p9dcf599ca1)" d="M 318.476875 115.824281  L 323.334375 115.824281  " style="fill:none;stroke:#424242;stroke-linecap:square;stroke-width:1.5;"/>
   </g>
   <g id="line2d_53">
    <path clip-path="url(#p9dcf599ca1)" d="M 318.476875 94.636952  L 323.334375 94.636952  " style="fill:none;stroke:#424242;stroke-linecap:square;stroke-width:1.5;"/>
   </g>
   <g id="line2d_54">
    <path clip-path="url(#p9dcf599ca1)" d="M 369.480625 110.992813  L 369.480625 82.471873  " style="fill:none;stroke:#424242;stroke-linecap:square;stroke-width:1.5;"/>
   </g>
   <g id="line2d_55">
    <path clip-path="url(#p9dcf599ca1)" d="M 367.051875 110.992813  L 371.909375 110.992813  " style="fill:none;stroke:#424242;stroke-linecap:square;stroke-width:1.5;"/>
   </g>
   <g id="line2d_56">
    <path clip-path="url(#p9dcf599ca1)" d="M 367.051875 82.471873  L 371.909375 82.471873  " style="fill:none;stroke:#424242;stroke-linecap:square;stroke-width:1.5;"/>
   </g>
   <g id="patch_17">
    <path d="M 44.028125 185.6  L 44.028125 7.2  " style="fill:none;stroke:#000000;stroke-linecap:square;stroke-linejoin:miter;stroke-width:0.8;"/>
   </g>
   <g id="patch_18">
    <path d="M 44.028125 185.6  L 384.053125 185.6  " style="fill:none;stroke:#000000;stroke-linecap:square;stroke-linejoin:miter;stroke-width:0.8;"/>
   </g>
   <g id="PathCollection_1">
    <defs>
     <path d="M 0 1.25  C 0.331504 1.25 0.649475 1.118292 0.883883 0.883883  C 1.118292 0.649475 1.25 0.331504 1.25 0  C 1.25 -0.331504 1.118292 -0.649475 0.883883 -0.883883  C 0.649475 -1.118292 0.331504 -1.25 0 -1.25  C -0.331504 -1.25 -0.649475 -1.118292 -0.883883 -0.883883  C -1.118292 -0.649475 -1.25 -0.331504 -1.25 0  C -1.25 0.331504 -1.118292 0.649475 -0.883883 0.883883  C -0.649475 1.118292 -0.331504 1.25 0 1.25  z " id="b92318b9"/>
    </defs>
    <g clip-path="url(#p9dcf599ca1)">
     <use style="fill:#ef553b;stroke:#595959;stroke-width:0.8;" x="58.600625" xlink:href="#b92318b9" y="26.621589"/>
    </g>
    <g clip-path="url(#p9dcf599ca1)">
     <use style="fill:#ef553b;stroke:#595959;stroke-width:0.8;" x="58.600625" xlink:href="#b92318b9" y="127.144021"/>
    </g>
    <g clip-path="url(#p9dcf599ca1)">
     <use style="fill:#ef553b;stroke:#595959;stroke-width:0.8;" x="61.617521" xlink:href="#b92318b9" y="63.224866"/>
    </g>
    <g clip-path="url(#p9dcf599ca1)">
     <use style="fill:#ef553b;stroke:#595959;stroke-width:0.8;" x="58.200333" xlink:href="#b92318b9" y="63.771184"/>
    </g>
    <g clip-path="url(#p9dcf599ca1)">
     <use style="fill:#ef553b;stroke:#595959;stroke-width:0.8;" x="58.600625" xlink:href="#b92318b9" y="122.227163"/>
    </g>
    <g clip-path="url(#p9dcf599ca1)">
     <use style="fill:#ef553b;stroke:#595959;stroke-width:0.8;" x="58.600625" xlink:href="#b92318b9" y="109.661859"/>
    </g>
    <g clip-path="url(#p9dcf599ca1)">
     <use style="fill:#ef553b;stroke:#595959;stroke-width:0.8;" x="58.600625" xlink:href="#b92318b9" y="67.049089"/>
    </g>
    <g clip-path="url(#p9dcf599ca1)">
     <use style="fill:#ef553b;stroke:#595959;stroke-width:0.8;" x="58.600625" xlink:href="#b92318b9" y="113.486082"/>
    </g>
    <g clip-path="url(#p9dcf599ca1)">
     <use style="fill:#ef553b;stroke:#595959;stroke-width:0.8;" x="58.600625" xlink:href="#b92318b9" y="89.994427"/>
    </g>
   </g>
   <g id="PathCollection_2">
    <defs>
     <path d="M 0 1.25  C 0.331504 1.25 0.649475 1.118292 0.883883 0.883883  C 1.118292 0.649475 1.25 0.331504 1.25 0  C 1.25 -0.331504 1.118292 -0.649475 0.883883 -0.883883  C 0.649475 -1.118292 0.331504 -1.25 0 -1.25  C -0.331504 -1.25 -0.649475 -1.118292 -0.883883 -0.883883  C -1.118292 -0.649475 -1.25 -0.331504 -1.25 0  C -1.25 0.331504 -1.118292 0.649475 -0.883883 0.883883  C -0.649475 1.118292 -0.331504 1.25 0 1.25  z " id="f14a6027"/>
    </defs>
    <g clip-path="url(#p9dcf599ca1)">
     <use style="fill:#00cc96;stroke:#3d3d3d;stroke-width:0.8;" x="78.030625" xlink:href="#f14a6027" y="67.049089"/>
    </g>
    <g clip-path="url(#p9dcf599ca1)">
     <use style="fill:#00cc96;stroke:#3d3d3d;stroke-width:0.8;" x="74.613438" xlink:href="#f14a6027" y="124.412433"/>
    </g>
    <g clip-path="url(#p9dcf599ca1)">
     <use style="fill:#00cc96;stroke:#3d3d3d;stroke-width:0.8;" x="78.030625" xlink:href="#f14a6027" y="63.224866"/>
    </g>
    <g clip-path="url(#p9dcf599ca1)">
     <use style="fill:#00cc96;stroke:#3d3d3d;stroke-width:0.8;" x="78.030625" xlink:href="#f14a6027" y="83.438616"/>
    </g>
    <g clip-path="url(#p9dcf599ca1)">
     <use style="fill:#00cc96;stroke:#3d3d3d;stroke-width:0.8;" x="78.030625" xlink:href="#f14a6027" y="129.875609"/>
    </g>
    <g clip-path="url(#p9dcf599ca1)">
     <use style="fill:#00cc96;stroke:#3d3d3d;stroke-width:0.8;" x="78.030625" xlink:href="#f14a6027" y="147.357771"/>
    </g>
    <g clip-path="url(#p9dcf599ca1)">
     <use style="fill:#00cc96;stroke:#3d3d3d;stroke-width:0.8;" x="78.030625" xlink:href="#f14a6027" y="106.930271"/>
    </g>
    <g clip-path="url(#p9dcf599ca1)">
     <use style="fill:#00cc96;stroke:#3d3d3d;stroke-width:0.8;" x="78.030625" xlink:href="#f14a6027" y="124.958751"/>
    </g>
    <g clip-path="url(#p9dcf599ca1)">
     <use style="fill:#00cc96;stroke:#3d3d3d;stroke-width:0.8;" x="78.030625" xlink:href="#f14a6027" y="97.096555"/>
    </g>
   </g>
   <g id="PathCollection_3">
    <defs>
     <path d="M 0 1.25  C 0.331504 1.25 0.649475 1.118292 0.883883 0.883883  C 1.118292 0.649475 1.25 0.331504 1.25 0  C 1.25 -0.331504 1.118292 -0.649475 0.883883 -0.883883  C 0.649475 -1.118292 0.331504 -1.25 0 -1.25  C -0.331504 -1.25 -0.649475 -1.118292 -0.883883 -0.883883  C -1.118292 -0.649475 -1.25 -0.331504 -1.25 0  C -1.25 0.331504 -1.118292 0.649475 -0.883883 0.883883  C -0.649475 1.118292 -0.331504 1.25 0 1.25  z " id="195550a8"/>
    </defs>
    <g clip-path="url(#p9dcf599ca1)">
     <use style="fill:#ef553b;stroke:#595959;stroke-width:0.8;" x="107.175625" xlink:href="#195550a8" y="31.538447"/>
    </g>
    <g clip-path="url(#p9dcf599ca1)">
     <use style="fill:#ef553b;stroke:#595959;stroke-width:0.8;" x="107.175625" xlink:href="#195550a8" y="141.348277"/>
    </g>
    <g clip-path="url(#p9dcf599ca1)">
     <use style="fill:#ef553b;stroke:#595959;stroke-width:0.8;" x="107.175625" xlink:href="#195550a8" y="52.298515"/>
    </g>
    <g clip-path="url(#p9dcf599ca1)">
     <use style="fill:#ef553b;stroke:#595959;stroke-width:0.8;" x="107.175625" xlink:href="#195550a8" y="64.863819"/>
    </g>
    <g clip-path="url(#p9dcf599ca1)">
     <use style="fill:#ef553b;stroke:#595959;stroke-width:0.8;" x="107.175625" xlink:href="#195550a8" y="126.597703"/>
    </g>
    <g clip-path="url(#p9dcf599ca1)">
     <use style="fill:#ef553b;stroke:#595959;stroke-width:0.8;" x="107.175625" xlink:href="#195550a8" y="92.726014"/>
    </g>
    <g clip-path="url(#p9dcf599ca1)">
     <use style="fill:#ef553b;stroke:#595959;stroke-width:0.8;" x="107.175625" xlink:href="#195550a8" y="76.336488"/>
    </g>
    <g clip-path="url(#p9dcf599ca1)">
     <use style="fill:#ef553b;stroke:#595959;stroke-width:0.8;" x="107.175625" xlink:href="#195550a8" y="118.40294"/>
    </g>
    <g clip-path="url(#p9dcf599ca1)">
     <use style="fill:#ef553b;stroke:#595959;stroke-width:0.8;" x="107.175625" xlink:href="#195550a8" y="99.828143"/>
    </g>
   </g>
   <g id="PathCollection_4">
    <defs>
     <path d="M 0 1.25  C 0.331504 1.25 0.649475 1.118292 0.883883 0.883883  C 1.118292 0.649475 1.25 0.331504 1.25 0  C 1.25 -0.331504 1.118292 -0.649475 0.883883 -0.883883  C 0.649475 -1.118292 0.331504 -1.25 0 -1.25  C -0.331504 -1.25 -0.649475 -1.118292 -0.883883 -0.883883  C -1.118292 -0.649475 -1.25 -0.331504 -1.25 0  C -1.25 0.331504 -1.118292 0.649475 -0.883883 0.883883  C -0.649475 1.118292 -0.331504 1.25 0 1.25  z " id="03dbeb98"/>
    </defs>
    <g clip-path="url(#p9dcf599ca1)">
     <use style="fill:#00cc96;stroke:#3d3d3d;stroke-width:0.8;" x="126.605625" xlink:href="#03dbeb98" y="63.224866"/>
    </g>
    <g clip-path="url(#p9dcf599ca1)">
     <use style="fill:#00cc96;stroke:#3d3d3d;stroke-width:0.8;" x="126.605625" xlink:href="#03dbeb98" y="129.875609"/>
    </g>
    <g clip-path="url(#p9dcf599ca1)">
     <use style="fill:#00cc96;stroke:#3d3d3d;stroke-width:0.8;" x="126.605625" xlink:href="#03dbeb98" y="39.186893"/>
    </g>
    <g clip-path="url(#p9dcf599ca1)">
     <use style="fill:#00cc96;stroke:#3d3d3d;stroke-width:0.8;" x="123.59818" xlink:href="#03dbeb98" y="99.281825"/>
    </g>
    <g clip-path="url(#p9dcf599ca1)">
     <use style="fill:#00cc96;stroke:#3d3d3d;stroke-width:0.8;" x="126.605625" xlink:href="#03dbeb98" y="136.431419"/>
    </g>
    <g clip-path="url(#p9dcf599ca1)">
     <use style="fill:#00cc96;stroke:#3d3d3d;stroke-width:0.8;" x="126.605625" xlink:href="#03dbeb98" y="124.412433"/>
    </g>
    <g clip-path="url(#p9dcf599ca1)">
     <use style="fill:#00cc96;stroke:#3d3d3d;stroke-width:0.8;" x="123.188438" xlink:href="#03dbeb98" y="123.866115"/>
    </g>
    <g clip-path="url(#p9dcf599ca1)">
     <use style="fill:#00cc96;stroke:#3d3d3d;stroke-width:0.8;" x="124.661443" xlink:href="#03dbeb98" y="127.144021"/>
    </g>
    <g clip-path="url(#p9dcf599ca1)">
     <use style="fill:#00cc96;stroke:#3d3d3d;stroke-width:0.8;" x="126.605625" xlink:href="#03dbeb98" y="100.920778"/>
    </g>
   </g>
   <g id="PathCollection_5">
    <defs>
     <path d="M 0 1.25  C 0.331504 1.25 0.649475 1.118292 0.883883 0.883883  C 1.118292 0.649475 1.25 0.331504 1.25 0  C 1.25 -0.331504 1.118292 -0.649475 0.883883 -0.883883  C 0.649475 -1.118292 0.331504 -1.25 0 -1.25  C -0.331504 -1.25 -0.649475 -1.118292 -0.883883 -0.883883  C -1.118292 -0.649475 -1.25 -0.331504 -1.25 0  C -1.25 0.331504 -1.118292 0.649475 -0.883883 0.883883  C -0.649475 1.118292 -0.331504 1.25 0 1.25  z " id="498122d1"/>
    </defs>
    <g clip-path="url(#p9dcf599ca1)">
     <use style="fill:#ef553b;stroke:#595959;stroke-width:0.8;" x="155.750625" xlink:href="#498122d1" y="24.436319"/>
    </g>
    <g clip-path="url(#p9dcf599ca1)">
     <use style="fill:#ef553b;stroke:#595959;stroke-width:0.8;" x="155.750625" xlink:href="#498122d1" y="129.329291"/>
    </g>
    <g clip-path="url(#p9dcf599ca1)">
     <use style="fill:#ef553b;stroke:#595959;stroke-width:0.8;" x="155.750625" xlink:href="#498122d1" y="57.76169"/>
    </g>
    <g clip-path="url(#p9dcf599ca1)">
     <use style="fill:#ef553b;stroke:#595959;stroke-width:0.8;" x="155.750625" xlink:href="#498122d1" y="51.20588"/>
    </g>
    <g clip-path="url(#p9dcf599ca1)">
     <use style="fill:#ef553b;stroke:#595959;stroke-width:0.8;" x="155.750625" xlink:href="#498122d1" y="110.754494"/>
    </g>
    <g clip-path="url(#p9dcf599ca1)">
     <use style="fill:#ef553b;stroke:#595959;stroke-width:0.8;" x="155.750625" xlink:href="#498122d1" y="97.096555"/>
    </g>
    <g clip-path="url(#p9dcf599ca1)">
     <use style="fill:#ef553b;stroke:#595959;stroke-width:0.8;" x="155.750625" xlink:href="#498122d1" y="70.873312"/>
    </g>
    <g clip-path="url(#p9dcf599ca1)">
     <use style="fill:#ef553b;stroke:#595959;stroke-width:0.8;" x="155.750625" xlink:href="#498122d1" y="116.21767"/>
    </g>
    <g clip-path="url(#p9dcf599ca1)">
     <use style="fill:#ef553b;stroke:#595959;stroke-width:0.8;" x="155.750625" xlink:href="#498122d1" y="87.809156"/>
    </g>
   </g>
   <g id="PathCollection_6">
    <defs>
     <path d="M 0 1.25  C 0.331504 1.25 0.649475 1.118292 0.883883 0.883883  C 1.118292 0.649475 1.25 0.331504 1.25 0  C 1.25 -0.331504 1.118292 -0.649475 0.883883 -0.883883  C 0.649475 -1.118292 0.331504 -1.25 0 -1.25  C -0.331504 -1.25 -0.649475 -1.118292 -0.883883 -0.883883  C -1.118292 -0.649475 -1.25 -0.331504 -1.25 0  C -1.25 0.331504 -1.118292 0.649475 -0.883883 0.883883  C -0.649475 1.118292 -0.331504 1.25 0 1.25  z " id="14948447"/>
    </defs>
    <g clip-path="url(#p9dcf599ca1)">
     <use style="fill:#00cc96;stroke:#3d3d3d;stroke-width:0.8;" x="175.180625" xlink:href="#14948447" y="80.707028"/>
    </g>
    <g clip-path="url(#p9dcf599ca1)">
     <use style="fill:#00cc96;stroke:#3d3d3d;stroke-width:0.8;" x="175.591661" xlink:href="#14948447" y="127.690338"/>
    </g>
    <g clip-path="url(#p9dcf599ca1)">
     <use style="fill:#00cc96;stroke:#3d3d3d;stroke-width:0.8;" x="175.180625" xlink:href="#14948447" y="74.151217"/>
    </g>
    <g clip-path="url(#p9dcf599ca1)">
     <use style="fill:#00cc96;stroke:#3d3d3d;stroke-width:0.8;" x="175.180625" xlink:href="#14948447" y="34.816353"/>
    </g>
    <g clip-path="url(#p9dcf599ca1)">
     <use style="fill:#00cc96;stroke:#3d3d3d;stroke-width:0.8;" x="172.584216" xlink:href="#14948447" y="129.329291"/>
    </g>
    <g clip-path="url(#p9dcf599ca1)">
     <use style="fill:#00cc96;stroke:#3d3d3d;stroke-width:0.8;" x="175.180625" xlink:href="#14948447" y="117.310305"/>
    </g>
    <g clip-path="url(#p9dcf599ca1)">
     <use style="fill:#00cc96;stroke:#3d3d3d;stroke-width:0.8;" x="175.180625" xlink:href="#14948447" y="109.661859"/>
    </g>
    <g clip-path="url(#p9dcf599ca1)">
     <use style="fill:#00cc96;stroke:#3d3d3d;stroke-width:0.8;" x="175.180625" xlink:href="#14948447" y="131.514561"/>
    </g>
    <g clip-path="url(#p9dcf599ca1)">
     <use style="fill:#00cc96;stroke:#3d3d3d;stroke-width:0.8;" x="175.180625" xlink:href="#14948447" y="113.486082"/>
    </g>
   </g>
   <g id="PathCollection_7">
    <defs>
     <path d="M 0 1.25  C 0.331504 1.25 0.649475 1.118292 0.883883 0.883883  C 1.118292 0.649475 1.25 0.331504 1.25 0  C 1.25 -0.331504 1.118292 -0.649475 0.883883 -0.883883  C 0.649475 -1.118292 0.331504 -1.25 0 -1.25  C -0.331504 -1.25 -0.649475 -1.118292 -0.883883 -0.883883  C -1.118292 -0.649475 -1.25 -0.331504 -1.25 0  C -1.25 0.331504 -1.118292 0.649475 -0.883883 0.883883  C -0.649475 1.118292 -0.331504 1.25 0 1.25  z " id="47b74f94"/>
    </defs>
    <g clip-path="url(#p9dcf599ca1)">
     <use style="fill:#ef553b;stroke:#595959;stroke-width:0.8;" x="204.325625" xlink:href="#47b74f94" y="34.270035"/>
    </g>
    <g clip-path="url(#p9dcf599ca1)">
     <use style="fill:#ef553b;stroke:#595959;stroke-width:0.8;" x="204.325625" xlink:href="#47b74f94" y="122.227163"/>
    </g>
    <g clip-path="url(#p9dcf599ca1)">
     <use style="fill:#ef553b;stroke:#595959;stroke-width:0.8;" x="204.325625" xlink:href="#47b74f94" y="49.566927"/>
    </g>
    <g clip-path="url(#p9dcf599ca1)">
     <use style="fill:#ef553b;stroke:#595959;stroke-width:0.8;" x="201.056068" xlink:href="#47b74f94" y="48.474292"/>
    </g>
    <g clip-path="url(#p9dcf599ca1)">
     <use style="fill:#ef553b;stroke:#595959;stroke-width:0.8;" x="204.325625" xlink:href="#47b74f94" y="128.782974"/>
    </g>
    <g clip-path="url(#p9dcf599ca1)">
     <use style="fill:#ef553b;stroke:#595959;stroke-width:0.8;" x="204.325625" xlink:href="#47b74f94" y="91.087062"/>
    </g>
    <g clip-path="url(#p9dcf599ca1)">
     <use style="fill:#ef553b;stroke:#595959;stroke-width:0.8;" x="204.325625" xlink:href="#47b74f94" y="79.614393"/>
    </g>
    <g clip-path="url(#p9dcf599ca1)">
     <use style="fill:#ef553b;stroke:#595959;stroke-width:0.8;" x="200.860625" xlink:href="#47b74f94" y="122.227163"/>
    </g>
    <g clip-path="url(#p9dcf599ca1)">
     <use style="fill:#ef553b;stroke:#595959;stroke-width:0.8;" x="202.381443" xlink:href="#47b74f94" y="88.355474"/>
    </g>
   </g>
   <g id="PathCollection_8">
    <defs>
     <path d="M 0 1.25  C 0.331504 1.25 0.649475 1.118292 0.883883 0.883883  C 1.118292 0.649475 1.25 0.331504 1.25 0  C 1.25 -0.331504 1.118292 -0.649475 0.883883 -0.883883  C 0.649475 -1.118292 0.331504 -1.25 0 -1.25  C -0.331504 -1.25 -0.649475 -1.118292 -0.883883 -0.883883  C -1.118292 -0.649475 -1.25 -0.331504 -1.25 0  C -1.25 0.331504 -1.118292 0.649475 -0.883883 0.883883  C -0.649475 1.118292 -0.331504 1.25 0 1.25  z " id="1f5e023c"/>
    </defs>
    <g clip-path="url(#p9dcf599ca1)">
     <use style="fill:#00cc96;stroke:#3d3d3d;stroke-width:0.8;" x="223.755625" xlink:href="#1f5e023c" y="60.493278"/>
    </g>
    <g clip-path="url(#p9dcf599ca1)">
     <use style="fill:#00cc96;stroke:#3d3d3d;stroke-width:0.8;" x="223.755625" xlink:href="#1f5e023c" y="129.329291"/>
    </g>
    <g clip-path="url(#p9dcf599ca1)">
     <use style="fill:#00cc96;stroke:#3d3d3d;stroke-width:0.8;" x="223.755625" xlink:href="#1f5e023c" y="47.381657"/>
    </g>
    <g clip-path="url(#p9dcf599ca1)">
     <use style="fill:#00cc96;stroke:#3d3d3d;stroke-width:0.8;" x="223.755625" xlink:href="#1f5e023c" y="88.901791"/>
    </g>
    <g clip-path="url(#p9dcf599ca1)">
     <use style="fill:#00cc96;stroke:#3d3d3d;stroke-width:0.8;" x="226.352034" xlink:href="#1f5e023c" y="127.144021"/>
    </g>
    <g clip-path="url(#p9dcf599ca1)">
     <use style="fill:#00cc96;stroke:#3d3d3d;stroke-width:0.8;" x="223.755625" xlink:href="#1f5e023c" y="116.21767"/>
    </g>
    <g clip-path="url(#p9dcf599ca1)">
     <use style="fill:#00cc96;stroke:#3d3d3d;stroke-width:0.8;" x="220.74818" xlink:href="#1f5e023c" y="114.578717"/>
    </g>
    <g clip-path="url(#p9dcf599ca1)">
     <use style="fill:#00cc96;stroke:#3d3d3d;stroke-width:0.8;" x="220.338438" xlink:href="#1f5e023c" y="128.782974"/>
    </g>
    <g clip-path="url(#p9dcf599ca1)">
     <use style="fill:#00cc96;stroke:#3d3d3d;stroke-width:0.8;" x="223.755625" xlink:href="#1f5e023c" y="108.022906"/>
    </g>
   </g>
   <g id="PathCollection_9">
    <defs>
     <path d="M 0 1.25  C 0.331504 1.25 0.649475 1.118292 0.883883 0.883883  C 1.118292 0.649475 1.25 0.331504 1.25 0  C 1.25 -0.331504 1.118292 -0.649475 0.883883 -0.883883  C 0.649475 -1.118292 0.331504 -1.25 0 -1.25  C -0.331504 -1.25 -0.649475 -1.118292 -0.883883 -0.883883  C -1.118292 -0.649475 -1.25 -0.331504 -1.25 0  C -1.25 0.331504 -1.118292 0.649475 -0.883883 0.883883  C -0.649475 1.118292 -0.331504 1.25 0 1.25  z " id="6e821ccc"/>
    </defs>
    <g clip-path="url(#p9dcf599ca1)">
     <use style="fill:#ef553b;stroke:#595959;stroke-width:0.8;" x="252.900625" xlink:href="#6e821ccc" y="31.538447"/>
    </g>
    <g clip-path="url(#p9dcf599ca1)">
     <use style="fill:#ef553b;stroke:#595959;stroke-width:0.8;" x="252.900625" xlink:href="#6e821ccc" y="129.329291"/>
    </g>
    <g clip-path="url(#p9dcf599ca1)">
     <use style="fill:#ef553b;stroke:#595959;stroke-width:0.8;" x="252.900625" xlink:href="#6e821ccc" y="53.39115"/>
    </g>
    <g clip-path="url(#p9dcf599ca1)">
     <use style="fill:#ef553b;stroke:#595959;stroke-width:0.8;" x="252.900625" xlink:href="#6e821ccc" y="48.474292"/>
    </g>
    <g clip-path="url(#p9dcf599ca1)">
     <use style="fill:#ef553b;stroke:#595959;stroke-width:0.8;" x="252.900625" xlink:href="#6e821ccc" y="111.300812"/>
    </g>
    <g clip-path="url(#p9dcf599ca1)">
     <use style="fill:#ef553b;stroke:#595959;stroke-width:0.8;" x="252.500333" xlink:href="#6e821ccc" y="97.642872"/>
    </g>
    <g clip-path="url(#p9dcf599ca1)">
     <use style="fill:#ef553b;stroke:#595959;stroke-width:0.8;" x="252.900625" xlink:href="#6e821ccc" y="59.400643"/>
    </g>
    <g clip-path="url(#p9dcf599ca1)">
     <use style="fill:#ef553b;stroke:#595959;stroke-width:0.8;" x="252.500333" xlink:href="#6e821ccc" y="126.051386"/>
    </g>
    <g clip-path="url(#p9dcf599ca1)">
     <use style="fill:#ef553b;stroke:#595959;stroke-width:0.8;" x="252.900625" xlink:href="#6e821ccc" y="100.920778"/>
    </g>
   </g>
   <g id="PathCollection_10">
    <defs>
     <path d="M 0 1.25  C 0.331504 1.25 0.649475 1.118292 0.883883 0.883883  C 1.118292 0.649475 1.25 0.331504 1.25 0  C 1.25 -0.331504 1.118292 -0.649475 0.883883 -0.883883  C 0.649475 -1.118292 0.331504 -1.25 0 -1.25  C -0.331504 -1.25 -0.649475 -1.118292 -0.883883 -0.883883  C -1.118292 -0.649475 -1.25 -0.331504 -1.25 0  C -1.25 0.331504 -1.118292 0.649475 -0.883883 0.883883  C -0.649475 1.118292 -0.331504 1.25 0 1.25  z " id="7f52ce7c"/>
    </defs>
    <g clip-path="url(#p9dcf599ca1)">
     <use style="fill:#00cc96;stroke:#3d3d3d;stroke-width:0.8;" x="272.330625" xlink:href="#7f52ce7c" y="49.566927"/>
    </g>
    <g clip-path="url(#p9dcf599ca1)">
     <use style="fill:#00cc96;stroke:#3d3d3d;stroke-width:0.8;" x="272.330625" xlink:href="#7f52ce7c" y="129.329291"/>
    </g>
    <g clip-path="url(#p9dcf599ca1)">
     <use style="fill:#00cc96;stroke:#3d3d3d;stroke-width:0.8;" x="272.330625" xlink:href="#7f52ce7c" y="18.426826"/>
    </g>
    <g clip-path="url(#p9dcf599ca1)">
     <use style="fill:#00cc96;stroke:#3d3d3d;stroke-width:0.8;" x="269.061068" xlink:href="#7f52ce7c" y="48.474292"/>
    </g>
    <g clip-path="url(#p9dcf599ca1)">
     <use style="fill:#00cc96;stroke:#3d3d3d;stroke-width:0.8;" x="272.330625" xlink:href="#7f52ce7c" y="118.949257"/>
    </g>
    <g clip-path="url(#p9dcf599ca1)">
     <use style="fill:#00cc96;stroke:#3d3d3d;stroke-width:0.8;" x="273.803631" xlink:href="#7f52ce7c" y="115.671352"/>
    </g>
    <g clip-path="url(#p9dcf599ca1)">
     <use style="fill:#00cc96;stroke:#3d3d3d;stroke-width:0.8;" x="270.386443" xlink:href="#7f52ce7c" y="116.21767"/>
    </g>
    <g clip-path="url(#p9dcf599ca1)">
     <use style="fill:#00cc96;stroke:#3d3d3d;stroke-width:0.8;" x="272.330625" xlink:href="#7f52ce7c" y="133.699832"/>
    </g>
    <g clip-path="url(#p9dcf599ca1)">
     <use style="fill:#00cc96;stroke:#3d3d3d;stroke-width:0.8;" x="272.330625" xlink:href="#7f52ce7c" y="109.661859"/>
    </g>
   </g>
   <g id="PathCollection_11">
    <defs>
     <path d="M 0 1.25  C 0.331504 1.25 0.649475 1.118292 0.883883 0.883883  C 1.118292 0.649475 1.25 0.331504 1.25 0  C 1.25 -0.331504 1.118292 -0.649475 0.883883 -0.883883  C 0.649475 -1.118292 0.331504 -1.25 0 -1.25  C -0.331504 -1.25 -0.649475 -1.118292 -0.883883 -0.883883  C -1.118292 -0.649475 -1.25 -0.331504 -1.25 0  C -1.25 0.331504 -1.118292 0.649475 -0.883883 0.883883  C -0.649475 1.118292 -0.331504 1.25 0 1.25  z " id="5b638dfa"/>
    </defs>
    <g clip-path="url(#p9dcf599ca1)">
     <use style="fill:#ef553b;stroke:#595959;stroke-width:0.8;" x="301.475625" xlink:href="#5b638dfa" y="15.695238"/>
    </g>
    <g clip-path="url(#p9dcf599ca1)">
     <use style="fill:#ef553b;stroke:#595959;stroke-width:0.8;" x="301.475625" xlink:href="#5b638dfa" y="126.597703"/>
    </g>
    <g clip-path="url(#p9dcf599ca1)">
     <use style="fill:#ef553b;stroke:#595959;stroke-width:0.8;" x="301.475625" xlink:href="#5b638dfa" y="73.6049"/>
    </g>
    <g clip-path="url(#p9dcf599ca1)">
     <use style="fill:#ef553b;stroke:#595959;stroke-width:0.8;" x="301.475625" xlink:href="#5b638dfa" y="49.020609"/>
    </g>
    <g clip-path="url(#p9dcf599ca1)">
     <use style="fill:#ef553b;stroke:#595959;stroke-width:0.8;" x="301.475625" xlink:href="#5b638dfa" y="104.198683"/>
    </g>
    <g clip-path="url(#p9dcf599ca1)">
     <use style="fill:#ef553b;stroke:#595959;stroke-width:0.8;" x="301.475625" xlink:href="#5b638dfa" y="91.087062"/>
    </g>
    <g clip-path="url(#p9dcf599ca1)">
     <use style="fill:#ef553b;stroke:#595959;stroke-width:0.8;" x="301.475625" xlink:href="#5b638dfa" y="61.039596"/>
    </g>
    <g clip-path="url(#p9dcf599ca1)">
     <use style="fill:#ef553b;stroke:#595959;stroke-width:0.8;" x="298.879216" xlink:href="#5b638dfa" y="124.412433"/>
    </g>
    <g clip-path="url(#p9dcf599ca1)">
     <use style="fill:#ef553b;stroke:#595959;stroke-width:0.8;" x="298.879216" xlink:href="#5b638dfa" y="102.013413"/>
    </g>
   </g>
   <g id="PathCollection_12">
    <defs>
     <path d="M 0 1.25  C 0.331504 1.25 0.649475 1.118292 0.883883 0.883883  C 1.118292 0.649475 1.25 0.331504 1.25 0  C 1.25 -0.331504 1.118292 -0.649475 0.883883 -0.883883  C 0.649475 -1.118292 0.331504 -1.25 0 -1.25  C -0.331504 -1.25 -0.649475 -1.118292 -0.883883 -0.883883  C -1.118292 -0.649475 -1.25 -0.331504 -1.25 0  C -1.25 0.331504 -1.118292 0.649475 -0.883883 0.883883  C -0.649475 1.118292 -0.331504 1.25 0 1.25  z " id="0765b7bb"/>
    </defs>
    <g clip-path="url(#p9dcf599ca1)">
     <use style="fill:#00cc96;stroke:#3d3d3d;stroke-width:0.8;" x="320.905625" xlink:href="#0765b7bb" y="40.825846"/>
    </g>
    <g clip-path="url(#p9dcf599ca1)">
     <use style="fill:#00cc96;stroke:#3d3d3d;stroke-width:0.8;" x="320.905625" xlink:href="#0765b7bb" y="141.348277"/>
    </g>
    <g clip-path="url(#p9dcf599ca1)">
     <use style="fill:#00cc96;stroke:#3d3d3d;stroke-width:0.8;" x="320.905625" xlink:href="#0765b7bb" y="70.873312"/>
    </g>
    <g clip-path="url(#p9dcf599ca1)">
     <use style="fill:#00cc96;stroke:#3d3d3d;stroke-width:0.8;" x="320.905625" xlink:href="#0765b7bb" y="93.272332"/>
    </g>
    <g clip-path="url(#p9dcf599ca1)">
     <use style="fill:#00cc96;stroke:#3d3d3d;stroke-width:0.8;" x="320.905625" xlink:href="#0765b7bb" y="120.58821"/>
    </g>
    <g clip-path="url(#p9dcf599ca1)">
     <use style="fill:#00cc96;stroke:#3d3d3d;stroke-width:0.8;" x="320.905625" xlink:href="#0765b7bb" y="124.412433"/>
    </g>
    <g clip-path="url(#p9dcf599ca1)">
     <use style="fill:#00cc96;stroke:#3d3d3d;stroke-width:0.8;" x="320.905625" xlink:href="#0765b7bb" y="111.300812"/>
    </g>
    <g clip-path="url(#p9dcf599ca1)">
     <use style="fill:#00cc96;stroke:#3d3d3d;stroke-width:0.8;" x="320.905625" xlink:href="#0765b7bb" y="128.782974"/>
    </g>
    <g clip-path="url(#p9dcf599ca1)">
     <use style="fill:#00cc96;stroke:#3d3d3d;stroke-width:0.8;" x="320.905625" xlink:href="#0765b7bb" y="115.671352"/>
    </g>
   </g>
   <g id="PathCollection_13">
    <defs>
     <path d="M 0 1.25  C 0.331504 1.25 0.649475 1.118292 0.883883 0.883883  C 1.118292 0.649475 1.25 0.331504 1.25 0  C 1.25 -0.331504 1.118292 -0.649475 0.883883 -0.883883  C 0.649475 -1.118292 0.331504 -1.25 0 -1.25  C -0.331504 -1.25 -0.649475 -1.118292 -0.883883 -0.883883  C -1.118292 -0.649475 -1.25 -0.331504 -1.25 0  C -1.25 0.331504 -1.118292 0.649475 -0.883883 0.883883  C -0.649475 1.118292 -0.331504 1.25 0 1.25  z " id="a86e7e04"/>
    </defs>
    <g clip-path="url(#p9dcf599ca1)">
     <use style="fill:#ef553b;stroke:#595959;stroke-width:0.8;" x="350.050625" xlink:href="#a86e7e04" y="37.547941"/>
    </g>
    <g clip-path="url(#p9dcf599ca1)">
     <use style="fill:#ef553b;stroke:#595959;stroke-width:0.8;" x="350.050625" xlink:href="#a86e7e04" y="132.060879"/>
    </g>
    <g clip-path="url(#p9dcf599ca1)">
     <use style="fill:#ef553b;stroke:#595959;stroke-width:0.8;" x="350.050625" xlink:href="#a86e7e04" y="67.049089"/>
    </g>
    <g clip-path="url(#p9dcf599ca1)">
     <use style="fill:#ef553b;stroke:#595959;stroke-width:0.8;" x="350.050625" xlink:href="#a86e7e04" y="51.20588"/>
    </g>
    <g clip-path="url(#p9dcf599ca1)">
     <use style="fill:#ef553b;stroke:#595959;stroke-width:0.8;" x="350.050625" xlink:href="#a86e7e04" y="106.383953"/>
    </g>
    <g clip-path="url(#p9dcf599ca1)">
     <use style="fill:#ef553b;stroke:#595959;stroke-width:0.8;" x="350.050625" xlink:href="#a86e7e04" y="99.828143"/>
    </g>
    <g clip-path="url(#p9dcf599ca1)">
     <use style="fill:#ef553b;stroke:#595959;stroke-width:0.8;" x="350.050625" xlink:href="#a86e7e04" y="79.068075"/>
    </g>
    <g clip-path="url(#p9dcf599ca1)">
     <use style="fill:#ef553b;stroke:#595959;stroke-width:0.8;" x="350.050625" xlink:href="#a86e7e04" y="127.144021"/>
    </g>
    <g clip-path="url(#p9dcf599ca1)">
     <use style="fill:#ef553b;stroke:#595959;stroke-width:0.8;" x="346.781068" xlink:href="#a86e7e04" y="105.291318"/>
    </g>
   </g>
   <g id="PathCollection_14">
    <defs>
     <path d="M 0 1.25  C 0.331504 1.25 0.649475 1.118292 0.883883 0.883883  C 1.118292 0.649475 1.25 0.331504 1.25 0  C 1.25 -0.331504 1.118292 -0.649475 0.883883 -0.883883  C 0.649475 -1.118292 0.331504 -1.25 0 -1.25  C -0.331504 -1.25 -0.649475 -1.118292 -0.883883 -0.883883  C -1.118292 -0.649475 -1.25 -0.331504 -1.25 0  C -1.25 0.331504 -1.118292 0.649475 -0.883883 0.883883  C -0.649475 1.118292 -0.331504 1.25 0 1.25  z " id="dc21abfc"/>
    </defs>
    <g clip-path="url(#p9dcf599ca1)">
     <use style="fill:#00cc96;stroke:#3d3d3d;stroke-width:0.8;" x="369.480625" xlink:href="#dc21abfc" y="47.927974"/>
    </g>
    <g clip-path="url(#p9dcf599ca1)">
     <use style="fill:#00cc96;stroke:#3d3d3d;stroke-width:0.8;" x="369.480625" xlink:href="#dc21abfc" y="130.421926"/>
    </g>
    <g clip-path="url(#p9dcf599ca1)">
     <use style="fill:#00cc96;stroke:#3d3d3d;stroke-width:0.8;" x="369.480625" xlink:href="#dc21abfc" y="30.99213"/>
    </g>
    <g clip-path="url(#p9dcf599ca1)">
     <use style="fill:#00cc96;stroke:#3d3d3d;stroke-width:0.8;" x="369.480625" xlink:href="#dc21abfc" y="42.464799"/>
    </g>
    <g clip-path="url(#p9dcf599ca1)">
     <use style="fill:#00cc96;stroke:#3d3d3d;stroke-width:0.8;" x="369.480625" xlink:href="#dc21abfc" y="118.40294"/>
    </g>
    <g clip-path="url(#p9dcf599ca1)">
     <use style="fill:#00cc96;stroke:#3d3d3d;stroke-width:0.8;" x="369.480625" xlink:href="#dc21abfc" y="114.032399"/>
    </g>
    <g clip-path="url(#p9dcf599ca1)">
     <use style="fill:#00cc96;stroke:#3d3d3d;stroke-width:0.8;" x="372.750182" xlink:href="#dc21abfc" y="129.329291"/>
    </g>
    <g clip-path="url(#p9dcf599ca1)">
     <use style="fill:#00cc96;stroke:#3d3d3d;stroke-width:0.8;" x="369.480625" xlink:href="#dc21abfc" y="126.597703"/>
    </g>
    <g clip-path="url(#p9dcf599ca1)">
     <use style="fill:#00cc96;stroke:#3d3d3d;stroke-width:0.8;" x="366.015625" xlink:href="#dc21abfc" y="130.421926"/>
    </g>
   </g>
   <g id="legend_1">
    <g id="patch_19">
     <path d="M 391.053125 112.045312  L 486.960938 112.045312  Q 488.960938 112.045312 488.960938 110.045312  L 488.960938 82.754687  Q 488.960938 80.754687 486.960938 80.754687  L 391.053125 80.754687  Q 389.053125 80.754687 389.053125 82.754687  L 389.053125 110.045312  Q 389.053125 112.045312 391.053125 112.045312  z " style="fill:#ffffff;opacity:0.8;stroke:#cccccc;stroke-linejoin:miter;"/>
    </g>
    <g id="patch_20">
     <path d="M 393.053125 91.9125  L 413.053125 91.9125  L 413.053125 84.9125  L 393.053125 84.9125  z " style="fill:#dd624d;"/>
    </g>
    <g id="text_16">
     <!-- tdTomato cells -->
     <defs>
      <path d="M 25.78125 7.859375  L 27.046875 0.09375  Q 23.34375 -0.6875 20.40625 -0.6875  Q 15.625 -0.6875 12.984375 0.828125  Q 10.359375 2.34375 9.28125 4.8125  Q 8.203125 7.28125 8.203125 15.1875  L 8.203125 45.015625  L 1.765625 45.015625  L 1.765625 51.859375  L 8.203125 51.859375  L 8.203125 64.703125  L 16.9375 69.96875  L 16.9375 51.859375  L 25.78125 51.859375  L 25.78125 45.015625  L 16.9375 45.015625  L 16.9375 14.703125  Q 16.9375 10.9375 17.40625 9.859375  Q 17.875 8.796875 18.921875 8.15625  Q 19.96875 7.515625 21.921875 7.515625  Q 23.390625 7.515625 25.78125 7.859375  z " id="871b0a40"/>
      <path d="M 40.234375 0  L 40.234375 6.546875  Q 35.296875 -1.171875 25.734375 -1.171875  Q 19.53125 -1.171875 14.328125 2.25  Q 9.125 5.671875 6.265625 11.796875  Q 3.421875 17.921875 3.421875 25.875  Q 3.421875 33.640625 6 39.96875  Q 8.59375 46.296875 13.765625 49.65625  Q 18.953125 53.03125 25.34375 53.03125  Q 30.03125 53.03125 33.6875 51.046875  Q 37.359375 49.078125 39.65625 45.90625  L 39.65625 71.578125  L 48.390625 71.578125  L 48.390625 0  z M 12.453125 25.875  Q 12.453125 15.921875 16.640625 10.984375  Q 20.84375 6.0625 26.5625 6.0625  Q 32.328125 6.0625 36.34375 10.765625  Q 40.375 15.484375 40.375 25.140625  Q 40.375 35.796875 36.265625 40.765625  Q 32.171875 45.75 26.171875 45.75  Q 20.3125 45.75 16.375 40.96875  Q 12.453125 36.1875 12.453125 25.875  z " id="0e8efc37"/>
      <path d="M 25.921875 0  L 25.921875 63.140625  L 2.34375 63.140625  L 2.34375 71.578125  L 59.078125 71.578125  L 59.078125 63.140625  L 35.40625 63.140625  L 35.40625 0  z " id="1ae1234c"/>
      <path d="M 3.328125 25.921875  Q 3.328125 40.328125 11.328125 47.265625  Q 18.015625 53.03125 27.640625 53.03125  Q 38.328125 53.03125 45.109375 46.015625  Q 51.90625 39.015625 51.90625 26.65625  Q 51.90625 16.65625 48.90625 10.90625  Q 45.90625 5.171875 40.15625 2  Q 34.421875 -1.171875 27.640625 -1.171875  Q 16.75 -1.171875 10.03125 5.8125  Q 3.328125 12.796875 3.328125 25.921875  z M 12.359375 25.921875  Q 12.359375 15.96875 16.703125 11.015625  Q 21.046875 6.0625 27.640625 6.0625  Q 34.1875 6.0625 38.53125 11.03125  Q 42.875 16.015625 42.875 26.21875  Q 42.875 35.84375 38.5 40.796875  Q 34.125 45.75 27.640625 45.75  Q 21.046875 45.75 16.703125 40.8125  Q 12.359375 35.890625 12.359375 25.921875  z " id="50237f8a"/>
      <path d="M 6.59375 0  L 6.59375 51.859375  L 14.453125 51.859375  L 14.453125 44.578125  Q 16.890625 48.390625 20.9375 50.703125  Q 25 53.03125 30.171875 53.03125  Q 35.9375 53.03125 39.625 50.640625  Q 43.3125 48.25 44.828125 43.953125  Q 50.984375 53.03125 60.84375 53.03125  Q 68.5625 53.03125 72.703125 48.75  Q 76.859375 44.484375 76.859375 35.59375  L 76.859375 0  L 68.109375 0  L 68.109375 32.671875  Q 68.109375 37.9375 67.25 40.25  Q 66.40625 42.578125 64.15625 43.984375  Q 61.921875 45.40625 58.890625 45.40625  Q 53.421875 45.40625 49.796875 41.765625  Q 46.1875 38.140625 46.1875 30.125  L 46.1875 0  L 37.40625 0  L 37.40625 33.6875  Q 37.40625 39.546875 35.25 42.46875  Q 33.109375 45.40625 28.21875 45.40625  Q 24.515625 45.40625 21.359375 43.453125  Q 18.21875 41.5 16.796875 37.734375  Q 15.375 33.984375 15.375 26.90625  L 15.375 0  z " id="4d18110a"/>
      <path d="M 40.4375 19  L 49.078125 17.875  Q 47.65625 8.9375 41.8125 3.875  Q 35.984375 -1.171875 27.484375 -1.171875  Q 16.84375 -1.171875 10.375 5.78125  Q 3.90625 12.75 3.90625 25.734375  Q 3.90625 34.125 6.6875 40.421875  Q 9.46875 46.734375 15.15625 49.875  Q 20.84375 53.03125 27.546875 53.03125  Q 35.984375 53.03125 41.359375 48.75  Q 46.734375 44.484375 48.25 36.625  L 39.703125 35.296875  Q 38.484375 40.53125 35.375 43.15625  Q 32.28125 45.796875 27.875 45.796875  Q 21.234375 45.796875 17.078125 41.03125  Q 12.9375 36.28125 12.9375 25.984375  Q 12.9375 15.53125 16.9375 10.796875  Q 20.953125 6.0625 27.390625 6.0625  Q 32.5625 6.0625 36.03125 9.234375  Q 39.5 12.40625 40.4375 19  z " id="1f4d7244"/>
      <path d="M 42.09375 16.703125  L 51.171875 15.578125  Q 49.03125 7.625 43.21875 3.21875  Q 37.40625 -1.171875 28.375 -1.171875  Q 17 -1.171875 10.328125 5.828125  Q 3.65625 12.84375 3.65625 25.484375  Q 3.65625 38.578125 10.390625 45.796875  Q 17.140625 53.03125 27.875 53.03125  Q 38.28125 53.03125 44.875 45.953125  Q 51.46875 38.875 51.46875 26.03125  Q 51.46875 25.25 51.421875 23.6875  L 12.75 23.6875  Q 13.234375 15.140625 17.578125 10.59375  Q 21.921875 6.0625 28.421875 6.0625  Q 33.25 6.0625 36.671875 8.59375  Q 40.09375 11.140625 42.09375 16.703125  z M 13.234375 30.90625  L 42.1875 30.90625  Q 41.609375 37.453125 38.875 40.71875  Q 34.671875 45.796875 27.984375 45.796875  Q 21.921875 45.796875 17.796875 41.75  Q 13.671875 37.703125 13.234375 30.90625  z " id="a5002d27"/>
      <path d="M 6.390625 0  L 6.390625 71.578125  L 15.1875 71.578125  L 15.1875 0  z " id="caf34b2b"/>
      <path d="M 3.078125 15.484375  L 11.765625 16.84375  Q 12.5 11.625 15.84375 8.84375  Q 19.1875 6.0625 25.203125 6.0625  Q 31.25 6.0625 34.171875 8.515625  Q 37.109375 10.984375 37.109375 14.3125  Q 37.109375 17.28125 34.515625 19  Q 32.71875 20.171875 25.53125 21.96875  Q 15.875 24.421875 12.140625 26.203125  Q 8.40625 27.984375 6.46875 31.125  Q 4.546875 34.28125 4.546875 38.09375  Q 4.546875 41.546875 6.125 44.5  Q 7.71875 47.46875 10.453125 49.421875  Q 12.5 50.921875 16.03125 51.96875  Q 19.578125 53.03125 23.640625 53.03125  Q 29.734375 53.03125 34.34375 51.265625  Q 38.96875 49.515625 41.15625 46.5  Q 43.359375 43.5 44.1875 38.484375  L 35.59375 37.3125  Q 35.015625 41.3125 32.203125 43.546875  Q 29.390625 45.796875 24.265625 45.796875  Q 18.21875 45.796875 15.625 43.796875  Q 13.03125 41.796875 13.03125 39.109375  Q 13.03125 37.40625 14.109375 36.03125  Q 15.1875 34.625 17.484375 33.6875  Q 18.796875 33.203125 25.25 31.453125  Q 34.578125 28.953125 38.25 27.359375  Q 41.9375 25.78125 44.03125 22.75  Q 46.140625 19.734375 46.140625 15.234375  Q 46.140625 10.84375 43.578125 6.953125  Q 41.015625 3.078125 36.171875 0.953125  Q 31.34375 -1.171875 25.25 -1.171875  Q 15.140625 -1.171875 9.84375 3.03125  Q 4.546875 7.234375 3.078125 15.484375  z " id="5166fa6e"/>
     </defs>
     <g transform="translate(421.053125 91.9125)scale(0.1 -0.1)">
      <use xlink:href="#871b0a40"/>
      <use x="27.783203" xlink:href="#0e8efc37"/>
      <use x="83.398438" xlink:href="#1ae1234c"/>
      <use x="133.357422" xlink:href="#50237f8a"/>
      <use x="188.972656" xlink:href="#4d18110a"/>
      <use x="272.273438" xlink:href="#70bf6d72"/>
      <use x="327.888672" xlink:href="#871b0a40"/>
      <use x="355.671875" xlink:href="#50237f8a"/>
      <use x="411.287109" xlink:href="#62c868cf"/>
      <use x="439.070312" xlink:href="#1f4d7244"/>
      <use x="489.070312" xlink:href="#a5002d27"/>
      <use x="544.685547" xlink:href="#caf34b2b"/>
      <use x="566.902344" xlink:href="#caf34b2b"/>
      <use x="589.119141" xlink:href="#5166fa6e"/>
     </g>
    </g>
    <g id="patch_21">
     <path d="M 393.053125 106.057812  L 413.053125 106.057812  L 413.053125 99.057812  L 393.053125 99.057812  z " style="fill:#14b88c;"/>
    </g>
    <g id="text_17">
     <!-- GCaMP cells -->
     <defs>
      <path d="M 41.21875 28.078125  L 41.21875 36.46875  L 71.53125 36.53125  L 71.53125 9.96875  Q 64.546875 4.390625 57.125 1.578125  Q 49.703125 -1.21875 41.890625 -1.21875  Q 31.34375 -1.21875 22.71875 3.296875  Q 14.109375 7.8125 9.71875 16.359375  Q 5.328125 24.90625 5.328125 35.453125  Q 5.328125 45.90625 9.6875 54.953125  Q 14.0625 64.015625 22.265625 68.40625  Q 30.46875 72.796875 41.15625 72.796875  Q 48.921875 72.796875 55.1875 70.28125  Q 61.46875 67.78125 65.03125 63.28125  Q 68.609375 58.796875 70.453125 51.5625  L 61.921875 49.21875  Q 60.296875 54.6875 57.90625 57.8125  Q 55.515625 60.9375 51.0625 62.8125  Q 46.625 64.703125 41.21875 64.703125  Q 34.71875 64.703125 29.984375 62.71875  Q 25.25 60.75 22.34375 57.515625  Q 19.4375 54.296875 17.828125 50.4375  Q 15.09375 43.796875 15.09375 36.03125  Q 15.09375 26.46875 18.390625 20.015625  Q 21.6875 13.578125 27.984375 10.453125  Q 34.28125 7.328125 41.359375 7.328125  Q 47.515625 7.328125 53.375 9.6875  Q 59.234375 12.0625 62.25 14.75  L 62.25 28.078125  z " id="c9b780f6"/>
      <path d="M 58.796875 25.09375  L 68.265625 22.703125  Q 65.28125 11.03125 57.546875 4.90625  Q 49.8125 -1.21875 38.625 -1.21875  Q 27.046875 -1.21875 19.796875 3.484375  Q 12.546875 8.203125 8.765625 17.140625  Q 4.984375 26.078125 4.984375 36.328125  Q 4.984375 47.515625 9.25 55.828125  Q 13.53125 64.15625 21.40625 68.46875  Q 29.296875 72.796875 38.765625 72.796875  Q 49.515625 72.796875 56.828125 67.328125  Q 64.15625 61.859375 67.046875 51.953125  L 57.71875 49.75  Q 55.21875 57.5625 50.484375 61.125  Q 45.75 64.703125 38.578125 64.703125  Q 30.328125 64.703125 24.78125 60.734375  Q 19.234375 56.78125 16.984375 50.109375  Q 14.75 43.453125 14.75 36.375  Q 14.75 27.25 17.40625 20.4375  Q 20.0625 13.625 25.671875 10.25  Q 31.296875 6.890625 37.84375 6.890625  Q 45.796875 6.890625 51.3125 11.46875  Q 56.84375 16.0625 58.796875 25.09375  z " id="47bc612b"/>
      <path d="M 7.421875 0  L 7.421875 71.578125  L 21.6875 71.578125  L 38.625 20.90625  Q 40.96875 13.8125 42.046875 10.296875  Q 43.265625 14.203125 45.84375 21.78125  L 62.984375 71.578125  L 75.734375 71.578125  L 75.734375 0  L 66.609375 0  L 66.609375 59.90625  L 45.796875 0  L 37.25 0  L 16.546875 60.9375  L 16.546875 0  z " id="6e57f8d3"/>
      <path d="M 7.71875 0  L 7.71875 71.578125  L 34.71875 71.578125  Q 41.84375 71.578125 45.609375 70.90625  Q 50.875 70.015625 54.4375 67.546875  Q 58.015625 65.09375 60.1875 60.640625  Q 62.359375 56.203125 62.359375 50.875  Q 62.359375 41.75 56.546875 35.421875  Q 50.734375 29.109375 35.546875 29.109375  L 17.1875 29.109375  L 17.1875 0  z M 17.1875 37.546875  L 35.6875 37.546875  Q 44.875 37.546875 48.734375 40.96875  Q 52.59375 44.390625 52.59375 50.59375  Q 52.59375 55.078125 50.3125 58.265625  Q 48.046875 61.46875 44.34375 62.5  Q 41.9375 63.140625 35.5 63.140625  L 17.1875 63.140625  z " id="97ee11d9"/>
     </defs>
     <g transform="translate(421.053125 106.057812)scale(0.1 -0.1)">
      <use xlink:href="#c9b780f6"/>
      <use x="77.783203" xlink:href="#47bc612b"/>
      <use x="150" xlink:href="#70bf6d72"/>
      <use x="205.615234" xlink:href="#6e57f8d3"/>
      <use x="288.916016" xlink:href="#97ee11d9"/>
      <use x="353.865234" xlink:href="#62c868cf"/>
      <use x="381.648438" xlink:href="#1f4d7244"/>
      <use x="431.648438" xlink:href="#a5002d27"/>
      <use x="487.263672" xlink:href="#caf34b2b"/>
      <use x="509.480469" xlink:href="#caf34b2b"/>
      <use x="531.697266" xlink:href="#5166fa6e"/>
     </g>
    </g>
   </g>
  </g>
 </g>
 <defs>
  <clipPath id="p9dcf599ca1">
   <rect height="178.4" width="340.025" x="44.028125" y="7.2"/>
  </clipPath>
 </defs>
</svg>
