<!DOCTYPE svg PUBLIC "-//W3C//DTD SVG 1.1//EN" "http://www.w3.org/Graphics/SVG/1.1/DTD/svg11.dtd">
<!-- Created with matplotlib (https://matplotlib.org/) -->
<svg xmlns="http://www.w3.org/2000/svg" xmlns:xlink="http://www.w3.org/1999/xlink" height="180.292188pt" version="1.1" viewBox="0 0 507.254687 180.292188" width="507.254687pt">
 <defs>
  <style type="text/css">
*{stroke-linecap:butt;stroke-linejoin:round;}
  </style>
 </defs>
 <g id="figure_1">
  <g id="patch_1">
   <path d="M 0 180.292188  L 507.254687 180.292188  L 507.254687 0  L 0 0  z " style="fill:#ffffff;"/>
  </g>
  <g id="axes_1">
   <g id="patch_2">
    <path d="M 41.454688 156.8  L 384.354687 156.8  L 384.354687 7.2  L 41.454688 7.2  z " style="fill:#ffffff;"/>
   </g>
   <g id="patch_3">
    <path clip-path="url(#paa4726cd0b)" d="M 46.353259 156.8  L 65.947545 156.8  L 65.947545 62.268967  L 46.353259 62.268967  z " style="fill:#dd624d;"/>
   </g>
   <g id="patch_4">
    <path clip-path="url(#paa4726cd0b)" d="M 95.338973 156.8  L 114.933259 156.8  L 114.933259 60.00789  L 95.338973 60.00789  z " style="fill:#dd624d;"/>
   </g>
   <g id="patch_5">
    <path clip-path="url(#paa4726cd0b)" d="M 144.324687 156.8  L 163.918973 156.8  L 163.918973 62.522827  L 144.324687 62.522827  z " style="fill:#dd624d;"/>
   </g>
   <g id="patch_6">
    <path clip-path="url(#paa4726cd0b)" d="M 193.310402 156.8  L 212.904687 156.8  L 212.904687 61.226462  L 193.310402 61.226462  z " style="fill:#dd624d;"/>
   </g>
   <g id="patch_7">
    <path clip-path="url(#paa4726cd0b)" d="M 242.296116 156.8  L 261.890402 156.8  L 261.890402 53.425909  L 242.296116 53.425909  z " style="fill:#dd624d;"/>
   </g>
   <g id="patch_8">
    <path clip-path="url(#paa4726cd0b)" d="M 291.28183 156.8  L 310.876116 156.8  L 310.876116 60.955477  L 291.28183 60.955477  z " style="fill:#dd624d;"/>
   </g>
   <g id="patch_9">
    <path clip-path="url(#paa4726cd0b)" d="M 340.267545 156.8  L 359.86183 156.8  L 359.86183 52.142093  L 340.267545 52.142093  z " style="fill:#dd624d;"/>
   </g>
   <g id="patch_10">
    <path clip-path="url(#paa4726cd0b)" d="M 65.947545 156.8  L 85.54183 156.8  L 85.54183 41.381716  L 65.947545 41.381716  z " style="fill:#14b88c;"/>
   </g>
   <g id="patch_11">
    <path clip-path="url(#paa4726cd0b)" d="M 114.933259 156.8  L 134.527545 156.8  L 134.527545 42.477429  L 114.933259 42.477429  z " style="fill:#14b88c;"/>
   </g>
   <g id="patch_12">
    <path clip-path="url(#paa4726cd0b)" d="M 163.918973 156.8  L 183.513259 156.8  L 183.513259 40.569142  L 163.918973 40.569142  z " style="fill:#14b88c;"/>
   </g>
   <g id="patch_13">
    <path clip-path="url(#paa4726cd0b)" d="M 212.904687 156.8  L 232.498973 156.8  L 232.498973 41.402842  L 212.904687 41.402842  z " style="fill:#14b88c;"/>
   </g>
   <g id="patch_14">
    <path clip-path="url(#paa4726cd0b)" d="M 261.890402 156.8  L 281.484688 156.8  L 281.484688 40.456357  L 261.890402 40.456357  z " style="fill:#14b88c;"/>
   </g>
   <g id="patch_15">
    <path clip-path="url(#paa4726cd0b)" d="M 310.876116 156.8  L 330.470402 156.8  L 330.470402 33.710749  L 310.876116 33.710749  z " style="fill:#14b88c;"/>
   </g>
   <g id="patch_16">
    <path clip-path="url(#paa4726cd0b)" d="M 359.86183 156.8  L 379.456116 156.8  L 379.456116 40.549459  L 359.86183 40.549459  z " style="fill:#14b88c;"/>
   </g>
   <g id="matplotlib.axis_1">
    <g id="xtick_1">
     <g id="line2d_1">
      <defs>
       <path d="M 0 0  L 0 3.5  " id="9681a9aa" style="stroke:#000000;stroke-width:0.8;"/>
      </defs>
      <g>
       <use style="stroke:#000000;stroke-width:0.8;" x="65.947545" xlink:href="#9681a9aa" y="156.8"/>
      </g>
     </g>
     <g id="text_1">
      <!-- Day 1 -->
      <defs>
       <path d="M 7.71875 0  L 7.71875 71.578125  L 32.375 71.578125  Q 40.71875 71.578125 45.125 70.5625  Q 51.265625 69.140625 55.609375 65.4375  Q 61.28125 60.640625 64.078125 53.1875  Q 66.890625 45.75 66.890625 36.1875  Q 66.890625 28.03125 64.984375 21.734375  Q 63.09375 15.4375 60.109375 11.296875  Q 57.125 7.171875 53.578125 4.796875  Q 50.046875 2.4375 45.046875 1.21875  Q 40.046875 0 33.546875 0  z M 17.1875 8.453125  L 32.46875 8.453125  Q 39.546875 8.453125 43.578125 9.765625  Q 47.609375 11.078125 50 13.484375  Q 53.375 16.84375 55.25 22.53125  Q 57.125 28.21875 57.125 36.328125  Q 57.125 47.5625 53.4375 53.59375  Q 49.75 59.625 44.484375 61.671875  Q 40.671875 63.140625 32.234375 63.140625  L 17.1875 63.140625  z " id="eff79c38"/>
       <path d="M 40.4375 6.390625  Q 35.546875 2.25 31.03125 0.53125  Q 26.515625 -1.171875 21.34375 -1.171875  Q 12.796875 -1.171875 8.203125 3  Q 3.609375 7.171875 3.609375 13.671875  Q 3.609375 17.484375 5.34375 20.625  Q 7.078125 23.78125 9.890625 25.6875  Q 12.703125 27.59375 16.21875 28.5625  Q 18.796875 29.25 24.03125 29.890625  Q 34.671875 31.15625 39.703125 32.90625  Q 39.75 34.71875 39.75 35.203125  Q 39.75 40.578125 37.25 42.78125  Q 33.890625 45.75 27.25 45.75  Q 21.046875 45.75 18.09375 43.578125  Q 15.140625 41.40625 13.71875 35.890625  L 5.125 37.0625  Q 6.296875 42.578125 8.984375 45.96875  Q 11.671875 49.359375 16.75 51.1875  Q 21.828125 53.03125 28.515625 53.03125  Q 35.15625 53.03125 39.296875 51.46875  Q 43.453125 49.90625 45.40625 47.53125  Q 47.359375 45.171875 48.140625 41.546875  Q 48.578125 39.3125 48.578125 33.453125  L 48.578125 21.734375  Q 48.578125 9.46875 49.140625 6.21875  Q 49.703125 2.984375 51.375 0  L 42.1875 0  Q 40.828125 2.734375 40.4375 6.390625  z M 39.703125 26.03125  Q 34.90625 24.078125 25.34375 22.703125  Q 19.921875 21.921875 17.671875 20.9375  Q 15.4375 19.96875 14.203125 18.09375  Q 12.984375 16.21875 12.984375 13.921875  Q 12.984375 10.40625 15.640625 8.0625  Q 18.3125 5.71875 23.4375 5.71875  Q 28.515625 5.71875 32.46875 7.9375  Q 36.421875 10.15625 38.28125 14.015625  Q 39.703125 17 39.703125 22.796875  z " id="00ec75b3"/>
       <path d="M 6.203125 -19.96875  L 5.21875 -11.71875  Q 8.109375 -12.5 10.25 -12.5  Q 13.1875 -12.5 14.9375 -11.515625  Q 16.703125 -10.546875 17.828125 -8.796875  Q 18.65625 -7.46875 20.515625 -2.25  Q 20.75 -1.515625 21.296875 -0.09375  L 1.609375 51.859375  L 11.078125 51.859375  L 21.875 21.828125  Q 23.96875 16.109375 25.640625 9.8125  Q 27.15625 15.875 29.25 21.625  L 40.328125 51.859375  L 49.125 51.859375  L 29.390625 -0.875  Q 26.21875 -9.421875 24.46875 -12.640625  Q 22.125 -17 19.09375 -19.015625  Q 16.0625 -21.046875 11.859375 -21.046875  Q 9.328125 -21.046875 6.203125 -19.96875  z " id="c3e0ed16"/>
       <path id="cce6cd22"/>
       <path d="M 37.25 0  L 28.46875 0  L 28.46875 56  Q 25.296875 52.984375 20.140625 49.953125  Q 14.984375 46.921875 10.890625 45.40625  L 10.890625 53.90625  Q 18.265625 57.375 23.78125 62.296875  Q 29.296875 67.234375 31.59375 71.875  L 37.25 71.875  z " id="28b72d04"/>
      </defs>
      <g transform="translate(52.886607 170.9875)scale(0.1 -0.1)">
       <use xlink:href="#eff79c38"/>
       <use x="72.216797" xlink:href="#00ec75b3"/>
       <use x="127.832031" xlink:href="#c3e0ed16"/>
       <use x="177.832031" xlink:href="#cce6cd22"/>
       <use x="205.615234" xlink:href="#28b72d04"/>
      </g>
     </g>
    </g>
    <g id="xtick_2">
     <g id="line2d_2">
      <g>
       <use style="stroke:#000000;stroke-width:0.8;" x="114.933259" xlink:href="#9681a9aa" y="156.8"/>
      </g>
     </g>
     <g id="text_2">
      <!-- Day 3 -->
      <defs>
       <path d="M 4.203125 18.890625  L 12.984375 20.0625  Q 14.5 12.59375 18.140625 9.296875  Q 21.78125 6 27 6  Q 33.203125 6 37.46875 10.296875  Q 41.75 14.59375 41.75 20.953125  Q 41.75 27 37.796875 30.921875  Q 33.84375 34.859375 27.734375 34.859375  Q 25.25 34.859375 21.53125 33.890625  L 22.515625 41.609375  Q 23.390625 41.5 23.921875 41.5  Q 29.546875 41.5 34.03125 44.421875  Q 38.53125 47.359375 38.53125 53.46875  Q 38.53125 58.296875 35.25 61.46875  Q 31.984375 64.65625 26.8125 64.65625  Q 21.6875 64.65625 18.265625 61.421875  Q 14.84375 58.203125 13.875 51.765625  L 5.078125 53.328125  Q 6.6875 62.15625 12.390625 67.015625  Q 18.109375 71.875 26.609375 71.875  Q 32.46875 71.875 37.390625 69.359375  Q 42.328125 66.84375 44.9375 62.5  Q 47.5625 58.15625 47.5625 53.265625  Q 47.5625 48.640625 45.0625 44.828125  Q 42.578125 41.015625 37.703125 38.765625  Q 44.046875 37.3125 47.5625 32.6875  Q 51.078125 28.078125 51.078125 21.140625  Q 51.078125 11.765625 44.234375 5.25  Q 37.40625 -1.265625 26.953125 -1.265625  Q 17.53125 -1.265625 11.296875 4.34375  Q 5.078125 9.96875 4.203125 18.890625  z " id="50353cd2"/>
      </defs>
      <g transform="translate(101.872321 170.9875)scale(0.1 -0.1)">
       <use xlink:href="#eff79c38"/>
       <use x="72.216797" xlink:href="#00ec75b3"/>
       <use x="127.832031" xlink:href="#c3e0ed16"/>
       <use x="177.832031" xlink:href="#cce6cd22"/>
       <use x="205.615234" xlink:href="#50353cd2"/>
      </g>
     </g>
    </g>
    <g id="xtick_3">
     <g id="line2d_3">
      <g>
       <use style="stroke:#000000;stroke-width:0.8;" x="163.918973" xlink:href="#9681a9aa" y="156.8"/>
      </g>
     </g>
     <g id="text_3">
      <!-- Day 5 -->
      <defs>
       <path d="M 4.15625 18.75  L 13.375 19.53125  Q 14.40625 12.796875 18.140625 9.390625  Q 21.875 6 27.15625 6  Q 33.5 6 37.890625 10.78125  Q 42.28125 15.578125 42.28125 23.484375  Q 42.28125 31 38.0625 35.34375  Q 33.84375 39.703125 27 39.703125  Q 22.75 39.703125 19.328125 37.765625  Q 15.921875 35.84375 13.96875 32.765625  L 5.71875 33.84375  L 12.640625 70.609375  L 48.25 70.609375  L 48.25 62.203125  L 19.671875 62.203125  L 15.828125 42.96875  Q 22.265625 47.46875 29.34375 47.46875  Q 38.71875 47.46875 45.15625 40.96875  Q 51.609375 34.46875 51.609375 24.265625  Q 51.609375 14.546875 45.953125 7.46875  Q 39.0625 -1.21875 27.15625 -1.21875  Q 17.390625 -1.21875 11.203125 4.25  Q 5.03125 9.71875 4.15625 18.75  z " id="687467a7"/>
      </defs>
      <g transform="translate(150.858036 170.957813)scale(0.1 -0.1)">
       <use xlink:href="#eff79c38"/>
       <use x="72.216797" xlink:href="#00ec75b3"/>
       <use x="127.832031" xlink:href="#c3e0ed16"/>
       <use x="177.832031" xlink:href="#cce6cd22"/>
       <use x="205.615234" xlink:href="#687467a7"/>
      </g>
     </g>
    </g>
    <g id="xtick_4">
     <g id="line2d_4">
      <g>
       <use style="stroke:#000000;stroke-width:0.8;" x="212.904687" xlink:href="#9681a9aa" y="156.8"/>
      </g>
     </g>
     <g id="text_4">
      <!-- Day 7 -->
      <defs>
       <path d="M 4.734375 62.203125  L 4.734375 70.65625  L 51.078125 70.65625  L 51.078125 63.8125  Q 44.234375 56.546875 37.515625 44.484375  Q 30.8125 32.421875 27.15625 19.671875  Q 24.515625 10.6875 23.78125 0  L 14.75 0  Q 14.890625 8.453125 18.0625 20.40625  Q 21.234375 32.375 27.171875 43.484375  Q 33.109375 54.59375 39.796875 62.203125  z " id="ff47a0d4"/>
      </defs>
      <g transform="translate(199.84375 170.957813)scale(0.1 -0.1)">
       <use xlink:href="#eff79c38"/>
       <use x="72.216797" xlink:href="#00ec75b3"/>
       <use x="127.832031" xlink:href="#c3e0ed16"/>
       <use x="177.832031" xlink:href="#cce6cd22"/>
       <use x="205.615234" xlink:href="#ff47a0d4"/>
      </g>
     </g>
    </g>
    <g id="xtick_5">
     <g id="line2d_5">
      <g>
       <use style="stroke:#000000;stroke-width:0.8;" x="261.890402" xlink:href="#9681a9aa" y="156.8"/>
      </g>
     </g>
     <g id="text_5">
      <!-- Day 9 -->
      <defs>
       <path d="M 5.46875 16.546875  L 13.921875 17.328125  Q 14.984375 11.375 18.015625 8.6875  Q 21.046875 6 25.78125 6  Q 29.828125 6 32.875 7.859375  Q 35.9375 9.71875 37.890625 12.8125  Q 39.84375 15.921875 41.15625 21.1875  Q 42.484375 26.46875 42.484375 31.9375  Q 42.484375 32.515625 42.4375 33.6875  Q 39.796875 29.5 35.234375 26.875  Q 30.671875 24.265625 25.34375 24.265625  Q 16.453125 24.265625 10.296875 30.703125  Q 4.15625 37.15625 4.15625 47.703125  Q 4.15625 58.59375 10.578125 65.234375  Q 17 71.875 26.65625 71.875  Q 33.640625 71.875 39.421875 68.109375  Q 45.21875 64.359375 48.21875 57.390625  Q 51.21875 50.4375 51.21875 37.25  Q 51.21875 23.53125 48.234375 15.40625  Q 45.265625 7.28125 39.375 3.03125  Q 33.5 -1.21875 25.59375 -1.21875  Q 17.1875 -1.21875 11.859375 3.4375  Q 6.546875 8.109375 5.46875 16.546875  z M 41.453125 48.140625  Q 41.453125 55.71875 37.421875 60.15625  Q 33.40625 64.59375 27.734375 64.59375  Q 21.875 64.59375 17.53125 59.8125  Q 13.1875 55.03125 13.1875 47.40625  Q 13.1875 40.578125 17.3125 36.296875  Q 21.4375 32.03125 27.484375 32.03125  Q 33.59375 32.03125 37.515625 36.296875  Q 41.453125 40.578125 41.453125 48.140625  z " id="33e3f350"/>
      </defs>
      <g transform="translate(248.829464 170.9875)scale(0.1 -0.1)">
       <use xlink:href="#eff79c38"/>
       <use x="72.216797" xlink:href="#00ec75b3"/>
       <use x="127.832031" xlink:href="#c3e0ed16"/>
       <use x="177.832031" xlink:href="#cce6cd22"/>
       <use x="205.615234" xlink:href="#33e3f350"/>
      </g>
     </g>
    </g>
    <g id="xtick_6">
     <g id="line2d_6">
      <g>
       <use style="stroke:#000000;stroke-width:0.8;" x="310.876116" xlink:href="#9681a9aa" y="156.8"/>
      </g>
     </g>
     <g id="text_6">
      <!-- Day 11 -->
      <g transform="translate(295.40346 170.9875)scale(0.1 -0.1)">
       <use xlink:href="#eff79c38"/>
       <use x="72.216797" xlink:href="#00ec75b3"/>
       <use x="127.832031" xlink:href="#c3e0ed16"/>
       <use x="177.832031" xlink:href="#cce6cd22"/>
       <use x="205.615234" xlink:href="#28b72d04"/>
       <use x="253.855469" xlink:href="#28b72d04"/>
      </g>
     </g>
    </g>
    <g id="xtick_7">
     <g id="line2d_7">
      <g>
       <use style="stroke:#000000;stroke-width:0.8;" x="359.86183" xlink:href="#9681a9aa" y="156.8"/>
      </g>
     </g>
     <g id="text_7">
      <!-- Day 13 -->
      <g transform="translate(344.020424 170.9875)scale(0.1 -0.1)">
       <use xlink:href="#eff79c38"/>
       <use x="72.216797" xlink:href="#00ec75b3"/>
       <use x="127.832031" xlink:href="#c3e0ed16"/>
       <use x="177.832031" xlink:href="#cce6cd22"/>
       <use x="205.615234" xlink:href="#28b72d04"/>
       <use x="261.230469" xlink:href="#50353cd2"/>
      </g>
     </g>
    </g>
   </g>
   <g id="matplotlib.axis_2">
    <g id="ytick_1">
     <g id="line2d_8">
      <defs>
       <path d="M 0 0  L -3.5 0  " id="e67b5cb6" style="stroke:#000000;stroke-width:0.8;"/>
      </defs>
      <g>
       <use style="stroke:#000000;stroke-width:0.8;" x="41.454688" xlink:href="#e67b5cb6" y="156.8"/>
      </g>
     </g>
     <g id="text_8">
      <!-- 0.0 -->
      <defs>
       <path d="M 4.15625 35.296875  Q 4.15625 48 6.765625 55.734375  Q 9.375 63.484375 14.515625 67.671875  Q 19.671875 71.875 27.484375 71.875  Q 33.25 71.875 37.59375 69.546875  Q 41.9375 67.234375 44.765625 62.859375  Q 47.609375 58.5 49.21875 52.21875  Q 50.828125 45.953125 50.828125 35.296875  Q 50.828125 22.703125 48.234375 14.96875  Q 45.65625 7.234375 40.5 3  Q 35.359375 -1.21875 27.484375 -1.21875  Q 17.140625 -1.21875 11.234375 6.203125  Q 4.15625 15.140625 4.15625 35.296875  z M 13.1875 35.296875  Q 13.1875 17.671875 17.3125 11.828125  Q 21.4375 6 27.484375 6  Q 33.546875 6 37.671875 11.859375  Q 41.796875 17.71875 41.796875 35.296875  Q 41.796875 52.984375 37.671875 58.78125  Q 33.546875 64.59375 27.390625 64.59375  Q 21.34375 64.59375 17.71875 59.46875  Q 13.1875 52.9375 13.1875 35.296875  z " id="37855e54"/>
       <path d="M 9.078125 0  L 9.078125 10.015625  L 19.09375 10.015625  L 19.09375 0  z " id="bdbb16fa"/>
      </defs>
      <g transform="translate(20.554688 160.378906)scale(0.1 -0.1)">
       <use xlink:href="#37855e54"/>
       <use x="55.615234" xlink:href="#bdbb16fa"/>
       <use x="83.398438" xlink:href="#37855e54"/>
      </g>
     </g>
    </g>
    <g id="ytick_2">
     <g id="line2d_9">
      <g>
       <use style="stroke:#000000;stroke-width:0.8;" x="41.454688" xlink:href="#e67b5cb6" y="116.431746"/>
      </g>
     </g>
     <g id="text_9">
      <!-- 0.2 -->
      <defs>
       <path d="M 50.34375 8.453125  L 50.34375 0  L 3.03125 0  Q 2.9375 3.171875 4.046875 6.109375  Q 5.859375 10.9375 9.828125 15.625  Q 13.8125 20.3125 21.34375 26.46875  Q 33.015625 36.03125 37.109375 41.625  Q 41.21875 47.21875 41.21875 52.203125  Q 41.21875 57.421875 37.46875 61  Q 33.734375 64.59375 27.734375 64.59375  Q 21.390625 64.59375 17.578125 60.78125  Q 13.765625 56.984375 13.71875 50.25  L 4.6875 51.171875  Q 5.609375 61.28125 11.65625 66.578125  Q 17.71875 71.875 27.9375 71.875  Q 38.234375 71.875 44.234375 66.15625  Q 50.25 60.453125 50.25 52  Q 50.25 47.703125 48.484375 43.546875  Q 46.734375 39.40625 42.65625 34.8125  Q 38.578125 30.21875 29.109375 22.21875  Q 21.1875 15.578125 18.9375 13.203125  Q 16.703125 10.84375 15.234375 8.453125  z " id="69f77c6f"/>
      </defs>
      <g transform="translate(20.554688 120.010652)scale(0.1 -0.1)">
       <use xlink:href="#37855e54"/>
       <use x="55.615234" xlink:href="#bdbb16fa"/>
       <use x="83.398438" xlink:href="#69f77c6f"/>
      </g>
     </g>
    </g>
    <g id="ytick_3">
     <g id="line2d_10">
      <g>
       <use style="stroke:#000000;stroke-width:0.8;" x="41.454688" xlink:href="#e67b5cb6" y="76.063492"/>
      </g>
     </g>
     <g id="text_10">
      <!-- 0.4 -->
      <defs>
       <path d="M 32.328125 0  L 32.328125 17.140625  L 1.265625 17.140625  L 1.265625 25.203125  L 33.9375 71.578125  L 41.109375 71.578125  L 41.109375 25.203125  L 50.78125 25.203125  L 50.78125 17.140625  L 41.109375 17.140625  L 41.109375 0  z M 32.328125 25.203125  L 32.328125 57.46875  L 9.90625 25.203125  z " id="212ff053"/>
      </defs>
      <g transform="translate(20.554688 79.642398)scale(0.1 -0.1)">
       <use xlink:href="#37855e54"/>
       <use x="55.615234" xlink:href="#bdbb16fa"/>
       <use x="83.398438" xlink:href="#212ff053"/>
      </g>
     </g>
    </g>
    <g id="ytick_4">
     <g id="line2d_11">
      <g>
       <use style="stroke:#000000;stroke-width:0.8;" x="41.454688" xlink:href="#e67b5cb6" y="35.695238"/>
      </g>
     </g>
     <g id="text_11">
      <!-- 0.6 -->
      <defs>
       <path d="M 49.75 54.046875  L 41.015625 53.375  Q 39.84375 58.546875 37.703125 60.890625  Q 34.125 64.65625 28.90625 64.65625  Q 24.703125 64.65625 21.53125 62.3125  Q 17.390625 59.28125 14.984375 53.46875  Q 12.59375 47.65625 12.5 36.921875  Q 15.671875 41.75 20.265625 44.09375  Q 24.859375 46.4375 29.890625 46.4375  Q 38.671875 46.4375 44.84375 39.96875  Q 51.03125 33.5 51.03125 23.25  Q 51.03125 16.5 48.125 10.71875  Q 45.21875 4.9375 40.140625 1.859375  Q 35.0625 -1.21875 28.609375 -1.21875  Q 17.625 -1.21875 10.6875 6.859375  Q 3.765625 14.9375 3.765625 33.5  Q 3.765625 54.25 11.421875 63.671875  Q 18.109375 71.875 29.4375 71.875  Q 37.890625 71.875 43.28125 67.140625  Q 48.6875 62.40625 49.75 54.046875  z M 13.875 23.1875  Q 13.875 18.65625 15.796875 14.5  Q 17.71875 10.359375 21.1875 8.171875  Q 24.65625 6 28.46875 6  Q 34.03125 6 38.03125 10.484375  Q 42.046875 14.984375 42.046875 22.703125  Q 42.046875 30.125 38.078125 34.390625  Q 34.125 38.671875 28.125 38.671875  Q 22.171875 38.671875 18.015625 34.390625  Q 13.875 30.125 13.875 23.1875  z " id="90f6d189"/>
      </defs>
      <g transform="translate(20.554688 39.274144)scale(0.1 -0.1)">
       <use xlink:href="#37855e54"/>
       <use x="55.615234" xlink:href="#bdbb16fa"/>
       <use x="83.398438" xlink:href="#90f6d189"/>
      </g>
     </g>
    </g>
    <g id="text_12">
     <!-- Proportion of registered cells -->
     <defs>
      <path d="M 4.296875 0  L 19.28125 71.578125  L 49.171875 71.578125  Q 56.9375 71.578125 60.8125 69.796875  Q 64.703125 68.015625 67.234375 63.6875  Q 69.78125 59.375 69.78125 54  Q 69.78125 49.5625 67.96875 44.96875  Q 66.15625 40.375 63.390625 37.390625  Q 60.640625 34.421875 57.8125 32.90625  Q 54.984375 31.390625 51.765625 30.671875  Q 44.875 29.046875 37.84375 29.046875  L 19.921875 29.046875  L 13.875 0  z M 21.625 37.15625  L 37.40625 37.15625  Q 46.578125 37.15625 50.875 39.125  Q 55.171875 41.109375 57.765625 45.15625  Q 60.359375 49.21875 60.359375 53.765625  Q 60.359375 57.28125 58.984375 59.5  Q 57.625 61.71875 55.125 62.765625  Q 52.640625 63.8125 45.5625 63.8125  L 27.203125 63.8125  z " id="807d5828"/>
      <path d="M 3.328125 0  L 14.15625 51.859375  L 21.96875 51.859375  L 19.78125 41.265625  Q 23.78125 47.265625 27.609375 50.140625  Q 31.453125 53.03125 35.453125 53.03125  Q 38.09375 53.03125 41.9375 51.125  L 38.328125 42.921875  Q 36.03125 44.578125 33.296875 44.578125  Q 28.65625 44.578125 23.765625 39.40625  Q 18.890625 34.234375 16.109375 20.796875  L 11.71875 0  z " id="86f81aa2"/>
      <path d="M 4.890625 19.671875  Q 4.890625 34.859375 13.8125 44.828125  Q 21.1875 53.03125 33.15625 53.03125  Q 42.53125 53.03125 48.265625 47.171875  Q 54 41.3125 54 31.34375  Q 54 22.40625 50.390625 14.71875  Q 46.78125 7.03125 40.109375 2.921875  Q 33.453125 -1.171875 26.078125 -1.171875  Q 20.015625 -1.171875 15.0625 1.40625  Q 10.109375 4 7.5 8.734375  Q 4.890625 13.484375 4.890625 19.671875  z M 13.71875 20.5625  Q 13.71875 13.234375 17.234375 9.453125  Q 20.75 5.671875 26.171875 5.671875  Q 29 5.671875 31.78125 6.8125  Q 34.578125 7.953125 36.96875 10.296875  Q 39.359375 12.640625 41.03125 15.640625  Q 42.71875 18.65625 43.75 22.125  Q 45.265625 26.953125 45.265625 31.390625  Q 45.265625 38.421875 41.71875 42.296875  Q 38.1875 46.1875 32.8125 46.1875  Q 28.65625 46.1875 25.234375 44.203125  Q 21.828125 42.234375 19.0625 38.421875  Q 16.3125 34.625 15.015625 29.5625  Q 13.71875 24.515625 13.71875 20.5625  z " id="13ca1508"/>
      <path d="M -1.03125 -19.875  L 13.96875 51.859375  L 22.125 51.859375  L 20.609375 44.625  Q 25.140625 49.359375 28.734375 51.1875  Q 32.328125 53.03125 36.328125 53.03125  Q 43.75 53.03125 48.625 47.625  Q 53.515625 42.234375 53.515625 32.171875  Q 53.515625 24.078125 50.828125 17.40625  Q 48.140625 10.75 44.234375 6.6875  Q 40.328125 2.640625 36.328125 0.734375  Q 32.328125 -1.171875 28.125 -1.171875  Q 18.796875 -1.171875 13.671875 8.296875  L 7.8125 -19.875  z M 16.453125 21.1875  Q 16.453125 15.375 17.28125 13.140625  Q 18.5 9.96875 21.28125 8.015625  Q 24.078125 6.0625 27.734375 6.0625  Q 35.359375 6.0625 40.046875 14.625  Q 44.734375 23.1875 44.734375 32.125  Q 44.734375 38.71875 41.578125 42.3125  Q 38.421875 45.90625 33.734375 45.90625  Q 30.375 45.90625 27.484375 44.109375  Q 24.609375 42.328125 22.140625 38.78125  Q 19.671875 35.25 18.0625 30.125  Q 16.453125 25 16.453125 21.1875  z " id="2a690470"/>
      <path d="M 23.96875 7.171875  L 22.515625 -0.046875  Q 19.34375 -0.875 16.359375 -0.875  Q 11.078125 -0.875 7.953125 1.703125  Q 5.609375 3.65625 5.609375 7.03125  Q 5.609375 8.734375 6.890625 14.890625  L 13.1875 45.015625  L 6.203125 45.015625  L 7.625 51.859375  L 14.59375 51.859375  L 17.28125 64.59375  L 27.390625 70.703125  L 23.4375 51.859375  L 32.125 51.859375  L 30.671875 45.015625  L 22.015625 45.015625  L 16.015625 16.359375  Q 14.890625 10.890625 14.890625 9.8125  Q 14.890625 8.25 15.796875 7.421875  Q 16.703125 6.59375 18.75 6.59375  Q 21.6875 6.59375 23.96875 7.171875  z " id="0fd65337"/>
      <path d="M 15.875 61.578125  L 17.96875 71.578125  L 26.765625 71.578125  L 24.65625 61.578125  z M 2.984375 0  L 13.8125 51.859375  L 22.65625 51.859375  L 11.8125 0  z " id="385d23b0"/>
      <path d="M 3.328125 0  L 14.15625 51.859375  L 22.171875 51.859375  L 20.265625 42.828125  Q 25.484375 48.140625 30.03125 50.578125  Q 34.578125 53.03125 39.3125 53.03125  Q 45.609375 53.03125 49.1875 49.609375  Q 52.78125 46.1875 52.78125 40.484375  Q 52.78125 37.59375 51.515625 31.390625  L 44.921875 0  L 36.078125 0  L 42.96875 32.859375  Q 44 37.640625 44 39.9375  Q 44 42.53125 42.21875 44.140625  Q 40.4375 45.75 37.0625 45.75  Q 30.28125 45.75 24.96875 40.859375  Q 19.671875 35.984375 17.1875 24.125  L 12.15625 0  z " id="628228f1"/>
      <path id="87cb925f"/>
      <path d="M 4.546875 0  L 13.96875 45.015625  L 6.0625 45.015625  L 7.46875 51.859375  L 15.375 51.859375  L 16.890625 59.234375  Q 18.0625 64.75 19.3125 67.1875  Q 20.5625 69.625 23.359375 71.203125  Q 26.171875 72.796875 31 72.796875  Q 34.375 72.796875 40.765625 71.390625  L 39.15625 63.671875  Q 34.671875 64.84375 31.640625 64.84375  Q 29.046875 64.84375 27.703125 63.546875  Q 26.375 62.25 25.390625 57.421875  L 24.21875 51.859375  L 34.078125 51.859375  L 32.671875 45.015625  L 22.796875 45.015625  L 13.375 0  z " id="ab6dff88"/>
      <path d="M 41.40625 17.625  L 50 16.75  Q 48.140625 10.359375 41.46875 4.59375  Q 34.8125 -1.171875 25.59375 -1.171875  Q 19.828125 -1.171875 15.015625 1.484375  Q 10.203125 4.15625 7.6875 9.234375  Q 5.171875 14.3125 5.171875 20.796875  Q 5.171875 29.296875 9.09375 37.28125  Q 13.03125 45.265625 19.28125 49.140625  Q 25.53125 53.03125 32.8125 53.03125  Q 42.09375 53.03125 47.625 47.265625  Q 53.171875 41.5 53.171875 31.546875  Q 53.171875 27.734375 52.484375 23.734375  L 14.3125 23.734375  Q 14.109375 22.21875 14.109375 21  Q 14.109375 13.71875 17.453125 9.890625  Q 20.796875 6.0625 25.640625 6.0625  Q 30.171875 6.0625 34.5625 9.03125  Q 38.96875 12.015625 41.40625 17.625  z M 15.71875 30.46875  L 44.828125 30.46875  Q 44.875 31.84375 44.875 32.421875  Q 44.875 39.0625 41.546875 42.59375  Q 38.234375 46.140625 33.015625 46.140625  Q 27.34375 46.140625 22.671875 42.234375  Q 18.015625 38.328125 15.71875 30.46875  z " id="e27724ee"/>
      <path d="M 2.828125 -4.6875  L 11.765625 -5.515625  Q 11.671875 -8.546875 12.5 -10.0625  Q 13.328125 -11.578125 15.140625 -12.40625  Q 17.53125 -13.484375 21.34375 -13.484375  Q 29.34375 -13.484375 32.859375 -9.328125  Q 35.15625 -6.546875 37.109375 2.78125  L 37.984375 6.984375  Q 31.109375 0 23.34375 0  Q 15.484375 0 10.1875 5.78125  Q 4.890625 11.578125 4.890625 22.171875  Q 4.890625 30.90625 9.0625 38.234375  Q 13.234375 45.5625 18.984375 49.296875  Q 24.75 53.03125 30.859375 53.03125  Q 41.0625 53.03125 46.578125 43.359375  L 48.34375 51.859375  L 56.453125 51.859375  L 46 1.8125  Q 44.28125 -6.453125 41.5 -11.0625  Q 38.71875 -15.671875 33.765625 -18.203125  Q 28.8125 -20.75 22.3125 -20.75  Q 16.0625 -20.75 11.546875 -19.140625  Q 7.03125 -17.53125 4.8125 -14.421875  Q 2.59375 -11.328125 2.59375 -7.328125  Q 2.59375 -6.109375 2.828125 -4.6875  z M 13.875 22.953125  Q 13.875 17.625 14.890625 14.9375  Q 16.359375 11.1875 19.0625 9.203125  Q 21.78125 7.234375 25.09375 7.234375  Q 29.4375 7.234375 33.734375 10.28125  Q 38.03125 13.328125 40.6875 19.71875  Q 43.359375 26.125 43.359375 31.9375  Q 43.359375 38.328125 39.8125 42.109375  Q 36.28125 45.90625 31.0625 45.90625  Q 27.828125 45.90625 24.796875 44.171875  Q 21.78125 42.4375 19.15625 38.890625  Q 16.546875 35.359375 15.203125 30.421875  Q 13.875 25.484375 13.875 22.953125  z " id="887711b8"/>
      <path d="M 4.15625 17.71875  L 12.984375 18.265625  Q 12.984375 14.453125 14.15625 11.765625  Q 15.328125 9.078125 18.46875 7.375  Q 21.625 5.671875 25.828125 5.671875  Q 31.6875 5.671875 34.609375 8.015625  Q 37.546875 10.359375 37.546875 13.53125  Q 37.546875 15.828125 35.796875 17.875  Q 33.984375 19.921875 26.96875 22.921875  Q 19.96875 25.921875 18.015625 27.15625  Q 14.75 29.15625 13.078125 31.859375  Q 11.421875 34.578125 11.421875 38.09375  Q 11.421875 44.234375 16.296875 48.625  Q 21.1875 53.03125 29.984375 53.03125  Q 39.75 53.03125 44.84375 48.515625  Q 49.953125 44 50.140625 36.625  L 41.5 36.03125  Q 41.3125 40.71875 38.1875 43.453125  Q 35.0625 46.1875 29.34375 46.1875  Q 24.75 46.1875 22.203125 44.09375  Q 19.671875 42 19.671875 39.546875  Q 19.671875 37.109375 21.875 35.25  Q 23.34375 33.984375 29.4375 31.34375  Q 39.59375 26.953125 42.234375 24.421875  Q 46.4375 20.359375 46.4375 14.546875  Q 46.4375 10.6875 44.0625 6.96875  Q 41.703125 3.265625 36.84375 1.046875  Q 31.984375 -1.171875 25.390625 -1.171875  Q 16.40625 -1.171875 10.109375 3.265625  Q 3.8125 7.71875 4.15625 17.71875  z " id="01ff0e36"/>
      <path d="M 38.28125 7.515625  Q 30.71875 -1.171875 22.46875 -1.171875  Q 15.09375 -1.171875 10.1875 4.265625  Q 5.28125 9.71875 5.28125 20.0625  Q 5.28125 29.546875 9.15625 37.375  Q 13.03125 45.21875 18.859375 49.125  Q 24.703125 53.03125 30.5625 53.03125  Q 40.234375 53.03125 45.171875 43.703125  L 51.03125 71.578125  L 59.8125 71.578125  L 44.875 0  L 36.71875 0  z M 14.0625 21.734375  Q 14.0625 16.3125 15.140625 13.1875  Q 16.21875 10.0625 18.796875 7.984375  Q 21.390625 5.90625 25 5.90625  Q 31 5.90625 35.890625 12.15625  Q 42.4375 20.453125 42.4375 32.671875  Q 42.4375 38.8125 39.203125 42.28125  Q 35.984375 45.75 31.109375 45.75  Q 27.9375 45.75 25.3125 44.328125  Q 22.703125 42.921875 20.140625 39.53125  Q 17.578125 36.140625 15.8125 30.90625  Q 14.0625 25.6875 14.0625 21.734375  z " id="e912e5fb"/>
      <path d="M 39.109375 18.890625  L 47.953125 17.96875  Q 44.625 8.25 38.5 3.53125  Q 32.375 -1.171875 24.5625 -1.171875  Q 16.109375 -1.171875 10.859375 4.296875  Q 5.609375 9.765625 5.609375 19.578125  Q 5.609375 28.078125 8.984375 36.28125  Q 12.359375 44.484375 18.625 48.75  Q 24.90625 53.03125 32.953125 53.03125  Q 41.3125 53.03125 46.1875 48.3125  Q 51.078125 43.609375 51.078125 35.84375  L 42.390625 35.25  Q 42.328125 40.1875 39.515625 42.96875  Q 36.71875 45.75 32.125 45.75  Q 26.8125 45.75 22.90625 42.375  Q 19 39.015625 16.765625 32.15625  Q 14.546875 25.296875 14.546875 18.953125  Q 14.546875 12.3125 17.46875 8.984375  Q 20.40625 5.671875 24.703125 5.671875  Q 29 5.671875 32.921875 8.9375  Q 36.859375 12.203125 39.109375 18.890625  z " id="e926d660"/>
      <path d="M 2.640625 0  L 17.578125 71.578125  L 26.421875 71.578125  L 11.46875 0  z " id="582a9bba"/>
     </defs>
     <g transform="translate(14.479688 145.638281)rotate(-90)scale(0.1 -0.1)">
      <use xlink:href="#807d5828"/>
      <use x="66.699219" xlink:href="#86f81aa2"/>
      <use x="100" xlink:href="#13ca1508"/>
      <use x="155.615234" xlink:href="#2a690470"/>
      <use x="211.230469" xlink:href="#13ca1508"/>
      <use x="266.845703" xlink:href="#86f81aa2"/>
      <use x="300.146484" xlink:href="#0fd65337"/>
      <use x="327.929688" xlink:href="#385d23b0"/>
      <use x="350.146484" xlink:href="#13ca1508"/>
      <use x="405.761719" xlink:href="#628228f1"/>
      <use x="461.376953" xlink:href="#87cb925f"/>
      <use x="489.160156" xlink:href="#13ca1508"/>
      <use x="544.775391" xlink:href="#ab6dff88"/>
      <use x="572.558594" xlink:href="#87cb925f"/>
      <use x="600.341797" xlink:href="#86f81aa2"/>
      <use x="633.642578" xlink:href="#e27724ee"/>
      <use x="689.257812" xlink:href="#887711b8"/>
      <use x="744.873047" xlink:href="#385d23b0"/>
      <use x="767.089844" xlink:href="#01ff0e36"/>
      <use x="817.089844" xlink:href="#0fd65337"/>
      <use x="844.873047" xlink:href="#e27724ee"/>
      <use x="900.488281" xlink:href="#86f81aa2"/>
      <use x="933.789062" xlink:href="#e27724ee"/>
      <use x="989.404297" xlink:href="#e912e5fb"/>
      <use x="1045.019531" xlink:href="#87cb925f"/>
      <use x="1072.802734" xlink:href="#e926d660"/>
      <use x="1122.802734" xlink:href="#e27724ee"/>
      <use x="1178.417969" xlink:href="#582a9bba"/>
      <use x="1200.634766" xlink:href="#582a9bba"/>
      <use x="1222.851562" xlink:href="#01ff0e36"/>
     </g>
    </g>
   </g>
   <g id="line2d_12">
    <path clip-path="url(#paa4726cd0b)" d="M 56.150402 67.95107  L 56.150402 56.586864  " style="fill:none;stroke:#424242;stroke-linecap:square;stroke-width:1.5;"/>
   </g>
   <g id="line2d_13">
    <path clip-path="url(#paa4726cd0b)" d="M 53.701116 67.95107  L 58.599687 67.95107  " style="fill:none;stroke:#424242;stroke-linecap:square;stroke-width:1.5;"/>
   </g>
   <g id="line2d_14">
    <path clip-path="url(#paa4726cd0b)" d="M 53.701116 56.586864  L 58.599687 56.586864  " style="fill:none;stroke:#424242;stroke-linecap:square;stroke-width:1.5;"/>
   </g>
   <g id="line2d_15">
    <path clip-path="url(#paa4726cd0b)" d="M 105.136116 65.660341  L 105.136116 54.355439  " style="fill:none;stroke:#424242;stroke-linecap:square;stroke-width:1.5;"/>
   </g>
   <g id="line2d_16">
    <path clip-path="url(#paa4726cd0b)" d="M 102.68683 65.660341  L 107.585402 65.660341  " style="fill:none;stroke:#424242;stroke-linecap:square;stroke-width:1.5;"/>
   </g>
   <g id="line2d_17">
    <path clip-path="url(#paa4726cd0b)" d="M 102.68683 54.355439  L 107.585402 54.355439  " style="fill:none;stroke:#424242;stroke-linecap:square;stroke-width:1.5;"/>
   </g>
   <g id="line2d_18">
    <path clip-path="url(#paa4726cd0b)" d="M 154.12183 67.079555  L 154.12183 57.966098  " style="fill:none;stroke:#424242;stroke-linecap:square;stroke-width:1.5;"/>
   </g>
   <g id="line2d_19">
    <path clip-path="url(#paa4726cd0b)" d="M 151.672545 67.079555  L 156.571116 67.079555  " style="fill:none;stroke:#424242;stroke-linecap:square;stroke-width:1.5;"/>
   </g>
   <g id="line2d_20">
    <path clip-path="url(#paa4726cd0b)" d="M 151.672545 57.966098  L 156.571116 57.966098  " style="fill:none;stroke:#424242;stroke-linecap:square;stroke-width:1.5;"/>
   </g>
   <g id="line2d_21">
    <path clip-path="url(#paa4726cd0b)" d="M 203.107545 64.249307  L 203.107545 58.203617  " style="fill:none;stroke:#424242;stroke-linecap:square;stroke-width:1.5;"/>
   </g>
   <g id="line2d_22">
    <path clip-path="url(#paa4726cd0b)" d="M 200.658259 64.249307  L 205.55683 64.249307  " style="fill:none;stroke:#424242;stroke-linecap:square;stroke-width:1.5;"/>
   </g>
   <g id="line2d_23">
    <path clip-path="url(#paa4726cd0b)" d="M 200.658259 58.203617  L 205.55683 58.203617  " style="fill:none;stroke:#424242;stroke-linecap:square;stroke-width:1.5;"/>
   </g>
   <g id="line2d_24">
    <path clip-path="url(#paa4726cd0b)" d="M 252.093259 58.340824  L 252.093259 48.510993  " style="fill:none;stroke:#424242;stroke-linecap:square;stroke-width:1.5;"/>
   </g>
   <g id="line2d_25">
    <path clip-path="url(#paa4726cd0b)" d="M 249.643973 58.340824  L 254.542545 58.340824  " style="fill:none;stroke:#424242;stroke-linecap:square;stroke-width:1.5;"/>
   </g>
   <g id="line2d_26">
    <path clip-path="url(#paa4726cd0b)" d="M 249.643973 48.510993  L 254.542545 48.510993  " style="fill:none;stroke:#424242;stroke-linecap:square;stroke-width:1.5;"/>
   </g>
   <g id="line2d_27">
    <path clip-path="url(#paa4726cd0b)" d="M 301.078973 64.070097  L 301.078973 57.840857  " style="fill:none;stroke:#424242;stroke-linecap:square;stroke-width:1.5;"/>
   </g>
   <g id="line2d_28">
    <path clip-path="url(#paa4726cd0b)" d="M 298.629687 64.070097  L 303.528259 64.070097  " style="fill:none;stroke:#424242;stroke-linecap:square;stroke-width:1.5;"/>
   </g>
   <g id="line2d_29">
    <path clip-path="url(#paa4726cd0b)" d="M 298.629687 57.840857  L 303.528259 57.840857  " style="fill:none;stroke:#424242;stroke-linecap:square;stroke-width:1.5;"/>
   </g>
   <g id="line2d_30">
    <path clip-path="url(#paa4726cd0b)" d="M 350.064687 58.845823  L 350.064687 45.438363  " style="fill:none;stroke:#424242;stroke-linecap:square;stroke-width:1.5;"/>
   </g>
   <g id="line2d_31">
    <path clip-path="url(#paa4726cd0b)" d="M 347.615402 58.845823  L 352.513973 58.845823  " style="fill:none;stroke:#424242;stroke-linecap:square;stroke-width:1.5;"/>
   </g>
   <g id="line2d_32">
    <path clip-path="url(#paa4726cd0b)" d="M 347.615402 45.438363  L 352.513973 45.438363  " style="fill:none;stroke:#424242;stroke-linecap:square;stroke-width:1.5;"/>
   </g>
   <g id="line2d_33">
    <path clip-path="url(#paa4726cd0b)" d="M 75.744687 45.103507  L 75.744687 37.659925  " style="fill:none;stroke:#424242;stroke-linecap:square;stroke-width:1.5;"/>
   </g>
   <g id="line2d_34">
    <path clip-path="url(#paa4726cd0b)" d="M 73.295402 45.103507  L 78.193973 45.103507  " style="fill:none;stroke:#424242;stroke-linecap:square;stroke-width:1.5;"/>
   </g>
   <g id="line2d_35">
    <path clip-path="url(#paa4726cd0b)" d="M 73.295402 37.659925  L 78.193973 37.659925  " style="fill:none;stroke:#424242;stroke-linecap:square;stroke-width:1.5;"/>
   </g>
   <g id="line2d_36">
    <path clip-path="url(#paa4726cd0b)" d="M 124.730402 46.906498  L 124.730402 38.048361  " style="fill:none;stroke:#424242;stroke-linecap:square;stroke-width:1.5;"/>
   </g>
   <g id="line2d_37">
    <path clip-path="url(#paa4726cd0b)" d="M 122.281116 46.906498  L 127.179687 46.906498  " style="fill:none;stroke:#424242;stroke-linecap:square;stroke-width:1.5;"/>
   </g>
   <g id="line2d_38">
    <path clip-path="url(#paa4726cd0b)" d="M 122.281116 38.048361  L 127.179687 38.048361  " style="fill:none;stroke:#424242;stroke-linecap:square;stroke-width:1.5;"/>
   </g>
   <g id="line2d_39">
    <path clip-path="url(#paa4726cd0b)" d="M 173.716116 43.805283  L 173.716116 37.333001  " style="fill:none;stroke:#424242;stroke-linecap:square;stroke-width:1.5;"/>
   </g>
   <g id="line2d_40">
    <path clip-path="url(#paa4726cd0b)" d="M 171.26683 43.805283  L 176.165402 43.805283  " style="fill:none;stroke:#424242;stroke-linecap:square;stroke-width:1.5;"/>
   </g>
   <g id="line2d_41">
    <path clip-path="url(#paa4726cd0b)" d="M 171.26683 37.333001  L 176.165402 37.333001  " style="fill:none;stroke:#424242;stroke-linecap:square;stroke-width:1.5;"/>
   </g>
   <g id="line2d_42">
    <path clip-path="url(#paa4726cd0b)" d="M 222.70183 46.366052  L 222.70183 36.439632  " style="fill:none;stroke:#424242;stroke-linecap:square;stroke-width:1.5;"/>
   </g>
   <g id="line2d_43">
    <path clip-path="url(#paa4726cd0b)" d="M 220.252545 46.366052  L 225.151116 46.366052  " style="fill:none;stroke:#424242;stroke-linecap:square;stroke-width:1.5;"/>
   </g>
   <g id="line2d_44">
    <path clip-path="url(#paa4726cd0b)" d="M 220.252545 36.439632  L 225.151116 36.439632  " style="fill:none;stroke:#424242;stroke-linecap:square;stroke-width:1.5;"/>
   </g>
   <g id="line2d_45">
    <path clip-path="url(#paa4726cd0b)" d="M 271.687545 45.803584  L 271.687545 35.10913  " style="fill:none;stroke:#424242;stroke-linecap:square;stroke-width:1.5;"/>
   </g>
   <g id="line2d_46">
    <path clip-path="url(#paa4726cd0b)" d="M 269.238259 45.803584  L 274.13683 45.803584  " style="fill:none;stroke:#424242;stroke-linecap:square;stroke-width:1.5;"/>
   </g>
   <g id="line2d_47">
    <path clip-path="url(#paa4726cd0b)" d="M 269.238259 35.10913  L 274.13683 35.10913  " style="fill:none;stroke:#424242;stroke-linecap:square;stroke-width:1.5;"/>
   </g>
   <g id="line2d_48">
    <path clip-path="url(#paa4726cd0b)" d="M 320.673259 38.081199  L 320.673259 29.340299  " style="fill:none;stroke:#424242;stroke-linecap:square;stroke-width:1.5;"/>
   </g>
   <g id="line2d_49">
    <path clip-path="url(#paa4726cd0b)" d="M 318.223973 38.081199  L 323.122545 38.081199  " style="fill:none;stroke:#424242;stroke-linecap:square;stroke-width:1.5;"/>
   </g>
   <g id="line2d_50">
    <path clip-path="url(#paa4726cd0b)" d="M 318.223973 29.340299  L 323.122545 29.340299  " style="fill:none;stroke:#424242;stroke-linecap:square;stroke-width:1.5;"/>
   </g>
   <g id="line2d_51">
    <path clip-path="url(#paa4726cd0b)" d="M 369.658973 44.72768  L 369.658973 36.371238  " style="fill:none;stroke:#424242;stroke-linecap:square;stroke-width:1.5;"/>
   </g>
   <g id="line2d_52">
    <path clip-path="url(#paa4726cd0b)" d="M 367.209687 44.72768  L 372.108259 44.72768  " style="fill:none;stroke:#424242;stroke-linecap:square;stroke-width:1.5;"/>
   </g>
   <g id="line2d_53">
    <path clip-path="url(#paa4726cd0b)" d="M 367.209687 36.371238  L 372.108259 36.371238  " style="fill:none;stroke:#424242;stroke-linecap:square;stroke-width:1.5;"/>
   </g>
   <g id="patch_17">
    <path d="M 41.454688 156.8  L 41.454688 7.2  " style="fill:none;stroke:#000000;stroke-linecap:square;stroke-linejoin:miter;stroke-width:0.8;"/>
   </g>
   <g id="patch_18">
    <path d="M 41.454687 156.8  L 384.354687 156.8  " style="fill:none;stroke:#000000;stroke-linecap:square;stroke-linejoin:miter;stroke-width:0.8;"/>
   </g>
   <g id="PathCollection_1">
    <defs>
     <path d="M 0 1.25  C 0.331504 1.25 0.649475 1.118292 0.883883 0.883883  C 1.118292 0.649475 1.25 0.331504 1.25 0  C 1.25 -0.331504 1.118292 -0.649475 0.883883 -0.883883  C 0.649475 -1.118292 0.331504 -1.25 0 -1.25  C -0.331504 -1.25 -0.649475 -1.118292 -0.883883 -0.883883  C -1.118292 -0.649475 -1.25 -0.331504 -1.25 0  C -1.25 0.331504 -1.118292 0.649475 -0.883883 0.883883  C -0.649475 1.118292 -0.331504 1.25 0 1.25  z " id="fd7fffd1"/>
    </defs>
    <g clip-path="url(#paa4726cd0b)">
     <use style="fill:#ef553b;stroke:#595959;stroke-width:0.8;" x="56.150402" xlink:href="#fd7fffd1" y="61.08146"/>
    </g>
    <g clip-path="url(#paa4726cd0b)">
     <use style="fill:#ef553b;stroke:#595959;stroke-width:0.8;" x="56.150402" xlink:href="#fd7fffd1" y="39.845246"/>
    </g>
    <g clip-path="url(#paa4726cd0b)">
     <use style="fill:#ef553b;stroke:#595959;stroke-width:0.8;" x="53.071487" xlink:href="#fd7fffd1" y="46.868594"/>
    </g>
    <g clip-path="url(#paa4726cd0b)">
     <use style="fill:#ef553b;stroke:#595959;stroke-width:0.8;" x="56.150402" xlink:href="#fd7fffd1" y="54.521688"/>
    </g>
    <g clip-path="url(#paa4726cd0b)">
     <use style="fill:#ef553b;stroke:#595959;stroke-width:0.8;" x="56.150402" xlink:href="#fd7fffd1" y="64.57942"/>
    </g>
    <g clip-path="url(#paa4726cd0b)">
     <use style="fill:#ef553b;stroke:#595959;stroke-width:0.8;" x="56.150402" xlink:href="#fd7fffd1" y="92.907799"/>
    </g>
    <g clip-path="url(#paa4726cd0b)">
     <use style="fill:#ef553b;stroke:#595959;stroke-width:0.8;" x="53.706594" xlink:href="#fd7fffd1" y="74.947319"/>
    </g>
    <g clip-path="url(#paa4726cd0b)">
     <use style="fill:#ef553b;stroke:#595959;stroke-width:0.8;" x="56.150402" xlink:href="#fd7fffd1" y="77.286772"/>
    </g>
    <g clip-path="url(#paa4726cd0b)">
     <use style="fill:#ef553b;stroke:#595959;stroke-width:0.8;" x="56.150402" xlink:href="#fd7fffd1" y="48.382404"/>
    </g>
   </g>
   <g id="PathCollection_2">
    <defs>
     <path d="M 0 1.25  C 0.331504 1.25 0.649475 1.118292 0.883883 0.883883  C 1.118292 0.649475 1.25 0.331504 1.25 0  C 1.25 -0.331504 1.118292 -0.649475 0.883883 -0.883883  C 0.649475 -1.118292 0.331504 -1.25 0 -1.25  C -0.331504 -1.25 -0.649475 -1.118292 -0.883883 -0.883883  C -1.118292 -0.649475 -1.25 -0.331504 -1.25 0  C -1.25 0.331504 -1.118292 0.649475 -0.883883 0.883883  C -0.649475 1.118292 -0.331504 1.25 0 1.25  z " id="c22d68bb"/>
    </defs>
    <g clip-path="url(#paa4726cd0b)">
     <use style="fill:#00cc96;stroke:#3d3d3d;stroke-width:0.8;" x="72.652055" xlink:href="#c22d68bb" y="28.440114"/>
    </g>
    <g clip-path="url(#paa4726cd0b)">
     <use style="fill:#00cc96;stroke:#3d3d3d;stroke-width:0.8;" x="72.842004" xlink:href="#c22d68bb" y="45.06644"/>
    </g>
    <g clip-path="url(#paa4726cd0b)">
     <use style="fill:#00cc96;stroke:#3d3d3d;stroke-width:0.8;" x="75.744687" xlink:href="#c22d68bb" y="46.868594"/>
    </g>
    <g clip-path="url(#paa4726cd0b)">
     <use style="fill:#00cc96;stroke:#3d3d3d;stroke-width:0.8;" x="75.744687" xlink:href="#c22d68bb" y="34.831746"/>
    </g>
    <g clip-path="url(#paa4726cd0b)">
     <use style="fill:#00cc96;stroke:#3d3d3d;stroke-width:0.8;" x="75.744687" xlink:href="#c22d68bb" y="51.921693"/>
    </g>
    <g clip-path="url(#paa4726cd0b)">
     <use style="fill:#00cc96;stroke:#3d3d3d;stroke-width:0.8;" x="75.744687" xlink:href="#c22d68bb" y="29.928345"/>
    </g>
    <g clip-path="url(#paa4726cd0b)">
     <use style="fill:#00cc96;stroke:#3d3d3d;stroke-width:0.8;" x="72.596816" xlink:href="#c22d68bb" y="33.452557"/>
    </g>
    <g clip-path="url(#paa4726cd0b)">
     <use style="fill:#00cc96;stroke:#3d3d3d;stroke-width:0.8;" x="75.744687" xlink:href="#c22d68bb" y="62.243729"/>
    </g>
    <g clip-path="url(#paa4726cd0b)">
     <use style="fill:#00cc96;stroke:#3d3d3d;stroke-width:0.8;" x="75.744687" xlink:href="#c22d68bb" y="39.682226"/>
    </g>
   </g>
   <g id="PathCollection_3">
    <defs>
     <path d="M 0 1.25  C 0.331504 1.25 0.649475 1.118292 0.883883 0.883883  C 1.118292 0.649475 1.25 0.331504 1.25 0  C 1.25 -0.331504 1.118292 -0.649475 0.883883 -0.883883  C 0.649475 -1.118292 0.331504 -1.25 0 -1.25  C -0.331504 -1.25 -0.649475 -1.118292 -0.883883 -0.883883  C -1.118292 -0.649475 -1.25 -0.331504 -1.25 0  C -1.25 0.331504 -1.118292 0.649475 -0.883883 0.883883  C -0.649475 1.118292 -0.331504 1.25 0 1.25  z " id="d239398a"/>
    </defs>
    <g clip-path="url(#paa4726cd0b)">
     <use style="fill:#ef553b;stroke:#595959;stroke-width:0.8;" x="105.136116" xlink:href="#d239398a" y="55.163616"/>
    </g>
    <g clip-path="url(#paa4726cd0b)">
     <use style="fill:#ef553b;stroke:#595959;stroke-width:0.8;" x="105.136116" xlink:href="#d239398a" y="29.714756"/>
    </g>
    <g clip-path="url(#paa4726cd0b)">
     <use style="fill:#ef553b;stroke:#595959;stroke-width:0.8;" x="105.136116" xlink:href="#d239398a" y="40.989435"/>
    </g>
    <g clip-path="url(#paa4726cd0b)">
     <use style="fill:#ef553b;stroke:#595959;stroke-width:0.8;" x="103.031513" xlink:href="#d239398a" y="68.209035"/>
    </g>
    <g clip-path="url(#paa4726cd0b)">
     <use style="fill:#ef553b;stroke:#595959;stroke-width:0.8;" x="105.136116" xlink:href="#d239398a" y="70.83057"/>
    </g>
    <g clip-path="url(#paa4726cd0b)">
     <use style="fill:#ef553b;stroke:#595959;stroke-width:0.8;" x="101.707187" xlink:href="#d239398a" y="79.625397"/>
    </g>
    <g clip-path="url(#paa4726cd0b)">
     <use style="fill:#ef553b;stroke:#595959;stroke-width:0.8;" x="105.136116" xlink:href="#d239398a" y="80.100317"/>
    </g>
    <g clip-path="url(#paa4726cd0b)">
     <use style="fill:#ef553b;stroke:#595959;stroke-width:0.8;" x="101.672862" xlink:href="#d239398a" y="55.058872"/>
    </g>
    <g clip-path="url(#paa4726cd0b)">
     <use style="fill:#ef553b;stroke:#595959;stroke-width:0.8;" x="105.136116" xlink:href="#d239398a" y="60.379011"/>
    </g>
   </g>
   <g id="PathCollection_4">
    <defs>
     <path d="M 0 1.25  C 0.331504 1.25 0.649475 1.118292 0.883883 0.883883  C 1.118292 0.649475 1.25 0.331504 1.25 0  C 1.25 -0.331504 1.118292 -0.649475 0.883883 -0.883883  C 0.649475 -1.118292 0.331504 -1.25 0 -1.25  C -0.331504 -1.25 -0.649475 -1.118292 -0.883883 -0.883883  C -1.118292 -0.649475 -1.25 -0.331504 -1.25 0  C -1.25 0.331504 -1.118292 0.649475 -0.883883 0.883883  C -0.649475 1.118292 -0.331504 1.25 0 1.25  z " id="826f8ff1"/>
    </defs>
    <g clip-path="url(#paa4726cd0b)">
     <use style="fill:#00cc96;stroke:#3d3d3d;stroke-width:0.8;" x="124.730402" xlink:href="#826f8ff1" y="28.847052"/>
    </g>
    <g clip-path="url(#paa4726cd0b)">
     <use style="fill:#00cc96;stroke:#3d3d3d;stroke-width:0.8;" x="124.163313" xlink:href="#826f8ff1" y="55.879365"/>
    </g>
    <g clip-path="url(#paa4726cd0b)">
     <use style="fill:#00cc96;stroke:#3d3d3d;stroke-width:0.8;" x="124.19633" xlink:href="#826f8ff1" y="51.360531"/>
    </g>
    <g clip-path="url(#paa4726cd0b)">
     <use style="fill:#00cc96;stroke:#3d3d3d;stroke-width:0.8;" x="124.730402" xlink:href="#826f8ff1" y="32.88479"/>
    </g>
    <g clip-path="url(#paa4726cd0b)">
     <use style="fill:#00cc96;stroke:#3d3d3d;stroke-width:0.8;" x="126.705177" xlink:href="#826f8ff1" y="53.636684"/>
    </g>
    <g clip-path="url(#paa4726cd0b)">
     <use style="fill:#00cc96;stroke:#3d3d3d;stroke-width:0.8;" x="128.189937" xlink:href="#826f8ff1" y="39.659977"/>
    </g>
    <g clip-path="url(#paa4726cd0b)">
     <use style="fill:#00cc96;stroke:#3d3d3d;stroke-width:0.8;" x="124.730402" xlink:href="#826f8ff1" y="21.048349"/>
    </g>
    <g clip-path="url(#paa4726cd0b)">
     <use style="fill:#00cc96;stroke:#3d3d3d;stroke-width:0.8;" x="124.730402" xlink:href="#826f8ff1" y="39.845246"/>
    </g>
    <g clip-path="url(#paa4726cd0b)">
     <use style="fill:#00cc96;stroke:#3d3d3d;stroke-width:0.8;" x="124.730402" xlink:href="#826f8ff1" y="59.134869"/>
    </g>
   </g>
   <g id="PathCollection_5">
    <defs>
     <path d="M 0 1.25  C 0.331504 1.25 0.649475 1.118292 0.883883 0.883883  C 1.118292 0.649475 1.25 0.331504 1.25 0  C 1.25 -0.331504 1.118292 -0.649475 0.883883 -0.883883  C 0.649475 -1.118292 0.331504 -1.25 0 -1.25  C -0.331504 -1.25 -0.649475 -1.118292 -0.883883 -0.883883  C -1.118292 -0.649475 -1.25 -0.331504 -1.25 0  C -1.25 0.331504 -1.118292 0.649475 -0.883883 0.883883  C -0.649475 1.118292 -0.331504 1.25 0 1.25  z " id="2ad7c71f"/>
    </defs>
    <g clip-path="url(#paa4726cd0b)">
     <use style="fill:#ef553b;stroke:#595959;stroke-width:0.8;" x="155.571099" xlink:href="#2ad7c71f" y="69.221415"/>
    </g>
    <g clip-path="url(#paa4726cd0b)">
     <use style="fill:#ef553b;stroke:#595959;stroke-width:0.8;" x="154.12183" xlink:href="#2ad7c71f" y="49.020681"/>
    </g>
    <g clip-path="url(#paa4726cd0b)">
     <use style="fill:#ef553b;stroke:#595959;stroke-width:0.8;" x="154.12183" xlink:href="#2ad7c71f" y="58.467074"/>
    </g>
    <g clip-path="url(#paa4726cd0b)">
     <use style="fill:#ef553b;stroke:#595959;stroke-width:0.8;" x="154.12183" xlink:href="#2ad7c71f" y="32.905562"/>
    </g>
    <g clip-path="url(#paa4726cd0b)">
     <use style="fill:#ef553b;stroke:#595959;stroke-width:0.8;" x="154.12183" xlink:href="#2ad7c71f" y="75.768833"/>
    </g>
    <g clip-path="url(#paa4726cd0b)">
     <use style="fill:#ef553b;stroke:#595959;stroke-width:0.8;" x="152.034818" xlink:href="#2ad7c71f" y="69.584636"/>
    </g>
    <g clip-path="url(#paa4726cd0b)">
     <use style="fill:#ef553b;stroke:#595959;stroke-width:0.8;" x="154.12183" xlink:href="#2ad7c71f" y="72.218896"/>
    </g>
    <g clip-path="url(#paa4726cd0b)">
     <use style="fill:#ef553b;stroke:#595959;stroke-width:0.8;" x="158.697753" xlink:href="#2ad7c71f" y="67.799125"/>
    </g>
    <g clip-path="url(#paa4726cd0b)">
     <use style="fill:#ef553b;stroke:#595959;stroke-width:0.8;" x="149.17654" xlink:href="#2ad7c71f" y="67.719216"/>
    </g>
   </g>
   <g id="PathCollection_6">
    <defs>
     <path d="M 0 1.25  C 0.331504 1.25 0.649475 1.118292 0.883883 0.883883  C 1.118292 0.649475 1.25 0.331504 1.25 0  C 1.25 -0.331504 1.118292 -0.649475 0.883883 -0.883883  C 0.649475 -1.118292 0.331504 -1.25 0 -1.25  C -0.331504 -1.25 -0.649475 -1.118292 -0.883883 -0.883883  C -1.118292 -0.649475 -1.25 -0.331504 -1.25 0  C -1.25 0.331504 -1.118292 0.649475 -0.883883 0.883883  C -0.649475 1.118292 -0.331504 1.25 0 1.25  z " id="0f042b26"/>
    </defs>
    <g clip-path="url(#paa4726cd0b)">
     <use style="fill:#00cc96;stroke:#3d3d3d;stroke-width:0.8;" x="173.716116" xlink:href="#0f042b26" y="22.239153"/>
    </g>
    <g clip-path="url(#paa4726cd0b)">
     <use style="fill:#00cc96;stroke:#3d3d3d;stroke-width:0.8;" x="173.716116" xlink:href="#0f042b26" y="52.071039"/>
    </g>
    <g clip-path="url(#paa4726cd0b)">
     <use style="fill:#00cc96;stroke:#3d3d3d;stroke-width:0.8;" x="172.045884" xlink:href="#0f042b26" y="44.006349"/>
    </g>
    <g clip-path="url(#paa4726cd0b)">
     <use style="fill:#00cc96;stroke:#3d3d3d;stroke-width:0.8;" x="174.461351" xlink:href="#0f042b26" y="46.372349"/>
    </g>
    <g clip-path="url(#paa4726cd0b)">
     <use style="fill:#00cc96;stroke:#3d3d3d;stroke-width:0.8;" x="172.394068" xlink:href="#0f042b26" y="49.020681"/>
    </g>
    <g clip-path="url(#paa4726cd0b)">
     <use style="fill:#00cc96;stroke:#3d3d3d;stroke-width:0.8;" x="176.590548" xlink:href="#0f042b26" y="43.768889"/>
    </g>
    <g clip-path="url(#paa4726cd0b)">
     <use style="fill:#00cc96;stroke:#3d3d3d;stroke-width:0.8;" x="173.716116" xlink:href="#0f042b26" y="29.015599"/>
    </g>
    <g clip-path="url(#paa4726cd0b)">
     <use style="fill:#00cc96;stroke:#3d3d3d;stroke-width:0.8;" x="168.898013" xlink:href="#0f042b26" y="42.62716"/>
    </g>
    <g clip-path="url(#paa4726cd0b)">
     <use style="fill:#00cc96;stroke:#3d3d3d;stroke-width:0.8;" x="173.716116" xlink:href="#0f042b26" y="36.001058"/>
    </g>
   </g>
   <g id="PathCollection_7">
    <defs>
     <path d="M 0 1.25  C 0.331504 1.25 0.649475 1.118292 0.883883 0.883883  C 1.118292 0.649475 1.25 0.331504 1.25 0  C 1.25 -0.331504 1.118292 -0.649475 0.883883 -0.883883  C 0.649475 -1.118292 0.331504 -1.25 0 -1.25  C -0.331504 -1.25 -0.649475 -1.118292 -0.883883 -0.883883  C -1.118292 -0.649475 -1.25 -0.331504 -1.25 0  C -1.25 0.331504 -1.118292 0.649475 -0.883883 0.883883  C -0.649475 1.118292 -0.331504 1.25 0 1.25  z " id="fdabe6bf"/>
    </defs>
    <g clip-path="url(#paa4726cd0b)">
     <use style="fill:#ef553b;stroke:#595959;stroke-width:0.8;" x="203.107545" xlink:href="#fdabe6bf" y="50.414349"/>
    </g>
    <g clip-path="url(#paa4726cd0b)">
     <use style="fill:#ef553b;stroke:#595959;stroke-width:0.8;" x="203.107545" xlink:href="#fdabe6bf" y="54.139354"/>
    </g>
    <g clip-path="url(#paa4726cd0b)">
     <use style="fill:#ef553b;stroke:#595959;stroke-width:0.8;" x="203.107545" xlink:href="#fdabe6bf" y="46.557379"/>
    </g>
    <g clip-path="url(#paa4726cd0b)">
     <use style="fill:#ef553b;stroke:#595959;stroke-width:0.8;" x="199.826394" xlink:href="#fdabe6bf" y="63.518776"/>
    </g>
    <g clip-path="url(#paa4726cd0b)">
     <use style="fill:#ef553b;stroke:#595959;stroke-width:0.8;" x="205.84688" xlink:href="#fdabe6bf" y="69.464835"/>
    </g>
    <g clip-path="url(#paa4726cd0b)">
     <use style="fill:#ef553b;stroke:#595959;stroke-width:0.8;" x="199.813029" xlink:href="#fdabe6bf" y="70.463272"/>
    </g>
    <g clip-path="url(#paa4726cd0b)">
     <use style="fill:#ef553b;stroke:#595959;stroke-width:0.8;" x="203.107545" xlink:href="#fdabe6bf" y="71.485649"/>
    </g>
    <g clip-path="url(#paa4726cd0b)">
     <use style="fill:#ef553b;stroke:#595959;stroke-width:0.8;" x="203.107545" xlink:href="#fdabe6bf" y="64.57942"/>
    </g>
    <g clip-path="url(#paa4726cd0b)">
     <use style="fill:#ef553b;stroke:#595959;stroke-width:0.8;" x="203.107545" xlink:href="#fdabe6bf" y="60.415124"/>
    </g>
   </g>
   <g id="PathCollection_8">
    <defs>
     <path d="M 0 1.25  C 0.331504 1.25 0.649475 1.118292 0.883883 0.883883  C 1.118292 0.649475 1.25 0.331504 1.25 0  C 1.25 -0.331504 1.118292 -0.649475 0.883883 -0.883883  C 0.649475 -1.118292 0.331504 -1.25 0 -1.25  C -0.331504 -1.25 -0.649475 -1.118292 -0.883883 -0.883883  C -1.118292 -0.649475 -1.25 -0.331504 -1.25 0  C -1.25 0.331504 -1.118292 0.649475 -0.883883 0.883883  C -0.649475 1.118292 -0.331504 1.25 0 1.25  z " id="6a25c80c"/>
    </defs>
    <g clip-path="url(#paa4726cd0b)">
     <use style="fill:#00cc96;stroke:#3d3d3d;stroke-width:0.8;" x="219.54933" xlink:href="#6a25c80c" y="28.115173"/>
    </g>
    <g clip-path="url(#paa4726cd0b)">
     <use style="fill:#00cc96;stroke:#3d3d3d;stroke-width:0.8;" x="222.70183" xlink:href="#6a25c80c" y="41.182185"/>
    </g>
    <g clip-path="url(#paa4726cd0b)">
     <use style="fill:#00cc96;stroke:#3d3d3d;stroke-width:0.8;" x="222.70183" xlink:href="#6a25c80c" y="48.300345"/>
    </g>
    <g clip-path="url(#paa4726cd0b)">
     <use style="fill:#00cc96;stroke:#3d3d3d;stroke-width:0.8;" x="222.70183" xlink:href="#6a25c80c" y="24.519846"/>
    </g>
    <g clip-path="url(#paa4726cd0b)">
     <use style="fill:#00cc96;stroke:#3d3d3d;stroke-width:0.8;" x="222.70183" xlink:href="#6a25c80c" y="71.913485"/>
    </g>
    <g clip-path="url(#paa4726cd0b)">
     <use style="fill:#00cc96;stroke:#3d3d3d;stroke-width:0.8;" x="219.938121" xlink:href="#6a25c80c" y="39.191701"/>
    </g>
    <g clip-path="url(#paa4726cd0b)">
     <use style="fill:#00cc96;stroke:#3d3d3d;stroke-width:0.8;" x="222.70183" xlink:href="#6a25c80c" y="29.484737"/>
    </g>
    <g clip-path="url(#paa4726cd0b)">
     <use style="fill:#00cc96;stroke:#3d3d3d;stroke-width:0.8;" x="222.70183" xlink:href="#6a25c80c" y="53.938584"/>
    </g>
    <g clip-path="url(#paa4726cd0b)">
     <use style="fill:#00cc96;stroke:#3d3d3d;stroke-width:0.8;" x="222.70183" xlink:href="#6a25c80c" y="35.979522"/>
    </g>
   </g>
   <g id="PathCollection_9">
    <defs>
     <path d="M 0 1.25  C 0.331504 1.25 0.649475 1.118292 0.883883 0.883883  C 1.118292 0.649475 1.25 0.331504 1.25 0  C 1.25 -0.331504 1.118292 -0.649475 0.883883 -0.883883  C 0.649475 -1.118292 0.331504 -1.25 0 -1.25  C -0.331504 -1.25 -0.649475 -1.118292 -0.883883 -0.883883  C -1.118292 -0.649475 -1.25 -0.331504 -1.25 0  C -1.25 0.331504 -1.118292 0.649475 -0.883883 0.883883  C -0.649475 1.118292 -0.331504 1.25 0 1.25  z " id="565e6ba6"/>
    </defs>
    <g clip-path="url(#paa4726cd0b)">
     <use style="fill:#ef553b;stroke:#595959;stroke-width:0.8;" x="252.842791" xlink:href="#565e6ba6" y="46.574626"/>
    </g>
    <g clip-path="url(#paa4726cd0b)">
     <use style="fill:#ef553b;stroke:#595959;stroke-width:0.8;" x="248.993233" xlink:href="#565e6ba6" y="62.738049"/>
    </g>
    <g clip-path="url(#paa4726cd0b)">
     <use style="fill:#ef553b;stroke:#595959;stroke-width:0.8;" x="252.093259" xlink:href="#565e6ba6" y="29.18961"/>
    </g>
    <g clip-path="url(#paa4726cd0b)">
     <use style="fill:#ef553b;stroke:#595959;stroke-width:0.8;" x="252.093259" xlink:href="#565e6ba6" y="41.002618"/>
    </g>
    <g clip-path="url(#paa4726cd0b)">
     <use style="fill:#ef553b;stroke:#595959;stroke-width:0.8;" x="252.093259" xlink:href="#565e6ba6" y="60.331746"/>
    </g>
    <g clip-path="url(#paa4726cd0b)">
     <use style="fill:#ef553b;stroke:#595959;stroke-width:0.8;" x="249.597295" xlink:href="#565e6ba6" y="47.730494"/>
    </g>
    <g clip-path="url(#paa4726cd0b)">
     <use style="fill:#ef553b;stroke:#595959;stroke-width:0.8;" x="252.093259" xlink:href="#565e6ba6" y="79.034316"/>
    </g>
    <g clip-path="url(#paa4726cd0b)">
     <use style="fill:#ef553b;stroke:#595959;stroke-width:0.8;" x="252.093259" xlink:href="#565e6ba6" y="64.212262"/>
    </g>
    <g clip-path="url(#paa4726cd0b)">
     <use style="fill:#ef553b;stroke:#595959;stroke-width:0.8;" x="252.093259" xlink:href="#565e6ba6" y="50.019457"/>
    </g>
   </g>
   <g id="PathCollection_10">
    <defs>
     <path d="M 0 1.25  C 0.331504 1.25 0.649475 1.118292 0.883883 0.883883  C 1.118292 0.649475 1.25 0.331504 1.25 0  C 1.25 -0.331504 1.118292 -0.649475 0.883883 -0.883883  C 0.649475 -1.118292 0.331504 -1.25 0 -1.25  C -0.331504 -1.25 -0.649475 -1.118292 -0.883883 -0.883883  C -1.118292 -0.649475 -1.25 -0.331504 -1.25 0  C -1.25 0.331504 -1.118292 0.649475 -0.883883 0.883883  C -0.649475 1.118292 -0.331504 1.25 0 1.25  z " id="52a80529"/>
    </defs>
    <g clip-path="url(#paa4726cd0b)">
     <use style="fill:#00cc96;stroke:#3d3d3d;stroke-width:0.8;" x="271.687545" xlink:href="#52a80529" y="31.966444"/>
    </g>
    <g clip-path="url(#paa4726cd0b)">
     <use style="fill:#00cc96;stroke:#3d3d3d;stroke-width:0.8;" x="271.687545" xlink:href="#52a80529" y="62.738049"/>
    </g>
    <g clip-path="url(#paa4726cd0b)">
     <use style="fill:#00cc96;stroke:#3d3d3d;stroke-width:0.8;" x="271.687545" xlink:href="#52a80529" y="55.879365"/>
    </g>
    <g clip-path="url(#paa4726cd0b)">
     <use style="fill:#00cc96;stroke:#3d3d3d;stroke-width:0.8;" x="271.687545" xlink:href="#52a80529" y="41.002618"/>
    </g>
    <g clip-path="url(#paa4726cd0b)">
     <use style="fill:#00cc96;stroke:#3d3d3d;stroke-width:0.8;" x="268.505505" xlink:href="#52a80529" y="49.261619"/>
    </g>
    <g clip-path="url(#paa4726cd0b)">
     <use style="fill:#00cc96;stroke:#3d3d3d;stroke-width:0.8;" x="271.687545" xlink:href="#52a80529" y="19.611012"/>
    </g>
    <g clip-path="url(#paa4726cd0b)">
     <use style="fill:#00cc96;stroke:#3d3d3d;stroke-width:0.8;" x="271.687545" xlink:href="#52a80529" y="15.352181"/>
    </g>
    <g clip-path="url(#paa4726cd0b)">
     <use style="fill:#00cc96;stroke:#3d3d3d;stroke-width:0.8;" x="271.687545" xlink:href="#52a80529" y="50.567753"/>
    </g>
    <g clip-path="url(#paa4726cd0b)">
     <use style="fill:#00cc96;stroke:#3d3d3d;stroke-width:0.8;" x="271.257171" xlink:href="#52a80529" y="37.728172"/>
    </g>
   </g>
   <g id="PathCollection_11">
    <defs>
     <path d="M 0 1.25  C 0.331504 1.25 0.649475 1.118292 0.883883 0.883883  C 1.118292 0.649475 1.25 0.331504 1.25 0  C 1.25 -0.331504 1.118292 -0.649475 0.883883 -0.883883  C 0.649475 -1.118292 0.331504 -1.25 0 -1.25  C -0.331504 -1.25 -0.649475 -1.118292 -0.883883 -0.883883  C -1.118292 -0.649475 -1.25 -0.331504 -1.25 0  C -1.25 0.331504 -1.118292 0.649475 -0.883883 0.883883  C -0.649475 1.118292 -0.331504 1.25 0 1.25  z " id="77298d54"/>
    </defs>
    <g clip-path="url(#paa4726cd0b)">
     <use style="fill:#ef553b;stroke:#595959;stroke-width:0.8;" x="297.638578" xlink:href="#77298d54" y="47.117767"/>
    </g>
    <g clip-path="url(#paa4726cd0b)">
     <use style="fill:#ef553b;stroke:#595959;stroke-width:0.8;" x="301.078973" xlink:href="#77298d54" y="67.092769"/>
    </g>
    <g clip-path="url(#paa4726cd0b)">
     <use style="fill:#ef553b;stroke:#595959;stroke-width:0.8;" x="301.078973" xlink:href="#77298d54" y="47.510337"/>
    </g>
    <g clip-path="url(#paa4726cd0b)">
     <use style="fill:#ef553b;stroke:#595959;stroke-width:0.8;" x="301.078973" xlink:href="#77298d54" y="62.338286"/>
    </g>
    <g clip-path="url(#paa4726cd0b)">
     <use style="fill:#ef553b;stroke:#595959;stroke-width:0.8;" x="297.795324" xlink:href="#77298d54" y="66.039161"/>
    </g>
    <g clip-path="url(#paa4726cd0b)">
     <use style="fill:#ef553b;stroke:#595959;stroke-width:0.8;" x="297.619376" xlink:href="#77298d54" y="71.629984"/>
    </g>
    <g clip-path="url(#paa4726cd0b)">
     <use style="fill:#ef553b;stroke:#595959;stroke-width:0.8;" x="301.078973" xlink:href="#77298d54" y="71.814202"/>
    </g>
    <g clip-path="url(#paa4726cd0b)">
     <use style="fill:#ef553b;stroke:#595959;stroke-width:0.8;" x="301.078973" xlink:href="#77298d54" y="55.879365"/>
    </g>
    <g clip-path="url(#paa4726cd0b)">
     <use style="fill:#ef553b;stroke:#595959;stroke-width:0.8;" x="300.083432" xlink:href="#77298d54" y="59.177425"/>
    </g>
   </g>
   <g id="PathCollection_12">
    <defs>
     <path d="M 0 1.25  C 0.331504 1.25 0.649475 1.118292 0.883883 0.883883  C 1.118292 0.649475 1.25 0.331504 1.25 0  C 1.25 -0.331504 1.118292 -0.649475 0.883883 -0.883883  C 0.649475 -1.118292 0.331504 -1.25 0 -1.25  C -0.331504 -1.25 -0.649475 -1.118292 -0.883883 -0.883883  C -1.118292 -0.649475 -1.25 -0.331504 -1.25 0  C -1.25 0.331504 -1.118292 0.649475 -0.883883 0.883883  C -0.649475 1.118292 -0.331504 1.25 0 1.25  z " id="85d86049"/>
    </defs>
    <g clip-path="url(#paa4726cd0b)">
     <use style="fill:#00cc96;stroke:#3d3d3d;stroke-width:0.8;" x="320.673259" xlink:href="#85d86049" y="28.078586"/>
    </g>
    <g clip-path="url(#paa4726cd0b)">
     <use style="fill:#00cc96;stroke:#3d3d3d;stroke-width:0.8;" x="320.95858" xlink:href="#85d86049" y="37.190359"/>
    </g>
    <g clip-path="url(#paa4726cd0b)">
     <use style="fill:#00cc96;stroke:#3d3d3d;stroke-width:0.8;" x="320.673259" xlink:href="#85d86049" y="50.112472"/>
    </g>
    <g clip-path="url(#paa4726cd0b)">
     <use style="fill:#00cc96;stroke:#3d3d3d;stroke-width:0.8;" x="320.673259" xlink:href="#85d86049" y="17.063736"/>
    </g>
    <g clip-path="url(#paa4726cd0b)">
     <use style="fill:#00cc96;stroke:#3d3d3d;stroke-width:0.8;" x="320.673259" xlink:href="#85d86049" y="43.158277"/>
    </g>
    <g clip-path="url(#paa4726cd0b)">
     <use style="fill:#00cc96;stroke:#3d3d3d;stroke-width:0.8;" x="318.901278" xlink:href="#85d86049" y="25.242744"/>
    </g>
    <g clip-path="url(#paa4726cd0b)">
     <use style="fill:#00cc96;stroke:#3d3d3d;stroke-width:0.8;" x="318.742058" xlink:href="#85d86049" y="14.32381"/>
    </g>
    <g clip-path="url(#paa4726cd0b)">
     <use style="fill:#00cc96;stroke:#3d3d3d;stroke-width:0.8;" x="317.914124" xlink:href="#85d86049" y="48.116239"/>
    </g>
    <g clip-path="url(#paa4726cd0b)">
     <use style="fill:#00cc96;stroke:#3d3d3d;stroke-width:0.8;" x="319.344623" xlink:href="#85d86049" y="40.110516"/>
    </g>
   </g>
   <g id="PathCollection_13">
    <defs>
     <path d="M 0 1.25  C 0.331504 1.25 0.649475 1.118292 0.883883 0.883883  C 1.118292 0.649475 1.25 0.331504 1.25 0  C 1.25 -0.331504 1.118292 -0.649475 0.883883 -0.883883  C 0.649475 -1.118292 0.331504 -1.25 0 -1.25  C -0.331504 -1.25 -0.649475 -1.118292 -0.883883 -0.883883  C -1.118292 -0.649475 -1.25 -0.331504 -1.25 0  C -1.25 0.331504 -1.118292 0.649475 -0.883883 0.883883  C -0.649475 1.118292 -0.331504 1.25 0 1.25  z " id="0e0f7919"/>
    </defs>
    <g clip-path="url(#paa4726cd0b)">
     <use style="fill:#ef553b;stroke:#595959;stroke-width:0.8;" x="354.265277" xlink:href="#0e0f7919" y="41.355731"/>
    </g>
    <g clip-path="url(#paa4726cd0b)">
     <use style="fill:#ef553b;stroke:#595959;stroke-width:0.8;" x="346.941871" xlink:href="#0e0f7919" y="43.521736"/>
    </g>
    <g clip-path="url(#paa4726cd0b)">
     <use style="fill:#ef553b;stroke:#595959;stroke-width:0.8;" x="350.064687" xlink:href="#0e0f7919" y="27.50997"/>
    </g>
    <g clip-path="url(#paa4726cd0b)">
     <use style="fill:#ef553b;stroke:#595959;stroke-width:0.8;" x="350.064687" xlink:href="#0e0f7919" y="37.82852"/>
    </g>
    <g clip-path="url(#paa4726cd0b)">
     <use style="fill:#ef553b;stroke:#595959;stroke-width:0.8;" x="346.818957" xlink:href="#0e0f7919" y="71.887466"/>
    </g>
    <g clip-path="url(#paa4726cd0b)">
     <use style="fill:#ef553b;stroke:#595959;stroke-width:0.8;" x="350.064687" xlink:href="#0e0f7919" y="44.951653"/>
    </g>
    <g clip-path="url(#paa4726cd0b)">
     <use style="fill:#ef553b;stroke:#595959;stroke-width:0.8;" x="350.064687" xlink:href="#0e0f7919" y="87.44941"/>
    </g>
    <g clip-path="url(#paa4726cd0b)">
     <use style="fill:#ef553b;stroke:#595959;stroke-width:0.8;" x="350.822828" xlink:href="#0e0f7919" y="41.731613"/>
    </g>
    <g clip-path="url(#paa4726cd0b)">
     <use style="fill:#ef553b;stroke:#595959;stroke-width:0.8;" x="350.064687" xlink:href="#0e0f7919" y="73.042738"/>
    </g>
   </g>
   <g id="PathCollection_14">
    <defs>
     <path d="M 0 1.25  C 0.331504 1.25 0.649475 1.118292 0.883883 0.883883  C 1.118292 0.649475 1.25 0.331504 1.25 0  C 1.25 -0.331504 1.118292 -0.649475 0.883883 -0.883883  C 0.649475 -1.118292 0.331504 -1.25 0 -1.25  C -0.331504 -1.25 -0.649475 -1.118292 -0.883883 -0.883883  C -1.118292 -0.649475 -1.25 -0.331504 -1.25 0  C -1.25 0.331504 -1.118292 0.649475 -0.883883 0.883883  C -0.649475 1.118292 -0.331504 1.25 0 1.25  z " id="9e52c285"/>
    </defs>
    <g clip-path="url(#paa4726cd0b)">
     <use style="fill:#00cc96;stroke:#3d3d3d;stroke-width:0.8;" x="367.118653" xlink:href="#9e52c285" y="32.6516"/>
    </g>
    <g clip-path="url(#paa4726cd0b)">
     <use style="fill:#00cc96;stroke:#3d3d3d;stroke-width:0.8;" x="369.658973" xlink:href="#9e52c285" y="46.886437"/>
    </g>
    <g clip-path="url(#paa4726cd0b)">
     <use style="fill:#00cc96;stroke:#3d3d3d;stroke-width:0.8;" x="369.658973" xlink:href="#9e52c285" y="57.662415"/>
    </g>
    <g clip-path="url(#paa4726cd0b)">
     <use style="fill:#00cc96;stroke:#3d3d3d;stroke-width:0.8;" x="366.749696" xlink:href="#9e52c285" y="45.093954"/>
    </g>
    <g clip-path="url(#paa4726cd0b)">
     <use style="fill:#00cc96;stroke:#3d3d3d;stroke-width:0.8;" x="366.34465" xlink:href="#9e52c285" y="56.699858"/>
    </g>
    <g clip-path="url(#paa4726cd0b)">
     <use style="fill:#00cc96;stroke:#3d3d3d;stroke-width:0.8;" x="367.747505" xlink:href="#9e52c285" y="22.752744"/>
    </g>
    <g clip-path="url(#paa4726cd0b)">
     <use style="fill:#00cc96;stroke:#3d3d3d;stroke-width:0.8;" x="369.658973" xlink:href="#9e52c285" y="25.505193"/>
    </g>
    <g clip-path="url(#paa4726cd0b)">
     <use style="fill:#00cc96;stroke:#3d3d3d;stroke-width:0.8;" x="369.658973" xlink:href="#9e52c285" y="42.797061"/>
    </g>
    <g clip-path="url(#paa4726cd0b)">
     <use style="fill:#00cc96;stroke:#3d3d3d;stroke-width:0.8;" x="369.658973" xlink:href="#9e52c285" y="34.895867"/>
    </g>
   </g>
   <g id="legend_1">
    <g id="patch_19">
     <path d="M 391.354687 147.18  L 498.054687 147.18  Q 500.054687 147.18 500.054687 145.18  L 500.054687 108.58  Q 500.054687 106.58 498.054687 106.58  L 391.354687 106.58  Q 389.354687 106.58 389.354687 108.58  L 389.354687 145.18  Q 389.354687 147.18 391.354687 147.18  z " style="fill:#ffffff;opacity:0.8;stroke:#cccccc;stroke-linejoin:miter;"/>
    </g>
    <g id="patch_20">
     <path d="M 393.354687 120.28  L 413.354687 120.28  L 413.354687 113.28  L 393.354687 113.28  z " style="fill:#dd624d;"/>
    </g>
    <g id="text_13">
     <!-- tdTomato$ = \frac{O}{A + O}$ -->
     <defs>
      <path d="M 25.78125 7.859375  L 27.046875 0.09375  Q 23.34375 -0.6875 20.40625 -0.6875  Q 15.625 -0.6875 12.984375 0.828125  Q 10.359375 2.34375 9.28125 4.8125  Q 8.203125 7.28125 8.203125 15.1875  L 8.203125 45.015625  L 1.765625 45.015625  L 1.765625 51.859375  L 8.203125 51.859375  L 8.203125 64.703125  L 16.9375 69.96875  L 16.9375 51.859375  L 25.78125 51.859375  L 25.78125 45.015625  L 16.9375 45.015625  L 16.9375 14.703125  Q 16.9375 10.9375 17.40625 9.859375  Q 17.875 8.796875 18.921875 8.15625  Q 19.96875 7.515625 21.921875 7.515625  Q 23.390625 7.515625 25.78125 7.859375  z " id="8037c7fa"/>
      <path d="M 40.234375 0  L 40.234375 6.546875  Q 35.296875 -1.171875 25.734375 -1.171875  Q 19.53125 -1.171875 14.328125 2.25  Q 9.125 5.671875 6.265625 11.796875  Q 3.421875 17.921875 3.421875 25.875  Q 3.421875 33.640625 6 39.96875  Q 8.59375 46.296875 13.765625 49.65625  Q 18.953125 53.03125 25.34375 53.03125  Q 30.03125 53.03125 33.6875 51.046875  Q 37.359375 49.078125 39.65625 45.90625  L 39.65625 71.578125  L 48.390625 71.578125  L 48.390625 0  z M 12.453125 25.875  Q 12.453125 15.921875 16.640625 10.984375  Q 20.84375 6.0625 26.5625 6.0625  Q 32.328125 6.0625 36.34375 10.765625  Q 40.375 15.484375 40.375 25.140625  Q 40.375 35.796875 36.265625 40.765625  Q 32.171875 45.75 26.171875 45.75  Q 20.3125 45.75 16.375 40.96875  Q 12.453125 36.1875 12.453125 25.875  z " id="0fa9a87b"/>
      <path d="M 25.921875 0  L 25.921875 63.140625  L 2.34375 63.140625  L 2.34375 71.578125  L 59.078125 71.578125  L 59.078125 63.140625  L 35.40625 63.140625  L 35.40625 0  z " id="ca02945f"/>
      <path d="M 3.328125 25.921875  Q 3.328125 40.328125 11.328125 47.265625  Q 18.015625 53.03125 27.640625 53.03125  Q 38.328125 53.03125 45.109375 46.015625  Q 51.90625 39.015625 51.90625 26.65625  Q 51.90625 16.65625 48.90625 10.90625  Q 45.90625 5.171875 40.15625 2  Q 34.421875 -1.171875 27.640625 -1.171875  Q 16.75 -1.171875 10.03125 5.8125  Q 3.328125 12.796875 3.328125 25.921875  z M 12.359375 25.921875  Q 12.359375 15.96875 16.703125 11.015625  Q 21.046875 6.0625 27.640625 6.0625  Q 34.1875 6.0625 38.53125 11.03125  Q 42.875 16.015625 42.875 26.21875  Q 42.875 35.84375 38.5 40.796875  Q 34.125 45.75 27.640625 45.75  Q 21.046875 45.75 16.703125 40.8125  Q 12.359375 35.890625 12.359375 25.921875  z " id="a43ab964"/>
      <path d="M 6.59375 0  L 6.59375 51.859375  L 14.453125 51.859375  L 14.453125 44.578125  Q 16.890625 48.390625 20.9375 50.703125  Q 25 53.03125 30.171875 53.03125  Q 35.9375 53.03125 39.625 50.640625  Q 43.3125 48.25 44.828125 43.953125  Q 50.984375 53.03125 60.84375 53.03125  Q 68.5625 53.03125 72.703125 48.75  Q 76.859375 44.484375 76.859375 35.59375  L 76.859375 0  L 68.109375 0  L 68.109375 32.671875  Q 68.109375 37.9375 67.25 40.25  Q 66.40625 42.578125 64.15625 43.984375  Q 61.921875 45.40625 58.890625 45.40625  Q 53.421875 45.40625 49.796875 41.765625  Q 46.1875 38.140625 46.1875 30.125  L 46.1875 0  L 37.40625 0  L 37.40625 33.6875  Q 37.40625 39.546875 35.25 42.46875  Q 33.109375 45.40625 28.21875 45.40625  Q 24.515625 45.40625 21.359375 43.453125  Q 18.21875 41.5 16.796875 37.734375  Q 15.375 33.984375 15.375 26.90625  L 15.375 0  z " id="51d782fe"/>
      <path d="M 10.59375 45.40625  L 73.1875 45.40625  L 73.1875 37.203125  L 10.59375 37.203125  z M 10.59375 25.484375  L 73.1875 25.484375  L 73.1875 17.1875  L 10.59375 17.1875  z " id="d58a0a4f"/>
      <path d="M 45.609375 66.21875  Q 37.5 66.21875 31.296875 62.28125  Q 25.09375 58.34375 20.515625 50.296875  Q 17.578125 45.171875 16.03125 39.40625  Q 14.5 33.640625 14.5 27.78125  Q 14.5 17.625 19.359375 12.109375  Q 24.21875 6.59375 33.109375 6.59375  Q 41.109375 6.59375 47.375 10.5625  Q 53.65625 14.546875 58.109375 22.40625  Q 61.078125 27.6875 62.640625 33.46875  Q 64.203125 39.265625 64.203125 45.015625  Q 64.203125 55.125 59.3125 60.671875  Q 54.4375 66.21875 45.609375 66.21875  z M 32.8125 -1.421875  Q 19.390625 -1.421875 11.6875 6.53125  Q 4 14.5 4 28.328125  Q 4 36.234375 7 44.484375  Q 10.015625 52.734375 15.28125 59.1875  Q 21.484375 66.75 29.09375 70.484375  Q 36.71875 74.21875 45.90625 74.21875  Q 59.28125 74.21875 66.984375 66.328125  Q 74.703125 58.453125 74.703125 44.828125  Q 74.703125 36.421875 71.765625 28.3125  Q 68.84375 20.21875 63.375 13.625  Q 57.125 6 49.578125 2.28125  Q 42.046875 -1.421875 32.8125 -1.421875  z " id="6043d44c"/>
      <path d="M 36.8125 72.90625  L 48 72.90625  L 61.53125 0  L 51.21875 0  L 48.1875 18.703125  L 15.375 18.703125  L 5.078125 0  L -5.328125 0  z M 40.375 63.1875  L 19.921875 26.90625  L 46.6875 26.90625  z " id="e20181b9"/>
      <path d="M 46 62.703125  L 46 35.5  L 73.1875 35.5  L 73.1875 27.203125  L 46 27.203125  L 46 0  L 37.796875 0  L 37.796875 27.203125  L 10.59375 27.203125  L 10.59375 35.5  L 37.796875 35.5  L 37.796875 62.703125  z " id="51804e38"/>
     </defs>
     <g transform="translate(421.354687 120.28)scale(0.1 -0.1)">
      <use transform="translate(0 0.254687)" xlink:href="#8037c7fa"/>
      <use transform="translate(27.783203 0.254687)" xlink:href="#0fa9a87b"/>
      <use transform="translate(83.398438 0.254687)" xlink:href="#ca02945f"/>
      <use transform="translate(144.482422 0.254687)" xlink:href="#a43ab964"/>
      <use transform="translate(200.097656 0.254687)" xlink:href="#51d782fe"/>
      <use transform="translate(283.398438 0.254687)" xlink:href="#00ec75b3"/>
      <use transform="translate(339.013672 0.254687)" xlink:href="#8037c7fa"/>
      <use transform="translate(366.796875 0.254687)" xlink:href="#a43ab964"/>
      <use transform="translate(441.894531 0.254687)" xlink:href="#d58a0a4f"/>
      <use transform="translate(612.166016 45.046875)scale(0.7)" xlink:href="#6043d44c"/>
      <use transform="translate(545.166016 -39.151563)scale(0.7)" xlink:href="#e20181b9"/>
      <use transform="translate(606.689453 -39.151563)scale(0.7)" xlink:href="#51804e38"/>
      <use transform="translate(678.979492 -39.151563)scale(0.7)" xlink:href="#6043d44c"/>
      <path d="M 545.166016 19.051563  L 545.166016 25.301563  L 734.077148 25.301563  L 734.077148 19.051563  L 545.166016 19.051563  z "/>
     </g>
    </g>
    <g id="patch_21">
     <path d="M 393.354687 139.08  L 413.354687 139.08  L 413.354687 132.08  L 393.354687 132.08  z " style="fill:#14b88c;"/>
    </g>
    <g id="text_14">
     <!-- GCaMP$ = \frac{O}{B + O}$ -->
     <defs>
      <path d="M 41.21875 28.078125  L 41.21875 36.46875  L 71.53125 36.53125  L 71.53125 9.96875  Q 64.546875 4.390625 57.125 1.578125  Q 49.703125 -1.21875 41.890625 -1.21875  Q 31.34375 -1.21875 22.71875 3.296875  Q 14.109375 7.8125 9.71875 16.359375  Q 5.328125 24.90625 5.328125 35.453125  Q 5.328125 45.90625 9.6875 54.953125  Q 14.0625 64.015625 22.265625 68.40625  Q 30.46875 72.796875 41.15625 72.796875  Q 48.921875 72.796875 55.1875 70.28125  Q 61.46875 67.78125 65.03125 63.28125  Q 68.609375 58.796875 70.453125 51.5625  L 61.921875 49.21875  Q 60.296875 54.6875 57.90625 57.8125  Q 55.515625 60.9375 51.0625 62.8125  Q 46.625 64.703125 41.21875 64.703125  Q 34.71875 64.703125 29.984375 62.71875  Q 25.25 60.75 22.34375 57.515625  Q 19.4375 54.296875 17.828125 50.4375  Q 15.09375 43.796875 15.09375 36.03125  Q 15.09375 26.46875 18.390625 20.015625  Q 21.6875 13.578125 27.984375 10.453125  Q 34.28125 7.328125 41.359375 7.328125  Q 47.515625 7.328125 53.375 9.6875  Q 59.234375 12.0625 62.25 14.75  L 62.25 28.078125  z " id="1b89b8fd"/>
      <path d="M 58.796875 25.09375  L 68.265625 22.703125  Q 65.28125 11.03125 57.546875 4.90625  Q 49.8125 -1.21875 38.625 -1.21875  Q 27.046875 -1.21875 19.796875 3.484375  Q 12.546875 8.203125 8.765625 17.140625  Q 4.984375 26.078125 4.984375 36.328125  Q 4.984375 47.515625 9.25 55.828125  Q 13.53125 64.15625 21.40625 68.46875  Q 29.296875 72.796875 38.765625 72.796875  Q 49.515625 72.796875 56.828125 67.328125  Q 64.15625 61.859375 67.046875 51.953125  L 57.71875 49.75  Q 55.21875 57.5625 50.484375 61.125  Q 45.75 64.703125 38.578125 64.703125  Q 30.328125 64.703125 24.78125 60.734375  Q 19.234375 56.78125 16.984375 50.109375  Q 14.75 43.453125 14.75 36.375  Q 14.75 27.25 17.40625 20.4375  Q 20.0625 13.625 25.671875 10.25  Q 31.296875 6.890625 37.84375 6.890625  Q 45.796875 6.890625 51.3125 11.46875  Q 56.84375 16.0625 58.796875 25.09375  z " id="f1039096"/>
      <path d="M 7.421875 0  L 7.421875 71.578125  L 21.6875 71.578125  L 38.625 20.90625  Q 40.96875 13.8125 42.046875 10.296875  Q 43.265625 14.203125 45.84375 21.78125  L 62.984375 71.578125  L 75.734375 71.578125  L 75.734375 0  L 66.609375 0  L 66.609375 59.90625  L 45.796875 0  L 37.25 0  L 16.546875 60.9375  L 16.546875 0  z " id="ade863fd"/>
      <path d="M 7.71875 0  L 7.71875 71.578125  L 34.71875 71.578125  Q 41.84375 71.578125 45.609375 70.90625  Q 50.875 70.015625 54.4375 67.546875  Q 58.015625 65.09375 60.1875 60.640625  Q 62.359375 56.203125 62.359375 50.875  Q 62.359375 41.75 56.546875 35.421875  Q 50.734375 29.109375 35.546875 29.109375  L 17.1875 29.109375  L 17.1875 0  z M 17.1875 37.546875  L 35.6875 37.546875  Q 44.875 37.546875 48.734375 40.96875  Q 52.59375 44.390625 52.59375 50.59375  Q 52.59375 55.078125 50.3125 58.265625  Q 48.046875 61.46875 44.34375 62.5  Q 41.9375 63.140625 35.5 63.140625  L 17.1875 63.140625  z " id="92b9ce84"/>
      <path d="M 16.890625 72.90625  L 42.09375 72.90625  Q 52.34375 72.90625 57.421875 69.09375  Q 62.5 65.28125 62.5 57.625  Q 62.5 50.59375 58.125 45.484375  Q 53.765625 40.375 46.6875 39.3125  Q 52.734375 37.9375 55.765625 34.078125  Q 58.796875 30.21875 58.796875 23.78125  Q 58.796875 12.796875 50.65625 6.390625  Q 42.53125 0 28.421875 0  L 2.6875 0  z M 19.28125 34.8125  L 14.109375 8.109375  L 29.984375 8.109375  Q 38.921875 8.109375 43.75 12.203125  Q 48.578125 16.3125 48.578125 23.78125  Q 48.578125 29.546875 45.375 32.171875  Q 42.1875 34.8125 35.109375 34.8125  z M 25.09375 64.796875  L 20.796875 42.828125  L 35.5 42.828125  Q 43.359375 42.828125 47.78125 46.234375  Q 52.203125 49.65625 52.203125 55.71875  Q 52.203125 60.453125 49.21875 62.625  Q 46.234375 64.796875 39.703125 64.796875  z " id="7eadad53"/>
     </defs>
     <g transform="translate(421.354687 139.08)scale(0.1 -0.1)">
      <use transform="translate(0 0.254687)" xlink:href="#1b89b8fd"/>
      <use transform="translate(77.783203 0.254687)" xlink:href="#f1039096"/>
      <use transform="translate(150 0.254687)" xlink:href="#00ec75b3"/>
      <use transform="translate(205.615234 0.254687)" xlink:href="#ade863fd"/>
      <use transform="translate(288.916016 0.254687)" xlink:href="#92b9ce84"/>
      <use transform="translate(375.097656 0.254687)" xlink:href="#d58a0a4f"/>
      <use transform="translate(545.369141 45.046875)scale(0.7)" xlink:href="#6043d44c"/>
      <use transform="translate(478.369141 -39.151563)scale(0.7)" xlink:href="#7eadad53"/>
      <use transform="translate(540.029297 -39.151563)scale(0.7)" xlink:href="#51804e38"/>
      <use transform="translate(612.319336 -39.151563)scale(0.7)" xlink:href="#6043d44c"/>
      <path d="M 478.369141 19.051563  L 478.369141 25.301563  L 667.416992 25.301563  L 667.416992 19.051563  L 478.369141 19.051563  z "/>
     </g>
    </g>
   </g>
  </g>
  <g id="axes_2">
   <g id="patch_22">
    <path clip-path="url(#pf3d189723e)" d="M 449.649187 58.986151  C 446.380237 57.542547 443.600422 55.179241 441.649616 52.185182  C 439.69881 49.191124 438.659896 45.693518 438.659896 42.12  C 438.659896 38.546482 439.69881 35.048876 441.649616 32.054818  C 443.600422 29.060759 446.380237 26.697453 449.649187 25.253849  C 446.842653 24.014453 443.770649 23.494949 440.712643 23.742598  C 437.654636 23.990247 434.706258 24.997304 432.135731 26.672154  C 429.565203 28.347004 427.452913 30.637271 425.991019 33.334604  C 424.529126 36.031936 423.763347 39.051982 423.763347 42.12  C 423.763347 45.188018 424.529126 48.208064 425.991019 50.905396  C 427.452913 53.602729 429.565203 55.892996 432.135731 57.567846  C 434.706258 59.242696 437.654636 60.249753 440.712643 60.497402  C 443.770649 60.745051 446.842653 60.225547 449.649187 58.986151  " style="fill:#ff0000;opacity:0.4;"/>
   </g>
   <g id="patch_23">
    <path clip-path="url(#pf3d189723e)" d="M 449.649187 25.253849  C 452.918138 26.697453 455.697953 29.060759 457.648759 32.054818  C 459.599565 35.048876 460.638479 38.546482 460.638479 42.12  C 460.638479 45.693518 459.599565 49.191124 457.648759 52.185182  C 455.697953 55.179241 452.918138 57.542547 449.649187 58.986151  C 452.455722 60.225547 455.527726 60.745051 458.585732 60.497402  C 461.643739 60.249753 464.592117 59.242696 467.162644 57.567846  C 469.733172 55.892996 471.845462 53.602729 473.307356 50.905396  C 474.769249 48.208064 475.535028 45.188018 475.535028 42.12  C 475.535028 39.051982 474.769249 36.031936 473.307356 33.334604  C 471.845462 30.637271 469.733172 28.347004 467.162644 26.672154  C 464.592117 24.997304 461.643739 23.990247 458.585732 23.742598  C 455.527726 23.494949 452.455722 24.014453 449.649187 25.253849  " style="fill:#008000;opacity:0.4;"/>
   </g>
   <g id="patch_24">
    <path clip-path="url(#pf3d189723e)" d="M 449.649187 58.986151  C 452.918138 57.542547 455.697953 55.179241 457.648759 52.185182  C 459.599565 49.191124 460.638479 45.693518 460.638479 42.12  C 460.638479 38.546482 459.599565 35.048876 457.648759 32.054818  C 455.697953 29.060759 452.918138 26.697453 449.649187 25.253849  C 446.380237 26.697453 443.600422 29.060759 441.649616 32.054818  C 439.69881 35.048876 438.659896 38.546482 438.659896 42.12  C 438.659896 45.693518 439.69881 49.191124 441.649616 52.185182  C 443.600422 55.179241 446.380237 57.542547 449.649187 58.986151  " style="fill:#b25900;opacity:0.4;"/>
   </g>
   <g id="text_15">
    <!-- A -->
    <defs>
     <path d="M -0.140625 0  L 27.34375 71.578125  L 37.546875 71.578125  L 66.84375 0  L 56.0625 0  L 47.703125 21.6875  L 17.78125 21.6875  L 9.90625 0  z M 20.515625 29.390625  L 44.78125 29.390625  L 37.3125 49.21875  Q 33.890625 58.25 32.234375 64.0625  Q 30.859375 57.171875 28.375 50.390625  z " id="0ee0977a"/>
    </defs>
    <g transform="translate(427.876465 44.705156)scale(0.1 -0.1)">
     <use xlink:href="#0ee0977a"/>
    </g>
   </g>
   <g id="text_16">
    <!-- B -->
    <defs>
     <path d="M 7.328125 0  L 7.328125 71.578125  L 34.1875 71.578125  Q 42.390625 71.578125 47.34375 69.40625  Q 52.296875 67.234375 55.09375 62.71875  Q 57.90625 58.203125 57.90625 53.265625  Q 57.90625 48.6875 55.421875 44.625  Q 52.9375 40.578125 47.90625 38.09375  Q 54.390625 36.1875 57.875 31.59375  Q 61.375 27 61.375 20.75  Q 61.375 15.71875 59.25 11.390625  Q 57.125 7.078125 54 4.734375  Q 50.875 2.390625 46.15625 1.1875  Q 41.453125 0 34.625 0  z M 16.796875 41.5  L 32.28125 41.5  Q 38.578125 41.5 41.3125 42.328125  Q 44.921875 43.40625 46.75 45.890625  Q 48.578125 48.390625 48.578125 52.15625  Q 48.578125 55.71875 46.875 58.421875  Q 45.171875 61.140625 41.984375 62.140625  Q 38.8125 63.140625 31.109375 63.140625  L 16.796875 63.140625  z M 16.796875 8.453125  L 34.625 8.453125  Q 39.203125 8.453125 41.0625 8.796875  Q 44.34375 9.375 46.53125 10.734375  Q 48.734375 12.109375 50.140625 14.71875  Q 51.5625 17.328125 51.5625 20.75  Q 51.5625 24.75 49.515625 27.703125  Q 47.46875 30.671875 43.828125 31.859375  Q 40.1875 33.0625 33.34375 33.0625  L 16.796875 33.0625  z " id="c760da29"/>
    </defs>
    <g transform="translate(464.751597 44.705156)scale(0.1 -0.1)">
     <use xlink:href="#c760da29"/>
    </g>
   </g>
   <g id="text_17">
    <!-- O -->
    <defs>
     <path d="M 4.828125 34.859375  Q 4.828125 52.6875 14.390625 62.765625  Q 23.96875 72.859375 39.109375 72.859375  Q 49.03125 72.859375 56.984375 68.109375  Q 64.9375 63.375 69.109375 54.90625  Q 73.296875 46.4375 73.296875 35.6875  Q 73.296875 24.8125 68.890625 16.21875  Q 64.5 7.625 56.4375 3.203125  Q 48.390625 -1.21875 39.0625 -1.21875  Q 28.953125 -1.21875 20.984375 3.65625  Q 13.03125 8.546875 8.921875 16.984375  Q 4.828125 25.4375 4.828125 34.859375  z M 14.59375 34.71875  Q 14.59375 21.78125 21.546875 14.328125  Q 28.515625 6.890625 39.015625 6.890625  Q 49.703125 6.890625 56.609375 14.40625  Q 63.53125 21.921875 63.53125 35.75  Q 63.53125 44.484375 60.578125 51  Q 57.625 57.515625 51.921875 61.109375  Q 46.234375 64.703125 39.15625 64.703125  Q 29.109375 64.703125 21.84375 57.78125  Q 14.59375 50.875 14.59375 34.71875  z " id="b3eacce3"/>
    </defs>
    <g transform="translate(445.760125 44.705156)scale(0.1 -0.1)">
     <use xlink:href="#b3eacce3"/>
    </g>
   </g>
   <g id="text_18">
    <!-- tdTomato -->
    <g transform="translate(392.850913 70.990698)scale(0.12 -0.12)">
     <use xlink:href="#8037c7fa"/>
     <use x="27.783203" xlink:href="#0fa9a87b"/>
     <use x="83.398438" xlink:href="#ca02945f"/>
     <use x="133.357422" xlink:href="#a43ab964"/>
     <use x="188.972656" xlink:href="#51d782fe"/>
     <use x="272.273438" xlink:href="#00ec75b3"/>
     <use x="327.888672" xlink:href="#8037c7fa"/>
     <use x="355.671875" xlink:href="#a43ab964"/>
    </g>
    <!-- cells -->
    <defs>
     <path d="M 40.4375 19  L 49.078125 17.875  Q 47.65625 8.9375 41.8125 3.875  Q 35.984375 -1.171875 27.484375 -1.171875  Q 16.84375 -1.171875 10.375 5.78125  Q 3.90625 12.75 3.90625 25.734375  Q 3.90625 34.125 6.6875 40.421875  Q 9.46875 46.734375 15.15625 49.875  Q 20.84375 53.03125 27.546875 53.03125  Q 35.984375 53.03125 41.359375 48.75  Q 46.734375 44.484375 48.25 36.625  L 39.703125 35.296875  Q 38.484375 40.53125 35.375 43.15625  Q 32.28125 45.796875 27.875 45.796875  Q 21.234375 45.796875 17.078125 41.03125  Q 12.9375 36.28125 12.9375 25.984375  Q 12.9375 15.53125 16.9375 10.796875  Q 20.953125 6.0625 27.390625 6.0625  Q 32.5625 6.0625 36.03125 9.234375  Q 39.5 12.40625 40.4375 19  z " id="cb463d37"/>
     <path d="M 42.09375 16.703125  L 51.171875 15.578125  Q 49.03125 7.625 43.21875 3.21875  Q 37.40625 -1.171875 28.375 -1.171875  Q 17 -1.171875 10.328125 5.828125  Q 3.65625 12.84375 3.65625 25.484375  Q 3.65625 38.578125 10.390625 45.796875  Q 17.140625 53.03125 27.875 53.03125  Q 38.28125 53.03125 44.875 45.953125  Q 51.46875 38.875 51.46875 26.03125  Q 51.46875 25.25 51.421875 23.6875  L 12.75 23.6875  Q 13.234375 15.140625 17.578125 10.59375  Q 21.921875 6.0625 28.421875 6.0625  Q 33.25 6.0625 36.671875 8.59375  Q 40.09375 11.140625 42.09375 16.703125  z M 13.234375 30.90625  L 42.1875 30.90625  Q 41.609375 37.453125 38.875 40.71875  Q 34.671875 45.796875 27.984375 45.796875  Q 21.921875 45.796875 17.796875 41.75  Q 13.671875 37.703125 13.234375 30.90625  z " id="d0970da1"/>
     <path d="M 6.390625 0  L 6.390625 71.578125  L 15.1875 71.578125  L 15.1875 0  z " id="b4b3b2ff"/>
     <path d="M 3.078125 15.484375  L 11.765625 16.84375  Q 12.5 11.625 15.84375 8.84375  Q 19.1875 6.0625 25.203125 6.0625  Q 31.25 6.0625 34.171875 8.515625  Q 37.109375 10.984375 37.109375 14.3125  Q 37.109375 17.28125 34.515625 19  Q 32.71875 20.171875 25.53125 21.96875  Q 15.875 24.421875 12.140625 26.203125  Q 8.40625 27.984375 6.46875 31.125  Q 4.546875 34.28125 4.546875 38.09375  Q 4.546875 41.546875 6.125 44.5  Q 7.71875 47.46875 10.453125 49.421875  Q 12.5 50.921875 16.03125 51.96875  Q 19.578125 53.03125 23.640625 53.03125  Q 29.734375 53.03125 34.34375 51.265625  Q 38.96875 49.515625 41.15625 46.5  Q 43.359375 43.5 44.1875 38.484375  L 35.59375 37.3125  Q 35.015625 41.3125 32.203125 43.546875  Q 29.390625 45.796875 24.265625 45.796875  Q 18.21875 45.796875 15.625 43.796875  Q 13.03125 41.796875 13.03125 39.109375  Q 13.03125 37.40625 14.109375 36.03125  Q 15.1875 34.625 17.484375 33.6875  Q 18.796875 33.203125 25.25 31.453125  Q 34.578125 28.953125 38.25 27.359375  Q 41.9375 25.78125 44.03125 22.75  Q 46.140625 19.734375 46.140625 15.234375  Q 46.140625 10.84375 43.578125 6.953125  Q 41.015625 3.078125 36.171875 0.953125  Q 31.34375 -1.171875 25.25 -1.171875  Q 15.140625 -1.171875 9.84375 3.03125  Q 4.546875 7.234375 3.078125 15.484375  z " id="f2617396"/>
    </defs>
    <g transform="translate(418.195288 83.682948)scale(0.12 -0.12)">
     <use xlink:href="#cb463d37"/>
     <use x="50" xlink:href="#d0970da1"/>
     <use x="105.615234" xlink:href="#b4b3b2ff"/>
     <use x="127.832031" xlink:href="#b4b3b2ff"/>
     <use x="150.048828" xlink:href="#f2617396"/>
    </g>
   </g>
   <g id="text_19">
    <!-- GCaMP -->
    <g transform="translate(457.097462 70.990698)scale(0.12 -0.12)">
     <use xlink:href="#1b89b8fd"/>
     <use x="77.783203" xlink:href="#f1039096"/>
     <use x="150" xlink:href="#00ec75b3"/>
     <use x="205.615234" xlink:href="#ade863fd"/>
     <use x="288.916016" xlink:href="#92b9ce84"/>
    </g>
    <!-- cells -->
    <g transform="translate(457.097462 83.682948)scale(0.12 -0.12)">
     <use xlink:href="#cb463d37"/>
     <use x="50" xlink:href="#d0970da1"/>
     <use x="105.615234" xlink:href="#b4b3b2ff"/>
     <use x="127.832031" xlink:href="#b4b3b2ff"/>
     <use x="150.048828" xlink:href="#f2617396"/>
    </g>
   </g>
  </g>
 </g>
 <defs>
  <clipPath id="paa4726cd0b">
   <rect height="149.6" width="342.9" x="41.454688" y="7.2"/>
  </clipPath>
  <clipPath id="pf3d189723e">
   <rect height="44.88" width="59.776549" x="419.760913" y="19.68"/>
  </clipPath>
 </defs>
</svg>
