<?xml version="1.0" encoding="utf-8" standalone="no"?>
<!DOCTYPE svg PUBLIC "-//W3C//DTD SVG 1.1//EN"
  "http://www.w3.org/Graphics/SVG/1.1/DTD/svg11.dtd">
<svg xmlns:xlink="http://www.w3.org/1999/xlink" width="432pt" height="288pt" viewBox="0 0 432 288" xmlns="http://www.w3.org/2000/svg" version="1.1">
 <metadata>
  <rdf:RDF xmlns:dc="http://purl.org/dc/elements/1.1/" xmlns:cc="http://creativecommons.org/ns#" xmlns:rdf="http://www.w3.org/1999/02/22-rdf-syntax-ns#">
   <cc:Work>
    <dc:type rdf:resource="http://purl.org/dc/dcmitype/StillImage"/>
    <dc:date>2022-11-30T16:36:38.467221</dc:date>
    <dc:format>image/svg+xml</dc:format>
    <dc:creator>
     <cc:Agent>
      <dc:title>Matplotlib v3.6.2, https://matplotlib.org/</dc:title>
     </cc:Agent>
    </dc:creator>
   </cc:Work>
  </rdf:RDF>
 </metadata>
 <defs>
  <style type="text/css">*{stroke-linejoin: round; stroke-linecap: butt}</style>
 </defs>
 <g id="figure_1">
  <g id="patch_1">
   <path d="M 0 288 
L 432 288 
L 432 0 
L 0 0 
L 0 288 
z
" style="fill: none"/>
  </g>
  <g id="axes_1">
   <g id="patch_2">
    <path d="M 44.8 248.2 
L 421.2 248.2 
L 421.2 47.5488 
L 44.8 47.5488 
z
" style="fill: #ffffff"/>
   </g>
   <g id="PolyCollection_1">
    <defs>
     <path id="m8390d68be3" d="M 70.7124 -106.951323 
L 70.7124 -100.245402 
L 118.337901 -93.919803 
L 165.963403 -82.807215 
L 213.588904 -80.365435 
L 261.214405 -75.525966 
L 308.839907 -78.529005 
L 356.465408 -69.135532 
L 404.090909 -69.256359 
L 404.090909 -89.000408 
L 404.090909 -89.000408 
L 356.465408 -84.498634 
L 308.839907 -89.085356 
L 261.214405 -87.203053 
L 213.588904 -91.99903 
L 165.963403 -90.900504 
L 118.337901 -102.257346 
L 70.7124 -106.951323 
z
" style="stroke: #00cc96; stroke-opacity: 0.2"/>
    </defs>
    <g clip-path="url(#p19cfe49e83)">
     <use xlink:href="#m8390d68be3" x="0" y="288" style="fill: #00cc96; fill-opacity: 0.2; stroke: #00cc96; stroke-opacity: 0.2"/>
    </g>
   </g>
   <g id="PolyCollection_2">
    <defs>
     <path id="m487dc823d8" d="M 70.7124 -176.721044 
L 70.7124 -167.266703 
L 118.337901 -165.264531 
L 165.963403 -156.803671 
L 213.588904 -150.544888 
L 261.214405 -153.698138 
L 308.839907 -155.749975 
L 356.465408 -154.984973 
L 404.090909 -156.665407 
L 404.090909 -171.814806 
L 404.090909 -171.814806 
L 356.465408 -170.545706 
L 308.839907 -167.908001 
L 261.214405 -168.323292 
L 213.588904 -164.194115 
L 165.963403 -168.512515 
L 118.337901 -174.866991 
L 70.7124 -176.721044 
z
" style="stroke: #ffa15a; stroke-opacity: 0.2"/>
    </defs>
    <g clip-path="url(#p19cfe49e83)">
     <use xlink:href="#m487dc823d8" x="0" y="288" style="fill: #ffa15a; fill-opacity: 0.2; stroke: #ffa15a; stroke-opacity: 0.2"/>
    </g>
   </g>
   <g id="matplotlib.axis_1">
    <g id="xtick_1">
     <g id="line2d_1">
      <defs>
       <path id="m0ac5a1bc7d" d="M 0 0 
L 0 3.5 
" style="stroke: #000000; stroke-width: 0.8"/>
      </defs>
      <g>
       <use xlink:href="#m0ac5a1bc7d" x="70.7124" y="248.2" style="stroke: #000000; stroke-width: 0.8"/>
      </g>
     </g>
     <g id="text_1">
      <!-- 2 -->
      <g transform="translate(67.931931 262.357812) scale(0.1 -0.1)">
       <defs>
        <path id="ArialMT-32" d="M 3222 541 
L 3222 0 
L 194 0 
Q 188 203 259 391 
Q 375 700 629 1000 
Q 884 1300 1366 1694 
Q 2113 2306 2375 2664 
Q 2638 3022 2638 3341 
Q 2638 3675 2398 3904 
Q 2159 4134 1775 4134 
Q 1369 4134 1125 3890 
Q 881 3647 878 3216 
L 300 3275 
Q 359 3922 746 4261 
Q 1134 4600 1788 4600 
Q 2447 4600 2831 4234 
Q 3216 3869 3216 3328 
Q 3216 3053 3103 2787 
Q 2991 2522 2730 2228 
Q 2469 1934 1863 1422 
Q 1356 997 1212 845 
Q 1069 694 975 541 
L 3222 541 
z
" transform="scale(0.015625)"/>
       </defs>
       <use xlink:href="#ArialMT-32"/>
      </g>
     </g>
    </g>
    <g id="xtick_2">
     <g id="line2d_2">
      <g>
       <use xlink:href="#m0ac5a1bc7d" x="118.337901" y="248.2" style="stroke: #000000; stroke-width: 0.8"/>
      </g>
     </g>
     <g id="text_2">
      <!-- 4 -->
      <g transform="translate(115.557433 262.357812) scale(0.1 -0.1)">
       <defs>
        <path id="ArialMT-34" d="M 2069 0 
L 2069 1097 
L 81 1097 
L 81 1613 
L 2172 4581 
L 2631 4581 
L 2631 1613 
L 3250 1613 
L 3250 1097 
L 2631 1097 
L 2631 0 
L 2069 0 
z
M 2069 1613 
L 2069 3678 
L 634 1613 
L 2069 1613 
z
" transform="scale(0.015625)"/>
       </defs>
       <use xlink:href="#ArialMT-34"/>
      </g>
     </g>
    </g>
    <g id="xtick_3">
     <g id="line2d_3">
      <g>
       <use xlink:href="#m0ac5a1bc7d" x="165.963403" y="248.2" style="stroke: #000000; stroke-width: 0.8"/>
      </g>
     </g>
     <g id="text_3">
      <!-- 6 -->
      <g transform="translate(163.182934 262.357812) scale(0.1 -0.1)">
       <defs>
        <path id="ArialMT-36" d="M 3184 3459 
L 2625 3416 
Q 2550 3747 2413 3897 
Q 2184 4138 1850 4138 
Q 1581 4138 1378 3988 
Q 1113 3794 959 3422 
Q 806 3050 800 2363 
Q 1003 2672 1297 2822 
Q 1591 2972 1913 2972 
Q 2475 2972 2870 2558 
Q 3266 2144 3266 1488 
Q 3266 1056 3080 686 
Q 2894 316 2569 119 
Q 2244 -78 1831 -78 
Q 1128 -78 684 439 
Q 241 956 241 2144 
Q 241 3472 731 4075 
Q 1159 4600 1884 4600 
Q 2425 4600 2770 4297 
Q 3116 3994 3184 3459 
z
M 888 1484 
Q 888 1194 1011 928 
Q 1134 663 1356 523 
Q 1578 384 1822 384 
Q 2178 384 2434 671 
Q 2691 959 2691 1453 
Q 2691 1928 2437 2201 
Q 2184 2475 1800 2475 
Q 1419 2475 1153 2201 
Q 888 1928 888 1484 
z
" transform="scale(0.015625)"/>
       </defs>
       <use xlink:href="#ArialMT-36"/>
      </g>
     </g>
    </g>
    <g id="xtick_4">
     <g id="line2d_4">
      <g>
       <use xlink:href="#m0ac5a1bc7d" x="213.588904" y="248.2" style="stroke: #000000; stroke-width: 0.8"/>
      </g>
     </g>
     <g id="text_4">
      <!-- 8 -->
      <g transform="translate(210.808435 262.357812) scale(0.1 -0.1)">
       <defs>
        <path id="ArialMT-38" d="M 1131 2484 
Q 781 2613 612 2850 
Q 444 3088 444 3419 
Q 444 3919 803 4259 
Q 1163 4600 1759 4600 
Q 2359 4600 2725 4251 
Q 3091 3903 3091 3403 
Q 3091 3084 2923 2848 
Q 2756 2613 2416 2484 
Q 2838 2347 3058 2040 
Q 3278 1734 3278 1309 
Q 3278 722 2862 322 
Q 2447 -78 1769 -78 
Q 1091 -78 675 323 
Q 259 725 259 1325 
Q 259 1772 486 2073 
Q 713 2375 1131 2484 
z
M 1019 3438 
Q 1019 3113 1228 2906 
Q 1438 2700 1772 2700 
Q 2097 2700 2305 2904 
Q 2513 3109 2513 3406 
Q 2513 3716 2298 3927 
Q 2084 4138 1766 4138 
Q 1444 4138 1231 3931 
Q 1019 3725 1019 3438 
z
M 838 1322 
Q 838 1081 952 856 
Q 1066 631 1291 507 
Q 1516 384 1775 384 
Q 2178 384 2440 643 
Q 2703 903 2703 1303 
Q 2703 1709 2433 1975 
Q 2163 2241 1756 2241 
Q 1359 2241 1098 1978 
Q 838 1716 838 1322 
z
" transform="scale(0.015625)"/>
       </defs>
       <use xlink:href="#ArialMT-38"/>
      </g>
     </g>
    </g>
    <g id="xtick_5">
     <g id="line2d_5">
      <g>
       <use xlink:href="#m0ac5a1bc7d" x="261.214405" y="248.2" style="stroke: #000000; stroke-width: 0.8"/>
      </g>
     </g>
     <g id="text_5">
      <!-- 10 -->
      <g transform="translate(255.653468 262.357812) scale(0.1 -0.1)">
       <defs>
        <path id="ArialMT-31" d="M 2384 0 
L 1822 0 
L 1822 3584 
Q 1619 3391 1289 3197 
Q 959 3003 697 2906 
L 697 3450 
Q 1169 3672 1522 3987 
Q 1875 4303 2022 4600 
L 2384 4600 
L 2384 0 
z
" transform="scale(0.015625)"/>
        <path id="ArialMT-30" d="M 266 2259 
Q 266 3072 433 3567 
Q 600 4063 929 4331 
Q 1259 4600 1759 4600 
Q 2128 4600 2406 4451 
Q 2684 4303 2865 4023 
Q 3047 3744 3150 3342 
Q 3253 2941 3253 2259 
Q 3253 1453 3087 958 
Q 2922 463 2592 192 
Q 2263 -78 1759 -78 
Q 1097 -78 719 397 
Q 266 969 266 2259 
z
M 844 2259 
Q 844 1131 1108 757 
Q 1372 384 1759 384 
Q 2147 384 2411 759 
Q 2675 1134 2675 2259 
Q 2675 3391 2411 3762 
Q 2147 4134 1753 4134 
Q 1366 4134 1134 3806 
Q 844 3388 844 2259 
z
" transform="scale(0.015625)"/>
       </defs>
       <use xlink:href="#ArialMT-31"/>
       <use xlink:href="#ArialMT-30" x="55.615234"/>
      </g>
     </g>
    </g>
    <g id="xtick_6">
     <g id="line2d_6">
      <g>
       <use xlink:href="#m0ac5a1bc7d" x="308.839907" y="248.2" style="stroke: #000000; stroke-width: 0.8"/>
      </g>
     </g>
     <g id="text_6">
      <!-- 12 -->
      <g transform="translate(303.278969 262.357812) scale(0.1 -0.1)">
       <use xlink:href="#ArialMT-31"/>
       <use xlink:href="#ArialMT-32" x="55.615234"/>
      </g>
     </g>
    </g>
    <g id="xtick_7">
     <g id="line2d_7">
      <g>
       <use xlink:href="#m0ac5a1bc7d" x="356.465408" y="248.2" style="stroke: #000000; stroke-width: 0.8"/>
      </g>
     </g>
     <g id="text_7">
      <!-- 14 -->
      <g transform="translate(350.90447 262.357812) scale(0.1 -0.1)">
       <use xlink:href="#ArialMT-31"/>
       <use xlink:href="#ArialMT-34" x="55.615234"/>
      </g>
     </g>
    </g>
    <g id="xtick_8">
     <g id="line2d_8">
      <g>
       <use xlink:href="#m0ac5a1bc7d" x="404.090909" y="248.2" style="stroke: #000000; stroke-width: 0.8"/>
      </g>
     </g>
     <g id="text_8">
      <!-- 16 -->
      <g transform="translate(398.529972 262.357812) scale(0.1 -0.1)">
       <use xlink:href="#ArialMT-31"/>
       <use xlink:href="#ArialMT-36" x="55.615234"/>
      </g>
     </g>
    </g>
    <g id="text_9">
     <!-- Days apart -->
     <g transform="translate(208.824219 275.503125) scale(0.1 -0.1)">
      <defs>
       <path id="Arial-ItalicMT-44" d="M 284 0 
L 1241 4581 
L 2622 4581 
Q 3119 4581 3381 4509 
Q 3756 4413 4022 4164 
Q 4288 3916 4422 3544 
Q 4556 3172 4556 2709 
Q 4556 2156 4389 1701 
Q 4222 1247 3951 901 
Q 3681 556 3386 361 
Q 3091 166 2688 72 
Q 2381 0 1934 0 
L 284 0 
z
M 1006 519 
L 1731 519 
Q 2222 519 2603 609 
Q 2841 666 3009 775 
Q 3231 916 3413 1147 
Q 3650 1453 3792 1845 
Q 3934 2238 3934 2738 
Q 3934 3294 3740 3592 
Q 3547 3891 3247 3988 
Q 3025 4059 2556 4059 
L 1747 4059 
L 1006 519 
z
" transform="scale(0.015625)"/>
       <path id="Arial-ItalicMT-61" d="M 2450 413 
Q 2156 159 1884 42 
Q 1613 -75 1303 -75 
Q 844 -75 562 195 
Q 281 466 281 888 
Q 281 1166 407 1380 
Q 534 1594 743 1723 
Q 953 1853 1256 1909 
Q 1447 1947 1980 1969 
Q 2513 1991 2744 2081 
Q 2809 2313 2809 2466 
Q 2809 2663 2666 2775 
Q 2469 2931 2091 2931 
Q 1734 2931 1507 2773 
Q 1281 2616 1178 2325 
L 606 2375 
Q 781 2869 1161 3131 
Q 1541 3394 2119 3394 
Q 2734 3394 3094 3100 
Q 3369 2881 3369 2531 
Q 3369 2266 3291 1916 
L 3106 1091 
Q 3019 697 3019 450 
Q 3019 294 3088 0 
L 2516 0 
Q 2469 163 2450 413 
z
M 2659 1681 
Q 2541 1634 2405 1609 
Q 2269 1584 1950 1556 
Q 1456 1513 1253 1445 
Q 1050 1378 947 1231 
Q 844 1084 844 906 
Q 844 669 1008 516 
Q 1172 363 1475 363 
Q 1756 363 2015 511 
Q 2275 659 2425 925 
Q 2575 1191 2659 1681 
z
" transform="scale(0.015625)"/>
       <path id="Arial-ItalicMT-79" d="M 0 -1281 
L 34 -750 
Q 209 -800 375 -800 
Q 547 -800 653 -722 
Q 791 -619 953 -334 
L 1134 -9 
L 581 3319 
L 1138 3319 
L 1388 1641 
Q 1463 1144 1516 647 
L 3000 3319 
L 3591 3319 
L 1475 -441 
Q 1169 -991 931 -1169 
Q 694 -1347 384 -1347 
Q 188 -1347 0 -1281 
z
" transform="scale(0.015625)"/>
       <path id="Arial-ItalicMT-73" d="M 266 1134 
L 831 1169 
Q 831 925 906 753 
Q 981 581 1182 472 
Q 1384 363 1653 363 
Q 2028 363 2215 513 
Q 2403 663 2403 866 
Q 2403 1013 2291 1144 
Q 2175 1275 1726 1467 
Q 1278 1659 1153 1738 
Q 944 1866 837 2039 
Q 731 2213 731 2438 
Q 731 2831 1043 3112 
Q 1356 3394 1919 3394 
Q 2544 3394 2870 3105 
Q 3197 2816 3209 2344 
L 2656 2306 
Q 2644 2606 2444 2781 
Q 2244 2956 1878 2956 
Q 1584 2956 1421 2822 
Q 1259 2688 1259 2531 
Q 1259 2375 1400 2256 
Q 1494 2175 1884 2006 
Q 2534 1725 2703 1563 
Q 2972 1303 2972 931 
Q 2972 684 2820 446 
Q 2669 209 2358 67 
Q 2047 -75 1625 -75 
Q 1050 -75 647 209 
Q 244 494 266 1134 
z
" transform="scale(0.015625)"/>
       <path id="Arial-ItalicMT-20" transform="scale(0.015625)"/>
       <path id="Arial-ItalicMT-70" d="M -66 -1272 
L 894 3319 
L 1416 3319 
L 1319 2856 
Q 1609 3159 1839 3276 
Q 2069 3394 2325 3394 
Q 2800 3394 3112 3048 
Q 3425 2703 3425 2059 
Q 3425 1541 3253 1114 
Q 3081 688 2831 428 
Q 2581 169 2325 47 
Q 2069 -75 1800 -75 
Q 1203 -75 875 531 
L 500 -1272 
L -66 -1272 
z
M 1053 1356 
Q 1053 984 1106 841 
Q 1184 638 1362 513 
Q 1541 388 1775 388 
Q 2263 388 2563 936 
Q 2863 1484 2863 2056 
Q 2863 2478 2661 2708 
Q 2459 2938 2159 2938 
Q 1944 2938 1759 2823 
Q 1575 2709 1417 2482 
Q 1259 2256 1156 1928 
Q 1053 1600 1053 1356 
z
" transform="scale(0.015625)"/>
       <path id="Arial-ItalicMT-72" d="M 213 0 
L 906 3319 
L 1406 3319 
L 1266 2641 
Q 1522 3025 1767 3209 
Q 2013 3394 2269 3394 
Q 2438 3394 2684 3272 
L 2453 2747 
Q 2306 2853 2131 2853 
Q 1834 2853 1521 2522 
Q 1209 2191 1031 1331 
L 750 0 
L 213 0 
z
" transform="scale(0.015625)"/>
       <path id="Arial-ItalicMT-74" d="M 1534 459 
L 1441 -3 
Q 1238 -56 1047 -56 
Q 709 -56 509 109 
Q 359 234 359 450 
Q 359 559 441 953 
L 844 2881 
L 397 2881 
L 488 3319 
L 934 3319 
L 1106 4134 
L 1753 4525 
L 1500 3319 
L 2056 3319 
L 1963 2881 
L 1409 2881 
L 1025 1047 
Q 953 697 953 628 
Q 953 528 1011 475 
Q 1069 422 1200 422 
Q 1388 422 1534 459 
z
" transform="scale(0.015625)"/>
      </defs>
      <use xlink:href="#Arial-ItalicMT-44"/>
      <use xlink:href="#Arial-ItalicMT-61" x="72.216797"/>
      <use xlink:href="#Arial-ItalicMT-79" x="127.832031"/>
      <use xlink:href="#Arial-ItalicMT-73" x="177.832031"/>
      <use xlink:href="#Arial-ItalicMT-20" x="227.832031"/>
      <use xlink:href="#Arial-ItalicMT-61" x="255.615234"/>
      <use xlink:href="#Arial-ItalicMT-70" x="311.230469"/>
      <use xlink:href="#Arial-ItalicMT-61" x="366.845703"/>
      <use xlink:href="#Arial-ItalicMT-72" x="422.460938"/>
      <use xlink:href="#Arial-ItalicMT-74" x="455.761719"/>
     </g>
    </g>
   </g>
   <g id="matplotlib.axis_2">
    <g id="ytick_1">
     <g id="line2d_9">
      <defs>
       <path id="md7e8a7130a" d="M 0 0 
L -3.5 0 
" style="stroke: #000000; stroke-width: 0.8"/>
      </defs>
      <g>
       <use xlink:href="#md7e8a7130a" x="44.8" y="228.629446" style="stroke: #000000; stroke-width: 0.8"/>
      </g>
     </g>
     <g id="text_10">
      <!-- 0.3 -->
      <g transform="translate(23.9 232.208353) scale(0.1 -0.1)">
       <defs>
        <path id="ArialMT-2e" d="M 581 0 
L 581 641 
L 1222 641 
L 1222 0 
L 581 0 
z
" transform="scale(0.015625)"/>
        <path id="ArialMT-33" d="M 269 1209 
L 831 1284 
Q 928 806 1161 595 
Q 1394 384 1728 384 
Q 2125 384 2398 659 
Q 2672 934 2672 1341 
Q 2672 1728 2419 1979 
Q 2166 2231 1775 2231 
Q 1616 2231 1378 2169 
L 1441 2663 
Q 1497 2656 1531 2656 
Q 1891 2656 2178 2843 
Q 2466 3031 2466 3422 
Q 2466 3731 2256 3934 
Q 2047 4138 1716 4138 
Q 1388 4138 1169 3931 
Q 950 3725 888 3313 
L 325 3413 
Q 428 3978 793 4289 
Q 1159 4600 1703 4600 
Q 2078 4600 2393 4439 
Q 2709 4278 2876 4000 
Q 3044 3722 3044 3409 
Q 3044 3113 2884 2869 
Q 2725 2625 2413 2481 
Q 2819 2388 3044 2092 
Q 3269 1797 3269 1353 
Q 3269 753 2831 336 
Q 2394 -81 1725 -81 
Q 1122 -81 723 278 
Q 325 638 269 1209 
z
" transform="scale(0.015625)"/>
       </defs>
       <use xlink:href="#ArialMT-30"/>
       <use xlink:href="#ArialMT-2e" x="55.615234"/>
       <use xlink:href="#ArialMT-33" x="83.398438"/>
      </g>
     </g>
    </g>
    <g id="ytick_2">
     <g id="line2d_10">
      <g>
       <use xlink:href="#md7e8a7130a" x="44.8" y="199.969424" style="stroke: #000000; stroke-width: 0.8"/>
      </g>
     </g>
     <g id="text_11">
      <!-- 0.4 -->
      <g transform="translate(23.9 203.54833) scale(0.1 -0.1)">
       <use xlink:href="#ArialMT-30"/>
       <use xlink:href="#ArialMT-2e" x="55.615234"/>
       <use xlink:href="#ArialMT-34" x="83.398438"/>
      </g>
     </g>
    </g>
    <g id="ytick_3">
     <g id="line2d_11">
      <g>
       <use xlink:href="#md7e8a7130a" x="44.8" y="171.309401" style="stroke: #000000; stroke-width: 0.8"/>
      </g>
     </g>
     <g id="text_12">
      <!-- 0.5 -->
      <g transform="translate(23.9 174.888307) scale(0.1 -0.1)">
       <defs>
        <path id="ArialMT-35" d="M 266 1200 
L 856 1250 
Q 922 819 1161 601 
Q 1400 384 1738 384 
Q 2144 384 2425 690 
Q 2706 997 2706 1503 
Q 2706 1984 2436 2262 
Q 2166 2541 1728 2541 
Q 1456 2541 1237 2417 
Q 1019 2294 894 2097 
L 366 2166 
L 809 4519 
L 3088 4519 
L 3088 3981 
L 1259 3981 
L 1013 2750 
Q 1425 3038 1878 3038 
Q 2478 3038 2890 2622 
Q 3303 2206 3303 1553 
Q 3303 931 2941 478 
Q 2500 -78 1738 -78 
Q 1113 -78 717 272 
Q 322 622 266 1200 
z
" transform="scale(0.015625)"/>
       </defs>
       <use xlink:href="#ArialMT-30"/>
       <use xlink:href="#ArialMT-2e" x="55.615234"/>
       <use xlink:href="#ArialMT-35" x="83.398438"/>
      </g>
     </g>
    </g>
    <g id="ytick_4">
     <g id="line2d_12">
      <g>
       <use xlink:href="#md7e8a7130a" x="44.8" y="142.649378" style="stroke: #000000; stroke-width: 0.8"/>
      </g>
     </g>
     <g id="text_13">
      <!-- 0.6 -->
      <g transform="translate(23.9 146.228284) scale(0.1 -0.1)">
       <use xlink:href="#ArialMT-30"/>
       <use xlink:href="#ArialMT-2e" x="55.615234"/>
       <use xlink:href="#ArialMT-36" x="83.398438"/>
      </g>
     </g>
    </g>
    <g id="ytick_5">
     <g id="line2d_13">
      <g>
       <use xlink:href="#md7e8a7130a" x="44.8" y="113.989355" style="stroke: #000000; stroke-width: 0.8"/>
      </g>
     </g>
     <g id="text_14">
      <!-- 0.7 -->
      <g transform="translate(23.9 117.568261) scale(0.1 -0.1)">
       <defs>
        <path id="ArialMT-37" d="M 303 3981 
L 303 4522 
L 3269 4522 
L 3269 4084 
Q 2831 3619 2401 2847 
Q 1972 2075 1738 1259 
Q 1569 684 1522 0 
L 944 0 
Q 953 541 1156 1306 
Q 1359 2072 1739 2783 
Q 2119 3494 2547 3981 
L 303 3981 
z
" transform="scale(0.015625)"/>
       </defs>
       <use xlink:href="#ArialMT-30"/>
       <use xlink:href="#ArialMT-2e" x="55.615234"/>
       <use xlink:href="#ArialMT-37" x="83.398438"/>
      </g>
     </g>
    </g>
    <g id="ytick_6">
     <g id="line2d_14">
      <g>
       <use xlink:href="#md7e8a7130a" x="44.8" y="85.329332" style="stroke: #000000; stroke-width: 0.8"/>
      </g>
     </g>
     <g id="text_15">
      <!-- 0.8 -->
      <g transform="translate(23.9 88.908238) scale(0.1 -0.1)">
       <use xlink:href="#ArialMT-30"/>
       <use xlink:href="#ArialMT-2e" x="55.615234"/>
       <use xlink:href="#ArialMT-38" x="83.398438"/>
      </g>
     </g>
    </g>
    <g id="ytick_7">
     <g id="line2d_15">
      <g>
       <use xlink:href="#md7e8a7130a" x="44.8" y="56.669309" style="stroke: #000000; stroke-width: 0.8"/>
      </g>
     </g>
     <g id="text_16">
      <!-- 0.9 -->
      <g transform="translate(23.9 60.248215) scale(0.1 -0.1)">
       <defs>
        <path id="ArialMT-39" d="M 350 1059 
L 891 1109 
Q 959 728 1153 556 
Q 1347 384 1650 384 
Q 1909 384 2104 503 
Q 2300 622 2425 820 
Q 2550 1019 2634 1356 
Q 2719 1694 2719 2044 
Q 2719 2081 2716 2156 
Q 2547 1888 2255 1720 
Q 1963 1553 1622 1553 
Q 1053 1553 659 1965 
Q 266 2378 266 3053 
Q 266 3750 677 4175 
Q 1088 4600 1706 4600 
Q 2153 4600 2523 4359 
Q 2894 4119 3086 3673 
Q 3278 3228 3278 2384 
Q 3278 1506 3087 986 
Q 2897 466 2520 194 
Q 2144 -78 1638 -78 
Q 1100 -78 759 220 
Q 419 519 350 1059 
z
M 2653 3081 
Q 2653 3566 2395 3850 
Q 2138 4134 1775 4134 
Q 1400 4134 1122 3828 
Q 844 3522 844 3034 
Q 844 2597 1108 2323 
Q 1372 2050 1759 2050 
Q 2150 2050 2401 2323 
Q 2653 2597 2653 3081 
z
" transform="scale(0.015625)"/>
       </defs>
       <use xlink:href="#ArialMT-30"/>
       <use xlink:href="#ArialMT-2e" x="55.615234"/>
       <use xlink:href="#ArialMT-39" x="83.398438"/>
      </g>
     </g>
    </g>
    <g id="text_17">
     <!-- Reactivation -->
     <g transform="translate(17.9125 175.387681) rotate(-90) scale(0.1 -0.1)">
      <defs>
       <path id="Arial-ItalicMT-52" d="M 300 0 
L 1259 4581 
L 3181 4581 
Q 3750 4581 4044 4486 
Q 4338 4391 4505 4128 
Q 4672 3866 4672 3466 
Q 4672 2906 4306 2537 
Q 3941 2169 3125 2059 
Q 3375 1875 3503 1697 
Q 3791 1294 3966 863 
L 4316 0 
L 3631 0 
L 3303 853 
Q 3125 1316 2897 1653 
Q 2741 1888 2578 1961 
Q 2416 2034 2050 2034 
L 1338 2034 
L 913 0 
L 300 0 
z
M 1441 2531 
L 2288 2531 
Q 2875 2531 3053 2547 
Q 3400 2581 3622 2703 
Q 3844 2825 3966 3031 
Q 4088 3238 4088 3475 
Q 4088 3675 3997 3823 
Q 3906 3972 3759 4025 
Q 3613 4078 3259 4078 
L 1766 4078 
L 1441 2531 
z
" transform="scale(0.015625)"/>
       <path id="Arial-ItalicMT-65" d="M 2650 1128 
L 3200 1072 
Q 3081 663 2654 294 
Q 2228 -75 1638 -75 
Q 1269 -75 961 95 
Q 653 266 492 591 
Q 331 916 331 1331 
Q 331 1875 582 2386 
Q 834 2897 1234 3145 
Q 1634 3394 2100 3394 
Q 2694 3394 3048 3025 
Q 3403 2656 3403 2019 
Q 3403 1775 3359 1519 
L 916 1519 
Q 903 1422 903 1344 
Q 903 878 1117 633 
Q 1331 388 1641 388 
Q 1931 388 2212 578 
Q 2494 769 2650 1128 
z
M 1006 1950 
L 2869 1950 
Q 2872 2038 2872 2075 
Q 2872 2500 2659 2726 
Q 2447 2953 2113 2953 
Q 1750 2953 1451 2703 
Q 1153 2453 1006 1950 
z
" transform="scale(0.015625)"/>
       <path id="Arial-ItalicMT-63" d="M 2503 1209 
L 3069 1150 
Q 2856 528 2464 226 
Q 2072 -75 1572 -75 
Q 1031 -75 695 275 
Q 359 625 359 1253 
Q 359 1797 575 2322 
Q 791 2847 1192 3120 
Q 1594 3394 2109 3394 
Q 2644 3394 2956 3092 
Q 3269 2791 3269 2294 
L 2713 2256 
Q 2709 2572 2529 2750 
Q 2350 2928 2056 2928 
Q 1716 2928 1466 2712 
Q 1216 2497 1073 2058 
Q 931 1619 931 1213 
Q 931 788 1118 575 
Q 1306 363 1581 363 
Q 1856 363 2107 572 
Q 2359 781 2503 1209 
z
" transform="scale(0.015625)"/>
       <path id="Arial-ItalicMT-69" d="M 1016 3941 
L 1150 4581 
L 1713 4581 
L 1578 3941 
L 1016 3941 
z
M 191 0 
L 884 3319 
L 1450 3319 
L 756 0 
L 191 0 
z
" transform="scale(0.015625)"/>
       <path id="Arial-ItalicMT-76" d="M 1050 0 
L 506 3319 
L 1056 3319 
L 1341 1491 
Q 1388 1191 1456 513 
Q 1619 866 1872 1322 
L 2981 3319 
L 3578 3319 
L 1678 0 
L 1050 0 
z
" transform="scale(0.015625)"/>
       <path id="Arial-ItalicMT-6f" d="M 313 1259 
Q 313 2231 884 2869 
Q 1356 3394 2122 3394 
Q 2722 3394 3089 3019 
Q 3456 2644 3456 2006 
Q 3456 1434 3225 942 
Q 2994 450 2567 187 
Q 2141 -75 1669 -75 
Q 1281 -75 964 90 
Q 647 256 480 559 
Q 313 863 313 1259 
z
M 878 1316 
Q 878 847 1103 605 
Q 1328 363 1675 363 
Q 1856 363 2034 436 
Q 2213 509 2366 659 
Q 2519 809 2626 1001 
Q 2734 1194 2800 1416 
Q 2897 1725 2897 2009 
Q 2897 2459 2670 2707 
Q 2444 2956 2100 2956 
Q 1834 2956 1615 2829 
Q 1397 2703 1220 2459 
Q 1044 2216 961 1892 
Q 878 1569 878 1316 
z
" transform="scale(0.015625)"/>
       <path id="Arial-ItalicMT-6e" d="M 213 0 
L 906 3319 
L 1419 3319 
L 1297 2741 
Q 1631 3081 1922 3237 
Q 2213 3394 2516 3394 
Q 2919 3394 3148 3175 
Q 3378 2956 3378 2591 
Q 3378 2406 3297 2009 
L 2875 0 
L 2309 0 
L 2750 2103 
Q 2816 2409 2816 2556 
Q 2816 2722 2702 2825 
Q 2588 2928 2372 2928 
Q 1938 2928 1598 2615 
Q 1259 2303 1100 1544 
L 778 0 
L 213 0 
z
" transform="scale(0.015625)"/>
      </defs>
      <use xlink:href="#Arial-ItalicMT-52"/>
      <use xlink:href="#Arial-ItalicMT-65" x="72.216797"/>
      <use xlink:href="#Arial-ItalicMT-61" x="127.832031"/>
      <use xlink:href="#Arial-ItalicMT-63" x="183.447266"/>
      <use xlink:href="#Arial-ItalicMT-74" x="233.447266"/>
      <use xlink:href="#Arial-ItalicMT-69" x="261.230469"/>
      <use xlink:href="#Arial-ItalicMT-76" x="283.447266"/>
      <use xlink:href="#Arial-ItalicMT-61" x="333.447266"/>
      <use xlink:href="#Arial-ItalicMT-74" x="389.0625"/>
      <use xlink:href="#Arial-ItalicMT-69" x="416.845703"/>
      <use xlink:href="#Arial-ItalicMT-6f" x="439.0625"/>
      <use xlink:href="#Arial-ItalicMT-6e" x="494.677734"/>
     </g>
    </g>
   </g>
   <g id="line2d_16"/>
   <g id="line2d_17"/>
   <g id="patch_3">
    <path d="M 44.8 248.2 
L 44.8 47.5488 
" style="fill: none; stroke: #000000; stroke-width: 0.8; stroke-linejoin: miter; stroke-linecap: square"/>
   </g>
   <g id="patch_4">
    <path d="M 421.2 248.2 
L 421.2 47.5488 
" style="fill: none; stroke: #000000; stroke-width: 0.8; stroke-linejoin: miter; stroke-linecap: square"/>
   </g>
   <g id="patch_5">
    <path d="M 44.8 248.2 
L 421.2 248.2 
" style="fill: none; stroke: #000000; stroke-width: 0.8; stroke-linejoin: miter; stroke-linecap: square"/>
   </g>
   <g id="patch_6">
    <path d="M 44.8 47.5488 
L 421.2 47.5488 
" style="fill: none; stroke: #000000; stroke-width: 0.8; stroke-linejoin: miter; stroke-linecap: square"/>
   </g>
   <g id="PathCollection_1">
    <defs>
     <path id="C0_0_b245e413db" d="M 0 1.5 
C 0.397805 1.5 0.77937 1.341951 1.06066 1.06066 
C 1.341951 0.77937 1.5 0.397805 1.5 -0 
C 1.5 -0.397805 1.341951 -0.77937 1.06066 -1.06066 
C 0.77937 -1.341951 0.397805 -1.5 0 -1.5 
C -0.397805 -1.5 -0.77937 -1.341951 -1.06066 -1.06066 
C -1.341951 -0.77937 -1.5 -0.397805 -1.5 0 
C -1.5 0.397805 -1.341951 0.77937 -1.06066 1.06066 
C -0.77937 1.341951 -0.397805 1.5 0 1.5 
z
"/>
    </defs>
    <g clip-path="url(#p19cfe49e83)">
     <use xlink:href="#C0_0_b245e413db" x="70.7124" y="195.560189" style="fill: #00cc96; stroke: #3d3d3d"/>
    </g>
    <g clip-path="url(#p19cfe49e83)">
     <use xlink:href="#C0_0_b245e413db" x="80.013087" y="167.856386" style="fill: #00cc96; stroke: #3d3d3d"/>
    </g>
    <g clip-path="url(#p19cfe49e83)">
     <use xlink:href="#C0_0_b245e413db" x="72.726655" y="192.050207" style="fill: #00cc96; stroke: #3d3d3d"/>
    </g>
    <g clip-path="url(#p19cfe49e83)">
     <use xlink:href="#C0_0_b245e413db" x="67.857043" y="192.626773" style="fill: #00cc96; stroke: #3d3d3d"/>
    </g>
    <g clip-path="url(#p19cfe49e83)">
     <use xlink:href="#C0_0_b245e413db" x="69.810767" y="168.838709" style="fill: #00cc96; stroke: #3d3d3d"/>
    </g>
    <g clip-path="url(#p19cfe49e83)">
     <use xlink:href="#C0_0_b245e413db" x="74.628116" y="199.604328" style="fill: #00cc96; stroke: #3d3d3d"/>
    </g>
    <g clip-path="url(#p19cfe49e83)">
     <use xlink:href="#C0_0_b245e413db" x="65.219794" y="189.51365" style="fill: #00cc96; stroke: #3d3d3d"/>
    </g>
    <g clip-path="url(#p19cfe49e83)">
     <use xlink:href="#C0_0_b245e413db" x="77.292109" y="170.903451" style="fill: #00cc96; stroke: #3d3d3d"/>
    </g>
    <g clip-path="url(#p19cfe49e83)">
     <use xlink:href="#C0_0_b245e413db" x="67.328188" y="172.22214" style="fill: #00cc96; stroke: #3d3d3d"/>
    </g>
    <g clip-path="url(#p19cfe49e83)">
     <use xlink:href="#C0_0_b245e413db" x="66.519877" y="200.812365" style="fill: #00cc96; stroke: #3d3d3d"/>
    </g>
    <g clip-path="url(#p19cfe49e83)">
     <use xlink:href="#C0_0_b245e413db" x="72.242563" y="165.577396" style="fill: #00cc96; stroke: #3d3d3d"/>
    </g>
    <g clip-path="url(#p19cfe49e83)">
     <use xlink:href="#C0_0_b245e413db" x="66.918569" y="181.612023" style="fill: #00cc96; stroke: #3d3d3d"/>
    </g>
    <g clip-path="url(#p19cfe49e83)">
     <use xlink:href="#C0_0_b245e413db" x="70.063441" y="188.957198" style="fill: #00cc96; stroke: #3d3d3d"/>
    </g>
    <g clip-path="url(#p19cfe49e83)">
     <use xlink:href="#C0_0_b245e413db" x="63.394553" y="170.820322" style="fill: #00cc96; stroke: #3d3d3d"/>
    </g>
    <g clip-path="url(#p19cfe49e83)">
     <use xlink:href="#C0_0_b245e413db" x="70.7124" y="207.836881" style="fill: #00cc96; stroke: #3d3d3d"/>
    </g>
    <g clip-path="url(#p19cfe49e83)">
     <use xlink:href="#C0_0_b245e413db" x="62.619363" y="199.328976" style="fill: #00cc96; stroke: #3d3d3d"/>
    </g>
    <g clip-path="url(#p19cfe49e83)">
     <use xlink:href="#C0_0_b245e413db" x="69.715422" y="162.382508" style="fill: #00cc96; stroke: #3d3d3d"/>
    </g>
    <g clip-path="url(#p19cfe49e83)">
     <use xlink:href="#C0_0_b245e413db" x="76.917122" y="191.780846" style="fill: #00cc96; stroke: #3d3d3d"/>
    </g>
    <g clip-path="url(#p19cfe49e83)">
     <use xlink:href="#C0_0_b245e413db" x="70.7124" y="221.119601" style="fill: #00cc96; stroke: #3d3d3d"/>
    </g>
    <g clip-path="url(#p19cfe49e83)">
     <use xlink:href="#C0_0_b245e413db" x="73.113795" y="171.309401" style="fill: #00cc96; stroke: #3d3d3d"/>
    </g>
    <g clip-path="url(#p19cfe49e83)">
     <use xlink:href="#C0_0_b245e413db" x="70.7124" y="174.591083" style="fill: #00cc96; stroke: #3d3d3d"/>
    </g>
    <g clip-path="url(#p19cfe49e83)">
     <use xlink:href="#C0_0_b245e413db" x="70.7124" y="201.050934" style="fill: #00cc96; stroke: #3d3d3d"/>
    </g>
    <g clip-path="url(#p19cfe49e83)">
     <use xlink:href="#C0_0_b245e413db" x="70.7124" y="155.955817" style="fill: #00cc96; stroke: #3d3d3d"/>
    </g>
    <g clip-path="url(#p19cfe49e83)">
     <use xlink:href="#C0_0_b245e413db" x="70.7124" y="183.32812" style="fill: #00cc96; stroke: #3d3d3d"/>
    </g>
    <g clip-path="url(#p19cfe49e83)">
     <use xlink:href="#C0_0_b245e413db" x="78.14449" y="132.227551" style="fill: #ffa15a; stroke: #3d3d3d"/>
    </g>
    <g clip-path="url(#p19cfe49e83)">
     <use xlink:href="#C0_0_b245e413db" x="70.7124" y="105.630182" style="fill: #ffa15a; stroke: #3d3d3d"/>
    </g>
    <g clip-path="url(#p19cfe49e83)">
     <use xlink:href="#C0_0_b245e413db" x="70.7124" y="129.706142" style="fill: #ffa15a; stroke: #3d3d3d"/>
    </g>
    <g clip-path="url(#p19cfe49e83)">
     <use xlink:href="#C0_0_b245e413db" x="75.696401" y="96.247436" style="fill: #ffa15a; stroke: #3d3d3d"/>
    </g>
    <g clip-path="url(#p19cfe49e83)">
     <use xlink:href="#C0_0_b245e413db" x="70.7124" y="88.988058" style="fill: #ffa15a; stroke: #3d3d3d"/>
    </g>
    <g clip-path="url(#p19cfe49e83)">
     <use xlink:href="#C0_0_b245e413db" x="70.7124" y="120.460973" style="fill: #ffa15a; stroke: #3d3d3d"/>
    </g>
    <g clip-path="url(#p19cfe49e83)">
     <use xlink:href="#C0_0_b245e413db" x="70.7124" y="96.544124" style="fill: #ffa15a; stroke: #3d3d3d"/>
    </g>
    <g clip-path="url(#p19cfe49e83)">
     <use xlink:href="#C0_0_b245e413db" x="70.7124" y="116.193972" style="fill: #ffa15a; stroke: #3d3d3d"/>
    </g>
    <g clip-path="url(#p19cfe49e83)">
     <use xlink:href="#C0_0_b245e413db" x="70.7124" y="109.895066" style="fill: #ffa15a; stroke: #3d3d3d"/>
    </g>
    <g clip-path="url(#p19cfe49e83)">
     <use xlink:href="#C0_0_b245e413db" x="70.7124" y="142.649378" style="fill: #ffa15a; stroke: #3d3d3d"/>
    </g>
    <g clip-path="url(#p19cfe49e83)">
     <use xlink:href="#C0_0_b245e413db" x="74.783459" y="119.477444" style="fill: #ffa15a; stroke: #3d3d3d"/>
    </g>
    <g clip-path="url(#p19cfe49e83)">
     <use xlink:href="#C0_0_b245e413db" x="69.895943" y="101.706488" style="fill: #ffa15a; stroke: #3d3d3d"/>
    </g>
    <g clip-path="url(#p19cfe49e83)">
     <use xlink:href="#C0_0_b245e413db" x="73.94449" y="132.227551" style="fill: #ffa15a; stroke: #3d3d3d"/>
    </g>
    <g clip-path="url(#p19cfe49e83)">
     <use xlink:href="#C0_0_b245e413db" x="66.609505" y="133.926762" style="fill: #ffa15a; stroke: #3d3d3d"/>
    </g>
    <g clip-path="url(#p19cfe49e83)">
     <use xlink:href="#C0_0_b245e413db" x="72.866358" y="126.272222" style="fill: #ffa15a; stroke: #3d3d3d"/>
    </g>
    <g clip-path="url(#p19cfe49e83)">
     <use xlink:href="#C0_0_b245e413db" x="70.7124" y="149.018272" style="fill: #ffa15a; stroke: #3d3d3d"/>
    </g>
    <g clip-path="url(#p19cfe49e83)">
     <use xlink:href="#C0_0_b245e413db" x="70.7124" y="134.781921" style="fill: #ffa15a; stroke: #3d3d3d"/>
    </g>
    <g clip-path="url(#p19cfe49e83)">
     <use xlink:href="#C0_0_b245e413db" x="73.504217" y="99.659343" style="fill: #ffa15a; stroke: #3d3d3d"/>
    </g>
    <g clip-path="url(#p19cfe49e83)">
     <use xlink:href="#C0_0_b245e413db" x="73.292514" y="160.286315" style="fill: #ffa15a; stroke: #3d3d3d"/>
    </g>
    <g clip-path="url(#p19cfe49e83)">
     <use xlink:href="#C0_0_b245e413db" x="66.584822" y="119.721359" style="fill: #ffa15a; stroke: #3d3d3d"/>
    </g>
    <g clip-path="url(#p19cfe49e83)">
     <use xlink:href="#C0_0_b245e413db" x="66.287668" y="99.659343" style="fill: #ffa15a; stroke: #3d3d3d"/>
    </g>
    <g clip-path="url(#p19cfe49e83)">
     <use xlink:href="#C0_0_b245e413db" x="66.772891" y="128.319366" style="fill: #ffa15a; stroke: #3d3d3d"/>
    </g>
    <g clip-path="url(#p19cfe49e83)">
     <use xlink:href="#C0_0_b245e413db" x="70.7124" y="82.890181" style="fill: #ffa15a; stroke: #3d3d3d"/>
    </g>
    <g clip-path="url(#p19cfe49e83)">
     <use xlink:href="#C0_0_b245e413db" x="70.7124" y="57.657586" style="fill: #ffa15a; stroke: #3d3d3d"/>
    </g>
   </g>
   <g id="PathCollection_2">
    <defs>
     <path id="C1_0_be871e7989" d="M 0 1.5 
C 0.397805 1.5 0.77937 1.341951 1.06066 1.06066 
C 1.341951 0.77937 1.5 0.397805 1.5 -0 
C 1.5 -0.397805 1.341951 -0.77937 1.06066 -1.06066 
C 0.77937 -1.341951 0.397805 -1.5 0 -1.5 
C -0.397805 -1.5 -0.77937 -1.341951 -1.06066 -1.06066 
C -1.341951 -0.77937 -1.5 -0.397805 -1.5 0 
C -1.5 0.397805 -1.341951 0.77937 -1.06066 1.06066 
C -0.77937 1.341951 -0.397805 1.5 0 1.5 
z
"/>
    </defs>
    <g clip-path="url(#p19cfe49e83)">
     <use xlink:href="#C1_0_be871e7989" x="118.337901" y="219.477506" style="fill: #00cc96; stroke: #3d3d3d"/>
    </g>
    <g clip-path="url(#p19cfe49e83)">
     <use xlink:href="#C1_0_be871e7989" x="121.565875" y="179.844517" style="fill: #00cc96; stroke: #3d3d3d"/>
    </g>
    <g clip-path="url(#p19cfe49e83)">
     <use xlink:href="#C1_0_be871e7989" x="118.337901" y="204.710179" style="fill: #00cc96; stroke: #3d3d3d"/>
    </g>
    <g clip-path="url(#p19cfe49e83)">
     <use xlink:href="#C1_0_be871e7989" x="118.337901" y="186.83358" style="fill: #00cc96; stroke: #3d3d3d"/>
    </g>
    <g clip-path="url(#p19cfe49e83)">
     <use xlink:href="#C1_0_be871e7989" x="118.337901" y="149.32586" style="fill: #00cc96; stroke: #3d3d3d"/>
    </g>
    <g clip-path="url(#p19cfe49e83)">
     <use xlink:href="#C1_0_be871e7989" x="118.337901" y="169.64312" style="fill: #00cc96; stroke: #3d3d3d"/>
    </g>
    <g clip-path="url(#p19cfe49e83)">
     <use xlink:href="#C1_0_be871e7989" x="126.014313" y="201.477846" style="fill: #00cc96; stroke: #3d3d3d"/>
    </g>
    <g clip-path="url(#p19cfe49e83)">
     <use xlink:href="#C1_0_be871e7989" x="125.694621" y="179.11084" style="fill: #00cc96; stroke: #3d3d3d"/>
    </g>
    <g clip-path="url(#p19cfe49e83)">
     <use xlink:href="#C1_0_be871e7989" x="118.337901" y="192.539047" style="fill: #00cc96; stroke: #3d3d3d"/>
    </g>
    <g clip-path="url(#p19cfe49e83)">
     <use xlink:href="#C1_0_be871e7989" x="114.273246" y="203.702913" style="fill: #00cc96; stroke: #3d3d3d"/>
    </g>
    <g clip-path="url(#p19cfe49e83)">
     <use xlink:href="#C1_0_be871e7989" x="114.410662" y="180.985614" style="fill: #00cc96; stroke: #3d3d3d"/>
    </g>
    <g clip-path="url(#p19cfe49e83)">
     <use xlink:href="#C1_0_be871e7989" x="122.1079" y="202.947088" style="fill: #00cc96; stroke: #3d3d3d"/>
    </g>
    <g clip-path="url(#p19cfe49e83)">
     <use xlink:href="#C1_0_be871e7989" x="115.081064" y="207.865552" style="fill: #00cc96; stroke: #3d3d3d"/>
    </g>
    <g clip-path="url(#p19cfe49e83)">
     <use xlink:href="#C1_0_be871e7989" x="114.142287" y="169.460367" style="fill: #00cc96; stroke: #3d3d3d"/>
    </g>
    <g clip-path="url(#p19cfe49e83)">
     <use xlink:href="#C1_0_be871e7989" x="114.214043" y="191.780846" style="fill: #00cc96; stroke: #3d3d3d"/>
    </g>
    <g clip-path="url(#p19cfe49e83)">
     <use xlink:href="#C1_0_be871e7989" x="114.238919" y="218.605498" style="fill: #00cc96; stroke: #3d3d3d"/>
    </g>
    <g clip-path="url(#p19cfe49e83)">
     <use xlink:href="#C1_0_be871e7989" x="118.337901" y="182.403603" style="fill: #00cc96; stroke: #3d3d3d"/>
    </g>
    <g clip-path="url(#p19cfe49e83)">
     <use xlink:href="#C1_0_be871e7989" x="118.337901" y="210.39125" style="fill: #00cc96; stroke: #3d3d3d"/>
    </g>
    <g clip-path="url(#p19cfe49e83)">
     <use xlink:href="#C1_0_be871e7989" x="110.633832" y="201.706395" style="fill: #00cc96; stroke: #3d3d3d"/>
    </g>
    <g clip-path="url(#p19cfe49e83)">
     <use xlink:href="#C1_0_be871e7989" x="114.914013" y="158.507373" style="fill: #00cc96; stroke: #3d3d3d"/>
    </g>
    <g clip-path="url(#p19cfe49e83)">
     <use xlink:href="#C1_0_be871e7989" x="118.337901" y="176.820944" style="fill: #00cc96; stroke: #3d3d3d"/>
    </g>
    <g clip-path="url(#p19cfe49e83)">
     <use xlink:href="#C1_0_be871e7989" x="125.335549" y="128.319366" style="fill: #ffa15a; stroke: #3d3d3d"/>
    </g>
    <g clip-path="url(#p19cfe49e83)">
     <use xlink:href="#C1_0_be871e7989" x="118.337901" y="110.804908" style="fill: #ffa15a; stroke: #3d3d3d"/>
    </g>
    <g clip-path="url(#p19cfe49e83)">
     <use xlink:href="#C1_0_be871e7989" x="114.680842" y="129.706142" style="fill: #ffa15a; stroke: #3d3d3d"/>
    </g>
    <g clip-path="url(#p19cfe49e83)">
     <use xlink:href="#C1_0_be871e7989" x="118.337901" y="121.320989" style="fill: #ffa15a; stroke: #3d3d3d"/>
    </g>
    <g clip-path="url(#p19cfe49e83)">
     <use xlink:href="#C1_0_be871e7989" x="114.910021" y="99.659343" style="fill: #ffa15a; stroke: #3d3d3d"/>
    </g>
    <g clip-path="url(#p19cfe49e83)">
     <use xlink:href="#C1_0_be871e7989" x="118.337901" y="75.775991" style="fill: #ffa15a; stroke: #3d3d3d"/>
    </g>
    <g clip-path="url(#p19cfe49e83)">
     <use xlink:href="#C1_0_be871e7989" x="114.247995" y="136.280484" style="fill: #ffa15a; stroke: #3d3d3d"/>
    </g>
    <g clip-path="url(#p19cfe49e83)">
     <use xlink:href="#C1_0_be871e7989" x="121.691264" y="134.781921" style="fill: #ffa15a; stroke: #3d3d3d"/>
    </g>
    <g clip-path="url(#p19cfe49e83)">
     <use xlink:href="#C1_0_be871e7989" x="121.155283" y="128.706664" style="fill: #ffa15a; stroke: #3d3d3d"/>
    </g>
    <g clip-path="url(#p19cfe49e83)">
     <use xlink:href="#C1_0_be871e7989" x="116.866243" y="91.698226" style="fill: #ffa15a; stroke: #3d3d3d"/>
    </g>
    <g clip-path="url(#p19cfe49e83)">
     <use xlink:href="#C1_0_be871e7989" x="118.337901" y="142.649378" style="fill: #ffa15a; stroke: #3d3d3d"/>
    </g>
    <g clip-path="url(#p19cfe49e83)">
     <use xlink:href="#C1_0_be871e7989" x="120.93419" y="90.703086" style="fill: #ffa15a; stroke: #3d3d3d"/>
    </g>
    <g clip-path="url(#p19cfe49e83)">
     <use xlink:href="#C1_0_be871e7989" x="118.337901" y="160.824026" style="fill: #ffa15a; stroke: #3d3d3d"/>
    </g>
    <g clip-path="url(#p19cfe49e83)">
     <use xlink:href="#C1_0_be871e7989" x="114.863814" y="140.401533" style="fill: #ffa15a; stroke: #3d3d3d"/>
    </g>
    <g clip-path="url(#p19cfe49e83)">
     <use xlink:href="#C1_0_be871e7989" x="118.337901" y="95.444634" style="fill: #ffa15a; stroke: #3d3d3d"/>
    </g>
    <g clip-path="url(#p19cfe49e83)">
     <use xlink:href="#C1_0_be871e7989" x="115.008571" y="118.88253" style="fill: #ffa15a; stroke: #3d3d3d"/>
    </g>
    <g clip-path="url(#p19cfe49e83)">
     <use xlink:href="#C1_0_be871e7989" x="118.337901" y="131.673199" style="fill: #ffa15a; stroke: #3d3d3d"/>
    </g>
    <g clip-path="url(#p19cfe49e83)">
     <use xlink:href="#C1_0_be871e7989" x="118.337901" y="101.970636" style="fill: #ffa15a; stroke: #3d3d3d"/>
    </g>
    <g clip-path="url(#p19cfe49e83)">
     <use xlink:href="#C1_0_be871e7989" x="118.337901" y="137.190326" style="fill: #ffa15a; stroke: #3d3d3d"/>
    </g>
    <g clip-path="url(#p19cfe49e83)">
     <use xlink:href="#C1_0_be871e7989" x="114.527443" y="109.122559" style="fill: #ffa15a; stroke: #3d3d3d"/>
    </g>
    <g clip-path="url(#p19cfe49e83)">
     <use xlink:href="#C1_0_be871e7989" x="112.798296" y="90.703086" style="fill: #ffa15a; stroke: #3d3d3d"/>
    </g>
   </g>
   <g id="PathCollection_3">
    <defs>
     <path id="C2_0_f1827ecc50" d="M 0 1.5 
C 0.397805 1.5 0.77937 1.341951 1.06066 1.06066 
C 1.341951 0.77937 1.5 0.397805 1.5 -0 
C 1.5 -0.397805 1.341951 -0.77937 1.06066 -1.06066 
C 0.77937 -1.341951 0.397805 -1.5 0 -1.5 
C -0.397805 -1.5 -0.77937 -1.341951 -1.06066 -1.06066 
C -1.341951 -0.77937 -1.5 -0.397805 -1.5 0 
C -1.5 0.397805 -1.341951 0.77937 -1.06066 1.06066 
C -0.77937 1.341951 -0.397805 1.5 0 1.5 
z
"/>
    </defs>
    <g clip-path="url(#p19cfe49e83)">
     <use xlink:href="#C2_0_f1827ecc50" x="161.867238" y="216.05016" style="fill: #00cc96; stroke: #3d3d3d"/>
    </g>
    <g clip-path="url(#p19cfe49e83)">
     <use xlink:href="#C2_0_f1827ecc50" x="169.847079" y="182.998534" style="fill: #00cc96; stroke: #3d3d3d"/>
    </g>
    <g clip-path="url(#p19cfe49e83)">
     <use xlink:href="#C2_0_f1827ecc50" x="162.473894" y="205.826946" style="fill: #00cc96; stroke: #3d3d3d"/>
    </g>
    <g clip-path="url(#p19cfe49e83)">
     <use xlink:href="#C2_0_f1827ecc50" x="165.963403" y="223.418533" style="fill: #00cc96; stroke: #3d3d3d"/>
    </g>
    <g clip-path="url(#p19cfe49e83)">
     <use xlink:href="#C2_0_f1827ecc50" x="165.963403" y="166.518211" style="fill: #00cc96; stroke: #3d3d3d"/>
    </g>
    <g clip-path="url(#p19cfe49e83)">
     <use xlink:href="#C2_0_f1827ecc50" x="165.963403" y="199.248417" style="fill: #00cc96; stroke: #3d3d3d"/>
    </g>
    <g clip-path="url(#p19cfe49e83)">
     <use xlink:href="#C2_0_f1827ecc50" x="172.557252" y="204.465113" style="fill: #00cc96; stroke: #3d3d3d"/>
    </g>
    <g clip-path="url(#p19cfe49e83)">
     <use xlink:href="#C2_0_f1827ecc50" x="161.878824" y="192.008306" style="fill: #00cc96; stroke: #3d3d3d"/>
    </g>
    <g clip-path="url(#p19cfe49e83)">
     <use xlink:href="#C2_0_f1827ecc50" x="169.638897" y="214.99846" style="fill: #00cc96; stroke: #3d3d3d"/>
    </g>
    <g clip-path="url(#p19cfe49e83)">
     <use xlink:href="#C2_0_f1827ecc50" x="165.963403" y="212.579834" style="fill: #00cc96; stroke: #3d3d3d"/>
    </g>
    <g clip-path="url(#p19cfe49e83)">
     <use xlink:href="#C2_0_f1827ecc50" x="161.772509" y="184.258206" style="fill: #00cc96; stroke: #3d3d3d"/>
    </g>
    <g clip-path="url(#p19cfe49e83)">
     <use xlink:href="#C2_0_f1827ecc50" x="165.963403" y="208.05302" style="fill: #00cc96; stroke: #3d3d3d"/>
    </g>
    <g clip-path="url(#p19cfe49e83)">
     <use xlink:href="#C2_0_f1827ecc50" x="165.963403" y="231.44427" style="fill: #00cc96; stroke: #3d3d3d"/>
    </g>
    <g clip-path="url(#p19cfe49e83)">
     <use xlink:href="#C2_0_f1827ecc50" x="165.963403" y="192.939607" style="fill: #00cc96; stroke: #3d3d3d"/>
    </g>
    <g clip-path="url(#p19cfe49e83)">
     <use xlink:href="#C2_0_f1827ecc50" x="165.963403" y="184.521468" style="fill: #00cc96; stroke: #3d3d3d"/>
    </g>
    <g clip-path="url(#p19cfe49e83)">
     <use xlink:href="#C2_0_f1827ecc50" x="165.963403" y="216.934101" style="fill: #00cc96; stroke: #3d3d3d"/>
    </g>
    <g clip-path="url(#p19cfe49e83)">
     <use xlink:href="#C2_0_f1827ecc50" x="165.963403" y="179.592644" style="fill: #00cc96; stroke: #3d3d3d"/>
    </g>
    <g clip-path="url(#p19cfe49e83)">
     <use xlink:href="#C2_0_f1827ecc50" x="168.36985" y="204.774697" style="fill: #00cc96; stroke: #3d3d3d"/>
    </g>
    <g clip-path="url(#p19cfe49e83)">
     <use xlink:href="#C2_0_f1827ecc50" x="165.963403" y="137.190326" style="fill: #ffa15a; stroke: #3d3d3d"/>
    </g>
    <g clip-path="url(#p19cfe49e83)">
     <use xlink:href="#C2_0_f1827ecc50" x="165.963403" y="152.38297" style="fill: #ffa15a; stroke: #3d3d3d"/>
    </g>
    <g clip-path="url(#p19cfe49e83)">
     <use xlink:href="#C2_0_f1827ecc50" x="169.746745" y="140.912407" style="fill: #ffa15a; stroke: #3d3d3d"/>
    </g>
    <g clip-path="url(#p19cfe49e83)">
     <use xlink:href="#C2_0_f1827ecc50" x="165.963403" y="142.649378" style="fill: #ffa15a; stroke: #3d3d3d"/>
    </g>
    <g clip-path="url(#p19cfe49e83)">
     <use xlink:href="#C2_0_f1827ecc50" x="162.61004" y="109.895066" style="fill: #ffa15a; stroke: #3d3d3d"/>
    </g>
    <g clip-path="url(#p19cfe49e83)">
     <use xlink:href="#C2_0_f1827ecc50" x="163.881402" y="85.329332" style="fill: #ffa15a; stroke: #3d3d3d"/>
    </g>
    <g clip-path="url(#p19cfe49e83)">
     <use xlink:href="#C2_0_f1827ecc50" x="165.963403" y="73.604777" style="fill: #ffa15a; stroke: #3d3d3d"/>
    </g>
    <g clip-path="url(#p19cfe49e83)">
     <use xlink:href="#C2_0_f1827ecc50" x="162.693967" y="129.162308" style="fill: #ffa15a; stroke: #3d3d3d"/>
    </g>
    <g clip-path="url(#p19cfe49e83)">
     <use xlink:href="#C2_0_f1827ecc50" x="167.545113" y="147.426048" style="fill: #ffa15a; stroke: #3d3d3d"/>
    </g>
    <g clip-path="url(#p19cfe49e83)">
     <use xlink:href="#C2_0_f1827ecc50" x="163.692196" y="149.018272" style="fill: #ffa15a; stroke: #3d3d3d"/>
    </g>
    <g clip-path="url(#p19cfe49e83)">
     <use xlink:href="#C2_0_f1827ecc50" x="173.662107" y="139.464931" style="fill: #ffa15a; stroke: #3d3d3d"/>
    </g>
    <g clip-path="url(#p19cfe49e83)">
     <use xlink:href="#C2_0_f1827ecc50" x="165.963403" y="88.803274" style="fill: #ffa15a; stroke: #3d3d3d"/>
    </g>
    <g clip-path="url(#p19cfe49e83)">
     <use xlink:href="#C2_0_f1827ecc50" x="162.073487" y="141.140956" style="fill: #ffa15a; stroke: #3d3d3d"/>
    </g>
    <g clip-path="url(#p19cfe49e83)">
     <use xlink:href="#C2_0_f1827ecc50" x="165.963403" y="156.68694" style="fill: #ffa15a; stroke: #3d3d3d"/>
    </g>
    <g clip-path="url(#p19cfe49e83)">
     <use xlink:href="#C2_0_f1827ecc50" x="165.963403" y="112.303471" style="fill: #ffa15a; stroke: #3d3d3d"/>
    </g>
    <g clip-path="url(#p19cfe49e83)">
     <use xlink:href="#C2_0_f1827ecc50" x="165.963403" y="131.673199" style="fill: #ffa15a; stroke: #3d3d3d"/>
    </g>
    <g clip-path="url(#p19cfe49e83)">
     <use xlink:href="#C2_0_f1827ecc50" x="169.316765" y="109.895066" style="fill: #ffa15a; stroke: #3d3d3d"/>
    </g>
    <g clip-path="url(#p19cfe49e83)">
     <use xlink:href="#C2_0_f1827ecc50" x="158.630697" y="108.615601" style="fill: #ffa15a; stroke: #3d3d3d"/>
    </g>
   </g>
   <g id="PathCollection_4">
    <defs>
     <path id="C3_0_cdafb5655b" d="M 0 1.5 
C 0.397805 1.5 0.77937 1.341951 1.06066 1.06066 
C 1.341951 0.77937 1.5 0.397805 1.5 -0 
C 1.5 -0.397805 1.341951 -0.77937 1.06066 -1.06066 
C 0.77937 -1.341951 0.397805 -1.5 0 -1.5 
C -0.397805 -1.5 -0.77937 -1.341951 -1.06066 -1.06066 
C -1.341951 -0.77937 -1.5 -0.397805 -1.5 0 
C -1.5 0.397805 -1.341951 0.77937 -1.06066 1.06066 
C -0.77937 1.341951 -0.397805 1.5 0 1.5 
z
"/>
    </defs>
    <g clip-path="url(#p19cfe49e83)">
     <use xlink:href="#C3_0_cdafb5655b" x="209.839996" y="228.396438" style="fill: #00cc96; stroke: #3d3d3d"/>
    </g>
    <g clip-path="url(#p19cfe49e83)">
     <use xlink:href="#C3_0_cdafb5655b" x="213.588904" y="186.321794" style="fill: #00cc96; stroke: #3d3d3d"/>
    </g>
    <g clip-path="url(#p19cfe49e83)">
     <use xlink:href="#C3_0_cdafb5655b" x="213.588904" y="230.199859" style="fill: #00cc96; stroke: #3d3d3d"/>
    </g>
    <g clip-path="url(#p19cfe49e83)">
     <use xlink:href="#C3_0_cdafb5655b" x="213.588904" y="215.203129" style="fill: #00cc96; stroke: #3d3d3d"/>
    </g>
    <g clip-path="url(#p19cfe49e83)">
     <use xlink:href="#C3_0_cdafb5655b" x="213.588904" y="168.780575" style="fill: #00cc96; stroke: #3d3d3d"/>
    </g>
    <g clip-path="url(#p19cfe49e83)">
     <use xlink:href="#C3_0_cdafb5655b" x="217.723395" y="190.235831" style="fill: #00cc96; stroke: #3d3d3d"/>
    </g>
    <g clip-path="url(#p19cfe49e83)">
     <use xlink:href="#C3_0_cdafb5655b" x="217.530082" y="224.404662" style="fill: #00cc96; stroke: #3d3d3d"/>
    </g>
    <g clip-path="url(#p19cfe49e83)">
     <use xlink:href="#C3_0_cdafb5655b" x="213.588904" y="177.573887" style="fill: #00cc96; stroke: #3d3d3d"/>
    </g>
    <g clip-path="url(#p19cfe49e83)">
     <use xlink:href="#C3_0_cdafb5655b" x="213.588904" y="202.853451" style="fill: #00cc96; stroke: #3d3d3d"/>
    </g>
    <g clip-path="url(#p19cfe49e83)">
     <use xlink:href="#C3_0_cdafb5655b" x="213.588904" y="235.055003" style="fill: #00cc96; stroke: #3d3d3d"/>
    </g>
    <g clip-path="url(#p19cfe49e83)">
     <use xlink:href="#C3_0_cdafb5655b" x="210.354328" y="183.77028" style="fill: #00cc96; stroke: #3d3d3d"/>
    </g>
    <g clip-path="url(#p19cfe49e83)">
     <use xlink:href="#C3_0_cdafb5655b" x="213.588904" y="190.939553" style="fill: #00cc96; stroke: #3d3d3d"/>
    </g>
    <g clip-path="url(#p19cfe49e83)">
     <use xlink:href="#C3_0_cdafb5655b" x="213.588904" y="225.78713" style="fill: #00cc96; stroke: #3d3d3d"/>
    </g>
    <g clip-path="url(#p19cfe49e83)">
     <use xlink:href="#C3_0_cdafb5655b" x="209.446125" y="190.281529" style="fill: #00cc96; stroke: #3d3d3d"/>
    </g>
    <g clip-path="url(#p19cfe49e83)">
     <use xlink:href="#C3_0_cdafb5655b" x="209.390507" y="177.463393" style="fill: #00cc96; stroke: #3d3d3d"/>
    </g>
    <g clip-path="url(#p19cfe49e83)">
     <use xlink:href="#C3_0_cdafb5655b" x="213.588904" y="131.673199" style="fill: #ffa15a; stroke: #3d3d3d"/>
    </g>
    <g clip-path="url(#p19cfe49e83)">
     <use xlink:href="#C3_0_cdafb5655b" x="213.588904" y="137.771076" style="fill: #ffa15a; stroke: #3d3d3d"/>
    </g>
    <g clip-path="url(#p19cfe49e83)">
     <use xlink:href="#C3_0_cdafb5655b" x="209.730676" y="144.440629" style="fill: #ffa15a; stroke: #3d3d3d"/>
    </g>
    <g clip-path="url(#p19cfe49e83)">
     <use xlink:href="#C3_0_cdafb5655b" x="213.588904" y="161.311718" style="fill: #ffa15a; stroke: #3d3d3d"/>
    </g>
    <g clip-path="url(#p19cfe49e83)">
     <use xlink:href="#C3_0_cdafb5655b" x="215.524529" y="114.53011" style="fill: #ffa15a; stroke: #3d3d3d"/>
    </g>
    <g clip-path="url(#p19cfe49e83)">
     <use xlink:href="#C3_0_cdafb5655b" x="211.33865" y="114.85784" style="fill: #ffa15a; stroke: #3d3d3d"/>
    </g>
    <g clip-path="url(#p19cfe49e83)">
     <use xlink:href="#C3_0_cdafb5655b" x="215.848524" y="142.649378" style="fill: #ffa15a; stroke: #3d3d3d"/>
    </g>
    <g clip-path="url(#p19cfe49e83)">
     <use xlink:href="#C3_0_cdafb5655b" x="213.588904" y="118.235284" style="fill: #ffa15a; stroke: #3d3d3d"/>
    </g>
    <g clip-path="url(#p19cfe49e83)">
     <use xlink:href="#C3_0_cdafb5655b" x="209.392671" y="131.503813" style="fill: #ffa15a; stroke: #3d3d3d"/>
    </g>
    <g clip-path="url(#p19cfe49e83)">
     <use xlink:href="#C3_0_cdafb5655b" x="209.43876" y="151.768476" style="fill: #ffa15a; stroke: #3d3d3d"/>
    </g>
    <g clip-path="url(#p19cfe49e83)">
     <use xlink:href="#C3_0_cdafb5655b" x="213.588904" y="146.021145" style="fill: #ffa15a; stroke: #3d3d3d"/>
    </g>
    <g clip-path="url(#p19cfe49e83)">
     <use xlink:href="#C3_0_cdafb5655b" x="213.588904" y="56.669309" style="fill: #ffa15a; stroke: #3d3d3d"/>
    </g>
    <g clip-path="url(#p19cfe49e83)">
     <use xlink:href="#C3_0_cdafb5655b" x="217.739048" y="151.768476" style="fill: #ffa15a; stroke: #3d3d3d"/>
    </g>
    <g clip-path="url(#p19cfe49e83)">
     <use xlink:href="#C3_0_cdafb5655b" x="213.588904" y="152.38297" style="fill: #ffa15a; stroke: #3d3d3d"/>
    </g>
    <g clip-path="url(#p19cfe49e83)">
     <use xlink:href="#C3_0_cdafb5655b" x="213.588904" y="103.874053" style="fill: #ffa15a; stroke: #3d3d3d"/>
    </g>
   </g>
   <g id="PathCollection_5">
    <defs>
     <path id="C4_0_fcbb1a2d2b" d="M 0 1.5 
C 0.397805 1.5 0.77937 1.341951 1.06066 1.06066 
C 1.341951 0.77937 1.5 0.397805 1.5 -0 
C 1.5 -0.397805 1.341951 -0.77937 1.06066 -1.06066 
C 0.77937 -1.341951 0.397805 -1.5 0 -1.5 
C -0.397805 -1.5 -0.77937 -1.341951 -1.06066 -1.06066 
C -1.341951 -0.77937 -1.5 -0.397805 -1.5 0 
C -1.5 0.397805 -1.341951 0.77937 -1.06066 1.06066 
C -0.77937 1.341951 -0.397805 1.5 0 1.5 
z
"/>
    </defs>
    <g clip-path="url(#p19cfe49e83)">
     <use xlink:href="#C4_0_fcbb1a2d2b" x="259.036562" y="235.659263" style="fill: #00cc96; stroke: #3d3d3d"/>
    </g>
    <g clip-path="url(#p19cfe49e83)">
     <use xlink:href="#C4_0_fcbb1a2d2b" x="261.214405" y="202.765523" style="fill: #00cc96; stroke: #3d3d3d"/>
    </g>
    <g clip-path="url(#p19cfe49e83)">
     <use xlink:href="#C4_0_fcbb1a2d2b" x="257.034525" y="202.37446" style="fill: #00cc96; stroke: #3d3d3d"/>
    </g>
    <g clip-path="url(#p19cfe49e83)">
     <use xlink:href="#C4_0_fcbb1a2d2b" x="261.214405" y="219.865638" style="fill: #00cc96; stroke: #3d3d3d"/>
    </g>
    <g clip-path="url(#p19cfe49e83)">
     <use xlink:href="#C4_0_fcbb1a2d2b" x="261.214405" y="175.253441" style="fill: #00cc96; stroke: #3d3d3d"/>
    </g>
    <g clip-path="url(#p19cfe49e83)">
     <use xlink:href="#C4_0_fcbb1a2d2b" x="263.947299" y="216.828261" style="fill: #00cc96; stroke: #3d3d3d"/>
    </g>
    <g clip-path="url(#p19cfe49e83)">
     <use xlink:href="#C4_0_fcbb1a2d2b" x="261.214405" y="239.079491" style="fill: #00cc96; stroke: #3d3d3d"/>
    </g>
    <g clip-path="url(#p19cfe49e83)">
     <use xlink:href="#C4_0_fcbb1a2d2b" x="261.214405" y="191.891802" style="fill: #00cc96; stroke: #3d3d3d"/>
    </g>
    <g clip-path="url(#p19cfe49e83)">
     <use xlink:href="#C4_0_fcbb1a2d2b" x="261.214405" y="206.906244" style="fill: #00cc96; stroke: #3d3d3d"/>
    </g>
    <g clip-path="url(#p19cfe49e83)">
     <use xlink:href="#C4_0_fcbb1a2d2b" x="257.182086" y="218.74668" style="fill: #00cc96; stroke: #3d3d3d"/>
    </g>
    <g clip-path="url(#p19cfe49e83)">
     <use xlink:href="#C4_0_fcbb1a2d2b" x="261.214405" y="182.086847" style="fill: #00cc96; stroke: #3d3d3d"/>
    </g>
    <g clip-path="url(#p19cfe49e83)">
     <use xlink:href="#C4_0_fcbb1a2d2b" x="259.680158" y="188.168238" style="fill: #00cc96; stroke: #3d3d3d"/>
    </g>
    <g clip-path="url(#p19cfe49e83)">
     <use xlink:href="#C4_0_fcbb1a2d2b" x="257.378199" y="151.768476" style="fill: #ffa15a; stroke: #3d3d3d"/>
    </g>
    <g clip-path="url(#p19cfe49e83)">
     <use xlink:href="#C4_0_fcbb1a2d2b" x="261.214405" y="153.396886" style="fill: #ffa15a; stroke: #3d3d3d"/>
    </g>
    <g clip-path="url(#p19cfe49e83)">
     <use xlink:href="#C4_0_fcbb1a2d2b" x="261.214405" y="108.615601" style="fill: #ffa15a; stroke: #3d3d3d"/>
    </g>
    <g clip-path="url(#p19cfe49e83)">
     <use xlink:href="#C4_0_fcbb1a2d2b" x="257.524533" y="123.542696" style="fill: #ffa15a; stroke: #3d3d3d"/>
    </g>
    <g clip-path="url(#p19cfe49e83)">
     <use xlink:href="#C4_0_fcbb1a2d2b" x="261.214405" y="125.453364" style="fill: #ffa15a; stroke: #3d3d3d"/>
    </g>
    <g clip-path="url(#p19cfe49e83)">
     <use xlink:href="#C4_0_fcbb1a2d2b" x="261.214405" y="101.970636" style="fill: #ffa15a; stroke: #3d3d3d"/>
    </g>
    <g clip-path="url(#p19cfe49e83)">
     <use xlink:href="#C4_0_fcbb1a2d2b" x="261.214405" y="134.651232" style="fill: #ffa15a; stroke: #3d3d3d"/>
    </g>
    <g clip-path="url(#p19cfe49e83)">
     <use xlink:href="#C4_0_fcbb1a2d2b" x="264.89742" y="132.728601" style="fill: #ffa15a; stroke: #3d3d3d"/>
    </g>
    <g clip-path="url(#p19cfe49e83)">
     <use xlink:href="#C4_0_fcbb1a2d2b" x="257.019168" y="134.4608" style="fill: #ffa15a; stroke: #3d3d3d"/>
    </g>
    <g clip-path="url(#p19cfe49e83)">
     <use xlink:href="#C4_0_fcbb1a2d2b" x="261.214405" y="141.45521" style="fill: #ffa15a; stroke: #3d3d3d"/>
    </g>
    <g clip-path="url(#p19cfe49e83)">
     <use xlink:href="#C4_0_fcbb1a2d2b" x="264.442515" y="150.837956" style="fill: #ffa15a; stroke: #3d3d3d"/>
    </g>
    <g clip-path="url(#p19cfe49e83)">
     <use xlink:href="#C4_0_fcbb1a2d2b" x="261.214405" y="64.989961" style="fill: #ffa15a; stroke: #3d3d3d"/>
    </g>
   </g>
   <g id="PathCollection_6">
    <defs>
     <path id="C5_0_7242a44a68" d="M 0 1.5 
C 0.397805 1.5 0.77937 1.341951 1.06066 1.06066 
C 1.341951 0.77937 1.5 0.397805 1.5 -0 
C 1.5 -0.397805 1.341951 -0.77937 1.06066 -1.06066 
C 0.77937 -1.341951 0.397805 -1.5 0 -1.5 
C -0.397805 -1.5 -0.77937 -1.341951 -1.06066 -1.06066 
C -1.341951 -0.77937 -1.5 -0.397805 -1.5 0 
C -1.5 0.397805 -1.341951 0.77937 -1.06066 1.06066 
C -0.77937 1.341951 -0.397805 1.5 0 1.5 
z
"/>
    </defs>
    <g clip-path="url(#p19cfe49e83)">
     <use xlink:href="#C5_0_7242a44a68" x="308.839907" y="225.219733" style="fill: #00cc96; stroke: #3d3d3d"/>
    </g>
    <g clip-path="url(#p19cfe49e83)">
     <use xlink:href="#C5_0_7242a44a68" x="305.0534" y="200.986939" style="fill: #00cc96; stroke: #3d3d3d"/>
    </g>
    <g clip-path="url(#p19cfe49e83)">
     <use xlink:href="#C5_0_7242a44a68" x="308.839907" y="202.717645" style="fill: #00cc96; stroke: #3d3d3d"/>
    </g>
    <g clip-path="url(#p19cfe49e83)">
     <use xlink:href="#C5_0_7242a44a68" x="312.641613" y="223.51952" style="fill: #00cc96; stroke: #3d3d3d"/>
    </g>
    <g clip-path="url(#p19cfe49e83)">
     <use xlink:href="#C5_0_7242a44a68" x="308.839907" y="195.123122" style="fill: #00cc96; stroke: #3d3d3d"/>
    </g>
    <g clip-path="url(#p19cfe49e83)">
     <use xlink:href="#C5_0_7242a44a68" x="308.839907" y="190.300982" style="fill: #00cc96; stroke: #3d3d3d"/>
    </g>
    <g clip-path="url(#p19cfe49e83)">
     <use xlink:href="#C5_0_7242a44a68" x="304.939423" y="223.736272" style="fill: #00cc96; stroke: #3d3d3d"/>
    </g>
    <g clip-path="url(#p19cfe49e83)">
     <use xlink:href="#C5_0_7242a44a68" x="311.962334" y="187.62575" style="fill: #00cc96; stroke: #3d3d3d"/>
    </g>
    <g clip-path="url(#p19cfe49e83)">
     <use xlink:href="#C5_0_7242a44a68" x="305.086845" y="188.505414" style="fill: #00cc96; stroke: #3d3d3d"/>
    </g>
    <g clip-path="url(#p19cfe49e83)">
     <use xlink:href="#C5_0_7242a44a68" x="308.839907" y="121.465883" style="fill: #ffa15a; stroke: #3d3d3d"/>
    </g>
    <g clip-path="url(#p19cfe49e83)">
     <use xlink:href="#C5_0_7242a44a68" x="308.839907" y="160.286315" style="fill: #ffa15a; stroke: #3d3d3d"/>
    </g>
    <g clip-path="url(#p19cfe49e83)">
     <use xlink:href="#C5_0_7242a44a68" x="304.693248" y="132.227551" style="fill: #ffa15a; stroke: #3d3d3d"/>
    </g>
    <g clip-path="url(#p19cfe49e83)">
     <use xlink:href="#C5_0_7242a44a68" x="308.839907" y="132.863028" style="fill: #ffa15a; stroke: #3d3d3d"/>
    </g>
    <g clip-path="url(#p19cfe49e83)">
     <use xlink:href="#C5_0_7242a44a68" x="308.839907" y="140.401533" style="fill: #ffa15a; stroke: #3d3d3d"/>
    </g>
    <g clip-path="url(#p19cfe49e83)">
     <use xlink:href="#C5_0_7242a44a68" x="308.839907" y="97.48813" style="fill: #ffa15a; stroke: #3d3d3d"/>
    </g>
    <g clip-path="url(#p19cfe49e83)">
     <use xlink:href="#C5_0_7242a44a68" x="308.839907" y="125.575322" style="fill: #ffa15a; stroke: #3d3d3d"/>
    </g>
    <g clip-path="url(#p19cfe49e83)">
     <use xlink:href="#C5_0_7242a44a68" x="308.839907" y="112.927873" style="fill: #ffa15a; stroke: #3d3d3d"/>
    </g>
    <g clip-path="url(#p19cfe49e83)">
     <use xlink:href="#C5_0_7242a44a68" x="304.691393" y="112.303471" style="fill: #ffa15a; stroke: #3d3d3d"/>
    </g>
   </g>
   <g id="PathCollection_7">
    <defs>
     <path id="C6_0_68817e7984" d="M 0 1.5 
C 0.397805 1.5 0.77937 1.341951 1.06066 1.06066 
C 1.341951 0.77937 1.5 0.397805 1.5 -0 
C 1.5 -0.397805 1.341951 -0.77937 1.06066 -1.06066 
C 0.77937 -1.341951 0.397805 -1.5 0 -1.5 
C -0.397805 -1.5 -0.77937 -1.341951 -1.06066 -1.06066 
C -1.341951 -0.77937 -1.5 -0.397805 -1.5 0 
C -1.5 0.397805 -1.341951 0.77937 -1.06066 1.06066 
C -0.77937 1.341951 -0.397805 1.5 0 1.5 
z
"/>
    </defs>
    <g clip-path="url(#p19cfe49e83)">
     <use xlink:href="#C6_0_68817e7984" x="356.465408" y="237.026651" style="fill: #00cc96; stroke: #3d3d3d"/>
    </g>
    <g clip-path="url(#p19cfe49e83)">
     <use xlink:href="#C6_0_68817e7984" x="356.465408" y="206.669169" style="fill: #00cc96; stroke: #3d3d3d"/>
    </g>
    <g clip-path="url(#p19cfe49e83)">
     <use xlink:href="#C6_0_68817e7984" x="356.465408" y="217.859119" style="fill: #00cc96; stroke: #3d3d3d"/>
    </g>
    <g clip-path="url(#p19cfe49e83)">
     <use xlink:href="#C6_0_68817e7984" x="356.465408" y="224.587648" style="fill: #00cc96; stroke: #3d3d3d"/>
    </g>
    <g clip-path="url(#p19cfe49e83)">
     <use xlink:href="#C6_0_68817e7984" x="352.324505" y="190.14313" style="fill: #00cc96; stroke: #3d3d3d"/>
    </g>
    <g clip-path="url(#p19cfe49e83)">
     <use xlink:href="#C6_0_68817e7984" x="356.465408" y="190.811783" style="fill: #00cc96; stroke: #3d3d3d"/>
    </g>
    <g clip-path="url(#p19cfe49e83)">
     <use xlink:href="#C6_0_68817e7984" x="356.465408" y="144.988971" style="fill: #ffa15a; stroke: #3d3d3d"/>
    </g>
    <g clip-path="url(#p19cfe49e83)">
     <use xlink:href="#C6_0_68817e7984" x="356.465408" y="138.240143" style="fill: #ffa15a; stroke: #3d3d3d"/>
    </g>
    <g clip-path="url(#p19cfe49e83)">
     <use xlink:href="#C6_0_68817e7984" x="356.465408" y="132.227551" style="fill: #ffa15a; stroke: #3d3d3d"/>
    </g>
    <g clip-path="url(#p19cfe49e83)">
     <use xlink:href="#C6_0_68817e7984" x="356.465408" y="123.542696" style="fill: #ffa15a; stroke: #3d3d3d"/>
    </g>
    <g clip-path="url(#p19cfe49e83)">
     <use xlink:href="#C6_0_68817e7984" x="352.734616" y="121.705515" style="fill: #ffa15a; stroke: #3d3d3d"/>
    </g>
    <g clip-path="url(#p19cfe49e83)">
     <use xlink:href="#C6_0_68817e7984" x="356.465408" y="90.703086" style="fill: #ffa15a; stroke: #3d3d3d"/>
    </g>
   </g>
   <g id="PathCollection_8">
    <defs>
     <path id="C7_0_aa654ad4a4" d="M 0 1.5 
C 0.397805 1.5 0.77937 1.341951 1.06066 1.06066 
C 1.341951 0.77937 1.5 0.397805 1.5 -0 
C 1.5 -0.397805 1.341951 -0.77937 1.06066 -1.06066 
C 0.77937 -1.341951 0.397805 -1.5 0 -1.5 
C -0.397805 -1.5 -0.77937 -1.341951 -1.06066 -1.06066 
C -1.341951 -0.77937 -1.5 -0.397805 -1.5 0 
C -1.5 0.397805 -1.341951 0.77937 -1.06066 1.06066 
C -0.77937 1.341951 -0.397805 1.5 0 1.5 
z
"/>
    </defs>
    <g clip-path="url(#p19cfe49e83)">
     <use xlink:href="#C7_0_aa654ad4a4" x="404.090909" y="226.855699" style="fill: #00cc96; stroke: #3d3d3d"/>
    </g>
    <g clip-path="url(#p19cfe49e83)">
     <use xlink:href="#C7_0_aa654ad4a4" x="404.090909" y="192.822649" style="fill: #00cc96; stroke: #3d3d3d"/>
    </g>
    <g clip-path="url(#p19cfe49e83)">
     <use xlink:href="#C7_0_aa654ad4a4" x="404.090909" y="206.936501" style="fill: #00cc96; stroke: #3d3d3d"/>
    </g>
    <g clip-path="url(#p19cfe49e83)">
     <use xlink:href="#C7_0_aa654ad4a4" x="404.090909" y="127.696322" style="fill: #ffa15a; stroke: #3d3d3d"/>
    </g>
    <g clip-path="url(#p19cfe49e83)">
     <use xlink:href="#C7_0_aa654ad4a4" x="404.090909" y="109.122559" style="fill: #ffa15a; stroke: #3d3d3d"/>
    </g>
    <g clip-path="url(#p19cfe49e83)">
     <use xlink:href="#C7_0_aa654ad4a4" x="404.090909" y="134.4608" style="fill: #ffa15a; stroke: #3d3d3d"/>
    </g>
   </g>
   <g id="line2d_18">
    <path d="M 70.7124 184.401638 
L 118.337901 189.911426 
L 165.963403 201.14614 
L 213.588904 201.817768 
L 261.214405 206.635491 
L 308.839907 204.19282 
L 356.465408 211.182917 
L 404.090909 208.871616 
" clip-path="url(#p19cfe49e83)" style="fill: none; stroke: #00cc96; stroke-width: 1.5; stroke-linecap: square"/>
   </g>
   <g id="line2d_19">
    <path d="M 70.7124 116.006126 
L 118.337901 117.934239 
L 165.963403 125.341907 
L 213.588904 130.630498 
L 261.214405 126.989285 
L 308.839907 126.171012 
L 356.465408 125.234661 
L 404.090909 123.759894 
" clip-path="url(#p19cfe49e83)" style="fill: none; stroke: #ffa15a; stroke-width: 1.5; stroke-linecap: square"/>
   </g>
   <g id="legend_1">
    <g id="patch_7">
     <path d="M 51.8 38.535776 
L 414.2 38.535776 
Q 416.2 38.535776 416.2 36.535776 
L 416.2 12.696401 
Q 416.2 10.696401 414.2 10.696401 
L 51.8 10.696401 
Q 49.8 10.696401 49.8 12.696401 
L 49.8 36.535776 
Q 49.8 38.535776 51.8 38.535776 
z
" style="fill: #ffffff; opacity: 0.8; stroke: #cccccc; stroke-linejoin: miter"/>
    </g>
    <g id="line2d_20">
     <path d="M 53.8 24.694995 
L 63.8 24.694995 
L 73.8 24.694995 
" style="fill: none; stroke: #00cc96; stroke-width: 1.5; stroke-linecap: square"/>
    </g>
    <g id="text_18">
     <!-- All GCaMP cells -->
     <g transform="translate(81.8 28.194995) scale(0.1 -0.1)">
      <defs>
       <path id="ArialMT-41" d="M -9 0 
L 1750 4581 
L 2403 4581 
L 4278 0 
L 3588 0 
L 3053 1388 
L 1138 1388 
L 634 0 
L -9 0 
z
M 1313 1881 
L 2866 1881 
L 2388 3150 
Q 2169 3728 2063 4100 
Q 1975 3659 1816 3225 
L 1313 1881 
z
" transform="scale(0.015625)"/>
       <path id="ArialMT-6c" d="M 409 0 
L 409 4581 
L 972 4581 
L 972 0 
L 409 0 
z
" transform="scale(0.015625)"/>
       <path id="ArialMT-20" transform="scale(0.015625)"/>
       <path id="ArialMT-47" d="M 2638 1797 
L 2638 2334 
L 4578 2338 
L 4578 638 
Q 4131 281 3656 101 
Q 3181 -78 2681 -78 
Q 2006 -78 1454 211 
Q 903 500 622 1047 
Q 341 1594 341 2269 
Q 341 2938 620 3517 
Q 900 4097 1425 4378 
Q 1950 4659 2634 4659 
Q 3131 4659 3532 4498 
Q 3934 4338 4162 4050 
Q 4391 3763 4509 3300 
L 3963 3150 
Q 3859 3500 3706 3700 
Q 3553 3900 3268 4020 
Q 2984 4141 2638 4141 
Q 2222 4141 1919 4014 
Q 1616 3888 1430 3681 
Q 1244 3475 1141 3228 
Q 966 2803 966 2306 
Q 966 1694 1177 1281 
Q 1388 869 1791 669 
Q 2194 469 2647 469 
Q 3041 469 3416 620 
Q 3791 772 3984 944 
L 3984 1797 
L 2638 1797 
z
" transform="scale(0.015625)"/>
       <path id="ArialMT-43" d="M 3763 1606 
L 4369 1453 
Q 4178 706 3683 314 
Q 3188 -78 2472 -78 
Q 1731 -78 1267 223 
Q 803 525 561 1097 
Q 319 1669 319 2325 
Q 319 3041 592 3573 
Q 866 4106 1370 4382 
Q 1875 4659 2481 4659 
Q 3169 4659 3637 4309 
Q 4106 3959 4291 3325 
L 3694 3184 
Q 3534 3684 3231 3912 
Q 2928 4141 2469 4141 
Q 1941 4141 1586 3887 
Q 1231 3634 1087 3207 
Q 944 2781 944 2328 
Q 944 1744 1114 1308 
Q 1284 872 1643 656 
Q 2003 441 2422 441 
Q 2931 441 3284 734 
Q 3638 1028 3763 1606 
z
" transform="scale(0.015625)"/>
       <path id="ArialMT-61" d="M 2588 409 
Q 2275 144 1986 34 
Q 1697 -75 1366 -75 
Q 819 -75 525 192 
Q 231 459 231 875 
Q 231 1119 342 1320 
Q 453 1522 633 1644 
Q 813 1766 1038 1828 
Q 1203 1872 1538 1913 
Q 2219 1994 2541 2106 
Q 2544 2222 2544 2253 
Q 2544 2597 2384 2738 
Q 2169 2928 1744 2928 
Q 1347 2928 1158 2789 
Q 969 2650 878 2297 
L 328 2372 
Q 403 2725 575 2942 
Q 747 3159 1072 3276 
Q 1397 3394 1825 3394 
Q 2250 3394 2515 3294 
Q 2781 3194 2906 3042 
Q 3031 2891 3081 2659 
Q 3109 2516 3109 2141 
L 3109 1391 
Q 3109 606 3145 398 
Q 3181 191 3288 0 
L 2700 0 
Q 2613 175 2588 409 
z
M 2541 1666 
Q 2234 1541 1622 1453 
Q 1275 1403 1131 1340 
Q 988 1278 909 1158 
Q 831 1038 831 891 
Q 831 666 1001 516 
Q 1172 366 1500 366 
Q 1825 366 2078 508 
Q 2331 650 2450 897 
Q 2541 1088 2541 1459 
L 2541 1666 
z
" transform="scale(0.015625)"/>
       <path id="ArialMT-4d" d="M 475 0 
L 475 4581 
L 1388 4581 
L 2472 1338 
Q 2622 884 2691 659 
Q 2769 909 2934 1394 
L 4031 4581 
L 4847 4581 
L 4847 0 
L 4263 0 
L 4263 3834 
L 2931 0 
L 2384 0 
L 1059 3900 
L 1059 0 
L 475 0 
z
" transform="scale(0.015625)"/>
       <path id="ArialMT-50" d="M 494 0 
L 494 4581 
L 2222 4581 
Q 2678 4581 2919 4538 
Q 3256 4481 3484 4323 
Q 3713 4166 3852 3881 
Q 3991 3597 3991 3256 
Q 3991 2672 3619 2267 
Q 3247 1863 2275 1863 
L 1100 1863 
L 1100 0 
L 494 0 
z
M 1100 2403 
L 2284 2403 
Q 2872 2403 3119 2622 
Q 3366 2841 3366 3238 
Q 3366 3525 3220 3729 
Q 3075 3934 2838 4000 
Q 2684 4041 2272 4041 
L 1100 4041 
L 1100 2403 
z
" transform="scale(0.015625)"/>
       <path id="ArialMT-63" d="M 2588 1216 
L 3141 1144 
Q 3050 572 2676 248 
Q 2303 -75 1759 -75 
Q 1078 -75 664 370 
Q 250 816 250 1647 
Q 250 2184 428 2587 
Q 606 2991 970 3192 
Q 1334 3394 1763 3394 
Q 2303 3394 2647 3120 
Q 2991 2847 3088 2344 
L 2541 2259 
Q 2463 2594 2264 2762 
Q 2066 2931 1784 2931 
Q 1359 2931 1093 2626 
Q 828 2322 828 1663 
Q 828 994 1084 691 
Q 1341 388 1753 388 
Q 2084 388 2306 591 
Q 2528 794 2588 1216 
z
" transform="scale(0.015625)"/>
       <path id="ArialMT-65" d="M 2694 1069 
L 3275 997 
Q 3138 488 2766 206 
Q 2394 -75 1816 -75 
Q 1088 -75 661 373 
Q 234 822 234 1631 
Q 234 2469 665 2931 
Q 1097 3394 1784 3394 
Q 2450 3394 2872 2941 
Q 3294 2488 3294 1666 
Q 3294 1616 3291 1516 
L 816 1516 
Q 847 969 1125 678 
Q 1403 388 1819 388 
Q 2128 388 2347 550 
Q 2566 713 2694 1069 
z
M 847 1978 
L 2700 1978 
Q 2663 2397 2488 2606 
Q 2219 2931 1791 2931 
Q 1403 2931 1139 2672 
Q 875 2413 847 1978 
z
" transform="scale(0.015625)"/>
       <path id="ArialMT-73" d="M 197 991 
L 753 1078 
Q 800 744 1014 566 
Q 1228 388 1613 388 
Q 2000 388 2187 545 
Q 2375 703 2375 916 
Q 2375 1106 2209 1216 
Q 2094 1291 1634 1406 
Q 1016 1563 777 1677 
Q 538 1791 414 1992 
Q 291 2194 291 2438 
Q 291 2659 392 2848 
Q 494 3038 669 3163 
Q 800 3259 1026 3326 
Q 1253 3394 1513 3394 
Q 1903 3394 2198 3281 
Q 2494 3169 2634 2976 
Q 2775 2784 2828 2463 
L 2278 2388 
Q 2241 2644 2061 2787 
Q 1881 2931 1553 2931 
Q 1166 2931 1000 2803 
Q 834 2675 834 2503 
Q 834 2394 903 2306 
Q 972 2216 1119 2156 
Q 1203 2125 1616 2013 
Q 2213 1853 2448 1751 
Q 2684 1650 2818 1456 
Q 2953 1263 2953 975 
Q 2953 694 2789 445 
Q 2625 197 2315 61 
Q 2006 -75 1616 -75 
Q 969 -75 630 194 
Q 291 463 197 991 
z
" transform="scale(0.015625)"/>
      </defs>
      <use xlink:href="#ArialMT-41"/>
      <use xlink:href="#ArialMT-6c" x="66.699219"/>
      <use xlink:href="#ArialMT-6c" x="88.916016"/>
      <use xlink:href="#ArialMT-20" x="111.132812"/>
      <use xlink:href="#ArialMT-47" x="138.916016"/>
      <use xlink:href="#ArialMT-43" x="216.699219"/>
      <use xlink:href="#ArialMT-61" x="288.916016"/>
      <use xlink:href="#ArialMT-4d" x="344.53125"/>
      <use xlink:href="#ArialMT-50" x="427.832031"/>
      <use xlink:href="#ArialMT-20" x="492.78125"/>
      <use xlink:href="#ArialMT-63" x="520.564453"/>
      <use xlink:href="#ArialMT-65" x="570.564453"/>
      <use xlink:href="#ArialMT-6c" x="626.179688"/>
      <use xlink:href="#ArialMT-6c" x="648.396484"/>
      <use xlink:href="#ArialMT-73" x="670.613281"/>
     </g>
    </g>
    <g id="line2d_21">
     <path d="M 275.271875 24.694995 
L 285.271875 24.694995 
L 295.271875 24.694995 
" style="fill: none; stroke: #ffa15a; stroke-width: 1.5; stroke-linecap: square"/>
    </g>
    <g id="text_19">
     <!-- GCaMP cells -->
     <g transform="translate(303.271875 21.854214) scale(0.1 -0.1)">
      <use xlink:href="#ArialMT-47"/>
      <use xlink:href="#ArialMT-43" x="77.783203"/>
      <use xlink:href="#ArialMT-61" x="150"/>
      <use xlink:href="#ArialMT-4d" x="205.615234"/>
      <use xlink:href="#ArialMT-50" x="288.916016"/>
      <use xlink:href="#ArialMT-20" x="353.865234"/>
      <use xlink:href="#ArialMT-63" x="381.648438"/>
      <use xlink:href="#ArialMT-65" x="431.648438"/>
      <use xlink:href="#ArialMT-6c" x="487.263672"/>
      <use xlink:href="#ArialMT-6c" x="509.480469"/>
      <use xlink:href="#ArialMT-73" x="531.697266"/>
     </g>
     <!-- registered with tdTomato -->
     <g transform="translate(303.271875 32.431088) scale(0.1 -0.1)">
      <defs>
       <path id="ArialMT-72" d="M 416 0 
L 416 3319 
L 922 3319 
L 922 2816 
Q 1116 3169 1280 3281 
Q 1444 3394 1641 3394 
Q 1925 3394 2219 3213 
L 2025 2691 
Q 1819 2813 1613 2813 
Q 1428 2813 1281 2702 
Q 1134 2591 1072 2394 
Q 978 2094 978 1738 
L 978 0 
L 416 0 
z
" transform="scale(0.015625)"/>
       <path id="ArialMT-67" d="M 319 -275 
L 866 -356 
Q 900 -609 1056 -725 
Q 1266 -881 1628 -881 
Q 2019 -881 2231 -725 
Q 2444 -569 2519 -288 
Q 2563 -116 2559 434 
Q 2191 0 1641 0 
Q 956 0 581 494 
Q 206 988 206 1678 
Q 206 2153 378 2554 
Q 550 2956 876 3175 
Q 1203 3394 1644 3394 
Q 2231 3394 2613 2919 
L 2613 3319 
L 3131 3319 
L 3131 450 
Q 3131 -325 2973 -648 
Q 2816 -972 2473 -1159 
Q 2131 -1347 1631 -1347 
Q 1038 -1347 672 -1080 
Q 306 -813 319 -275 
z
M 784 1719 
Q 784 1066 1043 766 
Q 1303 466 1694 466 
Q 2081 466 2343 764 
Q 2606 1063 2606 1700 
Q 2606 2309 2336 2618 
Q 2066 2928 1684 2928 
Q 1309 2928 1046 2623 
Q 784 2319 784 1719 
z
" transform="scale(0.015625)"/>
       <path id="ArialMT-69" d="M 425 3934 
L 425 4581 
L 988 4581 
L 988 3934 
L 425 3934 
z
M 425 0 
L 425 3319 
L 988 3319 
L 988 0 
L 425 0 
z
" transform="scale(0.015625)"/>
       <path id="ArialMT-74" d="M 1650 503 
L 1731 6 
Q 1494 -44 1306 -44 
Q 1000 -44 831 53 
Q 663 150 594 308 
Q 525 466 525 972 
L 525 2881 
L 113 2881 
L 113 3319 
L 525 3319 
L 525 4141 
L 1084 4478 
L 1084 3319 
L 1650 3319 
L 1650 2881 
L 1084 2881 
L 1084 941 
Q 1084 700 1114 631 
Q 1144 563 1211 522 
Q 1278 481 1403 481 
Q 1497 481 1650 503 
z
" transform="scale(0.015625)"/>
       <path id="ArialMT-64" d="M 2575 0 
L 2575 419 
Q 2259 -75 1647 -75 
Q 1250 -75 917 144 
Q 584 363 401 755 
Q 219 1147 219 1656 
Q 219 2153 384 2558 
Q 550 2963 881 3178 
Q 1213 3394 1622 3394 
Q 1922 3394 2156 3267 
Q 2391 3141 2538 2938 
L 2538 4581 
L 3097 4581 
L 3097 0 
L 2575 0 
z
M 797 1656 
Q 797 1019 1065 703 
Q 1334 388 1700 388 
Q 2069 388 2326 689 
Q 2584 991 2584 1609 
Q 2584 2291 2321 2609 
Q 2059 2928 1675 2928 
Q 1300 2928 1048 2622 
Q 797 2316 797 1656 
z
" transform="scale(0.015625)"/>
       <path id="ArialMT-77" d="M 1034 0 
L 19 3319 
L 600 3319 
L 1128 1403 
L 1325 691 
Q 1338 744 1497 1375 
L 2025 3319 
L 2603 3319 
L 3100 1394 
L 3266 759 
L 3456 1400 
L 4025 3319 
L 4572 3319 
L 3534 0 
L 2950 0 
L 2422 1988 
L 2294 2553 
L 1622 0 
L 1034 0 
z
" transform="scale(0.015625)"/>
       <path id="ArialMT-68" d="M 422 0 
L 422 4581 
L 984 4581 
L 984 2938 
Q 1378 3394 1978 3394 
Q 2347 3394 2619 3248 
Q 2891 3103 3008 2847 
Q 3125 2591 3125 2103 
L 3125 0 
L 2563 0 
L 2563 2103 
Q 2563 2525 2380 2717 
Q 2197 2909 1863 2909 
Q 1613 2909 1392 2779 
Q 1172 2650 1078 2428 
Q 984 2206 984 1816 
L 984 0 
L 422 0 
z
" transform="scale(0.015625)"/>
       <path id="ArialMT-54" d="M 1659 0 
L 1659 4041 
L 150 4041 
L 150 4581 
L 3781 4581 
L 3781 4041 
L 2266 4041 
L 2266 0 
L 1659 0 
z
" transform="scale(0.015625)"/>
       <path id="ArialMT-6f" d="M 213 1659 
Q 213 2581 725 3025 
Q 1153 3394 1769 3394 
Q 2453 3394 2887 2945 
Q 3322 2497 3322 1706 
Q 3322 1066 3130 698 
Q 2938 331 2570 128 
Q 2203 -75 1769 -75 
Q 1072 -75 642 372 
Q 213 819 213 1659 
z
M 791 1659 
Q 791 1022 1069 705 
Q 1347 388 1769 388 
Q 2188 388 2466 706 
Q 2744 1025 2744 1678 
Q 2744 2294 2464 2611 
Q 2184 2928 1769 2928 
Q 1347 2928 1069 2612 
Q 791 2297 791 1659 
z
" transform="scale(0.015625)"/>
       <path id="ArialMT-6d" d="M 422 0 
L 422 3319 
L 925 3319 
L 925 2853 
Q 1081 3097 1340 3245 
Q 1600 3394 1931 3394 
Q 2300 3394 2536 3241 
Q 2772 3088 2869 2813 
Q 3263 3394 3894 3394 
Q 4388 3394 4653 3120 
Q 4919 2847 4919 2278 
L 4919 0 
L 4359 0 
L 4359 2091 
Q 4359 2428 4304 2576 
Q 4250 2725 4106 2815 
Q 3963 2906 3769 2906 
Q 3419 2906 3187 2673 
Q 2956 2441 2956 1928 
L 2956 0 
L 2394 0 
L 2394 2156 
Q 2394 2531 2256 2718 
Q 2119 2906 1806 2906 
Q 1569 2906 1367 2781 
Q 1166 2656 1075 2415 
Q 984 2175 984 1722 
L 984 0 
L 422 0 
z
" transform="scale(0.015625)"/>
      </defs>
      <use xlink:href="#ArialMT-72"/>
      <use xlink:href="#ArialMT-65" x="33.300781"/>
      <use xlink:href="#ArialMT-67" x="88.916016"/>
      <use xlink:href="#ArialMT-69" x="144.53125"/>
      <use xlink:href="#ArialMT-73" x="166.748047"/>
      <use xlink:href="#ArialMT-74" x="216.748047"/>
      <use xlink:href="#ArialMT-65" x="244.53125"/>
      <use xlink:href="#ArialMT-72" x="300.146484"/>
      <use xlink:href="#ArialMT-65" x="333.447266"/>
      <use xlink:href="#ArialMT-64" x="389.0625"/>
      <use xlink:href="#ArialMT-20" x="444.677734"/>
      <use xlink:href="#ArialMT-77" x="472.460938"/>
      <use xlink:href="#ArialMT-69" x="544.677734"/>
      <use xlink:href="#ArialMT-74" x="566.894531"/>
      <use xlink:href="#ArialMT-68" x="594.677734"/>
      <use xlink:href="#ArialMT-20" x="650.292969"/>
      <use xlink:href="#ArialMT-74" x="678.076172"/>
      <use xlink:href="#ArialMT-64" x="705.859375"/>
      <use xlink:href="#ArialMT-54" x="761.474609"/>
      <use xlink:href="#ArialMT-6f" x="811.433594"/>
      <use xlink:href="#ArialMT-6d" x="867.048828"/>
      <use xlink:href="#ArialMT-61" x="950.349609"/>
      <use xlink:href="#ArialMT-74" x="1005.964844"/>
      <use xlink:href="#ArialMT-6f" x="1033.748047"/>
     </g>
    </g>
   </g>
  </g>
 </g>
 <defs>
  <clipPath id="p19cfe49e83">
   <rect x="44.8" y="47.5488" width="376.4" height="200.6512"/>
  </clipPath>
 </defs>
</svg>
