<?xml version="1.0" encoding="utf-8" standalone="no"?>
<!DOCTYPE svg PUBLIC "-//W3C//DTD SVG 1.1//EN"
  "http://www.w3.org/Graphics/SVG/1.1/DTD/svg11.dtd">
<!-- Created with matplotlib (https://matplotlib.org/) -->
<svg height="345.6pt" version="1.1" viewBox="0 0 540 345.6" width="540pt" xmlns="http://www.w3.org/2000/svg" xmlns:xlink="http://www.w3.org/1999/xlink">
 <defs>
  <style type="text/css">
*{stroke-linecap:butt;stroke-linejoin:round;}
  </style>
 </defs>
 <g id="figure_1">
  <g id="patch_1">
   <path d="M 0 345.6 
L 540 345.6 
L 540 0 
L 0 0 
z
" style="fill:#ffffff;"/>
  </g>
  <g id="axes_1">
   <g id="patch_2">
    <path d="M 67.5 302.4 
L 486 302.4 
L 486 41.472 
L 67.5 41.472 
z
" style="fill:#ffffff;"/>
   </g>
   <g id="PolyCollection_1">
    <defs>
     <path d="M 106.796732 -180.242501 
L 106.796732 -170.393528 
L 192.554004 -153.08104 
L 278.311275 -130.954823 
L 364.068547 -126.236197 
L 449.825818 -137.140749 
L 449.825818 -158.302136 
L 449.825818 -158.302136 
L 364.068547 -146.88707 
L 278.311275 -144.384852 
L 192.554004 -163.855259 
L 106.796732 -180.242501 
z
" id="mc5a86ff3a1" style="stroke:#1f77b4;stroke-opacity:0.2;"/>
    </defs>
    <g clip-path="url(#pbaa60c7862)">
     <use style="fill:#1f77b4;fill-opacity:0.2;stroke:#1f77b4;stroke-opacity:0.2;" x="0" xlink:href="#mc5a86ff3a1" y="345.6"/>
    </g>
   </g>
   <g id="PolyCollection_2">
    <defs>
     <path d="M 106.796732 -181.173569 
L 106.796732 -167.548591 
L 192.554004 -164.234386 
L 278.311275 -130.558949 
L 364.068547 -137.39725 
L 449.825818 -104.903435 
L 449.825818 -135.064635 
L 449.825818 -135.064635 
L 364.068547 -167.015601 
L 278.311275 -150.624207 
L 192.554004 -178.217522 
L 106.796732 -181.173569 
z
" id="me3411a1575" style="stroke:#ff7f0e;stroke-opacity:0.2;"/>
    </defs>
    <g clip-path="url(#pbaa60c7862)">
     <use style="fill:#ff7f0e;fill-opacity:0.2;stroke:#ff7f0e;stroke-opacity:0.2;" x="0" xlink:href="#me3411a1575" y="345.6"/>
    </g>
   </g>
   <g id="matplotlib.axis_1">
    <g id="xtick_1">
     <g id="line2d_1">
      <defs>
       <path d="M 0 0 
L 0 3.5 
" id="m83ffdab191" style="stroke:#000000;stroke-width:0.8;"/>
      </defs>
      <g>
       <use style="stroke:#000000;stroke-width:0.8;" x="106.796732" xlink:href="#m83ffdab191" y="302.4"/>
      </g>
     </g>
     <g id="text_1">
      <!-- 2 -->
      <defs>
       <path d="M 19.1875 8.296875 
L 53.609375 8.296875 
L 53.609375 0 
L 7.328125 0 
L 7.328125 8.296875 
Q 12.9375 14.109375 22.625 23.890625 
Q 32.328125 33.6875 34.8125 36.53125 
Q 39.546875 41.84375 41.421875 45.53125 
Q 43.3125 49.21875 43.3125 52.78125 
Q 43.3125 58.59375 39.234375 62.25 
Q 35.15625 65.921875 28.609375 65.921875 
Q 23.96875 65.921875 18.8125 64.3125 
Q 13.671875 62.703125 7.8125 59.421875 
L 7.8125 69.390625 
Q 13.765625 71.78125 18.9375 73 
Q 24.125 74.21875 28.421875 74.21875 
Q 39.75 74.21875 46.484375 68.546875 
Q 53.21875 62.890625 53.21875 53.421875 
Q 53.21875 48.921875 51.53125 44.890625 
Q 49.859375 40.875 45.40625 35.40625 
Q 44.1875 33.984375 37.640625 27.21875 
Q 31.109375 20.453125 19.1875 8.296875 
z
" id="DejaVuSans-50"/>
      </defs>
      <g transform="translate(103.615482 316.998437)scale(0.1 -0.1)">
       <use xlink:href="#DejaVuSans-50"/>
      </g>
     </g>
    </g>
    <g id="xtick_2">
     <g id="line2d_2">
      <g>
       <use style="stroke:#000000;stroke-width:0.8;" x="192.554004" xlink:href="#m83ffdab191" y="302.4"/>
      </g>
     </g>
     <g id="text_2">
      <!-- 4 -->
      <defs>
       <path d="M 37.796875 64.3125 
L 12.890625 25.390625 
L 37.796875 25.390625 
z
M 35.203125 72.90625 
L 47.609375 72.90625 
L 47.609375 25.390625 
L 58.015625 25.390625 
L 58.015625 17.1875 
L 47.609375 17.1875 
L 47.609375 0 
L 37.796875 0 
L 37.796875 17.1875 
L 4.890625 17.1875 
L 4.890625 26.703125 
z
" id="DejaVuSans-52"/>
      </defs>
      <g transform="translate(189.372754 316.998437)scale(0.1 -0.1)">
       <use xlink:href="#DejaVuSans-52"/>
      </g>
     </g>
    </g>
    <g id="xtick_3">
     <g id="line2d_3">
      <g>
       <use style="stroke:#000000;stroke-width:0.8;" x="278.311275" xlink:href="#m83ffdab191" y="302.4"/>
      </g>
     </g>
     <g id="text_3">
      <!-- 6 -->
      <defs>
       <path d="M 33.015625 40.375 
Q 26.375 40.375 22.484375 35.828125 
Q 18.609375 31.296875 18.609375 23.390625 
Q 18.609375 15.53125 22.484375 10.953125 
Q 26.375 6.390625 33.015625 6.390625 
Q 39.65625 6.390625 43.53125 10.953125 
Q 47.40625 15.53125 47.40625 23.390625 
Q 47.40625 31.296875 43.53125 35.828125 
Q 39.65625 40.375 33.015625 40.375 
z
M 52.59375 71.296875 
L 52.59375 62.3125 
Q 48.875 64.0625 45.09375 64.984375 
Q 41.3125 65.921875 37.59375 65.921875 
Q 27.828125 65.921875 22.671875 59.328125 
Q 17.53125 52.734375 16.796875 39.40625 
Q 19.671875 43.65625 24.015625 45.921875 
Q 28.375 48.1875 33.59375 48.1875 
Q 44.578125 48.1875 50.953125 41.515625 
Q 57.328125 34.859375 57.328125 23.390625 
Q 57.328125 12.15625 50.6875 5.359375 
Q 44.046875 -1.421875 33.015625 -1.421875 
Q 20.359375 -1.421875 13.671875 8.265625 
Q 6.984375 17.96875 6.984375 36.375 
Q 6.984375 53.65625 15.1875 63.9375 
Q 23.390625 74.21875 37.203125 74.21875 
Q 40.921875 74.21875 44.703125 73.484375 
Q 48.484375 72.75 52.59375 71.296875 
z
" id="DejaVuSans-54"/>
      </defs>
      <g transform="translate(275.130025 316.998437)scale(0.1 -0.1)">
       <use xlink:href="#DejaVuSans-54"/>
      </g>
     </g>
    </g>
    <g id="xtick_4">
     <g id="line2d_4">
      <g>
       <use style="stroke:#000000;stroke-width:0.8;" x="364.068547" xlink:href="#m83ffdab191" y="302.4"/>
      </g>
     </g>
     <g id="text_4">
      <!-- 8 -->
      <defs>
       <path d="M 31.78125 34.625 
Q 24.75 34.625 20.71875 30.859375 
Q 16.703125 27.09375 16.703125 20.515625 
Q 16.703125 13.921875 20.71875 10.15625 
Q 24.75 6.390625 31.78125 6.390625 
Q 38.8125 6.390625 42.859375 10.171875 
Q 46.921875 13.96875 46.921875 20.515625 
Q 46.921875 27.09375 42.890625 30.859375 
Q 38.875 34.625 31.78125 34.625 
z
M 21.921875 38.8125 
Q 15.578125 40.375 12.03125 44.71875 
Q 8.5 49.078125 8.5 55.328125 
Q 8.5 64.0625 14.71875 69.140625 
Q 20.953125 74.21875 31.78125 74.21875 
Q 42.671875 74.21875 48.875 69.140625 
Q 55.078125 64.0625 55.078125 55.328125 
Q 55.078125 49.078125 51.53125 44.71875 
Q 48 40.375 41.703125 38.8125 
Q 48.828125 37.15625 52.796875 32.3125 
Q 56.78125 27.484375 56.78125 20.515625 
Q 56.78125 9.90625 50.3125 4.234375 
Q 43.84375 -1.421875 31.78125 -1.421875 
Q 19.734375 -1.421875 13.25 4.234375 
Q 6.78125 9.90625 6.78125 20.515625 
Q 6.78125 27.484375 10.78125 32.3125 
Q 14.796875 37.15625 21.921875 38.8125 
z
M 18.3125 54.390625 
Q 18.3125 48.734375 21.84375 45.5625 
Q 25.390625 42.390625 31.78125 42.390625 
Q 38.140625 42.390625 41.71875 45.5625 
Q 45.3125 48.734375 45.3125 54.390625 
Q 45.3125 60.0625 41.71875 63.234375 
Q 38.140625 66.40625 31.78125 66.40625 
Q 25.390625 66.40625 21.84375 63.234375 
Q 18.3125 60.0625 18.3125 54.390625 
z
" id="DejaVuSans-56"/>
      </defs>
      <g transform="translate(360.887297 316.998437)scale(0.1 -0.1)">
       <use xlink:href="#DejaVuSans-56"/>
      </g>
     </g>
    </g>
    <g id="xtick_5">
     <g id="line2d_5">
      <g>
       <use style="stroke:#000000;stroke-width:0.8;" x="449.825818" xlink:href="#m83ffdab191" y="302.4"/>
      </g>
     </g>
     <g id="text_5">
      <!-- 10 -->
      <defs>
       <path d="M 12.40625 8.296875 
L 28.515625 8.296875 
L 28.515625 63.921875 
L 10.984375 60.40625 
L 10.984375 69.390625 
L 28.421875 72.90625 
L 38.28125 72.90625 
L 38.28125 8.296875 
L 54.390625 8.296875 
L 54.390625 0 
L 12.40625 0 
z
" id="DejaVuSans-49"/>
       <path d="M 31.78125 66.40625 
Q 24.171875 66.40625 20.328125 58.90625 
Q 16.5 51.421875 16.5 36.375 
Q 16.5 21.390625 20.328125 13.890625 
Q 24.171875 6.390625 31.78125 6.390625 
Q 39.453125 6.390625 43.28125 13.890625 
Q 47.125 21.390625 47.125 36.375 
Q 47.125 51.421875 43.28125 58.90625 
Q 39.453125 66.40625 31.78125 66.40625 
z
M 31.78125 74.21875 
Q 44.046875 74.21875 50.515625 64.515625 
Q 56.984375 54.828125 56.984375 36.375 
Q 56.984375 17.96875 50.515625 8.265625 
Q 44.046875 -1.421875 31.78125 -1.421875 
Q 19.53125 -1.421875 13.0625 8.265625 
Q 6.59375 17.96875 6.59375 36.375 
Q 6.59375 54.828125 13.0625 64.515625 
Q 19.53125 74.21875 31.78125 74.21875 
z
" id="DejaVuSans-48"/>
      </defs>
      <g transform="translate(443.463318 316.998437)scale(0.1 -0.1)">
       <use xlink:href="#DejaVuSans-49"/>
       <use x="63.623047" xlink:href="#DejaVuSans-48"/>
      </g>
     </g>
    </g>
    <g id="text_6">
     <!-- Days apart -->
     <defs>
      <path d="M 19.671875 64.796875 
L 19.671875 8.109375 
L 31.59375 8.109375 
Q 46.6875 8.109375 53.6875 14.9375 
Q 60.6875 21.78125 60.6875 36.53125 
Q 60.6875 51.171875 53.6875 57.984375 
Q 46.6875 64.796875 31.59375 64.796875 
z
M 9.8125 72.90625 
L 30.078125 72.90625 
Q 51.265625 72.90625 61.171875 64.09375 
Q 71.09375 55.28125 71.09375 36.53125 
Q 71.09375 17.671875 61.125 8.828125 
Q 51.171875 0 30.078125 0 
L 9.8125 0 
z
" id="DejaVuSans-68"/>
      <path d="M 34.28125 27.484375 
Q 23.390625 27.484375 19.1875 25 
Q 14.984375 22.515625 14.984375 16.5 
Q 14.984375 11.71875 18.140625 8.90625 
Q 21.296875 6.109375 26.703125 6.109375 
Q 34.1875 6.109375 38.703125 11.40625 
Q 43.21875 16.703125 43.21875 25.484375 
L 43.21875 27.484375 
z
M 52.203125 31.203125 
L 52.203125 0 
L 43.21875 0 
L 43.21875 8.296875 
Q 40.140625 3.328125 35.546875 0.953125 
Q 30.953125 -1.421875 24.3125 -1.421875 
Q 15.921875 -1.421875 10.953125 3.296875 
Q 6 8.015625 6 15.921875 
Q 6 25.140625 12.171875 29.828125 
Q 18.359375 34.515625 30.609375 34.515625 
L 43.21875 34.515625 
L 43.21875 35.40625 
Q 43.21875 41.609375 39.140625 45 
Q 35.0625 48.390625 27.6875 48.390625 
Q 23 48.390625 18.546875 47.265625 
Q 14.109375 46.140625 10.015625 43.890625 
L 10.015625 52.203125 
Q 14.9375 54.109375 19.578125 55.046875 
Q 24.21875 56 28.609375 56 
Q 40.484375 56 46.34375 49.84375 
Q 52.203125 43.703125 52.203125 31.203125 
z
" id="DejaVuSans-97"/>
      <path d="M 32.171875 -5.078125 
Q 28.375 -14.84375 24.75 -17.8125 
Q 21.140625 -20.796875 15.09375 -20.796875 
L 7.90625 -20.796875 
L 7.90625 -13.28125 
L 13.1875 -13.28125 
Q 16.890625 -13.28125 18.9375 -11.515625 
Q 21 -9.765625 23.484375 -3.21875 
L 25.09375 0.875 
L 2.984375 54.6875 
L 12.5 54.6875 
L 29.59375 11.921875 
L 46.6875 54.6875 
L 56.203125 54.6875 
z
" id="DejaVuSans-121"/>
      <path d="M 44.28125 53.078125 
L 44.28125 44.578125 
Q 40.484375 46.53125 36.375 47.5 
Q 32.28125 48.484375 27.875 48.484375 
Q 21.1875 48.484375 17.84375 46.4375 
Q 14.5 44.390625 14.5 40.28125 
Q 14.5 37.15625 16.890625 35.375 
Q 19.28125 33.59375 26.515625 31.984375 
L 29.59375 31.296875 
Q 39.15625 29.25 43.1875 25.515625 
Q 47.21875 21.78125 47.21875 15.09375 
Q 47.21875 7.46875 41.1875 3.015625 
Q 35.15625 -1.421875 24.609375 -1.421875 
Q 20.21875 -1.421875 15.453125 -0.5625 
Q 10.6875 0.296875 5.421875 2 
L 5.421875 11.28125 
Q 10.40625 8.6875 15.234375 7.390625 
Q 20.0625 6.109375 24.8125 6.109375 
Q 31.15625 6.109375 34.5625 8.28125 
Q 37.984375 10.453125 37.984375 14.40625 
Q 37.984375 18.0625 35.515625 20.015625 
Q 33.0625 21.96875 24.703125 23.78125 
L 21.578125 24.515625 
Q 13.234375 26.265625 9.515625 29.90625 
Q 5.8125 33.546875 5.8125 39.890625 
Q 5.8125 47.609375 11.28125 51.796875 
Q 16.75 56 26.8125 56 
Q 31.78125 56 36.171875 55.265625 
Q 40.578125 54.546875 44.28125 53.078125 
z
" id="DejaVuSans-115"/>
      <path id="DejaVuSans-32"/>
      <path d="M 18.109375 8.203125 
L 18.109375 -20.796875 
L 9.078125 -20.796875 
L 9.078125 54.6875 
L 18.109375 54.6875 
L 18.109375 46.390625 
Q 20.953125 51.265625 25.265625 53.625 
Q 29.59375 56 35.59375 56 
Q 45.5625 56 51.78125 48.09375 
Q 58.015625 40.1875 58.015625 27.296875 
Q 58.015625 14.40625 51.78125 6.484375 
Q 45.5625 -1.421875 35.59375 -1.421875 
Q 29.59375 -1.421875 25.265625 0.953125 
Q 20.953125 3.328125 18.109375 8.203125 
z
M 48.6875 27.296875 
Q 48.6875 37.203125 44.609375 42.84375 
Q 40.53125 48.484375 33.40625 48.484375 
Q 26.265625 48.484375 22.1875 42.84375 
Q 18.109375 37.203125 18.109375 27.296875 
Q 18.109375 17.390625 22.1875 11.75 
Q 26.265625 6.109375 33.40625 6.109375 
Q 40.53125 6.109375 44.609375 11.75 
Q 48.6875 17.390625 48.6875 27.296875 
z
" id="DejaVuSans-112"/>
      <path d="M 41.109375 46.296875 
Q 39.59375 47.171875 37.8125 47.578125 
Q 36.03125 48 33.890625 48 
Q 26.265625 48 22.1875 43.046875 
Q 18.109375 38.09375 18.109375 28.8125 
L 18.109375 0 
L 9.078125 0 
L 9.078125 54.6875 
L 18.109375 54.6875 
L 18.109375 46.1875 
Q 20.953125 51.171875 25.484375 53.578125 
Q 30.03125 56 36.53125 56 
Q 37.453125 56 38.578125 55.875 
Q 39.703125 55.765625 41.0625 55.515625 
z
" id="DejaVuSans-114"/>
      <path d="M 18.3125 70.21875 
L 18.3125 54.6875 
L 36.8125 54.6875 
L 36.8125 47.703125 
L 18.3125 47.703125 
L 18.3125 18.015625 
Q 18.3125 11.328125 20.140625 9.421875 
Q 21.96875 7.515625 27.59375 7.515625 
L 36.8125 7.515625 
L 36.8125 0 
L 27.59375 0 
Q 17.1875 0 13.234375 3.875 
Q 9.28125 7.765625 9.28125 18.015625 
L 9.28125 47.703125 
L 2.6875 47.703125 
L 2.6875 54.6875 
L 9.28125 54.6875 
L 9.28125 70.21875 
z
" id="DejaVuSans-116"/>
     </defs>
     <g transform="translate(249.364844 330.676562)scale(0.1 -0.1)">
      <use xlink:href="#DejaVuSans-68"/>
      <use x="77.001953" xlink:href="#DejaVuSans-97"/>
      <use x="138.28125" xlink:href="#DejaVuSans-121"/>
      <use x="197.460938" xlink:href="#DejaVuSans-115"/>
      <use x="249.560547" xlink:href="#DejaVuSans-32"/>
      <use x="281.347656" xlink:href="#DejaVuSans-97"/>
      <use x="342.626953" xlink:href="#DejaVuSans-112"/>
      <use x="406.103516" xlink:href="#DejaVuSans-97"/>
      <use x="467.382812" xlink:href="#DejaVuSans-114"/>
      <use x="508.496094" xlink:href="#DejaVuSans-116"/>
     </g>
    </g>
   </g>
   <g id="matplotlib.axis_2">
    <g id="ytick_1">
     <g id="line2d_6">
      <defs>
       <path d="M 0 0 
L -3.5 0 
" id="m06634f6e08" style="stroke:#000000;stroke-width:0.8;"/>
      </defs>
      <g>
       <use style="stroke:#000000;stroke-width:0.8;" x="67.5" xlink:href="#m06634f6e08" y="302.4"/>
      </g>
     </g>
     <g id="text_7">
      <!-- 0.0 -->
      <defs>
       <path d="M 10.6875 12.40625 
L 21 12.40625 
L 21 0 
L 10.6875 0 
z
" id="DejaVuSans-46"/>
      </defs>
      <g transform="translate(44.596875 306.199219)scale(0.1 -0.1)">
       <use xlink:href="#DejaVuSans-48"/>
       <use x="63.623047" xlink:href="#DejaVuSans-46"/>
       <use x="95.410156" xlink:href="#DejaVuSans-48"/>
      </g>
     </g>
    </g>
    <g id="ytick_2">
     <g id="line2d_7">
      <g>
       <use style="stroke:#000000;stroke-width:0.8;" x="67.5" xlink:href="#m06634f6e08" y="254.958545"/>
      </g>
     </g>
     <g id="text_8">
      <!-- 0.2 -->
      <g transform="translate(44.596875 258.757764)scale(0.1 -0.1)">
       <use xlink:href="#DejaVuSans-48"/>
       <use x="63.623047" xlink:href="#DejaVuSans-46"/>
       <use x="95.410156" xlink:href="#DejaVuSans-50"/>
      </g>
     </g>
    </g>
    <g id="ytick_3">
     <g id="line2d_8">
      <g>
       <use style="stroke:#000000;stroke-width:0.8;" x="67.5" xlink:href="#m06634f6e08" y="207.517091"/>
      </g>
     </g>
     <g id="text_9">
      <!-- 0.4 -->
      <g transform="translate(44.596875 211.31631)scale(0.1 -0.1)">
       <use xlink:href="#DejaVuSans-48"/>
       <use x="63.623047" xlink:href="#DejaVuSans-46"/>
       <use x="95.410156" xlink:href="#DejaVuSans-52"/>
      </g>
     </g>
    </g>
    <g id="ytick_4">
     <g id="line2d_9">
      <g>
       <use style="stroke:#000000;stroke-width:0.8;" x="67.5" xlink:href="#m06634f6e08" y="160.075636"/>
      </g>
     </g>
     <g id="text_10">
      <!-- 0.6 -->
      <g transform="translate(44.596875 163.874855)scale(0.1 -0.1)">
       <use xlink:href="#DejaVuSans-48"/>
       <use x="63.623047" xlink:href="#DejaVuSans-46"/>
       <use x="95.410156" xlink:href="#DejaVuSans-54"/>
      </g>
     </g>
    </g>
    <g id="ytick_5">
     <g id="line2d_10">
      <g>
       <use style="stroke:#000000;stroke-width:0.8;" x="67.5" xlink:href="#m06634f6e08" y="112.634182"/>
      </g>
     </g>
     <g id="text_11">
      <!-- 0.8 -->
      <g transform="translate(44.596875 116.433401)scale(0.1 -0.1)">
       <use xlink:href="#DejaVuSans-48"/>
       <use x="63.623047" xlink:href="#DejaVuSans-46"/>
       <use x="95.410156" xlink:href="#DejaVuSans-56"/>
      </g>
     </g>
    </g>
    <g id="ytick_6">
     <g id="line2d_11">
      <g>
       <use style="stroke:#000000;stroke-width:0.8;" x="67.5" xlink:href="#m06634f6e08" y="65.192727"/>
      </g>
     </g>
     <g id="text_12">
      <!-- 1.0 -->
      <g transform="translate(44.596875 68.991946)scale(0.1 -0.1)">
       <use xlink:href="#DejaVuSans-49"/>
       <use x="63.623047" xlink:href="#DejaVuSans-46"/>
       <use x="95.410156" xlink:href="#DejaVuSans-48"/>
      </g>
     </g>
    </g>
    <g id="text_13">
     <!-- PV correlation -->
     <defs>
      <path d="M 19.671875 64.796875 
L 19.671875 37.40625 
L 32.078125 37.40625 
Q 38.96875 37.40625 42.71875 40.96875 
Q 46.484375 44.53125 46.484375 51.125 
Q 46.484375 57.671875 42.71875 61.234375 
Q 38.96875 64.796875 32.078125 64.796875 
z
M 9.8125 72.90625 
L 32.078125 72.90625 
Q 44.34375 72.90625 50.609375 67.359375 
Q 56.890625 61.8125 56.890625 51.125 
Q 56.890625 40.328125 50.609375 34.8125 
Q 44.34375 29.296875 32.078125 29.296875 
L 19.671875 29.296875 
L 19.671875 0 
L 9.8125 0 
z
" id="DejaVuSans-80"/>
      <path d="M 28.609375 0 
L 0.78125 72.90625 
L 11.078125 72.90625 
L 34.1875 11.53125 
L 57.328125 72.90625 
L 67.578125 72.90625 
L 39.796875 0 
z
" id="DejaVuSans-86"/>
      <path d="M 48.78125 52.59375 
L 48.78125 44.1875 
Q 44.96875 46.296875 41.140625 47.34375 
Q 37.3125 48.390625 33.40625 48.390625 
Q 24.65625 48.390625 19.8125 42.84375 
Q 14.984375 37.3125 14.984375 27.296875 
Q 14.984375 17.28125 19.8125 11.734375 
Q 24.65625 6.203125 33.40625 6.203125 
Q 37.3125 6.203125 41.140625 7.25 
Q 44.96875 8.296875 48.78125 10.40625 
L 48.78125 2.09375 
Q 45.015625 0.34375 40.984375 -0.53125 
Q 36.96875 -1.421875 32.421875 -1.421875 
Q 20.0625 -1.421875 12.78125 6.34375 
Q 5.515625 14.109375 5.515625 27.296875 
Q 5.515625 40.671875 12.859375 48.328125 
Q 20.21875 56 33.015625 56 
Q 37.15625 56 41.109375 55.140625 
Q 45.0625 54.296875 48.78125 52.59375 
z
" id="DejaVuSans-99"/>
      <path d="M 30.609375 48.390625 
Q 23.390625 48.390625 19.1875 42.75 
Q 14.984375 37.109375 14.984375 27.296875 
Q 14.984375 17.484375 19.15625 11.84375 
Q 23.34375 6.203125 30.609375 6.203125 
Q 37.796875 6.203125 41.984375 11.859375 
Q 46.1875 17.53125 46.1875 27.296875 
Q 46.1875 37.015625 41.984375 42.703125 
Q 37.796875 48.390625 30.609375 48.390625 
z
M 30.609375 56 
Q 42.328125 56 49.015625 48.375 
Q 55.71875 40.765625 55.71875 27.296875 
Q 55.71875 13.875 49.015625 6.21875 
Q 42.328125 -1.421875 30.609375 -1.421875 
Q 18.84375 -1.421875 12.171875 6.21875 
Q 5.515625 13.875 5.515625 27.296875 
Q 5.515625 40.765625 12.171875 48.375 
Q 18.84375 56 30.609375 56 
z
" id="DejaVuSans-111"/>
      <path d="M 56.203125 29.59375 
L 56.203125 25.203125 
L 14.890625 25.203125 
Q 15.484375 15.921875 20.484375 11.0625 
Q 25.484375 6.203125 34.421875 6.203125 
Q 39.59375 6.203125 44.453125 7.46875 
Q 49.3125 8.734375 54.109375 11.28125 
L 54.109375 2.78125 
Q 49.265625 0.734375 44.1875 -0.34375 
Q 39.109375 -1.421875 33.890625 -1.421875 
Q 20.796875 -1.421875 13.15625 6.1875 
Q 5.515625 13.8125 5.515625 26.8125 
Q 5.515625 40.234375 12.765625 48.109375 
Q 20.015625 56 32.328125 56 
Q 43.359375 56 49.78125 48.890625 
Q 56.203125 41.796875 56.203125 29.59375 
z
M 47.21875 32.234375 
Q 47.125 39.59375 43.09375 43.984375 
Q 39.0625 48.390625 32.421875 48.390625 
Q 24.90625 48.390625 20.390625 44.140625 
Q 15.875 39.890625 15.1875 32.171875 
z
" id="DejaVuSans-101"/>
      <path d="M 9.421875 75.984375 
L 18.40625 75.984375 
L 18.40625 0 
L 9.421875 0 
z
" id="DejaVuSans-108"/>
      <path d="M 9.421875 54.6875 
L 18.40625 54.6875 
L 18.40625 0 
L 9.421875 0 
z
M 9.421875 75.984375 
L 18.40625 75.984375 
L 18.40625 64.59375 
L 9.421875 64.59375 
z
" id="DejaVuSans-105"/>
      <path d="M 54.890625 33.015625 
L 54.890625 0 
L 45.90625 0 
L 45.90625 32.71875 
Q 45.90625 40.484375 42.875 44.328125 
Q 39.84375 48.1875 33.796875 48.1875 
Q 26.515625 48.1875 22.3125 43.546875 
Q 18.109375 38.921875 18.109375 30.90625 
L 18.109375 0 
L 9.078125 0 
L 9.078125 54.6875 
L 18.109375 54.6875 
L 18.109375 46.1875 
Q 21.34375 51.125 25.703125 53.5625 
Q 30.078125 56 35.796875 56 
Q 45.21875 56 50.046875 50.171875 
Q 54.890625 44.34375 54.890625 33.015625 
z
" id="DejaVuSans-110"/>
     </defs>
     <g transform="translate(38.517187 206.786781)rotate(-90)scale(0.1 -0.1)">
      <use xlink:href="#DejaVuSans-80"/>
      <use x="60.302734" xlink:href="#DejaVuSans-86"/>
      <use x="128.710938" xlink:href="#DejaVuSans-32"/>
      <use x="160.498047" xlink:href="#DejaVuSans-99"/>
      <use x="215.478516" xlink:href="#DejaVuSans-111"/>
      <use x="276.660156" xlink:href="#DejaVuSans-114"/>
      <use x="316.023438" xlink:href="#DejaVuSans-114"/>
      <use x="354.886719" xlink:href="#DejaVuSans-101"/>
      <use x="416.410156" xlink:href="#DejaVuSans-108"/>
      <use x="444.193359" xlink:href="#DejaVuSans-97"/>
      <use x="505.472656" xlink:href="#DejaVuSans-116"/>
      <use x="544.681641" xlink:href="#DejaVuSans-105"/>
      <use x="572.464844" xlink:href="#DejaVuSans-111"/>
      <use x="633.646484" xlink:href="#DejaVuSans-110"/>
     </g>
    </g>
   </g>
   <g id="line2d_12">
    <path clip-path="url(#pbaa60c7862)" d="M 106.796732 170.281986 
L 192.554004 187.131851 
L 278.311275 207.930162 
L 364.068547 209.038367 
L 449.825818 197.878558 
" style="fill:none;stroke:#1f77b4;stroke-linecap:square;stroke-width:1.5;"/>
   </g>
   <g id="line2d_13">
    <path clip-path="url(#pbaa60c7862)" d="M 106.796732 171.23892 
L 192.554004 174.374046 
L 278.311275 205.008422 
L 364.068547 193.393574 
L 449.825818 225.615965 
" style="fill:none;stroke:#ff7f0e;stroke-linecap:square;stroke-width:1.5;"/>
   </g>
   <g id="line2d_14"/>
   <g id="line2d_15"/>
   <g id="patch_3">
    <path d="M 67.5 302.4 
L 67.5 41.472 
" style="fill:none;stroke:#000000;stroke-linecap:square;stroke-linejoin:miter;stroke-width:0.8;"/>
   </g>
   <g id="patch_4">
    <path d="M 486 302.4 
L 486 41.472 
" style="fill:none;stroke:#000000;stroke-linecap:square;stroke-linejoin:miter;stroke-width:0.8;"/>
   </g>
   <g id="patch_5">
    <path d="M 67.5 302.4 
L 486 302.4 
" style="fill:none;stroke:#000000;stroke-linecap:square;stroke-linejoin:miter;stroke-width:0.8;"/>
   </g>
   <g id="patch_6">
    <path d="M 67.5 41.472 
L 486 41.472 
" style="fill:none;stroke:#000000;stroke-linecap:square;stroke-linejoin:miter;stroke-width:0.8;"/>
   </g>
   <g id="PathCollection_1">
    <defs>
     <path d="M 0 1.5 
C 0.397805 1.5 0.77937 1.341951 1.06066 1.06066 
C 1.341951 0.77937 1.5 0.397805 1.5 0 
C 1.5 -0.397805 1.341951 -0.77937 1.06066 -1.06066 
C 0.77937 -1.341951 0.397805 -1.5 0 -1.5 
C -0.397805 -1.5 -0.77937 -1.341951 -1.06066 -1.06066 
C -1.341951 -0.77937 -1.5 -0.397805 -1.5 0 
C -1.5 0.397805 -1.341951 0.77937 -1.06066 1.06066 
C -0.77937 1.341951 -0.397805 1.5 0 1.5 
z
" id="C0_0_5709304950"/>
    </defs>
    <g clip-path="url(#pbaa60c7862)">
     <use style="fill:#1f77b4;" x="86.522727" xlink:href="#C0_0_5709304950" y="142.666658"/>
    </g>
    <g clip-path="url(#pbaa60c7862)">
     <use style="fill:#1f77b4;" x="89.671165" xlink:href="#C0_0_5709304950" y="199.800226"/>
    </g>
    <g clip-path="url(#pbaa60c7862)">
     <use style="fill:#1f77b4;" x="89.671165" xlink:href="#C0_0_5709304950" y="191.704868"/>
    </g>
    <g clip-path="url(#pbaa60c7862)">
     <use style="fill:#1f77b4;" x="89.671165" xlink:href="#C0_0_5709304950" y="230.593953"/>
    </g>
    <g clip-path="url(#pbaa60c7862)">
     <use style="fill:#1f77b4;" x="89.671165" xlink:href="#C0_0_5709304950" y="117.753028"/>
    </g>
    <g clip-path="url(#pbaa60c7862)">
     <use style="fill:#1f77b4;" x="89.671165" xlink:href="#C0_0_5709304950" y="182.577785"/>
    </g>
    <g clip-path="url(#pbaa60c7862)">
     <use style="fill:#1f77b4;" x="89.671165" xlink:href="#C0_0_5709304950" y="165.147804"/>
    </g>
    <g clip-path="url(#pbaa60c7862)">
     <use style="fill:#1f77b4;" x="89.671165" xlink:href="#C0_0_5709304950" y="170.149481"/>
    </g>
    <g clip-path="url(#pbaa60c7862)">
     <use style="fill:#1f77b4;" x="89.671165" xlink:href="#C0_0_5709304950" y="216.125531"/>
    </g>
    <g clip-path="url(#pbaa60c7862)">
     <use style="fill:#1f77b4;" x="89.671165" xlink:href="#C0_0_5709304950" y="111.594335"/>
    </g>
    <g clip-path="url(#pbaa60c7862)">
     <use style="fill:#1f77b4;" x="86.557135" xlink:href="#C0_0_5709304950" y="199.349488"/>
    </g>
    <g clip-path="url(#pbaa60c7862)">
     <use style="fill:#1f77b4;" x="89.671165" xlink:href="#C0_0_5709304950" y="131.244959"/>
    </g>
    <g clip-path="url(#pbaa60c7862)">
     <use style="fill:#1f77b4;" x="89.671165" xlink:href="#C0_0_5709304950" y="108.017645"/>
    </g>
    <g clip-path="url(#pbaa60c7862)">
     <use style="fill:#1f77b4;" x="89.671165" xlink:href="#C0_0_5709304950" y="142.754359"/>
    </g>
    <g clip-path="url(#pbaa60c7862)">
     <use style="fill:#1f77b4;" x="92.223337" xlink:href="#C0_0_5709304950" y="140.996184"/>
    </g>
   </g>
   <g id="PathCollection_2">
    <defs>
     <path d="M 0 1.5 
C 0.397805 1.5 0.77937 1.341951 1.06066 1.06066 
C 1.341951 0.77937 1.5 0.397805 1.5 0 
C 1.5 -0.397805 1.341951 -0.77937 1.06066 -1.06066 
C 0.77937 -1.341951 0.397805 -1.5 0 -1.5 
C -0.397805 -1.5 -0.77937 -1.341951 -1.06066 -1.06066 
C -1.341951 -0.77937 -1.5 -0.397805 -1.5 0 
C -1.5 0.397805 -1.341951 0.77937 -1.06066 1.06066 
C -0.77937 1.341951 -0.397805 1.5 0 1.5 
z
" id="C1_0_49d93534f3"/>
    </defs>
    <g clip-path="url(#pbaa60c7862)">
     <use style="fill:#ff7f0e;" x="123.97172" xlink:href="#C1_0_49d93534f3" y="140.851493"/>
    </g>
    <g clip-path="url(#pbaa60c7862)">
     <use style="fill:#ff7f0e;" x="123.97172" xlink:href="#C1_0_49d93534f3" y="146.953586"/>
    </g>
    <g clip-path="url(#pbaa60c7862)">
     <use style="fill:#ff7f0e;" x="123.97172" xlink:href="#C1_0_49d93534f3" y="193.736874"/>
    </g>
    <g clip-path="url(#pbaa60c7862)">
     <use style="fill:#ff7f0e;" x="123.97172" xlink:href="#C1_0_49d93534f3" y="210.641827"/>
    </g>
    <g clip-path="url(#pbaa60c7862)">
     <use style="fill:#ff7f0e;" x="123.97172" xlink:href="#C1_0_49d93534f3" y="136.409952"/>
    </g>
    <g clip-path="url(#pbaa60c7862)">
     <use style="fill:#ff7f0e;" x="123.97172" xlink:href="#C1_0_49d93534f3" y="156.481377"/>
    </g>
    <g clip-path="url(#pbaa60c7862)">
     <use style="fill:#ff7f0e;" x="123.97172" xlink:href="#C1_0_49d93534f3" y="214.982099"/>
    </g>
    <g clip-path="url(#pbaa60c7862)">
     <use style="fill:#ff7f0e;" x="123.97172" xlink:href="#C1_0_49d93534f3" y="184.066312"/>
    </g>
    <g clip-path="url(#pbaa60c7862)">
     <use style="fill:#ff7f0e;" x="123.97172" xlink:href="#C1_0_49d93534f3" y="205.908686"/>
    </g>
    <g clip-path="url(#pbaa60c7862)">
     <use style="fill:#ff7f0e;" x="123.97172" xlink:href="#C1_0_49d93534f3" y="132.646783"/>
    </g>
    <g clip-path="url(#pbaa60c7862)">
     <use style="fill:#ff7f0e;" x="123.97172" xlink:href="#C1_0_49d93534f3" y="174.245884"/>
    </g>
    <g clip-path="url(#pbaa60c7862)">
     <use style="fill:#ff7f0e;" x="123.97172" xlink:href="#C1_0_49d93534f3" y="285.17701"/>
    </g>
    <g clip-path="url(#pbaa60c7862)">
     <use style="fill:#ff7f0e;" x="121.702832" xlink:href="#C1_0_49d93534f3" y="138.77045"/>
    </g>
    <g clip-path="url(#pbaa60c7862)">
     <use style="fill:#ff7f0e;" x="123.97172" xlink:href="#C1_0_49d93534f3" y="167.833722"/>
    </g>
    <g clip-path="url(#pbaa60c7862)">
     <use style="fill:#ff7f0e;" x="120.929343" xlink:href="#C1_0_49d93534f3" y="131.869298"/>
    </g>
   </g>
   <g id="PathCollection_3">
    <defs>
     <path d="M 0 1.5 
C 0.397805 1.5 0.77937 1.341951 1.06066 1.06066 
C 1.341951 0.77937 1.5 0.397805 1.5 0 
C 1.5 -0.397805 1.341951 -0.77937 1.06066 -1.06066 
C 0.77937 -1.341951 0.397805 -1.5 0 -1.5 
C -0.397805 -1.5 -0.77937 -1.341951 -1.06066 -1.06066 
C -1.341951 -0.77937 -1.5 -0.397805 -1.5 0 
C -1.5 0.397805 -1.341951 0.77937 -1.06066 1.06066 
C -0.77937 1.341951 -0.397805 1.5 0 1.5 
z
" id="C2_0_b57435544d"/>
    </defs>
    <g clip-path="url(#pbaa60c7862)">
     <use style="fill:#1f77b4;" x="178.134443" xlink:href="#C2_0_b57435544d" y="155.772273"/>
    </g>
    <g clip-path="url(#pbaa60c7862)">
     <use style="fill:#1f77b4;" x="175.422553" xlink:href="#C2_0_b57435544d" y="231.448356"/>
    </g>
    <g clip-path="url(#pbaa60c7862)">
     <use style="fill:#1f77b4;" x="177.399481" xlink:href="#C2_0_b57435544d" y="210.762857"/>
    </g>
    <g clip-path="url(#pbaa60c7862)">
     <use style="fill:#1f77b4;" x="175.422553" xlink:href="#C2_0_b57435544d" y="221.170254"/>
    </g>
    <g clip-path="url(#pbaa60c7862)">
     <use style="fill:#1f77b4;" x="175.422553" xlink:href="#C2_0_b57435544d" y="142.930662"/>
    </g>
    <g clip-path="url(#pbaa60c7862)">
     <use style="fill:#1f77b4;" x="172.353316" xlink:href="#C2_0_b57435544d" y="156.623536"/>
    </g>
    <g clip-path="url(#pbaa60c7862)">
     <use style="fill:#1f77b4;" x="175.422553" xlink:href="#C2_0_b57435544d" y="258.856987"/>
    </g>
    <g clip-path="url(#pbaa60c7862)">
     <use style="fill:#1f77b4;" x="175.422553" xlink:href="#C2_0_b57435544d" y="193.717247"/>
    </g>
    <g clip-path="url(#pbaa60c7862)">
     <use style="fill:#1f77b4;" x="175.422553" xlink:href="#C2_0_b57435544d" y="213.098475"/>
    </g>
    <g clip-path="url(#pbaa60c7862)">
     <use style="fill:#1f77b4;" x="175.422553" xlink:href="#C2_0_b57435544d" y="99.186477"/>
    </g>
    <g clip-path="url(#pbaa60c7862)">
     <use style="fill:#1f77b4;" x="172.32458" xlink:href="#C2_0_b57435544d" y="212.555483"/>
    </g>
    <g clip-path="url(#pbaa60c7862)">
     <use style="fill:#1f77b4;" x="175.422553" xlink:href="#C2_0_b57435544d" y="166.523401"/>
    </g>
    <g clip-path="url(#pbaa60c7862)">
     <use style="fill:#1f77b4;" x="175.422553" xlink:href="#C2_0_b57435544d" y="157.298507"/>
    </g>
    <g clip-path="url(#pbaa60c7862)">
     <use style="fill:#1f77b4;" x="175.422553" xlink:href="#C2_0_b57435544d" y="186.369376"/>
    </g>
    <g clip-path="url(#pbaa60c7862)">
     <use style="fill:#1f77b4;" x="172.823111" xlink:href="#C2_0_b57435544d" y="184.67494"/>
    </g>
   </g>
   <g id="PathCollection_4">
    <defs>
     <path d="M 0 1.5 
C 0.397805 1.5 0.77937 1.341951 1.06066 1.06066 
C 1.341951 0.77937 1.5 0.397805 1.5 0 
C 1.5 -0.397805 1.341951 -0.77937 1.06066 -1.06066 
C 0.77937 -1.341951 0.397805 -1.5 0 -1.5 
C -0.397805 -1.5 -0.77937 -1.341951 -1.06066 -1.06066 
C -1.341951 -0.77937 -1.5 -0.397805 -1.5 0 
C -1.5 0.397805 -1.341951 0.77937 -1.06066 1.06066 
C -0.77937 1.341951 -0.397805 1.5 0 1.5 
z
" id="C3_0_d1a9f5b275"/>
    </defs>
    <g clip-path="url(#pbaa60c7862)">
     <use style="fill:#ff7f0e;" x="209.723108" xlink:href="#C3_0_d1a9f5b275" y="152.497723"/>
    </g>
    <g clip-path="url(#pbaa60c7862)">
     <use style="fill:#ff7f0e;" x="206.573642" xlink:href="#C3_0_d1a9f5b275" y="180.692164"/>
    </g>
    <g clip-path="url(#pbaa60c7862)">
     <use style="fill:#ff7f0e;" x="209.723108" xlink:href="#C3_0_d1a9f5b275" y="164.147093"/>
    </g>
    <g clip-path="url(#pbaa60c7862)">
     <use style="fill:#ff7f0e;" x="209.723108" xlink:href="#C3_0_d1a9f5b275" y="172.86203"/>
    </g>
    <g clip-path="url(#pbaa60c7862)">
     <use style="fill:#ff7f0e;" x="209.723108" xlink:href="#C3_0_d1a9f5b275" y="199.985881"/>
    </g>
    <g clip-path="url(#pbaa60c7862)">
     <use style="fill:#ff7f0e;" x="209.723108" xlink:href="#C3_0_d1a9f5b275" y="109.315374"/>
    </g>
    <g clip-path="url(#pbaa60c7862)">
     <use style="fill:#ff7f0e;" x="209.723108" xlink:href="#C3_0_d1a9f5b275" y="183.846732"/>
    </g>
    <g clip-path="url(#pbaa60c7862)">
     <use style="fill:#ff7f0e;" x="209.723108" xlink:href="#C3_0_d1a9f5b275" y="191.615029"/>
    </g>
    <g clip-path="url(#pbaa60c7862)">
     <use style="fill:#ff7f0e;" x="209.723108" xlink:href="#C3_0_d1a9f5b275" y="240.293648"/>
    </g>
    <g clip-path="url(#pbaa60c7862)">
     <use style="fill:#ff7f0e;" x="209.723108" xlink:href="#C3_0_d1a9f5b275" y="99.01166"/>
    </g>
    <g clip-path="url(#pbaa60c7862)">
     <use style="fill:#ff7f0e;" x="207.168194" xlink:href="#C3_0_d1a9f5b275" y="150.742933"/>
    </g>
    <g clip-path="url(#pbaa60c7862)">
     <use style="fill:#ff7f0e;" x="209.723108" xlink:href="#C3_0_d1a9f5b275" y="222.536066"/>
    </g>
    <g clip-path="url(#pbaa60c7862)">
     <use style="fill:#ff7f0e;" x="209.723108" xlink:href="#C3_0_d1a9f5b275" y="160.811727"/>
    </g>
    <g clip-path="url(#pbaa60c7862)">
     <use style="fill:#ff7f0e;" x="209.723108" xlink:href="#C3_0_d1a9f5b275" y="180.747406"/>
    </g>
    <g clip-path="url(#pbaa60c7862)">
     <use style="fill:#ff7f0e;" x="209.723108" xlink:href="#C3_0_d1a9f5b275" y="142.718122"/>
    </g>
   </g>
   <g id="PathCollection_5">
    <defs>
     <path d="M 0 1.5 
C 0.397805 1.5 0.77937 1.341951 1.06066 1.06066 
C 1.341951 0.77937 1.5 0.397805 1.5 0 
C 1.5 -0.397805 1.341951 -0.77937 1.06066 -1.06066 
C 0.77937 -1.341951 0.397805 -1.5 0 -1.5 
C -0.397805 -1.5 -0.77937 -1.341951 -1.06066 -1.06066 
C -1.341951 -0.77937 -1.5 -0.397805 -1.5 0 
C -1.5 0.397805 -1.341951 0.77937 -1.06066 1.06066 
C -0.77937 1.341951 -0.397805 1.5 0 1.5 
z
" id="C4_0_5bbe4b8cd9"/>
    </defs>
    <g clip-path="url(#pbaa60c7862)">
     <use style="fill:#1f77b4;" x="261.173941" xlink:href="#C4_0_5bbe4b8cd9" y="156.660873"/>
    </g>
    <g clip-path="url(#pbaa60c7862)">
     <use style="fill:#1f77b4;" x="261.173941" xlink:href="#C4_0_5bbe4b8cd9" y="262.924425"/>
    </g>
    <g clip-path="url(#pbaa60c7862)">
     <use style="fill:#1f77b4;" x="261.173941" xlink:href="#C4_0_5bbe4b8cd9" y="254.312802"/>
    </g>
    <g clip-path="url(#pbaa60c7862)">
     <use style="fill:#1f77b4;" x="261.173941" xlink:href="#C4_0_5bbe4b8cd9" y="236.995473"/>
    </g>
    <g clip-path="url(#pbaa60c7862)">
     <use style="fill:#1f77b4;" x="261.173941" xlink:href="#C4_0_5bbe4b8cd9" y="169.509718"/>
    </g>
    <g clip-path="url(#pbaa60c7862)">
     <use style="fill:#1f77b4;" x="261.173941" xlink:href="#C4_0_5bbe4b8cd9" y="216.07238"/>
    </g>
    <g clip-path="url(#pbaa60c7862)">
     <use style="fill:#1f77b4;" x="261.173941" xlink:href="#C4_0_5bbe4b8cd9" y="224.440172"/>
    </g>
    <g clip-path="url(#pbaa60c7862)">
     <use style="fill:#1f77b4;" x="258.273707" xlink:href="#C4_0_5bbe4b8cd9" y="214.901634"/>
    </g>
    <g clip-path="url(#pbaa60c7862)">
     <use style="fill:#1f77b4;" x="261.173941" xlink:href="#C4_0_5bbe4b8cd9" y="197.205937"/>
    </g>
    <g clip-path="url(#pbaa60c7862)">
     <use style="fill:#1f77b4;" x="261.173941" xlink:href="#C4_0_5bbe4b8cd9" y="163.161412"/>
    </g>
   </g>
   <g id="PathCollection_6">
    <defs>
     <path d="M 0 1.5 
C 0.397805 1.5 0.77937 1.341951 1.06066 1.06066 
C 1.341951 0.77937 1.5 0.397805 1.5 0 
C 1.5 -0.397805 1.341951 -0.77937 1.06066 -1.06066 
C 0.77937 -1.341951 0.397805 -1.5 0 -1.5 
C -0.397805 -1.5 -0.77937 -1.341951 -1.06066 -1.06066 
C -1.341951 -0.77937 -1.5 -0.397805 -1.5 0 
C -1.5 0.397805 -1.341951 0.77937 -1.06066 1.06066 
C -0.77937 1.341951 -0.397805 1.5 0 1.5 
z
" id="C5_0_cf596f2c1d"/>
    </defs>
    <g clip-path="url(#pbaa60c7862)">
     <use style="fill:#ff7f0e;" x="295.474496" xlink:href="#C5_0_cf596f2c1d" y="92.540095"/>
    </g>
    <g clip-path="url(#pbaa60c7862)">
     <use style="fill:#ff7f0e;" x="295.474496" xlink:href="#C5_0_cf596f2c1d" y="198.701483"/>
    </g>
    <g clip-path="url(#pbaa60c7862)">
     <use style="fill:#ff7f0e;" x="295.474496" xlink:href="#C5_0_cf596f2c1d" y="247.443652"/>
    </g>
    <g clip-path="url(#pbaa60c7862)">
     <use style="fill:#ff7f0e;" x="295.474496" xlink:href="#C5_0_cf596f2c1d" y="278.912775"/>
    </g>
    <g clip-path="url(#pbaa60c7862)">
     <use style="fill:#ff7f0e;" x="295.474496" xlink:href="#C5_0_cf596f2c1d" y="254.518083"/>
    </g>
    <g clip-path="url(#pbaa60c7862)">
     <use style="fill:#ff7f0e;" x="295.474496" xlink:href="#C5_0_cf596f2c1d" y="163.619972"/>
    </g>
    <g clip-path="url(#pbaa60c7862)">
     <use style="fill:#ff7f0e;" x="295.474496" xlink:href="#C5_0_cf596f2c1d" y="309.510337"/>
    </g>
    <g clip-path="url(#pbaa60c7862)">
     <use style="fill:#ff7f0e;" x="295.474496" xlink:href="#C5_0_cf596f2c1d" y="177.219041"/>
    </g>
    <g clip-path="url(#pbaa60c7862)">
     <use style="fill:#ff7f0e;" x="295.474496" xlink:href="#C5_0_cf596f2c1d" y="206.190704"/>
    </g>
    <g clip-path="url(#pbaa60c7862)">
     <use style="fill:#ff7f0e;" x="295.474496" xlink:href="#C5_0_cf596f2c1d" y="145.61906"/>
    </g>
   </g>
   <g id="PathCollection_7">
    <defs>
     <path d="M 0 1.5 
C 0.397805 1.5 0.77937 1.341951 1.06066 1.06066 
C 1.341951 0.77937 1.5 0.397805 1.5 0 
C 1.5 -0.397805 1.341951 -0.77937 1.06066 -1.06066 
C 0.77937 -1.341951 0.397805 -1.5 0 -1.5 
C -0.397805 -1.5 -0.77937 -1.341951 -1.06066 -1.06066 
C -1.341951 -0.77937 -1.5 -0.397805 -1.5 0 
C -1.5 0.397805 -1.341951 0.77937 -1.06066 1.06066 
C -0.77937 1.341951 -0.397805 1.5 0 1.5 
z
" id="C6_0_e7ab5db0d6"/>
    </defs>
    <g clip-path="url(#pbaa60c7862)">
     <use style="fill:#1f77b4;" x="346.925329" xlink:href="#C6_0_e7ab5db0d6" y="160.54527"/>
    </g>
    <g clip-path="url(#pbaa60c7862)">
     <use style="fill:#1f77b4;" x="346.925329" xlink:href="#C6_0_e7ab5db0d6" y="256.710664"/>
    </g>
    <g clip-path="url(#pbaa60c7862)">
     <use style="fill:#1f77b4;" x="346.925329" xlink:href="#C6_0_e7ab5db0d6" y="207.373677"/>
    </g>
    <g clip-path="url(#pbaa60c7862)">
     <use style="fill:#1f77b4;" x="346.925329" xlink:href="#C6_0_e7ab5db0d6" y="220.813685"/>
    </g>
    <g clip-path="url(#pbaa60c7862)">
     <use style="fill:#1f77b4;" x="346.925329" xlink:href="#C6_0_e7ab5db0d6" y="153.006869"/>
    </g>
   </g>
   <g id="PathCollection_8">
    <defs>
     <path d="M 0 1.5 
C 0.397805 1.5 0.77937 1.341951 1.06066 1.06066 
C 1.341951 0.77937 1.5 0.397805 1.5 0 
C 1.5 -0.397805 1.341951 -0.77937 1.06066 -1.06066 
C 0.77937 -1.341951 0.397805 -1.5 0 -1.5 
C -0.397805 -1.5 -0.77937 -1.341951 -1.06066 -1.06066 
C -1.341951 -0.77937 -1.5 -0.397805 -1.5 0 
C -1.5 0.397805 -1.341951 0.77937 -1.06066 1.06066 
C -0.77937 1.341951 -0.397805 1.5 0 1.5 
z
" id="C7_0_ead4e7f0d4"/>
    </defs>
    <g clip-path="url(#pbaa60c7862)">
     <use style="fill:#ff7f0e;" x="381.225885" xlink:href="#C7_0_ead4e7f0d4" y="95.266186"/>
    </g>
    <g clip-path="url(#pbaa60c7862)">
     <use style="fill:#ff7f0e;" x="381.225885" xlink:href="#C7_0_ead4e7f0d4" y="290.41687"/>
    </g>
    <g clip-path="url(#pbaa60c7862)">
     <use style="fill:#ff7f0e;" x="381.225885" xlink:href="#C7_0_ead4e7f0d4" y="150.081504"/>
    </g>
    <g clip-path="url(#pbaa60c7862)">
     <use style="fill:#ff7f0e;" x="381.225885" xlink:href="#C7_0_ead4e7f0d4" y="209.353973"/>
    </g>
    <g clip-path="url(#pbaa60c7862)">
     <use style="fill:#ff7f0e;" x="381.225885" xlink:href="#C7_0_ead4e7f0d4" y="227.317203"/>
    </g>
   </g>
   <g id="PathCollection_9">
    <defs>
     <path d="M 0 1.5 
C 0.397805 1.5 0.77937 1.341951 1.06066 1.06066 
C 1.341951 0.77937 1.5 0.397805 1.5 0 
C 1.5 -0.397805 1.341951 -0.77937 1.06066 -1.06066 
C 0.77937 -1.341951 0.397805 -1.5 0 -1.5 
C -0.397805 -1.5 -0.77937 -1.341951 -1.06066 -1.06066 
C -1.341951 -0.77937 -1.5 -0.397805 -1.5 0 
C -1.5 0.397805 -1.341951 0.77937 -1.06066 1.06066 
C -0.77937 1.341951 -0.397805 1.5 0 1.5 
z
" id="C8_0_cc6abb6664"/>
    </defs>
    <g clip-path="url(#pbaa60c7862)">
     <use style="fill:#1f77b4;" x="432.676717" xlink:href="#C8_0_cc6abb6664" y="203.990276"/>
    </g>
    <g clip-path="url(#pbaa60c7862)">
     <use style="fill:#1f77b4;" x="432.676717" xlink:href="#C8_0_cc6abb6664" y="268.880514"/>
    </g>
    <g clip-path="url(#pbaa60c7862)">
     <use style="fill:#1f77b4;" x="432.676717" xlink:href="#C8_0_cc6abb6664" y="224.387258"/>
    </g>
    <g clip-path="url(#pbaa60c7862)">
     <use style="fill:#1f77b4;" x="429.885252" xlink:href="#C8_0_cc6abb6664" y="189.146538"/>
    </g>
    <g clip-path="url(#pbaa60c7862)">
     <use style="fill:#1f77b4;" x="432.676717" xlink:href="#C8_0_cc6abb6664" y="190.536564"/>
    </g>
   </g>
   <g id="PathCollection_10">
    <defs>
     <path d="M 0 1.5 
C 0.397805 1.5 0.77937 1.341951 1.06066 1.06066 
C 1.341951 0.77937 1.5 0.397805 1.5 0 
C 1.5 -0.397805 1.341951 -0.77937 1.06066 -1.06066 
C 0.77937 -1.341951 0.397805 -1.5 0 -1.5 
C -0.397805 -1.5 -0.77937 -1.341951 -1.06066 -1.06066 
C -1.341951 -0.77937 -1.5 -0.397805 -1.5 0 
C -1.5 0.397805 -1.341951 0.77937 -1.06066 1.06066 
C -0.77937 1.341951 -0.397805 1.5 0 1.5 
z
" id="C9_0_2f92f0bbb4"/>
    </defs>
    <g clip-path="url(#pbaa60c7862)">
     <use style="fill:#ff7f0e;" x="466.977273" xlink:href="#C9_0_2f92f0bbb4" y="140.296101"/>
    </g>
    <g clip-path="url(#pbaa60c7862)">
     <use style="fill:#ff7f0e;" x="466.977273" xlink:href="#C9_0_2f92f0bbb4" y="309.186445"/>
    </g>
    <g clip-path="url(#pbaa60c7862)">
     <use style="fill:#ff7f0e;" x="466.977273" xlink:href="#C9_0_2f92f0bbb4" y="190.989802"/>
    </g>
    <g clip-path="url(#pbaa60c7862)">
     <use style="fill:#ff7f0e;" x="466.977273" xlink:href="#C9_0_2f92f0bbb4" y="202.338805"/>
    </g>
    <g clip-path="url(#pbaa60c7862)">
     <use style="fill:#ff7f0e;" x="466.977273" xlink:href="#C9_0_2f92f0bbb4" y="248.041525"/>
    </g>
   </g>
   <g id="legend_1">
    <g id="patch_7">
     <path d="M 329.260938 78.82825 
L 479 78.82825 
Q 481 78.82825 481 76.82825 
L 481 48.472 
Q 481 46.472 479 46.472 
L 329.260938 46.472 
Q 327.260938 46.472 327.260938 48.472 
L 327.260938 76.82825 
Q 327.260938 78.82825 329.260938 78.82825 
z
" style="fill:#ffffff;opacity:0.8;stroke:#cccccc;stroke-linejoin:miter;"/>
    </g>
    <g id="line2d_16">
     <path d="M 331.260938 54.570437 
L 351.260938 54.570437 
" style="fill:none;stroke:#1f77b4;stroke-linecap:square;stroke-width:1.5;"/>
    </g>
    <g id="line2d_17"/>
    <g id="text_14">
     <!-- GCaMP channel -->
     <defs>
      <path d="M 59.515625 10.40625 
L 59.515625 29.984375 
L 43.40625 29.984375 
L 43.40625 38.09375 
L 69.28125 38.09375 
L 69.28125 6.78125 
Q 63.578125 2.734375 56.6875 0.65625 
Q 49.8125 -1.421875 42 -1.421875 
Q 24.90625 -1.421875 15.25 8.5625 
Q 5.609375 18.5625 5.609375 36.375 
Q 5.609375 54.25 15.25 64.234375 
Q 24.90625 74.21875 42 74.21875 
Q 49.125 74.21875 55.546875 72.453125 
Q 61.96875 70.703125 67.390625 67.28125 
L 67.390625 56.78125 
Q 61.921875 61.421875 55.765625 63.765625 
Q 49.609375 66.109375 42.828125 66.109375 
Q 29.4375 66.109375 22.71875 58.640625 
Q 16.015625 51.171875 16.015625 36.375 
Q 16.015625 21.625 22.71875 14.15625 
Q 29.4375 6.6875 42.828125 6.6875 
Q 48.046875 6.6875 52.140625 7.59375 
Q 56.25 8.5 59.515625 10.40625 
z
" id="DejaVuSans-71"/>
      <path d="M 64.40625 67.28125 
L 64.40625 56.890625 
Q 59.421875 61.53125 53.78125 63.8125 
Q 48.140625 66.109375 41.796875 66.109375 
Q 29.296875 66.109375 22.65625 58.46875 
Q 16.015625 50.828125 16.015625 36.375 
Q 16.015625 21.96875 22.65625 14.328125 
Q 29.296875 6.6875 41.796875 6.6875 
Q 48.140625 6.6875 53.78125 8.984375 
Q 59.421875 11.28125 64.40625 15.921875 
L 64.40625 5.609375 
Q 59.234375 2.09375 53.4375 0.328125 
Q 47.65625 -1.421875 41.21875 -1.421875 
Q 24.65625 -1.421875 15.125 8.703125 
Q 5.609375 18.84375 5.609375 36.375 
Q 5.609375 53.953125 15.125 64.078125 
Q 24.65625 74.21875 41.21875 74.21875 
Q 47.75 74.21875 53.53125 72.484375 
Q 59.328125 70.75 64.40625 67.28125 
z
" id="DejaVuSans-67"/>
      <path d="M 9.8125 72.90625 
L 24.515625 72.90625 
L 43.109375 23.296875 
L 61.8125 72.90625 
L 76.515625 72.90625 
L 76.515625 0 
L 66.890625 0 
L 66.890625 64.015625 
L 48.09375 14.015625 
L 38.1875 14.015625 
L 19.390625 64.015625 
L 19.390625 0 
L 9.8125 0 
z
" id="DejaVuSans-77"/>
      <path d="M 54.890625 33.015625 
L 54.890625 0 
L 45.90625 0 
L 45.90625 32.71875 
Q 45.90625 40.484375 42.875 44.328125 
Q 39.84375 48.1875 33.796875 48.1875 
Q 26.515625 48.1875 22.3125 43.546875 
Q 18.109375 38.921875 18.109375 30.90625 
L 18.109375 0 
L 9.078125 0 
L 9.078125 75.984375 
L 18.109375 75.984375 
L 18.109375 46.1875 
Q 21.34375 51.125 25.703125 53.5625 
Q 30.078125 56 35.796875 56 
Q 45.21875 56 50.046875 50.171875 
Q 54.890625 44.34375 54.890625 33.015625 
z
" id="DejaVuSans-104"/>
     </defs>
     <g transform="translate(359.260938 58.070437)scale(0.1 -0.1)">
      <use xlink:href="#DejaVuSans-71"/>
      <use x="77.490234" xlink:href="#DejaVuSans-67"/>
      <use x="147.314453" xlink:href="#DejaVuSans-97"/>
      <use x="208.59375" xlink:href="#DejaVuSans-77"/>
      <use x="294.873047" xlink:href="#DejaVuSans-80"/>
      <use x="355.175781" xlink:href="#DejaVuSans-32"/>
      <use x="386.962891" xlink:href="#DejaVuSans-99"/>
      <use x="441.943359" xlink:href="#DejaVuSans-104"/>
      <use x="505.322266" xlink:href="#DejaVuSans-97"/>
      <use x="566.601562" xlink:href="#DejaVuSans-110"/>
      <use x="629.980469" xlink:href="#DejaVuSans-110"/>
      <use x="693.359375" xlink:href="#DejaVuSans-101"/>
      <use x="754.882812" xlink:href="#DejaVuSans-108"/>
     </g>
    </g>
    <g id="line2d_18">
     <path d="M 331.260938 69.248562 
L 351.260938 69.248562 
" style="fill:none;stroke:#ff7f0e;stroke-linecap:square;stroke-width:1.5;"/>
    </g>
    <g id="line2d_19"/>
    <g id="text_15">
     <!-- Registered GCaMP cells -->
     <defs>
      <path d="M 44.390625 34.1875 
Q 47.5625 33.109375 50.5625 29.59375 
Q 53.5625 26.078125 56.59375 19.921875 
L 66.609375 0 
L 56 0 
L 46.6875 18.703125 
Q 43.0625 26.03125 39.671875 28.421875 
Q 36.28125 30.8125 30.421875 30.8125 
L 19.671875 30.8125 
L 19.671875 0 
L 9.8125 0 
L 9.8125 72.90625 
L 32.078125 72.90625 
Q 44.578125 72.90625 50.734375 67.671875 
Q 56.890625 62.453125 56.890625 51.90625 
Q 56.890625 45.015625 53.6875 40.46875 
Q 50.484375 35.9375 44.390625 34.1875 
z
M 19.671875 64.796875 
L 19.671875 38.921875 
L 32.078125 38.921875 
Q 39.203125 38.921875 42.84375 42.21875 
Q 46.484375 45.515625 46.484375 51.90625 
Q 46.484375 58.296875 42.84375 61.546875 
Q 39.203125 64.796875 32.078125 64.796875 
z
" id="DejaVuSans-82"/>
      <path d="M 45.40625 27.984375 
Q 45.40625 37.75 41.375 43.109375 
Q 37.359375 48.484375 30.078125 48.484375 
Q 22.859375 48.484375 18.828125 43.109375 
Q 14.796875 37.75 14.796875 27.984375 
Q 14.796875 18.265625 18.828125 12.890625 
Q 22.859375 7.515625 30.078125 7.515625 
Q 37.359375 7.515625 41.375 12.890625 
Q 45.40625 18.265625 45.40625 27.984375 
z
M 54.390625 6.78125 
Q 54.390625 -7.171875 48.1875 -13.984375 
Q 42 -20.796875 29.203125 -20.796875 
Q 24.46875 -20.796875 20.265625 -20.09375 
Q 16.0625 -19.390625 12.109375 -17.921875 
L 12.109375 -9.1875 
Q 16.0625 -11.328125 19.921875 -12.34375 
Q 23.78125 -13.375 27.78125 -13.375 
Q 36.625 -13.375 41.015625 -8.765625 
Q 45.40625 -4.15625 45.40625 5.171875 
L 45.40625 9.625 
Q 42.625 4.78125 38.28125 2.390625 
Q 33.9375 0 27.875 0 
Q 17.828125 0 11.671875 7.65625 
Q 5.515625 15.328125 5.515625 27.984375 
Q 5.515625 40.671875 11.671875 48.328125 
Q 17.828125 56 27.875 56 
Q 33.9375 56 38.28125 53.609375 
Q 42.625 51.21875 45.40625 46.390625 
L 45.40625 54.6875 
L 54.390625 54.6875 
z
" id="DejaVuSans-103"/>
      <path d="M 45.40625 46.390625 
L 45.40625 75.984375 
L 54.390625 75.984375 
L 54.390625 0 
L 45.40625 0 
L 45.40625 8.203125 
Q 42.578125 3.328125 38.25 0.953125 
Q 33.9375 -1.421875 27.875 -1.421875 
Q 17.96875 -1.421875 11.734375 6.484375 
Q 5.515625 14.40625 5.515625 27.296875 
Q 5.515625 40.1875 11.734375 48.09375 
Q 17.96875 56 27.875 56 
Q 33.9375 56 38.25 53.625 
Q 42.578125 51.265625 45.40625 46.390625 
z
M 14.796875 27.296875 
Q 14.796875 17.390625 18.875 11.75 
Q 22.953125 6.109375 30.078125 6.109375 
Q 37.203125 6.109375 41.296875 11.75 
Q 45.40625 17.390625 45.40625 27.296875 
Q 45.40625 37.203125 41.296875 42.84375 
Q 37.203125 48.484375 30.078125 48.484375 
Q 22.953125 48.484375 18.875 42.84375 
Q 14.796875 37.203125 14.796875 27.296875 
z
" id="DejaVuSans-100"/>
     </defs>
     <g transform="translate(359.260938 72.748562)scale(0.1 -0.1)">
      <use xlink:href="#DejaVuSans-82"/>
      <use x="64.982422" xlink:href="#DejaVuSans-101"/>
      <use x="126.505859" xlink:href="#DejaVuSans-103"/>
      <use x="189.982422" xlink:href="#DejaVuSans-105"/>
      <use x="217.765625" xlink:href="#DejaVuSans-115"/>
      <use x="269.865234" xlink:href="#DejaVuSans-116"/>
      <use x="309.074219" xlink:href="#DejaVuSans-101"/>
      <use x="370.597656" xlink:href="#DejaVuSans-114"/>
      <use x="409.460938" xlink:href="#DejaVuSans-101"/>
      <use x="470.984375" xlink:href="#DejaVuSans-100"/>
      <use x="534.460938" xlink:href="#DejaVuSans-32"/>
      <use x="566.248047" xlink:href="#DejaVuSans-71"/>
      <use x="643.738281" xlink:href="#DejaVuSans-67"/>
      <use x="713.5625" xlink:href="#DejaVuSans-97"/>
      <use x="774.841797" xlink:href="#DejaVuSans-77"/>
      <use x="861.121094" xlink:href="#DejaVuSans-80"/>
      <use x="921.423828" xlink:href="#DejaVuSans-32"/>
      <use x="953.210938" xlink:href="#DejaVuSans-99"/>
      <use x="1008.191406" xlink:href="#DejaVuSans-101"/>
      <use x="1069.714844" xlink:href="#DejaVuSans-108"/>
      <use x="1097.498047" xlink:href="#DejaVuSans-108"/>
      <use x="1125.28125" xlink:href="#DejaVuSans-115"/>
     </g>
    </g>
   </g>
  </g>
 </g>
 <defs>
  <clipPath id="pbaa60c7862">
   <rect height="260.928" width="418.5" x="67.5" y="41.472"/>
  </clipPath>
 </defs>
</svg>
