<?xml version="1.0" encoding="utf-8" standalone="no"?>
<!DOCTYPE svg PUBLIC "-//W3C//DTD SVG 1.1//EN"
  "http://www.w3.org/Graphics/SVG/1.1/DTD/svg11.dtd">
<!-- Created with matplotlib (https://matplotlib.org/) -->
<svg height="288pt" version="1.1" viewBox="0 0 360 288" width="360pt" xmlns="http://www.w3.org/2000/svg" xmlns:xlink="http://www.w3.org/1999/xlink">
 <defs>
  <style type="text/css">
*{stroke-linecap:butt;stroke-linejoin:round;}
  </style>
 </defs>
 <g id="figure_1">
  <g id="patch_1">
   <path d="M 0 288 
L 360 288 
L 360 0 
L 0 0 
z
" style="fill:#ffffff;"/>
  </g>
  <g id="axes_1">
   <g id="patch_2">
    <path d="M 44.8 248.2 
L 349.2 248.2 
L 349.2 47.5488 
L 44.8 47.5488 
z
" style="fill:#ffffff;"/>
   </g>
   <g id="PolyCollection_1">
    <defs>
     <path d="M 75.516857 -170.111992 
L 75.516857 -161.831811 
L 137.385138 -147.276938 
L 199.253418 -128.675092 
L 261.121699 -124.708071 
L 322.98998 -133.875693 
L 322.98998 -151.666393 
L 322.98998 -151.666393 
L 261.121699 -142.069574 
L 199.253418 -139.965921 
L 137.385138 -156.334988 
L 75.516857 -170.111992 
z
" id="me88f0416ee" style="stroke:#00cc96;stroke-opacity:0.2;"/>
    </defs>
    <g clip-path="url(#pea3016cdd5)">
     <use style="fill:#00cc96;fill-opacity:0.2;stroke:#00cc96;stroke-opacity:0.2;" x="0" xlink:href="#me88f0416ee" y="288"/>
    </g>
   </g>
   <g id="PolyCollection_2">
    <defs>
     <path d="M 75.516857 -170.894755 
L 75.516857 -159.440029 
L 137.385138 -156.653726 
L 199.253418 -128.342274 
L 261.121699 -134.091338 
L 322.98998 -106.773294 
L 322.98998 -132.130273 
L 322.98998 -132.130273 
L 261.121699 -158.991936 
L 199.253418 -145.211442 
L 137.385138 -168.409561 
L 75.516857 -170.894755 
z
" id="m5ec8ae778e" style="stroke:#ffa15a;stroke-opacity:0.2;"/>
    </defs>
    <g clip-path="url(#pea3016cdd5)">
     <use style="fill:#ffa15a;fill-opacity:0.2;stroke:#ffa15a;stroke-opacity:0.2;" x="0" xlink:href="#m5ec8ae778e" y="288"/>
    </g>
   </g>
   <g id="matplotlib.axis_1">
    <g id="xtick_1">
     <g id="line2d_1">
      <defs>
       <path d="M 0 0 
L 0 3.5 
" id="m3e7cabe935" style="stroke:#000000;stroke-width:0.8;"/>
      </defs>
      <g>
       <use style="stroke:#000000;stroke-width:0.8;" x="75.516857" xlink:href="#m3e7cabe935" y="248.2"/>
      </g>
     </g>
     <g id="text_1">
      <!-- 2 -->
      <defs>
       <path d="M 50.34375 8.453125 
L 50.34375 0 
L 3.03125 0 
Q 2.9375 3.171875 4.046875 6.109375 
Q 5.859375 10.9375 9.828125 15.625 
Q 13.8125 20.3125 21.34375 26.46875 
Q 33.015625 36.03125 37.109375 41.625 
Q 41.21875 47.21875 41.21875 52.203125 
Q 41.21875 57.421875 37.46875 61 
Q 33.734375 64.59375 27.734375 64.59375 
Q 21.390625 64.59375 17.578125 60.78125 
Q 13.765625 56.984375 13.71875 50.25 
L 4.6875 51.171875 
Q 5.609375 61.28125 11.65625 66.578125 
Q 17.71875 71.875 27.9375 71.875 
Q 38.234375 71.875 44.234375 66.15625 
Q 50.25 60.453125 50.25 52 
Q 50.25 47.703125 48.484375 43.546875 
Q 46.734375 39.40625 42.65625 34.8125 
Q 38.578125 30.21875 29.109375 22.21875 
Q 21.1875 15.578125 18.9375 13.203125 
Q 16.703125 10.84375 15.234375 8.453125 
z
" id="ArialMT-50"/>
      </defs>
      <g transform="translate(72.736388 262.357812)scale(0.1 -0.1)">
       <use xlink:href="#ArialMT-50"/>
      </g>
     </g>
    </g>
    <g id="xtick_2">
     <g id="line2d_2">
      <g>
       <use style="stroke:#000000;stroke-width:0.8;" x="137.385138" xlink:href="#m3e7cabe935" y="248.2"/>
      </g>
     </g>
     <g id="text_2">
      <!-- 4 -->
      <defs>
       <path d="M 32.328125 0 
L 32.328125 17.140625 
L 1.265625 17.140625 
L 1.265625 25.203125 
L 33.9375 71.578125 
L 41.109375 71.578125 
L 41.109375 25.203125 
L 50.78125 25.203125 
L 50.78125 17.140625 
L 41.109375 17.140625 
L 41.109375 0 
z
M 32.328125 25.203125 
L 32.328125 57.46875 
L 9.90625 25.203125 
z
" id="ArialMT-52"/>
      </defs>
      <g transform="translate(134.604669 262.357812)scale(0.1 -0.1)">
       <use xlink:href="#ArialMT-52"/>
      </g>
     </g>
    </g>
    <g id="xtick_3">
     <g id="line2d_3">
      <g>
       <use style="stroke:#000000;stroke-width:0.8;" x="199.253418" xlink:href="#m3e7cabe935" y="248.2"/>
      </g>
     </g>
     <g id="text_3">
      <!-- 6 -->
      <defs>
       <path d="M 49.75 54.046875 
L 41.015625 53.375 
Q 39.84375 58.546875 37.703125 60.890625 
Q 34.125 64.65625 28.90625 64.65625 
Q 24.703125 64.65625 21.53125 62.3125 
Q 17.390625 59.28125 14.984375 53.46875 
Q 12.59375 47.65625 12.5 36.921875 
Q 15.671875 41.75 20.265625 44.09375 
Q 24.859375 46.4375 29.890625 46.4375 
Q 38.671875 46.4375 44.84375 39.96875 
Q 51.03125 33.5 51.03125 23.25 
Q 51.03125 16.5 48.125 10.71875 
Q 45.21875 4.9375 40.140625 1.859375 
Q 35.0625 -1.21875 28.609375 -1.21875 
Q 17.625 -1.21875 10.6875 6.859375 
Q 3.765625 14.9375 3.765625 33.5 
Q 3.765625 54.25 11.421875 63.671875 
Q 18.109375 71.875 29.4375 71.875 
Q 37.890625 71.875 43.28125 67.140625 
Q 48.6875 62.40625 49.75 54.046875 
z
M 13.875 23.1875 
Q 13.875 18.65625 15.796875 14.5 
Q 17.71875 10.359375 21.1875 8.171875 
Q 24.65625 6 28.46875 6 
Q 34.03125 6 38.03125 10.484375 
Q 42.046875 14.984375 42.046875 22.703125 
Q 42.046875 30.125 38.078125 34.390625 
Q 34.125 38.671875 28.125 38.671875 
Q 22.171875 38.671875 18.015625 34.390625 
Q 13.875 30.125 13.875 23.1875 
z
" id="ArialMT-54"/>
      </defs>
      <g transform="translate(196.47295 262.357812)scale(0.1 -0.1)">
       <use xlink:href="#ArialMT-54"/>
      </g>
     </g>
    </g>
    <g id="xtick_4">
     <g id="line2d_4">
      <g>
       <use style="stroke:#000000;stroke-width:0.8;" x="261.121699" xlink:href="#m3e7cabe935" y="248.2"/>
      </g>
     </g>
     <g id="text_4">
      <!-- 8 -->
      <defs>
       <path d="M 17.671875 38.8125 
Q 12.203125 40.828125 9.5625 44.53125 
Q 6.9375 48.25 6.9375 53.421875 
Q 6.9375 61.234375 12.546875 66.546875 
Q 18.171875 71.875 27.484375 71.875 
Q 36.859375 71.875 42.578125 66.421875 
Q 48.296875 60.984375 48.296875 53.171875 
Q 48.296875 48.1875 45.671875 44.5 
Q 43.0625 40.828125 37.75 38.8125 
Q 44.34375 36.671875 47.78125 31.875 
Q 51.21875 27.09375 51.21875 20.453125 
Q 51.21875 11.28125 44.71875 5.03125 
Q 38.234375 -1.21875 27.640625 -1.21875 
Q 17.046875 -1.21875 10.546875 5.046875 
Q 4.046875 11.328125 4.046875 20.703125 
Q 4.046875 27.6875 7.59375 32.390625 
Q 11.140625 37.109375 17.671875 38.8125 
z
M 15.921875 53.71875 
Q 15.921875 48.640625 19.1875 45.40625 
Q 22.46875 42.1875 27.6875 42.1875 
Q 32.765625 42.1875 36.015625 45.375 
Q 39.265625 48.578125 39.265625 53.21875 
Q 39.265625 58.0625 35.90625 61.359375 
Q 32.5625 64.65625 27.59375 64.65625 
Q 22.5625 64.65625 19.234375 61.421875 
Q 15.921875 58.203125 15.921875 53.71875 
z
M 13.09375 20.65625 
Q 13.09375 16.890625 14.875 13.375 
Q 16.65625 9.859375 20.171875 7.921875 
Q 23.6875 6 27.734375 6 
Q 34.03125 6 38.125 10.046875 
Q 42.234375 14.109375 42.234375 20.359375 
Q 42.234375 26.703125 38.015625 30.859375 
Q 33.796875 35.015625 27.4375 35.015625 
Q 21.234375 35.015625 17.15625 30.90625 
Q 13.09375 26.8125 13.09375 20.65625 
z
" id="ArialMT-56"/>
      </defs>
      <g transform="translate(258.341231 262.357812)scale(0.1 -0.1)">
       <use xlink:href="#ArialMT-56"/>
      </g>
     </g>
    </g>
    <g id="xtick_5">
     <g id="line2d_5">
      <g>
       <use style="stroke:#000000;stroke-width:0.8;" x="322.98998" xlink:href="#m3e7cabe935" y="248.2"/>
      </g>
     </g>
     <g id="text_5">
      <!-- 10 -->
      <defs>
       <path d="M 37.25 0 
L 28.46875 0 
L 28.46875 56 
Q 25.296875 52.984375 20.140625 49.953125 
Q 14.984375 46.921875 10.890625 45.40625 
L 10.890625 53.90625 
Q 18.265625 57.375 23.78125 62.296875 
Q 29.296875 67.234375 31.59375 71.875 
L 37.25 71.875 
z
" id="ArialMT-49"/>
       <path d="M 4.15625 35.296875 
Q 4.15625 48 6.765625 55.734375 
Q 9.375 63.484375 14.515625 67.671875 
Q 19.671875 71.875 27.484375 71.875 
Q 33.25 71.875 37.59375 69.546875 
Q 41.9375 67.234375 44.765625 62.859375 
Q 47.609375 58.5 49.21875 52.21875 
Q 50.828125 45.953125 50.828125 35.296875 
Q 50.828125 22.703125 48.234375 14.96875 
Q 45.65625 7.234375 40.5 3 
Q 35.359375 -1.21875 27.484375 -1.21875 
Q 17.140625 -1.21875 11.234375 6.203125 
Q 4.15625 15.140625 4.15625 35.296875 
z
M 13.1875 35.296875 
Q 13.1875 17.671875 17.3125 11.828125 
Q 21.4375 6 27.484375 6 
Q 33.546875 6 37.671875 11.859375 
Q 41.796875 17.71875 41.796875 35.296875 
Q 41.796875 52.984375 37.671875 58.78125 
Q 33.546875 64.59375 27.390625 64.59375 
Q 21.34375 64.59375 17.71875 59.46875 
Q 13.1875 52.9375 13.1875 35.296875 
z
" id="ArialMT-48"/>
      </defs>
      <g transform="translate(317.429043 262.357812)scale(0.1 -0.1)">
       <use xlink:href="#ArialMT-49"/>
       <use x="55.615234" xlink:href="#ArialMT-48"/>
      </g>
     </g>
    </g>
    <g id="text_6">
     <!-- Days apart -->
     <defs>
      <path d="M 7.71875 0 
L 7.71875 71.578125 
L 32.375 71.578125 
Q 40.71875 71.578125 45.125 70.5625 
Q 51.265625 69.140625 55.609375 65.4375 
Q 61.28125 60.640625 64.078125 53.1875 
Q 66.890625 45.75 66.890625 36.1875 
Q 66.890625 28.03125 64.984375 21.734375 
Q 63.09375 15.4375 60.109375 11.296875 
Q 57.125 7.171875 53.578125 4.796875 
Q 50.046875 2.4375 45.046875 1.21875 
Q 40.046875 0 33.546875 0 
z
M 17.1875 8.453125 
L 32.46875 8.453125 
Q 39.546875 8.453125 43.578125 9.765625 
Q 47.609375 11.078125 50 13.484375 
Q 53.375 16.84375 55.25 22.53125 
Q 57.125 28.21875 57.125 36.328125 
Q 57.125 47.5625 53.4375 53.59375 
Q 49.75 59.625 44.484375 61.671875 
Q 40.671875 63.140625 32.234375 63.140625 
L 17.1875 63.140625 
z
" id="ArialMT-68"/>
      <path d="M 40.4375 6.390625 
Q 35.546875 2.25 31.03125 0.53125 
Q 26.515625 -1.171875 21.34375 -1.171875 
Q 12.796875 -1.171875 8.203125 3 
Q 3.609375 7.171875 3.609375 13.671875 
Q 3.609375 17.484375 5.34375 20.625 
Q 7.078125 23.78125 9.890625 25.6875 
Q 12.703125 27.59375 16.21875 28.5625 
Q 18.796875 29.25 24.03125 29.890625 
Q 34.671875 31.15625 39.703125 32.90625 
Q 39.75 34.71875 39.75 35.203125 
Q 39.75 40.578125 37.25 42.78125 
Q 33.890625 45.75 27.25 45.75 
Q 21.046875 45.75 18.09375 43.578125 
Q 15.140625 41.40625 13.71875 35.890625 
L 5.125 37.0625 
Q 6.296875 42.578125 8.984375 45.96875 
Q 11.671875 49.359375 16.75 51.1875 
Q 21.828125 53.03125 28.515625 53.03125 
Q 35.15625 53.03125 39.296875 51.46875 
Q 43.453125 49.90625 45.40625 47.53125 
Q 47.359375 45.171875 48.140625 41.546875 
Q 48.578125 39.3125 48.578125 33.453125 
L 48.578125 21.734375 
Q 48.578125 9.46875 49.140625 6.21875 
Q 49.703125 2.984375 51.375 0 
L 42.1875 0 
Q 40.828125 2.734375 40.4375 6.390625 
z
M 39.703125 26.03125 
Q 34.90625 24.078125 25.34375 22.703125 
Q 19.921875 21.921875 17.671875 20.9375 
Q 15.4375 19.96875 14.203125 18.09375 
Q 12.984375 16.21875 12.984375 13.921875 
Q 12.984375 10.40625 15.640625 8.0625 
Q 18.3125 5.71875 23.4375 5.71875 
Q 28.515625 5.71875 32.46875 7.9375 
Q 36.421875 10.15625 38.28125 14.015625 
Q 39.703125 17 39.703125 22.796875 
z
" id="ArialMT-97"/>
      <path d="M 6.203125 -19.96875 
L 5.21875 -11.71875 
Q 8.109375 -12.5 10.25 -12.5 
Q 13.1875 -12.5 14.9375 -11.515625 
Q 16.703125 -10.546875 17.828125 -8.796875 
Q 18.65625 -7.46875 20.515625 -2.25 
Q 20.75 -1.515625 21.296875 -0.09375 
L 1.609375 51.859375 
L 11.078125 51.859375 
L 21.875 21.828125 
Q 23.96875 16.109375 25.640625 9.8125 
Q 27.15625 15.875 29.25 21.625 
L 40.328125 51.859375 
L 49.125 51.859375 
L 29.390625 -0.875 
Q 26.21875 -9.421875 24.46875 -12.640625 
Q 22.125 -17 19.09375 -19.015625 
Q 16.0625 -21.046875 11.859375 -21.046875 
Q 9.328125 -21.046875 6.203125 -19.96875 
z
" id="ArialMT-121"/>
      <path d="M 3.078125 15.484375 
L 11.765625 16.84375 
Q 12.5 11.625 15.84375 8.84375 
Q 19.1875 6.0625 25.203125 6.0625 
Q 31.25 6.0625 34.171875 8.515625 
Q 37.109375 10.984375 37.109375 14.3125 
Q 37.109375 17.28125 34.515625 19 
Q 32.71875 20.171875 25.53125 21.96875 
Q 15.875 24.421875 12.140625 26.203125 
Q 8.40625 27.984375 6.46875 31.125 
Q 4.546875 34.28125 4.546875 38.09375 
Q 4.546875 41.546875 6.125 44.5 
Q 7.71875 47.46875 10.453125 49.421875 
Q 12.5 50.921875 16.03125 51.96875 
Q 19.578125 53.03125 23.640625 53.03125 
Q 29.734375 53.03125 34.34375 51.265625 
Q 38.96875 49.515625 41.15625 46.5 
Q 43.359375 43.5 44.1875 38.484375 
L 35.59375 37.3125 
Q 35.015625 41.3125 32.203125 43.546875 
Q 29.390625 45.796875 24.265625 45.796875 
Q 18.21875 45.796875 15.625 43.796875 
Q 13.03125 41.796875 13.03125 39.109375 
Q 13.03125 37.40625 14.109375 36.03125 
Q 15.1875 34.625 17.484375 33.6875 
Q 18.796875 33.203125 25.25 31.453125 
Q 34.578125 28.953125 38.25 27.359375 
Q 41.9375 25.78125 44.03125 22.75 
Q 46.140625 19.734375 46.140625 15.234375 
Q 46.140625 10.84375 43.578125 6.953125 
Q 41.015625 3.078125 36.171875 0.953125 
Q 31.34375 -1.171875 25.25 -1.171875 
Q 15.140625 -1.171875 9.84375 3.03125 
Q 4.546875 7.234375 3.078125 15.484375 
z
" id="ArialMT-115"/>
      <path id="ArialMT-32"/>
      <path d="M 6.59375 -19.875 
L 6.59375 51.859375 
L 14.59375 51.859375 
L 14.59375 45.125 
Q 17.4375 49.078125 21 51.046875 
Q 24.5625 53.03125 29.640625 53.03125 
Q 36.28125 53.03125 41.359375 49.609375 
Q 46.4375 46.1875 49.015625 39.953125 
Q 51.609375 33.734375 51.609375 26.3125 
Q 51.609375 18.359375 48.75 11.984375 
Q 45.90625 5.609375 40.453125 2.21875 
Q 35.015625 -1.171875 29 -1.171875 
Q 24.609375 -1.171875 21.109375 0.6875 
Q 17.625 2.546875 15.375 5.375 
L 15.375 -19.875 
z
M 14.546875 25.640625 
Q 14.546875 15.625 18.59375 10.84375 
Q 22.65625 6.0625 28.421875 6.0625 
Q 34.28125 6.0625 38.453125 11.015625 
Q 42.625 15.96875 42.625 26.375 
Q 42.625 36.28125 38.546875 41.203125 
Q 34.46875 46.140625 28.8125 46.140625 
Q 23.1875 46.140625 18.859375 40.890625 
Q 14.546875 35.640625 14.546875 25.640625 
z
" id="ArialMT-112"/>
      <path d="M 6.5 0 
L 6.5 51.859375 
L 14.40625 51.859375 
L 14.40625 44 
Q 17.4375 49.515625 20 51.265625 
Q 22.5625 53.03125 25.640625 53.03125 
Q 30.078125 53.03125 34.671875 50.203125 
L 31.640625 42.046875 
Q 28.421875 43.953125 25.203125 43.953125 
Q 22.3125 43.953125 20.015625 42.21875 
Q 17.71875 40.484375 16.75 37.40625 
Q 15.28125 32.71875 15.28125 27.15625 
L 15.28125 0 
z
" id="ArialMT-114"/>
      <path d="M 25.78125 7.859375 
L 27.046875 0.09375 
Q 23.34375 -0.6875 20.40625 -0.6875 
Q 15.625 -0.6875 12.984375 0.828125 
Q 10.359375 2.34375 9.28125 4.8125 
Q 8.203125 7.28125 8.203125 15.1875 
L 8.203125 45.015625 
L 1.765625 45.015625 
L 1.765625 51.859375 
L 8.203125 51.859375 
L 8.203125 64.703125 
L 16.9375 69.96875 
L 16.9375 51.859375 
L 25.78125 51.859375 
L 25.78125 45.015625 
L 16.9375 45.015625 
L 16.9375 14.703125 
Q 16.9375 10.9375 17.40625 9.859375 
Q 17.875 8.796875 18.921875 8.15625 
Q 19.96875 7.515625 21.921875 7.515625 
Q 23.390625 7.515625 25.78125 7.859375 
z
" id="ArialMT-116"/>
     </defs>
     <g transform="translate(172.824219 275.503125)scale(0.1 -0.1)">
      <use xlink:href="#ArialMT-68"/>
      <use x="72.216797" xlink:href="#ArialMT-97"/>
      <use x="127.832031" xlink:href="#ArialMT-121"/>
      <use x="177.832031" xlink:href="#ArialMT-115"/>
      <use x="227.832031" xlink:href="#ArialMT-32"/>
      <use x="255.615234" xlink:href="#ArialMT-97"/>
      <use x="311.230469" xlink:href="#ArialMT-112"/>
      <use x="366.845703" xlink:href="#ArialMT-97"/>
      <use x="422.460938" xlink:href="#ArialMT-114"/>
      <use x="455.761719" xlink:href="#ArialMT-116"/>
     </g>
    </g>
   </g>
   <g id="matplotlib.axis_2">
    <g id="ytick_1">
     <g id="line2d_6">
      <defs>
       <path d="M 0 0 
L -3.5 0 
" id="mec606d43bc" style="stroke:#000000;stroke-width:0.8;"/>
      </defs>
      <g>
       <use style="stroke:#000000;stroke-width:0.8;" x="44.8" xlink:href="#mec606d43bc" y="233.101723"/>
      </g>
     </g>
     <g id="text_7">
      <!-- 0.0 -->
      <defs>
       <path d="M 9.078125 0 
L 9.078125 10.015625 
L 19.09375 10.015625 
L 19.09375 0 
z
" id="ArialMT-46"/>
      </defs>
      <g transform="translate(23.9 236.680629)scale(0.1 -0.1)">
       <use xlink:href="#ArialMT-48"/>
       <use x="55.615234" xlink:href="#ArialMT-46"/>
       <use x="83.398438" xlink:href="#ArialMT-48"/>
      </g>
     </g>
    </g>
    <g id="ytick_2">
     <g id="line2d_7">
      <g>
       <use style="stroke:#000000;stroke-width:0.8;" x="44.8" xlink:href="#mec606d43bc" y="193.21697"/>
      </g>
     </g>
     <g id="text_8">
      <!-- 0.2 -->
      <g transform="translate(23.9 196.795877)scale(0.1 -0.1)">
       <use xlink:href="#ArialMT-48"/>
       <use x="55.615234" xlink:href="#ArialMT-46"/>
       <use x="83.398438" xlink:href="#ArialMT-50"/>
      </g>
     </g>
    </g>
    <g id="ytick_3">
     <g id="line2d_8">
      <g>
       <use style="stroke:#000000;stroke-width:0.8;" x="44.8" xlink:href="#mec606d43bc" y="153.332218"/>
      </g>
     </g>
     <g id="text_9">
      <!-- 0.4 -->
      <g transform="translate(23.9 156.911124)scale(0.1 -0.1)">
       <use xlink:href="#ArialMT-48"/>
       <use x="55.615234" xlink:href="#ArialMT-46"/>
       <use x="83.398438" xlink:href="#ArialMT-52"/>
      </g>
     </g>
    </g>
    <g id="ytick_4">
     <g id="line2d_9">
      <g>
       <use style="stroke:#000000;stroke-width:0.8;" x="44.8" xlink:href="#mec606d43bc" y="113.447466"/>
      </g>
     </g>
     <g id="text_10">
      <!-- 0.6 -->
      <g transform="translate(23.9 117.026372)scale(0.1 -0.1)">
       <use xlink:href="#ArialMT-48"/>
       <use x="55.615234" xlink:href="#ArialMT-46"/>
       <use x="83.398438" xlink:href="#ArialMT-54"/>
      </g>
     </g>
    </g>
    <g id="ytick_5">
     <g id="line2d_10">
      <g>
       <use style="stroke:#000000;stroke-width:0.8;" x="44.8" xlink:href="#mec606d43bc" y="73.562713"/>
      </g>
     </g>
     <g id="text_11">
      <!-- 0.8 -->
      <g transform="translate(23.9 77.14162)scale(0.1 -0.1)">
       <use xlink:href="#ArialMT-48"/>
       <use x="55.615234" xlink:href="#ArialMT-46"/>
       <use x="83.398438" xlink:href="#ArialMT-56"/>
      </g>
     </g>
    </g>
    <g id="text_12">
     <!-- PV correlation -->
     <defs>
      <path d="M 7.71875 0 
L 7.71875 71.578125 
L 34.71875 71.578125 
Q 41.84375 71.578125 45.609375 70.90625 
Q 50.875 70.015625 54.4375 67.546875 
Q 58.015625 65.09375 60.1875 60.640625 
Q 62.359375 56.203125 62.359375 50.875 
Q 62.359375 41.75 56.546875 35.421875 
Q 50.734375 29.109375 35.546875 29.109375 
L 17.1875 29.109375 
L 17.1875 0 
z
M 17.1875 37.546875 
L 35.6875 37.546875 
Q 44.875 37.546875 48.734375 40.96875 
Q 52.59375 44.390625 52.59375 50.59375 
Q 52.59375 55.078125 50.3125 58.265625 
Q 48.046875 61.46875 44.34375 62.5 
Q 41.9375 63.140625 35.5 63.140625 
L 17.1875 63.140625 
z
" id="ArialMT-80"/>
      <path d="M 28.171875 0 
L 0.4375 71.578125 
L 10.6875 71.578125 
L 29.296875 19.578125 
Q 31.546875 13.328125 33.0625 7.859375 
Q 34.71875 13.71875 36.921875 19.578125 
L 56.25 71.578125 
L 65.921875 71.578125 
L 37.890625 0 
z
" id="ArialMT-86"/>
      <path d="M 40.4375 19 
L 49.078125 17.875 
Q 47.65625 8.9375 41.8125 3.875 
Q 35.984375 -1.171875 27.484375 -1.171875 
Q 16.84375 -1.171875 10.375 5.78125 
Q 3.90625 12.75 3.90625 25.734375 
Q 3.90625 34.125 6.6875 40.421875 
Q 9.46875 46.734375 15.15625 49.875 
Q 20.84375 53.03125 27.546875 53.03125 
Q 35.984375 53.03125 41.359375 48.75 
Q 46.734375 44.484375 48.25 36.625 
L 39.703125 35.296875 
Q 38.484375 40.53125 35.375 43.15625 
Q 32.28125 45.796875 27.875 45.796875 
Q 21.234375 45.796875 17.078125 41.03125 
Q 12.9375 36.28125 12.9375 25.984375 
Q 12.9375 15.53125 16.9375 10.796875 
Q 20.953125 6.0625 27.390625 6.0625 
Q 32.5625 6.0625 36.03125 9.234375 
Q 39.5 12.40625 40.4375 19 
z
" id="ArialMT-99"/>
      <path d="M 3.328125 25.921875 
Q 3.328125 40.328125 11.328125 47.265625 
Q 18.015625 53.03125 27.640625 53.03125 
Q 38.328125 53.03125 45.109375 46.015625 
Q 51.90625 39.015625 51.90625 26.65625 
Q 51.90625 16.65625 48.90625 10.90625 
Q 45.90625 5.171875 40.15625 2 
Q 34.421875 -1.171875 27.640625 -1.171875 
Q 16.75 -1.171875 10.03125 5.8125 
Q 3.328125 12.796875 3.328125 25.921875 
z
M 12.359375 25.921875 
Q 12.359375 15.96875 16.703125 11.015625 
Q 21.046875 6.0625 27.640625 6.0625 
Q 34.1875 6.0625 38.53125 11.03125 
Q 42.875 16.015625 42.875 26.21875 
Q 42.875 35.84375 38.5 40.796875 
Q 34.125 45.75 27.640625 45.75 
Q 21.046875 45.75 16.703125 40.8125 
Q 12.359375 35.890625 12.359375 25.921875 
z
" id="ArialMT-111"/>
      <path d="M 42.09375 16.703125 
L 51.171875 15.578125 
Q 49.03125 7.625 43.21875 3.21875 
Q 37.40625 -1.171875 28.375 -1.171875 
Q 17 -1.171875 10.328125 5.828125 
Q 3.65625 12.84375 3.65625 25.484375 
Q 3.65625 38.578125 10.390625 45.796875 
Q 17.140625 53.03125 27.875 53.03125 
Q 38.28125 53.03125 44.875 45.953125 
Q 51.46875 38.875 51.46875 26.03125 
Q 51.46875 25.25 51.421875 23.6875 
L 12.75 23.6875 
Q 13.234375 15.140625 17.578125 10.59375 
Q 21.921875 6.0625 28.421875 6.0625 
Q 33.25 6.0625 36.671875 8.59375 
Q 40.09375 11.140625 42.09375 16.703125 
z
M 13.234375 30.90625 
L 42.1875 30.90625 
Q 41.609375 37.453125 38.875 40.71875 
Q 34.671875 45.796875 27.984375 45.796875 
Q 21.921875 45.796875 17.796875 41.75 
Q 13.671875 37.703125 13.234375 30.90625 
z
" id="ArialMT-101"/>
      <path d="M 6.390625 0 
L 6.390625 71.578125 
L 15.1875 71.578125 
L 15.1875 0 
z
" id="ArialMT-108"/>
      <path d="M 6.640625 61.46875 
L 6.640625 71.578125 
L 15.4375 71.578125 
L 15.4375 61.46875 
z
M 6.640625 0 
L 6.640625 51.859375 
L 15.4375 51.859375 
L 15.4375 0 
z
" id="ArialMT-105"/>
      <path d="M 6.59375 0 
L 6.59375 51.859375 
L 14.5 51.859375 
L 14.5 44.484375 
Q 20.21875 53.03125 31 53.03125 
Q 35.6875 53.03125 39.625 51.34375 
Q 43.5625 49.65625 45.515625 46.921875 
Q 47.46875 44.1875 48.25 40.4375 
Q 48.734375 37.984375 48.734375 31.890625 
L 48.734375 0 
L 39.9375 0 
L 39.9375 31.546875 
Q 39.9375 36.921875 38.90625 39.578125 
Q 37.890625 42.234375 35.28125 43.8125 
Q 32.671875 45.40625 29.15625 45.40625 
Q 23.53125 45.40625 19.453125 41.84375 
Q 15.375 38.28125 15.375 28.328125 
L 15.375 0 
z
" id="ArialMT-110"/>
     </defs>
     <g transform="translate(17.9125 179.276744)rotate(-90)scale(0.1 -0.1)">
      <use xlink:href="#ArialMT-80"/>
      <use x="66.699219" xlink:href="#ArialMT-86"/>
      <use x="133.398438" xlink:href="#ArialMT-32"/>
      <use x="161.181641" xlink:href="#ArialMT-99"/>
      <use x="211.181641" xlink:href="#ArialMT-111"/>
      <use x="266.796875" xlink:href="#ArialMT-114"/>
      <use x="300.097656" xlink:href="#ArialMT-114"/>
      <use x="333.398438" xlink:href="#ArialMT-101"/>
      <use x="389.013672" xlink:href="#ArialMT-108"/>
      <use x="411.230469" xlink:href="#ArialMT-97"/>
      <use x="466.845703" xlink:href="#ArialMT-116"/>
      <use x="494.628906" xlink:href="#ArialMT-105"/>
      <use x="516.845703" xlink:href="#ArialMT-111"/>
      <use x="572.460938" xlink:href="#ArialMT-110"/>
     </g>
    </g>
   </g>
   <g id="line2d_11">
    <path clip-path="url(#pea3016cdd5)" d="M 75.516857 122.028099 
L 137.385138 136.194037 
L 199.253418 153.679494 
L 261.121699 154.611178 
L 322.98998 145.228957 
" style="fill:none;stroke:#00cc96;stroke-linecap:square;stroke-width:1.5;"/>
   </g>
   <g id="line2d_12">
    <path clip-path="url(#pea3016cdd5)" d="M 75.516857 122.832608 
L 137.385138 125.468357 
L 199.253418 151.223142 
L 261.121699 141.458363 
L 322.98998 168.548217 
" style="fill:none;stroke:#ffa15a;stroke-linecap:square;stroke-width:1.5;"/>
   </g>
   <g id="line2d_13"/>
   <g id="line2d_14"/>
   <g id="patch_3">
    <path d="M 44.8 248.2 
L 44.8 47.5488 
" style="fill:none;stroke:#000000;stroke-linecap:square;stroke-linejoin:miter;stroke-width:0.8;"/>
   </g>
   <g id="patch_4">
    <path d="M 349.2 248.2 
L 349.2 47.5488 
" style="fill:none;stroke:#000000;stroke-linecap:square;stroke-linejoin:miter;stroke-width:0.8;"/>
   </g>
   <g id="patch_5">
    <path d="M 44.8 248.2 
L 349.2 248.2 
" style="fill:none;stroke:#000000;stroke-linecap:square;stroke-linejoin:miter;stroke-width:0.8;"/>
   </g>
   <g id="patch_6">
    <path d="M 44.8 47.5488 
L 349.2 47.5488 
" style="fill:none;stroke:#000000;stroke-linecap:square;stroke-linejoin:miter;stroke-width:0.8;"/>
   </g>
   <g id="PathCollection_1">
    <defs>
     <path d="M 0 1.5 
C 0.397805 1.5 0.77937 1.341951 1.06066 1.06066 
C 1.341951 0.77937 1.5 0.397805 1.5 0 
C 1.5 -0.397805 1.341951 -0.77937 1.06066 -1.06066 
C 0.77937 -1.341951 0.397805 -1.5 0 -1.5 
C -0.397805 -1.5 -0.77937 -1.341951 -1.06066 -1.06066 
C -1.341951 -0.77937 -1.5 -0.397805 -1.5 0 
C -1.5 0.397805 -1.341951 0.77937 -1.06066 1.06066 
C -0.77937 1.341951 -0.397805 1.5 0 1.5 
z
" id="C0_0_1cfafadbb2"/>
    </defs>
    <g clip-path="url(#pea3016cdd5)">
     <use style="fill:#00cc96;stroke:#3d3d3d;" x="58.943914" xlink:href="#C0_0_1cfafadbb2" y="98.811473"/>
    </g>
    <g clip-path="url(#pea3016cdd5)">
     <use style="fill:#00cc96;stroke:#3d3d3d;" x="63.1432" xlink:href="#C0_0_1cfafadbb2" y="146.844532"/>
    </g>
    <g clip-path="url(#pea3016cdd5)">
     <use style="fill:#00cc96;stroke:#3d3d3d;" x="63.1432" xlink:href="#C0_0_1cfafadbb2" y="140.038642"/>
    </g>
    <g clip-path="url(#pea3016cdd5)">
     <use style="fill:#00cc96;stroke:#3d3d3d;" x="63.1432" xlink:href="#C0_0_1cfafadbb2" y="172.733287"/>
    </g>
    <g clip-path="url(#pea3016cdd5)">
     <use style="fill:#00cc96;stroke:#3d3d3d;" x="63.1432" xlink:href="#C0_0_1cfafadbb2" y="77.866205"/>
    </g>
    <g clip-path="url(#pea3016cdd5)">
     <use style="fill:#00cc96;stroke:#3d3d3d;" x="63.1432" xlink:href="#C0_0_1cfafadbb2" y="132.365364"/>
    </g>
    <g clip-path="url(#pea3016cdd5)">
     <use style="fill:#00cc96;stroke:#3d3d3d;" x="63.1432" xlink:href="#C0_0_1cfafadbb2" y="117.711714"/>
    </g>
    <g clip-path="url(#pea3016cdd5)">
     <use style="fill:#00cc96;stroke:#3d3d3d;" x="63.1432" xlink:href="#C0_0_1cfafadbb2" y="121.9167"/>
    </g>
    <g clip-path="url(#pea3016cdd5)">
     <use style="fill:#00cc96;stroke:#3d3d3d;" x="63.1432" xlink:href="#C0_0_1cfafadbb2" y="160.569464"/>
    </g>
    <g clip-path="url(#pea3016cdd5)">
     <use style="fill:#00cc96;stroke:#3d3d3d;" x="63.1432" xlink:href="#C0_0_1cfafadbb2" y="72.688498"/>
    </g>
    <g clip-path="url(#pea3016cdd5)">
     <use style="fill:#00cc96;stroke:#3d3d3d;" x="58.96209" xlink:href="#C0_0_1cfafadbb2" y="146.46559"/>
    </g>
    <g clip-path="url(#pea3016cdd5)">
     <use style="fill:#00cc96;stroke:#3d3d3d;" x="63.1432" xlink:href="#C0_0_1cfafadbb2" y="89.209077"/>
    </g>
    <g clip-path="url(#pea3016cdd5)">
     <use style="fill:#00cc96;stroke:#3d3d3d;" x="60.37349" xlink:href="#C0_0_1cfafadbb2" y="69.681521"/>
    </g>
    <g clip-path="url(#pea3016cdd5)">
     <use style="fill:#00cc96;stroke:#3d3d3d;" x="63.1432" xlink:href="#C0_0_1cfafadbb2" y="98.885205"/>
    </g>
    <g clip-path="url(#pea3016cdd5)">
     <use style="fill:#00cc96;stroke:#3d3d3d;" x="67.045918" xlink:href="#C0_0_1cfafadbb2" y="97.40708"/>
    </g>
   </g>
   <g id="PathCollection_2">
    <defs>
     <path d="M 0 1.5 
C 0.397805 1.5 0.77937 1.341951 1.06066 1.06066 
C 1.341951 0.77937 1.5 0.397805 1.5 0 
C 1.5 -0.397805 1.341951 -0.77937 1.06066 -1.06066 
C 0.77937 -1.341951 0.397805 -1.5 0 -1.5 
C -0.397805 -1.5 -0.77937 -1.341951 -1.06066 -1.06066 
C -1.341951 -0.77937 -1.5 -0.397805 -1.5 0 
C -1.5 0.397805 -1.341951 0.77937 -1.06066 1.06066 
C -0.77937 1.341951 -0.397805 1.5 0 1.5 
z
" id="C1_0_235d7fd949"/>
    </defs>
    <g clip-path="url(#pea3016cdd5)">
     <use style="fill:#ffa15a;stroke:#686868;" x="87.890513" xlink:href="#C1_0_235d7fd949" y="97.285436"/>
    </g>
    <g clip-path="url(#pea3016cdd5)">
     <use style="fill:#ffa15a;stroke:#686868;" x="87.890513" xlink:href="#C1_0_235d7fd949" y="102.415559"/>
    </g>
    <g clip-path="url(#pea3016cdd5)">
     <use style="fill:#ffa15a;stroke:#686868;" x="87.890513" xlink:href="#C1_0_235d7fd949" y="141.74698"/>
    </g>
    <g clip-path="url(#pea3016cdd5)">
     <use style="fill:#ffa15a;stroke:#686868;" x="86.169893" xlink:href="#C1_0_235d7fd949" y="155.959232"/>
    </g>
    <g clip-path="url(#pea3016cdd5)">
     <use style="fill:#ffa15a;stroke:#686868;" x="89.396343" xlink:href="#C1_0_235d7fd949" y="93.551365"/>
    </g>
    <g clip-path="url(#pea3016cdd5)">
     <use style="fill:#ffa15a;stroke:#686868;" x="87.890513" xlink:href="#C1_0_235d7fd949" y="110.425717"/>
    </g>
    <g clip-path="url(#pea3016cdd5)">
     <use style="fill:#ffa15a;stroke:#686868;" x="87.890513" xlink:href="#C1_0_235d7fd949" y="159.608164"/>
    </g>
    <g clip-path="url(#pea3016cdd5)">
     <use style="fill:#ffa15a;stroke:#686868;" x="87.890513" xlink:href="#C1_0_235d7fd949" y="133.616792"/>
    </g>
    <g clip-path="url(#pea3016cdd5)">
     <use style="fill:#ffa15a;stroke:#686868;" x="87.890513" xlink:href="#C1_0_235d7fd949" y="151.980008"/>
    </g>
    <g clip-path="url(#pea3016cdd5)">
     <use style="fill:#ffa15a;stroke:#686868;" x="86.826381" xlink:href="#C1_0_235d7fd949" y="90.387611"/>
    </g>
    <g clip-path="url(#pea3016cdd5)">
     <use style="fill:#ffa15a;stroke:#686868;" x="87.890513" xlink:href="#C1_0_235d7fd949" y="125.360608"/>
    </g>
    <g clip-path="url(#pea3016cdd5)">
     <use style="fill:#ffa15a;stroke:#686868;" x="87.890513" xlink:href="#C1_0_235d7fd949" y="218.622093"/>
    </g>
    <g clip-path="url(#pea3016cdd5)">
     <use style="fill:#ffa15a;stroke:#686868;" x="84.113573" xlink:href="#C1_0_235d7fd949" y="95.535871"/>
    </g>
    <g clip-path="url(#pea3016cdd5)">
     <use style="fill:#ffa15a;stroke:#686868;" x="87.890513" xlink:href="#C1_0_235d7fd949" y="119.969807"/>
    </g>
    <g clip-path="url(#pea3016cdd5)">
     <use style="fill:#ffa15a;stroke:#686868;" x="90.969925" xlink:href="#C1_0_235d7fd949" y="89.733968"/>
    </g>
   </g>
   <g id="PathCollection_3">
    <defs>
     <path d="M 0 1.5 
C 0.397805 1.5 0.77937 1.341951 1.06066 1.06066 
C 1.341951 0.77937 1.5 0.397805 1.5 0 
C 1.5 -0.397805 1.341951 -0.77937 1.06066 -1.06066 
C 0.77937 -1.341951 0.397805 -1.5 0 -1.5 
C -0.397805 -1.5 -0.77937 -1.341951 -1.06066 -1.06066 
C -1.341951 -0.77937 -1.5 -0.397805 -1.5 0 
C -1.5 0.397805 -1.341951 0.77937 -1.06066 1.06066 
C -0.77937 1.341951 -0.397805 1.5 0 1.5 
z
" id="C2_0_6bfae75c59"/>
    </defs>
    <g clip-path="url(#pea3016cdd5)">
     <use style="fill:#00cc96;stroke:#3d3d3d;" x="128.989524" xlink:href="#C2_0_6bfae75c59" y="109.829563"/>
    </g>
    <g clip-path="url(#pea3016cdd5)">
     <use style="fill:#00cc96;stroke:#3d3d3d;" x="125.011481" xlink:href="#C2_0_6bfae75c59" y="173.451597"/>
    </g>
    <g clip-path="url(#pea3016cdd5)">
     <use style="fill:#00cc96;stroke:#3d3d3d;" x="128.670595" xlink:href="#C2_0_6bfae75c59" y="156.060983"/>
    </g>
    <g clip-path="url(#pea3016cdd5)">
     <use style="fill:#00cc96;stroke:#3d3d3d;" x="125.011481" xlink:href="#C2_0_6bfae75c59" y="164.81064"/>
    </g>
    <g clip-path="url(#pea3016cdd5)">
     <use style="fill:#00cc96;stroke:#3d3d3d;" x="125.011481" xlink:href="#C2_0_6bfae75c59" y="99.033425"/>
    </g>
    <g clip-path="url(#pea3016cdd5)">
     <use style="fill:#00cc96;stroke:#3d3d3d;" x="120.85396" xlink:href="#C2_0_6bfae75c59" y="110.545233"/>
    </g>
    <g clip-path="url(#pea3016cdd5)">
     <use style="fill:#00cc96;stroke:#3d3d3d;" x="125.011481" xlink:href="#C2_0_6bfae75c59" y="196.49445"/>
    </g>
    <g clip-path="url(#pea3016cdd5)">
     <use style="fill:#00cc96;stroke:#3d3d3d;" x="125.011481" xlink:href="#C2_0_6bfae75c59" y="141.730479"/>
    </g>
    <g clip-path="url(#pea3016cdd5)">
     <use style="fill:#00cc96;stroke:#3d3d3d;" x="125.011481" xlink:href="#C2_0_6bfae75c59" y="158.024573"/>
    </g>
    <g clip-path="url(#pea3016cdd5)">
     <use style="fill:#00cc96;stroke:#3d3d3d;" x="125.011481" xlink:href="#C2_0_6bfae75c59" y="62.257023"/>
    </g>
    <g clip-path="url(#pea3016cdd5)">
     <use style="fill:#00cc96;stroke:#3d3d3d;" x="120.838923" xlink:href="#C2_0_6bfae75c59" y="157.568071"/>
    </g>
    <g clip-path="url(#pea3016cdd5)">
     <use style="fill:#00cc96;stroke:#3d3d3d;" x="125.011481" xlink:href="#C2_0_6bfae75c59" y="118.868199"/>
    </g>
    <g clip-path="url(#pea3016cdd5)">
     <use style="fill:#00cc96;stroke:#3d3d3d;" x="125.011481" xlink:href="#C2_0_6bfae75c59" y="111.11269"/>
    </g>
    <g clip-path="url(#pea3016cdd5)">
     <use style="fill:#00cc96;stroke:#3d3d3d;" x="125.011481" xlink:href="#C2_0_6bfae75c59" y="135.553013"/>
    </g>
    <g clip-path="url(#pea3016cdd5)">
     <use style="fill:#00cc96;stroke:#3d3d3d;" x="128.936107" xlink:href="#C2_0_6bfae75c59" y="134.128475"/>
    </g>
   </g>
   <g id="PathCollection_4">
    <defs>
     <path d="M 0 1.5 
C 0.397805 1.5 0.77937 1.341951 1.06066 1.06066 
C 1.341951 0.77937 1.5 0.397805 1.5 0 
C 1.5 -0.397805 1.341951 -0.77937 1.06066 -1.06066 
C 0.77937 -1.341951 0.397805 -1.5 0 -1.5 
C -0.397805 -1.5 -0.77937 -1.341951 -1.06066 -1.06066 
C -1.341951 -0.77937 -1.5 -0.397805 -1.5 0 
C -1.5 0.397805 -1.341951 0.77937 -1.06066 1.06066 
C -0.77937 1.341951 -0.397805 1.5 0 1.5 
z
" id="C3_0_f63c50523b"/>
    </defs>
    <g clip-path="url(#pea3016cdd5)">
     <use style="fill:#ffa15a;stroke:#686868;" x="149.758794" xlink:href="#C3_0_f63c50523b" y="107.076599"/>
    </g>
    <g clip-path="url(#pea3016cdd5)">
     <use style="fill:#ffa15a;stroke:#686868;" x="152.902908" xlink:href="#C3_0_f63c50523b" y="130.780094"/>
    </g>
    <g clip-path="url(#pea3016cdd5)">
     <use style="fill:#ffa15a;stroke:#686868;" x="149.758794" xlink:href="#C3_0_f63c50523b" y="116.870402"/>
    </g>
    <g clip-path="url(#pea3016cdd5)">
     <use style="fill:#ffa15a;stroke:#686868;" x="149.758794" xlink:href="#C3_0_f63c50523b" y="124.197181"/>
    </g>
    <g clip-path="url(#pea3016cdd5)">
     <use style="fill:#ffa15a;stroke:#686868;" x="149.758794" xlink:href="#C3_0_f63c50523b" y="147.000615"/>
    </g>
    <g clip-path="url(#pea3016cdd5)">
     <use style="fill:#ffa15a;stroke:#686868;" x="149.758794" xlink:href="#C3_0_f63c50523b" y="70.772542"/>
    </g>
    <g clip-path="url(#pea3016cdd5)">
     <use style="fill:#ffa15a;stroke:#686868;" x="149.758794" xlink:href="#C3_0_f63c50523b" y="133.432187"/>
    </g>
    <g clip-path="url(#pea3016cdd5)">
     <use style="fill:#ffa15a;stroke:#686868;" x="149.758794" xlink:href="#C3_0_f63c50523b" y="139.963113"/>
    </g>
    <g clip-path="url(#pea3016cdd5)">
     <use style="fill:#ffa15a;stroke:#686868;" x="149.758794" xlink:href="#C3_0_f63c50523b" y="180.887968"/>
    </g>
    <g clip-path="url(#pea3016cdd5)">
     <use style="fill:#ffa15a;stroke:#686868;" x="149.758794" xlink:href="#C3_0_f63c50523b" y="62.110052"/>
    </g>
    <g clip-path="url(#pea3016cdd5)">
     <use style="fill:#ffa15a;stroke:#686868;" x="145.85489" xlink:href="#C3_0_f63c50523b" y="105.601321"/>
    </g>
    <g clip-path="url(#pea3016cdd5)">
     <use style="fill:#ffa15a;stroke:#686868;" x="149.758794" xlink:href="#C3_0_f63c50523b" y="165.958899"/>
    </g>
    <g clip-path="url(#pea3016cdd5)">
     <use style="fill:#ffa15a;stroke:#686868;" x="146.763612" xlink:href="#C3_0_f63c50523b" y="114.066309"/>
    </g>
    <g clip-path="url(#pea3016cdd5)">
     <use style="fill:#ffa15a;stroke:#686868;" x="146.572154" xlink:href="#C3_0_f63c50523b" y="130.826537"/>
    </g>
    <g clip-path="url(#pea3016cdd5)">
     <use style="fill:#ffa15a;stroke:#686868;" x="149.758794" xlink:href="#C3_0_f63c50523b" y="98.854739"/>
    </g>
   </g>
   <g id="PathCollection_5">
    <defs>
     <path d="M 0 1.5 
C 0.397805 1.5 0.77937 1.341951 1.06066 1.06066 
C 1.341951 0.77937 1.5 0.397805 1.5 0 
C 1.5 -0.397805 1.341951 -0.77937 1.06066 -1.06066 
C 0.77937 -1.341951 0.397805 -1.5 0 -1.5 
C -0.397805 -1.5 -0.77937 -1.341951 -1.06066 -1.06066 
C -1.341951 -0.77937 -1.5 -0.397805 -1.5 0 
C -1.5 0.397805 -1.341951 0.77937 -1.06066 1.06066 
C -0.77937 1.341951 -0.397805 1.5 0 1.5 
z
" id="C4_0_e990890f40"/>
    </defs>
    <g clip-path="url(#pea3016cdd5)">
     <use style="fill:#00cc96;stroke:#3d3d3d;" x="186.879762" xlink:href="#C4_0_e990890f40" y="110.576622"/>
    </g>
    <g clip-path="url(#pea3016cdd5)">
     <use style="fill:#00cc96;stroke:#3d3d3d;" x="186.879762" xlink:href="#C4_0_e990890f40" y="199.914006"/>
    </g>
    <g clip-path="url(#pea3016cdd5)">
     <use style="fill:#00cc96;stroke:#3d3d3d;" x="186.879762" xlink:href="#C4_0_e990890f40" y="192.674084"/>
    </g>
    <g clip-path="url(#pea3016cdd5)">
     <use style="fill:#00cc96;stroke:#3d3d3d;" x="186.879762" xlink:href="#C4_0_e990890f40" y="178.115142"/>
    </g>
    <g clip-path="url(#pea3016cdd5)">
     <use style="fill:#00cc96;stroke:#3d3d3d;" x="186.879762" xlink:href="#C4_0_e990890f40" y="121.378841"/>
    </g>
    <g clip-path="url(#pea3016cdd5)">
     <use style="fill:#00cc96;stroke:#3d3d3d;" x="186.879762" xlink:href="#C4_0_e990890f40" y="160.52478"/>
    </g>
    <g clip-path="url(#pea3016cdd5)">
     <use style="fill:#00cc96;stroke:#3d3d3d;" x="186.879762" xlink:href="#C4_0_e990890f40" y="167.55971"/>
    </g>
    <g clip-path="url(#pea3016cdd5)">
     <use style="fill:#00cc96;stroke:#3d3d3d;" x="182.808899" xlink:href="#C4_0_e990890f40" y="159.540516"/>
    </g>
    <g clip-path="url(#pea3016cdd5)">
     <use style="fill:#00cc96;stroke:#3d3d3d;" x="186.879762" xlink:href="#C4_0_e990890f40" y="144.663474"/>
    </g>
    <g clip-path="url(#pea3016cdd5)">
     <use style="fill:#00cc96;stroke:#3d3d3d;" x="186.879762" xlink:href="#C4_0_e990890f40" y="116.041725"/>
    </g>
   </g>
   <g id="PathCollection_6">
    <defs>
     <path d="M 0 1.5 
C 0.397805 1.5 0.77937 1.341951 1.06066 1.06066 
C 1.341951 0.77937 1.5 0.397805 1.5 0 
C 1.5 -0.397805 1.341951 -0.77937 1.06066 -1.06066 
C 0.77937 -1.341951 0.397805 -1.5 0 -1.5 
C -0.397805 -1.5 -0.77937 -1.341951 -1.06066 -1.06066 
C -1.341951 -0.77937 -1.5 -0.397805 -1.5 0 
C -1.5 0.397805 -1.341951 0.77937 -1.06066 1.06066 
C -0.77937 1.341951 -0.397805 1.5 0 1.5 
z
" id="C5_0_5e01ed2509"/>
    </defs>
    <g clip-path="url(#pea3016cdd5)">
     <use style="fill:#ffa15a;stroke:#686868;" x="211.627075" xlink:href="#C5_0_5e01ed2509" y="56.669309"/>
    </g>
    <g clip-path="url(#pea3016cdd5)">
     <use style="fill:#ffa15a;stroke:#686868;" x="211.627075" xlink:href="#C5_0_5e01ed2509" y="145.920802"/>
    </g>
    <g clip-path="url(#pea3016cdd5)">
     <use style="fill:#ffa15a;stroke:#686868;" x="211.627075" xlink:href="#C5_0_5e01ed2509" y="186.899085"/>
    </g>
    <g clip-path="url(#pea3016cdd5)">
     <use style="fill:#ffa15a;stroke:#686868;" x="211.627075" xlink:href="#C5_0_5e01ed2509" y="213.355655"/>
    </g>
    <g clip-path="url(#pea3016cdd5)">
     <use style="fill:#ffa15a;stroke:#686868;" x="211.627075" xlink:href="#C5_0_5e01ed2509" y="192.846667"/>
    </g>
    <g clip-path="url(#pea3016cdd5)">
     <use style="fill:#ffa15a;stroke:#686868;" x="211.627075" xlink:href="#C5_0_5e01ed2509" y="116.427243"/>
    </g>
    <g clip-path="url(#pea3016cdd5)">
     <use style="fill:#ffa15a;stroke:#686868;" x="211.627075" xlink:href="#C5_0_5e01ed2509" y="239.079491"/>
    </g>
    <g clip-path="url(#pea3016cdd5)">
     <use style="fill:#ffa15a;stroke:#686868;" x="211.627075" xlink:href="#C5_0_5e01ed2509" y="127.860187"/>
    </g>
    <g clip-path="url(#pea3016cdd5)">
     <use style="fill:#ffa15a;stroke:#686868;" x="211.627075" xlink:href="#C5_0_5e01ed2509" y="152.217105"/>
    </g>
    <g clip-path="url(#pea3016cdd5)">
     <use style="fill:#ffa15a;stroke:#686868;" x="211.627075" xlink:href="#C5_0_5e01ed2509" y="101.293602"/>
    </g>
   </g>
   <g id="PathCollection_7">
    <defs>
     <path d="M 0 1.5 
C 0.397805 1.5 0.77937 1.341951 1.06066 1.06066 
C 1.341951 0.77937 1.5 0.397805 1.5 0 
C 1.5 -0.397805 1.341951 -0.77937 1.06066 -1.06066 
C 0.77937 -1.341951 0.397805 -1.5 0 -1.5 
C -0.397805 -1.5 -0.77937 -1.341951 -1.06066 -1.06066 
C -1.341951 -0.77937 -1.5 -0.397805 -1.5 0 
C -1.5 0.397805 -1.341951 0.77937 -1.06066 1.06066 
C -0.77937 1.341951 -0.397805 1.5 0 1.5 
z
" id="C6_0_e64766581d"/>
    </defs>
    <g clip-path="url(#pea3016cdd5)">
     <use style="fill:#00cc96;stroke:#3d3d3d;" x="248.748043" xlink:href="#C6_0_e64766581d" y="113.842294"/>
    </g>
    <g clip-path="url(#pea3016cdd5)">
     <use style="fill:#00cc96;stroke:#3d3d3d;" x="248.748043" xlink:href="#C6_0_e64766581d" y="194.690003"/>
    </g>
    <g clip-path="url(#pea3016cdd5)">
     <use style="fill:#00cc96;stroke:#3d3d3d;" x="248.748043" xlink:href="#C6_0_e64766581d" y="153.211648"/>
    </g>
    <g clip-path="url(#pea3016cdd5)">
     <use style="fill:#00cc96;stroke:#3d3d3d;" x="248.748043" xlink:href="#C6_0_e64766581d" y="164.510867"/>
    </g>
    <g clip-path="url(#pea3016cdd5)">
     <use style="fill:#00cc96;stroke:#3d3d3d;" x="248.748043" xlink:href="#C6_0_e64766581d" y="107.504645"/>
    </g>
   </g>
   <g id="PathCollection_8">
    <defs>
     <path d="M 0 1.5 
C 0.397805 1.5 0.77937 1.341951 1.06066 1.06066 
C 1.341951 0.77937 1.5 0.397805 1.5 0 
C 1.5 -0.397805 1.341951 -0.77937 1.06066 -1.06066 
C 0.77937 -1.341951 0.397805 -1.5 0 -1.5 
C -0.397805 -1.5 -0.77937 -1.341951 -1.06066 -1.06066 
C -1.341951 -0.77937 -1.5 -0.397805 -1.5 0 
C -1.5 0.397805 -1.341951 0.77937 -1.06066 1.06066 
C -0.77937 1.341951 -0.397805 1.5 0 1.5 
z
" id="C7_0_3a09f96eb3"/>
    </defs>
    <g clip-path="url(#pea3016cdd5)">
     <use style="fill:#ffa15a;stroke:#686868;" x="273.495355" xlink:href="#C7_0_3a09f96eb3" y="58.961176"/>
    </g>
    <g clip-path="url(#pea3016cdd5)">
     <use style="fill:#ffa15a;stroke:#686868;" x="273.495355" xlink:href="#C7_0_3a09f96eb3" y="223.027323"/>
    </g>
    <g clip-path="url(#pea3016cdd5)">
     <use style="fill:#ffa15a;stroke:#686868;" x="273.495355" xlink:href="#C7_0_3a09f96eb3" y="105.045247"/>
    </g>
    <g clip-path="url(#pea3016cdd5)">
     <use style="fill:#ffa15a;stroke:#686868;" x="273.495355" xlink:href="#C7_0_3a09f96eb3" y="154.876513"/>
    </g>
    <g clip-path="url(#pea3016cdd5)">
     <use style="fill:#ffa15a;stroke:#686868;" x="273.495355" xlink:href="#C7_0_3a09f96eb3" y="169.978474"/>
    </g>
   </g>
   <g id="PathCollection_9">
    <defs>
     <path d="M 0 1.5 
C 0.397805 1.5 0.77937 1.341951 1.06066 1.06066 
C 1.341951 0.77937 1.5 0.397805 1.5 0 
C 1.5 -0.397805 1.341951 -0.77937 1.06066 -1.06066 
C 0.77937 -1.341951 0.397805 -1.5 0 -1.5 
C -0.397805 -1.5 -0.77937 -1.341951 -1.06066 -1.06066 
C -1.341951 -0.77937 -1.5 -0.397805 -1.5 0 
C -1.5 0.397805 -1.341951 0.77937 -1.06066 1.06066 
C -0.77937 1.341951 -0.397805 1.5 0 1.5 
z
" id="C8_0_996d4101cf"/>
    </defs>
    <g clip-path="url(#pea3016cdd5)">
     <use style="fill:#00cc96;stroke:#3d3d3d;" x="310.616324" xlink:href="#C8_0_996d4101cf" y="150.367171"/>
    </g>
    <g clip-path="url(#pea3016cdd5)">
     <use style="fill:#00cc96;stroke:#3d3d3d;" x="310.616324" xlink:href="#C8_0_996d4101cf" y="204.921381"/>
    </g>
    <g clip-path="url(#pea3016cdd5)">
     <use style="fill:#00cc96;stroke:#3d3d3d;" x="310.616324" xlink:href="#C8_0_996d4101cf" y="167.515224"/>
    </g>
    <g clip-path="url(#pea3016cdd5)">
     <use style="fill:#00cc96;stroke:#3d3d3d;" x="306.599565" xlink:href="#C8_0_996d4101cf" y="137.887815"/>
    </g>
    <g clip-path="url(#pea3016cdd5)">
     <use style="fill:#00cc96;stroke:#3d3d3d;" x="310.616324" xlink:href="#C8_0_996d4101cf" y="139.056431"/>
    </g>
   </g>
   <g id="PathCollection_10">
    <defs>
     <path d="M 0 1.5 
C 0.397805 1.5 0.77937 1.341951 1.06066 1.06066 
C 1.341951 0.77937 1.5 0.397805 1.5 0 
C 1.5 -0.397805 1.341951 -0.77937 1.06066 -1.06066 
C 0.77937 -1.341951 0.397805 -1.5 0 -1.5 
C -0.397805 -1.5 -0.77937 -1.341951 -1.06066 -1.06066 
C -1.341951 -0.77937 -1.5 -0.397805 -1.5 0 
C -1.5 0.397805 -1.341951 0.77937 -1.06066 1.06066 
C -0.77937 1.341951 -0.397805 1.5 0 1.5 
z
" id="C9_0_72665084e6"/>
    </defs>
    <g clip-path="url(#pea3016cdd5)">
     <use style="fill:#ffa15a;stroke:#686868;" x="335.363636" xlink:href="#C9_0_72665084e6" y="96.818509"/>
    </g>
    <g clip-path="url(#pea3016cdd5)">
     <use style="fill:#ffa15a;stroke:#686868;" x="335.363636" xlink:href="#C9_0_72665084e6" y="238.80719"/>
    </g>
    <g clip-path="url(#pea3016cdd5)">
     <use style="fill:#ffa15a;stroke:#686868;" x="335.363636" xlink:href="#C9_0_72665084e6" y="139.437475"/>
    </g>
    <g clip-path="url(#pea3016cdd5)">
     <use style="fill:#ffa15a;stroke:#686868;" x="335.363636" xlink:href="#C9_0_72665084e6" y="148.978755"/>
    </g>
    <g clip-path="url(#pea3016cdd5)">
     <use style="fill:#ffa15a;stroke:#686868;" x="335.363636" xlink:href="#C9_0_72665084e6" y="187.401726"/>
    </g>
   </g>
   <g id="legend_1">
    <g id="patch_7">
     <path d="M 51.8 38.535776 
L 342.2 38.535776 
Q 344.2 38.535776 344.2 36.535776 
L 344.2 12.574526 
Q 344.2 10.574526 342.2 10.574526 
L 51.8 10.574526 
Q 49.8 10.574526 49.8 12.574526 
L 49.8 36.535776 
Q 49.8 38.535776 51.8 38.535776 
z
" style="fill:#ffffff;opacity:0.8;stroke:#cccccc;stroke-linejoin:miter;"/>
    </g>
    <g id="line2d_15">
     <path d="M 53.8 24.634057 
L 73.8 24.634057 
" style="fill:none;stroke:#00cc96;stroke-linecap:square;stroke-width:1.5;"/>
    </g>
    <g id="line2d_16"/>
    <g id="text_13">
     <!-- GCaMP channel -->
     <defs>
      <path d="M 41.21875 28.078125 
L 41.21875 36.46875 
L 71.53125 36.53125 
L 71.53125 9.96875 
Q 64.546875 4.390625 57.125 1.578125 
Q 49.703125 -1.21875 41.890625 -1.21875 
Q 31.34375 -1.21875 22.71875 3.296875 
Q 14.109375 7.8125 9.71875 16.359375 
Q 5.328125 24.90625 5.328125 35.453125 
Q 5.328125 45.90625 9.6875 54.953125 
Q 14.0625 64.015625 22.265625 68.40625 
Q 30.46875 72.796875 41.15625 72.796875 
Q 48.921875 72.796875 55.1875 70.28125 
Q 61.46875 67.78125 65.03125 63.28125 
Q 68.609375 58.796875 70.453125 51.5625 
L 61.921875 49.21875 
Q 60.296875 54.6875 57.90625 57.8125 
Q 55.515625 60.9375 51.0625 62.8125 
Q 46.625 64.703125 41.21875 64.703125 
Q 34.71875 64.703125 29.984375 62.71875 
Q 25.25 60.75 22.34375 57.515625 
Q 19.4375 54.296875 17.828125 50.4375 
Q 15.09375 43.796875 15.09375 36.03125 
Q 15.09375 26.46875 18.390625 20.015625 
Q 21.6875 13.578125 27.984375 10.453125 
Q 34.28125 7.328125 41.359375 7.328125 
Q 47.515625 7.328125 53.375 9.6875 
Q 59.234375 12.0625 62.25 14.75 
L 62.25 28.078125 
z
" id="ArialMT-71"/>
      <path d="M 58.796875 25.09375 
L 68.265625 22.703125 
Q 65.28125 11.03125 57.546875 4.90625 
Q 49.8125 -1.21875 38.625 -1.21875 
Q 27.046875 -1.21875 19.796875 3.484375 
Q 12.546875 8.203125 8.765625 17.140625 
Q 4.984375 26.078125 4.984375 36.328125 
Q 4.984375 47.515625 9.25 55.828125 
Q 13.53125 64.15625 21.40625 68.46875 
Q 29.296875 72.796875 38.765625 72.796875 
Q 49.515625 72.796875 56.828125 67.328125 
Q 64.15625 61.859375 67.046875 51.953125 
L 57.71875 49.75 
Q 55.21875 57.5625 50.484375 61.125 
Q 45.75 64.703125 38.578125 64.703125 
Q 30.328125 64.703125 24.78125 60.734375 
Q 19.234375 56.78125 16.984375 50.109375 
Q 14.75 43.453125 14.75 36.375 
Q 14.75 27.25 17.40625 20.4375 
Q 20.0625 13.625 25.671875 10.25 
Q 31.296875 6.890625 37.84375 6.890625 
Q 45.796875 6.890625 51.3125 11.46875 
Q 56.84375 16.0625 58.796875 25.09375 
z
" id="ArialMT-67"/>
      <path d="M 7.421875 0 
L 7.421875 71.578125 
L 21.6875 71.578125 
L 38.625 20.90625 
Q 40.96875 13.8125 42.046875 10.296875 
Q 43.265625 14.203125 45.84375 21.78125 
L 62.984375 71.578125 
L 75.734375 71.578125 
L 75.734375 0 
L 66.609375 0 
L 66.609375 59.90625 
L 45.796875 0 
L 37.25 0 
L 16.546875 60.9375 
L 16.546875 0 
z
" id="ArialMT-77"/>
      <path d="M 6.59375 0 
L 6.59375 71.578125 
L 15.375 71.578125 
L 15.375 45.90625 
Q 21.53125 53.03125 30.90625 53.03125 
Q 36.671875 53.03125 40.921875 50.75 
Q 45.171875 48.484375 47 44.484375 
Q 48.828125 40.484375 48.828125 32.859375 
L 48.828125 0 
L 40.046875 0 
L 40.046875 32.859375 
Q 40.046875 39.453125 37.1875 42.453125 
Q 34.328125 45.453125 29.109375 45.453125 
Q 25.203125 45.453125 21.75 43.421875 
Q 18.3125 41.40625 16.84375 37.9375 
Q 15.375 34.46875 15.375 28.375 
L 15.375 0 
z
" id="ArialMT-104"/>
     </defs>
     <g transform="translate(81.8 28.134057)scale(0.1 -0.1)">
      <use xlink:href="#ArialMT-71"/>
      <use x="77.783203" xlink:href="#ArialMT-67"/>
      <use x="150" xlink:href="#ArialMT-97"/>
      <use x="205.615234" xlink:href="#ArialMT-77"/>
      <use x="288.916016" xlink:href="#ArialMT-80"/>
      <use x="353.865234" xlink:href="#ArialMT-32"/>
      <use x="381.648438" xlink:href="#ArialMT-99"/>
      <use x="431.648438" xlink:href="#ArialMT-104"/>
      <use x="487.263672" xlink:href="#ArialMT-97"/>
      <use x="542.878906" xlink:href="#ArialMT-110"/>
      <use x="598.494141" xlink:href="#ArialMT-110"/>
      <use x="654.109375" xlink:href="#ArialMT-101"/>
      <use x="709.724609" xlink:href="#ArialMT-108"/>
     </g>
    </g>
    <g id="line2d_17">
     <path d="M 206.789062 24.634057 
L 226.789062 24.634057 
" style="fill:none;stroke:#ffa15a;stroke-linecap:square;stroke-width:1.5;"/>
    </g>
    <g id="line2d_18"/>
    <g id="text_14">
     <!-- GCaMP cells registered -->
     <defs>
      <path d="M 4.984375 -4.296875 
L 13.53125 -5.5625 
Q 14.0625 -9.515625 16.5 -11.328125 
Q 19.78125 -13.765625 25.4375 -13.765625 
Q 31.546875 -13.765625 34.859375 -11.328125 
Q 38.1875 -8.890625 39.359375 -4.5 
Q 40.046875 -1.8125 39.984375 6.78125 
Q 34.234375 0 25.640625 0 
Q 14.9375 0 9.078125 7.71875 
Q 3.21875 15.4375 3.21875 26.21875 
Q 3.21875 33.640625 5.90625 39.90625 
Q 8.59375 46.1875 13.6875 49.609375 
Q 18.796875 53.03125 25.6875 53.03125 
Q 34.859375 53.03125 40.828125 45.609375 
L 40.828125 51.859375 
L 48.921875 51.859375 
L 48.921875 7.03125 
Q 48.921875 -5.078125 46.453125 -10.125 
Q 44 -15.1875 38.640625 -18.109375 
Q 33.296875 -21.046875 25.484375 -21.046875 
Q 16.21875 -21.046875 10.5 -16.875 
Q 4.78125 -12.703125 4.984375 -4.296875 
z
M 12.25 26.859375 
Q 12.25 16.65625 16.296875 11.96875 
Q 20.359375 7.28125 26.46875 7.28125 
Q 32.515625 7.28125 36.609375 11.9375 
Q 40.71875 16.609375 40.71875 26.5625 
Q 40.71875 36.078125 36.5 40.90625 
Q 32.28125 45.75 26.3125 45.75 
Q 20.453125 45.75 16.34375 40.984375 
Q 12.25 36.234375 12.25 26.859375 
z
" id="ArialMT-103"/>
      <path d="M 40.234375 0 
L 40.234375 6.546875 
Q 35.296875 -1.171875 25.734375 -1.171875 
Q 19.53125 -1.171875 14.328125 2.25 
Q 9.125 5.671875 6.265625 11.796875 
Q 3.421875 17.921875 3.421875 25.875 
Q 3.421875 33.640625 6 39.96875 
Q 8.59375 46.296875 13.765625 49.65625 
Q 18.953125 53.03125 25.34375 53.03125 
Q 30.03125 53.03125 33.6875 51.046875 
Q 37.359375 49.078125 39.65625 45.90625 
L 39.65625 71.578125 
L 48.390625 71.578125 
L 48.390625 0 
z
M 12.453125 25.875 
Q 12.453125 15.921875 16.640625 10.984375 
Q 20.84375 6.0625 26.5625 6.0625 
Q 32.328125 6.0625 36.34375 10.765625 
Q 40.375 15.484375 40.375 25.140625 
Q 40.375 35.796875 36.265625 40.765625 
Q 32.171875 45.75 26.171875 45.75 
Q 20.3125 45.75 16.375 40.96875 
Q 12.453125 36.1875 12.453125 25.875 
z
" id="ArialMT-100"/>
     </defs>
     <g transform="translate(234.789062 21.854214)scale(0.1 -0.1)">
      <use xlink:href="#ArialMT-71"/>
      <use x="77.783203" xlink:href="#ArialMT-67"/>
      <use x="150" xlink:href="#ArialMT-97"/>
      <use x="205.615234" xlink:href="#ArialMT-77"/>
      <use x="288.916016" xlink:href="#ArialMT-80"/>
      <use x="353.865234" xlink:href="#ArialMT-32"/>
      <use x="381.648438" xlink:href="#ArialMT-99"/>
      <use x="431.648438" xlink:href="#ArialMT-101"/>
      <use x="487.263672" xlink:href="#ArialMT-108"/>
      <use x="509.480469" xlink:href="#ArialMT-108"/>
      <use x="531.697266" xlink:href="#ArialMT-115"/>
      <use x="581.697266" xlink:href="#ArialMT-32"/>
      <use x="609.480469" xlink:href="#ArialMT-114"/>
      <use x="642.78125" xlink:href="#ArialMT-101"/>
      <use x="698.396484" xlink:href="#ArialMT-103"/>
      <use x="754.011719" xlink:href="#ArialMT-105"/>
      <use x="776.228516" xlink:href="#ArialMT-115"/>
      <use x="826.228516" xlink:href="#ArialMT-116"/>
      <use x="854.011719" xlink:href="#ArialMT-101"/>
      <use x="909.626953" xlink:href="#ArialMT-114"/>
      <use x="942.927734" xlink:href="#ArialMT-101"/>
      <use x="998.542969" xlink:href="#ArialMT-100"/>
     </g>
     <!-- with tdTomato -->
     <defs>
      <path d="M 16.15625 0 
L 0.296875 51.859375 
L 9.375 51.859375 
L 17.625 21.921875 
L 20.703125 10.796875 
Q 20.90625 11.625 23.390625 21.484375 
L 31.640625 51.859375 
L 40.671875 51.859375 
L 48.4375 21.78125 
L 51.03125 11.859375 
L 54 21.875 
L 62.890625 51.859375 
L 71.4375 51.859375 
L 55.21875 0 
L 46.09375 0 
L 37.84375 31.0625 
L 35.84375 39.890625 
L 25.34375 0 
z
" id="ArialMT-119"/>
      <path d="M 25.921875 0 
L 25.921875 63.140625 
L 2.34375 63.140625 
L 2.34375 71.578125 
L 59.078125 71.578125 
L 59.078125 63.140625 
L 35.40625 63.140625 
L 35.40625 0 
z
" id="ArialMT-84"/>
      <path d="M 6.59375 0 
L 6.59375 51.859375 
L 14.453125 51.859375 
L 14.453125 44.578125 
Q 16.890625 48.390625 20.9375 50.703125 
Q 25 53.03125 30.171875 53.03125 
Q 35.9375 53.03125 39.625 50.640625 
Q 43.3125 48.25 44.828125 43.953125 
Q 50.984375 53.03125 60.84375 53.03125 
Q 68.5625 53.03125 72.703125 48.75 
Q 76.859375 44.484375 76.859375 35.59375 
L 76.859375 0 
L 68.109375 0 
L 68.109375 32.671875 
Q 68.109375 37.9375 67.25 40.25 
Q 66.40625 42.578125 64.15625 43.984375 
Q 61.921875 45.40625 58.890625 45.40625 
Q 53.421875 45.40625 49.796875 41.765625 
Q 46.1875 38.140625 46.1875 30.125 
L 46.1875 0 
L 37.40625 0 
L 37.40625 33.6875 
Q 37.40625 39.546875 35.25 42.46875 
Q 33.109375 45.40625 28.21875 45.40625 
Q 24.515625 45.40625 21.359375 43.453125 
Q 18.21875 41.5 16.796875 37.734375 
Q 15.375 33.984375 15.375 26.90625 
L 15.375 0 
z
" id="ArialMT-109"/>
     </defs>
     <g transform="translate(234.789062 32.548276)scale(0.1 -0.1)">
      <use xlink:href="#ArialMT-119"/>
      <use x="72.216797" xlink:href="#ArialMT-105"/>
      <use x="94.433594" xlink:href="#ArialMT-116"/>
      <use x="122.216797" xlink:href="#ArialMT-104"/>
      <use x="177.832031" xlink:href="#ArialMT-32"/>
      <use x="205.615234" xlink:href="#ArialMT-116"/>
      <use x="233.398438" xlink:href="#ArialMT-100"/>
      <use x="289.013672" xlink:href="#ArialMT-84"/>
      <use x="338.972656" xlink:href="#ArialMT-111"/>
      <use x="394.587891" xlink:href="#ArialMT-109"/>
      <use x="477.888672" xlink:href="#ArialMT-97"/>
      <use x="533.503906" xlink:href="#ArialMT-116"/>
      <use x="561.287109" xlink:href="#ArialMT-111"/>
     </g>
    </g>
   </g>
  </g>
 </g>
 <defs>
  <clipPath id="pea3016cdd5">
   <rect height="200.6512" width="304.4" x="44.8" y="47.5488"/>
  </clipPath>
 </defs>
</svg>
